<svg xmlns="http://www.w3.org/2000/svg" viewBox="0 0 1568.74 911.48"><defs><style>.cls-1{fill:#2e3192;}.cls-2{fill:#009245;}.cls-3{fill:#1b1464;}.cls-4{fill:#0071bc;}.cls-5{fill:#f0f;}.cls-6{fill:#666;}.cls-34,.cls-7{fill:#603813;}.cls-8{fill:#838bc5;}.cls-9{fill:#4d4d4d;}.cls-10{fill:#f15a24;}.cls-11{fill:#e6e6e6;}.cls-12{fill:#d4145a;}.cls-13{fill:#ed1e79;}.cls-14{fill:#8c6239;}.cls-15{fill:#ccc;}.cls-16{fill:#f7931e;}.cls-17{fill:#ba9bc9;}.cls-18{fill:#a67c52;}.cls-19{fill:#1a1a1a;}.cls-20{fill:#534741;}.cls-21{fill:gray;}.cls-22{fill:#b3b3b3;}.cls-23{fill:#c7b299;}.cls-24{fill:#736357;}.cls-25{fill:#006837;}.cls-26{fill:#84272d;}.cls-27{fill:#65c8d0;}.cls-28{fill:#fbb03b;}.cls-29{fill:aqua;}.cls-30{fill:#ff0;}.cls-31,.cls-33{fill:#42210b;}.cls-32{fill:none;}.cls-32,.cls-33,.cls-34{stroke:#1a1a1a;}.cls-32,.cls-33,.cls-34,.cls-35{stroke-miterlimit:10;}.cls-35{fill:#fff;stroke:#000;}</style></defs><g id="lines"><path class="cls-1" d="M959.48,499v-1.37h.45c-.44-1.29-3.31-2.45-7.71-3.28-1.37,2.93-2.64,5.61-3.69,7.84C954.06,501.43,958.1,500.29,959.48,499Z" transform="translate(-93.3 -65.9)"/><path class="cls-1" d="M911.57,496.84v2.49c2.38,1.65,8.83,2.94,17,3.4l.31-9.62c-10,.54-17.49,2.32-18.23,4.47h.93Z" transform="translate(-93.3 -65.9)"/><path class="cls-2" d="M959.48,499a1.45,1.45,0,0,0,.52-1,1,1,0,0,0-.07-.35h-.45Z" transform="translate(-93.3 -65.9)"/><path class="cls-3" d="M935.28,502.92h.19c.12-2.48.3-6,.47-10,.24-5.28.48-11.23.6-16.15.28-11.81,0-12-1.88-12.81-4.25-1.07-5,4.37-5,5,0,0,0,.07,0,.11l-.75,24,1.26-.07-1.26.07-.31,9.62C930.7,502.85,933,502.92,935.28,502.92Z" transform="translate(-93.3 -65.9)"/><path class="cls-4" d="M940.17,502.82c-1.52.06-3.09.1-4.7.1h-.19c-2.33,0-4.58-.07-6.72-.19-8.16-.46-14.61-1.75-17-3.4v54.55a1.81,1.81,0,0,0-.9,1.34c0,2.75,11.06,5,24.71,5s24.72-2.24,24.72-5a1.54,1.54,0,0,0-.62-1.11V499c-1.38,1.34-5.42,2.48-11,3.19C946,502.47,943.19,502.7,940.17,502.82Z" transform="translate(-93.3 -65.9)"/><path class="cls-1" d="M940.17,502.82l4.38-9.51c-2.67-.22-5.57-.35-8.61-.37-.17,3.95-.35,7.5-.47,10C937.08,502.92,938.65,502.88,940.17,502.82Z" transform="translate(-93.3 -65.9)"/><path class="cls-5" d="M948.53,502.14c1.05-2.23,2.32-4.91,3.69-7.84,5.8-12.33,13.56-29,15.9-34.68a3.19,3.19,0,0,0-.08-2.75c-.83-1.46-2.57-1.6-4-1.43a4,4,0,0,0-3.13,2.35l-16.34,35.52-4.38,9.51C943.19,502.7,946,502.47,948.53,502.14Z" transform="translate(-93.3 -65.9)"/><path class="cls-6" d="M1318.72,944.11c-56.28,0-101.9-21.93-101.9-49a24.59,24.59,0,0,1,1.27-7.69,27,27,0,0,0-3.66,13.31c0,27.91,46.7,50.55,104.29,50.55S1423,928.67,1423,900.76a27,27,0,0,0-3.64-13.27,24.42,24.42,0,0,1,1.25,7.65C1420.63,922.18,1375,944.11,1318.72,944.11Z" transform="translate(-93.3 -65.9)"/><path class="cls-7" d="M1324.74,370.86l64.3-22,.7,1c-3.11-11.33-6.69-29-2.29-39-1,.06-2.06.1-3.31.1,4.9-15.84,9.8-47.23-11.52-46.95s-21.31,35.72-21.31,35.72-3.17,1.15-8.64,0c12.39-38.31-10.08-38.6-10.08-38.6s1.15-6.91,2.59-15.84c-23.46-1.43-34.79-3.76-40-6,0,.62,0,1.09,0,1.4-6.62,10.08-5.47,32.83-5.47,32.83s6,11.52,2.78,11.23-11.42,13.54-14,17.86,12.09,9.79,12.09,9.79l-4.32,9.5,4.9,4.9-1.73,4.61a11.86,11.86,0,0,1,3.07,8.06c-.67,10.66,11.19,9.33,11.19,9.33s8.64-1.7,17.57-3.71c4,8.05,4.22,16.92,4,21.3-.09,1.72-.23,2.74-.23,2.74Zm44.86-88.57a12.57,12.57,0,0,1,2.07,1.39c1.91,0,4,1.24,6.23,4.75-2.18-3.51-4.32-4.73-6.23-4.75,2.68,2.17,6.49,6.87,1.77,14,4.72-7.1.91-11.8-1.77-14-4.15-.06-7.21,5.52-7.21,5.52s3.06-5.58,7.21-5.52A12.57,12.57,0,0,0,1369.6,282.29Zm-1.87,24.45c3.74-.28,21.6-12.67,10.94-24.05s-16.7,4.18-16.7,4.18,6-15.57,16.7-4.18-7.2,23.77-10.94,24.05-5.76-5.18-5.76-5.18S1364,307,1367.73,306.74Zm-64.48-18.58c-1.77,0-3.2-2-3.2-4.46s1.43-4.47,3.2-4.47,3.19,2,3.19,4.47S1305,288.16,1303.25,288.16Zm-6.85-15.48s8.29-6.32,14.31,0C1304.69,266.36,1296.4,272.68,1296.4,272.68Z" transform="translate(-93.3 -65.9)"/><path class="cls-8" d="M1177.47,519.28c.7-2,1.26-3.61,1.6-4.54l.34-.94-.34.94,16.72,4.24a171.66,171.66,0,0,0-1.1-20.23,3.55,3.55,0,0,1,0-1.22h-21.81l.11,2.23.81,17.37Z" transform="translate(-93.3 -65.9)"/><path class="cls-8" d="M1194.69,498.75a171.66,171.66,0,0,1,1.1,20.23l13.93,3.54c.27-.7.53-1.39.81-2.09a8.71,8.71,0,0,1,9.63-5.33c14.61,2.6,47.27,7.87,72.66,12.59,3.58-61,19.61-111.23,19.61-111.23L1309,401.1l14.94-24.73-1.12-4.84,1.94-.67.27-1.64s.14-1,.23-2.74l-15,13a16.58,16.58,0,0,0-4,6.55l-31.51,96.65a7.23,7.23,0,0,1-6.08,4.95c-13.88,1.54-55.15,6.07-70.59,7a3.61,3.61,0,0,0-3.3,2.91A3.55,3.55,0,0,0,1194.69,498.75Z" transform="translate(-93.3 -65.9)"/><path class="cls-7" d="M1125.52,504.55l1.73-.18c9.21-12,25,0,25,0l21.55,12.76-.81-17.37-32.54-11-11.84,9.43-8.19,6.51A18.11,18.11,0,0,1,1125.52,504.55Z" transform="translate(-93.3 -65.9)"/><path class="cls-9" d="M842.49,506.85l4.09,1.23a373.48,373.48,0,0,1,44,16.38c0-.45,0-.93,0-1.44.51-23.66,0-116.93,0-116.93s-102,10.37-110.59,9.79v77.06s10.09,1.33,25.7,4.63c7,1.48,15,3.35,23.82,5.66C833.71,504.34,838,505.54,842.49,506.85Zm-53.84-22.43V420.49c31.1,1.15,93.89-4.61,93.89-4.61v92C859.5,499.11,788.65,484.42,788.65,484.42Z" transform="translate(-93.3 -65.9)"/><path class="cls-10" d="M709.75,500.87a12,12,0,0,0,3.52,1.72,2.62,2.62,0,0,0,1.39,0c2.25-.68,5.75-1.61,7.72-2.13a4.78,4.78,0,0,1,3.46.41,60.59,60.59,0,0,1,9.65,7.12c.91-.5,1.79-.94,2.65-1.32l3.09-9.12h-29.6c.15.63.29,1.28.43,2Z" transform="translate(-93.3 -65.9)"/><path class="cls-11" d="M746.73,504.5c.8-2.3,1.61-4.64,2.4-6.95h-7.9l-3.09,9.12A24.11,24.11,0,0,1,746.73,504.5Z" transform="translate(-93.3 -65.9)"/><path class="cls-12" d="M690.39,513.08c.34.06.66.12.91.14a8.66,8.66,0,0,1,1.55,2.54c4.92-6.55,11.55-11.55,16.9-14.89l2.31-1.39c-.14-.67-.28-1.32-.43-2h0c-.12-.52-.25-1-.38-1.5C706.34,498.82,696.15,505.21,690.39,513.08Z" transform="translate(-93.3 -65.9)"/><path class="cls-13" d="M658.25,503.27a53.07,53.07,0,0,1,8.53,2.25c8.86,3.15,19.47,6.76,23.61,7.56,5.76-7.87,16-14.26,20.86-17.05-4.26-16-12.46-17.94-12.46-17.94l-36.15-13.26a14.41,14.41,0,0,1,2.17,3.08C668.78,476.18,667.89,489.08,658.25,503.27Z" transform="translate(-93.3 -65.9)"/><path class="cls-10" d="M757.83,507.9s3.77,6.84,9,17.57L829,538.86l-33.41,28.8-50.68-10.52c-14.32,1.65-28.52-4.46-28.52-4.46l-.41.06-15.5,2.44c0,.42.07.67.07.67L694,573.13s-5,3.4-37.83,9.4h579.41l-12-9.48-17.35-4.63a7.61,7.61,0,0,1-5.49-5.81l-31.18-7.14a10.52,10.52,0,0,1-.24-1.65l-37.69,3.23a16,16,0,0,1-11-3.18l-12-9a17,17,0,0,1-5.67-19.66l3.4-9a18.22,18.22,0,0,1,14.09-11.52l8.19-6.51-.75-.59h-168a1,1,0,0,1,.07.35,1.45,1.45,0,0,1-.52,1v55.16a1.54,1.54,0,0,1,.62,1.11c0,2.75-11.07,5-24.72,5s-24.71-2.24-24.71-5a1.81,1.81,0,0,1,.9-1.34V499.33a1.84,1.84,0,0,1-1-1.4,1,1,0,0,1,.07-.35H896.39v27.74l-5.79-.86a373.48,373.48,0,0,0-44-16.38,43,43,0,0,1,.15,8.29,79.35,79.35,0,0,1,29.47,22.2l-4.61,11.23s-16.89-40.32-99.17-35.14l11.72-7.27a139.28,139.28,0,0,1,45.54,3.14,33.22,33.22,0,0,0-.15-7.3c-8.77-2.31-16.84-4.18-23.82-5.66l-56.58,0c-.79,2.31-1.6,4.65-2.4,6.95C753.9,504.15,757.83,507.9,757.83,507.9Z" transform="translate(-93.3 -65.9)"/><path class="cls-14" d="M595.3,352.33c6,.7,14,2.38,20.26,1.46a2.58,2.58,0,0,0,2.09-1.77c3.14-9.55,6.75-13,8.61-14.16a1.14,1.14,0,0,0,.21-1.74l-2.75-3,4.69-4.24a1.91,1.91,0,0,0,.28-2.52l-4.2-5.91,6.35-2.2a1.68,1.68,0,0,0,.37-2.7,23.33,23.33,0,0,1-7.49-20.83c2.69-15.36,1.29-18.53-1.15-23-2-3.77-15.64-15.92-31.12-6.74a15.24,15.24,0,0,0-6.64,8.17c-1.47,4.31-5,9.79-22.91,12.78-3.64.66-16.41-1-20.11,9.64A13.62,13.62,0,0,0,544,308.48a24.92,24.92,0,0,0,15.57,9q-.16-1.51-.33-2.76.16,1.24.33,2.76c.7.11,1.4.21,2.12.27-.72-.06-1.42-.16-2.12-.27a95.24,95.24,0,0,1-1.64,31.66,63.13,63.13,0,0,1-5.23,14.35c5,8.45,22.66,26.88,42.62,21.51,0-3.38-.28-8.13-.55-13l-.09-1.73C594.2,361.91,593.91,353.73,595.3,352.33Zm14.51-41.9c-1.41,0-2.55-1.59-2.55-3.55s1.14-3.55,2.55-3.55,2.54,1.59,2.54,3.55S611.21,310.43,609.81,310.43Zm6.08-9.86c-6-6.32-14.31,0-14.31,0S609.88,294.25,615.89,300.57Zm-51.25,5.52c-4.87-2.83-5.19-6.15-4.77-8.23a5.55,5.55,0,0,0-.91,4.52,5.55,5.55,0,0,1,.91-4.52,6.41,6.41,0,0,1,.76-2,6.41,6.41,0,0,0-.76,2,6.27,6.27,0,0,1,1.47-1.36c5.62-3.74,6.92,1.95,6.92,1.95s-1.3-5.69-6.92-1.95a6.27,6.27,0,0,0-1.47,1.36C559.45,299.94,559.77,303.26,564.64,306.09Zm-5.94-11.22c-8.16,9.83,5.52,20.53,8.38,20.78s4.42-4.48,4.42-4.48-1.55,4.73-4.42,4.48-16.54-10.95-8.38-20.78,12.8,3.61,12.8,3.61S566.86,285,558.7,294.87Z" transform="translate(-93.3 -65.9)"/><path class="cls-9" d="M890.64,523c0,.51,0,1,0,1.44l5.79.86V497.58l.74-91.49H890.6S891.15,499.36,890.64,523Z" transform="translate(-93.3 -65.9)"/><path class="cls-9" d="M842.49,506.85c-4.45-1.31-8.78-2.51-13-3.62a33.22,33.22,0,0,1,.15,7.3,106,106,0,0,1,12.82,4.07A31.38,31.38,0,0,0,842.49,506.85Z" transform="translate(-93.3 -65.9)"/><path class="cls-9" d="M829.68,510.53a139.28,139.28,0,0,0-45.54-3.14l-11.72,7.27c82.28-5.18,99.17,35.14,99.17,35.14l4.61-11.23a79.35,79.35,0,0,0-29.47-22.2q-2.12-.95-4.23-1.77A106,106,0,0,0,829.68,510.53Z" transform="translate(-93.3 -65.9)"/><path class="cls-2" d="M911.57,499.33v-1.75h-.93a1,1,0,0,0-.07.35A1.84,1.84,0,0,0,911.57,499.33Z" transform="translate(-93.3 -65.9)"/><path d="M1332.59,261.22s22.47.29,10.08,38.6c5.47,1.15,8.64,0,8.64,0s0-35.43,21.31-35.72,16.42,31.11,11.52,46.95c1.25,0,2.35,0,3.31-.1a12.07,12.07,0,0,1,5.62-6.24c17.28-8.64,19.59-48.38,19.59-48.38s1.15-49-61.06-58.75c-58.33-9.19-56.65,32.53-56.45,41.8,5.24,2.24,16.57,4.57,40,6C1333.74,254.31,1332.59,261.22,1332.59,261.22Z" transform="translate(-93.3 -65.9)"/><path class="cls-9" d="M842.5,514.6q2.12.82,4.23,1.77a43,43,0,0,0-.15-8.29l-4.09-1.23A31.38,31.38,0,0,1,842.5,514.6Z" transform="translate(-93.3 -65.9)"/><path class="cls-2" d="M573.54,518.74c0-.13-.08-.26-.11-.39l-.51.13Z" transform="translate(-93.3 -65.9)"/><path class="cls-3" d="M634.85,596.46a1.52,1.52,0,0,1-.2.06c-18,4.36-82.61,18-124.39.74a12.29,12.29,0,0,1-5.88-5.08c-1.13,3.3-2.77,8.44-4.44,14.81-1.17,4.44-2.36,9.47-3.4,14.9,36.64-1.77,124.12-5.81,129.58-4.6,24.94,26-23.42,24.57-34.18,25-64.54-.48-89.22,5.19-98.65,9.51-.5,35.16,12.61,71.88,69.37,72.28,21.12.38,101.38-6.14,113.67-6.14,0,0,2.2-.22,5.24-.4L678.46,628c-5.27-1.64-29.33-9.09-34.39-10.1C639.72,617,638.31,613,634.85,596.46Z" transform="translate(-93.3 -65.9)"/><path class="cls-15" d="M765.61,551.24l-14.4,4.61a36.65,36.65,0,0,1-6.33,1.29l50.68,10.52L829,538.86l-62.14-13.39c1.08,2.19,2.21,4.55,3.39,7C777.13,547.21,765.61,551.24,765.61,551.24Z" transform="translate(-93.3 -65.9)"/><path class="cls-14" d="M711.45,515.71c5.3,14,4.86,31,4.5,37l.41-.06s14.2,6.11,28.52,4.46a36.65,36.65,0,0,0,6.33-1.29l14.4-4.61s11.52-4,4.61-18.72c-1.18-2.5-2.31-4.86-3.39-7-5.23-10.73-9-17.57-9-17.57s-3.93-3.75-11.1-3.4a24.11,24.11,0,0,0-8.59,2.16c-.86.38-1.74.82-2.65,1.32-1.15.64-2.34,1.37-3.58,2.22A194,194,0,0,1,711.45,515.71Z" transform="translate(-93.3 -65.9)"/><path class="cls-14" d="M711.45,515.71a194,194,0,0,0,20.46-5.51c1.24-.85,2.43-1.58,3.58-2.22a60.59,60.59,0,0,0-9.65-7.12,4.78,4.78,0,0,0-3.46-.41c-2,.52-5.47,1.45-7.72,2.13a2.62,2.62,0,0,1-1.39,0,12,12,0,0,1-3.52-1.72c-5.35,3.34-12,8.34-16.9,14.89a28.34,28.34,0,0,1,1,2.73l3.47-.37S703,517.51,711.45,515.71Z" transform="translate(-93.3 -65.9)"/><path class="cls-13" d="M510.26,597.26c41.78,17.22,106.38,3.62,124.39-.74a1.52,1.52,0,0,0,.2-.06l.14-.05a5.06,5.06,0,0,0,3.43-5.89l-1-4.77c-11.08,1.77-24.26,3.71-40,5.81-49.35,6.58-77.64-4.7-93.49-28.77-1.14,7.69-1.24,14.31-1.38,22.62a12.68,12.68,0,0,0,1.83,6.77A12.29,12.29,0,0,0,510.26,597.26Z" transform="translate(-93.3 -65.9)"/><path class="cls-12" d="M711.45,515.71c-8.49,1.8-14.1,2.41-14.1,2.41l-3.47.37c3.52,10.7,6.11,32.65,6.57,36.69l15.5-2.44C716.31,546.74,716.75,529.73,711.45,515.71Z" transform="translate(-93.3 -65.9)"/><path class="cls-16" d="M500.36,834.63l-2.75,2.14a13.57,13.57,0,0,0-.73,20.8l1.38,1.24a2.19,2.19,0,0,0,1.54.56l173.91-6.53c-.32-5.91-.78-14.8-1.25-24.75Z" transform="translate(-93.3 -65.9)"/><path class="cls-17" d="M756.44,475.53a3.16,3.16,0,0,0-.37-2.73c-1-1.36-2.72-1.33-4.14-1a4,4,0,0,0-2.87,2.66l-7.83,23.08h7.9C752.31,488.28,755.3,479.41,756.44,475.53Z" transform="translate(-93.3 -65.9)"/><path class="cls-18" d="M467.08,623.32a60.48,60.48,0,0,1,13.5-.66l16-.77c1-5.43,2.23-10.46,3.4-14.9C491.67,604.07,476.58,602.42,467.08,623.32Z" transform="translate(-93.3 -65.9)"/><path class="cls-7" d="M1177.47,519.28l-3.62-2.15-21.55-12.76s-15.84-12-25,0l-1.73.18a18.28,18.28,0,0,0-19.14,11.65l-3.4,9a17,17,0,0,0,5.67,19.66l12,9a16,16,0,0,0,11,3.18l37.69-3.23C1168.77,546,1174.39,528.27,1177.47,519.28Z" transform="translate(-93.3 -65.9)"/><path class="cls-19" d="M1311.29,599.64a36.85,36.85,0,0,1-3.91,4.78A76.79,76.79,0,0,0,1325,622.66c18.1,13.9,50.92,29.25,108.62,31.74,0-1.71.08-3.45.12-5.23C1349.93,644.69,1320.09,612.77,1311.29,599.64Z" transform="translate(-93.3 -65.9)"/><path class="cls-3" d="M1204,637.06l2.8,72.67a33.21,33.21,0,0,1,18.94-7.87c29.59-2.52,144.12,9.39,189.24-4.13,8.43-2.53,14.44-6,17-10.51a10.68,10.68,0,0,0,1.4-5.52c-.11-7,0-16.4.2-27.3-57.7-2.49-90.52-17.84-108.62-31.74C1294.52,622,1245.93,629.36,1204,637.06Z" transform="translate(-93.3 -65.9)"/><path class="cls-3" d="M1325,622.66a76.79,76.79,0,0,1-17.59-18.24c-10,10.26-24.32,11.87-42.37,14.09-15.89,2-42.56,6.27-61.36,9.4l.35,9.15C1245.93,629.36,1294.52,622,1325,622.66Z" transform="translate(-93.3 -65.9)"/><path class="cls-8" d="M1331.44,409l-9.89,40.31,2.35,24.13c.54-1.38,1.08-2.72,1.6-4-.52,1.29-1.06,2.63-1.6,4-7.2,18.24-15.64,43.2-20,56.41,10.58,2.1,18.73,4,21.8,5.29-3.07-1.32-11.22-3.19-21.8-5.29-3.46-.69-7.17-1.4-11.06-2.13-25.39-4.72-58-10-72.66-12.59a8.71,8.71,0,0,0-9.63,5.33c-.28.7-.54,1.39-.81,2.09a155.24,155.24,0,0,0-9.08,37.73,8.06,8.06,0,0,0,.12,2.36,7.61,7.61,0,0,0,5.49,5.81l17.35,4.63,84.35,22.5a53,53,0,0,0,5.21,1.09,50.79,50.79,0,0,0,52.75-26.38L1393.07,519l-27.16,51.28a50.79,50.79,0,0,1-52.75,26.38c-.6,1.05-1.22,2.06-1.87,3,8.8,13.13,38.64,45.05,122.42,49.53.64-26,2-58.86,3.8-85.76,1.37-21,2.94-38.46,4.52-46.15,2.33-11.35,8.91-38.11,6.78-66.79-2.09-28.13-12.56-58.11-43.64-77.21-.54-.86-1.1-1.74-1.67-2.62-14.67,4.9-51.59,18.54-72.13,38Z" transform="translate(-93.3 -65.9)"/><path class="cls-20" d="M1442,517.26c-1.58,7.69-3.15,25.11-4.52,46.15,19.52-67.2,17.54-104.58,15.72-117.79a36.44,36.44,0,0,0-4.42,4.85C1450.94,479.15,1444.36,505.91,1442,517.26Z" transform="translate(-93.3 -65.9)"/><polygon class="cls-8" points="1228.24 383.38 1238.14 343.07 1238.07 342.75 1235.92 333.47 1225.27 352.86 1228.24 383.38"/><path class="cls-3" d="M1323.9,473.41l-2.35-24.13-3-30.52,10.64-19.39-5.3-23L1309,401.1l3.45,15.36s-16,50.23-19.61,111.23c3.89.73,7.6,1.44,11.06,2.13C1308.26,516.61,1316.7,491.65,1323.9,473.41Z" transform="translate(-93.3 -65.9)"/><path class="cls-19" d="M557.91,349.11a95.24,95.24,0,0,0,1.64-31.66,24.92,24.92,0,0,1-15.57-9,13.62,13.62,0,0,1-2.19-12.94c3.7-10.6,16.47-9,20.11-9.64,17.91-3,21.44-8.47,22.91-12.78a15.24,15.24,0,0,1,6.64-8.17c15.48-9.18,29.08,3,31.12,6.74,2.44,4.51,3.84,7.68,1.15,23a23.33,23.33,0,0,0,7.49,20.83,1.68,1.68,0,0,1-.37,2.7l-6.35,2.2,4.2,5.91a1.91,1.91,0,0,1-.28,2.52l-4.69,4.24,2.75,3a1.14,1.14,0,0,1-.21,1.74c-1.86,1.19-5.47,4.61-8.61,14.16a2.58,2.58,0,0,1-2.09,1.77c-6.31.92-14.26-.76-20.26-1.46-1.39,1.4-1.1,9.58-.64,17.94,40.06,21.19,45.38-9,45.38-13.43.29-25.63-9.5-21.89-4.61-30.53,5.84-10.3,2-18.72,0-21.89-9.79-16.7-3.74-22.17-3.65-26.2,4.13-17,0-43.4,0-43.4-8.8-37.49-37.35-35.69-51.62-32.22a20,20,0,0,0-11.4,7.75c-8.32,11.53-15.8,10.55-28,10.27-33.3,2-44.24,19.23-47.88,28.94a20.9,20.9,0,0,0-1.32,7.3c-.28,60.59,34.25,51.48,36.14,61.29-.74,20.72-28.93,23.62-37.85,32.73a8.21,8.21,0,0,0-1.42,1.94c-11.64,21.67,9.22,39.75,18.75,46.55,9.68-16.2,20.24-27.53,26.28-35.33C542.08,352.93,551.8,349.85,557.91,349.11Z" transform="translate(-93.3 -65.9)"/><path class="cls-8" d="M1324.74,370.86l-1.94.67,1.12,4.84,5.3,23,2.15,9.28c20.54-19.47,57.46-33.11,72.13-38-5.45-8.5-11.69-17.7-13.76-20.72l-.7-1Z" transform="translate(-93.3 -65.9)"/><path class="cls-21" d="M1296.88,752.78V874.61a12.91,12.91,0,0,0,12.9,12.9h13.36a12.91,12.91,0,0,0,12.91-12.9V752.78a12.88,12.88,0,0,0-2.17-7.14H1299A12.87,12.87,0,0,0,1296.88,752.78Z" transform="translate(-93.3 -65.9)"/><path class="cls-8" d="M1200.64,560.25a155.24,155.24,0,0,1,9.08-37.73L1195.79,519l-16.72-4.24c-.34.93-.9,2.51-1.6,4.54-3.08,9-8.7,26.67-8.13,34.54a10.52,10.52,0,0,0,.24,1.65l31.18,7.14A8.06,8.06,0,0,1,1200.64,560.25ZM1179,552.68a3,3,0,1,1,3-2.95A2.95,2.95,0,0,1,1179,552.68Z" transform="translate(-93.3 -65.9)"/><path class="cls-22" d="M1323.14,887.51h-13.36a12.91,12.91,0,0,1-12.9-12.9V851.33c-38.17,3.94-68.61,18-78.79,36.12a24.59,24.59,0,0,0-1.27,7.69c0,27,45.62,49,101.9,49s101.91-21.93,101.91-49a24.42,24.42,0,0,0-1.25-7.65c-10.54-18.84-43-33.32-83.33-36.59v23.71A12.91,12.91,0,0,1,1323.14,887.51Z" transform="translate(-93.3 -65.9)"/><path class="cls-23" d="M1102.58,882.82l-1.25,4.92-1.44,5.62c7.48,2.3,41,11.69,58.17.48l.91-8.73C1151.76,886.79,1129.9,890.54,1102.58,882.82Z" transform="translate(-93.3 -65.9)"/><path class="cls-7" d="M1099.89,893.36v0s-35.14,18.44-61.35,23c-18.13,3.19-22.47,14.1-23.43,20.52,2.73,2.78,13.85,8,59.18,5.9,20.45-2.6,36.66-9.22,45.93-5.48,2,.94,3.7,1.78,4.83,2.37a6.44,6.44,0,0,0,3.31.69l36.81-2.33c5.12-17.76-2-36.65-6-45-.37.27-.76.53-1.14.79C1140.91,905.05,1107.37,895.66,1099.89,893.36Z" transform="translate(-93.3 -65.9)"/><path class="cls-19" d="M1125.05,939.73c-1.13-.59-2.82-1.43-4.83-2.37-9.27-3.74-25.48,2.88-45.93,5.48-45.33,2.15-56.45-3.12-59.18-5.9-.11.77-.18,1.47-.22,2.09a17.28,17.28,0,0,0,0,2.74s-1.44,9.21,58.17,6.33c20.16-2.59,36.15-9.21,45.29-5.47,1.7.8,3.17,1.54,4.26,2.1a8.28,8.28,0,0,0,4.37.92l36.26-2.33a41.06,41.06,0,0,0,1.89-5.23l-36.81,2.33A6.44,6.44,0,0,1,1125.05,939.73Z" transform="translate(-93.3 -65.9)"/><path class="cls-3" d="M1151.15,647.43c-5.3,1.1-10,2.11-14.09,3a21.73,21.73,0,0,0-17,18.8c-5,43.54-19,166.5-23.15,202.77-.47,4.08-.82,7.08-1,8.73q3.41,1.17,6.72,2.11c27.32,7.72,49.18,4,56.39,2.29,1.65-.38,2.55-.65,2.55-.65a34.39,34.39,0,0,0,9.18-4.12l-8.18-235.19Z" transform="translate(-93.3 -65.9)"/><polygon class="cls-10" points="1110.7 571.16 1110.35 562.01 1109.28 534.3 1088.7 534.3 1101.51 906.52 1101.8 906.63 1123.28 898.28 1113.84 652.72 1113.49 643.83 1110.7 571.16"/><polygon class="cls-10" points="1067.65 534.3 1068.9 570.26 1069.21 579.25 1077.4 814.44 1080.32 898.28 1101.51 906.52 1088.7 534.3 1067.65 534.3"/><path class="cls-10" d="M1096.13,600.2h139.49V582.53H656.21q-5.52,1-12.14,2.12V600.2h452.06Z" transform="translate(-93.3 -65.9)"/><polygon class="cls-10" points="974.07 534.3 979.9 687.97 994.38 693.14 988.43 534.3 974.07 534.3"/><path class="cls-24" d="M1410.24,730.56a10.43,10.43,0,0,0,10.39-10.39V707a10.38,10.38,0,0,0-5.65-9.24c-45.12,13.52-159.65,1.61-189.24,4.13a33.21,33.21,0,0,0-18.94,7.87l.34,8.89a23.58,23.58,0,0,0,20.51,11.94h182.59Z" transform="translate(-93.3 -65.9)"/><path class="cls-10" d="M1096.13,600.2h-14.4l6,158.84.19.08,11.65-4.16c.82-5.16,1.63-10.3,2.44-15.39Z" transform="translate(-93.3 -65.9)"/><path class="cls-3" d="M1120,669.21a21.73,21.73,0,0,1,17-18.8c4-.87,8.79-1.88,14.09-3l11.37-2.28-.32-9c-3.68.91-5.86,1.48-5.86,1.48l-20.36,5.9A28.43,28.43,0,0,0,1113.49,667c-2.74,17.26-7,44.07-11.52,72.62-.81,5.09-1.62,10.23-2.44,15.39-8.52,53.79-17.21,108.79-18.07,114.81,1.54,1.23,7.21,1.8,12.14,2.07,1.15.06,2.26.11,3.27.14C1101,835.71,1115.06,712.75,1120,669.21Z" transform="translate(-93.3 -65.9)"/><path class="cls-23" d="M1102.58,882.82q-3.32-.95-6.72-2.11c.19-1.65.54-4.65,1-8.73-1,0-2.12-.08-3.27-.14l-3.36,13.2-.17.09c2.11,1.25,5.57,2.39,11.26,2.61Z" transform="translate(-93.3 -65.9)"/><path class="cls-7" d="M1038.54,916.42c26.21-4.6,61.35-23,61.35-23v0l1.44-5.62c-5.69-.22-9.15-1.36-11.26-2.61-2.55,1.32-36,18.52-61.17,23-26.21,4.61-23.62,25.34-23.62,25.34s0,3.52,9.61,5.61c0-.62.11-1.32.22-2.09C1016.07,930.52,1020.41,919.61,1038.54,916.42Z" transform="translate(-93.3 -65.9)"/><path class="cls-10" d="M753,649.5c5.15,2,10.19,4.1,15,6.17l-2.26-55.47H751.24Z" transform="translate(-93.3 -65.9)"/><path class="cls-2" d="M1594.14,646.9c-6.22,7.15-19,24.74-22.42,51.92l1.67.2.91.13c3.47-24.89,14.88-42.22,21.3-50-.16-.22-.32-.43-.46-.65A17.76,17.76,0,0,1,1594.14,646.9Z" transform="translate(-93.3 -65.9)"/><path class="cls-13" d="M485.67,489c1.48,30.39,6.36,55.68,18.26,73.76,15.85,24.07,44.14,35.35,93.49,28.77,15.71-2.1,28.89-4,40-5.81l6.68-1.1q6.63-1.11,12.14-2.12c32.8-6,37.83-9.4,37.83-9.4l6.48-17.28s0-.25-.07-.67c-.46-4-3.05-26-6.57-36.69a28.34,28.34,0,0,0-1-2.73,8.66,8.66,0,0,0-1.55-2.54c-.25,0-.57-.08-.91-.14-4.14-.8-14.75-4.41-23.61-7.56a53.12,53.12,0,0,0-28.32-2l-48,9.7s-7.79,2.72-17.07,5.13c0,.13.07.26.11.39l-.62-.26c-10.64,2.73-23,5-27.92,2.23,4.87,2.74,17.28.5,27.92-2.23-6.4-2.73-19.88-10.27-31.66-28.58,11.78,18.31,25.26,25.85,31.66,28.58l.51-.13c-2.37-8.87-1.68-22.41-1.68-22.41s-.69,13.54,1.68,22.41c9.28-2.41,17.07-5.13,17.07-5.13l48-9.7a53.12,53.12,0,0,1,19.79-.25c9.64-14.19,10.53-27.09,6.56-35.36a14.41,14.41,0,0,0-2.17-3.08c-8.95-10.25-37.83-27.74-45.45-49.91-8-29.76-17.26-39.64-22.44-42.92.27,4.84.55,9.59.55,13-20,5.37-37.63-13.06-42.62-21.51a63.13,63.13,0,0,0,5.23-14.35c-6.11.74-15.83,3.82-24.43,14.93-6,7.8-16.6,19.13-26.28,35.33A151.08,151.08,0,0,0,486,465.76,178.13,178.13,0,0,0,485.67,489Z" transform="translate(-93.3 -65.9)"/><path class="cls-2" d="M1536.4,641.47a25,25,0,0,1-2.4.76c6.86,11.63,18.68,34.83,17.89,55.72,1,0,2-.05,3-.06C1555.35,677.39,1543,653,1536.4,641.47Z" transform="translate(-93.3 -65.9)"/><path class="cls-25" d="M1641.07,621.08c1.92-8.62,17.28.59,13.44-47.41-4.38,3.84-6.14,0-6.14,0l-2.31-16.89s-18.19,4.6-18.69,15.36c-6-10.37-8.19-8.84-8.19-8.84s5.76,17.28-7.68,25.73l-2.44-10.94a26.08,26.08,0,0,0-7.48,7.36c-1,4.34,0,6.5-.24,11.17-.49,9-9.11,24-9.11,24s-.52,1-1.41,2.44c-.74,10.35-.08,13.07.28,14.4.16.58.41,1.11.52,1.7a26.29,26.29,0,0,0,2.52,7.74,17.76,17.76,0,0,0,1,1.62c.14.22.3.43.46.65A18.24,18.24,0,0,0,1603,655a22.85,22.85,0,0,0,27.33-7.33c2.08-2.74,4.76-6.34,8.84-11.44,10.75-13.44,21.51-7.29,21.51-7.29S1655.66,620.5,1641.07,621.08Z" transform="translate(-93.3 -65.9)"/><path class="cls-25" d="M1548.24,629.24c-6.53-4.22-11.73-12.68-14.38-30.51-3.07-20.74-5-20-12.28-29.19.52-.29,1.06-.54,1.59-.77-5.21-8.71-1.59-19.58-1.59-19.58s-2.18-1.53-8.19,8.83c-.5-10.75-18.69-15.36-18.69-15.36l-2.31,16.9s-1.76,3.84-6.14,0c-3.84,48,11.52,38.78,13.44,47.41-14.59-.59-19.59,7.89-19.59,7.89s10.76-6.15,21.51,7.29c6.47,8.1,9.42,12.41,12.06,15.5a16.08,16.08,0,0,0,12.57,5.59,33.6,33.6,0,0,0,7.76-1,25,25,0,0,0,2.4-.76A18.89,18.89,0,0,0,1548.24,629.24Z" transform="translate(-93.3 -65.9)"/><polygon class="cls-9" points="1169.7 664.66 1184.86 679.74 1205.74 679.74 1240.58 679.74 1257.72 679.74 1262.78 673.61 1270.17 664.66 1169.7 664.66"/><path class="cls-24" d="M1479.47,465.27c-2.13-17.61-14-23.12-17.81-23.2a9.19,9.19,0,0,0-1.2,0c-1.16,0-3.57.24-7.23,3.53,1.82,13.21,3.8,50.59-15.72,117.79-1.75,26.9-3.16,59.72-3.8,85.76,0,1.78-.08,3.52-.12,5.23-.23,10.9-.31,20.35-.2,27.3a10.68,10.68,0,0,1-1.4,5.52c9.12,20.91-4.23,31.59-11.74,35.7a10.39,10.39,0,0,1-10,7.64h-46.77l-7.38,9c13.62-.89,47.53-3.25,67.22-6,25.06-3.45,29.28-28.22,28.9-58.75S1482.06,486.73,1479.47,465.27Z" transform="translate(-93.3 -65.9)"/><path class="cls-2" d="M1533.86,598.73c2.65,17.83,7.85,26.29,14.38,30.51a22.08,22.08,0,0,0,3.29,1.74,56.15,56.15,0,0,0,15.77,3.5c1.1.1,2.19.17,3.25.21,5,.18,9.41-.32,11.7-1.79,3.58-2.3,6.8-7,8.57-9.84.89-1.44,1.41-2.44,1.41-2.44s8.62-15,9.11-24c.25-4.67-.75-6.83.24-11.17.92-4.05,3.58-10,10.62-21.67-15,1.54-15,2.69-18.82-.38s6.53-21.12,3.84-34.94a195.57,195.57,0,0,0-7.9-27.65L1583.4,505s3.07-6.14-16.51-15a29.84,29.84,0,0,1-13.34-11.5c.1,9.34,0,26.1-1.62,30.47,3.46,8.83-11.92,6.75-15.38,14.43s-6.53,13.06,2.31,29.19c10,15.36,4.92,18.82,4.92,18.82s-10.66-6.91-20.61-2.7c-.53.23-1.07.48-1.59.77C1528.87,578.76,1530.79,578,1533.86,598.73Z" transform="translate(-93.3 -65.9)"/><path class="cls-2" d="M1570.55,634.69c-1.06,0-2.15-.11-3.25-.21,2.4,13-1.79,52.18-3.11,63.66,1,.07,2.12.14,3.19.23C1568.66,687.26,1572.89,648,1570.55,634.69Z" transform="translate(-93.3 -65.9)"/><path class="cls-26" d="M1571.72,698.82c-1.46-.17-2.92-.32-4.34-.45-1.07-.09-2.14-.16-3.19-.23-3.21-.2-6.31-.27-9.28-.25-1,0-2,0-3,.06a114.58,114.58,0,0,0-34.26,6.12c3.76,8,9.44,22.16,7.33,30.59-3,12.17-20.68,42.42-5.4,91.1,11,4.11,42.32,12.49,75.92-1,14.71-48.08-2.68-78-5.7-90.09-2.12-8.44,3.57-22.58,7.33-30.61a152.8,152.8,0,0,0-22.81-4.9l-.91-.13Z" transform="translate(-93.3 -65.9)"/><path class="cls-2" d="M688.15,906.52l-.4.74h.43Z" transform="translate(-93.3 -65.9)"/><path class="cls-27" d="M682.66,929.44a74.35,74.35,0,0,0,.76,10.51c1.93.79,4,1.52,6,2.2L689,931.52C686.65,930.81,684.47,930.11,682.66,929.44Z" transform="translate(-93.3 -65.9)"/><path class="cls-10" d="M753,649.5l-1.79-49.3H736.7l1.61,43.7C743.24,645.7,748.18,647.58,753,649.5Z" transform="translate(-93.3 -65.9)"/><polygon class="cls-10" points="584.19 534.3 585.16 562.11 588.27 651.6 594.85 840.62 594.88 841.35 595.72 865.62 596.09 876.25 597.01 902.6 618.18 910.83 605.22 534.3 584.19 534.3"/><path class="cls-4" d="M688.18,907.25h-.43c-2.86,5.36-5.06,12.58-5.09,22.18,1.81.67,4,1.37,6.36,2.08Z" transform="translate(-93.3 -65.9)"/><path class="cls-28" d="M681.57,717.5c-3,.18-5.24.4-5.24.4-12.29,0-92.55,6.52-113.67,6.14-56.76-.4-69.87-37.12-69.37-72.28-5.66,2.59-5.83,4.7-5.83,4.7s.17-2.11,5.83-4.7c9.43-4.32,34.11-10,98.65-9.51,10.76-.39,59.12,1,34.18-25-5.46-1.21-92.94,2.83-129.58,4.6l-16,.77a60.48,60.48,0,0,0-13.5.66c-8.24,1.38-17.63,5.07-20,14.54-1,4.12-.71,9.32,1.6,15.91,12.29,34.94,28.42,70.29,28.42,70.29s13.06,25.41,43.68,30a63.7,63.7,0,0,0,8.16.71c36.48.77,107.41,0,107.41,0s36.59-4.61,34.28,19.39c.06,13.71.94,35.63,1.8,53.94.47,9.95.93,18.84,1.25,24.75.25,4.7.41,7.52.41,7.52s1.92,19.2-24.19,20-183.17,4.13-183.17,4.13S441,884.28,443,900c1.73,13.88-3.84,14.93,65.28,12.62,64-2.13,164.8-4.92,179.52-5.32l.4-.74Z" transform="translate(-93.3 -65.9)"/><path class="cls-7" d="M418.84,526.15c-.64-2.81-1.27-5.59-1.88-8.32H280.43v8.32H418.84Z" transform="translate(-93.3 -65.9)"/><path class="cls-28" d="M447.11,637.86c2.34-9.47,11.73-13.16,20-14.54,9.5-20.9,24.59-19.25,32.86-16.33,1.67-6.37,3.31-11.51,4.44-14.81a12.68,12.68,0,0,1-1.83-6.77c.14-8.31.24-14.93,1.38-22.62C492,544.71,487.15,519.42,485.67,489a178.13,178.13,0,0,1,.36-23.27c-8.5-.83-22.31-5.06-37.58-21.25a20.66,20.66,0,0,0-8.73-5.36c-16.62-4.76-39.2-2.77-33.82,26.33,2,10.68,6,30,11.06,52.35.61,2.73,1.24,5.51,1.88,8.32C427.86,565.89,439.27,612.67,447.11,637.86Z" transform="translate(-93.3 -65.9)"/><path class="cls-14" d="M280.43,526.15v291.2H372l-8.32-291.2Zm53.18,155.27a14.12,14.12,0,1,1,14.11-14.12A14.11,14.11,0,0,1,333.61,681.42Z" transform="translate(-93.3 -65.9)"/><path class="cls-18" d="M477.13,724.06S461,688.71,448.71,653.77c-2.31-6.59-2.62-11.79-1.6-15.91-7.84-25.19-19.25-72-28.27-111.71H363.7L372,817.35H520.81v-63.3C490.19,749.47,477.13,724.06,477.13,724.06Zm-70.61-42.64a14.12,14.12,0,1,1,14.11-14.12A14.12,14.12,0,0,1,406.52,681.42Z" transform="translate(-93.3 -65.9)"/><path class="cls-3" d="M738.31,643.9c-6-2.23-12-4.34-17.81-6.28l9.32,242.31c6.61,1,14,2.1,20.94,3a174.77,174.77,0,0,0,18.88,1.58c.77-4.07,2.8-17,5.49-34.53,5.53-36.2,13.83-92.23,19.67-131.75,1.49-10.14,2.83-19.2,3.91-26.55a27.66,27.66,0,0,0-15.09-28.82c-4.72-2.33-10-4.73-15.6-7.14-4.8-2.07-9.84-4.14-15-6.17C748.18,647.58,743.24,645.7,738.31,643.9Z" transform="translate(-93.3 -65.9)"/><path class="cls-4" d="M783.74,918c-16.37-6.41-25.59-14.58-28.47-17.42a2,2,0,0,0-1.74-.54l-.15,0s-.08,0-.13,0a23.61,23.61,0,0,1-4.08,1.44c-2.74.63-7.84,1.28-18.45,1.66l1.49,38.93c25,5.46,74.72,14.68,98.59,7.74a11.69,11.69,0,0,0,.28-4.61c0-8.66-7.8-16.16-16.89-19.25a29.89,29.89,0,0,0-4.23-1.1A120.71,120.71,0,0,1,783.74,918Z" transform="translate(-93.3 -65.9)"/><path class="cls-27" d="M873.32,927.56c-19.78-10-50.88-9.41-50.88-9.41-13.06.77-14.41,2.68-21.5,1-5.39-1.3-13.61-5.23-17.77-7.31a61.89,61.89,0,0,0,.57,6.17,120.71,120.71,0,0,0,26.22,6.9,29.89,29.89,0,0,1,4.23,1.1c8.46-1.74,17.11-2.69,23.71-1.48,17.76,2.88,14.68,3.65,31.39,7.87,44.55,9.74,51.65.5,55.22-3.2C916.61,930.85,890.56,936.27,873.32,927.56Z" transform="translate(-93.3 -65.9)"/><path class="cls-2" d="M852.2,874a25.16,25.16,0,0,0-6.59-.65q1.53,2.08,3.17,4A21.11,21.11,0,0,0,852.2,874Z" transform="translate(-93.3 -65.9)"/><path class="cls-4" d="M848.78,877.32c-16.54,12.92-51.88,4-51.88,4l-1.15-2.78c-2.76,5-8.93,16.32-10.56,21.45-1.26,4-2.18,6.7-2,11.84,4.16,2.08,12.38,6,17.77,7.31,7.09,1.72,8.44-.19,21.5-1,0,0,31.1-.57,50.88,9.41,17.24,8.71,43.29,3.29,51.19,1.6.23-.24.44-.45.65-.64,3.46-3.07,2.69-18.24-17.86-23.42S857.19,880.9,852.2,874A21.11,21.11,0,0,1,848.78,877.32Z" transform="translate(-93.3 -65.9)"/><path class="cls-14" d="M795.75,878.51l1.15,2.78s35.34,9,51.88-4q-1.63-1.89-3.17-4c-9.06-12.36-15-29.07-17.37-36.63-15.78,9.27-32.73,12.19-44.53,13Z" transform="translate(-93.3 -65.9)"/><path class="cls-3" d="M783.71,849.68c11.8-.78,28.75-3.7,44.53-13a79,79,0,0,0,11.1-7.84c-6.08-15.61-32.07-79.89-44.54-110.69-5.84,39.52-14.14,95.55-19.67,131.75C777.49,850,780.39,849.9,783.71,849.68Z" transform="translate(-93.3 -65.9)"/><path class="cls-14" d="M749.17,901.5a32.39,32.39,0,0,1-.31-4.09,59.62,59.62,0,0,1,1.9-14.53c-6.9-.85-14.33-1.93-20.94-3l.9,23.23C741.33,902.78,746.43,902.13,749.17,901.5Z" transform="translate(-93.3 -65.9)"/><polygon class="cls-10" points="637.41 837.26 636.52 814.03 627.2 571.72 625.76 534.3 605.22 534.3 618.18 910.83 618.47 910.94 639.93 902.6 639.14 882.29 638.91 876.19 637.41 837.26"/><path class="cls-2" d="M748.86,897.41a32.39,32.39,0,0,0,.31,4.09,23.61,23.61,0,0,0,4.08-1.44s.09,0,.13,0l-.1,0,.1,0,.15,0C754.3,899.87,756.18,899.28,748.86,897.41Z" transform="translate(-93.3 -65.9)"/><path class="cls-27" d="M732.21,942.09l.24,6.1c24,3.89,31.7,6.76,40.45,7.79,46.41,8.78,56.09.15,57.9-6.15C806.93,956.77,757.19,947.55,732.21,942.09Z" transform="translate(-93.3 -65.9)"/><path class="cls-3" d="M1090.46,221.77H841.91V368.65h248.55Zm-20.16,51.12v76H862.94V242.5H1070.3Z" transform="translate(-93.3 -65.9)"/><path class="cls-29" d="M862.94,318.91c7.73-8.49,25.37-20.94,59.13-13.81,15,3.07,34.95,10.36,51.84,3.45,6.53-2.3,8.07-10.37,30.72-1.53,5.76,1.15,22.66-.84,33.41-19.62,6.2-7.2,21.65-27.08,32.26-14.51V242.5H862.94ZM970.4,265a11.22,11.22,0,1,1-11.22,11.21A11.21,11.21,0,0,1,970.4,265Z" transform="translate(-93.3 -65.9)"/><path class="cls-28" d="M1038,287.4c-10.75,18.78-27.65,20.77-33.41,19.62-22.65-8.84-24.19-.77-30.72,1.53-16.89,6.91-36.86-.38-51.84-3.45-33.76-7.13-51.4,5.32-59.13,13.81v30H1070.3v-76C1059.69,260.32,1044.24,280.2,1038,287.4Z" transform="translate(-93.3 -65.9)"/><circle class="cls-30" cx="877.1" cy="210.28" r="11.21"/><circle class="cls-31" cx="313.21" cy="601.4" r="14.11"/><circle class="cls-31" cx="240.31" cy="601.4" r="14.11"/><path class="cls-19" d="M882.54,415.88s-62.79,5.76-93.89,4.61v63.93s70.85,14.69,93.89,23.48Z" transform="translate(-93.3 -65.9)"/><ellipse class="cls-31" cx="516.51" cy="240.98" rx="2.54" ry="3.55"/><path class="cls-2" d="M1179,546.78a3,3,0,1,0,3,3A2.95,2.95,0,0,0,1179,546.78Z" transform="translate(-93.3 -65.9)"/><path class="cls-19" d="M1303.25,279.23c-1.77,0-3.2,2-3.2,4.47s1.43,4.46,3.2,4.46,3.19-2,3.19-4.46S1305,279.23,1303.25,279.23Z" transform="translate(-93.3 -65.9)"/></g><g id="lines_copy" data-name="lines copy"><polyline class="cls-32" points="994.38 693.14 994.58 693.22 1006.23 689.06"/><polyline class="cls-32" points="974.07 534.3 979.9 687.97 994.38 693.14"/><line class="cls-32" x1="1008.67" y1="673.67" x2="1002.83" y2="534.3"/><line class="cls-32" x1="994.38" y1="693.15" x2="988.43" y2="534.3"/><line class="cls-32" x1="866.18" y1="488.21" x2="866.18" y2="433.05"/><line class="cls-32" x1="866.18" y1="433.05" x2="866.18" y2="431.68"/><line class="cls-32" x1="866.18" y1="431.68" x2="866.18" y2="431.08"/><line class="cls-32" x1="866.18" y1="488.21" x2="866.18" y2="489.71"/><line class="cls-32" x1="818.27" y1="487.98" x2="818.27" y2="489.56"/><line class="cls-32" x1="818.27" y1="431.68" x2="818.27" y2="430.94"/><line class="cls-32" x1="818.27" y1="433.43" x2="818.27" y2="431.68"/><line class="cls-32" x1="818.27" y1="433.43" x2="818.27" y2="487.98"/><path class="cls-32" d="M689,931.52c-2.37-.71-4.55-1.41-6.36-2.08" transform="translate(-93.3 -65.9)"/><path class="cls-32" d="M830.8,949.83c-23.87,6.94-73.61-2.28-98.59-7.74" transform="translate(-93.3 -65.9)"/><path class="cls-32" d="M689.39,942.15c-2-.68-4-1.41-6-2.2" transform="translate(-93.3 -65.9)"/><path class="cls-32" d="M783.74,918c-16.37-6.41-25.59-14.58-28.47-17.42a2,2,0,0,0-1.74-.54" transform="translate(-93.3 -65.9)"/><path class="cls-32" d="M730.72,903.16c10.61-.38,15.71-1,18.45-1.66" transform="translate(-93.3 -65.9)"/><path class="cls-32" d="M814.19,926a29.89,29.89,0,0,0-4.23-1.1,120.71,120.71,0,0,1-26.22-6.9" transform="translate(-93.3 -65.9)"/><path class="cls-32" d="M830.8,949.83c-1.81,6.3-11.49,14.93-57.9,6.15-8.75-1-16.43-3.9-40.45-7.79" transform="translate(-93.3 -65.9)"/><path class="cls-32" d="M814.19,926c9.09,3.09,16.89,10.59,16.89,19.25a11.69,11.69,0,0,1-.28,4.61" transform="translate(-93.3 -65.9)"/><path class="cls-32" d="M753.38,900s-.08,0-.13,0a23.61,23.61,0,0,1-4.08,1.44" transform="translate(-93.3 -65.9)"/><path class="cls-32" d="M1070.3,272.89c-10.61-12.57-26.06,7.31-32.26,14.51-10.75,18.78-27.65,20.77-33.41,19.62-22.65-8.84-24.19-.77-30.72,1.53-16.89,6.91-36.86-.38-51.84-3.45-33.76-7.13-51.4,5.32-59.13,13.81" transform="translate(-93.3 -65.9)"/><circle class="cls-32" cx="970.4" cy="276.18" r="11.21" transform="translate(-125.01 93.11) rotate(-9.22)"/><rect class="cls-32" x="748.61" y="155.87" width="248.54" height="146.88"/><polyline class="cls-32" points="976.99 206.99 976.99 282.99 769.63 282.99 769.63 253.01"/><polyline class="cls-32" points="976.99 206.99 976.99 176.6 769.63 176.6 769.63 253.01"/><path class="cls-32" d="M507.2,399.37A151.08,151.08,0,0,0,486,465.76" transform="translate(-93.3 -65.9)"/><path class="cls-32" d="M637.39,585.75c-11.08,1.77-24.26,3.71-40,5.81-49.35,6.58-77.64-4.7-93.49-28.77" transform="translate(-93.3 -65.9)"/><path class="cls-32" d="M557.91,349.11c-6.11.74-15.83,3.82-24.43,14.93-6,7.8-16.6,19.13-26.28,35.33" transform="translate(-93.3 -65.9)"/><path class="cls-32" d="M573.43,518.35c9.28-2.41,17.07-5.13,17.07-5.13l48-9.7a53.12,53.12,0,0,1,19.79-.25" transform="translate(-93.3 -65.9)"/><path class="cls-32" d="M573.43,518.35l-.51.13" transform="translate(-93.3 -65.9)"/><path class="cls-32" d="M572.92,518.48c-10.64,2.73-23,5-27.92,2.23" transform="translate(-93.3 -65.9)"/><path class="cls-32" d="M486,465.76a178.13,178.13,0,0,0-.36,23.27c1.48,30.39,6.36,55.68,18.26,73.76" transform="translate(-93.3 -65.9)"/><path class="cls-32" d="M637.39,585.75l6.68-1.1" transform="translate(-93.3 -65.9)"/><path class="cls-32" d="M690.39,513.08c-4.14-.8-14.75-4.41-23.61-7.56a53.07,53.07,0,0,0-8.53-2.25" transform="translate(-93.3 -65.9)"/><path class="cls-32" d="M690.39,513.08c.34.06.66.12.91.14a8.66,8.66,0,0,1,1.55,2.54" transform="translate(-93.3 -65.9)"/><path class="cls-32" d="M656.21,582.53q-5.52,1-12.14,2.12" transform="translate(-93.3 -65.9)"/><path class="cls-32" d="M700.45,555.18c0,.42.07.67.07.67L694,573.13s-5,3.4-37.83,9.4" transform="translate(-93.3 -65.9)"/><path class="cls-32" d="M693.88,518.49c3.52,10.7,6.11,32.65,6.57,36.69" transform="translate(-93.3 -65.9)"/><path class="cls-32" d="M693.88,518.49a28.34,28.34,0,0,0-1-2.73" transform="translate(-93.3 -65.9)"/><path class="cls-32" d="M634.85,596.46c3.46,16.54,4.87,20.58,9.22,21.45,5.06,1,29.12,8.46,34.39,10.1" transform="translate(-93.3 -65.9)"/><path class="cls-32" d="M783.71,849.68c11.8-.78,28.75-3.7,44.53-13" transform="translate(-93.3 -65.9)"/><path class="cls-32" d="M775.13,849.93c2.36,0,5.26,0,8.58-.25" transform="translate(-93.3 -65.9)"/><path class="cls-32" d="M828.24,836.71a79,79,0,0,0,11.1-7.84c-6.08-15.61-32.07-79.89-44.54-110.69" transform="translate(-93.3 -65.9)"/><polyline class="cls-32" points="1113.84 652.72 1123.28 898.28 1101.8 906.63 1101.51 906.52"/><polyline class="cls-32" points="1101.51 906.52 1080.32 898.28 1077.4 814.44"/><line class="cls-32" x1="1069.21" y1="579.25" x2="1068.9" y2="570.26"/><line class="cls-32" x1="1069.21" y1="579.25" x2="1077.4" y2="814.44"/><line class="cls-32" x1="1068.9" y1="570.26" x2="1067.65" y2="534.3"/><line class="cls-32" x1="1110.7" y1="571.16" x2="1110.35" y2="562.01"/><line class="cls-32" x1="1109.28" y1="534.3" x2="1110.35" y2="562.01"/><line class="cls-32" x1="1113.84" y1="652.72" x2="1113.49" y2="643.83"/><line class="cls-32" x1="1110.7" y1="571.16" x2="1113.49" y2="643.83"/><line class="cls-32" x1="1088.7" y1="534.3" x2="1101.51" y2="906.52"/><polyline class="cls-32" points="639.14 882.29 639.93 902.6 618.47 910.94 618.18 910.83"/><line class="cls-32" x1="594.88" y1="841.35" x2="594.85" y2="840.62"/><line class="cls-32" x1="625.76" y1="534.3" x2="627.2" y2="571.72"/><line class="cls-32" x1="636.52" y1="814.03" x2="637.41" y2="837.26"/><line class="cls-32" x1="595.72" y1="865.62" x2="596.09" y2="876.25"/><line class="cls-32" x1="638.91" y1="876.19" x2="639.15" y2="882.29"/><line class="cls-32" x1="595.72" y1="865.62" x2="594.88" y2="841.35"/><polyline class="cls-32" points="618.18 910.83 597.01 902.6 596.09 876.25"/><line class="cls-32" x1="637.41" y1="837.26" x2="638.91" y2="876.19"/><line class="cls-32" x1="585.16" y1="562.11" x2="588.27" y2="651.6"/><line class="cls-32" x1="584.19" y1="534.3" x2="585.16" y2="562.11"/><line class="cls-32" x1="594.85" y1="840.62" x2="588.27" y2="651.6"/><line class="cls-32" x1="627.2" y1="571.72" x2="636.52" y2="814.03"/><line class="cls-32" x1="605.22" y1="534.3" x2="618.18" y2="910.83"/><path class="cls-32" d="M503.93,562.79c-1.14,7.69-1.24,14.31-1.38,22.62a12.68,12.68,0,0,0,1.83,6.77" transform="translate(-93.3 -65.9)"/><path class="cls-32" d="M635,596.41a5.06,5.06,0,0,0,3.43-5.89l-1-4.77" transform="translate(-93.3 -65.9)"/><path class="cls-32" d="M634.85,596.46a1.52,1.52,0,0,1-.2.06c-18,4.36-82.61,18-124.39.74a12.29,12.29,0,0,1-5.88-5.08" transform="translate(-93.3 -65.9)"/><path class="cls-32" d="M634.85,596.46l.14-.05" transform="translate(-93.3 -65.9)"/><line class="cls-32" x1="1002.83" y1="534.3" x2="1067.65" y2="534.3"/><line class="cls-32" x1="1002.83" y1="534.3" x2="988.43" y2="534.3"/><polyline class="cls-32" points="584.19 534.3 550.77 534.3 550.77 518.75"/><line class="cls-32" x1="1088.7" y1="534.3" x2="1067.65" y2="534.3"/><line class="cls-32" x1="584.19" y1="534.3" x2="605.22" y2="534.3"/><line class="cls-32" x1="974.07" y1="534.3" x2="988.43" y2="534.3"/><line class="cls-32" x1="605.22" y1="534.3" x2="625.76" y2="534.3"/><line class="cls-32" x1="672.46" y1="534.3" x2="974.07" y2="534.3"/><line class="cls-32" x1="643.4" y1="534.3" x2="657.93" y2="534.3"/><line class="cls-32" x1="625.76" y1="534.3" x2="643.4" y2="534.3"/><line class="cls-32" x1="672.46" y1="534.3" x2="657.93" y2="534.3"/><line class="cls-32" x1="562.91" y1="516.63" x2="1142.32" y2="516.63"/><line class="cls-32" x1="1088.7" y1="534.3" x2="1109.28" y2="534.3"/><polyline class="cls-32" points="1109.28 534.3 1142.32 534.3 1142.32 516.63"/><path class="cls-32" d="M910.64,497.58c.74-2.15,8.23-3.93,18.23-4.47" transform="translate(-93.3 -65.9)"/><path class="cls-32" d="M959.48,499c-1.38,1.34-5.42,2.48-11,3.19" transform="translate(-93.3 -65.9)"/><path class="cls-32" d="M940.17,502.82c-1.52.06-3.09.1-4.7.1" transform="translate(-93.3 -65.9)"/><path class="cls-32" d="M910.64,497.58a1,1,0,0,0-.07.35,1.84,1.84,0,0,0,1,1.4" transform="translate(-93.3 -65.9)"/><path class="cls-32" d="M959.48,499a1.45,1.45,0,0,0,.52-1,1,1,0,0,0-.07-.35" transform="translate(-93.3 -65.9)"/><path class="cls-32" d="M940.17,502.82c3-.12,5.84-.35,8.36-.68" transform="translate(-93.3 -65.9)"/><path class="cls-32" d="M935.47,502.92h-.19c-2.33,0-4.58-.07-6.72-.19" transform="translate(-93.3 -65.9)"/><path class="cls-32" d="M952.22,494.3c4.4.83,7.27,2,7.71,3.28" transform="translate(-93.3 -65.9)"/><path class="cls-32" d="M911.57,499.33c2.38,1.65,8.83,2.94,17,3.4" transform="translate(-93.3 -65.9)"/><path class="cls-32" d="M935.94,492.94c3,0,5.94.15,8.61.37" transform="translate(-93.3 -65.9)"/><path class="cls-32" d="M775.13,849.93c-2.69,17.57-4.72,30.46-5.49,34.53a174.77,174.77,0,0,1-18.88-1.58" transform="translate(-93.3 -65.9)"/><path class="cls-32" d="M720.5,637.62c5.76,1.94,11.77,4,17.81,6.28" transform="translate(-93.3 -65.9)"/><path class="cls-32" d="M729.82,879.93c6.61,1,14,2.1,20.94,3" transform="translate(-93.3 -65.9)"/><path class="cls-32" d="M794.8,718.18c1.49-10.14,2.83-19.2,3.91-26.55a27.66,27.66,0,0,0-15.09-28.82c-4.72-2.33-10-4.73-15.6-7.14" transform="translate(-93.3 -65.9)"/><path class="cls-32" d="M775.13,849.93c5.53-36.2,13.83-92.23,19.67-131.75" transform="translate(-93.3 -65.9)"/><path class="cls-32" d="M768,655.67c-4.8-2.07-9.84-4.14-15-6.17" transform="translate(-93.3 -65.9)"/><path class="cls-32" d="M753,649.5c-4.85-1.92-9.79-3.8-14.72-5.6" transform="translate(-93.3 -65.9)"/><path class="cls-32" d="M493.29,651.76c-.5,35.16,12.61,71.88,69.37,72.28,21.12.38,101.38-6.14,113.67-6.14,0,0,2.2-.22,5.24-.4" transform="translate(-93.3 -65.9)"/><path class="cls-32" d="M504.38,592.18c-1.13,3.3-2.77,8.44-4.44,14.81" transform="translate(-93.3 -65.9)"/><path class="cls-32" d="M496.54,621.89c1-5.43,2.23-10.46,3.4-14.9" transform="translate(-93.3 -65.9)"/><path class="cls-32" d="M493.29,651.76c9.43-4.32,34.11-10,98.65-9.51,10.76-.39,59.12,1,34.18-25-5.46-1.21-92.94,2.83-129.58,4.6" transform="translate(-93.3 -65.9)"/><path class="cls-32" d="M487.46,656.46s.17-2.11,5.83-4.7" transform="translate(-93.3 -65.9)"/><path class="cls-32" d="M673.71,852.84c.25,4.7.41,7.52.41,7.52s1.92,19.2-24.19,20-183.17,4.13-183.17,4.13S441,884.28,443,900c1.73,13.88-3.84,14.93,65.28,12.62,64-2.13,164.8-4.92,179.52-5.32" transform="translate(-93.3 -65.9)"/><path class="cls-32" d="M467.08,623.32a60.48,60.48,0,0,1,13.5-.66l16-.77" transform="translate(-93.3 -65.9)"/><path class="cls-32" d="M672.46,828.09c-.86-18.31-1.74-40.23-1.8-53.94,2.31-24-34.28-19.39-34.28-19.39s-70.93.77-107.41,0a63.7,63.7,0,0,1-8.16-.71" transform="translate(-93.3 -65.9)"/><path class="cls-32" d="M447.11,637.86c-1,4.12-.71,9.32,1.6,15.91,12.29,34.94,28.42,70.29,28.42,70.29s13.06,25.41,43.68,30" transform="translate(-93.3 -65.9)"/><path class="cls-32" d="M673.71,852.84c-.32-5.91-.78-14.8-1.25-24.75" transform="translate(-93.3 -65.9)"/><path class="cls-32" d="M687.75,907.26h.43" transform="translate(-93.3 -65.9)"/><path class="cls-32" d="M447.11,637.86c2.34-9.47,11.73-13.16,20-14.54" transform="translate(-93.3 -65.9)"/><path class="cls-32" d="M673.71,852.84,499.8,859.37a2.19,2.19,0,0,1-1.54-.56l-1.38-1.24a13.57,13.57,0,0,1,.73-20.8l2.75-2.14,172.1-6.54" transform="translate(-93.3 -65.9)"/><path class="cls-32" d="M467.08,623.32c9.5-20.9,24.59-19.25,32.86-16.33" transform="translate(-93.3 -65.9)"/><path class="cls-32" d="M447.11,637.86c-7.84-25.19-19.25-72-28.27-111.71" transform="translate(-93.3 -65.9)"/><path class="cls-32" d="M417,517.83c.61,2.73,1.24,5.51,1.88,8.32" transform="translate(-93.3 -65.9)"/><path class="cls-32" d="M417,517.83c-5-22.36-9.09-41.67-11.06-52.35-5.38-29.1,17.2-31.09,33.82-26.33a20.66,20.66,0,0,1,8.73,5.36c15.27,16.19,29.08,20.42,37.58,21.25" transform="translate(-93.3 -65.9)"/><line class="cls-32" x1="323.66" y1="451.93" x2="187.13" y2="451.93"/><line class="cls-32" x1="187.13" y1="751.45" x2="278.72" y2="751.45"/><polyline class="cls-32" points="427.5 688.15 427.5 751.45 278.72 751.45"/><line class="cls-32" x1="325.54" y1="460.25" x2="270.4" y2="460.25"/><line class="cls-32" x1="187.13" y1="460.25" x2="270.4" y2="460.25"/><line class="cls-32" x1="270.4" y1="460.25" x2="278.72" y2="751.45"/><circle class="cls-32" cx="313.21" cy="601.4" r="14.11"/><circle class="cls-33" cx="240.31" cy="601.4" r="14.11"/><path class="cls-32" d="M572.92,518.48c-6.4-2.73-19.88-10.27-31.66-28.58" transform="translate(-93.3 -65.9)"/><path class="cls-32" d="M573.54,518.74l-.62-.26" transform="translate(-93.3 -65.9)"/><path class="cls-32" d="M571.75,495.94s-.69,13.54,1.68,22.41" transform="translate(-93.3 -65.9)"/><path class="cls-32" d="M573.43,518.35c0,.13.07.26.11.39" transform="translate(-93.3 -65.9)"/><path class="cls-32" d="M557.91,349.11a95.24,95.24,0,0,0,1.64-31.66" transform="translate(-93.3 -65.9)"/><path class="cls-32" d="M594.75,372l-.09-1.73" transform="translate(-93.3 -65.9)"/><path class="cls-32" d="M559.55,317.45a24.92,24.92,0,0,1-15.57-9,13.62,13.62,0,0,1-2.19-12.94c3.7-10.6,16.47-9,20.11-9.64,17.91-3,21.44-8.47,22.91-12.78a15.24,15.24,0,0,1,6.64-8.17c15.48-9.18,29.08,3,31.12,6.74,2.44,4.51,3.84,7.68,1.15,23a23.33,23.33,0,0,0,7.49,20.83,1.68,1.68,0,0,1-.37,2.7l-6.35,2.2,4.2,5.91a1.91,1.91,0,0,1-.28,2.52l-4.69,4.24,2.75,3a1.14,1.14,0,0,1-.21,1.74c-1.86,1.19-5.47,4.61-8.61,14.16a2.58,2.58,0,0,1-2.09,1.77c-6.31.92-14.26-.76-20.26-1.46-1.39,1.4-1.1,9.58-.64,17.94" transform="translate(-93.3 -65.9)"/><path class="cls-32" d="M557.91,349.11a63.13,63.13,0,0,1-5.23,14.35c5,8.45,22.66,26.88,42.62,21.51,0-3.38-.28-8.13-.55-13" transform="translate(-93.3 -65.9)"/><path class="cls-32" d="M594.75,372c5.18,3.28,14.42,13.16,22.44,42.92,7.62,22.17,36.5,39.66,45.45,49.91" transform="translate(-93.3 -65.9)"/><path class="cls-32" d="M658.25,503.27c9.64-14.19,10.53-27.09,6.56-35.36a14.41,14.41,0,0,0-2.17-3.08" transform="translate(-93.3 -65.9)"/><path class="cls-32" d="M594.66,370.27c40.06,21.19,45.38-9,45.38-13.43.29-25.63-9.5-21.89-4.61-30.53,5.84-10.3,2-18.72,0-21.89-9.79-16.7-3.74-22.17-3.65-26.2,4.13-17,0-43.4,0-43.4-8.8-37.49-37.35-35.69-51.62-32.22a20,20,0,0,0-11.4,7.75c-8.32,11.53-15.8,10.55-28,10.27-33.3,2-44.24,19.23-47.88,28.94a20.9,20.9,0,0,0-1.32,7.3c-.28,60.59,34.25,51.48,36.14,61.29-.74,20.72-28.93,23.62-37.85,32.73a8.21,8.21,0,0,0-1.42,1.94c-11.64,21.67,9.22,39.75,18.75,46.55" transform="translate(-93.3 -65.9)"/><path class="cls-32" d="M662.64,464.83l36.15,13.26S707,480,711.25,496" transform="translate(-93.3 -65.9)"/><path class="cls-32" d="M712.06,499.48c-.14-.67-.28-1.32-.43-2" transform="translate(-93.3 -65.9)"/><path class="cls-32" d="M711.63,497.53c-.12-.52-.25-1-.38-1.5" transform="translate(-93.3 -65.9)"/><path class="cls-32" d="M690.39,513.08c5.76-7.87,16-14.26,20.86-17.05" transform="translate(-93.3 -65.9)"/><path class="cls-32" d="M692.85,515.76c4.92-6.55,11.55-11.55,16.9-14.89" transform="translate(-93.3 -65.9)"/><path class="cls-32" d="M709.75,500.87l2.31-1.39" transform="translate(-93.3 -65.9)"/><path class="cls-32" d="M709.75,500.87a12,12,0,0,0,3.52,1.72,2.62,2.62,0,0,0,1.39,0c2.25-.68,5.75-1.61,7.72-2.13a4.78,4.78,0,0,1,3.46.41,60.59,60.59,0,0,1,9.65,7.12" transform="translate(-93.3 -65.9)"/><path class="cls-32" d="M766.83,525.47c-5.23-10.73-9-17.57-9-17.57s-3.93-3.75-11.1-3.4" transform="translate(-93.3 -65.9)"/><path class="cls-32" d="M766.83,525.47c1.08,2.19,2.21,4.55,3.39,7,6.91,14.69-4.61,18.72-4.61,18.72l-14.4,4.61a36.65,36.65,0,0,1-6.33,1.29" transform="translate(-93.3 -65.9)"/><path class="cls-32" d="M735.49,508c.91-.5,1.79-.94,2.65-1.32" transform="translate(-93.3 -65.9)"/><path class="cls-32" d="M746.73,504.5a24.11,24.11,0,0,0-8.59,2.16" transform="translate(-93.3 -65.9)"/><path class="cls-32" d="M711.45,515.71a194,194,0,0,0,20.46-5.51c1.24-.85,2.43-1.58,3.58-2.22" transform="translate(-93.3 -65.9)"/><path class="cls-32" d="M716,552.74l.41-.06s14.2,6.11,28.52,4.46" transform="translate(-93.3 -65.9)"/><path class="cls-32" d="M693.88,518.49l3.47-.37s5.61-.61,14.1-2.41" transform="translate(-93.3 -65.9)"/><line class="cls-32" x1="622.65" y1="486.84" x2="607.14" y2="489.28"/><path class="cls-32" d="M716,552.74c.36-6,.8-23-4.5-37" transform="translate(-93.3 -65.9)"/><path class="cls-32" d="M882.54,507.9v-92s-62.79,5.76-93.89,4.61v63.93S859.5,499.11,882.54,507.9Z" transform="translate(-93.3 -65.9)"/><path class="cls-32" d="M890.6,406.09s.55,93.27,0,116.93c0,.51,0,1,0,1.44" transform="translate(-93.3 -65.9)"/><path class="cls-32" d="M890.6,524.46a373.48,373.48,0,0,0-44-16.38" transform="translate(-93.3 -65.9)"/><path class="cls-32" d="M890.6,406.09s-102,10.37-110.59,9.79v77.06s10.09,1.33,25.7,4.63" transform="translate(-93.3 -65.9)"/><path class="cls-32" d="M805.71,497.57c7,1.48,15,3.35,23.82,5.66" transform="translate(-93.3 -65.9)"/><path class="cls-32" d="M842.49,506.85l4.09,1.23" transform="translate(-93.3 -65.9)"/><path class="cls-32" d="M842.49,506.85c-4.45-1.31-8.78-2.51-13-3.62" transform="translate(-93.3 -65.9)"/><polyline class="cls-32" points="797.3 340.19 803.83 340.19 803.08 431.68"/><path class="cls-32" d="M829.53,503.23a33.22,33.22,0,0,1,.15,7.3" transform="translate(-93.3 -65.9)"/><path class="cls-32" d="M842.5,514.6a31.38,31.38,0,0,0,0-7.75" transform="translate(-93.3 -65.9)"/><path class="cls-32" d="M846.73,516.37q-2.12-.95-4.23-1.77" transform="translate(-93.3 -65.9)"/><path class="cls-32" d="M846.73,516.37a79.35,79.35,0,0,1,29.47,22.2l-4.61,11.23s-16.89-40.32-99.17-35.14l11.72-7.27" transform="translate(-93.3 -65.9)"/><path class="cls-32" d="M784.14,507.39a139.28,139.28,0,0,1,45.54,3.14" transform="translate(-93.3 -65.9)"/><path class="cls-32" d="M842.5,514.6a106,106,0,0,0-12.82-4.07" transform="translate(-93.3 -65.9)"/><path class="cls-32" d="M846.73,516.37a43,43,0,0,0-.15-8.29" transform="translate(-93.3 -65.9)"/><path class="cls-32" d="M615.89,300.57c-6-6.32-14.31,0-14.31,0" transform="translate(-93.3 -65.9)"/><ellipse class="cls-32" cx="516.51" cy="240.98" rx="2.54" ry="3.55"/><path class="cls-32" d="M952.22,494.3c5.8-12.33,13.56-29,15.9-34.68a3.19,3.19,0,0,0-.08-2.75c-.83-1.46-2.57-1.6-4-1.43a4,4,0,0,0-3.13,2.35l-16.34,35.52" transform="translate(-93.3 -65.9)"/><line class="cls-32" x1="846.86" y1="436.92" x2="851.24" y2="427.41"/><path class="cls-32" d="M952.22,494.3c-1.37,2.93-2.64,5.61-3.69,7.84" transform="translate(-93.3 -65.9)"/><path class="cls-32" d="M935.94,492.94c-.17,3.95-.35,7.5-.47,10" transform="translate(-93.3 -65.9)"/><path class="cls-32" d="M935.94,492.94c.24-5.28.48-11.23.6-16.15.28-11.81,0-12-1.88-12.81-4.25-1.07-5,4.37-5,5,0,0,0,.07,0,.11l-.75,24" transform="translate(-93.3 -65.9)"/><line class="cls-32" x1="835.56" y1="427.21" x2="835.26" y2="436.83"/><path class="cls-32" d="M848.78,877.32A21.11,21.11,0,0,0,852.2,874" transform="translate(-93.3 -65.9)"/><path class="cls-32" d="M795.75,878.51l1.15,2.78s35.34,9,51.88-4" transform="translate(-93.3 -65.9)"/><line class="cls-32" x1="702.44" y1="812.61" x2="690.4" y2="783.78"/><path class="cls-32" d="M852.2,874c5,6.91,34.56,25.92,55.1,31.11s21.32,20.35,17.86,23.42c-.21.19-.42.4-.65.64" transform="translate(-93.3 -65.9)"/><path class="cls-32" d="M814.19,926c8.46-1.74,17.11-2.69,23.71-1.48,17.76,2.88,14.68,3.65,31.39,7.87,44.55,9.74,51.65.5,55.22-3.2" transform="translate(-93.3 -65.9)"/><path class="cls-32" d="M795.75,878.51c-2.76,5-8.93,16.32-10.56,21.45-1.26,4-2.18,6.7-2,11.84" transform="translate(-93.3 -65.9)"/><path class="cls-32" d="M783.17,911.8a61.89,61.89,0,0,0,.57,6.17" transform="translate(-93.3 -65.9)"/><path class="cls-32" d="M783.17,911.8c4.16,2.08,12.38,6,17.77,7.31,7.09,1.72,8.44-.19,21.5-1,0,0,31.1-.57,50.88,9.41,17.24,8.71,43.29,3.29,51.19,1.6" transform="translate(-93.3 -65.9)"/><path class="cls-32" d="M926.73,928.71c-.29,0-1.07.2-2.22.45" transform="translate(-93.3 -65.9)"/><path class="cls-32" d="M848.78,877.32q-1.63-1.89-3.17-4" transform="translate(-93.3 -65.9)"/><path class="cls-32" d="M828.24,836.71c2.39,7.56,8.31,24.27,17.37,36.63" transform="translate(-93.3 -65.9)"/><path class="cls-32" d="M852.2,874a25.16,25.16,0,0,0-6.59-.65" transform="translate(-93.3 -65.9)"/><path class="cls-32" d="M749.17,901.5a32.39,32.39,0,0,1-.31-4.09" transform="translate(-93.3 -65.9)"/><path class="cls-32" d="M750.76,882.88a59.62,59.62,0,0,0-1.9,14.53" transform="translate(-93.3 -65.9)"/><path class="cls-32" d="M753.28,900.05l.1,0" transform="translate(-93.3 -65.9)"/><path class="cls-32" d="M753.53,900l-.15,0" transform="translate(-93.3 -65.9)"/><path class="cls-32" d="M753.53,900c.77-.14,2.65-.73-4.67-2.6" transform="translate(-93.3 -65.9)"/><path class="cls-32" d="M1573.39,699l.91.13" transform="translate(-93.3 -65.9)"/><path class="cls-32" d="M1597.11,704.05a152.8,152.8,0,0,0-22.81-4.9" transform="translate(-93.3 -65.9)"/><path class="cls-32" d="M1571.72,698.82c-1.46-.17-2.92-.32-4.34-.45" transform="translate(-93.3 -65.9)"/><path class="cls-32" d="M1564.19,698.14c-3.21-.2-6.31-.27-9.28-.25" transform="translate(-93.3 -65.9)"/><path class="cls-32" d="M1517.63,704.07a114.58,114.58,0,0,1,34.26-6.12" transform="translate(-93.3 -65.9)"/><path class="cls-32" d="M1554.91,697.89c-1,0-2,0-3,.06" transform="translate(-93.3 -65.9)"/><path class="cls-32" d="M1564.19,698.14c1,.07,2.12.14,3.19.23" transform="translate(-93.3 -65.9)"/><path class="cls-32" d="M1571.72,698.82l1.67.2" transform="translate(-93.3 -65.9)"/><path class="cls-32" d="M1595.48,824.75c-.08.25-.14.49-.22.75" transform="translate(-93.3 -65.9)"/><path class="cls-32" d="M1597.11,704.05c-3.76,8-9.45,22.17-7.33,30.61,3,12.09,20.41,42,5.7,90.09" transform="translate(-93.3 -65.9)"/><path class="cls-32" d="M1519.56,825.76l.06.21" transform="translate(-93.3 -65.9)"/><path class="cls-32" d="M1517.63,704.07c3.76,8,9.44,22.16,7.33,30.59-3,12.17-20.68,42.42-5.4,91.1" transform="translate(-93.3 -65.9)"/><path class="cls-32" d="M1595.48,824.75l.14,0" transform="translate(-93.3 -65.9)"/><path class="cls-32" d="M1519.56,825.76l-.54-.2" transform="translate(-93.3 -65.9)"/><path class="cls-32" d="M1595.48,824.75c-33.6,13.5-64.93,5.12-75.92,1" transform="translate(-93.3 -65.9)"/><path class="cls-32" d="M1564.19,698.14c1.32-11.48,5.51-50.62,3.11-63.66" transform="translate(-93.3 -65.9)"/><path class="cls-32" d="M1570.55,634.69c2.34,13.33-1.89,52.57-3.17,63.68" transform="translate(-93.3 -65.9)"/><path class="cls-32" d="M1590.82,623.06c.89-1.44,1.41-2.44,1.41-2.44s8.62-15,9.11-24c.25-4.67-.75-6.83.24-11.17" transform="translate(-93.3 -65.9)"/><path class="cls-32" d="M1570.55,634.69c-1.06,0-2.15-.11-3.25-.21" transform="translate(-93.3 -65.9)"/><path class="cls-32" d="M1570.55,634.69c5,.18,9.41-.32,11.7-1.79,3.58-2.3,6.8-7,8.57-9.84" transform="translate(-93.3 -65.9)"/><path class="cls-32" d="M1601.58,585.45c.92-4.05,3.58-10,10.62-21.67-15,1.54-15,2.69-18.82-.38s6.53-21.12,3.84-34.94a195.57,195.57,0,0,0-7.9-27.65L1583.4,505s3.07-6.14-16.51-15a29.84,29.84,0,0,1-13.34-11.5" transform="translate(-93.3 -65.9)"/><path class="cls-32" d="M1553.55,478.56c0-3.79-.1-6.36-.1-6.36" transform="translate(-93.3 -65.9)"/><path class="cls-32" d="M1548.24,629.24c-6.53-4.22-11.73-12.68-14.38-30.51-3.07-20.74-5-20-12.28-29.19.52-.29,1.06-.54,1.59-.77" transform="translate(-93.3 -65.9)"/><path class="cls-32" d="M1548.24,629.24a22.08,22.08,0,0,0,3.29,1.74,56.15,56.15,0,0,0,15.77,3.5" transform="translate(-93.3 -65.9)"/><path class="cls-32" d="M1553.55,478.56a32.32,32.32,0,0,1-3.06-6.36" transform="translate(-93.3 -65.9)"/><path class="cls-32" d="M1523.17,568.77c9.95-4.21,20.61,2.7,20.61,2.7s5.06-3.46-4.92-18.82c-8.84-16.13-5.76-21.51-2.31-29.19s18.84-5.6,15.38-14.43c1.64-4.37,1.72-21.13,1.62-30.47" transform="translate(-93.3 -65.9)"/><path class="cls-32" d="M1534,642.23c6.86,11.63,18.68,34.83,17.89,55.72" transform="translate(-93.3 -65.9)"/><path class="cls-32" d="M1554.91,697.89c.44-20.5-11.89-44.86-18.51-56.42" transform="translate(-93.3 -65.9)"/><path class="cls-32" d="M1548.24,629.24a18.89,18.89,0,0,1-11.84,12.23" transform="translate(-93.3 -65.9)"/><path class="cls-32" d="M1534,642.23a25,25,0,0,0,2.4-.76" transform="translate(-93.3 -65.9)"/><path class="cls-32" d="M1523.17,568.77c-5.21-8.71-1.59-19.58-1.59-19.58s-2.18-1.53-8.19,8.83c-.5-10.75-18.69-15.36-18.69-15.36l-2.31,16.9s-1.76,3.84-6.14,0c-3.84,48,11.52,38.78,13.44,47.41-14.59-.59-19.59,7.89-19.59,7.89s10.76-6.15,21.51,7.29c6.47,8.1,9.42,12.41,12.06,15.5a16.08,16.08,0,0,0,12.57,5.59,33.6,33.6,0,0,0,7.76-1" transform="translate(-93.3 -65.9)"/><path class="cls-32" d="M1571.72,698.82c3.44-27.18,16.2-44.77,22.42-51.92" transform="translate(-93.3 -65.9)"/><path class="cls-32" d="M1595.6,649.17c-6.42,7.76-17.83,25.09-21.3,50" transform="translate(-93.3 -65.9)"/><path class="cls-32" d="M1595.6,649.17A18.24,18.24,0,0,0,1603,655a22.85,22.85,0,0,0,27.33-7.33c2.08-2.74,4.76-6.34,8.84-11.44,10.75-13.44,21.51-7.29,21.51-7.29s-5-8.47-19.59-7.89c1.92-8.62,17.28.59,13.44-47.41-4.38,3.84-6.14,0-6.14,0l-2.31-16.89s-18.19,4.6-18.69,15.36c-6-10.37-8.19-8.84-8.19-8.84s5.76,17.28-7.68,25.73l-2.44-10.94a26.08,26.08,0,0,0-7.48,7.36" transform="translate(-93.3 -65.9)"/><path class="cls-32" d="M1595.6,649.17c-.16-.22-.32-.43-.46-.65" transform="translate(-93.3 -65.9)"/><path class="cls-32" d="M1590.82,623.06c-.74,10.35-.08,13.07.28,14.4.16.58.41,1.11.52,1.7a26.29,26.29,0,0,0,2.52,7.74" transform="translate(-93.3 -65.9)"/><path class="cls-32" d="M1594.14,646.9a17.76,17.76,0,0,0,1,1.62" transform="translate(-93.3 -65.9)"/><polyline class="cls-32" points="673.53 459.56 735.66 472.96 702.26 501.76 651.58 491.24"/><line class="cls-32" x1="1142.32" y1="516.63" x2="1130.3" y2="507.15"/><line class="cls-32" x1="866.63" y1="431.68" x2="866.18" y2="431.68"/><polyline class="cls-32" points="866.63 431.68 1010.61 431.68 1034.61 431.68 1035.35 432.27"/><polyline class="cls-32" points="803.08 431.68 803.08 459.42 797.3 458.56"/><line class="cls-32" x1="817.34" y1="431.68" x2="803.08" y2="431.68"/><line class="cls-32" x1="817.34" y1="431.68" x2="818.27" y2="431.68"/><line class="cls-32" x1="655.83" y1="431.65" x2="712.41" y2="431.67"/><line class="cls-32" x1="647.93" y1="431.64" x2="618.33" y2="431.63"/><line class="cls-32" x1="617.27" y1="431.63" x2="618.33" y2="431.63"/><line class="cls-32" x1="655.83" y1="431.65" x2="647.93" y2="431.64"/><line class="cls-32" x1="643.4" y1="534.3" x2="645.01" y2="578"/><line class="cls-32" x1="672.46" y1="534.3" x2="674.72" y2="589.77"/><line class="cls-32" x1="657.93" y1="534.3" x2="659.73" y2="583.6"/><path class="cls-32" d="M571.5,298.48s-4.64-13.44-12.8-3.61,5.52,20.53,8.38,20.78,4.42-4.48,4.42-4.48" transform="translate(-93.3 -65.9)"/><line class="cls-32" x1="187.13" y1="451.93" x2="187.13" y2="460.25"/><line class="cls-32" x1="187.13" y1="751.45" x2="187.13" y2="460.25"/><path class="cls-32" d="M1307.38,604.42c-10,10.26-24.32,11.87-42.37,14.09-15.89,2-42.56,6.27-61.36,9.4" transform="translate(-93.3 -65.9)"/><path class="cls-32" d="M1307.38,604.42a36.85,36.85,0,0,0,3.91-4.78" transform="translate(-93.3 -65.9)"/><path class="cls-32" d="M1313.16,596.64c-.6,1.05-1.22,2.06-1.87,3" transform="translate(-93.3 -65.9)"/><path class="cls-32" d="M1102,739.57c4.52-28.55,8.78-55.36,11.52-72.62A28.43,28.43,0,0,1,1136,643.54l20.36-5.9s2.18-.57,5.86-1.48" transform="translate(-93.3 -65.9)"/><path class="cls-32" d="M1093.6,871.84c1.15.06,2.26.11,3.27.14" transform="translate(-93.3 -65.9)"/><path class="cls-32" d="M1102,739.57c-.81,5.09-1.62,10.23-2.44,15.39" transform="translate(-93.3 -65.9)"/><path class="cls-32" d="M1093.6,871.84c-4.93-.27-10.6-.84-12.14-2.07.86-6,9.55-61,18.07-114.81" transform="translate(-93.3 -65.9)"/><path class="cls-32" d="M1014.89,939c0-.62.11-1.32.22-2.09" transform="translate(-93.3 -65.9)"/><line class="cls-32" x1="1008.02" y1="821.84" x2="1009.28" y2="816.92"/><line class="cls-32" x1="1069.98" y1="877.42" x2="1071.67" y2="877.31"/><path class="cls-32" d="M1014.89,939a17.28,17.28,0,0,0,0,2.74s-1.44,9.21,58.17,6.33c20.16-2.59,36.15-9.21,45.29-5.47,1.7.8,3.17,1.54,4.26,2.1a8.28,8.28,0,0,0,4.37.92l36.26-2.33" transform="translate(-93.3 -65.9)"/><line class="cls-32" x1="1008.02" y1="821.84" x2="1006.59" y2="827.46"/><path class="cls-32" d="M1099.89,893.36v0s-35.14,18.44-61.35,23c-18.13,3.19-22.47,14.1-23.43,20.52" transform="translate(-93.3 -65.9)"/><path class="cls-32" d="M1158.06,893.84c-17.15,11.21-50.69,1.82-58.17-.48" transform="translate(-93.3 -65.9)"/><path class="cls-32" d="M1159.2,893.05c-.37.27-.76.53-1.14.79" transform="translate(-93.3 -65.9)"/><path class="cls-32" d="M1015.11,936.94c2.73,2.78,13.85,8,59.18,5.9,20.45-2.6,36.66-9.22,45.93-5.48,2,.94,3.7,1.78,4.83,2.37a6.44,6.44,0,0,0,3.31.69l36.81-2.33" transform="translate(-93.3 -65.9)"/><path class="cls-32" d="M1093.6,871.84l-3.36,13.2-.17.09" transform="translate(-93.3 -65.9)"/><path class="cls-32" d="M1090.07,885.13c-2.55,1.32-36,18.52-61.17,23-26.21,4.61-23.62,25.34-23.62,25.34s0,3.52,9.61,5.61" transform="translate(-93.3 -65.9)"/><path class="cls-32" d="M1325,622.66c-30.45-.63-79,6.7-121,14.4" transform="translate(-93.3 -65.9)"/><path class="cls-32" d="M1102.58,882.82c27.32,7.72,49.18,4,56.39,2.29" transform="translate(-93.3 -65.9)"/><path class="cls-32" d="M1159,885.11c1.65-.38,2.55-.65,2.55-.65a34.39,34.39,0,0,0,9.18-4.12" transform="translate(-93.3 -65.9)"/><path class="cls-32" d="M1096.87,872c-.47,4.08-.82,7.08-1,8.73q3.41,1.17,6.72,2.11" transform="translate(-93.3 -65.9)"/><path class="cls-32" d="M1096.87,872c4.17-36.27,18.19-159.23,23.15-202.77a21.73,21.73,0,0,1,17-18.8c4-.87,8.79-1.88,14.09-3l11.37-2.28" transform="translate(-93.3 -65.9)"/><polyline class="cls-32" points="1228.24 383.38 1238.14 343.07 1238.07 342.75"/><path class="cls-32" d="M1432,687.22c-2.57,4.56-8.58,8-17,10.51" transform="translate(-93.3 -65.9)"/><path class="cls-32" d="M1403.5,370.64c-5.45-8.5-11.69-17.7-13.76-20.72" transform="translate(-93.3 -65.9)"/><path class="cls-32" d="M1389.74,349.92l-.7-1-64.3,22" transform="translate(-93.3 -65.9)"/><polyline class="cls-32" points="1230.61 310.47 1229.5 305.63 1231.44 304.96"/><path class="cls-32" d="M1433.59,654.4c0-1.71.08-3.45.12-5.23" transform="translate(-93.3 -65.9)"/><line class="cls-32" x1="1230.61" y1="310.47" x2="1235.92" y2="333.47"/><line class="cls-32" x1="1235.92" y1="333.47" x2="1238.06" y2="342.75"/><path class="cls-32" d="M1437.51,563.41c1.37-21,2.94-38.46,4.52-46.15,2.33-11.35,8.91-38.11,6.78-66.79" transform="translate(-93.3 -65.9)"/><path class="cls-32" d="M1437.51,563.41c-1.75,26.9-3.16,59.72-3.8,85.76" transform="translate(-93.3 -65.9)"/><path class="cls-32" d="M1415,697.73c-45.12,13.52-159.65,1.61-189.24,4.13a33.21,33.21,0,0,0-18.94,7.87" transform="translate(-93.3 -65.9)"/><path class="cls-32" d="M1432,687.22a10.68,10.68,0,0,0,1.4-5.52c-.11-7,0-16.4.2-27.3" transform="translate(-93.3 -65.9)"/><path class="cls-32" d="M1403.5,370.64c.57.88,1.13,1.76,1.67,2.62,31.08,19.1,41.55,49.08,43.64,77.21" transform="translate(-93.3 -65.9)"/><path class="cls-32" d="M1403.5,370.64c-14.67,4.9-51.59,18.54-72.13,38" transform="translate(-93.3 -65.9)"/><path class="cls-32" d="M1179.07,514.74c-.34.93-.9,2.51-1.6,4.54" transform="translate(-93.3 -65.9)"/><path class="cls-32" d="M1179.07,514.74l.34-.94" transform="translate(-93.3 -65.9)"/><path class="cls-32" d="M1200.76,562.61l-31.18-7.14a10.52,10.52,0,0,1-.24-1.65" transform="translate(-93.3 -65.9)"/><path class="cls-32" d="M1169.34,553.82c-.57-7.87,5.05-25.55,8.13-34.54" transform="translate(-93.3 -65.9)"/><line class="cls-32" x1="1102.49" y1="453.08" x2="1085.77" y2="448.84"/><line class="cls-32" x1="1102.49" y1="453.08" x2="1116.42" y2="456.62"/><path class="cls-32" d="M1393.07,519l-27.16,51.28a50.79,50.79,0,0,1-52.75,26.38" transform="translate(-93.3 -65.9)"/><path class="cls-32" d="M1303.88,529.82c10.58,2.1,18.73,4,21.8,5.29" transform="translate(-93.3 -65.9)"/><path class="cls-32" d="M1313.16,596.64a53,53,0,0,1-5.21-1.09l-84.35-22.5" transform="translate(-93.3 -65.9)"/><path class="cls-32" d="M1209.72,522.52c.27-.7.53-1.39.81-2.09a8.71,8.71,0,0,1,9.63-5.33c14.61,2.6,47.27,7.87,72.66,12.59" transform="translate(-93.3 -65.9)"/><path class="cls-32" d="M1209.72,522.52a155.24,155.24,0,0,0-9.08,37.73,8.06,8.06,0,0,0,.12,2.36" transform="translate(-93.3 -65.9)"/><path class="cls-32" d="M1223.6,573.05l-17.35-4.63a7.61,7.61,0,0,1-5.49-5.81" transform="translate(-93.3 -65.9)"/><path class="cls-32" d="M1292.82,527.69c3.89.73,7.6,1.44,11.06,2.13" transform="translate(-93.3 -65.9)"/><path class="cls-32" d="M1323.9,473.41c.54-1.38,1.08-2.72,1.6-4" transform="translate(-93.3 -65.9)"/><path class="cls-32" d="M1323.9,473.41c-7.2,18.24-15.64,43.2-20,56.41" transform="translate(-93.3 -65.9)"/><path class="cls-32" d="M1323.92,376.37,1309,401.1l3.45,15.36s-16,50.23-19.61,111.23" transform="translate(-93.3 -65.9)"/><line class="cls-32" x1="1228.24" y1="383.38" x2="1230.59" y2="407.51"/><polyline class="cls-32" points="1235.92 333.47 1225.27 352.86 1228.24 383.38"/><path class="cls-32" d="M1195.79,519a171.66,171.66,0,0,0-1.1-20.23,3.55,3.55,0,0,1,0-1.22" transform="translate(-93.3 -65.9)"/><path class="cls-32" d="M1325.24,366.48l-15,13a16.58,16.58,0,0,0-4,6.55l-31.51,96.65a7.23,7.23,0,0,1-6.08,4.95c-13.88,1.54-55.15,6.07-70.59,7a3.61,3.61,0,0,0-3.3,2.91" transform="translate(-93.3 -65.9)"/><line class="cls-32" x1="1080.55" y1="451.23" x2="1079.74" y2="433.86"/><polyline class="cls-32" points="1079.73 433.86 1079.63 431.63 1101.44 431.63"/><path class="cls-32" d="M1325.24,366.48c.2-4.38,0-13.25-4-21.3-8.93,2-17.57,3.71-17.57,3.71s-11.86,1.33-11.19-9.33a11.86,11.86,0,0,0-3.07-8.06l1.73-4.61-4.9-4.9,4.32-9.5s-14.68-5.47-12.09-9.79,10.75-18.15,14-17.86-2.78-11.23-2.78-11.23-1.15-22.75,5.47-32.83c0-.31,0-.78,0-1.4" transform="translate(-93.3 -65.9)"/><path class="cls-32" d="M1387.45,311c-4.4,10-.82,27.64,2.29,39" transform="translate(-93.3 -65.9)"/><path class="cls-32" d="M1325.24,366.48c-.09,1.72-.23,2.74-.23,2.74l-.27,1.64" transform="translate(-93.3 -65.9)"/><path class="cls-32" d="M1387.45,311a12.07,12.07,0,0,1,5.62-6.24c17.28-8.64,19.59-48.38,19.59-48.38s1.15-49-61.06-58.75c-58.33-9.19-56.65,32.53-56.45,41.8" transform="translate(-93.3 -65.9)"/><path class="cls-32" d="M1325,622.66a76.79,76.79,0,0,1-17.59-18.24" transform="translate(-93.3 -65.9)"/><path class="cls-32" d="M1306.75,603.44c.19.31.41.64.63,1" transform="translate(-93.3 -65.9)"/><path class="cls-32" d="M1325,622.66c18.1,13.9,50.92,29.25,108.62,31.74" transform="translate(-93.3 -65.9)"/><line class="cls-32" x1="1169.7" y1="664.66" x2="1270.17" y2="664.66"/><path class="cls-32" d="M1420.25,722.92a10.39,10.39,0,0,1-10,7.64h-46.77" transform="translate(-93.3 -65.9)"/><path class="cls-32" d="M1415,697.73a10.38,10.38,0,0,1,5.65,9.24v13.2a10.32,10.32,0,0,1-.38,2.75" transform="translate(-93.3 -65.9)"/><path class="cls-32" d="M1207.14,718.62a23.58,23.58,0,0,0,20.51,11.94H1263" transform="translate(-93.3 -65.9)"/><polyline class="cls-32" points="1205.74 679.74 1184.86 679.74 1169.7 664.66"/><line class="cls-32" x1="1205.74" y1="679.74" x2="1240.58" y2="679.74"/><polyline class="cls-32" points="1240.58 679.74 1257.72 679.74 1262.78 673.61"/><line class="cls-32" x1="1262.78" y1="673.61" x2="1270.17" y2="664.66"/><path class="cls-32" d="M1448.81,450.47a36.44,36.44,0,0,1,4.42-4.85" transform="translate(-93.3 -65.9)"/><path class="cls-32" d="M1356.09,739.51c13.62-.89,47.53-3.25,67.22-6,25.06-3.45,29.28-28.22,28.9-58.75s29.85-188.06,27.26-209.52c-2.13-17.61-14-23.12-17.81-23.2a9.19,9.19,0,0,0-1.2,0c-1.16,0-3.57.24-7.23,3.53" transform="translate(-93.3 -65.9)"/><path class="cls-32" d="M1432,687.22c9.12,20.91-4.23,31.59-11.74,35.7" transform="translate(-93.3 -65.9)"/><path class="cls-32" d="M1437.51,563.41c19.52-67.2,17.54-104.58,15.72-117.79" transform="translate(-93.3 -65.9)"/><path class="cls-32" d="M1333.88,745.64a12.88,12.88,0,0,1,2.17,7.14V850.9" transform="translate(-93.3 -65.9)"/><path class="cls-32" d="M1336.05,850.9v23.71a12.91,12.91,0,0,1-12.91,12.9h-13.36a12.91,12.91,0,0,1-12.9-12.9V851.33" transform="translate(-93.3 -65.9)"/><path class="cls-32" d="M1299,745.64a12.87,12.87,0,0,0-2.16,7.14v98.55" transform="translate(-93.3 -65.9)"/><path class="cls-32" d="M1419.38,887.49a24.42,24.42,0,0,1,1.25,7.65c0,27-45.62,49-101.91,49s-101.9-21.93-101.9-49a24.59,24.59,0,0,1,1.27-7.69" transform="translate(-93.3 -65.9)"/><path class="cls-32" d="M1296.88,851.33c-38.17,3.94-68.61,18-78.79,36.12" transform="translate(-93.3 -65.9)"/><path class="cls-32" d="M1419.38,887.49a27,27,0,0,1,3.64,13.27c0,27.91-46.7,50.55-104.3,50.55s-104.29-22.64-104.29-50.55a27,27,0,0,1,3.66-13.31" transform="translate(-93.3 -65.9)"/><path class="cls-32" d="M1419.38,887.49c-10.54-18.84-43-33.32-83.33-36.59" transform="translate(-93.3 -65.9)"/><line class="cls-32" x1="1027.16" y1="438.78" x2="1035.35" y2="432.27"/><polyline class="cls-34" points="1035.35 432.27 1047.19 422.84 1079.73 433.86"/><path class="cls-32" d="M1125.52,504.55l1.73-.18c9.21-12,25,0,25,0l21.55,12.76" transform="translate(-93.3 -65.9)"/><line class="cls-32" x1="1084.17" y1="453.38" x2="1080.55" y2="451.23"/><path class="cls-32" d="M1120.47,504.68a18.22,18.22,0,0,0-14.09,11.52l-3.4,9a17,17,0,0,0,5.67,19.66l12,9a16,16,0,0,0,11,3.18l37.69-3.23" transform="translate(-93.3 -65.9)"/><path class="cls-32" d="M1125.52,504.55a18.11,18.11,0,0,0-5,.13" transform="translate(-93.3 -65.9)"/><path class="cls-32" d="M1387.45,311c-1,.06-2.06.1-3.31.1,4.9-15.84,9.8-47.23-11.52-46.95s-21.31,35.72-21.31,35.72-3.17,1.15-8.64,0c12.39-38.31-10.08-38.6-10.08-38.6s1.15-6.91,2.59-15.84c-23.46-1.43-34.79-3.76-40-6" transform="translate(-93.3 -65.9)"/><path class="cls-32" d="M1362,301.56s2,5.47,5.76,5.18,21.6-12.67,10.94-24.05-16.7,4.18-16.7,4.18" transform="translate(-93.3 -65.9)"/><path class="cls-32" d="M1101.33,887.74c-5.69-.22-9.15-1.36-11.26-2.61" transform="translate(-93.3 -65.9)"/><path class="cls-32" d="M1179,546.78a3,3,0,1,0,3,3A2.95,2.95,0,0,0,1179,546.78Z" transform="translate(-93.3 -65.9)"/><path class="cls-32" d="M1311.29,599.64c8.8,13.13,38.64,45.05,122.42,49.53" transform="translate(-93.3 -65.9)"/><line class="cls-32" x1="1065.67" y1="819.21" x2="1064.75" y2="827.94"/><path class="cls-32" d="M1159.2,893.05l-.41-.85" transform="translate(-93.3 -65.9)"/><path class="cls-32" d="M1159.2,893.05c3.93,8.39,11.09,27.28,6,45" transform="translate(-93.3 -65.9)"/><path class="cls-32" d="M1163.28,943.32a41.06,41.06,0,0,0,1.89-5.23" transform="translate(-93.3 -65.9)"/><path class="cls-32" d="M682.66,929.44a74.35,74.35,0,0,0,.76,10.51" transform="translate(-93.3 -65.9)"/><path class="cls-32" d="M687.75,907.26l.4-.74" transform="translate(-93.3 -65.9)"/><path class="cls-32" d="M687.75,907.26c-2.86,5.36-5.06,12.58-5.09,22.18" transform="translate(-93.3 -65.9)"/><path class="cls-32" d="M1371.67,283.68c-4.15-.06-7.21,5.52-7.21,5.52" transform="translate(-93.3 -65.9)"/><path class="cls-32" d="M1377.9,288.43c-2.18-3.51-4.32-4.73-6.23-4.75" transform="translate(-93.3 -65.9)"/><path class="cls-32" d="M1373.44,297.65c4.72-7.1.91-11.8-1.77-14" transform="translate(-93.3 -65.9)"/><path class="cls-32" d="M559,302.38a5.55,5.55,0,0,1,.91-4.52" transform="translate(-93.3 -65.9)"/><path class="cls-32" d="M559.87,297.86a6.27,6.27,0,0,1,1.47-1.36c5.62-3.74,6.92,1.95,6.92,1.95" transform="translate(-93.3 -65.9)"/><path class="cls-32" d="M564.64,306.09c-4.87-2.83-5.19-6.15-4.77-8.23" transform="translate(-93.3 -65.9)"/><path class="cls-32" d="M911.57,553.88a1.81,1.81,0,0,0-.9,1.34c0,2.75,11.06,5,24.71,5s24.72-2.24,24.72-5a1.54,1.54,0,0,0-.62-1.11" transform="translate(-93.3 -65.9)"/><path class="cls-32" d="M749.13,497.55c-.79,2.31-1.6,4.65-2.4,6.95" transform="translate(-93.3 -65.9)"/><line class="cls-32" x1="647.93" y1="431.64" x2="644.84" y2="440.76"/><path class="cls-32" d="M749.13,497.55c3.18-9.27,6.17-18.14,7.31-22a3.16,3.16,0,0,0-.37-2.73c-1-1.36-2.72-1.33-4.14-1a4,4,0,0,0-2.87,2.66l-7.83,23.08" transform="translate(-93.3 -65.9)"/><path class="cls-32" d="M1300.05,283.7c0,2.46,1.43,4.46,3.2,4.46s3.19-2,3.19-4.46-1.43-4.47-3.19-4.47S1300.05,281.23,1300.05,283.7Z" transform="translate(-93.3 -65.9)"/><path class="cls-32" d="M1296.4,272.68s8.29-6.32,14.31,0" transform="translate(-93.3 -65.9)"/><path class="cls-35" d="M105.85,101.58a22.61,22.61,0,0,1,12-32.3A48.36,48.36,0,0,1,130,66.71c30.23-2.75,33,13.35,52.61,20.81s31.4,27.87,74.19,2.75,69.48-18.06,78.51-7.86,24.34,25.52,25.13,58.5-16.1,55.35-43.58,58.88c-25.52,3.28-154.38,2.84-172.56,2.76a40.47,40.47,0,0,1-5.5-.4c-9.74-1.38-37.54-7.26-43.34-29.84-7.07-27.48,11-19.23,17.27-37.29C116.46,124.18,110.9,110.66,105.85,101.58Z" transform="translate(-93.3 -65.9)"/></g></svg>