<svg xmlns="http://www.w3.org/2000/svg" viewBox="0 0 1626.73 889.19"><defs><style>.cls-1{fill:#ccc;}.cls-2{fill:#754c24;}.cls-3{fill:#2e3192;}.cls-4{fill:#c69c6d;}.cls-25,.cls-5{fill:#e6e6e6;}.cls-26,.cls-6{fill:#39b54a;}.cls-7{fill:#26210b;}.cls-8{fill:#f7931e;}.cls-9{fill:#999;}.cls-10{fill:#1a1a1a;}.cls-11{fill:#0071bc;}.cls-12{fill:#4d4d4d;}.cls-13{fill:#f2f2f2;}.cls-14{fill:#fcee21;}.cls-15{fill:#1b1464;}.cls-16{fill:#00a99d;}.cls-17{fill:#29abe2;}.cls-18{fill:#603813;}.cls-19,.cls-27{fill:gray;}.cls-20{fill:#d4145a;}.cls-21{fill:#ed1e79;}.cls-22,.cls-28{fill:#ed1c24;}.cls-23{fill:none;}.cls-23,.cls-24,.cls-25,.cls-26,.cls-27,.cls-28,.cls-29{stroke:#000;stroke-miterlimit:10;}.cls-24{fill:#333;}.cls-29{fill:#fff;}</style></defs><g id="lines"><path class="cls-1" d="M777.8,411.75c.12.36.26.75.4,1.15l12.18-4.51a13.23,13.23,0,0,0,.43,2.42l9.55-4.34s38.78-72.19,39.94-83.71,8.06-52.22,10.36-57.22c.69-1.48,4-4.84,8.66-8.5-1.25-5-3.21-13.74-2.13-16.84s4.06-11.69,9.19-16.53l-89.83-.17v190l1.65-.6C778.06,412.5,777.92,412.11,777.8,411.75Z" transform="translate(-84.6 -83.03)"/><path class="cls-2" d="M675.79,423c16.57-18,8.88-74.39,4.57-87.8-8.64,15-35.71,6.34-47.81,3.46-8.32-2-13.1,17.3-15.27,29.53.61.08,1.21.18,1.79.3-.58-.12-1.18-.22-1.79-.3-6.83-1-14.52.8-12.86,14.39,1.3,10.7,6.86,13.47,12.55,13.31a17,17,0,0,0,1.75-.13,17,17,0,0,1-1.75.13,79.56,79.56,0,0,0,14.75,19c7.68,7.15,17.9,13.13,30.78,13.58A16.5,16.5,0,0,0,675.79,423Zm-66.9-39.81a23.92,23.92,0,0,0,2.49,5.43,23.92,23.92,0,0,1-2.49-5.43,15,15,0,0,1-2.16-3.25,15,15,0,0,0,2.16,3.25c-2.55-8.73,5.09-10.69,5.09-10.69s-7.64,2-5.09,10.69c2.29,2.64,6.39,5.43,12.33,2.31C615.28,388.66,611.18,385.87,608.89,383.23Z" transform="translate(-84.6 -83.03)"/><path class="cls-2" d="M692.68,444.52l-.18-.09-.43.15.43-.15C680.72,439,676.88,429.94,675.79,423a16.5,16.5,0,0,1-13.29,5.51c-12.88-.45-23.1-6.43-30.78-13.58-.15,12.28-2.15,35.37-14.4,46.21,1.38,9.63,20.19,31.1,46,28.14,26.16-3,33-19.16,34.61-46.76-1.8.67-3.92,1.32-5.48,1.87Z" transform="translate(-84.6 -83.03)"/><path class="cls-1" d="M1152.92,401.32a76.35,76.35,0,0,0,3.6-14.93c-32.92,26-68.58,12.79-79.1,7.92.52,3.58,1.16,7.45,1.94,11.43C1088.91,411,1120.58,424.94,1152.92,401.32Z" transform="translate(-84.6 -83.03)"/><path class="cls-3" d="M899.31,317.65c-4.24-.14-7.94-.38-10.63-.6,0,1.89,0,5,.08,8.45A135.74,135.74,0,0,0,939,323.33L938.1,313c-.45.21-.91.4-1.38.59C926.62,317.62,910.94,318,899.31,317.65Z" transform="translate(-84.6 -83.03)"/><path class="cls-4" d="M550.18,157.83V394.49c3.38-8.89,10.17-18.11,20.74-27.57a47.12,47.12,0,0,0,13.82-20.5v-116H704v72.17c13,12.76,18.12,40.78,4,81.62-5,17.3,24.14,25.77,16.83,48.43l51.71-19.13v-190l89.83.17a11.2,11.2,0,0,1,7.71-3.44c4.37,0,8.59.6,12.44,3.48l38.49.07-.12,25.16,1.16.25,0-.06,0,.06,1.13.23-1.13-.23c3.82,6.74,12,19.61,12.54,22.11.67,3-2.16,31.07-1.88,42.32.47-.19.93-.38,1.38-.59l.92,10.3.4,4.4.6,6.71,2.18-.09c1.42,8.71,5.51,35.66,9.84,82.11.66,3.91,2.15,6.55,4.22,8.2V157.83Z" transform="translate(-84.6 -83.03)"/><path class="cls-2" d="M859.32,257c10.23-8.09,26.74-17.68,35-12.08a12.84,12.84,0,0,1,3.38-.61c-3.06-11.33-6.9-17.42-11.2-20.64-3.85-2.88-8.07-3.48-12.44-3.48a11.2,11.2,0,0,0-7.71,3.44c-5.13,4.84-8.11,13.42-9.19,16.53S858.07,252.09,859.32,257Z" transform="translate(-84.6 -83.03)"/><path class="cls-5" d="M888.76,325.5c0,1.22,0,2.5.06,3.78,6.83,1.17,23.48,2.84,50.6-1.55l-.4-4.4A135.74,135.74,0,0,1,888.76,325.5Z" transform="translate(-84.6 -83.03)"/><path class="cls-1" d="M897.73,244.35c7.41-.45,19.57,2.88,27.17,4.59l.12-25.16-38.49-.07C890.83,226.93,894.67,233,897.73,244.35Z" transform="translate(-84.6 -83.03)"/><path class="cls-2" d="M897.73,244.35a12.84,12.84,0,0,0-3.38.61c-2.06.73-3.22,2.11-3,4.46,3,7.81,9.45,11.12,14.93,12.5l2.11-1-2.11,1c-8,3.95-20.18,10.4-19.92,13.22.22,2.42,1.56,9.47,2.68,15.07-.85.35-1.67.73-2.44,1.14,4.5,3.23,11,10.26,12.69,26.3,11.63.39,27.31,0,37.41-4-.28-11.25,2.55-39.31,1.88-42.32-.56-2.5-8.72-15.37-12.54-22.11l-1.16-.25C917.3,247.23,905.14,243.9,897.73,244.35Z" transform="translate(-84.6 -83.03)"/><path class="cls-1" d="M888.76,325.5c0-3.48-.07-6.56-.08-8.45,2.69.22,6.39.46,10.63.6-1.69-16-8.19-23.07-12.69-26.3C874.15,298,871.4,312,871.4,312s-19.74,92-28.31,124.89h40.38c-4.94-41.26-5.21-85.06-5.18-97.56a59.74,59.74,0,0,1,10.76-1.91c-.1-2.53-.17-5.37-.23-8.15C888.8,328,888.78,326.72,888.76,325.5Z" transform="translate(-84.6 -83.03)"/><polygon class="cls-6" points="838.55 465.33 788.15 481.75 775.56 472.72 786.71 497.88 838.55 465.33"/><path class="cls-4" d="M839.53,448.33c-2.5,2.77-17.61,9.35-25.82,12.79,2.26,4.39,3.74,7.18,3.74,7.18s-4.55,3.07-11.32,7.52c-15.17,10-41.47,26.86-52.62,31.64-16.13,6.92,9.79,39.75,9.79,54.72,0,14-11.52,53.49-14.94,76h207.9V515.62c-12.76,3.7-26.23,5.8-40.32,3.36-18.17-3.14-27.6-41.36-32.47-82.08H843.09C841.37,443.47,840.1,447.69,839.53,448.33ZM858.92,553l1.23,2.78,12.59,9,50.4-16.42L871.3,580.9l-11.15-25.15-2.67-1.92,2.67,1.92Z" transform="translate(-84.6 -83.03)"/><path class="cls-1" d="M609.8,287.43c38.3-14.4,34.27,20.74,63.94,9.51,11.29-4.28,22.25-2.2,30.24,5.64V230.41H584.74v116C592.79,322.54,580.13,298.59,609.8,287.43Zm80.35-45.79a6.34,6.34,0,1,1-6.33,6.34A6.34,6.34,0,0,1,690.15,241.64ZM594,248a6.34,6.34,0,1,1,6.34,6.33A6.34,6.34,0,0,1,594,248Z" transform="translate(-84.6 -83.03)"/><path class="cls-3" d="M888.82,329.28c.06,2.78.13,5.62.23,8.15,9.6-1.06,25.33-2,51-3l-.6-6.71C912.3,332.12,895.65,330.45,888.82,329.28Z" transform="translate(-84.6 -83.03)"/><path class="cls-7" d="M571.5,445.26c13.7,10,15.35,21.12,13.1,30.21,5.79-4.07,9.36-6.6,9.36-6.6s11.81-8.35,23.33-9.5a6.52,6.52,0,0,0,0,1.81c12.25-10.84,14.25-33.93,14.4-46.21a79.56,79.56,0,0,1-14.75-19c-5.69.16-11.25-2.61-12.55-13.31-1.66-13.59,6-15.35,12.86-14.39,2.17-12.23,7-31.52,15.27-29.53,12.1,2.88,39.17,11.52,47.81-3.46,4.31,13.41,12,69.83-4.57,87.8,1.09,6.9,4.93,16,16.71,21.39,1.56-.55,3.68-1.2,5.48-1.87l26.86-9.93C732.15,410,703,401.5,708,384.2c14.09-40.84,9-68.86-4-81.62-8-7.84-19-9.92-30.24-5.64-29.67,11.23-25.64-23.91-63.94-9.51-29.67,11.16-17,35.11-25.06,59a47.12,47.12,0,0,1-13.82,20.5c-10.57,9.46-17.36,18.68-20.74,27.57a34.5,34.5,0,0,0,0,25.91C553.74,429.24,561,437.57,571.5,445.26Z" transform="translate(-84.6 -83.03)"/><path class="cls-4" d="M571.5,445.26c-10.52-7.69-17.76-16-21.32-24.86v79.08c13.45-9.29,26.18-18.22,34.42-24C586.85,466.38,585.2,455.27,571.5,445.26Z" transform="translate(-84.6 -83.03)"/><path class="cls-8" d="M753.51,507.46c11.15-4.78,37.45-21.67,52.62-31.64C795.05,461,782.86,426.37,778.2,412.9l-1.65.6-51.71,19.13L698,442.56c-1.63,27.6-8.45,43.76-34.61,46.76-25.86,3-44.67-18.51-46-28.14a6.52,6.52,0,0,1,0-1.81c-11.52,1.15-23.33,9.5-23.33,9.5s-3.57,2.53-9.36,6.6c-8.24,5.79-21,14.72-34.42,24-14.47,10-29.75,20.43-41.11,27.83,3.16,9.83,13.27,38.8,28.5,60,2.22-.86,4.49-1.75,6.85-2.69,2-.79,3.91-1.46,5.76-2,35.57-10.84,47.61,19,48.26,55.6a212.48,212.48,0,0,1-.79,21.54c18.14,5,102.62,25.15,150.23-13.17a16.51,16.51,0,0,1-.13-3.77c.16-1.43.37-3,.61-4.6,3.42-22.55,14.94-62.07,14.94-76C763.3,547.21,737.38,514.38,753.51,507.46Z" transform="translate(-84.6 -83.03)"/><path class="cls-4" d="M550.18,582.62v55.6h48.26C597.79,601.57,585.75,571.78,550.18,582.62Z" transform="translate(-84.6 -83.03)"/><path class="cls-2" d="M886.38,275.14c-.26-2.82,11.87-9.27,19.92-13.22-5.48-1.38-11.93-4.69-14.93-12.5-.24-2.35.92-3.73,3-4.46-8.29-5.6-24.8,4-35,12.08-4.63,3.66-8,7-8.66,8.5-2.3,5-9.21,45.7-10.36,57.22s-39.94,83.71-39.94,83.71l-9.55,4.34c2.62,10.26,16.21,37.31,22.9,50.31,8.21-3.44,23.32-10,25.82-12.79.57-.64,1.84-4.86,3.56-11.43C851.66,404,871.4,312,871.4,312s2.75-14,15.22-20.66c.77-.41,1.59-.79,2.44-1.14C887.94,284.61,886.6,277.56,886.38,275.14Z" transform="translate(-84.6 -83.03)"/><path class="cls-9" d="M1129.27,438.14c-.43-1.32-.85-2.69-1.17-3.83a67.44,67.44,0,0,0,24.82-33c-32.34,23.62-64,9.66-73.56,4.42,2.16,11,5.38,22.91,10.15,31.84-.27,1.36-.53,2.83-.8,4.4-.14.82-.28,1.67-.41,2.55-.18,1.1-.35,2.24-.52,3.41-5,34.15-9,97.92-9,97.92s8.93,71.23.37,129.83a135.5,135.5,0,0,0,16.39,2.31l2.28.16a142,142,0,0,0,35.62-2.08l2-.39c3.3-.68,6.66-1.49,10.06-2.48-.64-20.57-.84-45.87-.84-56.59,0-18.15-8.64-83-8.64-94.18s2.59-51-6-80.35l.57-.24c-.17-.48-.36-1.05-.57-1.68Z" transform="translate(-84.6 -83.03)"/><path class="cls-3" d="M1129.93,440.17c.21.63.4,1.2.57,1.68,48-19.31,49.94-49.2,48.27-61.94-3.4-1.72-6.63-3.29-9.66-4.71C1169.45,387.32,1167.16,423.41,1129.93,440.17Z" transform="translate(-84.6 -83.03)"/><path class="cls-3" d="M1156.52,386.39a76.35,76.35,0,0,1-3.6,14.93,67.44,67.44,0,0,1-24.82,33c.32,1.14.74,2.51,1.17,3.83,35.62-16.89,36.76-53.2,36.18-64.63-3-1.38-5.83-2.59-8.29-3.63,0,.53.06,1.08.08,1.66A82.63,82.63,0,0,1,1156.52,386.39Z" transform="translate(-84.6 -83.03)"/><path class="cls-10" d="M1137.13,697.71c3.08-.51,6.23-1.11,9.44-1.82-.47-5.57-.83-13.67-1.11-22.68-3.4,1-6.76,1.8-10.06,2.48A212.57,212.57,0,0,0,1137.13,697.71Z" transform="translate(-84.6 -83.03)"/><path class="cls-1" d="M1129.27,438.14l.66,2c37.23-16.76,39.52-52.85,39.18-65l-3.66-1.69C1166,384.94,1164.89,421.25,1129.27,438.14Z" transform="translate(-84.6 -83.03)"/><path class="cls-11" d="M1105.35,700c2.26,11,7.52,40.6,9.31,86.26.65.06,1.27.08,1.88.08a13.48,13.48,0,0,0,9.79-3.93c14.78-14.53,6.1-65.34,2.41-83.51A172.69,172.69,0,0,1,1105.35,700Z" transform="translate(-84.6 -83.03)"/><path d="M1068.94,253.66a37.13,37.13,0,0,1,19.42-.79c12.67,3.07,28.42,6.53,42.62,2.31s.39,15.36.39,15.36,9.21,5.76,8.06,23l6.15-1.54s-1.54-18.43,2.3-21.5c2.77-2.22,17.52-8,20.49,12.27a11.66,11.66,0,0,1,1.79,1.64c9.44-36.26,3.06-48.47,3.06-48.47s-23.8-31.88-57.6-31.11-52.6,20.74-56.44,29.95c-3.18,7.62,1.91,35.71,3.77,45.21a6.1,6.1,0,0,1,1.89-.18C1065.05,266.58,1066.85,258.53,1068.94,253.66Z" transform="translate(-84.6 -83.03)"/><path class="cls-9" d="M1097.8,678.16l-2.28-.16a79,79,0,0,1-.27,21.48l2.33.17A79.11,79.11,0,0,0,1097.8,678.16Z" transform="translate(-84.6 -83.03)"/><path class="cls-12" d="M1097.8,678.16a79.11,79.11,0,0,1-.22,21.49c2.45.17,5.05.28,7.77.34a172.69,172.69,0,0,0,23.39-1.1c2.08-.24,4.21-.53,6.37-.86a216.39,216.39,0,0,1-1.69-21.95A142,142,0,0,1,1097.8,678.16Z" transform="translate(-84.6 -83.03)"/><path class="cls-9" d="M1133.42,676.08a216.39,216.39,0,0,0,1.69,21.95l2-.32a212.57,212.57,0,0,1-1.73-22Z" transform="translate(-84.6 -83.03)"/><path class="cls-2" d="M1064.84,279.85a6.1,6.1,0,0,0-1.89.18h0a5.47,5.47,0,0,0-4,5.09c-.41,8.95,4.36,21.85,7.83,24.88-.72-4.94-1.27-10.4-1.59-16.43C1064.86,288.47,1064.77,283.92,1064.84,279.85Z" transform="translate(-84.6 -83.03)"/><path class="cls-3" d="M1087.78,447.94c.17-1.17.34-2.31.52-3.41-17.93-15.19-24.16-46.08-26.07-59.38a48.53,48.53,0,0,1-8.43,1.35c-2.58.19-5.08.49-7.49.88C1044.47,398.22,1045.35,424.48,1087.78,447.94Z" transform="translate(-84.6 -83.03)"/><path class="cls-13" d="M380.55,400.62c-2-3.17-2.3-9.51.29-9.8,1.79-.19,23.37,9.78,36.55,16l30.89-15.67,3.41-1.73-36.87-61.63L299.75,387.34l1.89,3.77,29.66,59.33L348,442l53-26.87C393.25,410.16,381.87,402.68,380.55,400.62Z" transform="translate(-84.6 -83.03)"/><path class="cls-14" d="M790.38,408.39,778.2,412.9c4.66,13.47,16.85,48.07,27.93,62.92,6.77-4.45,11.32-7.52,11.32-7.52s-1.48-2.79-3.74-7.18c-6.69-13-20.28-40.05-22.9-50.31A13.23,13.23,0,0,1,790.38,408.39Z" transform="translate(-84.6 -83.03)"/><path class="cls-14" d="M499,533.71C501.65,546,509.18,574,524.9,592c4-1.37,8.16-2.93,12.67-4.68-15.23-21.23-25.34-50.2-28.5-60C505.18,529.85,501.75,532,499,533.71Z" transform="translate(-84.6 -83.03)"/><path class="cls-2" d="M494,536.55c-10.94-24.48-45.21-53.85-48.67-85.53s-17.85-39.46-17.85-39.46-4.22-2-10.11-4.78c-13.18-6.18-34.76-16.15-36.55-16-2.59.29-2.3,6.63-.29,9.8,1.32,2.06,12.7,9.54,20.45,14.47l1.75-.89-1.75.89L348,442c8.1,8.18,26.7,22.24,54.71,16C464.57,589,465.38,612.67,524.9,592,509.18,574,501.65,546,499,533.71,497,534.94,495.28,535.9,494,536.55Z" transform="translate(-84.6 -83.03)"/><path class="cls-1" d="M1088.3,444.53c.13-.88.27-1.73.41-2.55-15.53-17.81-21.24-45.88-23-57.84-1.11.37-2.26.71-3.44,1C1064.14,398.45,1070.37,429.34,1088.3,444.53Z" transform="translate(-84.6 -83.03)"/><path class="cls-2" d="M1156.52,386.39a82.63,82.63,0,0,0,.72-14.85c-6.68-12.72-3.66-38.36-2.18-48a12.74,12.74,0,0,1-10.34-3.73c-17.85,46.33-49.74,39.42-55.21,36.15a30.76,30.76,0,0,1-4-2.9c.63,16.63-6.33,25.28-9.62,28.42.33,3.39.83,7.82,1.55,12.81C1087.94,399.18,1123.6,412.4,1156.52,386.39Z" transform="translate(-84.6 -83.03)"/><path class="cls-10" d="M1095.52,678a135.5,135.5,0,0,1-16.39-2.31c-1.05,7.15-2.35,14.11-4,20.73a139.26,139.26,0,0,0,20.09,3.06A79,79,0,0,0,1095.52,678Z" transform="translate(-84.6 -83.03)"/><path class="cls-3" d="M1089.51,437.58c-4.77-8.93-8-20.8-10.15-31.84-.78-4-1.42-7.85-1.94-11.43-.72-5-1.22-9.42-1.55-12.81-.06-.64-.12-1.24-.17-1.8a57.86,57.86,0,0,1-10,4.44c1.8,12,7.51,40,23,57.84C1089,440.41,1089.24,438.94,1089.51,437.58Z" transform="translate(-84.6 -83.03)"/><path class="cls-2" d="M1144.72,319.83a15,15,0,0,1-1.46-1.68,15,15,0,0,0,1.46,1.68,12.74,12.74,0,0,0,10.34,3.73,18.64,18.64,0,0,0,2.8-.42c11-2.43,21.44-28.27,12.3-38.69a11.66,11.66,0,0,0-1.79-1.64c-2.34-1.73-5.53-2.74-9.74-2.67-7.77,1.29-10,5.23-9.72,9.66-.27-4.43,1.95-8.37,9.72-9.66,4.21-.07,7.4.94,9.74,2.67-3-20.29-17.72-14.49-20.49-12.27-3.84,3.07-2.3,21.5-2.3,21.5l-6.15,1.54c1.15-17.28-8.06-23-8.06-23s13.82-19.59-.39-15.36-30,.76-42.62-2.31a37.13,37.13,0,0,0-19.42.79c-2.09,4.87-3.89,12.92-4.1,26.19-.07,4.07,0,8.62.29,13.73.32,6,.87,11.49,1.59,16.43,3.87,26.43,12.75,37.93,18.77,43.07a30.76,30.76,0,0,0,4,2.9C1095,359.25,1126.87,366.16,1144.72,319.83Zm22.46-24.39a18.41,18.41,0,0,0,.48-6.42,18.41,18.41,0,0,1-.48,6.42c0,.82.07,1.68,0,2.65-.57,18.57-13,14.4-13,14.4s12.39,4.17,13-14.4c0-1,0-1.83,0-2.65a10.3,10.3,0,0,1-8.88,8.12,10.3,10.3,0,0,0,8.88-8.12c-.89-14.86-14.21-5.56-14.21-5.56S1166.29,280.58,1167.18,295.44Z" transform="translate(-84.6 -83.03)"/><path class="cls-3" d="M1152.39,718.33c.45,6.21,1,11.84,1.68,13,1.47,2.58,47.77,4.12,63.51-3.92a16.63,16.63,0,0,0,2.49-1.55c-.18-3-.35-6.56-.49-10.28A140.5,140.5,0,0,1,1152.39,718.33Z" transform="translate(-84.6 -83.03)"/><path class="cls-15" d="M1215.18,543.85v-.06l-.58-.46.58.46c.74-60.39,21.43-95.84,34.3-111.5a137.31,137.31,0,0,0-15.58-16.22c-18.14-15.65-38.5-27.71-55.13-36.16,1.67,12.74-.23,42.63-48.27,61.94l-.57.24c8.64,29.37,6,69.12,6,80.35s8.64,76,8.64,94.18c0,10.72.2,36,.84,56.59.28,9,.64,17.11,1.11,22.68a43,43,0,0,0,.93,6.84c1,.28,2.33.63,4,1,13.53,2.88,48.41,7,67.54-5.71.24-.15.49-.3.72-.47,3.46-8.92,7.2-17.85,7.49-34-2-14.17-17.53-75.82-8.57-117l-3.52-2.81Zm-71.72-79.3a6.34,6.34,0,1,1,6.34,6.34A6.33,6.33,0,0,1,1143.46,464.55Zm4,70.85a6.34,6.34,0,1,1,6.33,6.34A6.33,6.33,0,0,1,1147.5,535.4Zm5.76,64.51a6.34,6.34,0,1,1,6.33,6.34A6.32,6.32,0,0,1,1153.26,599.91Zm8.64,68.55a6.34,6.34,0,1,1,6.33-6.34A6.34,6.34,0,0,1,1161.9,668.46Z" transform="translate(-84.6 -83.03)"/><path class="cls-16" d="M1154.07,731.3c-.65-1.13-1.23-6.76-1.68-13-.12-1.5-.22-3-.31-4.55-.24-3.78-.43-7.42-.56-10.06-1.69-.36-3.07-.71-4-1a43,43,0,0,1-.93-6.84c-3.21.71-6.36,1.31-9.44,1.82l-2,.32c-2.16.33-4.29.62-6.37.86,3.69,18.17,12.37,69-2.41,83.51-.14,11.18,1.72,26.6,1.72,26.6s-4.18.72-9.94,1.3c-1.24-8-1.51-19.45-1.57-24-.61,0-1.23,0-1.88-.08-1.79-45.66-7.05-75.31-9.31-86.26-2.72-.06-5.32-.17-7.77-.34l-2.33-.17a139.26,139.26,0,0,1-20.09-3.06c-.67,2.74-1.38,5.43-2.16,8-2.12.06-4.24,0-6.34,0-.18,3.8-.5,9.35-1.07,15.72-.16,1.85-.35,3.78-.56,5.75-.35,3.25-.76,6.64-1.25,10-23.59.22-39.19-4.74-48.21-9-.08,20-.23,91.8,1.75,110.59,2.14,20.31,3.28,119.91,3.44,134.21H1125l-2.28-147s2.3-9.79,9.21,4.61c6.11,12.72,27,118.06,31.85,142.42h97.35c-8-55.9-37.82-214.07-43.56-244.34C1201.84,735.42,1155.54,733.88,1154.07,731.3Z" transform="translate(-84.6 -83.03)"/><path class="cls-3" d="M1151.52,703.72c.13,2.64.32,6.28.56,10.06,8.32,1.66,38.34,6.49,67.32-3.28-.14-4.51-.26-8.93-.34-12.49C1199.93,710.75,1165.05,706.6,1151.52,703.72Z" transform="translate(-84.6 -83.03)"/><path class="cls-1" d="M1152.08,713.78c.09,1.51.19,3.05.31,4.55a140.5,140.5,0,0,0,67.19-2.78c-.06-1.67-.12-3.37-.18-5C1190.42,720.27,1160.4,715.44,1152.08,713.78Z" transform="translate(-84.6 -83.03)"/><path class="cls-3" d="M1066.66,704.43c-24.9-.91-48.41-11.33-58.77-16.58l-.77,12.24c7.67,5.1,26.58,15.5,58.47,20.06C1066.16,713.78,1066.48,708.23,1066.66,704.43Z" transform="translate(-84.6 -83.03)"/><path class="cls-1" d="M1065.59,720.15c-31.89-4.56-50.8-15-58.47-20.06l-.4,6.31c7.77,5.09,25.92,14.61,58.31,19.5C1065.24,723.93,1065.43,722,1065.59,720.15Z" transform="translate(-84.6 -83.03)"/><path class="cls-3" d="M1065,725.9c-32.39-4.89-50.54-14.41-58.31-19.5L1005.8,721a43.55,43.55,0,0,0,9.77,5.95c9,4.28,24.62,9.24,48.21,9C1064.27,732.54,1064.68,729.15,1065,725.9Z" transform="translate(-84.6 -83.03)"/><path class="cls-6" d="M1326.15,692.72c0-1.11.09-2.27.12-3.43-14.89,5.74-38.74,4.28-47,3.55l.61,3.06C1287.12,696.59,1308.24,697.94,1326.15,692.72Z" transform="translate(-84.6 -83.03)"/><path class="cls-17" d="M1325.67,680.89c.24-.07.47-.14.7-.23a10.1,10.1,0,0,0,6.67-8.9c1.17-20.09,3.55-78.17-6.22-100.55-13-27.63-43.84-98.51-77.34-138.92-12.87,15.66-33.56,51.11-34.3,111.5l3.52,2.81c18,14.48,43.09,36.24,45.53,46.5,3.84,16.12-4.61,89.85,11.91,93.31.61.13,1.25.24,1.91.33C1291.77,688.82,1313.2,684.4,1325.67,680.89Z" transform="translate(-84.6 -83.03)"/><path class="cls-18" d="M1383.35,971.72h327.47V83.53H1383.35Zm55.53-424.08a15.48,15.48,0,1,1-15.48,15.48A15.48,15.48,0,0,1,1438.88,547.64Z" transform="translate(-84.6 -83.03)"/><path class="cls-2" d="M1331.6,725.83c.31.85.64,1.72,1,2.66-.35-.94-.68-1.81-1-2.66-6.85-18.23-7.39-16.79-8.14-18.78a24.63,24.63,0,0,1-.88-5.17c-10.84,4.37-31.22,2.82-39.34,1.92-1.64,11.46-5.92,51,12.29,53.94,21.31,3.45,41.18-4.61,42.91-12.39s5.76-21,.86-25.63C1336.73,717.3,1333.84,720.84,1331.6,725.83Z" transform="translate(-84.6 -83.03)"/><rect class="cls-7" x="1272.11" y="0.5" width="26.65" height="888.19"/><path class="cls-3" d="M1326.27,689.29c.07-3,.1-6,.1-8.63-.23.09-.46.16-.7.23-12.47,3.51-33.9,7.93-47.62,5.85l1.22,6.1C1287.53,693.57,1311.38,695,1326.27,689.29Z" transform="translate(-84.6 -83.03)"/><path class="cls-15" d="M1073,704.46c.78-2.61,1.49-5.3,2.16-8,1.62-6.62,2.92-13.58,4-20.73,8.56-58.6-.37-129.83-.37-129.83s4-63.77,9-97.92c-42.43-23.46-43.31-49.72-41.47-60.56a83.34,83.34,0,0,0-37.44,16s-3.44,2.83-8.64,6.52c3.58,13.45,7.79,40.86,3.67,89.33-2.12.51-4.27,1.12-6.45,1.8,15.39,59.48.26,129.27-.48,151.57-.77,23,5.37,32.25,5.37,32.25s2,1.2,5.55,3c10.36,5.25,33.87,15.67,58.77,16.58C1068.76,704.51,1070.88,704.52,1073,704.46Zm-7.39-240.77a3.17,3.17,0,1,1-3.17,3.17A3.17,3.17,0,0,1,1065.61,463.69Zm-9.6,74.59a3.17,3.17,0,1,1,3.17,3.17A3.17,3.17,0,0,1,1056,538.28Zm3.65,64.13a3.17,3.17,0,1,1,3.16,3.17A3.16,3.16,0,0,1,1059.66,602.41Zm4.51,65.57a3.17,3.17,0,1,1,3.17-3.17A3.17,3.17,0,0,1,1064.17,668Z" transform="translate(-84.6 -83.03)"/><path class="cls-3" d="M1322.58,701.88a17.85,17.85,0,0,0,2.9-1.46,57.94,57.94,0,0,0,.67-7.7c-17.91,5.22-39,3.87-46.27,3.18l1.54,7.69c.5.06,1.12.14,1.82.21C1291.36,704.7,1311.74,706.25,1322.58,701.88Z" transform="translate(-84.6 -83.03)"/><path class="cls-7" d="M598.44,638.22H280.62v27.64H597.05c.22-2,.42-4.07.6-6.1A212.48,212.48,0,0,0,598.44,638.22Z" transform="translate(-84.6 -83.03)"/><path class="cls-2" d="M768.62,939.4l16,32.32H839.7L818.23,899l-.78.1C805.07,900.63,789.28,930.65,768.62,939.4Z" transform="translate(-84.6 -83.03)"/><path class="cls-2" d="M604.67,954.81l1.86,16.91H664l-1.24-18.89c-16.86,5.72-31.2,7.95-40.6,7.95C617,960.78,611.05,958.28,604.67,954.81Z" transform="translate(-84.6 -83.03)"/><path class="cls-19" d="M476.58,320.84c-1.32-8.79-6.29-28.92-24.12-27.11-20.69,2.09-21.59,22.53-21.54,27.11Z" transform="translate(-84.6 -83.03)"/><path class="cls-1" d="M299.75,387.34l115.07-59.59,36.87,61.63-3.41,1.73H501.8V246H280.62V391.11h21Zm155.07-118a10.08,10.08,0,1,1-10.08,10.08A10.09,10.09,0,0,1,454.82,269.38Zm-2.36,24.35c17.83-1.81,22.8,18.32,24.12,27.11H430.92C430.87,316.26,431.77,295.82,452.46,293.73Z" transform="translate(-84.6 -83.03)"/><path class="cls-4" d="M550.18,582.62c-1.85.57-3.77,1.24-5.76,2-2.36.94-4.63,1.83-6.85,2.69-4.51,1.75-8.72,3.31-12.67,4.68-59.52,20.65-60.33-3.07-122.17-134.09-28,6.27-46.61-7.79-54.71-16l-16.72,8.48-29.66-59.33h-21V638.22H550.18Zm-116.61,8.56-13.16-16.35-12.82,15.93-9-7.23L413,565.64,400.35,549.9l9-7.22,11.09,13.78,11.44-14.21,9,7.22-13,16.17L442.55,584Z" transform="translate(-84.6 -83.03)"/><path class="cls-20" d="M752.29,661.93c-2.36-6.37-3.9-11.53-4.41-15.34-47.61,38.32-132.09,18.12-150.23,13.17-.18,2-.38,4.07-.6,6.1-.33,2.93-.7,5.86-1.12,8.76C615.29,680.33,693.39,699.77,752.29,661.93Z" transform="translate(-84.6 -83.03)"/><path class="cls-7" d="M956.26,157.83V424.66c5.07,4,13.67,2.11,22.47-1.9V140.55H280.62v17.28H956.26Z" transform="translate(-84.6 -83.03)"/><path class="cls-7" d="M956.26,638.22H748.36c-.24,1.62-.45,3.17-.61,4.6a16.51,16.51,0,0,0,.13,3.77c.51,3.81,2,9,4.41,15.34.47,1.26,1,2.57,1.51,3.93H978.73V507.8c-7.22,2.76-14.71,5.58-22.47,7.82Z" transform="translate(-84.6 -83.03)"/><path class="cls-11" d="M1118.11,810.3c5.76-.58,9.94-1.3,9.94-1.3s-1.86-15.42-1.72-26.6a13.48,13.48,0,0,1-9.79,3.93C1116.6,790.85,1116.87,802.26,1118.11,810.3Z" transform="translate(-84.6 -83.03)"/><path class="cls-4" d="M501.8,391.11H448.28l-30.89,15.67c5.89,2.77,10.11,4.78,10.11,4.78s14.4,7.78,17.85,39.46,37.73,61.05,48.67,85.53c1.26-.65,2.94-1.61,5-2.84,2.78-1.68,6.21-3.86,10.1-6.4,11.36-7.4,26.64-17.83,41.11-27.83V420.4a34.5,34.5,0,0,1,0-25.91V157.83H280.62V246H501.8Z" transform="translate(-84.6 -83.03)"/><path class="cls-17" d="M1000.23,409.92a137.87,137.87,0,0,1-21.5,12.84c-8.8,4-17.4,5.93-22.47,1.9-2.07-1.65-3.56-4.29-4.22-8.2-4.33-46.45-8.42-73.4-9.84-82.11l-2.18.09c-25.64,1-41.37,1.93-51,3,0,.1,0,.21,0,.31,0-.1,0-.21,0-.31a59.74,59.74,0,0,0-10.76,1.91c0,12.5.24,56.3,5.18,97.56h0c4.87,40.72,14.3,78.94,32.47,82.08,14.09,2.44,27.56.34,40.32-3.36,7.76-2.24,15.25-5.06,22.47-7.82,6.47-2.47,12.71-4.87,18.72-6.75,2.18-.68,4.33-1.29,6.45-1.8C1008,450.78,1003.81,423.37,1000.23,409.92Z" transform="translate(-84.6 -83.03)"/><path class="cls-21" d="M595.93,674.62c-3.88,26.84-11.58,51.65-18.67,62.09-19,45.51-7.49,135.36-7.49,135.36s1.15,51.84-12.1,61.06c14.93,0,32.11,13.55,47,21.68,6.38,3.47,12.34,6,17.51,6,9.4,0,23.74-2.23,40.6-7.95a211.46,211.46,0,0,0,46.38-22.58c28.22-12.67,23,12.09,49,11.52a28.36,28.36,0,0,0,10.5-2.37c20.66-8.75,36.45-38.77,48.83-40.26l.78-.1c14-1.85,25.83-7.87,32-2.78-33.43-101.67-80-188.41-96.48-230.4-.54-1.36-1-2.67-1.51-3.93C693.39,699.77,615.29,680.33,595.93,674.62Z" transform="translate(-84.6 -83.03)"/><polygon class="cls-22" points="356.22 466.45 347.25 459.22 335.82 473.43 324.73 459.65 315.75 466.87 328.42 482.62 314.02 500.5 323 507.73 335.82 491.8 348.98 508.15 357.95 500.93 343.21 482.62 356.22 466.45"/><path class="cls-1" d="M1065.61,470a3.17,3.17,0,1,0-3.17-3.16A3.16,3.16,0,0,0,1065.61,470Z" transform="translate(-84.6 -83.03)"/><circle class="cls-19" cx="1077.3" cy="579.09" r="6.34"/><path class="cls-19" d="M1165.93,599.91a6.34,6.34,0,1,0-6.34,6.34A6.33,6.33,0,0,0,1165.93,599.91Z" transform="translate(-84.6 -83.03)"/><path class="cls-19" d="M1160.17,535.4a6.34,6.34,0,1,0-6.34,6.34A6.34,6.34,0,0,0,1160.17,535.4Z" transform="translate(-84.6 -83.03)"/><path class="cls-19" d="M1156.14,464.55a6.34,6.34,0,1,0-6.34,6.34A6.33,6.33,0,0,0,1156.14,464.55Z" transform="translate(-84.6 -83.03)"/><path class="cls-1" d="M1064.17,661.64a3.17,3.17,0,1,0,3.17,3.17A3.17,3.17,0,0,0,1064.17,661.64Z" transform="translate(-84.6 -83.03)"/><path class="cls-1" d="M1066,602.41a3.17,3.17,0,1,0-3.17,3.17A3.17,3.17,0,0,0,1066,602.41Z" transform="translate(-84.6 -83.03)"/><path class="cls-1" d="M1062.34,538.28a3.17,3.17,0,1,0-3.16,3.17A3.16,3.16,0,0,0,1062.34,538.28Z" transform="translate(-84.6 -83.03)"/><circle class="cls-7" cx="1354.28" cy="480.09" r="15.48"/><circle class="cls-6" cx="515.7" cy="164.95" r="6.34"/><circle class="cls-6" cx="605.56" cy="164.95" r="6.34"/><circle class="cls-19" cx="454.82" cy="279.46" r="10.08" transform="translate(-62.02 509.69) rotate(-67.5)"/></g><g id="lines_copy" data-name="lines copy"><path class="cls-23" d="M550.18,394.49a34.5,34.5,0,0,0,0,25.91" transform="translate(-84.6 -83.03)"/><path class="cls-23" d="M724.84,432.63C732.15,410,703,401.5,708,384.2c14.09-40.84,9-68.86-4-81.62" transform="translate(-84.6 -83.03)"/><path class="cls-23" d="M704,302.58c-8-7.84-19-9.92-30.24-5.64-29.67,11.23-25.64-23.91-63.94-9.51-29.67,11.16-17,35.11-25.06,59" transform="translate(-84.6 -83.03)"/><path class="cls-23" d="M584.6,475.47c2.25-9.09.6-20.2-13.1-30.21-10.52-7.69-17.76-16-21.32-24.86" transform="translate(-84.6 -83.03)"/><path class="cls-23" d="M584.74,346.42a47.12,47.12,0,0,1-13.82,20.5c-10.57,9.46-17.36,18.68-20.74,27.57" transform="translate(-84.6 -83.03)"/><path class="cls-23" d="M675.79,423c16.57-18,8.88-74.39,4.57-87.8-8.64,15-35.71,6.34-47.81,3.46-8.32-2-13.1,17.3-15.27,29.53" transform="translate(-84.6 -83.03)"/><path class="cls-23" d="M631.72,415a79.56,79.56,0,0,1-14.75-19" transform="translate(-84.6 -83.03)"/><path class="cls-23" d="M675.79,423a16.5,16.5,0,0,1-13.29,5.51c-12.88-.45-23.1-6.43-30.78-13.58" transform="translate(-84.6 -83.03)"/><path class="cls-23" d="M617,395.93c-5.69.16-11.25-2.61-12.55-13.31-1.66-13.59,6-15.35,12.86-14.39" transform="translate(-84.6 -83.03)"/><path class="cls-23" d="M618.72,395.8a17,17,0,0,1-1.75.13" transform="translate(-84.6 -83.03)"/><path class="cls-23" d="M619.07,368.53c-.58-.12-1.18-.22-1.79-.3" transform="translate(-84.6 -83.03)"/><path class="cls-23" d="M631.72,415c-.15,12.28-2.15,35.37-14.4,46.21" transform="translate(-84.6 -83.03)"/><path class="cls-23" d="M675.79,423c1.09,6.9,4.93,16,16.71,21.39" transform="translate(-84.6 -83.03)"/><path class="cls-23" d="M692.5,444.43l.18.09" transform="translate(-84.6 -83.03)"/><polyline class="cls-23" points="363.68 308.08 367.09 306.36 330.23 244.72 215.16 304.31"/><line class="cls-23" x1="363.68" y1="308.08" x2="332.79" y2="323.75"/><polyline class="cls-23" points="263.43 358.93 246.71 367.41 217.04 308.08"/><line class="cls-23" x1="215.16" y1="304.31" x2="217.04" y2="308.08"/><line class="cls-23" x1="316.4" y1="332.06" x2="263.43" y2="358.93"/><line class="cls-23" x1="316.4" y1="332.06" x2="318.16" y2="331.17"/><path class="cls-23" d="M524.9,592c-59.52,20.65-60.33-3.07-122.17-134.09-28,6.27-46.61-7.79-54.71-16" transform="translate(-84.6 -83.03)"/><path class="cls-23" d="M524.9,592c4-1.37,8.16-2.93,12.67-4.68" transform="translate(-84.6 -83.03)"/><path class="cls-23" d="M598.44,638.22c-.65-36.65-12.69-66.44-48.26-55.6" transform="translate(-84.6 -83.03)"/><path class="cls-23" d="M537.57,587.34c2.22-.86,4.49-1.75,6.85-2.69,2-.79,3.91-1.46,5.76-2" transform="translate(-84.6 -83.03)"/><path class="cls-23" d="M813.71,461.12c-6.69-13-20.28-40.05-22.9-50.31" transform="translate(-84.6 -83.03)"/><path class="cls-23" d="M748.36,638.22c-.24,1.62-.45,3.17-.61,4.6a16.51,16.51,0,0,0,.13,3.77" transform="translate(-84.6 -83.03)"/><path class="cls-23" d="M790.81,410.81a13.23,13.23,0,0,1-.43-2.42L778.2,412.9" transform="translate(-84.6 -83.03)"/><path class="cls-23" d="M813.71,461.12c2.26,4.39,3.74,7.18,3.74,7.18s-4.55,3.07-11.32,7.52" transform="translate(-84.6 -83.03)"/><path class="cls-23" d="M752.29,661.93c-2.36-6.37-3.9-11.53-4.41-15.34" transform="translate(-84.6 -83.03)"/><path class="cls-23" d="M724.84,432.63,698,442.56" transform="translate(-84.6 -83.03)"/><path class="cls-23" d="M692.07,444.58l.43-.15" transform="translate(-84.6 -83.03)"/><path class="cls-23" d="M698,442.56c-1.8.67-3.92,1.32-5.48,1.87" transform="translate(-84.6 -83.03)"/><path class="cls-23" d="M597.05,665.86c.22-2,.42-4.07.6-6.1" transform="translate(-84.6 -83.03)"/><path class="cls-23" d="M598.44,638.22a212.48,212.48,0,0,1-.79,21.54" transform="translate(-84.6 -83.03)"/><path class="cls-23" d="M724.84,432.63l51.71-19.13" transform="translate(-84.6 -83.03)"/><path class="cls-23" d="M748.36,638.22c3.42-22.55,14.94-62.07,14.94-76,0-15-25.92-47.8-9.79-54.72,11.15-4.78,37.45-21.67,52.62-31.64" transform="translate(-84.6 -83.03)"/><path class="cls-23" d="M776.55,413.5l1.65-.6" transform="translate(-84.6 -83.03)"/><path class="cls-23" d="M595.93,674.62c-3.88,26.84-11.58,51.65-18.67,62.09-19,45.51-7.49,135.36-7.49,135.36s1.15,51.84-12.1,61.06c14.93,0,32.11,13.55,47,21.68" transform="translate(-84.6 -83.03)"/><path class="cls-23" d="M662.78,952.83c-16.86,5.72-31.2,7.95-40.6,7.95-5.17,0-11.13-2.5-17.51-6" transform="translate(-84.6 -83.03)"/><path class="cls-23" d="M662.78,952.83a211.46,211.46,0,0,0,46.38-22.58c28.22-12.67,23,12.09,49,11.52a28.36,28.36,0,0,0,10.5-2.37" transform="translate(-84.6 -83.03)"/><path class="cls-23" d="M818.23,899l-.78.1c-12.38,1.49-28.17,31.51-48.83,40.26" transform="translate(-84.6 -83.03)"/><path class="cls-23" d="M753.8,665.86c16.51,42,63.05,128.73,96.48,230.4-6.22-5.09-18,.93-32,2.78" transform="translate(-84.6 -83.03)"/><path class="cls-23" d="M752.29,661.93c.47,1.26,1,2.57,1.51,3.93" transform="translate(-84.6 -83.03)"/><path class="cls-23" d="M597.05,665.86c-.33,2.93-.7,5.86-1.12,8.76" transform="translate(-84.6 -83.03)"/><path class="cls-23" d="M499,533.71C501.65,546,509.18,574,524.9,592" transform="translate(-84.6 -83.03)"/><path class="cls-23" d="M509.07,527.31c3.16,9.83,13.27,38.8,28.5,60" transform="translate(-84.6 -83.03)"/><path class="cls-23" d="M509.07,527.31c11.36-7.4,26.64-17.83,41.11-27.83" transform="translate(-84.6 -83.03)"/><path class="cls-23" d="M617.32,461.18a6.52,6.52,0,0,1,0-1.81c-11.52,1.15-23.33,9.5-23.33,9.5s-3.57,2.53-9.36,6.6" transform="translate(-84.6 -83.03)"/><path class="cls-23" d="M401,415.09c-7.75-4.93-19.13-12.41-20.45-14.47-2-3.17-2.3-9.51.29-9.8,1.79-.19,23.37,9.78,36.55,16" transform="translate(-84.6 -83.03)"/><path class="cls-23" d="M417.39,406.78c5.89,2.77,10.11,4.78,10.11,4.78s14.4,7.78,17.85,39.46,37.73,61.05,48.67,85.53c1.26-.65,2.94-1.61,5-2.84" transform="translate(-84.6 -83.03)"/><path class="cls-23" d="M617.32,461.18c1.38,9.63,20.19,31.1,46,28.14,26.16-3,33-19.16,34.61-46.76" transform="translate(-84.6 -83.03)"/><path class="cls-23" d="M584.6,475.47c-8.24,5.79-21,14.72-34.42,24" transform="translate(-84.6 -83.03)"/><path class="cls-23" d="M509.07,527.31c-3.89,2.54-7.32,4.72-10.1,6.4" transform="translate(-84.6 -83.03)"/><path class="cls-23" d="M747.88,646.59c-47.61,38.32-132.09,18.12-150.23,13.17" transform="translate(-84.6 -83.03)"/><path class="cls-23" d="M595.93,674.62c19.36,5.71,97.46,25.15,156.36-12.69" transform="translate(-84.6 -83.03)"/><line class="cls-23" x1="684.02" y1="856.37" x2="700.03" y2="888.69"/><line class="cls-23" x1="733.63" y1="816.01" x2="755.11" y2="888.69"/><line class="cls-23" x1="520.08" y1="871.78" x2="521.93" y2="888.69"/><line class="cls-23" x1="578.18" y1="869.8" x2="579.43" y2="888.69"/><path class="cls-23" d="M778.2,412.9c-.14-.4-.28-.79-.4-1.15" transform="translate(-84.6 -83.03)"/><path class="cls-23" d="M806.13,475.82C795.05,461,782.86,426.37,778.2,412.9" transform="translate(-84.6 -83.03)"/><path class="cls-23" d="M886.62,291.35C874.15,298,871.4,312,871.4,312s-19.74,92-28.31,124.89" transform="translate(-84.6 -83.03)"/><path class="cls-23" d="M813.71,461.12c8.21-3.44,23.32-10,25.82-12.79.57-.64,1.84-4.86,3.56-11.43" transform="translate(-84.6 -83.03)"/><path class="cls-23" d="M886.62,291.35c.77-.41,1.59-.79,2.44-1.14" transform="translate(-84.6 -83.03)"/><path class="cls-23" d="M894.35,245c-8.29-5.6-24.8,4-35,12.08" transform="translate(-84.6 -83.03)"/><path class="cls-23" d="M859.32,257c-4.63,3.66-8,7-8.66,8.5-2.3,5-9.21,45.7-10.36,57.22s-39.94,83.71-39.94,83.71l-9.55,4.34" transform="translate(-84.6 -83.03)"/><path class="cls-23" d="M889.06,290.21c-1.12-5.6-2.46-12.65-2.68-15.07-.26-2.82,11.87-9.27,19.92-13.22" transform="translate(-84.6 -83.03)"/><path class="cls-23" d="M906.3,261.92l2.11-1" transform="translate(-84.6 -83.03)"/><path class="cls-23" d="M859.32,257c-1.25-5-3.21-13.74-2.13-16.84s4.06-11.69,9.19-16.53" transform="translate(-84.6 -83.03)"/><path class="cls-23" d="M897.73,244.35c-3.06-11.33-6.9-17.42-11.2-20.64" transform="translate(-84.6 -83.03)"/><path class="cls-23" d="M866.38,223.67a11.2,11.2,0,0,1,7.71-3.44c4.37,0,8.59.6,12.44,3.48" transform="translate(-84.6 -83.03)"/><path class="cls-23" d="M924.9,248.94l1.16.25" transform="translate(-84.6 -83.03)"/><path class="cls-23" d="M926.06,249.19l1.13.23" transform="translate(-84.6 -83.03)"/><path class="cls-23" d="M897.73,244.35c7.41-.45,19.57,2.88,27.17,4.59" transform="translate(-84.6 -83.03)"/><path class="cls-23" d="M894.35,245a12.84,12.84,0,0,1,3.38-.61" transform="translate(-84.6 -83.03)"/><path class="cls-23" d="M894.35,245c-2.06.73-3.22,2.11-3,4.46,3,7.81,9.45,11.12,14.93,12.5" transform="translate(-84.6 -83.03)"/><path class="cls-23" d="M926.06,249.19l0-.06" transform="translate(-84.6 -83.03)"/><path class="cls-23" d="M926.06,249.19c3.82,6.74,12,19.61,12.54,22.11.67,3-2.16,31.07-1.88,42.32" transform="translate(-84.6 -83.03)"/><path class="cls-23" d="M886.62,291.35c4.5,3.23,11,10.26,12.69,26.3" transform="translate(-84.6 -83.03)"/><path class="cls-23" d="M899.31,317.65c11.63.39,27.31,0,37.41-4" transform="translate(-84.6 -83.03)"/><path class="cls-23" d="M936.72,313.62c.47-.19.93-.38,1.38-.59" transform="translate(-84.6 -83.03)"/><path class="cls-23" d="M899.31,317.65c-4.24-.14-7.94-.38-10.63-.6" transform="translate(-84.6 -83.03)"/><path class="cls-23" d="M889.05,337.43c-.1-2.53-.17-5.37-.23-8.15" transform="translate(-84.6 -83.03)"/><path class="cls-23" d="M888.76,325.5c0-3.48-.07-6.56-.08-8.45" transform="translate(-84.6 -83.03)"/><path class="cls-23" d="M888.82,329.28c0-1.28,0-2.56-.06-3.78" transform="translate(-84.6 -83.03)"/><path class="cls-23" d="M889.06,337.74c0-.1,0-.21,0-.31" transform="translate(-84.6 -83.03)"/><line class="cls-23" x1="854.82" y1="244.7" x2="854.42" y2="240.31"/><line class="cls-23" x1="855.42" y1="251.41" x2="854.82" y2="244.7"/><line class="cls-23" x1="854.42" y1="240.31" x2="853.5" y2="230.01"/><path class="cls-23" d="M888.76,325.5A135.74,135.74,0,0,0,939,323.33" transform="translate(-84.6 -83.03)"/><path class="cls-23" d="M888.82,329.28c6.83,1.17,23.48,2.84,50.6-1.55" transform="translate(-84.6 -83.03)"/><path class="cls-23" d="M889.05,337.43c9.6-1.06,25.33-2,51-3" transform="translate(-84.6 -83.03)"/><path class="cls-23" d="M940,334.44l2.18-.09" transform="translate(-84.6 -83.03)"/><path class="cls-23" d="M889.05,337.43a59.74,59.74,0,0,0-10.76,1.91" transform="translate(-84.6 -83.03)"/><path class="cls-23" d="M883.47,436.9c4.87,40.72,14.3,78.94,32.47,82.08,14.09,2.44,27.56.34,40.32-3.36" transform="translate(-84.6 -83.03)"/><path class="cls-23" d="M997.45,501.05c-6,1.88-12.25,4.28-18.72,6.75" transform="translate(-84.6 -83.03)"/><path class="cls-23" d="M878.29,339.34c0,12.5.24,56.3,5.18,97.56" transform="translate(-84.6 -83.03)"/><path class="cls-23" d="M997.45,501.05c2.18-.68,4.33-1.29,6.45-1.8" transform="translate(-84.6 -83.03)"/><path class="cls-23" d="M956.26,515.62c7.76-2.24,15.25-5.06,22.47-7.82" transform="translate(-84.6 -83.03)"/><path class="cls-23" d="M1003.9,499.25c4.12-48.47-.09-75.88-3.67-89.33" transform="translate(-84.6 -83.03)"/><path class="cls-23" d="M1046.31,387.38c2.41-.39,4.91-.69,7.49-.88a48.53,48.53,0,0,0,8.43-1.35" transform="translate(-84.6 -83.03)"/><path class="cls-23" d="M942.2,334.35c1.42,8.71,5.51,35.66,9.84,82.11.66,3.91,2.15,6.55,4.22,8.2" transform="translate(-84.6 -83.03)"/><path class="cls-23" d="M978.73,422.76a137.87,137.87,0,0,0,21.5-12.84" transform="translate(-84.6 -83.03)"/><path class="cls-23" d="M1000.23,409.92c5.2-3.69,8.64-6.52,8.64-6.52a83.34,83.34,0,0,1,37.44-16" transform="translate(-84.6 -83.03)"/><path class="cls-23" d="M1075.7,379.7c.35-.19.69-.38,1-.58" transform="translate(-84.6 -83.03)"/><path class="cls-23" d="M956.26,424.66c5.07,4,13.67,2.11,22.47-1.9" transform="translate(-84.6 -83.03)"/><path class="cls-23" d="M1065.67,384.14c-1.11.37-2.26.71-3.44,1" transform="translate(-84.6 -83.03)"/><path class="cls-23" d="M1075.7,379.7a57.86,57.86,0,0,1-10,4.44" transform="translate(-84.6 -83.03)"/><path class="cls-23" d="M1075.16,696.42c-.67,2.74-1.38,5.43-2.16,8-2.12.06-4.24,0-6.34,0" transform="translate(-84.6 -83.03)"/><path class="cls-23" d="M1087.78,447.94c.17-1.17.34-2.31.52-3.41" transform="translate(-84.6 -83.03)"/><path class="cls-23" d="M1007.89,687.85c10.36,5.25,33.87,15.67,58.77,16.58" transform="translate(-84.6 -83.03)"/><path class="cls-23" d="M997.45,501.05c15.39,59.48.26,129.27-.48,151.57-.77,23,5.37,32.25,5.37,32.25s2,1.2,5.55,3" transform="translate(-84.6 -83.03)"/><path class="cls-23" d="M1088.3,444.53c.13-.88.27-1.73.41-2.55" transform="translate(-84.6 -83.03)"/><path class="cls-23" d="M1077.42,394.31c-.72-5-1.22-9.42-1.55-12.81" transform="translate(-84.6 -83.03)"/><path class="cls-23" d="M1087.78,447.94c-5,34.15-9,97.92-9,97.92s8.93,71.23.37,129.83" transform="translate(-84.6 -83.03)"/><path class="cls-23" d="M1088.71,442c.27-1.57.53-3,.8-4.4-4.77-8.93-8-20.8-10.15-31.84" transform="translate(-84.6 -83.03)"/><path class="cls-23" d="M1075.7,379.7c0,.56.11,1.16.17,1.8" transform="translate(-84.6 -83.03)"/><path class="cls-23" d="M1075.16,696.42c1.62-6.62,2.92-13.58,4-20.73" transform="translate(-84.6 -83.03)"/><path class="cls-23" d="M1077.42,394.31c.52,3.58,1.16,7.45,1.94,11.43" transform="translate(-84.6 -83.03)"/><path class="cls-23" d="M1095.52,678a135.5,135.5,0,0,1-16.39-2.31" transform="translate(-84.6 -83.03)"/><path class="cls-23" d="M1133.42,676.08l2-.39" transform="translate(-84.6 -83.03)"/><path class="cls-23" d="M1095.52,678l2.28.16" transform="translate(-84.6 -83.03)"/><path class="cls-23" d="M1097.8,678.16a142,142,0,0,0,35.62-2.08" transform="translate(-84.6 -83.03)"/><path class="cls-23" d="M1145.46,673.21c-3.4,1-6.76,1.8-10.06,2.48" transform="translate(-84.6 -83.03)"/><path class="cls-23" d="M1146.57,695.89c-3.21.71-6.36,1.31-9.44,1.82" transform="translate(-84.6 -83.03)"/><path class="cls-23" d="M1095.25,699.48l2.33.17" transform="translate(-84.6 -83.03)"/><path class="cls-23" d="M1075.16,696.42a139.26,139.26,0,0,0,20.09,3.06" transform="translate(-84.6 -83.03)"/><path class="cls-23" d="M1097.58,699.65c2.45.17,5.05.28,7.77.34" transform="translate(-84.6 -83.03)"/><path class="cls-23" d="M1135.11,698l2-.32" transform="translate(-84.6 -83.03)"/><path class="cls-23" d="M1128.74,698.89a172.69,172.69,0,0,1-23.39,1.1" transform="translate(-84.6 -83.03)"/><path class="cls-23" d="M1128.74,698.89c2.08-.24,4.21-.53,6.37-.86" transform="translate(-84.6 -83.03)"/><path class="cls-23" d="M1097.8,678.16a79.11,79.11,0,0,1-.22,21.49" transform="translate(-84.6 -83.03)"/><path class="cls-23" d="M1133.42,676.08a216.39,216.39,0,0,0,1.69,21.95" transform="translate(-84.6 -83.03)"/><path class="cls-23" d="M1015.57,726.92c9,4.28,24.62,9.24,48.21,9,.49-3.4.9-6.79,1.25-10" transform="translate(-84.6 -83.03)"/><path class="cls-23" d="M1006.72,706.4,1005.8,721a43.55,43.55,0,0,0,9.77,5.95" transform="translate(-84.6 -83.03)"/><path class="cls-23" d="M1065,725.9c.21-2,.4-3.9.56-5.75" transform="translate(-84.6 -83.03)"/><line class="cls-23" x1="923.29" y1="604.83" x2="922.52" y2="617.06"/><line class="cls-23" x1="922.12" y1="623.37" x2="922.52" y2="617.06"/><path class="cls-23" d="M1065.59,720.15c.57-6.37.89-11.92,1.07-15.72" transform="translate(-84.6 -83.03)"/><path class="cls-23" d="M1006.72,706.4c7.77,5.09,25.92,14.61,58.31,19.5" transform="translate(-84.6 -83.03)"/><path class="cls-23" d="M1065.59,720.15c-31.89-4.56-50.8-15-58.47-20.06" transform="translate(-84.6 -83.03)"/><path class="cls-23" d="M1046.31,387.38c-1.84,10.84-1,37.1,41.47,60.56" transform="translate(-84.6 -83.03)"/><path class="cls-23" d="M1062.23,385.15c1.91,13.3,8.14,44.19,26.07,59.38" transform="translate(-84.6 -83.03)"/><path class="cls-23" d="M1065.67,384.14c1.8,12,7.51,40,23,57.84" transform="translate(-84.6 -83.03)"/><path class="cls-23" d="M1151.52,703.72c13.53,2.88,48.41,7,67.54-5.71" transform="translate(-84.6 -83.03)"/><path class="cls-23" d="M1145.46,673.21c.28,9,.64,17.11,1.11,22.68" transform="translate(-84.6 -83.03)"/><path class="cls-23" d="M1219.06,698c.24-.15.49-.3.72-.47,3.46-8.92,7.2-17.85,7.49-34-2-14.17-17.53-75.82-8.57-117" transform="translate(-84.6 -83.03)"/><path class="cls-23" d="M1130.5,441.85c48-19.31,49.94-49.2,48.27-61.94" transform="translate(-84.6 -83.03)"/><path class="cls-23" d="M1130.5,441.85l-.57.24c8.64,29.37,6,69.12,6,80.35s8.64,76,8.64,94.18c0,10.72.2,36,.84,56.59" transform="translate(-84.6 -83.03)"/><path class="cls-23" d="M1151.52,703.72c-1.69-.36-3.07-.71-4-1a43,43,0,0,1-.93-6.84" transform="translate(-84.6 -83.03)"/><path class="cls-23" d="M1278.05,686.74c-.66-.09-1.3-.2-1.91-.33-16.52-3.46-8.07-77.19-11.91-93.31-2.44-10.26-27.57-32-45.53-46.5" transform="translate(-84.6 -83.03)"/><path class="cls-23" d="M1326.37,680.66c-.23.09-.46.16-.7.23-12.47,3.51-33.9,7.93-47.62,5.85" transform="translate(-84.6 -83.03)"/><path class="cls-23" d="M1326.37,680.66a10.1,10.1,0,0,0,6.67-8.9c1.17-20.09,3.55-78.17-6.22-100.55-13-27.63-43.84-98.51-77.34-138.92" transform="translate(-84.6 -83.03)"/><path class="cls-23" d="M1215.18,543.79l3.52,2.81" transform="translate(-84.6 -83.03)"/><path class="cls-23" d="M1215.18,543.79l-.58-.46" transform="translate(-84.6 -83.03)"/><path class="cls-23" d="M1178.77,379.91c-3.4-1.72-6.63-3.29-9.66-4.71" transform="translate(-84.6 -83.03)"/><path class="cls-23" d="M1178.77,379.91c16.63,8.45,37,20.51,55.13,36.16a137.31,137.31,0,0,1,15.58,16.22" transform="translate(-84.6 -83.03)"/><path class="cls-23" d="M1157,369.8l.21.08" transform="translate(-84.6 -83.03)"/><path class="cls-23" d="M1165.45,373.51l3.66,1.69" transform="translate(-84.6 -83.03)"/><path class="cls-23" d="M1165.45,373.51c-3-1.38-5.83-2.59-8.29-3.63" transform="translate(-84.6 -83.03)"/><path class="cls-23" d="M1219.4,710.5c.06,1.68.12,3.38.18,5" transform="translate(-84.6 -83.03)"/><path class="cls-23" d="M1152.39,718.33c-.12-1.5-.22-3-.31-4.55" transform="translate(-84.6 -83.03)"/><path class="cls-23" d="M1152.39,718.33c.45,6.21,1,11.84,1.68,13,1.47,2.58,47.77,4.12,63.51-3.92" transform="translate(-84.6 -83.03)"/><path class="cls-23" d="M1152.08,713.78c-.24-3.78-.43-7.42-.56-10.06" transform="translate(-84.6 -83.03)"/><path class="cls-23" d="M1219.4,710.5c-.14-4.51-.26-8.93-.34-12.49" transform="translate(-84.6 -83.03)"/><path class="cls-23" d="M1217.58,727.38a16.63,16.63,0,0,0,2.49-1.55c-.18-3-.35-6.56-.49-10.28" transform="translate(-84.6 -83.03)"/><path class="cls-23" d="M1152.08,713.78c8.32,1.66,38.34,6.49,67.32-3.28" transform="translate(-84.6 -83.03)"/><path class="cls-23" d="M1152.39,718.33a140.5,140.5,0,0,0,67.19-2.78" transform="translate(-84.6 -83.03)"/><path class="cls-23" d="M1015.57,726.92c-.08,20-.23,91.8,1.75,110.59,2.14,20.31,3.28,119.91,3.44,134.21" transform="translate(-84.6 -83.03)"/><path class="cls-23" d="M1261.14,971.72c-8-55.9-37.82-214.07-43.56-244.34" transform="translate(-84.6 -83.03)"/><path class="cls-23" d="M1163.79,971.72c-4.8-24.36-25.74-129.7-31.85-142.42-6.91-14.4-9.21-4.61-9.21-4.61l2.28,147" transform="translate(-84.6 -83.03)"/><path class="cls-23" d="M1126.33,782.4a13.48,13.48,0,0,1-9.79,3.93" transform="translate(-84.6 -83.03)"/><path class="cls-23" d="M1126.33,782.4c14.78-14.53,6.1-65.34,2.41-83.51" transform="translate(-84.6 -83.03)"/><path class="cls-23" d="M1116.54,786.33c-.61,0-1.23,0-1.88-.08-1.79-45.66-7.05-75.31-9.31-86.26" transform="translate(-84.6 -83.03)"/><path class="cls-24" d="M1068.78,466.86a3.17,3.17,0,1,0-3.17,3.16A3.17,3.17,0,0,0,1068.78,466.86Z" transform="translate(-84.6 -83.03)"/><circle class="cls-23" cx="1077.3" cy="579.09" r="6.34"/><path class="cls-23" d="M1153.26,599.91a6.34,6.34,0,1,0,6.33-6.33A6.33,6.33,0,0,0,1153.26,599.91Z" transform="translate(-84.6 -83.03)"/><path class="cls-23" d="M1153.83,541.74a6.34,6.34,0,1,0-6.33-6.34A6.34,6.34,0,0,0,1153.83,541.74Z" transform="translate(-84.6 -83.03)"/><path class="cls-23" d="M1149.8,470.89a6.34,6.34,0,1,0-6.34-6.34A6.34,6.34,0,0,0,1149.8,470.89Z" transform="translate(-84.6 -83.03)"/><path class="cls-24" d="M1067.34,664.81a3.17,3.17,0,1,0-3.17,3.17A3.17,3.17,0,0,0,1067.34,664.81Z" transform="translate(-84.6 -83.03)"/><path class="cls-24" d="M1059.66,602.41a3.17,3.17,0,1,0,3.16-3.17A3.16,3.16,0,0,0,1059.66,602.41Z" transform="translate(-84.6 -83.03)"/><path class="cls-24" d="M1056,538.28a3.17,3.17,0,1,0,3.17-3.17A3.17,3.17,0,0,0,1056,538.28Z" transform="translate(-84.6 -83.03)"/><path class="cls-23" d="M1326.27,689.29c0,1.16-.07,2.32-.12,3.43" transform="translate(-84.6 -83.03)"/><path class="cls-23" d="M1283.24,703.8c8.12.9,28.5,2.45,39.34-1.92" transform="translate(-84.6 -83.03)"/><path class="cls-23" d="M1283.24,703.8c-.7-.07-1.32-.15-1.82-.21l-1.54-7.69" transform="translate(-84.6 -83.03)"/><line class="cls-23" x1="1194.67" y1="609.82" x2="1195.28" y2="612.87"/><path class="cls-23" d="M1326.37,680.66c0,2.58,0,5.64-.1,8.63" transform="translate(-84.6 -83.03)"/><path class="cls-23" d="M1322.58,701.88a17.85,17.85,0,0,0,2.9-1.46,57.94,57.94,0,0,0,.67-7.7" transform="translate(-84.6 -83.03)"/><line class="cls-23" x1="1193.45" y1="603.72" x2="1194.67" y2="609.82"/><path class="cls-23" d="M1283.24,703.8c-1.64,11.46-5.92,51,12.29,53.94,21.31,3.45,41.18-4.61,42.91-12.39s5.76-21,.86-25.63c-2.57-2.42-5.46,1.12-7.7,6.11" transform="translate(-84.6 -83.03)"/><path class="cls-23" d="M1332.59,728.49c-.35-.94-.68-1.81-1-2.66" transform="translate(-84.6 -83.03)"/><path class="cls-23" d="M1322.58,701.88a24.63,24.63,0,0,0,.88,5.17c.75,2,1.29.55,8.14,18.78" transform="translate(-84.6 -83.03)"/><path class="cls-23" d="M1157.24,371.54c0-.58,0-1.13-.08-1.66" transform="translate(-84.6 -83.03)"/><path class="cls-23" d="M1152.92,401.32a67.44,67.44,0,0,1-24.82,33c.32,1.14.74,2.51,1.17,3.83" transform="translate(-84.6 -83.03)"/><path class="cls-23" d="M1130.5,441.85c-.17-.48-.36-1.05-.57-1.68" transform="translate(-84.6 -83.03)"/><path class="cls-23" d="M1156.52,386.39a82.63,82.63,0,0,0,.72-14.85" transform="translate(-84.6 -83.03)"/><path class="cls-23" d="M1156.52,386.39a76.35,76.35,0,0,1-3.6,14.93" transform="translate(-84.6 -83.03)"/><path class="cls-23" d="M1129.93,440.17l-.66-2" transform="translate(-84.6 -83.03)"/><path class="cls-23" d="M1129.27,438.14c35.62-16.89,36.76-53.2,36.18-64.63" transform="translate(-84.6 -83.03)"/><path class="cls-23" d="M1129.93,440.17c37.23-16.76,39.52-52.85,39.18-65" transform="translate(-84.6 -83.03)"/><path class="cls-23" d="M1156.52,386.39c-32.92,26-68.58,12.79-79.1,7.92" transform="translate(-84.6 -83.03)"/><path class="cls-23" d="M1152.92,401.32c-32.34,23.62-64,9.66-73.56,4.42" transform="translate(-84.6 -83.03)"/><path class="cls-23" d="M1085.49,353.08c.63,16.63-6.33,25.28-9.62,28.42" transform="translate(-84.6 -83.03)"/><path class="cls-23" d="M1066.72,310c3.87,26.43,12.75,37.93,18.77,43.07" transform="translate(-84.6 -83.03)"/><path class="cls-23" d="M1066.72,310c-.72-4.94-1.27-10.4-1.59-16.43-.27-5.11-.36-9.66-.29-13.73" transform="translate(-84.6 -83.03)"/><path class="cls-23" d="M1064.84,279.85c.21-13.27,2-21.32,4.1-26.19" transform="translate(-84.6 -83.03)"/><path class="cls-23" d="M1085.49,353.08a30.76,30.76,0,0,0,4,2.9c5.47,3.27,37.36,10.18,55.21-36.15" transform="translate(-84.6 -83.03)"/><path class="cls-23" d="M1063,280c-1.86-9.5-7-37.59-3.77-45.21,3.84-9.21,22.65-29.18,56.44-29.95s57.6,31.11,57.6,31.11,6.38,12.21-3.06,48.47" transform="translate(-84.6 -83.03)"/><path class="cls-23" d="M1068.94,253.66a37.13,37.13,0,0,1,19.42-.79c12.67,3.07,28.42,6.53,42.62,2.31s.39,15.36.39,15.36,9.21,5.76,8.06,23l6.15-1.54s-1.54-18.43,2.3-21.5c2.77-2.22,17.52-8,20.49,12.27" transform="translate(-84.6 -83.03)"/><path class="cls-23" d="M1144.72,319.83a15,15,0,0,1-1.46-1.68" transform="translate(-84.6 -83.03)"/><path class="cls-23" d="M1155.06,323.56a12.74,12.74,0,0,1-10.34-3.73" transform="translate(-84.6 -83.03)"/><path class="cls-23" d="M1148.91,289.8c-.27-4.43,1.95-8.37,9.72-9.66,4.21-.07,7.4.94,9.74,2.67" transform="translate(-84.6 -83.03)"/><path class="cls-23" d="M1155.06,323.56a18.64,18.64,0,0,0,2.8-.42c11-2.43,21.44-28.27,12.3-38.69" transform="translate(-84.6 -83.03)"/><path class="cls-23" d="M1168.37,282.81a11.66,11.66,0,0,1,1.79,1.64" transform="translate(-84.6 -83.03)"/><path class="cls-23" d="M1155.06,323.56c-1.48,9.62-4.5,35.26,2.18,48" transform="translate(-84.6 -83.03)"/><path class="cls-23" d="M1063,280h0a5.47,5.47,0,0,0-4,5.09c-.41,8.95,4.36,21.85,7.83,24.88" transform="translate(-84.6 -83.03)"/><path class="cls-23" d="M1063,280a6.1,6.1,0,0,1,1.89-.18" transform="translate(-84.6 -83.03)"/><path class="cls-23" d="M1326.27,689.29c-14.89,5.74-38.74,4.28-47,3.55" transform="translate(-84.6 -83.03)"/><path class="cls-25" d="M1326.15,692.72c-17.91,5.22-39,3.87-46.27,3.18" transform="translate(-84.6 -83.03)"/><path class="cls-23" d="M1215.18,543.79v.06" transform="translate(-84.6 -83.03)"/><path class="cls-23" d="M1215.18,543.79c.74-60.39,21.43-95.84,34.3-111.5" transform="translate(-84.6 -83.03)"/><path class="cls-23" d="M1126.33,782.4c-.14,11.18,1.72,26.6,1.72,26.6s-4.18.72-9.94,1.3c-1.24-8-1.51-19.45-1.57-24" transform="translate(-84.6 -83.03)"/><line class="cls-23" x1="512.45" y1="582.84" x2="196.02" y2="582.84"/><polyline class="cls-23" points="669.2 582.84 894.13 582.84 894.13 424.77"/><polyline class="cls-23" points="894.13 339.73 894.13 57.52 196.02 57.52"/><line class="cls-23" x1="513.84" y1="555.19" x2="465.59" y2="555.19"/><line class="cls-23" x1="465.59" y1="555.19" x2="196.02" y2="555.19"/><polyline class="cls-23" points="663.77 555.19 871.67 555.19 871.67 432.6"/><line class="cls-23" x1="465.59" y1="74.8" x2="196.02" y2="74.8"/><polyline class="cls-23" points="871.67 341.63 871.67 74.8 465.59 74.8"/><line class="cls-23" x1="196.02" y1="308.08" x2="217.04" y2="308.08"/><polyline class="cls-23" points="363.68 308.08 417.2 308.08 417.2 162.93 196.02 162.93"/><polyline class="cls-23" points="619.38 219.55 619.38 147.38 500.15 147.38 500.15 263.39"/><polyline class="cls-23" points="691.96 330.48 691.96 140.47 781.78 140.64"/><polyline class="cls-23" points="840.3 165.91 840.42 140.76 801.93 140.68"/><line class="cls-23" x1="798.87" y1="353.88" x2="800.44" y2="353.88"/><line class="cls-23" x1="798.87" y1="353.88" x2="758.49" y2="353.88"/><line class="cls-23" x1="465.59" y1="499.59" x2="465.59" y2="555.19"/><line class="cls-23" x1="465.59" y1="337.37" x2="465.59" y2="416.45"/><line class="cls-23" x1="465.59" y1="74.8" x2="465.59" y2="311.46"/><polyline class="cls-26" points="775.56 472.72 786.71 497.88 838.55 465.33 788.15 481.75 775.56 472.72"/><line class="cls-23" x1="774.32" y1="469.94" x2="775.56" y2="472.72"/><line class="cls-23" x1="775.56" y1="472.72" x2="772.88" y2="470.8"/><circle class="cls-23" cx="1354.28" cy="480.09" r="15.48"/><line class="cls-23" x1="1272.11" y1="0.5" x2="1272.11" y2="888.69"/><line class="cls-23" x1="1298.76" y1="0.5" x2="1298.76" y2="888.69"/><circle class="cls-27" cx="515.7" cy="164.95" r="6.34"/><circle class="cls-27" cx="605.56" cy="164.95" r="6.34"/><circle class="cls-23" cx="370.22" cy="196.44" r="10.08"/><line class="cls-23" x1="346.33" y1="237.81" x2="391.99" y2="237.81"/><path class="cls-23" d="M430.92,320.84c-.05-4.58.85-25,21.54-27.11,17.83-1.81,22.8,18.32,24.12,27.11" transform="translate(-84.6 -83.03)"/><path class="cls-23" d="M1095.52,678a79,79,0,0,1-.27,21.48" transform="translate(-84.6 -83.03)"/><path class="cls-23" d="M1135.4,675.69a212.57,212.57,0,0,0,1.73,22" transform="translate(-84.6 -83.03)"/><line class="cls-23" x1="196.02" y1="57.52" x2="196.02" y2="74.8"/><line class="cls-23" x1="196.02" y1="582.84" x2="196.02" y2="555.19"/><line class="cls-23" x1="196.02" y1="308.08" x2="196.02" y2="555.19"/><line class="cls-23" x1="196.02" y1="162.93" x2="196.02" y2="308.08"/><line class="cls-23" x1="196.02" y1="74.8" x2="196.02" y2="162.93"/><line class="cls-23" x1="579.43" y1="888.69" x2="521.93" y2="888.69"/><line class="cls-23" x1="755.11" y1="888.69" x2="700.03" y2="888.69"/><line class="cls-23" x1="936.16" y1="888.69" x2="1040.41" y2="888.69"/><line class="cls-23" x1="1079.19" y1="888.69" x2="1176.54" y2="888.69"/><polyline class="cls-23" points="328.42 482.62 314.02 500.5 323 507.73 335.82 491.8"/><polyline class="cls-23" points="343.21 482.62 356.22 466.45 347.25 459.22 335.82 473.43"/><polyline class="cls-23" points="328.42 482.62 315.75 466.87 324.73 459.65 335.82 473.43"/><polyline class="cls-28" points="335.82 491.8 348.98 508.15 357.95 500.93 343.21 482.62"/><line class="cls-23" x1="1298.76" y1="0.5" x2="1272.11" y2="0.5"/><line class="cls-23" x1="1272.11" y1="888.69" x2="1298.76" y2="888.69"/><polyline class="cls-23" points="1298.76 0.5 1626.23 0.5 1626.23 888.69 1298.76 888.69"/><path class="cls-23" d="M608.89,383.23a23.92,23.92,0,0,0,2.49,5.43" transform="translate(-84.6 -83.03)"/><path class="cls-23" d="M614,372.54s-7.64,2-5.09,10.69" transform="translate(-84.6 -83.03)"/><path class="cls-23" d="M606.73,380a15,15,0,0,0,2.16,3.25" transform="translate(-84.6 -83.03)"/><path class="cls-23" d="M621.22,385.54c-5.94,3.12-10,.33-12.33-2.31" transform="translate(-84.6 -83.03)"/><path class="cls-23" d="M1167.18,295.44c0,.82.07,1.68,0,2.65-.57,18.57-13,14.4-13,14.4" transform="translate(-84.6 -83.03)"/><path class="cls-23" d="M1153,289.88s13.32-9.3,14.21,5.56" transform="translate(-84.6 -83.03)"/><path class="cls-23" d="M1167.18,295.44a18.41,18.41,0,0,0,.48-6.42" transform="translate(-84.6 -83.03)"/><path class="cls-23" d="M1158.3,303.56a10.3,10.3,0,0,0,8.88-8.12" transform="translate(-84.6 -83.03)"/><path class="cls-29" d="M99.79,869.49a16.16,16.16,0,0,0,17.94,11.24c7.4-1.1,17.17-1.25,21.47,4.42,7.38,9.72,16.76,27.81,51.94,21.44s81.09-47.58,114.6-27.47,44.9-25.47,34.85-49.6,7.37-50.59-27.48-54.28-113.59-9.72-164.19,7-68,64.67-63,75.06,11.72,4.35,13.73,11.72C99.7,869.21,99.74,869.35,99.79,869.49Z" transform="translate(-84.6 -83.03)"/></g></svg>