<svg xmlns="http://www.w3.org/2000/svg" viewBox="0 0 1651.97 891.65"><defs><style>.cls-1{fill:#1a1a1a;}.cls-2{fill:#f15a24;}.cls-3{fill:#1b1464;}.cls-4{fill:#662d91;}.cls-5{fill:#e6e6e6;}.cls-6{fill:#c69c6d;}.cls-7{fill:#0071bc;}.cls-22,.cls-8{fill:#42210b;}.cls-9{fill:#006837;}.cls-10{fill:#c1272d;}.cls-11{fill:#f2f2f2;}.cls-12{fill:#39b54a;}.cls-13{fill:#009245;}.cls-14{fill:#736357;}.cls-15{fill:#65c8d0;}.cls-16{fill:#4d4d4d;}.cls-17{fill:gray;}.cls-18{fill:#999;}.cls-19{fill:#ccc;}.cls-20{fill:#b3b3b3;}.cls-21{fill:none;}.cls-21,.cls-22,.cls-23{stroke:#000;stroke-miterlimit:10;stroke-width:0.75px;}.cls-23{fill:#333;}</style></defs><g id="lines"><path class="cls-1" d="M1363.17,529.22c-8.74-2.8-20.12-8.28-32-15.61q-.36,3.52-1,7.34l.21.12c11.68,6.3,23.75,12,35.38,17.2l2.88,1.28c-.63-2.78-1.2-5.89-1.73-9.25C1365.74,530,1364.49,529.65,1363.17,529.22Z" transform="translate(-123.37 -83.53)"/><path class="cls-1" d="M1359.53,315.84a20,20,0,0,0,7.8,1.58c10.34,0,18.71-7.74,18.71-17.29s-8.37-17.28-18.71-17.28a19.58,19.58,0,0,0-11.76,3.87c.71,1.42,1.38,2.89,2,4.45C1361.58,301.05,1361.76,309.13,1359.53,315.84Z" transform="translate(-123.37 -83.53)"/><path class="cls-2" d="M1361.11,403.55c2.79,2.22,4.35,3.71,4.35,3.71l-2.08,9.7s-.73-.69-2.06-1.83c.18,13.26.33,32.68,1,52.84.72,22.32,2,45.54,4.64,62.33.53,3.36,1.1,6.47,1.73,9.25,2.18,1,4.35,1.93,6.49,2.86,59.61,26,37.78-141.39,28.77-153.87-8.48-11.73-39.93-5.38-42.78,8.68A10.11,10.11,0,0,0,1361,400C1361,400.89,1361.06,402.1,1361.11,403.55Z" transform="translate(-123.37 -83.53)"/><path class="cls-3" d="M1337.35,370.66l-1.75-2a13.33,13.33,0,0,0-11.92-4.2A127.87,127.87,0,0,0,1294.8,373c-5.77,2.54-11.08,5.59-14.93,9.15C1291.34,377.71,1316.74,369,1337.35,370.66Z" transform="translate(-123.37 -83.53)"/><path d="M1299.62,296.1c3.38,9.62-.78,21.84-.78,21.84l3.9,3.37s3.37-21.57,15.59-19,9.1,13.26,5.46,17.68-6.24,7.79-6.24,7.79,14.42,1.76,20.62,10.26c9.35-5.31,18-12.24,21.36-22.23,2.23-6.71,2-14.79-2-24.67-.63-1.56-1.3-3-2-4.45-19.58-39.37-68-28.42-77.81-12.08a2.44,2.44,0,0,1-.62.7h0C1279.46,280,1285.33,288.26,1299.62,296.1Z" transform="translate(-123.37 -83.53)"/><path class="cls-4" d="M1252.91,568.37c1.63.06,3.85.14,6.53.21,9,.26,23.15.49,38.66.09l-3.49-70.54c-28.21-22.24-45.2-50.2-30.34-86,36.76-49.78,82.69-19.8,96.84-8.56,0-1.45-.1-2.66-.15-3.57a10.11,10.11,0,0,1,.19-2.76l-23.8-26.56c-20.61-1.69-46,7-57.48,11.46a23.42,23.42,0,0,0-3.65,4.17c-10.39,15.6-37.48,35.81-41.06,45.23-3.51,9.22,3.84,23.68,7.28,34.3a157.84,157.84,0,0,1,4.53,19,369.61,369.61,0,0,1,5.22,46.13C1252.81,542.18,1253.11,554.68,1252.91,568.37Z" transform="translate(-123.37 -83.53)"/><path class="cls-5" d="M1159.38,597.32c-1.31-1.24-2.6-2.49-3.76-3.75l-45.68,104.59c.31.05.61.07.92.13l6.17,1.19.58.12a6.35,6.35,0,0,1,1.46.46l10.77,4.84c6.32-14.7,29.61-70,35.93-101.68C1164.26,601.89,1162.2,600,1159.38,597.32Z" transform="translate(-123.37 -83.53)"/><path class="cls-6" d="M1332.29,366.07a60.21,60.21,0,0,1-.2-24.78c2-1,4.07-2.08,6.08-3.22-6.2-8.5-20.62-10.26-20.62-10.26s2.6-3.38,6.24-7.79,6.76-15.08-5.46-17.68-15.59,19-15.59,19l-3.9-3.37s4.16-12.22.78-21.84c-14.29-7.84-20.16-16.14-22.48-20.76-14.8,11.22-6.08,32.42-8.4,36.28-1.69,2.82-7.23,9.74-10,14.32a3.77,3.77,0,0,0,.63,4.69,2.09,2.09,0,0,0,.72.43l2.23.88a2.51,2.51,0,0,1,1.25,3.59l-1,1.77a2.5,2.5,0,0,0,.69,3.28l.61.45a2.5,2.5,0,0,1,.89,2.81l-.1.29a2.52,2.52,0,0,0,1.06,2.92l4.81,2.42a4,4,0,0,1,.65.76c.57.69,1.83,2.8,5.07,7.47,4.08,6.53,12.26,2.81,17.78-.86a51,51,0,0,0,5.62-4.34,51,51,0,0,1-5.62,4.34c.79,3.2,1.24,8.23.8,16.13a127.87,127.87,0,0,1,28.88-8.46A13.23,13.23,0,0,1,1332.29,366.07ZM1316.84,315c.76-2.67-.16-4.19-.93-4.94-3.12,0-4.29,3.29-4.29,3.29s1.17-3.28,4.29-3.29a3.22,3.22,0,0,0-.8-.6,3.22,3.22,0,0,1,.8.6,5.25,5.25,0,0,1,1.4.2,2.48,2.48,0,0,1,1.73,1.8,2.48,2.48,0,0,0-1.73-1.8,5.25,5.25,0,0,0-1.4-.2C1316.68,310.81,1317.6,312.33,1316.84,315Zm3.46-6.45c-7-4.3-10.85,2.31-11.91,5.95,1.06-3.64,4.87-10.25,11.91-5.95,5.18,5.19-2.88,11.71-2.88,11.71S1325.48,313.74,1320.3,308.55Z" transform="translate(-123.37 -83.53)"/><path class="cls-4" d="M1330.2,521q-.56,3.33-1.35,6.91a263.69,263.69,0,0,0-5.85,39.51l1.18,0c17.65-1.45,34.19-4.13,44-8.91.73-.36,1.43-.72,2.08-1.1a157.24,157.24,0,0,0-4.52-19c-11.63-5.2-23.7-10.9-35.38-17.2Z" transform="translate(-123.37 -83.53)"/><path class="cls-3" d="M1344.76,455.46c-33.87,4.1-59.08.8-66.27-.36a59.18,59.18,0,0,0,.36,6c2.13.36,7.31,1.17,14,1.92,10.16,1.13,23.8,2.1,35.64,1.05,6.11-.55,11.74-1.62,16.16-3.49C1344.7,459.08,1344.74,457.34,1344.76,455.46Z" transform="translate(-123.37 -83.53)"/><path class="cls-7" d="M1344.76,455.46c.22-19.15-1.33-53.42-31.63-60.68-25.92-6.21-35,37.22-34.64,60.32C1285.68,456.26,1310.89,459.56,1344.76,455.46Z" transform="translate(-123.37 -83.53)"/><path class="cls-8" d="M1363.17,529.22c1.32.43,2.57.78,3.77,1.08-2.6-16.79-3.92-40-4.64-62.33-2.91,7.78-5.89,16.36-7.06,21.77C1353.67,496.93,1358.5,513.33,1363.17,529.22Z" transform="translate(-123.37 -83.53)"/><path class="cls-6" d="M1330.2,521q.65-3.81,1-7.34c2.3-22.17-3-36-2.7-49.49-11.84,1.05-25.48.08-35.64-1.05l1.06,21.29.68,13.77,3.49,70.54,1.38,27.89s-1.56,61.6,5.45,61.6c6.5,1.3,13,4.41,16.64,4.41,1.73,0,6-2.24,9.88-4.59a8.6,8.6,0,0,0,2.25-12.83c-1.74-2.13-3.59-4.35-5.14-6.12a40.25,40.25,0,0,1-3.09,9.25,40.25,40.25,0,0,0,3.09-9.25,42.05,42.05,0,0,0-1.53-23.5c-4-10.73-5.41-28.13-4-48.16a263.69,263.69,0,0,1,5.85-39.51Q1329.65,524.28,1330.2,521Z" transform="translate(-123.37 -83.53)"/><path class="cls-1" d="M1273.63,413.5c28.77-45,77.18-7.38,87.69,1.63,1.33,1.14,2.06,1.83,2.06,1.83l2.08-9.7s-1.56-1.49-4.35-3.71c-14.15-11.24-60.08-41.22-96.84,8.56-14.86,35.82,2.13,63.78,30.34,86l-.68-13.77C1272.32,462.58,1258.92,436.49,1273.63,413.5Z" transform="translate(-123.37 -83.53)"/><path class="cls-4" d="M1273.63,413.5c-14.71,23-1.31,49.08,20.3,70.86l-1.06-21.29c-6.71-.75-11.89-1.56-14-1.92.07.68.16,1.32.26,1.91-.1-.59-.19-1.23-.26-1.91a59.18,59.18,0,0,1-.36-6c-.37-23.1,8.72-66.53,34.64-60.32,30.3,7.26,31.85,41.53,31.63,60.68,0,1.88-.06,3.62-.09,5.17-4.42,1.87-10.05,2.94-16.16,3.49-.26,13.52,5,27.32,2.7,49.49,11.84,7.33,23.22,12.81,32,15.61-4.67-15.89-9.5-32.29-7.93-39.48,1.17-5.41,4.15-14,7.06-21.77-.65-20.16-.8-39.58-1-52.84C1350.81,406.12,1302.4,368.5,1273.63,413.5Z" transform="translate(-123.37 -83.53)"/><path d="M1227.22,865.89c-1,.61-2.47,1.43-4.2,2.41.83.37,2.13.93,3.82,1.56Z" transform="translate(-123.37 -83.53)"/><path class="cls-3" d="M1413.88,846.82c-1.27.4-2.57.76-3.89,1.07-2.77,11.61-7.28,25.82-10.92,29.8s-27.55,6.07-26.16,17.16,13.17,10.22,29.46,9.87c14.61-.31,16.81-9.41,31.38-17.91a53.43,53.43,0,0,0,11-8.61c8.58-8.68,6-3.73,9.27-5.36,3.81-1.9,7.8-3.12,22-23-2-15.28-25.42-21.07-30.54-24L1444.4,827C1439.71,831.94,1428.72,842.16,1413.88,846.82Z" transform="translate(-123.37 -83.53)"/><path d="M1412.32,844.67l-2.33,3.22c1.32-.31,2.62-.67,3.89-1.07Z" transform="translate(-123.37 -83.53)"/><path class="cls-5" d="M1302.78,749.38h33c-8.64-16.77-16.45-32.13-21.73-42.53A297,297,0,0,0,1302.78,749.38Z" transform="translate(-123.37 -83.53)"/><path class="cls-6" d="M1404.11,833.27l8.21,11.4,1.56,2.15c14.84-4.66,25.83-14.88,30.52-19.85a97.36,97.36,0,0,1-11.06-13.09C1428,819.51,1418.86,827,1404.11,833.27Z" transform="translate(-123.37 -83.53)"/><path class="cls-5" d="M123.37,83.53V975.18h1652V83.53ZM1469.5,271.05l51.4-95.3c3.74-6.49,16.12-6.43,19.78.11l54.4,95.6c3.54,6.33-.94,15.16-8.19,15.31L1478,288.09C1469.68,288.27,1465.34,278.28,1469.5,271.05ZM475.72,146.21v49.71l-43.05-24.86Zm-85.34-1.73v49.71l-43-24.85Zm-88.85-.28v49.7l-43-24.85Zm-74.48,70.66h866.3V657.22H227.05ZM178.66,749.38h0Zm1442.88,0H1406c16.34,28.39,33.75,56.14,33.75,56.14a39.89,39.89,0,0,1-6.37,8.36A97.36,97.36,0,0,0,1444.4,827l1.07-1.16c5.12,2.92,28.53,8.71,30.54,24-14.21,19.92-18.2,21.14-22,23-3.25,1.63-.69-3.32-9.27,5.36a53.43,53.43,0,0,1-11,8.61c-14.57,8.5-16.77,17.6-31.38,17.91-16.29.35-28.07,1.22-29.46-9.87s22.53-13.17,26.16-17.16,8.15-18.19,10.92-29.8l2.33-3.22-8.21-11.4a131,131,0,0,1-19.76,6.56c-9.55-15.35-30.8-55.88-48.59-90.45h-33c-9.71,51.43-4.82,92.41-10.44,97.47-3.32,3-12.72,4.28-24,4.53a121.55,121.55,0,0,0-1.66,17.7c.35-.21.71-.42,1.06-.66,10.56,17.09,12.52,34.05,11.83,37.86s-28.07,11.44-41.24,10.4c-5.2-3.81-37.78,5.54-45.4,5.89s-30.84-3.47-37.08-10.4-.69-15.59,20.1-21.83c15.21-4.56,36.68-16.14,47.12-22,1.73-1,3.16-1.8,4.2-2.41l1.62-16.6c-2.38-.28-4.63-.58-6.68-.88-2.72-26.6-.55-62.1,3.91-99h-61.18l-56.77,135.47a22.24,22.24,0,0,1-28.81,12l-38.76-15.56a22,22,0,0,1-12.71-13.56l-6.92-21.07a6.66,6.66,0,0,1,.27-4.81l58.18-127.38a28.65,28.65,0,0,1,22.05-16.46l49.22-113.59c-1.56-11.15,3.58-23,13.73-27.91l.23-.11a23.49,23.49,0,0,1,5-1.64c11.56-2.46,11.08-.28,20.47-3.74,6.91-2.54,38.52-42.52,56.87-66.28a157.84,157.84,0,0,0-4.53-19c-3.44-10.62-10.79-25.08-7.28-34.3,3.58-9.42,30.67-29.63,41.06-45.23a23.42,23.42,0,0,1,3.65-4.17c3.85-3.56,9.16-6.61,14.93-9.15.44-7.9,0-12.93-.8-16.13-5.52,3.67-13.7,7.39-17.78.86-3.24-4.67-4.5-6.78-5.07-7.47a4,4,0,0,0-.65-.76l-4.81-2.42a2.52,2.52,0,0,1-1.06-2.92l.1-.29a2.5,2.5,0,0,0-.89-2.81l-.61-.45a2.5,2.5,0,0,1-.69-3.28l1-1.77a2.51,2.51,0,0,0-1.25-3.59l-2.23-.88a2.09,2.09,0,0,1-.72-.43,3.77,3.77,0,0,1-.63-4.69c2.76-4.58,8.3-11.5,10-14.32,2.32-3.86-6.4-25.06,8.4-36.28h0a2.44,2.44,0,0,0,.62-.7c9.86-16.34,58.23-27.29,77.81,12.08a19.58,19.58,0,0,1,11.76-3.87c10.34,0,18.71,7.74,18.71,17.28s-8.37,17.29-18.71,17.29a20,20,0,0,1-7.8-1.58c-3.33,10-12,16.92-21.36,22.23-2,1.14-4.05,2.22-6.08,3.22a60.21,60.21,0,0,0,.2,24.78,13.32,13.32,0,0,1,3.31,2.64l1.75,2,23.8,26.56c2.85-14.06,34.3-20.41,42.78-8.68,9,12.48,30.84,179.86-28.77,153.87-2.14-.93-4.31-1.89-6.49-2.86l-2.88-1.28a157.24,157.24,0,0,1,4.52,19c-.65.38-1.35.74-2.08,1.1.14,2.89.24,5.63.28,8.26a67.39,67.39,0,0,1,1.8,34.57c-7,35.08,3.9,71.73,7.8,92,1.76,9.14,14.44,32.85,27.85,56.14Z" transform="translate(-123.37 -83.53)"/><path class="cls-9" d="M1322,686.6c34.38-67.35,47.12-79.07,46.49-119.93,0-2.63-.14-5.37-.28-8.26-9.86,4.78-26.4,7.46-44,8.91l-1.18,0c-1.38,20,0,37.43,4,48.16a42.05,42.05,0,0,1,1.53,23.5c1.55,1.77,3.4,4,5.14,6.12a8.6,8.6,0,0,1-2.25,12.83c-3.93,2.35-8.15,4.59-9.88,4.59-3.64,0-10.14-3.11-16.64-4.41-7,0-5.45-61.6-5.45-61.6l-1.38-27.89c-15.51.4-29.71.17-38.66-.09-5.71,24.11-24.28,105.45-33.37,180.8h0c-4.46,36.93-6.63,72.43-3.91,99,2,.3,4.3.6,6.68.88a302.59,302.59,0,0,0,39.45,2.09c11.33-.25,20.73-1.54,24-4.53,5.62-5.06.73-46,10.44-97.47A297,297,0,0,1,1314,706.85C1316.37,700.14,1319,693.37,1322,686.6Z" transform="translate(-123.37 -83.53)"/><path class="cls-9" d="M1370.31,601.24a67.39,67.39,0,0,0-1.8-34.57c.63,40.86-12.11,52.58-46.49,119.93-3,6.77-5.65,13.54-8,20.25,5.28,10.4,13.09,25.76,21.73,42.53,17.79,34.57,39,75.1,48.59,90.45a131,131,0,0,0,19.76-6.56c14.75-6.26,23.91-13.76,29.23-19.39a39.89,39.89,0,0,0,6.37-8.36s-17.41-27.75-33.75-56.14c-13.41-23.29-26.09-47-27.85-56.14C1374.21,673,1363.29,636.32,1370.31,601.24Z" transform="translate(-123.37 -83.53)"/><path class="cls-1" d="M1178.43,576.63a7.57,7.57,0,0,0-.65-.6c-4.78-4-8.87,3.9-10.93,9.12,1,4,.46,10.32-1.08,18.07-6.32,31.67-29.61,87-35.93,101.68l8.54,3.84c6-14.12,29.21-69.29,37.64-105.21a115,115,0,0,0,2.94-17.48C1180.52,582.83,1181,579.34,1178.43,576.63Z" transform="translate(-123.37 -83.53)"/><path class="cls-1" d="M1109.94,698.16l45.68-104.59c-2.46-2.66-4.39-5.39-4.88-8.35,0-.25-.07-.5-.1-.75l-49.22,113.59A28.67,28.67,0,0,1,1109.94,698.16Z" transform="translate(-123.37 -83.53)"/><path class="cls-8" d="M1110.86,698.29c-.31-.06-.61-.08-.92-.13a28.53,28.53,0,0,0-30.57,16.36L1021.19,841.9a6.66,6.66,0,0,0-.27,4.81l6.92,21.07a21.92,21.92,0,0,0,4.16,7.41l85-175.71Z" transform="translate(-123.37 -83.53)"/><path class="cls-6" d="M1155.62,593.57c1.16,1.26,2.45,2.51,3.76,3.75,2.82,2.68,4.88,4.57,6.39,5.9,1.54-7.75,2.07-14.09,1.08-18.07a9.33,9.33,0,0,0-.63-1.83,9.33,9.33,0,0,1,.63,1.83c2.06-5.22,6.15-13.1,10.93-9.12a7.57,7.57,0,0,1,.65.6c2.61,2.71,2.09,6.2.53,9.42a115,115,0,0,1-2.94,17.48c3.75-1.15,13.09-6.44,26.81-30.36,14.41-22,33-28,49.36-42.25a369.61,369.61,0,0,0-5.22-46.13c-18.35,23.76-50,63.74-56.87,66.28-9.39,3.46-8.91,1.28-20.47,3.74a23.49,23.49,0,0,0-5,1.64l-.23.11c-10.15,4.87-15.29,16.76-13.73,27.91,0,.25,0,.5.1.75C1151.23,588.18,1153.16,590.91,1155.62,593.57Z" transform="translate(-123.37 -83.53)"/><path class="cls-3" d="M1226.84,869.86c-1.69-.63-3-1.19-3.82-1.56-10.44,5.9-31.91,17.48-47.12,22-20.79,6.24-26.34,14.9-20.1,21.83s29.46,10.75,37.08,10.4,40.2-9.7,45.4-5.89c13.17,1,40.54-6.59,41.24-10.4s-1.27-20.77-11.83-37.86c-.35.24-.71.45-1.06.66C1252.7,877.64,1235.18,873,1226.84,869.86Z" transform="translate(-123.37 -83.53)"/><path class="cls-8" d="M1156.76,717l-18.38-8.26-8.54-3.84-10.77-4.84a6.35,6.35,0,0,0-1.46-.46l-.58-.12-85,175.71a21.91,21.91,0,0,0,8.55,6.15l38.76,15.56a22.24,22.24,0,0,0,28.81-12l56.77-135.47,2.39-5.7A20.54,20.54,0,0,0,1156.76,717Z" transform="translate(-123.37 -83.53)"/><path class="cls-6" d="M1228.84,849.29l-1.62,16.6-.38,4c8.34,3.1,25.86,7.78,39.79-.78a121.55,121.55,0,0,1,1.66-17.7A302.59,302.59,0,0,1,1228.84,849.29Z" transform="translate(-123.37 -83.53)"/><path class="cls-5" d="M1252.91,568.37c.2-13.69-.1-26.19-.72-37.45-16.38,14.27-35,20.29-49.36,42.25-13.72,23.92-23.06,29.21-26.81,30.36-8.43,35.92-31.59,91.09-37.64,105.21l18.38,8.26a20.54,20.54,0,0,1,10.52,26.68l-2.39,5.7h61.18c9.09-75.35,27.66-156.69,33.37-180.8C1256.76,568.51,1254.54,568.43,1252.91,568.37Z" transform="translate(-123.37 -83.53)"/><path class="cls-10" d="M1478,288.09l108.88-1.32c7.25-.15,11.73-9,8.19-15.31l-54.4-95.6c-3.66-6.54-16-6.6-19.78-.11l-51.4,95.3C1465.34,278.28,1469.68,288.27,1478,288.09Zm58.76-16.37H1524.3a1.89,1.89,0,0,1-1.85-2.67l4.81-10.79c.19-.4,1.09-1.34,1.53-1.37l2.4-.08a2.47,2.47,0,0,1,2.32,1.4l5,10.55A2.08,2.08,0,0,1,1536.77,271.72Zm-12.51-67.88,12.77.45a4.88,4.88,0,0,1,4.57,6.07l-9.06,36.23a2.2,2.2,0,0,1-4.27,0L1519,210.33A5.2,5.2,0,0,1,1524.26,203.84Z" transform="translate(-123.37 -83.53)"/><path class="cls-11" d="M1528.27,246.6a2.2,2.2,0,0,0,4.27,0l9.06-36.23a4.88,4.88,0,0,0-4.57-6.07l-12.77-.45a5.2,5.2,0,0,0-5.22,6.49Z" transform="translate(-123.37 -83.53)"/><path class="cls-11" d="M1533.51,258.2a2.47,2.47,0,0,0-2.32-1.4l-2.4.08c-.44,0-1.34,1-1.53,1.37L1522.45,269a1.89,1.89,0,0,0,1.85,2.67h12.47a2.08,2.08,0,0,0,1.73-3Z" transform="translate(-123.37 -83.53)"/><polygon class="cls-9" points="178.16 60.67 135.12 85.52 178.16 110.37 178.16 60.67"/><polygon class="cls-12" points="352.35 62.68 309.3 87.54 352.35 112.39 352.35 62.68"/><polygon class="cls-13" points="267.01 60.96 223.97 85.81 267.01 110.66 267.01 60.96"/><path class="cls-14" d="M1093.35,214.86H227.05V657.22h866.3Zm-285.5,6.82h278.21V358.55H807.85ZM512.4,648.75H234.19V511.88H512.4Zm0-144H234.19V367.88H512.4Zm1.15-146.31H235.34V221.57H513.55ZM798.25,649.9H520V513H798.25Zm1-145.15H521V367.88H799.25ZM800.4,359.6H522.19V222.72H800.4Zm285.13,290.2H807.32V511.48h278.21Zm.86-146.1H808.18V367.64h278.21Z" transform="translate(-123.37 -83.53)"/><rect class="cls-15" x="684.48" y="138.15" width="278.21" height="136.87"/><rect class="cls-15" x="684.82" y="284.12" width="278.21" height="136.06"/><polygon class="cls-5" points="772.13 533.38 805.39 500.11 816.48 489.02 790.56 489.02 779.49 501.08 775.53 505.4 773.53 507.58 771.87 509.39 771.87 509.47 771.87 509.39 767.24 514.44 748.8 534.53 772.13 533.38"/><path class="cls-16" d="M896.9,591.1A5.63,5.63,0,0,0,896,591a5.49,5.49,0,0,0-.81,0,5.39,5.39,0,0,0-4.8,5.13,5.45,5.45,0,0,0,.25,1.82l4.63-5Z" transform="translate(-123.37 -83.53)"/><path class="cls-5" d="M896.9,591.1l2-2.17-3.82-.06.08,2.14a5.49,5.49,0,0,1,.81,0A5.63,5.63,0,0,1,896.9,591.1Z" transform="translate(-123.37 -83.53)"/><path class="cls-17" d="M902.86,584.61c-4.43.15-8.31.28-11.43.37l2.31,3.87,1.34,0,3.82.06Z" transform="translate(-123.37 -83.53)"/><path class="cls-15" d="M807.32,649.8h278.21V511.48H807.32Zm83-53.66a5.39,5.39,0,0,1,4.8-5.13l-.08-2.14-1.34,0L891.43,585l-8.32.24s-10.94.58-8.64-5.76,37.44-17.56,48.67-16.7c1.11.09,2.55.16,4.24.23l24-14.34,11.52.86L949,563.45c15,.17,30.35.17,30.35.17s14.52,2.72,26.9-5.33l-10.58-6.57,7.68-1,9.07,2.29a35.62,35.62,0,0,0,5.74-8.56l13,.41a76,76,0,0,1-7.76,15.27l7.67,6.33-5.76,3.65-6.38-4c-4.2,5-9.5,9.6-16,12.12-3.11.61-7.71,1.18-13.31,1.72l-2.36,4.49-1.89.07.11,3.75a5.38,5.38,0,1,1-3.56-.17l-.13-3.45-2.19.08L977.72,581c-14.64,1.07-32.62,2-49,2.63L895.5,616.9l-23.33,1.16L890.61,598A5.45,5.45,0,0,1,890.36,596.14Z" transform="translate(-123.37 -83.53)"/><path class="cls-18" d="M1012.37,553.05l-9.07-2.29-7.68,1,10.58,6.57A31.08,31.08,0,0,0,1012.37,553.05Z" transform="translate(-123.37 -83.53)"/><path class="cls-19" d="M913.93,572.55h25.92l-11.09,11.09c16.34-.68,34.32-1.56,49-2.63,4.29-.31,8.3-.64,11.89-1,5.6-.54,10.2-1.11,13.31-1.72,6.49-2.52,11.79-7.12,16-12.12l-6.75-4.19,7.87-4.6,3.35,2.77a76,76,0,0,0,7.76-15.27l-13-.41a35.62,35.62,0,0,1-5.74,8.56,31.08,31.08,0,0,1-6.17,5.24c-12.38,8.05-26.9,5.33-26.9,5.33s-15.35,0-30.35-.17c-8.13-.09-16.15-.24-21.57-.46-1.69-.07-3.13-.14-4.24-.23-11.23-.86-46.36,10.37-48.67,16.7s8.64,5.76,8.64,5.76l8.32-.24c3.12-.09,7-.22,11.43-.37Z" transform="translate(-123.37 -83.53)"/><path class="cls-19" d="M962.89,549.51l-11.52-.86-24,14.34c5.42.22,13.44.37,21.57.46Z" transform="translate(-123.37 -83.53)"/><polygon class="cls-5" points="888.79 478.47 895.54 482.66 901.92 486.62 907.68 482.98 900.02 476.64 896.67 473.87 888.79 478.47"/><path class="cls-5" d="M981.91,588.17a5.38,5.38,0,0,1,3.56.17l-.11-3.75-3.58.13Z" transform="translate(-123.37 -83.53)"/><path class="cls-16" d="M981.91,588.17a5.4,5.4,0,1,0,3.56.17,5.38,5.38,0,0,0-3.56-.17Z" transform="translate(-123.37 -83.53)"/><path class="cls-17" d="M979.59,584.8l2.19-.08,3.58-.13,1.89-.07,2.36-4.49c-3.59.34-7.6.67-11.89,1Z" transform="translate(-123.37 -83.53)"/><path class="cls-5" d="M714.81,478.11a5.69,5.69,0,0,1,3-.7,6.37,6.37,0,0,1,.89.11l-.11-4.07-4,0Z" transform="translate(-123.37 -83.53)"/><path class="cls-20" d="M704.84,440.09l-5.18,2.59,7.67,4.9a76.37,76.37,0,0,0,16.59-2.89Z" transform="translate(-123.37 -83.53)"/><path class="cls-16" d="M714.81,478.11a6.47,6.47,0,0,0-3.31,5.48,6.31,6.31,0,0,0,5.81,6.72,6.23,6.23,0,0,0,6.31-6.19,6.14,6.14,0,0,0-5.81-6.71A5.69,5.69,0,0,0,714.81,478.11Z" transform="translate(-123.37 -83.53)"/><polygon class="cls-5" points="609.96 371.15 623.2 374.03 638.21 377.3 646.27 372.4 627.71 368.46 623.23 367.5 609.96 371.15"/><path class="cls-19" d="M632.77,451.84,575,433.46l-19.87.87L598.82,458C608.08,455.35,620.24,453.34,632.77,451.84Z" transform="translate(-123.37 -83.53)"/><path class="cls-17" d="M712.87,473.4l1.77,0,4,0,2.62,0,2.48-4.15c-3.31.38-7.42.79-12.13,1.23Z" transform="translate(-123.37 -83.53)"/><path class="cls-19" d="M585.32,464C570.06,480.12,596,479.26,596,479.26l4.38-.3c4.41-.3,11.88-.8,21.1-1.44l16.9-1.2-17.62-5.72,29.38-6.9,23.51,10c14-1.07,27.43-2.17,37.93-3.15,4.71-.44,8.82-.85,12.13-1.23,2.28-.26,4.19-.51,5.63-.73,6.32-1,12.18-5.4,17.25-11l-13.24-2.89L746.6,451l4.48,1a130.93,130.93,0,0,0,14.24-25.72l-18.67-1.16c-3.53,10.85-12.88,16.59-22.73,19.59a76.37,76.37,0,0,1-16.59,2.89,88.63,88.63,0,0,1-13.15,0s-31.73.7-61.41,4.26c-12.53,1.5-24.69,3.51-33.95,6.18C592.93,459.73,588.2,461.7,585.32,464Z" transform="translate(-123.37 -83.53)"/><polygon class="cls-5" points="497.38 387.07 514.99 392.79 573.7 411.86 586.94 405.81 550.26 390.19 526.75 380.18 497.38 387.07"/><path class="cls-17" d="M609,484.44h.18c1.49,0,2.8,0,4-.09,6.55-.33,8.49-1.8,8.26-6.83-9.22.64-16.69,1.14-21.1,1.44C600.86,481.35,602.74,484.38,609,484.44Z" transform="translate(-123.37 -83.53)"/><path class="cls-15" d="M521,504.75H799.25V367.88H521ZM575,433.46l57.82,18.38c29.68-3.56,61.41-4.26,61.41-4.26a88.63,88.63,0,0,0,13.15,0l-7.67-4.9,5.18-2.59,19.08,4.6c9.85-3,19.2-8.74,22.73-19.59l18.67,1.16A130.93,130.93,0,0,1,751.08,452l18.56,3.95-8.06,4.89-15-3.26c-5.07,5.64-10.93,10.06-17.25,11-1.44.22-3.35.47-5.63.73l-2.48,4.15-2.62,0,.11,4.07a6.37,6.37,0,0,1,4.92,6.6,6.23,6.23,0,0,1-6.31,6.19,6.31,6.31,0,0,1-5.81-6.72,6.47,6.47,0,0,1,3.31-5.48l-.17-4.69-1.77,0-1.31-2.84c-10.5,1-23.95,2.08-37.93,3.15l36.68,15.63-13.25,6-58.7-19.06-16.9,1.2c.23,5-1.71,6.5-8.26,6.83l.44,2.88a6.76,6.76,0,1,1-4.27.4l-.33-3.19c-6.3-.06-8.18-3.09-8.68-5.48l-4.38.3s-25.92.86-10.66-15.27c2.88-2.29,7.61-4.26,13.5-6l-43.74-23.69Z" transform="translate(-123.37 -83.53)"/><path class="cls-5" d="M609,484.44l.33,3.19a6.76,6.76,0,0,1,2.74-.58,6.41,6.41,0,0,1,1.53.18l-.44-2.88c-1.18.06-2.49.09-4,.09Z" transform="translate(-123.37 -83.53)"/><path class="cls-16" d="M609.37,487.63a6.78,6.78,0,1,0,4.27-.4,6.41,6.41,0,0,0-1.53-.18A6.76,6.76,0,0,0,609.37,487.63Z" transform="translate(-123.37 -83.53)"/><rect class="cls-15" x="396.67" y="429.5" width="278.21" height="136.87"/><rect class="cls-15" x="111.98" y="138.04" width="278.21" height="136.87"/><rect class="cls-15" x="110.82" y="284.35" width="278.21" height="136.87"/><path class="cls-15" d="M366.24,595.41l9.17-8.6c-4,0-7.34,0-9.93,0a20.55,20.55,0,0,1-4.23-.55l.07,2.49A7.29,7.29,0,0,1,366.24,595.41Z" transform="translate(-123.37 -83.53)"/><path class="cls-5" d="M361.32,588.7l-.07-2.49L360,585.9l-1.91-.62c-.74-.26-1.49-.57-2.25-.89l.17,4.52a7.27,7.27,0,0,1,2.92-.61A7.15,7.15,0,0,1,361.32,588.7Z" transform="translate(-123.37 -83.53)"/><path class="cls-19" d="M471.08,528l-17.28.77L413.58,555c9.21,0,18.67.24,27.7.77Z" transform="translate(-123.37 -83.53)"/><path class="cls-19" d="M324.6,553.57l-4.34,2.08c10.56,11.29,23.89,23.66,35.6,28.74.76.32,1.51.63,2.25.89l1.91.62,1.23.31a20.55,20.55,0,0,0,4.23.55c2.59,0,6,.06,9.93,0l16.49-15.48,27,1.22s-6.22,6-14.89,14c14.49-.18,30.32-.45,43.89-.69l10.07-.18,2.73-.06,8.22-.15,12.57-.26s29.95-6.52,4.22-21.12c-8.5-4.82-25.48-7.25-44.39-8.34-9-.53-18.49-.74-27.7-.77-29.87-.09-56.93,1.82-56.93,1.82a45.81,45.81,0,0,1-20.21-8.91,36.59,36.59,0,0,1-7.13-7.5,35,35,0,0,1-4.15-7.78c-5.22.94-14.39,3.21-20.64,4.81,2,2.54,4.93,6.09,8.46,10.14l5.27-3.43Z" transform="translate(-123.37 -83.53)"/><polygon class="cls-5" points="201.23 470.05 194.88 460.61 189.62 464.05 176.06 472.9 176.06 482.11 196.9 472.12 201.23 470.05"/><path class="cls-17" d="M457.93,585.69l-10.07.18c.6,2.33,2.57,5.08,8.57,5.15h.22c2.17,0,4-.06,5.51-.2,4.75-.43,6.55-1.78,6.72-5.35l-8.22.15Z" transform="translate(-123.37 -83.53)"/><path class="cls-18" d="M336.44,547.9l19.06-9.14L344,535.3l-14.67,5.1A36.59,36.59,0,0,0,336.44,547.9Z" transform="translate(-123.37 -83.53)"/><path class="cls-16" d="M361.32,588.7a7.15,7.15,0,0,0-2.37-.4,7.29,7.29,0,0,0-.64,14.56l7.93-7.45A7.29,7.29,0,0,0,361.32,588.7Z" transform="translate(-123.37 -83.53)"/><path class="cls-15" d="M234.19,648.75H512.4V511.88H234.19Zm65.24-92.33L313,547.57c-3.53-4.05-6.43-7.6-8.46-10.14,6.25-1.6,15.42-3.87,20.64-4.81a35,35,0,0,0,4.15,7.78L344,535.3l11.52,3.46-19.06,9.14a45.81,45.81,0,0,0,20.21,8.91s27.06-1.91,56.93-1.82l40.22-26.21,17.28-.77-29.8,27.75c18.91,1.09,35.89,3.52,44.39,8.34,25.73,14.6-4.22,21.12-4.22,21.12l-12.57.26c-.17,3.57-2,4.92-6.72,5.35l.15,2.92a7.86,7.86,0,1,1-5.74.17l-.14-2.9c-6-.07-8-2.82-8.57-5.15-13.57.24-29.4.51-43.89.69-16.55,15.24-42.08,37.59-50.39,38.6a78.25,78.25,0,0,1-9.22-9.22l13.95-13.08a7.3,7.3,0,0,1-2.28-14l-.17-4.52c-11.71-5.08-25-17.45-35.6-28.74l-20.83,10Z" transform="translate(-123.37 -83.53)"/><path class="cls-5" d="M456.43,591l.14,2.9a7.88,7.88,0,0,1,5.74-.17l-.15-2.92c-1.53.14-3.34.2-5.51.2Z" transform="translate(-123.37 -83.53)"/><path class="cls-5" d="M391.9,571.33l-16.49,15.48-9.17,8.6-7.93,7.45-13.95,13.08a78.25,78.25,0,0,0,9.22,9.22c8.31-1,33.84-23.36,50.39-38.6,8.67-8,14.89-14,14.89-14Z" transform="translate(-123.37 -83.53)"/><path class="cls-16" d="M456.57,593.92a7.88,7.88,0,1,0,3.1-.63A8,8,0,0,0,456.57,593.92Z" transform="translate(-123.37 -83.53)"/><rect class="cls-15" x="398.82" y="139.2" width="278.21" height="136.87"/></g><g id="lines_copy" data-name="lines copy"><path class="cls-21" d="M1302.78,749.38A297,297,0,0,1,1314,706.85" transform="translate(-123.37 -83.53)"/><path class="cls-21" d="M1226.07,749.38c9.09-75.35,27.66-156.69,33.37-180.8" transform="translate(-123.37 -83.53)"/><path class="cls-21" d="M1368.51,566.67c.63,40.86-12.11,52.58-46.49,119.93-3,6.77-5.65,13.54-8,20.25" transform="translate(-123.37 -83.53)"/><path class="cls-21" d="M1302.78,749.38c-9.71,51.43-4.82,92.41-10.44,97.47-3.32,3-12.72,4.28-24,4.53" transform="translate(-123.37 -83.53)"/><path class="cls-21" d="M1226.07,749.38c-4.46,36.93-6.63,72.43-3.91,99,2,.3,4.3.6,6.68.88" transform="translate(-123.37 -83.53)"/><path class="cls-21" d="M1368.51,566.67c0-2.63-.14-5.37-.28-8.26" transform="translate(-123.37 -83.53)"/><path class="cls-21" d="M1228.84,849.29a302.59,302.59,0,0,0,39.45,2.09" transform="translate(-123.37 -83.53)"/><path class="cls-21" d="M1368.51,566.67a67.39,67.39,0,0,1,1.8,34.57c-7,35.08,3.9,71.73,7.8,92,1.76,9.14,14.44,32.85,27.85,56.14" transform="translate(-123.37 -83.53)"/><path class="cls-21" d="M1404.11,833.27c14.75-6.26,23.91-13.76,29.23-19.39" transform="translate(-123.37 -83.53)"/><path class="cls-21" d="M1433.34,813.88a39.89,39.89,0,0,0,6.37-8.36s-17.41-27.75-33.75-56.14" transform="translate(-123.37 -83.53)"/><path class="cls-21" d="M1314,706.85c5.28,10.4,13.09,25.76,21.73,42.53" transform="translate(-123.37 -83.53)"/><path class="cls-21" d="M1404.11,833.27a131,131,0,0,1-19.76,6.56c-9.55-15.35-30.8-55.88-48.59-90.45" transform="translate(-123.37 -83.53)"/><line class="cls-21" x1="1103.86" y1="782.37" x2="1103.47" y2="786.33"/><line class="cls-21" x1="1105.48" y1="765.76" x2="1103.86" y2="782.37"/><path class="cls-21" d="M1266.63,869.08a121.55,121.55,0,0,1,1.66-17.7" transform="translate(-123.37 -83.53)"/><path class="cls-21" d="M1223,868.3c.83.37,2.13.93,3.82,1.56" transform="translate(-123.37 -83.53)"/><path class="cls-21" d="M1223,868.3c-10.44,5.9-31.91,17.48-47.12,22-20.79,6.24-26.34,14.9-20.1,21.83s29.46,10.75,37.08,10.4,40.2-9.7,45.4-5.89c13.17,1,40.54-6.59,41.24-10.4s-1.27-20.77-11.83-37.86c-.35.24-.71.45-1.06.66" transform="translate(-123.37 -83.53)"/><path class="cls-21" d="M1266.63,869.08c-13.93,8.56-31.45,3.88-39.79.78" transform="translate(-123.37 -83.53)"/><path class="cls-21" d="M1223,868.3c1.73-1,3.16-1.8,4.2-2.41" transform="translate(-123.37 -83.53)"/><line class="cls-21" x1="1290.51" y1="763.29" x2="1288.96" y2="761.14"/><line class="cls-21" x1="1280.75" y1="749.75" x2="1288.96" y2="761.14"/><path class="cls-21" d="M1444.4,827a97.36,97.36,0,0,1-11.06-13.09" transform="translate(-123.37 -83.53)"/><path class="cls-21" d="M1413.88,846.82c-1.27.4-2.57.76-3.89,1.07" transform="translate(-123.37 -83.53)"/><path class="cls-21" d="M1413.88,846.82c14.84-4.66,25.83-14.88,30.52-19.85" transform="translate(-123.37 -83.53)"/><path class="cls-21" d="M1444.4,827l1.07-1.16" transform="translate(-123.37 -83.53)"/><path class="cls-21" d="M1410,847.89c-2.77,11.61-7.28,25.82-10.92,29.8s-27.55,6.07-26.16,17.16,13.17,10.22,29.46,9.87c14.61-.31,16.81-9.41,31.38-17.91a53.43,53.43,0,0,0,11-8.61c8.58-8.68,6-3.73,9.27-5.36,3.81-1.9,7.8-3.12,22-23-2-15.28-25.42-21.07-30.54-24" transform="translate(-123.37 -83.53)"/><line class="cls-21" x1="1286.62" y1="764.36" x2="1288.96" y2="761.14"/><path class="cls-21" d="M1323,567.37l1.18,0c17.65-1.45,34.19-4.13,44-8.91" transform="translate(-123.37 -83.53)"/><path class="cls-21" d="M1362.3,468c-2.91,7.78-5.89,16.36-7.06,21.77-1.57,7.19,3.26,23.59,7.93,39.48" transform="translate(-123.37 -83.53)"/><path class="cls-21" d="M1368.23,558.41c.73-.36,1.43-.72,2.08-1.1a157.24,157.24,0,0,0-4.52-19" transform="translate(-123.37 -83.53)"/><path class="cls-21" d="M1259.44,568.58c-2.68-.07-4.9-.15-6.53-.21" transform="translate(-123.37 -83.53)"/><path class="cls-21" d="M1298.1,568.67c-15.51.4-29.71.17-38.66-.09" transform="translate(-123.37 -83.53)"/><path class="cls-21" d="M1279.87,382.12c3.85-3.56,9.16-6.61,14.93-9.15" transform="translate(-123.37 -83.53)"/><path class="cls-21" d="M1252.19,530.92a369.61,369.61,0,0,0-5.22-46.13" transform="translate(-123.37 -83.53)"/><path class="cls-21" d="M1332.29,366.07a13.23,13.23,0,0,0-8.61-1.56A127.87,127.87,0,0,0,1294.8,373" transform="translate(-123.37 -83.53)"/><path class="cls-21" d="M1252.19,530.92c.62,11.26.92,23.76.72,37.45" transform="translate(-123.37 -83.53)"/><line class="cls-21" x1="1237.78" y1="313.69" x2="1213.98" y2="287.13"/><path class="cls-21" d="M1332.29,366.07a13.32,13.32,0,0,1,3.31,2.64l1.75,2" transform="translate(-123.37 -83.53)"/><path class="cls-21" d="M1247,484.79a157.84,157.84,0,0,0-4.53-19c-3.44-10.62-10.79-25.08-7.28-34.3,3.58-9.42,30.67-29.63,41.06-45.23a23.42,23.42,0,0,1,3.65-4.17" transform="translate(-123.37 -83.53)"/><path class="cls-22" d="M1101.42,698.06a28.65,28.65,0,0,0-22.05,16.46L1021.19,841.9a6.66,6.66,0,0,0-.27,4.81l6.92,21.07a21.92,21.92,0,0,0,4.16,7.41" transform="translate(-123.37 -83.53)"/><path class="cls-21" d="M1101.42,698.06a28.67,28.67,0,0,1,8.52.1" transform="translate(-123.37 -83.53)"/><path class="cls-21" d="M1117,699.48l-6.17-1.19c-.31-.06-.61-.08-.92-.13" transform="translate(-123.37 -83.53)"/><path class="cls-21" d="M1164.89,749.38l-56.77,135.47a22.24,22.24,0,0,1-28.81,12l-38.76-15.56a21.91,21.91,0,0,1-8.55-6.15" transform="translate(-123.37 -83.53)"/><path class="cls-21" d="M1117,699.48l.58.12a6.35,6.35,0,0,1,1.46.46l10.77,4.84" transform="translate(-123.37 -83.53)"/><path class="cls-21" d="M1164.89,749.38l2.39-5.7A20.54,20.54,0,0,0,1156.76,717l-18.38-8.26" transform="translate(-123.37 -83.53)"/><line class="cls-21" x1="1006.47" y1="621.37" x2="1015.01" y2="625.21"/><line class="cls-21" x1="993.66" y1="615.96" x2="908.63" y2="791.66"/><line class="cls-21" x1="978.05" y1="614.53" x2="1027.27" y2="500.94"/><line class="cls-21" x1="986.58" y1="614.63" x2="1032.25" y2="510.04"/><path class="cls-21" d="M1166.85,585.15c1,4,.46,10.32-1.08,18.07" transform="translate(-123.37 -83.53)"/><path class="cls-21" d="M1165.77,603.22c-6.32,31.67-29.61,87-35.93,101.68" transform="translate(-123.37 -83.53)"/><path class="cls-21" d="M1166.22,583.32a9.33,9.33,0,0,1,.63,1.83" transform="translate(-123.37 -83.53)"/><path class="cls-21" d="M1176,603.53a115,115,0,0,0,2.94-17.48" transform="translate(-123.37 -83.53)"/><path class="cls-21" d="M1176,603.53c-8.43,35.92-31.59,91.09-37.64,105.21" transform="translate(-123.37 -83.53)"/><path class="cls-21" d="M1155.62,593.57c-2.46-2.66-4.39-5.39-4.88-8.35,0-.25-.07-.5-.1-.75" transform="translate(-123.37 -83.53)"/><path class="cls-21" d="M1165.77,603.22c-1.51-1.33-3.57-3.22-6.39-5.9-1.31-1.24-2.6-2.49-3.76-3.75" transform="translate(-123.37 -83.53)"/><path class="cls-21" d="M1150.64,584.47c-1.56-11.15,3.58-23,13.73-27.91l.23-.11a23.49,23.49,0,0,1,5-1.64c11.56-2.46,11.08-.28,20.47-3.74,6.91-2.54,38.52-42.52,56.87-66.28" transform="translate(-123.37 -83.53)"/><path class="cls-21" d="M1178.43,576.63a7.57,7.57,0,0,0-.65-.6c-4.78-4-8.87,3.9-10.93,9.12" transform="translate(-123.37 -83.53)"/><path class="cls-21" d="M1179,586.05c1.56-3.22,2.08-6.71-.53-9.42" transform="translate(-123.37 -83.53)"/><path class="cls-21" d="M1252.19,530.92c-16.38,14.27-35,20.29-49.36,42.25-13.72,23.92-23.06,29.21-26.81,30.36" transform="translate(-123.37 -83.53)"/><path class="cls-21" d="M1298.1,568.67l1.38,27.89s-1.56,61.6,5.45,61.6c6.5,1.3,13,4.41,16.64,4.41,1.73,0,6-2.24,9.88-4.59a8.6,8.6,0,0,0,2.25-12.83c-1.74-2.13-3.59-4.35-5.14-6.12" transform="translate(-123.37 -83.53)"/><line class="cls-21" x1="1171.24" y1="414.6" x2="1174.73" y2="485.14"/><line class="cls-21" x1="1169.51" y1="379.54" x2="1170.56" y2="400.83"/><line class="cls-21" x1="1171.24" y1="414.6" x2="1170.56" y2="400.83"/><path class="cls-21" d="M1323,567.37c-1.38,20,0,37.43,4,48.16a42.05,42.05,0,0,1,1.53,23.5" transform="translate(-123.37 -83.53)"/><path class="cls-21" d="M1330.2,521q-.56,3.33-1.35,6.91a263.69,263.69,0,0,0-5.85,39.51" transform="translate(-123.37 -83.53)"/><path class="cls-21" d="M1330.2,521q.65-3.81,1-7.34" transform="translate(-123.37 -83.53)"/><path class="cls-21" d="M1328.51,464.12c-.26,13.52,5,27.32,2.7,49.49" transform="translate(-123.37 -83.53)"/><path class="cls-21" d="M1328.56,639a40.25,40.25,0,0,1-3.09,9.25" transform="translate(-123.37 -83.53)"/><path class="cls-21" d="M1328.51,464.12c6.11-.55,11.74-1.62,16.16-3.49,0-1.55.07-3.29.09-5.17" transform="translate(-123.37 -83.53)"/><path class="cls-21" d="M1278.85,461.15c2.13.36,7.31,1.17,14,1.92" transform="translate(-123.37 -83.53)"/><path class="cls-21" d="M1278.49,455.1c-.37-23.1,8.72-66.53,34.64-60.32,30.3,7.26,31.85,41.53,31.63,60.68" transform="translate(-123.37 -83.53)"/><path class="cls-21" d="M1328.51,464.12c-11.84,1.05-25.48.08-35.64-1.05" transform="translate(-123.37 -83.53)"/><path class="cls-21" d="M1278.49,455.1a59.18,59.18,0,0,0,.36,6" transform="translate(-123.37 -83.53)"/><path class="cls-21" d="M1362.3,468c-.65-20.16-.8-39.58-1-52.84" transform="translate(-123.37 -83.53)"/><path class="cls-21" d="M1330.2,521l.21.12c11.68,6.3,23.75,12,35.38,17.2" transform="translate(-123.37 -83.53)"/><path class="cls-21" d="M1368.67,539.55c2.18,1,4.35,1.93,6.49,2.86,59.61,26,37.78-141.39,28.77-153.87-8.48-11.73-39.93-5.38-42.78,8.68" transform="translate(-123.37 -83.53)"/><path class="cls-21" d="M1368.67,539.55c-.63-2.78-1.2-5.89-1.73-9.25" transform="translate(-123.37 -83.53)"/><path class="cls-21" d="M1361.15,397.22A10.11,10.11,0,0,0,1361,400c0,.91.1,2.12.15,3.57" transform="translate(-123.37 -83.53)"/><path class="cls-21" d="M1368.67,539.55l-2.88-1.28" transform="translate(-123.37 -83.53)"/><path class="cls-21" d="M1366.94,530.3c-2.6-16.79-3.92-40-4.64-62.33" transform="translate(-123.37 -83.53)"/><path class="cls-21" d="M1361.11,403.55c-14.15-11.24-60.08-41.22-96.84,8.56-14.86,35.82,2.13,63.78,30.34,86" transform="translate(-123.37 -83.53)"/><path class="cls-21" d="M1363.17,529.22c-8.74-2.8-20.12-8.28-32-15.61" transform="translate(-123.37 -83.53)"/><path class="cls-21" d="M1366.94,530.3c-1.2-.3-2.45-.65-3.77-1.08" transform="translate(-123.37 -83.53)"/><path class="cls-21" d="M1293.93,484.36c-21.61-21.78-35-47.87-20.3-70.86,28.77-45,77.18-7.38,87.69,1.63" transform="translate(-123.37 -83.53)"/><path class="cls-21" d="M1361.32,415.13c1.33,1.14,2.06,1.83,2.06,1.83l2.08-9.7s-1.56-1.49-4.35-3.71" transform="translate(-123.37 -83.53)"/><path class="cls-21" d="M1278.49,455.1c7.19,1.16,32.4,4.46,66.27.36" transform="translate(-123.37 -83.53)"/><path class="cls-21" d="M1337.35,370.66c-20.61-1.69-46,7-57.48,11.46" transform="translate(-123.37 -83.53)"/><path class="cls-21" d="M1294,356.84c.79,3.2,1.24,8.23.8,16.13" transform="translate(-123.37 -83.53)"/><path class="cls-21" d="M1359.53,315.84c-3.33,10-12,16.92-21.36,22.23" transform="translate(-123.37 -83.53)"/><path class="cls-21" d="M1277.14,275.34h0a2.44,2.44,0,0,0,.62-.7c9.86-16.34,58.23-27.29,77.81,12.08" transform="translate(-123.37 -83.53)"/><path class="cls-21" d="M1359.53,315.84c2.23-6.71,2-14.79-2-24.67-.63-1.56-1.3-3-2-4.45" transform="translate(-123.37 -83.53)"/><path class="cls-21" d="M1294,356.84c-5.52,3.67-13.7,7.39-17.78.86-3.24-4.67-4.5-6.78-5.07-7.47a4,4,0,0,0-.65-.76l-4.81-2.42a2.52,2.52,0,0,1-1.06-2.92l.1-.29a2.5,2.5,0,0,0-.89-2.81l-.61-.45a2.5,2.5,0,0,1-.69-3.28l1-1.77a2.51,2.51,0,0,0-1.25-3.59l-2.23-.88a2.09,2.09,0,0,1-.72-.43,3.77,3.77,0,0,1-.63-4.69c2.76-4.58,8.3-11.5,10-14.32,2.32-3.86-6.4-25.06,8.4-36.28" transform="translate(-123.37 -83.53)"/><path class="cls-21" d="M1299.62,352.5a51,51,0,0,1-5.62,4.34" transform="translate(-123.37 -83.53)"/><path class="cls-21" d="M1332.09,341.29c2-1,4.07-2.08,6.08-3.22" transform="translate(-123.37 -83.53)"/><path class="cls-21" d="M1332.29,366.07a60.21,60.21,0,0,1-.2-24.78" transform="translate(-123.37 -83.53)"/><path class="cls-21" d="M1338.17,338.07c-6.2-8.5-20.62-10.26-20.62-10.26s2.6-3.38,6.24-7.79,6.76-15.08-5.46-17.68-15.59,19-15.59,19l-3.9-3.37s4.16-12.22.78-21.84c-14.29-7.84-20.16-16.14-22.48-20.76" transform="translate(-123.37 -83.53)"/><path class="cls-21" d="M1359.53,315.84a20,20,0,0,0,7.8,1.58c10.34,0,18.71-7.74,18.71-17.29s-8.37-17.28-18.71-17.28a19.58,19.58,0,0,0-11.76,3.87" transform="translate(-123.37 -83.53)"/><path class="cls-21" d="M1595.08,271.46l-54.4-95.6c-3.66-6.54-16-6.6-19.78-.11l-51.4,95.3c-4.16,7.23.18,17.22,8.51,17l108.88-1.32C1594.14,286.62,1598.62,277.79,1595.08,271.46Z" transform="translate(-123.37 -83.53)"/><path class="cls-21" d="M1537,204.29l-12.77-.45a5.2,5.2,0,0,0-5.22,6.49l9.23,36.27a2.2,2.2,0,0,0,4.27,0l9.06-36.23A4.88,4.88,0,0,0,1537,204.29Z" transform="translate(-123.37 -83.53)"/><path class="cls-21" d="M1524.3,271.71h12.47a2.08,2.08,0,0,0,1.73-3l-5-10.55a2.47,2.47,0,0,0-2.32-1.4l-2.4.08c-.44,0-1.34,1-1.53,1.37L1522.45,269A1.89,1.89,0,0,0,1524.3,271.71Z" transform="translate(-123.37 -83.53)"/><polyline class="cls-23" points="1575.94 665.86 1498.18 665.86 1282.59 665.86"/><line class="cls-21" x1="1179.42" y1="665.86" x2="1212.39" y2="665.86"/><line class="cls-23" x1="1102.7" y1="665.86" x2="1041.53" y2="665.86"/><polyline class="cls-23" points="937.44 665.86 138.24 665.86 55.3 665.86"/><rect class="cls-21" x="684.48" y="138.15" width="278.21" height="136.87"/><rect class="cls-21" x="684.82" y="284.12" width="278.21" height="136.06"/><rect class="cls-21" x="683.95" y="427.95" width="278.21" height="138.32"/><rect class="cls-21" x="397.67" y="284.35" width="278.21" height="136.87"/><rect class="cls-21" x="396.67" y="429.5" width="278.21" height="136.87"/><rect class="cls-21" x="111.98" y="138.04" width="278.21" height="136.87"/><rect class="cls-21" x="110.82" y="284.35" width="278.21" height="136.87"/><rect class="cls-21" x="110.82" y="428.35" width="278.21" height="136.87"/><polygon class="cls-21" points="178.16 60.67 135.12 85.52 178.16 110.37 178.16 60.67"/><polygon class="cls-21" points="352.35 62.68 309.3 87.54 352.35 112.39 352.35 62.68"/><polygon class="cls-21" points="267.01 60.96 223.97 85.81 267.01 110.66 267.01 60.96"/><path class="cls-21" d="M632.77,451.84c-12.53,1.5-24.69,3.51-33.95,6.18" transform="translate(-123.37 -83.53)"/><path class="cls-21" d="M632.77,451.84c29.68-3.56,61.41-4.26,61.41-4.26a88.63,88.63,0,0,0,13.15,0" transform="translate(-123.37 -83.53)"/><path class="cls-21" d="M723.92,444.69c9.85-3,19.2-8.74,22.73-19.59" transform="translate(-123.37 -83.53)"/><path class="cls-21" d="M723.92,444.69a76.37,76.37,0,0,1-16.59,2.89" transform="translate(-123.37 -83.53)"/><path class="cls-21" d="M621.46,477.52c-9.22.64-16.69,1.14-21.1,1.44" transform="translate(-123.37 -83.53)"/><path class="cls-21" d="M638.36,476.32l-16.9,1.2" transform="translate(-123.37 -83.53)"/><path class="cls-21" d="M598.82,458c-5.89,1.71-10.62,3.68-13.5,6C570.06,480.12,596,479.26,596,479.26l4.38-.3" transform="translate(-123.37 -83.53)"/><path class="cls-21" d="M723.69,469.33c-3.31.38-7.42.79-12.13,1.23" transform="translate(-123.37 -83.53)"/><path class="cls-21" d="M746.57,457.56c-5.07,5.64-10.93,10.06-17.25,11-1.44.22-3.35.47-5.63.73" transform="translate(-123.37 -83.53)"/><path class="cls-21" d="M673.63,473.71c14-1.07,27.43-2.17,37.93-3.15" transform="translate(-123.37 -83.53)"/><path class="cls-21" d="M751.08,452a130.93,130.93,0,0,0,14.24-25.72l-18.67-1.16" transform="translate(-123.37 -83.53)"/><polyline class="cls-21" points="509.4 368.31 451.58 349.94 431.71 350.8 475.46 374.5"/><polyline class="cls-21" points="550.26 390.19 586.94 405.81 573.7 411.86 514.99 392.79"/><polyline class="cls-21" points="550.26 390.19 526.75 380.18 497.38 387.07"/><line class="cls-21" x1="514.99" y1="392.79" x2="497.38" y2="387.07"/><polyline class="cls-21" points="600.56 361.16 581.47 356.56 576.29 359.15 583.96 364.05"/><line class="cls-21" x1="609.96" y1="371.15" x2="623.2" y2="374.03"/><polyline class="cls-21" points="627.71 368.46 623.23 367.5 609.96 371.15"/><polyline class="cls-21" points="623.2 374.03 638.21 377.3 646.27 372.4 627.71 368.46"/><path class="cls-21" d="M613.2,484.35c6.55-.33,8.49-1.8,8.26-6.83" transform="translate(-123.37 -83.53)"/><path class="cls-21" d="M609,484.44h.18c1.49,0,2.8,0,4-.09" transform="translate(-123.37 -83.53)"/><path class="cls-21" d="M600.36,479c.5,2.39,2.38,5.42,8.68,5.48" transform="translate(-123.37 -83.53)"/><line class="cls-21" x1="486" y1="404.1" x2="485.67" y2="400.91"/><line class="cls-21" x1="490.28" y1="403.7" x2="489.83" y2="400.83"/><path class="cls-21" d="M609.37,487.63a6.78,6.78,0,1,0,4.27-.4" transform="translate(-123.37 -83.53)"/><path class="cls-21" d="M609.37,487.63a6.76,6.76,0,0,1,2.74-.58,6.41,6.41,0,0,1,1.53.18" transform="translate(-123.37 -83.53)"/><polyline class="cls-21" points="595.22 389.93 597.84 389.95 600.32 385.8"/><polyline class="cls-21" points="588.19 387.03 589.5 389.87 591.28 389.89"/><line class="cls-21" x1="591.28" y1="389.89" x2="595.22" y2="389.93"/><line class="cls-21" x1="591.44" y1="394.58" x2="591.28" y2="389.89"/><line class="cls-21" x1="595.33" y1="394" x2="595.22" y2="389.93"/><path class="cls-21" d="M714.81,478.11a5.69,5.69,0,0,1,3-.7,6.37,6.37,0,0,1,.89.11" transform="translate(-123.37 -83.53)"/><path class="cls-21" d="M714.81,478.11a6.47,6.47,0,0,0-3.31,5.48,6.31,6.31,0,0,0,5.81,6.72,6.23,6.23,0,0,0,6.31-6.19,6.37,6.37,0,0,0-4.92-6.6" transform="translate(-123.37 -83.53)"/><rect class="cls-21" x="103.68" y="131.33" width="866.3" height="442.37"/><path class="cls-21" d="M1308.39,314.5c1.06-3.64,4.87-10.25,11.91-5.95,5.18,5.19-2.88,11.71-2.88,11.71" transform="translate(-123.37 -83.53)"/><rect class="cls-21" x="398.82" y="139.2" width="278.21" height="136.87"/><path class="cls-21" d="M891.43,585c3.12-.09,7-.22,11.43-.37" transform="translate(-123.37 -83.53)"/><path class="cls-21" d="M1018.11,544.49a35.62,35.62,0,0,1-5.74,8.56" transform="translate(-123.37 -83.53)"/><path class="cls-21" d="M1006.2,558.29a31.08,31.08,0,0,0,6.17-5.24" transform="translate(-123.37 -83.53)"/><path class="cls-21" d="M891.43,585l-8.32.24s-10.94.58-8.64-5.76,37.44-17.56,48.67-16.7c1.11.09,2.55.16,4.24.23" transform="translate(-123.37 -83.53)"/><path class="cls-21" d="M1006.2,558.29c-12.38,8.05-26.9,5.33-26.9,5.33s-15.35,0-30.35-.17" transform="translate(-123.37 -83.53)"/><path class="cls-21" d="M927.38,563c5.42.22,13.44.37,21.57.46" transform="translate(-123.37 -83.53)"/><path class="cls-21" d="M1018.91,566.19c-4.2,5-9.5,9.6-16,12.12-3.11.61-7.71,1.18-13.31,1.72" transform="translate(-123.37 -83.53)"/><path class="cls-21" d="M928.76,583.64c16.34-.68,34.32-1.56,49-2.63" transform="translate(-123.37 -83.53)"/><path class="cls-21" d="M989.61,580c-3.59.34-7.6.67-11.89,1" transform="translate(-123.37 -83.53)"/><path class="cls-21" d="M1023.38,560.17a76,76,0,0,0,7.76-15.27l-13-.41" transform="translate(-123.37 -83.53)"/><line class="cls-21" x1="771.87" y1="509.39" x2="773.53" y2="507.58"/><polyline class="cls-21" points="816.48 489.02 790.56 489.02 779.49 501.08"/><line class="cls-21" x1="779.49" y1="501.09" x2="775.53" y2="505.4"/><polyline class="cls-21" points="805.39 500.11 772.13 533.38 748.8 534.53 767.24 514.44"/><line class="cls-21" x1="773.53" y1="507.58" x2="775.53" y2="505.4"/><line class="cls-21" x1="805.39" y1="500.11" x2="816.48" y2="489.02"/><line class="cls-21" x1="771.87" y1="509.39" x2="767.24" y2="514.44"/><polyline class="cls-21" points="825.58 479.92 839.52 465.98 828 465.12 804.01 479.46"/><polyline class="cls-21" points="861.99 501.06 863.88 501 866.24 496.5"/><polyline class="cls-21" points="854.35 497.48 856.22 501.27 858.42 501.19"/><line class="cls-21" x1="858.42" y1="501.19" x2="861.99" y2="501.06"/><line class="cls-21" x1="858.55" y1="504.64" x2="858.42" y2="501.19"/><line class="cls-21" x1="862.1" y1="504.81" x2="861.99" y2="501.06"/><path class="cls-21" d="M981.91,588.17a5.4,5.4,0,1,0,3.56.17" transform="translate(-123.37 -83.53)"/><path class="cls-21" d="M981.91,588.17a5.38,5.38,0,0,1,3.56.17" transform="translate(-123.37 -83.53)"/><line class="cls-21" x1="771.72" y1="505.34" x2="775.53" y2="505.4"/><polyline class="cls-21" points="771.72 505.34 770.38 505.32 768.07 501.45"/><line class="cls-21" x1="771.8" y1="507.48" x2="771.72" y2="505.34"/><line class="cls-21" x1="771.87" y1="509.39" x2="771.87" y2="509.47"/><path class="cls-21" d="M895.16,591a5.39,5.39,0,0,0-4.8,5.13,5.45,5.45,0,0,0,.25,1.82" transform="translate(-123.37 -83.53)"/><path class="cls-21" d="M895.16,591a5.49,5.49,0,0,1,.81,0,5.63,5.63,0,0,1,.93.12" transform="translate(-123.37 -83.53)"/><polyline class="cls-21" points="889.01 469.52 879.94 467.23 872.26 468.19 882.84 474.77"/><polyline class="cls-21" points="900.02 476.64 907.68 482.98 901.92 486.62 895.54 482.66"/><polyline class="cls-21" points="900.02 476.64 896.67 473.87 888.79 478.47 895.54 482.66"/><path class="cls-21" d="M336.44,547.9a36.59,36.59,0,0,1-7.13-7.5" transform="translate(-123.37 -83.53)"/><path class="cls-21" d="M304.52,537.43c6.25-1.6,15.42-3.87,20.64-4.81a35,35,0,0,0,4.15,7.78" transform="translate(-123.37 -83.53)"/><path class="cls-21" d="M468.88,585.48l-8.22.15-2.73.06-10.07.18" transform="translate(-123.37 -83.53)"/><path class="cls-21" d="M447.86,585.87c-13.57.24-29.4.51-43.89.69" transform="translate(-123.37 -83.53)"/><path class="cls-21" d="M468.88,585.48l12.57-.26s29.95-6.52,4.22-21.12c-8.5-4.82-25.48-7.25-44.39-8.34" transform="translate(-123.37 -83.53)"/><path class="cls-21" d="M441.28,555.76c-9-.53-18.49-.74-27.7-.77" transform="translate(-123.37 -83.53)"/><path class="cls-21" d="M336.44,547.9a45.81,45.81,0,0,0,20.21,8.91s27.06-1.91,56.93-1.82" transform="translate(-123.37 -83.53)"/><path class="cls-21" d="M355.86,584.39c-11.71-5.08-25-17.45-35.6-28.74" transform="translate(-123.37 -83.53)"/><path class="cls-21" d="M355.86,584.39c.76.32,1.51.63,2.25.89l1.91.62,1.23.31" transform="translate(-123.37 -83.53)"/><path class="cls-21" d="M361.25,586.21a20.55,20.55,0,0,0,4.23.55c2.59,0,6,.06,9.93,0" transform="translate(-123.37 -83.53)"/><path class="cls-21" d="M313,547.57c-3.53-4.05-6.43-7.6-8.46-10.14" transform="translate(-123.37 -83.53)"/><path class="cls-21" d="M358.31,602.86l-13.95,13.08a78.25,78.25,0,0,0,9.22,9.22c8.31-1,33.84-23.36,50.39-38.6" transform="translate(-123.37 -83.53)"/><path class="cls-21" d="M404,586.56c8.67-8,14.89-14,14.89-14l-27-1.22" transform="translate(-123.37 -83.53)"/><line class="cls-21" x1="252.04" y1="503.28" x2="268.53" y2="487.8"/><line class="cls-21" x1="242.87" y1="511.88" x2="252.04" y2="503.28"/><line class="cls-21" x1="242.87" y1="511.88" x2="234.94" y2="519.33"/><polyline class="cls-21" points="317.91 472.23 347.71 444.48 330.43 445.25 290.22 471.46"/><polyline class="cls-21" points="213.07 464.37 232.13 455.23 220.61 451.78 205.95 456.88"/><polyline class="cls-21" points="196.9 472.12 176.06 482.11 176.06 472.9 189.62 464.05"/><polyline class="cls-21" points="196.9 472.12 201.23 470.05 194.88 460.61 189.62 464.05"/><line class="cls-21" x1="232.66" y1="505.38" x2="232.49" y2="500.86"/><line class="cls-21" x1="237.95" y1="505.17" x2="237.88" y2="502.68"/><path class="cls-21" d="M356,588.91a7.3,7.3,0,0,0,2.28,14" transform="translate(-123.37 -83.53)"/><path class="cls-21" d="M366.24,595.41a7.29,7.29,0,0,0-4.92-6.71" transform="translate(-123.37 -83.53)"/><path class="cls-21" d="M356,588.91a7.27,7.27,0,0,1,2.92-.61,7.15,7.15,0,0,1,2.37.4" transform="translate(-123.37 -83.53)"/><line class="cls-21" x1="333.06" y1="507.49" x2="333.2" y2="510.4"/><line class="cls-21" x1="338.95" y1="510.22" x2="338.79" y2="507.31"/><path class="cls-21" d="M456.57,593.92a7.88,7.88,0,1,0,5.74-.17" transform="translate(-123.37 -83.53)"/><path class="cls-21" d="M456.57,593.92a7.88,7.88,0,0,1,5.74-.17" transform="translate(-123.37 -83.53)"/><path class="cls-21" d="M456.43,591h.22c2.17,0,4-.06,5.51-.2" transform="translate(-123.37 -83.53)"/><path class="cls-21" d="M468.88,585.48c-.17,3.57-2,4.92-6.72,5.35" transform="translate(-123.37 -83.53)"/><path class="cls-21" d="M456.43,591c-6-.07-8-2.82-8.57-5.15" transform="translate(-123.37 -83.53)"/><path class="cls-21" d="M1315.91,310.06a5.25,5.25,0,0,1,1.4.2,2.48,2.48,0,0,1,1.73,1.8" transform="translate(-123.37 -83.53)"/><path class="cls-21" d="M1315.91,310.06c-3.12,0-4.29,3.29-4.29,3.29" transform="translate(-123.37 -83.53)"/><path class="cls-21" d="M1316.84,315c.76-2.67-.16-4.19-.93-4.94" transform="translate(-123.37 -83.53)"/></g></svg>