<svg xmlns="http://www.w3.org/2000/svg" viewBox="0 0 1843.2 997.63"><defs><style>.cls-1{fill:#1b1464;}.cls-2{fill:#39b54a;}.cls-3,.cls-4,.cls-5,.cls-6,.cls-7{fill:none;}.cls-10,.cls-3,.cls-8,.cls-9{stroke:#000;}.cls-10,.cls-3,.cls-4,.cls-5,.cls-6,.cls-7,.cls-8,.cls-9{stroke-miterlimit:10;}.cls-3{stroke-width:1.5px;}.cls-4,.cls-5,.cls-6,.cls-7{stroke:#fff;stroke-width:3px;}.cls-5{stroke-dasharray:11.88 11.88;}.cls-6{stroke-dasharray:11.99 11.99;}.cls-7{stroke-dasharray:12.01 12.01;}.cls-10,.cls-8,.cls-9{stroke-width:0.5px;}.cls-9{fill:#1a1a1a;}.cls-10{fill:#fff;}</style></defs><g id="lines"><rect class="cls-1" width="1843.2" height="997.63"/><path class="cls-2" d="M1083.57,565.71c-5.47-21-6.83-18.92-6.83-18.92s-.48-.93-1.15-2.38c-8.72,14-16.44,30.7-24,51.27a311.84,311.84,0,0,1,55.14,1.58,20.22,20.22,0,0,0-3.13-7.38C1097.71,580.76,1086.31,575.29,1083.57,565.71Z" transform="translate(-43.34 -39.5)"/><path class="cls-2" d="M1051.62,595.68a408,408,0,0,0-88.35,15.17,408,408,0,0,1,88.35-15.17c7.53-20.57,15.25-37.31,24-51.27-2.54-5.54-7.9-18.71-.68-17.45,3.81.67,6.55,3,8.63,5.86,29.15-38.55,70.39-53.25,148.54-75.33,69.41-19.6,89-62.75,82.68-101.22-75.69-19.15-175.35-27.51-300.38-5-3,3.69-3.6,6.79-3.3,11.82-1.14,10.72-22.57,17.56-36,16.19-13.22-2.74-41,9.12-48.32,21.2-10.49,8.21-16.19,10.26-22.8,7.52-20.75,3.65-10,11.4-2.51,15.05,13.45,7.07,10.72,22.57-.68,19.83-27.36-9.35-29.87,1.37-29.64,8.89s-8.2,18.92-.68,25.08,24.39,8.89,35.56,4.56,20.29-29.18,24.85-33.06c6.38-3.65,7.75,5.47,15.5,2.51s4.56-6.16,12.08-5c21.66,10.49,28.5,30.32,35.79,21,5.7-21.89-27.13-27.81-21.88-31.92s22.57,16.42,27.13,21,2,5.25,3.19,9.81,7.29-1.6,7.75,4.56c-.46,18.46,9.34,16.64,8.43,13.22s3.88-4.79,5.7-8.21-2.73-10.71-4.33-13,3.19-5.7,13-3.42c10.49,7.07,1.6,8.66,6.62,18S1046,481.59,1058,483s21.66,11.4,16.19,15.73-4.11,10.26-4.33,11.86-2.06,7.52-10.26,1.36-23-1.14-29-1.82-11.86-9.8-19.84-7.07.69,14.14-8,12.77-8.44-5.93-13.91-8.66-18.47-1.6-21.89-5.7,2.74-8.89-2.27-16.87-52.44-2.51-71.36,5.93-15.73,19.83-33.74,33.73-30.77,28-27.35,36.71,5.24,10,2.28,22.56,7.07,28,20.29,39.44c35.1,35.34,55.16,15.5,64.74,12.54s35.33,6.61,39.66,15-16.41,10.48.46,31.91,16.41,23,11.17,36-7.52,9.8-8.43,15.5c-.46,15,7.75,17.78,12.31,24.85,2.31,3.58,2.22,9.44,2.1,15.39,21.75-27,39.85-61.87,52.37-106.41C1037.08,639.45,1044.26,615.75,1051.62,595.68ZM954.18,609.6a5.09,5.09,0,0,1-1,.81l-5.87,3.71,3.38,23.14-4.43-1.16-5-14.69a11.76,11.76,0,0,1-2.32.85c-1.8.53-1-1.58-1-1.58l2.43-1.48a26.61,26.61,0,0,0-1.05-2.54c-1.48,1.59-7.5,4-7.5,4l-1.17,5.91-2.21-.74-.53-5.17-4.34-3.28-.1-2.32s5.7,1.79,7.08,2.32c.84-.85,6.23-4.33,6.23-4.33l-1.27-1.38a5.69,5.69,0,0,1-1.69,1c-2.43.84-1.16-1.8-1.16-1.8l1.8-1.48-8.45-12,2-4.12,16.49,15.43s2.87-1.21,5.58-2.66a4.58,4.58,0,0,1,1.25-.41C958.11,604.19,955.47,608.23,954.18,609.6Z" transform="translate(-43.34 -39.5)"/><path class="cls-2" d="M975.29,370.8c6.61,1.6,13.22-7.06,14.36-13.22.12-.61.24-1.15.37-1.64q-6,1.23-12,2.56l-7.43,1.75C971.49,365.34,972.35,370.1,975.29,370.8Z" transform="translate(-43.34 -39.5)"/><path class="cls-2" d="M650.62,834.2c19.83-.69,20.17-14.37,22.56-20.18s10.77-7.52,14.71-14-1.2-21,14.36-22.91,25-15.39,27.35-19.32,3.08-20.86,2.57-25,6.84-17.95,11.45-22.23,7.87-5.81,8.38-16.58-12-10.77-18.81-15.9-15-.69-21.2-2.22-7.52-10.26-15.73-10.26-9.06,2.39-13-3.48c-4.56-28.61-39.78-32.14-41.72-32.83s-11.28-6.95-10.14-9.91c.87-2.26,9-2.27,12.82-2.14-2.32-7.41-12.11-11.6-31.57-4.47-27.7,3.93-16.76-9.06-32-8.55s-22.4,20.69-29.07,15.9-11.62-3.76-14.87-1.71-3.93,2.56-9.06-1.37-10.43-11.28-5.13-17.27c5.81-13.85-4.45-17.26-10.77-20.34s-2.4-4.45-5.13-16.59c-7.36-13.5-17.1.52-18.47,6.67s-15,7.52-19.66,3.76-3.76-7.35-3.93-10.94-5.13-6-5.13-11.45c-6.67-25.65,15.73-37.62,23.42-30.95s13.85,8.38,15.73-.51c13.34-15.22,25.82,0,28.9,5.3s-.35,10.43,2.22,14c9.91,7.35,17.61,8.89,20.34,4.61s-5.47-6.49-7.52-9.4.51-5.81-2.22-8.89-2.22.68-3.59-7c-6.5-7.87,4.44-18.47,11.79-21.89s14.54-6.32,12.83-11.28-7.7-13.34,10.6-23.76,9.4-10.26,19.15-18.81,6.66-3.08,12.14.34,10.94,1.88,13.84-2.91,6.16,1,16.59-8.55c4.44-13.84-7.69-6.32-7.69-6.32s-6,7.35-8.38,3.25-5-2.23-7-4.45,6.15-8.38,8.38-10.09,8.37-3.07,10.6-6.15,8.72,0,12.65-6.67,6.67-4.27,5.47-.68-5.81,6.49-7.52,11.28-6.84,8.21-4.45,11.29,14.7-2.06,18.12.68,11.29,6.5,14.71-.68-9.58-12-13.34-21.2c2-22.23-1.37-20.52-7.52-22.91S628.56,364.88,619.33,344s-15.05,7.18-22.34,7.75-3.88-7.64-10.38-14.82c-33.05-22.79-40.69-18.8-40.57-3.3s.23,14.59,2.5,15.73a5.66,5.66,0,0,1,2.85,3.3s2.63,8.78.92,15.28-11.86,2.16-10.38,13.9,1.94,11.74.23,13.91-8,3.87-12.54-10-3.07-12.66-6.61-14.25-15.16-3.42-17.89-5.47-1-3-6.5-5.7c-7.52-3.76-14.13,1.48-18.12-4.22-4.33-9.92-9.23-9.69-10-11.06s-.57-6,1.59-10.48c20.75-17,24.85-25.19,30.44-23.94s11.17,6.5,15.27,6.5,4.1,2.17,4.79,6.15,8.32,4.34,9,.57,7.07-1,10.15-10.37c-.57-12.54-8.32-11.17-15.05-13s-4-4.22-4.22-7,3.76-1.94,7.53-10.15c8.54-20.06-12-22.34-15.28-11.17s-16.75,13.68-15.84,4.9c.6-5.79-.48-6.77-2.31-7.12-39.31,16.41-62.9,43.15-62.9,43.15s23.59-26.74,62.9-43.15a19.05,19.05,0,0,1-3.28-.63c-3.53-1.25-4.78-1.37-7.63-5.47s-2.51-7.29-8.44-9.57c-2.73-9.92-1-10.26.46-12.54s8.43.11,11.17-7-5.36-4.78-7.64-5.58.57-2.39-6.27-3.88c-7.29.12-5.24,5.93-8.66,7s-3.42,1.14-6.72.57c-6.16-6.27-9.58-5-10.6-4s-.8.68-5.48,1.59c-4.78-1.48-17.89,7.41-3.87,13.8s8.89,4.1,11.51,9.91c9.12,3.76,8-.8,12.65-7.07s6.61-1.36,4.79,4.11-2.51,3.87-5.36,6.72.46,9.12-3.76,9.58c-6.5-1.26-8.21,5.24-9.23,9.91s-5.81,4.79-5.81,4.79-16.87,1.71-14.82-3.76,10.71-4.56,13-13-3-6.39-5.92-7.3-4.56-4.1-8-9.8c-4.11-10.72-2.06-3.42-1.14-13.68-4.79-10.26-13.23-5.24-20.75-.46s-25.76,1.6-28.49-.45.45-4.33-10.72-9.12c-28.26-4.1-36.24-1.14-36.93,5s.91,4.33-3.87,10,3.19,13.45,11.4,18.69c10,3,9.11-10,13-11.63,6.61,2.51,3.87,4.33,9.8,9.12,11.4,27.13,48.1,14.14,50.15,15s.46,3.42,3.42,3.42c-1.14,10.71-9.57,13.9-14.13,11.85s-11.63-3.42-15.27-2.74-10.49.92-14.82-4.33-48.79-22.11-66.8-15.27c-17.09,8.66-29.17,8.89-36.7,9.12s-26-12.54-50.38-11.86-29.63-3-34-6.61-9.81,2.06-11.17,2.74-15.73,8.89-21.66,11.4-6.16-.91-13,5.7.22,5.47,5,6.15,21.2,11.86,20.29,15.27-6.16,2.51-8.89,1.14-.46-4.55-6.16-4.33-18.23,8.44-17.78,12.09,14.36,6.83,15.28,6.61,7.75.22,4.78,7.06-7.29,4.79-15.73,14.59-1.59,11.4,12.77,9.81c32.83,7.06,30.09,13,28,17.55s-12.54,6.61-20.06,12.08-10.26,5.24-13.68,6.16-13.68,4.78-9.57,8.43,8,1.14,15.73-5.47,11.62-8,15-9.58,11.4-1.82,13.68-5.92,10.94-4.56,15-2.28c13.9.68,10.94-8.21,6.38-13.45s8.2-17.1,8.43-9.58c-2.73,11.4,4.79,9.12,6.61,5s6.61-.23,10.95-2.74.22-6.38,3-8c7.52-2.5,0,10.49,9.8,8.9,22.8-3.2,18.24-.69,36.25,8s3.87,20.52,18.46,25.54c21.66,9.11,32.6,29.63,42.18,43.76S329,462,342.92,477C366.63,498.46,368,503,381,526.73s28.95,36.7,20.06,21-21.2-38.29-4.33-20.06C426.81,557.73,415.19,558,425,571.18s45.82,16.65,58.13,23.26,18.92,6.38,22.57,6.38,2.28,5,3.42,8.66S535.55,636.15,539,628.4s6.84,0,11.63,1.14,5,1.83,1.36,5.7c-2.28,8.66,1.14,8.21-1.14,14.82-5.24,3-10.48,6.15-13,12.77s-.68,10.25-1.82,15.27-6.16,13,.45,16.64,14.59,14.36,16.87,20.74,3.42,18.93,16.42,22.35,14.36,10.71,14.13,29.17-3.42,25.76-6.61,31.92-.69,25.53-.46,35.56-13.22,23.82-8.6,37.84,2.56,14.88-3.76,19-5,17.78-4.45,21.2A49.62,49.62,0,0,0,565.81,927c2.23,3.25,0,8.38,6.33,19.67,24.45,15,44.11,7.18,32.31-.86s-13.85-12.65-16.24-18,16.24-14,19-19.32-9.41-12.48-8.89-17.61,11.11-5.64,16.41-10.94,5.64-17.78,11.8-23.94,20.69.17,19.66-9.06c-.33-2.94-.63-5.09-.7-6.74a416.91,416.91,0,0,1-41.61-14.12,416.91,416.91,0,0,0,41.61,14.12C645.33,836.76,646.3,835.6,650.62,834.2ZM430.05,304c-1.69,3.13-11.55,20.59-11.55,20.59l-12.61-20.41a2.64,2.64,0,0,1-.23-.44,13,13,0,0,1,3.67-15.19c7.64-6.53,18.07-1.06,20.49,4.06l.4.81A12.7,12.7,0,0,1,430.05,304Zm178.49,496.5c-1.68,3.13-11.54,20.6-11.54,20.6l-12.62-20.42a3,3,0,0,1-.23-.44A13.08,13.08,0,0,1,587.82,785c7.65-6.53,18.08-1.06,20.5,4.06.13.27.26.54.4.81A12.74,12.74,0,0,1,608.54,800.46Z" transform="translate(-43.34 -39.5)"/><path class="cls-2" d="M715.76,336.38c-12-8.87-25-19.08-39.25-30.8q-5.81-4.77-11.53-9a18.26,18.26,0,0,0,2.79,8.09C696.86,344.8,709.89,344.91,715.76,336.38Z" transform="translate(-43.34 -39.5)"/><path class="cls-2" d="M541.93,261.84c8.44.45,12.66,10.37,20.63,13.22s10.15,8.66,6.62,13-1.26,10.6-6,11.06c-11,.23-16.86-.23-15.72,6.16s9.68,3.87,18.57,4,4.79,4.56,11.4,10.26,5.25,2.51,14.14,7.18,10.82-1,17.89-9.11,2.05-11.17-5.24-13.45-7.52-9.81,0-9.46,8.66,10.94,17.32,5.35c11.29-8.77,7.64-11.28,2.4-12.88s-7-4.44-8.78-9.8-14.93-2.85-15.84-6.16c-.84-3,4.23-3.38,3.08-6.92a152.36,152.36,0,0,0-80.61-2.53C529.94,262.13,537.81,261.62,541.93,261.84Z" transform="translate(-43.34 -39.5)"/><path class="cls-2" d="M602.35,264.26a4.87,4.87,0,0,0-.46-1.05c-4-7.64-8-3.88-15.28-9.81-8.66-8.89-17.78-8.43-22.79-11.28s-3.31-3.65-7.07-9.23c-2.9-4.32-37.64-2.37-53.29-1.27-13.91,8.73-10.16,13-8.26,16,2.17,3.42-.91,2.28,3.65,8.09,5.41,4.25,14.33,5.65,22.89,6.05A152.36,152.36,0,0,1,602.35,264.26Z" transform="translate(-43.34 -39.5)"/><path class="cls-2" d="M715.76,336.38c2.27-3.3,3.46-7.89,4.1-12,3-16.64,13.22-21.88,17.44-24.62,4.22-2.28,10.6-2.16,17.21-9.46s11.28-12.65,23.25-13.1c17,.45,23.71-4.45,33.06-12.77,5.24-9.92-4.56-13.11-8-21.54s4.67-10.37,11.62-8.78,9-5.24,10.38-12-1.14-6.84-5-11.62-4.44-11.4,2.62-12,2-7-1.48-10.6-3.65-3.65-3.42-7.64c1.25-11.51,28.38-24.05,40.35-25.07,8.44-12-18.81-13.45-29.52-8.21s-19.61,5.36-19.83,2.51,4-1.71,3.07-7.64-16.41-4.79-43.76-9.57c-54.94-12.09-69.31,4.78-77.06,9.57s-14.13.91-14.13.91S664.35,139.65,652,141s-22.34,14.59-37.39,16-12.53,9.57-8.2,15.27-.69,8.89-12.54,8.89c-10,0-18.59,7.67-21,10,4.08,2.46,10.37,6,12.32,5.71,3-.46,3,17.1,27.12,15S647,227.19,650.9,236.76s4.33,16.64,12.08,17.56c10.14,12.95.49,29,2,42.29q5.73,4.22,11.53,9C690.8,317.3,703.78,327.51,715.76,336.38Z" transform="translate(-43.34 -39.5)"/><path class="cls-2" d="M442,203c-4-.79-7-4.21-13.22-8.77-3.69-2.69-6.62-2.64-8.41-2.15-.68,5.25,1.08,7.47,3.28,11.27,2.51,4.33,6.5,1.71,10.49,8.32s5.7,5.47,11.05,5.81,7.07,6.5,13.91,6.72,3.19-2.05,14-2.5-1.6-5.82-12.54-12.88S446,203.82,442,203Z" transform="translate(-43.34 -39.5)"/><path class="cls-2" d="M434.56,190.49c5.47,1.36,6.61,5.24,13.91,5s3.19-4.56,11.85.23-1.14,3.87,1.83,7.75,15.73,6.15,21.2,12.31,31.46,7.07,42.85,6.84,10.72-5.7,21.21-14.59c6.61-4.56.22-9.12.68-14.13s11.17-.23,17.1-10.49c5.24-5.93-2.74-6.16,10.71-12.54s18.24-8.43,26.67-14.36,11.4-4.56,14.59-7.3c1.76-1.51,6.09-5.51,9.62-8.8a44.09,44.09,0,0,0-12.13-1.68C606,138.74,594.14,126,510,143.3c-9.12,2.28-21.2-4.33-25.3,5.24s13.9,7.07,14.36,11.85-3.65,11.4-12.09-.68-16.64-6.38-20.28,1.37-5.47,11.17,16.87,25.53c10.25,7.75,13.67,2,20.28,1.37s4.56,29-30.77,10.48c-7.07-1.36-1.37-13-8-15s-20.06,2.51-23.94-2-19.83-12.54-22.11,1.59C418.38,188.21,423.39,189.12,434.56,190.49Z" transform="translate(-43.34 -39.5)"/><path class="cls-2" d="M1129.85,729.62c-1.14,5.24-9.35,5.93-12.31,8s-3.19,16.41-2.51,20.51-7.75,22.34,1.37,24.4c16.87,4.1,18-16.87,18.69-23.94s5-11.17,6.39-15.27.22-5.47,1.14-9.12c1.72-6,1.9-9.65,1.44-11.92C1128.1,718.41,1130.9,724.79,1129.85,729.62Z" transform="translate(-43.34 -39.5)"/><path class="cls-2" d="M346.23,216.36c6,.23,10.83-7.07,17.1-.68s25.07,10.71,32.82,11.74,7.41-2.74,7.41-2.74a15.35,15.35,0,0,1,2.05-2.74c1.83-2.16,8.21.35,19.84-1.82C438,215,409,201,404.81,199.38s-3.53,4.67-3.76,8-10.6,2.73-12.54,1.48-2.73-1.71-7.63-3.19-5.93-4.11-8.44-7.19c-1.58-1.94,1.25-3.2,3.55-3.87-6.47-8.16-21.1,6.14-24.75,7.75-3.87,1.71-13.9,1.48-15.16,5.7S340.19,216.13,346.23,216.36Z" transform="translate(-43.34 -39.5)"/><path class="cls-2" d="M1437.26,827.19c-1.88,4.61,1,13.16,26,4.78,9.4-2.73,16.58.17,30.09-8,13.5-6.5,17.78-9.41,35.39.51,8.89,4.79,4.27,3.42,15.22,7.18s14.36,21.37,28.55,26.67c8.89,2.91,33.17,4.11,40.18-28,3.93-16.07,8.89-14.36,11.79-33.34.52-9.57-8.37-13-12.14-21s-13.67-10.25-20.85-24.44-13.34-31.29-20.52-31.63c-11.91-.57-.69,27.69-13.68,27.69-6.15-.68.34-1.54-17.61-9.06-4.07-2.23,1.22-7.51,1-18.36-1-.68-2.91-1.07-6.43-.45s-2.39-8-12.14-7.18c-9.57,1.71-3.93,19.49-10.09,21.2-4.44-.34-9.4-12.65-26.5-1.88-10.26,8.72-7.35,19.49-27.87,25.31-14.53,2.9-42.4,14.87-18.12,49.58a12.41,12.41,0,0,1,1.74,3.57,286.38,286.38,0,0,0,25.51-19.33,286.38,286.38,0,0,1-25.51,19.33C1442.4,814.27,1441.18,819.08,1437.26,827.19ZM1465.57,774a3.68,3.68,0,0,1-.23-.44,13.08,13.08,0,0,1,3.67-15.19c7.65-6.53,18.08-1.06,20.5,4.06.13.27.26.54.4.81a12.74,12.74,0,0,1-.18,10.58c-1.68,3.13-11.54,20.6-11.54,20.6Z" transform="translate(-43.34 -39.5)"/><path class="cls-2" d="M1149,606.06c-1.45-1.62-4.41-2.19-8.09-2.2q4.13,1.13,8.24,2.41Z" transform="translate(-43.34 -39.5)"/><path class="cls-2" d="M1732.7,846.34c-5.81-2.74-8.89-17.79-18.47-10.6-4.44,8.2,7.18,10.94,5.13,15.38s-.34,12.31-3.76,13.68-8.21-1-12,8.21-23.59,14.36-20.51,23.25c2.16,6.25,4.16,8.1,10.75,6.39,8.67-10.51,28.16-33.3,34.72-34.09,8.55-1,7.87-12.31,10.26-15.39S1745,847,1732.7,846.34Z" transform="translate(-43.34 -39.5)"/><path class="cls-2" d="M1592.5,867.19c-4.1,1.71-5.13-2.39-10.26-.34-4,3.43,1.45,13,4.13,17.14,2.72-.73,6.47-2.06,6.47-3.8,0-2.74,4.45-1.71,6.84-5.82S1596.6,865.48,1592.5,867.19Z" transform="translate(-43.34 -39.5)"/><path class="cls-2" d="M1488,709.73c1.54-3.08,5.47.51,9.06-4.28s-.17-5.81-3.42-5.47-1.2,2-4.45,3.59a6,6,0,0,1-5.64,0l-.62,11.58A11.64,11.64,0,0,0,1488,709.73Z" transform="translate(-43.34 -39.5)"/><path class="cls-2" d="M1459.14,615.35c-3.93,6.67-6.84,4.28-5.47,7.87s5,.68,7.7-3.25c.93-2.5,5.14-.44,3.79-8.52C1464.62,611,1462.51,609.64,1459.14,615.35Z" transform="translate(-43.34 -39.5)"/><path class="cls-2" d="M1437.37,693.08c-5.2.23-18.51.47-21.65-2.67-4.62-2.91-16.25-1.71-16.08,2.39s-1.19,6.67,14.54,8.72c5.13-2,5.81,6.67,14,6.16s15.9-.86,15.9-.86,4.1-6.15-3.25-8.89C1437.69,696.76,1437.4,694.92,1437.37,693.08Z" transform="translate(-43.34 -39.5)"/><path class="cls-2" d="M1462.56,709.73c5.61-1.71,2.87,4.78,7.76,3.62.15-1.25.37-2.86.62-4.31.51-2.9,5.3,1.2,7.35-1.53s5.81-6.16.51-6-8,1.2-12,.51-2.4.52-4.28,1.54-5.13.52-5.13.52S1456.41,711.61,1462.56,709.73Z" transform="translate(-43.34 -39.5)"/><path class="cls-2" d="M1455.38,652.45c-1.71-6.49,17.78-17.78-8.89-18.46-3.76,7.18-12.65,7.52-15,11.28-2.16,3.39-1,5.4-18.54,9.77-.77,3.39-1,8.09,2.12,11.43,5.47,5.82,1.71,7.87,8.55,11.63s20.18,5.81,22.91,4.1.34-10.26,6.84-17.1S1460.85,657.58,1455.38,652.45Z" transform="translate(-43.34 -39.5)"/><path class="cls-2" d="M1454.69,702.21c-2.22-1.2-7.52-.52-6.84,1.36s-1.88,3.08.68,3.59a39,39,0,0,0,6.22.37C1455.29,706.32,1456.47,703.17,1454.69,702.21Z" transform="translate(-43.34 -39.5)"/><path class="cls-2" d="M1490.3,657.48c.5-1.39.48-2.68-1.18-3-3.88-.68-4.33.35-6.72,1.6s-11.52-1.82-16.19,1.82c-1.94.8-7.18,6.27-7,11s-1.14,18.92,5.58,21.08,2.62-8,3.42-9.91,3.42-1.26,4.1,2.05,5.48,4.67,6.73,1.25-4.67-6-5.59-8.77,7.07-.23,7.41-5.48-7.86-3.07-8.09-5C1472.63,662.44,1483.75,666.5,1490.3,657.48Z" transform="translate(-43.34 -39.5)"/><path class="cls-2" d="M1500.77,679.3c.69-1.89,2.14-1.46,1.63-4.79-1.37-.14-4.71-.13-7.44-.09v9.32S1499.15,685.45,1500.77,679.3Z" transform="translate(-43.34 -39.5)"/><path class="cls-2" d="M1382.07,667.3c-4-4.8-16-24.1-34.17-28-1.11,3.43-1.57,9.77,6.47,15.72,11.8,8.72,14,28,20.69,31.46s10.43,5.13,12,6.49,5,3.42,7.18-.68,5.3-4.27,1.54-18C1394,668.5,1390.28,676.7,1382.07,667.3Z" transform="translate(-43.34 -39.5)"/><path class="cls-2" d="M1506.67,657.13c-1.71-1.37,0-3.88-3.19-4.68s-3.3,6.39-4.56,7.3a5.57,5.57,0,0,0-2.05,4.1h10.94S1508.38,658.49,1506.67,657.13Z" transform="translate(-43.34 -39.5)"/><path class="cls-2" d="M1514.79,682.63c1.12-5.64-1.11-6-2.82-7.18s-2.73-1.37-3.5-4.1a2.28,2.28,0,0,0-.34-.7c-2.61.08-6.1.48-4.88,2.15,1.88,2.56,1.29,2.65,1.11,7.18S1510.61,683.14,1514.79,682.63Z" transform="translate(-43.34 -39.5)"/><path class="cls-2" d="M1480.51,610.22c-2.39,0-2.73-4.44-7.52-8.72s-11.45,2.4-3.08,8.89,8.72,13.34,4.28,15.22c-3.21,1.36-2.77,6.53-2.27,9.31,7.57-1.47,11.66-6.08,12.18-1.79.69,5.65,8.9,7.87,9.24,3.42s.68-4.44,5.3-9.74,1.19-7.87-2.05-10.6-1.2-4.11-2.57-9.58-12.48-11.45-16.58-15.21,4.44-15.22-2.91-16.59-8.72,8.55-8.55,14.71,3.76,7.69,8.38,9.57S1482.91,610.22,1480.51,610.22Z" transform="translate(-43.34 -39.5)"/><path class="cls-2" d="M830.65,296.83c-5.9,3.16-6.93,1.71-10.09,1.71s-10.77-8.38-13.25-4.7c-3.16,10.26-2.73,9.4,5.81,15.47a28,28,0,0,1,9.67,11.46c5-1.53,9-4.06,10.94-5,3.42-1.63,24.45-6.41,18-15.73S836.55,293.67,830.65,296.83Z" transform="translate(-43.34 -39.5)"/><path class="cls-2" d="M1108.65,606.75c-2.33-2.33-1.06-5.09-1.89-9.49a311.84,311.84,0,0,0-55.14-1.58c-7.36,20.07-14.54,43.77-22.31,72.1-12.52,44.54-30.62,79.38-52.37,106.41-.11,5.8-.25,11.67,1.77,15.61,9.12,12.77,13.91,36.25,29.64,41.26,37.15,6.16,61.77-44.45,63.83-57.22s-1.6-11.39,11.39-24.62,15.51-20.06,11.4-37.84-5.47-25.76,6.16-36.47c40.65-29.14,53.54-61.61,48-68.64q-4.11-1.29-8.24-2.41C1129.54,603.85,1111.23,609.33,1108.65,606.75Z" transform="translate(-43.34 -39.5)"/><path class="cls-2" d="M1113,602.42a107.32,107.32,0,0,0,11.08-2.44q-5.34-1-10.69-1.82C1113.27,599.86,1113.12,601.35,1113,602.42Z" transform="translate(-43.34 -39.5)"/><path class="cls-2" d="M1548.7,706.19c18.34-.11,27.24,7.36,28.07,2.34,1-6.15,2.57-8.38,7-6.32s1.71,4.78,7.18,9.06c5.13,3.59,12.31,6.15,18.13,2.05,2.05-7-3.94-7.35-6.84-9.4s-2.57-4.79-7-10.95c-10.26-14.19-22.57-16.24-28-18.29-14.71-8.89-22.91-4.79-25-2s-7,3.76-7.36-1c.52-9.06-9.06-9.57-14.7-8.72s-6.5,9.41-.68,10.6c7.18,1,5,2.4,3.42,3.76-3.59,4.62,3.76,6,8,6.16,8.89,3.76,20.35,7,18,14.19A12.63,12.63,0,0,0,1548.7,706.19Z" transform="translate(-43.34 -39.5)"/><path class="cls-2" d="M1789.12,291.7c-1.82-1.82-18.24-4.1-25.76-10.71-19.61-15.05-46.28-12.31-51.29-12.31s-9.12,2.5-12.08.91c-7.53-3.65-30.32-2.51-36.25-2.74s-5.47,1.37-10.49-8-36.24-2.27-44.45-8.43-16.19-4.79-22.34-7.29-5-8-16-6.16-3.87,9.35-12.76,10.71-3,5.25-22.57,7.07-23.94-5-26.22-12.08c-10.94-17.55-25.53-7.07-27.58-4.79s-6.84,3-13.22.23c-12.77-8-23.48-8.89-33.51-5s-12.77-4.34-9.35-8.21c8.21-3.65,10.71-8,5.93-16.64s-25.53-2.05-28.5-7.07c-11.4-11.85-17.55-5.93-21.43-1.37s-13.67,10.49-23.93,11.4c-36.93,3.19-37.16,10-38.76,14.36-.68,4.33-6.84,8.44-11.39,6.16-18.24-1.14-24.17,6.15-31.46,11.62s-9.58,5.93-18.24,4.79-10.94-17.1-18-10.49c-19.15,21-16.64,25.31-9.12,28.5,10,8,.23,12.31-5.47,8-30.09-15-29.63-6.84-31.46-4.33s-3.42,2.73-9.57,2.28c-41.49-3-73.41,16.64-82.53,28.72-19.83,13.45-29.4,1.37-28-5.7,5-7.52,22.34,5.24,28-5.24s-7.06-13.45-16.41-15.28-23.25-13.67-41.94-21c-29-2.28-37.16,6.84-46.28,11.4s-16.41,18.69-22.8,29.18-31.68,26-35.79,32.14c-4.33,11.86-.45,10.49.46,13s-2.51,13.22,1.82,15.73c11.17,3,13.68-6.39,22.12-8.21,5.57.13,6.85,7,8,13.38L978,358.5q6.06-1.33,12-2.56c1.14-4.45,2.82-4.44,4.88-7.93,6.84-7.07.45-10.49-1.6-16.41s3-10,13.45-16.87,5-13.45,9.12-16.87c11.85-3.88,9.57,8.89,7.07,13s-16,10.49-13.91,19.61,15.5,8.66,11.63,14.58a49.9,49.9,0,0,0-6.28,6.19c125-22.47,224.69-14.11,300.38,5-4-24.23-18.29-46.61-36.94-60.08,18.65,13.47,32.94,35.85,36.94,60.08,71.83,18.17,122.08,46.05,151.86,66.54-29.78-20.49-80-48.37-151.86-66.54,6.35,38.47-13.27,81.62-82.68,101.22-78.15,22.08-119.39,36.78-148.54,75.33,2.89,3.91,4.5,8.66,6,10.78,2.51,3.65,18,33.74,21.89,39,2.33,3.16,2.35,10.35,2,15.58q5.36.8,10.69,1.82c35.18-9.64,61.07-34.41,65.11-36.77,5.3-11-8.89-15.22-18.81-16.76s-15.39-1.71-19-5.3-21.88-20.69-14.7-25.47c6.84-1.2,14.7,8.2,27.18,21.2s37.28,8.89,44.29,4.78c13.84-2.56,23.93,10.09,27.35,16.76s8,5.81,9.23,2.9,4.62-3.76,5.13.86c6.33,40.35,18.81,63.26,22.23,67.36,0,0,11.8-19.83,14.19-29.58s-2.22-10.25,5.81-15.73,22.57-21.54,28.9-26.32,20.68,5.3,22.57,16.58,6.66,6.33,12,11.28c8.55,7.87,5.82,11.63,7.53,27,.68,27,26.67,52,27.69,46.16,4.79-25.3-20.17-36.25-19.14-49.58,4.78-12.31,19.49,8.55,23.93,14.7,8.21-2.39,19.15-15,19.49-26s-6.84-8.2-13-18.12c-1-18.81,25.3-20.86,38.64-25.3,52.66-20.52,26.33-56.2,19.94-65.88-10.37-20.41,5.7-30.78,10.83-22.69s4.33,5.47,9.35,4,6.72,2.4,11.17,8.32.46,13.11,4.79,15.28c10.82,5,15.16-6.73,10.71-14.71-5.7-8.32-4.67-8.77-1.48-14.24,14.82-20.75,21.54-13.68,27.53-19.15,21.37-16.59,34.7-43.77,36.41-54.54s-18-10.6-25.13-14,13.85-19,20.86-25.82,14.53-3.93,25.3-3.25,8-6,22.4-1.08c11.74,6.61,16.67-6.61,22.14-11.23s10.43-5,15.82-1.88,6.32,2.91,10.42-4.44,10.78-9.24,13.51-4.28-7,15.73-16.41,20.18-20.52,9.91-23.94,16.75-6.67,38.47,4.28,37.53,14.53-22.57,23.59-25.65,2.31-16.07,5.13-21,21.46-14.44,25.22-13.42c12.39,3.25,16.84-.94,20.17-2.82s17.1-7.86,24.45-11.45,1.54-12.83.94-16.93,5.47-.68,9.49-3.59-.68-10.43,7.61-8.89,7.69,14.45,17.27,16.5,6.07-3.16,10.17-6.5,6.75-.34,8.86-4.44C1796.41,295.12,1790.94,293.53,1789.12,291.7Zm-522.24.91a5.23,5.23,0,0,1-1.24-.24L1259,290.2l-15.7,17.33-1.93-4.17,8.18-13.17a12.15,12.15,0,0,1-2.13-1.26c-1.55-1.05.62-1.74.62-1.74l2.68.94a27.46,27.46,0,0,0,1.29-2.43c-2.17-.14-7.87-3.24-7.87-3.24l-5.31,2.87-.84-2.18,3.66-3.7-.23-5.43,1.73-1.56s2.24,5.54,2.71,6.94c1.19.12,7.31,2.06,7.31,2.06l.25-1.86a5.49,5.49,0,0,1-1.81-.7c-2.2-1.33.65-2,.65-2l2.28.44,3.92-14.18,4.46-1.07-1.42,22.53s2.76,1.45,5.61,2.61a4.71,4.71,0,0,1,1.1.71C1273.55,292.2,1268.76,292.73,1266.88,292.61Zm227.79,145.66a11.76,11.76,0,0,1,1.54,1.93c1.07,1.54-1.2,1.41-1.2,1.41l-2.17-1.84a26.3,26.3,0,0,0-2.07,1.81c2,.9,6.19,5.84,6.19,5.84l6-.78V449l-4.74,2.15-1.73,5.14-2.18.84s-.1-6,0-7.45c-1.07-.53-6.08-4.54-6.08-4.54l-.9,1.64a5.7,5.7,0,0,1,1.43,1.3c1.58,2-1.33,1.67-1.33,1.67l-2-1.23-8.74,11.84-4.55-.6,9.4-20.52s-2.06-2.35-4.3-4.46a4.54,4.54,0,0,1-.78-1.06c-3.42-5.9,1.25-4.68,3-3.89a5.19,5.19,0,0,1,1.07.67l5.39,4.39,20.87-10.55.31,4.58Z" transform="translate(-43.34 -39.5)"/><path class="cls-2" d="M951.42,605.56a4.58,4.58,0,0,0-1.25.41c-2.71,1.45-5.58,2.66-5.58,2.66L928.1,593.2l-2,4.12,8.45,12-1.8,1.48s-1.27,2.64,1.16,1.8a5.69,5.69,0,0,0,1.69-1l1.27,1.38s-5.39,3.48-6.23,4.33c-1.38-.53-7.08-2.32-7.08-2.32l.1,2.32,4.34,3.28.53,5.17,2.21.74,1.17-5.91s6-2.43,7.5-4a26.61,26.61,0,0,1,1.05,2.54L938,620.68s-.84,2.11,1,1.58a11.76,11.76,0,0,0,2.32-.85l5,14.69,4.43,1.16-3.38-23.14,5.87-3.71a5.09,5.09,0,0,0,1-.81C955.47,608.23,958.11,604.19,951.42,605.56Z" transform="translate(-43.34 -39.5)"/><path class="cls-2" d="M1489.73,773.79a12.74,12.74,0,0,0,.18-10.58c-.14-.27-.27-.54-.4-.81-2.42-5.12-12.85-10.59-20.5-4.06a13.08,13.08,0,0,0-3.67,15.19,3.68,3.68,0,0,0,.23.44l12.62,20.42S1488.05,776.92,1489.73,773.79Zm-16.85-5.06a5.25,5.25,0,1,1,5.24,5.08A5.15,5.15,0,0,1,1472.88,768.73Z" transform="translate(-43.34 -39.5)"/><ellipse class="cls-2" cx="1434.78" cy="729.24" rx="5.24" ry="5.08"/><path class="cls-2" d="M429.82,292.57c-2.42-5.12-12.85-10.59-20.49-4.06a13,13,0,0,0-3.67,15.19,2.64,2.64,0,0,0,.23.44l12.61,20.41s9.86-17.46,11.55-20.59a12.7,12.7,0,0,0,.17-10.58ZM418.44,304a5.08,5.08,0,1,1,5.24-5.08A5.17,5.17,0,0,1,418.44,304Z" transform="translate(-43.34 -39.5)"/><ellipse class="cls-2" cx="375.09" cy="259.41" rx="5.24" ry="5.08"/><path class="cls-2" d="M608.32,789.07c-2.42-5.12-12.85-10.59-20.5-4.06a13.08,13.08,0,0,0-3.67,15.19,3,3,0,0,0,.23.44L597,821.06s9.86-17.47,11.54-20.6a12.74,12.74,0,0,0,.18-10.58C608.58,789.61,608.45,789.34,608.32,789.07Zm-11.39,11.41a5.08,5.08,0,1,1,5.24-5.08A5.16,5.16,0,0,1,596.93,800.48Z" transform="translate(-43.34 -39.5)"/><ellipse class="cls-2" cx="553.59" cy="755.91" rx="5.24" ry="5.08"/><path class="cls-2" d="M1485.85,434.87l-5.39-4.39a5.19,5.19,0,0,0-1.07-.67c-1.71-.79-6.38-2-3,3.89a4.54,4.54,0,0,0,.78,1.06c2.24,2.11,4.3,4.46,4.3,4.46l-9.4,20.52,4.55.6,8.74-11.84,2,1.23s2.91.37,1.33-1.67a5.7,5.7,0,0,0-1.43-1.3l.9-1.64s5,4,6.08,4.54c-.06,1.47,0,7.45,0,7.45l2.18-.84,1.73-5.14,4.74-2.15v-2.34l-6,.78s-4.22-4.94-6.19-5.84a26.3,26.3,0,0,1,2.07-1.81l2.17,1.84s2.27.13,1.2-1.41a11.76,11.76,0,0,0-1.54-1.93L1507,428.9l-.31-4.58Z" transform="translate(-43.34 -39.5)"/><path class="cls-2" d="M1268.24,287.91a4.71,4.71,0,0,0-1.1-.71c-2.85-1.16-5.61-2.61-5.61-2.61l1.42-22.53-4.46,1.07-3.92,14.18-2.28-.44s-2.85.7-.65,2a5.49,5.49,0,0,0,1.81.7l-.25,1.86s-6.12-1.94-7.31-2.06c-.47-1.4-2.71-6.94-2.71-6.94l-1.73,1.56.23,5.43-3.66,3.7.84,2.18,5.31-2.87s5.7,3.1,7.87,3.24a27.46,27.46,0,0,1-1.29,2.43l-2.68-.94s-2.17.69-.62,1.74a12.15,12.15,0,0,0,2.13,1.26l-8.18,13.17,1.93,4.17L1259,290.2l6.61,2.17a5.23,5.23,0,0,0,1.24.24C1268.76,292.73,1273.55,292.2,1268.24,287.91Z" transform="translate(-43.34 -39.5)"/></g><g id="lines_copy" data-name="lines copy"><path class="cls-3" d="M644.23,617.26c-2.32-7.41-12.11-11.6-31.57-4.47-27.7,3.93-16.76-9.06-32-8.55s-22.4,20.69-29.07,15.9-11.62-3.76-14.87-1.71-3.93,2.56-9.06-1.37-10.43-11.28-5.13-17.27c5.81-13.85-4.45-17.26-10.77-20.34s-2.4-4.45-5.13-16.59c-7.36-13.5-17.1.52-18.47,6.67s-15,7.52-19.66,3.76-3.76-7.35-3.93-10.94-5.13-6-5.13-11.45c-6.67-25.65,15.73-37.62,23.42-30.95s13.85,8.38,15.73-.51c13.34-15.22,25.82,0,28.9,5.3s-.35,10.43,2.22,14c9.91,7.35,17.61,8.89,20.34,4.61s-5.47-6.49-7.52-9.4.51-5.81-2.22-8.89-2.22.68-3.59-7c-6.5-7.87,4.44-18.47,11.79-21.89s14.54-6.32,12.83-11.28-7.7-13.34,10.6-23.76,9.4-10.26,19.15-18.81,6.66-3.08,12.14.34,10.94,1.88,13.84-2.91,6.16,1,16.59-8.55c4.44-13.84-7.69-6.32-7.69-6.32s-6,7.35-8.38,3.25-5-2.23-7-4.45,6.15-8.38,8.38-10.09,8.37-3.07,10.6-6.15,8.72,0,12.65-6.67,6.67-4.27,5.47-.68-5.81,6.49-7.52,11.28-6.84,8.21-4.45,11.29,14.7-2.06,18.12.68,11.29,6.5,14.71-.68-9.58-12-13.34-21.2c2-22.23-1.37-20.52-7.52-22.91S628.56,364.88,619.33,344s-15.05,7.18-22.34,7.75-3.88-7.64-10.38-14.82c-33.05-22.79-40.69-18.8-40.57-3.3s.23,14.59,2.5,15.73a5.66,5.66,0,0,1,2.85,3.3s2.63,8.78.92,15.28-11.86,2.16-10.38,13.9,1.94,11.74.23,13.91-8,3.87-12.54-10-3.07-12.66-6.61-14.25-15.16-3.42-17.89-5.47-1-3-6.5-5.7c-7.52-3.76-14.13,1.48-18.12-4.22-4.33-9.92-9.23-9.69-10-11.06s-.57-6,1.59-10.48c20.75-17,24.85-25.19,30.44-23.94s11.17,6.5,15.27,6.5,4.1,2.17,4.79,6.15,8.32,4.34,9,.57,7.07-1,10.15-10.37c-.57-12.54-8.32-11.17-15.05-13s-4-4.22-4.22-7,3.76-1.94,7.53-10.15c8.54-20.06-12-22.34-15.28-11.17s-16.75,13.68-15.84,4.9-2.05-6.5-5.59-7.75-4.78-1.37-7.63-5.47-2.51-7.29-8.44-9.57c-2.73-9.92-1-10.26.46-12.54s8.43.11,11.17-7-5.36-4.78-7.64-5.58.57-2.39-6.27-3.88c-7.29.12-5.24,5.93-8.66,7s-3.42,1.14-6.72.57c-6.16-6.27-9.58-5-10.6-4s-.8.68-5.48,1.59c-4.78-1.48-17.89,7.41-3.87,13.8s8.89,4.1,11.51,9.91c9.12,3.76,8-.8,12.65-7.07s6.61-1.36,4.79,4.11-2.51,3.87-5.36,6.72.46,9.12-3.76,9.58c-6.5-1.26-8.21,5.24-9.23,9.91s-5.81,4.79-5.81,4.79-16.87,1.71-14.82-3.76,10.71-4.56,13-13-3-6.39-5.92-7.3-4.56-4.1-8-9.8c-4.11-10.72-2.06-3.42-1.14-13.68-4.79-10.26-13.23-5.24-20.75-.46s-25.76,1.6-28.49-.45.45-4.33-10.72-9.12c-28.26-4.1-36.24-1.14-36.93,5s.91,4.33-3.87,10,3.19,13.45,11.4,18.69c10,3,9.11-10,13-11.63,6.61,2.51,3.87,4.33,9.8,9.12,11.4,27.13,48.1,14.14,50.15,15s.46,3.42,3.42,3.42c-1.14,10.71-9.57,13.9-14.13,11.85s-11.63-3.42-15.27-2.74-10.49.92-14.82-4.33-48.79-22.11-66.8-15.27c-17.09,8.66-29.17,8.89-36.7,9.12s-26-12.54-50.38-11.86-29.63-3-34-6.61-9.81,2.06-11.17,2.74-15.73,8.89-21.66,11.4-6.16-.91-13,5.7.22,5.47,5,6.15,21.2,11.86,20.29,15.27-6.16,2.51-8.89,1.14-.46-4.55-6.16-4.33-18.23,8.44-17.78,12.09,14.36,6.83,15.28,6.61,7.75.22,4.78,7.06-7.29,4.79-15.73,14.59-1.59,11.4,12.77,9.81c32.83,7.06,30.09,13,28,17.55s-12.54,6.61-20.06,12.08-10.26,5.24-13.68,6.16-13.68,4.78-9.57,8.43,8,1.14,15.73-5.47,11.62-8,15-9.58,11.4-1.82,13.68-5.92,10.94-4.56,15-2.28c13.9.68,10.94-8.21,6.38-13.45s8.2-17.1,8.43-9.58c-2.73,11.4,4.79,9.12,6.61,5s6.61-.23,10.95-2.74.22-6.38,3-8c7.52-2.5,0,10.49,9.8,8.9,22.8-3.2,18.24-.69,36.25,8s3.87,20.52,18.46,25.54c21.66,9.11,32.6,29.63,42.18,43.76S329,462,342.92,477C366.63,498.46,368,503,381,526.73s28.95,36.7,20.06,21-21.2-38.29-4.33-20.06C426.81,557.73,415.19,558,425,571.18s45.82,16.65,58.13,23.26,18.92,6.38,22.57,6.38,2.28,5,3.42,8.66S535.55,636.15,539,628.4s6.84,0,11.63,1.14,5,1.83,1.36,5.7c-2.28,8.66,1.14,8.21-1.14,14.82-5.24,3-10.48,6.15-13,12.77s-.68,10.25-1.82,15.27-6.16,13,.45,16.64,14.59,14.36,16.87,20.74,3.42,18.93,16.42,22.35,14.36,10.71,14.13,29.17-3.42,25.76-6.61,31.92-.69,25.53-.46,35.56-13.22,23.82-8.6,37.84,2.56,14.88-3.76,19-5,17.78-4.45,21.2A49.62,49.62,0,0,0,565.81,927c2.23,3.25,0,8.38,6.33,19.67,24.45,15,44.11,7.18,32.31-.86s-13.85-12.65-16.24-18,16.24-14,19-19.32-9.41-12.48-8.89-17.61,11.11-5.64,16.41-10.94,5.64-17.78,11.8-23.94,20.69.17,19.66-9.06-1.88-10.77,4.45-12.82c19.83-.69,20.17-14.37,22.56-20.18s10.77-7.52,14.71-14-1.2-21,14.36-22.91,25-15.39,27.35-19.32,3.08-20.86,2.57-25,6.84-17.95,11.45-22.23,7.87-5.81,8.38-16.58-12-10.77-18.81-15.9-15-.69-21.2-2.22-7.52-10.26-15.73-10.26-9.06,2.39-13-3.48c-4.56-28.61-39.78-32.14-41.72-32.83s-11.28-6.95-10.14-9.91c.87-2.26,9-2.27,12.82-2.14" transform="translate(-43.34 -39.5)"/><path class="cls-3" d="M376,194.59c-6.47-8.16-21.1,6.14-24.75,7.75-3.87,1.71-13.9,1.48-15.16,5.7s4.11,8.09,10.15,8.32,10.83-7.07,17.1-.68,25.07,10.71,32.82,11.74,7.41-2.74,7.41-2.74a15.35,15.35,0,0,1,2.05-2.74c1.83-2.16,8.21.35,19.83-1.82C438,215,409,201,404.81,199.38s-3.53,4.67-3.76,8-10.6,2.73-12.54,1.48-2.73-1.71-7.63-3.19-5.93-4.11-8.44-7.19c-1.58-1.94,1.25-3.2,3.55-3.87" transform="translate(-43.34 -39.5)"/><path class="cls-3" d="M420.34,192.1c-.68,5.25,1.08,7.47,3.28,11.27,2.51,4.33,6.5,1.71,10.49,8.32s5.7,5.47,11.05,5.81,7.07,6.5,13.91,6.72,3.19-2.05,14-2.5-1.6-5.82-12.54-12.88S446,203.82,442,203s-7-4.21-13.22-8.77c-3.69-2.69-6.62-2.64-8.41-2.15" transform="translate(-43.34 -39.5)"/><path class="cls-3" d="M503.46,231.62c-13.91,8.73-10.16,13-8.26,16,2.17,3.42-.91,2.28,3.65,8.09,10.6,8.32,34.65,5.7,43.08,6.16s12.66,10.37,20.63,13.22,10.15,8.66,6.62,13-1.26,10.6-6,11.06c-11,.23-16.86-.23-15.72,6.16s9.68,3.87,18.57,4,4.79,4.56,11.4,10.26,5.25,2.51,14.14,7.18,10.82-1,17.89-9.11,2.05-11.17-5.24-13.45-7.52-9.81,0-9.46,8.66,10.94,17.32,5.35c11.29-8.77,7.64-11.28,2.4-12.88s-7-4.44-8.78-9.8-14.93-2.85-15.84-6.16,5.24-3.41,2.62-8c-4-7.64-8-3.88-15.28-9.81-8.66-8.89-17.78-8.43-22.79-11.28s-3.31-3.65-7.07-9.23c-2.9-4.32-37.64-2.37-53.29-1.27" transform="translate(-43.34 -39.5)"/><path class="cls-3" d="M822.79,320.77c5-1.53,9-4.06,10.94-5,3.42-1.63,24.45-6.41,18-15.73s-15.21-6.41-21.11-3.25-6.93,1.71-10.09,1.71-10.77-8.38-13.25-4.7c-3.16,10.26-2.73,9.4,5.81,15.47a28,28,0,0,1,9.67,11.46" transform="translate(-43.34 -39.5)"/><path class="cls-3" d="M626.78,140.42a44.09,44.09,0,0,0-12.13-1.68C606,138.74,594.14,126,510,143.3c-9.12,2.28-21.2-4.33-25.3,5.24s13.9,7.07,14.36,11.85-3.65,11.4-12.09-.68-16.64-6.38-20.28,1.37-5.47,11.17,16.87,25.53c10.25,7.75,13.67,2,20.28,1.37s4.56,29-30.77,10.48c-7.07-1.36-1.37-13-8-15s-20.06,2.51-23.94-2-19.83-12.54-22.11,1.59c-.68,5.25,4.33,6.16,15.5,7.53,5.47,1.36,6.61,5.24,13.91,5s3.19-4.56,11.85.23-1.14,3.87,1.83,7.75,15.73,6.15,21.2,12.31,31.46,7.07,42.85,6.84,10.72-5.7,21.21-14.59c6.61-4.56.22-9.12.68-14.13s11.17-.23,17.1-10.49c5.24-5.93-2.74-6.16,10.71-12.54s18.24-8.43,26.67-14.36,11.4-4.56,14.59-7.3c1.76-1.51,6.09-5.51,9.62-8.8" transform="translate(-43.34 -39.5)"/><path class="cls-3" d="M572.25,191.85l.68-.69" transform="translate(-43.34 -39.5)"/><path class="cls-3" d="M572.93,191.16c4.08,2.46,10.37,6,12.32,5.71,3-.46,3,17.1,27.12,15S647,227.19,650.9,236.76s4.33,16.64,12.08,17.56c12.31,15.73-4.56,36,4.79,50.38,40.35,55.62,49.81,34.3,52.09,19.71,3-16.64,13.22-21.88,17.44-24.62,4.22-2.28,10.6-2.16,17.21-9.46s11.28-12.65,23.25-13.1c17,.45,23.71-4.45,33.06-12.77,5.24-9.92-4.56-13.11-8-21.54s4.67-10.37,11.62-8.78,9-5.24,10.38-12-1.14-6.84-5-11.62-4.44-11.4,2.62-12,2-7-1.48-10.6-3.65-3.65-3.42-7.64c1.25-11.51,28.38-24.05,40.35-25.07,8.44-12-18.81-13.45-29.52-8.21s-19.61,5.36-19.83,2.51,4-1.71,3.07-7.64-16.41-4.79-43.76-9.57c-54.94-12.09-69.31,4.78-77.06,9.57s-14.13.91-14.13.91S664.35,139.65,652,141s-22.34,14.59-37.39,16-12.53,9.57-8.2,15.27-.69,8.89-12.54,8.89c-10,0-18.59,7.67-21,10" transform="translate(-43.34 -39.5)"/><path class="cls-3" d="M1113,602.42c40.73-6.77,71.74-36.61,76.19-39.21,5.3-11-8.89-15.22-18.81-16.76s-15.39-1.71-19-5.3-21.88-20.69-14.7-25.47c6.84-1.2,14.7,8.2,27.18,21.2s37.28,8.89,44.29,4.78c13.84-2.56,23.93,10.09,27.35,16.76s8,5.81,9.23,2.9,4.62-3.76,5.13.86c6.33,40.35,18.81,63.26,22.23,67.36,0,0,11.8-19.83,14.19-29.58s-2.22-10.25,5.81-15.72,22.57-21.55,28.9-26.33,20.68,5.3,22.57,16.58,6.66,6.33,12,11.28c8.55,7.87,5.82,11.63,7.53,27,.68,27,26.67,52,27.69,46.16,4.79-25.3-20.17-36.25-19.14-49.58,4.78-12.31,19.49,8.55,23.93,14.7,8.21-2.39,19.15-15,19.49-26s-6.84-8.2-13-18.12c-1-18.81,25.3-20.86,38.64-25.3,52.66-20.52,26.33-56.2,19.94-65.88-10.37-20.41,5.7-30.78,10.83-22.69s4.33,5.47,9.35,4,6.72,2.4,11.17,8.32.46,13.11,4.79,15.28c10.82,5,15.16-6.73,10.71-14.71-5.7-8.32-4.67-8.77-1.48-14.24,14.82-20.75,21.54-13.68,27.53-19.15,21.37-16.59,34.7-43.77,36.41-54.54s-18-10.6-25.13-14,13.85-19,20.86-25.82,14.53-3.93,25.3-3.25,8-6,22.4-1.08c11.74,6.61,16.67-6.61,22.14-11.23s10.43-5,15.82-1.88,6.32,2.91,10.42-4.44,10.78-9.24,13.51-4.28-7,15.73-16.41,20.18-20.52,9.91-23.94,16.75-6.67,38.47,4.28,37.53,14.53-22.57,23.59-25.65,2.31-16.07,5.13-21,21.46-14.44,25.22-13.42c12.39,3.25,16.84-.94,20.17-2.82s17.1-7.86,24.45-11.45,1.54-12.83.94-16.93,5.47-.68,9.49-3.59-.68-10.43,7.61-8.89,7.69,14.45,17.27,16.5,6.07-3.16,10.17-6.5,6.75-.34,8.86-4.44c4.33-6.16-1.14-7.75-3-9.58s-18.24-4.1-25.76-10.71c-19.61-15.05-46.28-12.31-51.29-12.31s-9.12,2.5-12.08.91c-7.53-3.65-30.32-2.51-36.25-2.74s-5.47,1.37-10.49-8-36.24-2.27-44.45-8.43-16.18-4.79-22.34-7.29-5-8-16-6.16-3.87,9.35-12.76,10.71-3,5.25-22.57,7.07-23.94-5-26.22-12.08c-10.94-17.55-25.53-7.07-27.58-4.79s-6.84,3-13.22.23c-12.77-8-23.48-8.89-33.51-5s-12.77-4.34-9.35-8.21c8.21-3.65,10.71-8,5.93-16.64s-25.53-2.05-28.5-7.07c-11.4-11.85-17.55-5.93-21.43-1.37s-13.67,10.49-23.93,11.4c-36.93,3.19-37.16,10-38.76,14.36-.68,4.33-6.84,8.44-11.39,6.16-18.24-1.14-24.17,6.15-31.46,11.62s-9.58,5.93-18.24,4.79-10.94-17.1-18-10.49c-19.15,21-16.64,25.31-9.12,28.5,10,8,.23,12.31-5.47,8-30.09-15-29.63-6.84-31.46-4.33s-3.42,2.73-9.57,2.28c-41.49-3-73.41,16.64-82.53,28.72-19.83,13.45-29.4,1.37-28-5.7,5-7.52,22.34,5.24,28-5.24s-7.06-13.45-16.41-15.28-23.25-13.67-41.94-21c-29-2.28-37.16,6.84-46.28,11.4s-16.41,18.69-22.8,29.18-31.68,26-35.79,32.14c-4.33,11.86-.45,10.49.46,13s-2.51,13.22,1.82,15.73c11.17,3,13.68-6.39,22.12-8.21,10,.23,6.15,22.34,12.76,23.93s13.22-7.06,14.36-13.22,3-5.7,5.25-9.57c6.84-7.07.45-10.49-1.6-16.41s3-10,13.45-16.87,5-13.45,9.12-16.87c11.85-3.88,9.57,8.89,7.07,13s-16,10.49-13.91,19.61,15.5,8.66,11.63,14.58c-8.44,7.3-10,10.49-9.58,18-1.14,10.72-22.57,17.56-36,16.19-13.22-2.74-41,9.12-48.32,21.2-10.49,8.21-16.19,10.26-22.8,7.52-20.75,3.65-10,11.4-2.51,15.05,13.45,7.07,10.72,22.57-.68,19.83-27.36-9.35-29.87,1.37-29.64,8.89s-8.2,18.92-.68,25.08,24.39,8.89,35.56,4.56,20.29-29.18,24.85-33.06c6.38-3.65,7.75,5.47,15.5,2.51s4.56-6.16,12.08-5c21.66,10.49,28.5,30.32,35.79,21,5.7-21.89-27.13-27.81-21.88-31.92s22.57,16.42,27.13,21,2,5.25,3.19,9.81,7.29-1.6,7.75,4.56c-.46,18.46,9.34,16.64,8.43,13.22s3.88-4.79,5.7-8.21-2.73-10.71-4.33-13,3.19-5.7,13-3.42c10.49,7.07,1.6,8.66,6.62,18S1046,481.59,1058,483s21.66,11.4,16.19,15.73-4.11,10.26-4.33,11.86-2.06,7.52-10.26,1.36-23-1.14-29-1.82-11.86-9.8-19.84-7.07.69,14.14-8,12.77-8.44-5.93-13.91-8.66-18.47-1.6-21.89-5.7,2.74-8.89-2.27-16.87-52.44-2.51-71.36,5.93-15.73,19.83-33.74,33.73-30.77,28-27.35,36.71,5.24,10,2.28,22.56,7.07,28,20.29,39.44c35.1,35.34,55.16,15.5,64.74,12.54s35.33,6.61,39.66,15-16.41,10.48.46,31.91,16.41,23,11.17,36-7.52,9.8-8.43,15.5c-.46,15,7.75,17.78,12.31,24.85s-.23,23,3.87,31c9.12,12.77,13.91,36.25,29.64,41.26,37.15,6.16,61.77-44.45,63.83-57.22s-1.6-11.39,11.39-24.62,15.51-20.06,11.4-37.84-5.47-25.76,6.16-36.47c41-29.41,53.8-62.24,47.87-68.85s-36.93,4.11-40.35.69.91-7.75-5-16.87-17.32-14.59-20.06-24.17c-5.47-21-6.83-18.92-6.83-18.92s-11-21.43-1.83-19.83,12.08,13,14.59,16.64,18,33.74,21.89,39c3.08,4.18,2.12,15.43,1.6,19.84" transform="translate(-43.34 -39.5)"/><path class="cls-3" d="M1144.06,722.26c-16-3.85-13.16,2.53-14.21,7.36-1.14,5.24-9.35,5.93-12.31,8s-3.19,16.41-2.51,20.51-7.75,22.34,1.37,24.4c16.87,4.1,18-16.87,18.69-23.94s5-11.17,6.39-15.27.22-5.47,1.14-9.12c1.72-6,1.9-9.65,1.44-11.92" transform="translate(-43.34 -39.5)"/><path class="cls-3" d="M1540.63,720.09c-1-.68-2.91-1.07-6.43-.45s-2.39-8-12.14-7.18c-9.57,1.71-3.93,19.49-10.09,21.2-4.44-.34-9.4-12.65-26.5-1.88-10.26,8.72-7.35,19.49-27.87,25.31-14.53,2.9-42.4,14.87-18.12,49.58,3.42,5,2.91,9.92-2.22,20.52-1.88,4.61,1,13.16,26,4.78,9.4-2.73,16.58.17,30.09-8,13.5-6.5,17.78-9.41,35.39.51,8.89,4.79,4.27,3.42,15.22,7.18s14.36,21.37,28.55,26.67c8.89,2.91,33.17,4.11,40.18-28,3.93-16.07,8.89-14.36,11.79-33.34.52-9.57-8.37-13-12.14-21s-13.67-10.25-20.85-24.44-13.34-31.29-20.52-31.63c-11.91-.57-.69,27.69-13.68,27.69-6.15-.68.34-1.54-17.61-9.06-4.07-2.23,1.22-7.51,1-18.36" transform="translate(-43.34 -39.5)"/><path class="cls-3" d="M1548.7,706.19c18.34-.11,27.24,7.36,28.07,2.34,1-6.15,2.57-8.38,7-6.32s1.71,4.78,7.18,9.06c5.13,3.59,12.31,6.15,18.13,2.05,2.05-7-3.94-7.35-6.84-9.4s-2.57-4.79-7-10.95c-10.26-14.19-22.57-16.24-28-18.29-14.71-8.89-22.91-4.79-25-2s-7,3.76-7.36-1c.52-9.06-9.06-9.57-14.7-8.72s-6.5,9.41-.68,10.6c7.18,1,5,2.4,3.42,3.76-3.59,4.62,3.76,6,8,6.16,8.89,3.76,20.35,7,18,14.19a12.63,12.63,0,0,0-.2,8.6" transform="translate(-43.34 -39.5)"/><path class="cls-3" d="M1483,715.15a11.64,11.64,0,0,0,5.07-5.42c1.54-3.08,5.47.51,9.06-4.28s-.17-5.81-3.42-5.47-1.2,2-4.45,3.59a6,6,0,0,1-5.64,0l-.62,11.58" transform="translate(-43.34 -39.5)"/><path class="cls-3" d="M1470.32,713.35c.15-1.25.37-2.86.62-4.31.51-2.9,5.3,1.2,7.35-1.53s5.81-6.16.51-6-8,1.2-12,.51-2.4.52-4.28,1.54-5.13.52-5.13.52-1,7.52,5.13,5.64c5.61-1.71,2.87,4.78,7.76,3.62" transform="translate(-43.34 -39.5)"/><path class="cls-3" d="M1453.56,707.53c-.13.3-.23.49-.23.49" transform="translate(-43.34 -39.5)"/><path class="cls-3" d="M1454.75,707.53c.54-1.21,1.72-4.36-.06-5.32-2.22-1.2-7.52-.52-6.84,1.36s-1.88,3.08.68,3.59a39,39,0,0,0,6.22.37" transform="translate(-43.34 -39.5)"/><path class="cls-3" d="M1437.37,693.08c-5.2.23-18.51.47-21.65-2.67-4.62-2.91-16.25-1.71-16.08,2.39s-1.19,6.67,14.54,8.72c5.13-2,5.81,6.67,14,6.16s15.9-.86,15.9-.86,4.1-6.15-3.25-8.89c-3.16-1.17-3.45-3-3.48-4.85" transform="translate(-43.34 -39.5)"/><path class="cls-3" d="M1347.9,639.27c-1.11,3.43-1.57,9.77,6.47,15.72,11.8,8.72,14,28,20.69,31.46s10.43,5.13,12,6.49,5,3.42,7.18-.68,5.3-4.27,1.54-18c-1.71-5.81-5.47,2.39-13.68-7-4-4.8-16-24.1-34.17-28" transform="translate(-43.34 -39.5)"/><path class="cls-3" d="M1412.91,655c-.77,3.39-1,8.09,2.12,11.43,5.47,5.82,1.71,7.87,8.55,11.63s20.18,5.81,22.91,4.1.34-10.26,6.84-17.1,7.52-7.52,2.05-12.65c-1.71-6.49,17.78-17.78-8.89-18.46-3.76,7.18-12.65,7.52-15,11.28-2.16,3.39-1,5.4-18.54,9.77" transform="translate(-43.34 -39.5)"/><path class="cls-3" d="M1495,674.42v9.32s4.19,1.71,5.81-4.44c.69-1.89,2.14-1.46,1.63-4.79-1.37-.14-4.71-.13-7.44-.09" transform="translate(-43.34 -39.5)"/><line class="cls-3" x1="1451.62" y1="634.93" x2="1451.62" y2="633.73"/><path class="cls-3" d="M1508.13,670.65c-2.61.08-6.1.48-4.88,2.15,1.88,2.56,1.29,2.65,1.12,7.18s6.24,3.16,10.42,2.65c1.12-5.64-1.11-6-2.82-7.18s-2.73-1.37-3.5-4.1a2.28,2.28,0,0,0-.34-.7" transform="translate(-43.34 -39.5)"/><path class="cls-3" d="M1496.87,663.85h10.94s.57-5.36-1.14-6.72,0-3.88-3.19-4.68-3.3,6.39-4.56,7.3a5.57,5.57,0,0,0-2.05,4.1" transform="translate(-43.34 -39.5)"/><path class="cls-3" d="M1490.3,657.48c.5-1.39.48-2.68-1.18-3-3.88-.68-4.33.35-6.72,1.6s-11.52-1.82-16.19,1.82c-1.94.8-7.18,6.27-7,11s-1.14,18.92,5.58,21.08,2.62-8,3.42-9.91,3.42-1.26,4.1,2.05,5.48,4.67,6.73,1.25-4.67-6-5.59-8.77,7.07-.23,7.41-5.48-7.86-3.07-8.09-5c-.19-1.64,10.93,2.42,17.48-6.6" transform="translate(-43.34 -39.5)"/><path class="cls-3" d="M1586.37,884c2.72-.73,6.47-2.06,6.47-3.8,0-2.74,4.45-1.71,6.84-5.82s-3.08-8.89-7.18-7.18-5.13-2.39-10.26-.34c-4,3.43,1.45,13,4.13,17.14" transform="translate(-43.34 -39.5)"/><path class="cls-3" d="M1693.87,902.65c8.67-10.51,28.16-33.3,34.73-34.09,8.54-1,7.86-12.31,10.25-15.39s6.16-6.15-6.15-6.83c-5.81-2.74-8.89-17.79-18.47-10.6-4.44,8.2,7.18,10.94,5.13,15.38s-.34,12.31-3.76,13.68-8.21-1-12,8.21-23.59,14.36-20.51,23.25c2.16,6.25,4.16,8.1,10.75,6.39" transform="translate(-43.34 -39.5)"/><path class="cls-3" d="M1465.16,611.45c-.54-.5-2.65-1.81-6,3.9-3.93,6.67-6.84,4.28-5.47,7.87s5,.68,7.7-3.25c.93-2.5,5.14-.44,3.79-8.52" transform="translate(-43.34 -39.5)"/><path class="cls-3" d="M1465.16,611.45a1.47,1.47,0,0,1,.14.14" transform="translate(-43.34 -39.5)"/><path class="cls-3" d="M1471.92,634.92c7.57-1.47,11.66-6.08,12.18-1.79.69,5.65,8.9,7.87,9.24,3.42s.68-4.44,5.3-9.74,1.19-7.87-2.05-10.6-1.2-4.11-2.57-9.58-12.48-11.45-16.58-15.21,4.44-15.22-2.91-16.59-8.72,8.55-8.55,14.71,3.76,7.69,8.38,9.57,8.55,11.11,6.15,11.11-2.73-4.44-7.52-8.72-11.45,2.4-3.08,8.89,8.72,13.34,4.28,15.22c-3.21,1.36-2.77,6.53-2.27,9.31" transform="translate(-43.34 -39.5)"/><path class="cls-4" d="M963.27,610.85q2.64-.76,5.77-1.62" transform="translate(-43.34 -39.5)"/><path class="cls-5" d="M980.55,606.28c64.6-15.52,216.91-35.48,281.68,98.47,78.39,162.13,145,133.16,195.24,93.68" transform="translate(-43.34 -39.5)"/><path class="cls-4" d="M1462.1,794.72c1.56-1.26,3.11-2.54,4.63-3.81" transform="translate(-43.34 -39.5)"/><path class="cls-4" d="M603.86,826.16s1.95.82,5.58,2.21" transform="translate(-43.34 -39.5)"/><path class="cls-6" d="M620.71,832.45c69.67,24.1,335.1,96.75,408.6-164.67,42.8-156,67.5-172.08,202.77-210.29,105.61-29.83,96-114.16,54.94-153.6" transform="translate(-43.34 -39.5)"/><path class="cls-4" d="M1282.55,299.88q-2.31-2-4.73-3.69" transform="translate(-43.34 -39.5)"/><path class="cls-4" d="M1466.62,422.81c-1.6-1.1-3.25-2.22-5-3.35" transform="translate(-43.34 -39.5)"/><path class="cls-7" d="M1451.55,413c-72.16-44.74-226.9-108.63-473.57-54.47-146.48,34-164.44,59.54-301.47-52.92-114.09-93.64-206.57-26.1-234.32-.87" transform="translate(-43.34 -39.5)"/><path class="cls-4" d="M437.81,308.83c-2.74,2.69-4.17,4.31-4.17,4.31" transform="translate(-43.34 -39.5)"/><path class="cls-8" d="M923.56,615.08l.1,2.32,4.34,3.28.53,5.17,2.21.74,1.17-5.91s6-2.43,7.5-4a26.61,26.61,0,0,1,1.05,2.54L938,620.68s-.84,2.11,1,1.58a11.76,11.76,0,0,0,2.32-.85l5,14.69,4.43,1.16-3.38-23.14,5.87-3.71a5.09,5.09,0,0,0,1-.81c1.29-1.37,3.93-5.41-2.76-4a4.58,4.58,0,0,0-1.25.41c-2.71,1.45-5.58,2.66-5.58,2.66L928.1,593.2l-2,4.12,8.45,12-1.8,1.48s-1.27,2.64,1.16,1.8a5.69,5.69,0,0,0,1.69-1l1.27,1.38s-5.39,3.48-6.23,4.33C929.26,616.87,923.56,615.08,923.56,615.08Z" transform="translate(-43.34 -39.5)"/><path class="cls-9" d="M1478.19,794.39,1465.57,774a3.68,3.68,0,0,1-.23-.44,13.08,13.08,0,0,1,3.67-15.19c7.65-6.53,18.08-1.06,20.5,4.06.13.27.26.54.4.81a12.74,12.74,0,0,1-.18,10.58C1488.05,776.92,1478.19,794.39,1478.19,794.39Z" transform="translate(-43.34 -39.5)"/><ellipse class="cls-10" cx="1434.78" cy="729.24" rx="5.24" ry="5.08"/><path class="cls-9" d="M418.5,324.55l-12.61-20.41a2.64,2.64,0,0,1-.23-.44,13,13,0,0,1,3.67-15.19c7.64-6.53,18.07-1.06,20.49,4.06l.4.81a12.74,12.74,0,0,1-.17,10.58C428.36,307.09,418.5,324.55,418.5,324.55Z" transform="translate(-43.34 -39.5)"/><ellipse class="cls-10" cx="375.09" cy="259.41" rx="5.24" ry="5.08"/><path class="cls-9" d="M597,821.06l-12.62-20.42a3,3,0,0,1-.23-.44A13.08,13.08,0,0,1,587.82,785c7.65-6.53,18.08-1.06,20.5,4.06.13.27.26.54.4.81a12.74,12.74,0,0,1-.18,10.58C606.86,803.59,597,821.06,597,821.06Z" transform="translate(-43.34 -39.5)"/><ellipse class="cls-10" cx="553.59" cy="755.91" rx="5.24" ry="5.08"/><path class="cls-8" d="M1494.29,457.11l2.18-.84,1.73-5.14,4.74-2.15v-2.34l-6,.78s-4.22-4.94-6.19-5.84a26.3,26.3,0,0,1,2.07-1.81l2.17,1.84s2.27.13,1.2-1.41a11.76,11.76,0,0,0-1.54-1.93L1507,428.9l-.31-4.58-20.87,10.55-5.39-4.39a5.19,5.19,0,0,0-1.07-.67c-1.71-.79-6.38-2-3,3.89a4.54,4.54,0,0,0,.78,1.06c2.24,2.11,4.3,4.46,4.3,4.46l-9.4,20.52,4.55.6,8.74-11.84,2,1.23s2.91.37,1.33-1.67a5.7,5.7,0,0,0-1.43-1.3l.9-1.64s5,4,6.08,4.54C1494.19,451.13,1494.29,457.11,1494.29,457.11Z" transform="translate(-43.34 -39.5)"/><path class="cls-8" d="M1243.18,272.46l-1.73,1.56.23,5.43-3.66,3.7.84,2.18,5.31-2.87s5.7,3.1,7.87,3.24a27.46,27.46,0,0,1-1.29,2.43l-2.68-.94s-2.17.69-.62,1.74a12.15,12.15,0,0,0,2.13,1.26l-8.18,13.17,1.93,4.17L1259,290.2l6.61,2.17a5.23,5.23,0,0,0,1.24.24c1.88.12,6.67-.41,1.36-4.7a4.71,4.71,0,0,0-1.1-.71c-2.85-1.16-5.61-2.61-5.61-2.61l1.42-22.53-4.46,1.07-3.92,14.18-2.28-.44s-2.85.7-.65,2a5.49,5.49,0,0,0,1.81.7l-.25,1.86s-6.12-1.94-7.31-2.06C1245.42,278,1243.18,272.46,1243.18,272.46Z" transform="translate(-43.34 -39.5)"/></g></svg>