<svg xmlns="http://www.w3.org/2000/svg" viewBox="0 0 1381.77 820.23"><defs><style>.cls-1{fill:#009245;}.cls-2{fill:none;stroke:#000;stroke-miterlimit:10;}</style></defs><g id="lines"><path class="cls-1" d="M614.18,332.49l17.87-32.41a7.31,7.31,0,0,0-6.48-10.83l-11.42.11v37.12h-8v4.07H595v-4.07h-8V289.63l-13,.13A7.3,7.3,0,0,0,567.9,301l20.19,32a7.3,7.3,0,0,0,6.27,3.41l13.5-.15A7.31,7.31,0,0,0,614.18,332.49Z" transform="translate(-245.12 -115.88)"/><polygon class="cls-1" points="361.35 225.33 351.85 225.54 351.85 283.95 351.85 302.79 351.85 400.89 348.58 400.89 348.58 404.73 351.85 404.73 351.85 407.66 345.8 407.66 345.8 415.34 351.85 415.34 351.85 454.07 361.35 454.07 361.35 415.34 367.69 415.34 367.69 407.66 361.35 407.66 361.35 404.73 364.71 404.73 364.71 400.89 361.35 400.89 361.35 302.79 361.35 283.95 361.35 225.33"/><polygon class="cls-1" points="531.44 402.33 531.44 509.08 534.51 509.08 534.51 406.36 595.18 406.36 655.47 406.36 655.47 509.08 658.92 509.08 658.92 402.33 531.44 402.33"/><path class="cls-1" d="M612.85,341.07l2.4-4.39L641,289.61h3.64l6.07-6.07-22.85.28-59.58.72-19.54.24,4.87,5.49,4.23.39,30,46,3.18,4.88,6-.13,9.5-.22Zm-18.49-4.66a7.3,7.3,0,0,1-6.27-3.41L567.9,301a7.3,7.3,0,0,1,6.11-11.2l13-.13v-2.24h27.19v2l11.42-.11a7.31,7.31,0,0,1,6.48,10.83l-17.87,32.41a7.31,7.31,0,0,1-6.32,3.77Z" transform="translate(-245.12 -115.88)"/><path class="cls-1" d="M840.3,522.25V625h60.28V522.25ZM849,586.34a2.69,2.69,0,1,1,2.68-2.69A2.69,2.69,0,0,1,849,586.34Zm47.71-9.76H849.17V525.51h47.52Z" transform="translate(-245.12 -115.88)"/><rect class="cls-1" x="361.35" y="283.96" width="65.83" height="18.83"/><path class="cls-1" d="M779.62,522.25V625H840.3V522.25Zm4.71,3.8h47.52v51H784.33Zm47.94,60.4a2.69,2.69,0,1,1,2.69-2.69A2.7,2.7,0,0,1,832.27,586.45Z" transform="translate(-245.12 -115.88)"/><polygon class="cls-1" points="408.75 251.03 427.18 246.23 647.21 188.83 896.62 254.9 908.14 257.95 932.33 244.12 842.28 220.79 645.49 169.82 453.05 220.79 384.56 238.94 408.75 251.03"/><polygon class="cls-1" points="361.35 225.33 361.35 283.95 427.18 283.95 427.18 246.23 408.75 251.03 384.56 238.94 453.05 220.79 370.13 220.79 367.73 225.19 361.35 225.33"/><path class="cls-1" d="M918.06,522.17V625h60.46V522.17Zm4.49,4.17h47.52v51H922.55Zm47.94,60.4a2.69,2.69,0,1,1,2.69-2.69A2.7,2.7,0,0,1,970.49,586.74Z" transform="translate(-245.12 -115.88)"/><polygon class="cls-1" points="349.85 210.59 349.85 208.8 345.1 208.8 345.1 176.93 366.22 176.93 366.22 208.8 361.02 208.8 361.02 210.59 369.03 210.59 369.03 173.47 369.03 171.51 341.84 171.51 341.84 173.75 341.84 210.59 349.85 210.59"/><path class="cls-1" d="M1274.42,589.39h-41.19v4.42h41.52A10.55,10.55,0,0,1,1274.42,589.39Z" transform="translate(-245.12 -115.88)"/><polygon class="cls-1" points="361.02 204.22 361.02 208.8 366.22 208.8 366.22 176.93 345.1 176.93 345.1 208.8 349.85 208.8 349.85 204.22 361.02 204.22"/><polygon class="cls-1" points="361.02 204.22 349.85 204.22 349.85 208.8 349.85 210.59 349.85 214.66 361.02 214.66 361.02 210.59 361.02 208.8 361.02 204.22"/><polygon class="cls-1" points="531.44 402.33 658.92 402.33 658.92 509.08 669.87 509.08 669.87 402.25 797.36 402.25 797.36 509.08 813.13 509.08 813.13 394.27 502.06 394.27 502.06 509.08 510.18 509.08 526.17 509.08 531.44 509.08 531.44 402.33"/><rect class="cls-1" x="649.13" y="292.36" width="3.84" height="56.98"/><path class="cls-1" d="M978.52,522.17V625H1039V522.17Zm8.68,64.45a2.69,2.69,0,1,1,2.68-2.68A2.68,2.68,0,0,1,987.2,586.62Zm47.71-9.75H987.39V525.8h47.52Z" transform="translate(-245.12 -115.88)"/><rect class="cls-1" x="742.44" y="292.36" width="65.7" height="56.98"/><rect class="cls-1" x="738.61" y="292.36" width="3.83" height="56.98"/><rect class="cls-1" x="506.71" y="292.36" width="62.94" height="56.98"/><rect class="cls-1" x="573.2" y="292.36" width="75.93" height="56.98"/><rect class="cls-1" x="569.64" y="292.36" width="3.56" height="56.98"/><rect class="cls-1" x="652.97" y="292.36" width="85.64" height="56.98"/><polygon class="cls-1" points="813.13 509.08 797.36 509.08 793.9 509.08 733.4 509.08 672.94 509.08 669.87 509.08 658.92 509.08 655.47 509.08 595.18 509.08 534.51 509.08 531.44 509.08 526.17 509.08 493.78 529.24 853.35 529.24 820.96 509.08 816 509.08 813.13 509.08"/><polygon class="cls-1" points="813.13 394.27 816 394.27 825.58 394.27 830.19 387.74 484.97 387.74 490.35 394.27 499.18 394.27 502.06 394.27 813.13 394.27"/><polygon class="cls-1" points="669.87 402.25 669.87 509.08 672.94 509.08 672.94 406.29 733.4 406.29 793.9 406.29 793.9 509.08 797.36 509.08 797.36 402.25 669.87 402.25"/><rect class="cls-1" x="813.12" y="394.27" width="2.88" height="114.82"/><path class="cls-1" d="M1287.32,580.47a51.82,51.82,0,0,1,6.82-1v-1.68h-60.91v11.63h41.19C1275,585.93,1278.13,582.66,1287.32,580.47Z" transform="translate(-245.12 -115.88)"/><rect class="cls-1" x="499.18" y="394.27" width="2.88" height="114.82"/><polygon class="cls-1" points="331.26 520.76 331.26 533.25 331.26 537.02 384.45 537.02 384.45 533.32 384.45 520.76 378.11 520.76 337.33 520.76 331.26 520.76"/><rect class="cls-1" x="192.08" y="456.67" width="64.82" height="5.65"/><rect class="cls-1" x="192.08" y="427.1" width="64.82" height="26.11"/><path class="cls-1" d="M372.22,594.25H487.8a78.15,78.15,0,0,1,8-4.42H372.22Z" transform="translate(-245.12 -115.88)"/><rect class="cls-1" x="127.1" y="427.1" width="60.9" height="26.11"/><polygon class="cls-1" points="256.89 420.95 256.89 418.46 192.08 418.07 192.08 420.95 256.89 420.95"/><path class="cls-1" d="M307.11,616.9c14.53,2.64,29.9-.89,46.73-4.6H280C288.67,613.68,298,615.24,307.11,616.9Z" transform="translate(-245.12 -115.88)"/><polygon class="cls-1" points="188 418.05 127.1 417.69 127.1 420.95 188 420.95 188 418.05"/><polygon class="cls-1" points="493.78 537.88 854.22 537.88 854.22 529.78 853.35 529.24 493.78 529.24 493.78 537.88"/><path class="cls-1" d="M1490.79,340.71c2.83-9.89,19.34-46,46.7-71.58-5.93-1.83-11.33-2.55-16.17-1.28-28.76,12-95.53,15.68-142,13.2,12.22,4.75,27.42,11.86,41.15,21.65C1447.59,322,1464.3,320.55,1490.79,340.71Z" transform="translate(-245.12 -115.88)"/><rect class="cls-1" x="0.5" y="677.85" width="1380.77" height="141.88"/><polygon class="cls-1" points="854.22 529.24 853.35 529.24 854.22 529.78 854.22 529.24"/><path class="cls-1" d="M576.38,652.9v-3.77c-9.82,1.37-16.12,3.47-16.12,5.84,0,4.11,19,7.44,42.47,7.44s42.47-3.33,42.47-7.44c0-2.33-6.1-4.4-15.64-5.76v3.69Z" transform="translate(-245.12 -115.88)"/><rect class="cls-1" x="127.1" y="456.67" width="60.9" height="5.65"/><path class="cls-1" d="M468.67,612.3H440.9C460.84,616.13,465,616.13,468.67,612.3Z" transform="translate(-245.12 -115.88)"/><polygon class="cls-1" points="331.02 454.07 331.02 460.69 383.65 460.69 383.65 454.07 361.35 454.07 351.85 454.07 331.02 454.07"/><path class="cls-1" d="M739.3,475.59,1063,476V402.63H739.3Zm12.52-67.35h66.5v0h234.94v57H751.82Z" transform="translate(-245.12 -115.88)"/><polygon class="cls-1" points="1049.02 417.61 988.12 417.25 988.12 420.51 1049.02 420.51 1049.02 417.61"/><path class="cls-1" d="M437.19,578.2v-5.65H502v-3.46H437.19V543H502v-6.14H437.19V534l-4.07,0v2.91h-60.9V543h60.9v26.11h-60.9v3.46h60.9v5.65h-60.9v11.63H495.76c2-.94,4.05-1.85,6.25-2.69V578.2Z" transform="translate(-245.12 -115.88)"/><rect class="cls-1" x="1053.09" y="426.66" width="64.82" height="26.11"/><rect class="cls-1" x="988.12" y="426.66" width="60.9" height="26.11"/><path class="cls-1" d="M1294.14,577.76v1.68c1.27-.12,2.64-.21,4.07-.29v-7H1363v-3.46h-64.81V542.54H1363V536.4h-64.81v-2.88l-4.07,0v2.91h-60.91v6.14h60.91v26.11h-60.91v3.46h60.91Z" transform="translate(-245.12 -115.88)"/><rect class="cls-1" x="1053.09" y="456.23" width="64.82" height="5.65"/><rect class="cls-1" x="988.12" y="456.23" width="60.9" height="5.65"/><path class="cls-1" d="M1298.21,579.15c16.22-.85,41.81.93,64.81,3.24v-4.63h-64.81Z" transform="translate(-245.12 -115.88)"/><polygon class="cls-1" points="378.11 460.86 337.33 460.86 337.33 473.81 337.33 508.88 337.33 520.76 378.11 520.76 378.11 507.5 378.11 468.32 378.11 460.86"/><path class="cls-1" d="M623.22,584.2v39.18l49.08-1.65V589.9C657.16,576.84,637,579.48,623.22,584.2Z" transform="translate(-245.12 -115.88)"/><path class="cls-1" d="M604.85,274.17c-2.17-.18-4.42-.28-6.74-.28s-4.63.1-6.83.29c-13.17,1.1-23,5.32-23,10.36l59.58-.72C627,279.09,617.44,275.21,604.85,274.17Z" transform="translate(-245.12 -115.88)"/><path class="cls-1" d="M604.85,274.17,599,264.65c2.23-.18,3.89-.85,3.89-1.65s-2.28-1.7-5.1-1.7-5.09.76-5.09,1.7c0,.78,1.59,1.44,3.76,1.64l-5.18,9.54q3.3-.29,6.83-.29C600.43,273.89,602.68,274,604.85,274.17Z" transform="translate(-245.12 -115.88)"/><polygon class="cls-1" points="1117.91 420.51 1117.91 418.02 1053.09 417.63 1053.09 420.51 1117.91 420.51"/><rect class="cls-1" x="1328.06" y="462.28" width="53.21" height="11.63"/><path class="cls-1" d="M1569.56,626c-6.91,9.79-63.94-6.34-80.06,2.88s-74.88,1.72-85.25-3.46-102.53,7.49-110,3.46-143.42-1.16-150.91-2.31a5.19,5.19,0,0,1-3-1.58h-54.44L1371.3,783.61l255.08,3.09V612.3h-70.19C1564.59,617,1573.45,620.47,1569.56,626Z" transform="translate(-245.12 -115.88)"/><rect class="cls-1" x="1328.06" y="473.91" width="53.21" height="4.42"/><path class="cls-1" d="M516.31,754.06c-5.13-30.93-51.18-31.34-62.32-34.63-12.67-3.74-8.64-14.11-29.66-25-75.17-30.82-129.6-7.78-137.38-5.19s-12.09,2.88-14.69-5.18c-3.13-12.55-15.23-12.46-26.64-9.17V783.37H462.06Z" transform="translate(-245.12 -115.88)"/><polygon class="cls-1" points="840.82 509.08 820.96 509.08 853.35 529.24 854.22 529.24 854.22 529.78 855.14 530.36 854.22 529.78 854.22 537.88 493.78 537.88 493.78 529.24 526.17 509.08 510.18 509.08 271.2 638.17 216.94 667.48 0.5 667.48 0.5 677.85 1381.27 677.85 1381.27 670.82 1126.19 667.73 840.82 509.08"/><rect class="cls-1" x="1328.06" y="427.07" width="53.21" height="26.11"/><rect class="cls-1" x="1328.06" y="456.63" width="53.21" height="5.65"/><rect class="cls-1" x="1328.06" y="453.18" width="53.21" height="3.46"/><polygon class="cls-1" points="256.73 354.03 191.91 354.03 191.91 348.38 190.72 348.38 191.91 348.38 191.91 347.04 191.91 348.38 256.73 348.38 256.73 344.92 191.91 344.92 191.91 346.07 191.91 344.92 190.81 344.92 191.91 344.92 191.91 318.81 190.62 318.81 191.91 318.81 191.91 317.27 191.91 318.81 256.73 318.81 256.73 312.67 191.91 312.67 191.91 313.72 191.91 312.67 190.91 312.67 191.91 312.67 191.91 309.79 187.84 309.76 187.84 312.67 188.99 312.67 187.84 312.67 187.84 313.82 187.84 312.67 126.93 312.67 126.93 318.81 187.84 318.81 187.84 317.27 187.84 318.81 188.99 318.81 187.84 318.81 187.84 344.92 188.7 344.92 187.84 344.92 187.84 346.07 187.84 344.92 126.93 344.92 126.93 348.38 187.84 348.38 187.84 347.23 187.84 348.38 188.7 348.38 187.84 348.38 187.84 354.03 126.93 354.03 126.93 365.66 256.73 365.66 256.73 354.03"/><rect class="cls-1" x="126.93" y="348.38" width="60.9" height="5.65"/><rect class="cls-1" x="1328.06" y="420.92" width="53.21" height="6.14"/><rect class="cls-1" x="126.93" y="318.81" width="60.9" height="26.11"/><rect class="cls-1" x="126.93" y="365.66" width="129.79" height="4.42"/><path class="cls-1" d="M582.44,589.69c-35.83-12.4-62.28-9.51-80.43-2.55-2.2.84-4.29,1.75-6.25,2.69a78.15,78.15,0,0,0-8,4.42,61.84,61.84,0,0,0-15.95,14,49.16,49.16,0,0,1-3.18,4c-3.63,3.83-7.83,3.83-27.77,0-5.48-1.06-12.14-2.4-20.32-4-24.95-5-46.86-.35-66.74,4-16.83,3.71-32.2,7.24-46.73,4.6-9.13-1.66-18.44-3.22-27.08-4.6C265,609.88,252,608,245.62,607.11v29l336.82-11.37Z" transform="translate(-245.12 -115.88)"/><path class="cls-1" d="M272.26,684c2.6,8.06,6.92,7.77,14.69,5.18s62.21-25.63,137.38,5.19c21,10.94,17,21.31,29.66,25,11.14,3.29,57.19,3.7,62.32,34.63L755.29,625h-83v-3.24l-49.08,1.65v13.26h6.34v12.57c9.54,1.36,15.64,3.43,15.64,5.76,0,4.11-19,7.44-42.47,7.44s-42.47-3.33-42.47-7.44c0-2.37,6.3-4.47,16.12-5.84V636.64h6.06V624.76L245.62,636.13v38.71C257,671.55,269.13,671.46,272.26,684Z" transform="translate(-245.12 -115.88)"/><path class="cls-1" d="M353.84,612.3c19.88-4.39,41.79-9,66.74-4,8.18,1.64,14.84,3,20.32,4h27.77a49.16,49.16,0,0,0,3.18-4,61.84,61.84,0,0,1,15.95-14H372.22V533.57l60.9.36,4.07,0,64.82.38v52.8c18.15-7,44.6-9.85,80.43,2.55v-13h40.78v7.46c13.8-4.72,33.94-7.36,49.08,5.7V418.67H606.46v98.11h3.36v3.84h-3.36v2.92h6.34v7.68h-6.34V570h22.3v6.61H576.13V570H597V531.22h-6.05v-7.68H597v-2.92H593.7v-3.84H597V418.67H245.62V607.11C252,608,265,609.88,280,612.3Zm18.21-130.76V425.29l60.9.36,4.07,0,64.82.39V486H372.05Z" transform="translate(-245.12 -115.88)"/><polygon class="cls-1" points="1328.21 316.27 1381.27 316.27 1381.27 313.32 1328.21 313.01 1328.21 316.27"/><path class="cls-1" d="M1516.36,399.84h110V336.68h-100A203.51,203.51,0,0,0,1516.36,399.84Z" transform="translate(-245.12 -115.88)"/><path class="cls-1" d="M1538.89,557a276.07,276.07,0,0,0,8.44,49.08,39.59,39.59,0,0,0,8.86,6.22h70.19V594.21h-53.2V533.54l53.2.32V489.57h-53.05V428.9l53.05.31V418.67h-109.2C1521.57,479,1535.56,523.18,1538.89,557Z" transform="translate(-245.12 -115.88)"/><path class="cls-1" d="M1516.71,411.56c.14,2.4.3,4.76.47,7.11h109.2V399.84h-110Q1516.38,405.59,1516.71,411.56Z" transform="translate(-245.12 -115.88)"/><path class="cls-1" d="M1556.14,276.84c19.61,9.1,43.23,20.6,70.24,15.21v-90c-1.65,9.41-4.81,21.27-10.88,30.95C1605.35,249.18,1571.94,262.32,1556.14,276.84Z" transform="translate(-245.12 -115.88)"/><polygon class="cls-1" points="1328.06 420.92 1381.27 420.92 1381.27 417.97 1328.06 417.66 1328.06 420.92"/><path class="cls-1" d="M1557.32,254a116.61,116.61,0,0,0-19.83,15.11c-27.36,25.58-43.87,61.69-46.7,71.58-26.49-20.16-43.2-18.72-70.27-38-13.73-9.79-28.93-16.9-41.15-21.65a172.69,172.69,0,0,0-23.07-7.44c0-14.4-1.16-20.45-1.16-20.45s5.48-.58,24.77-4.9c34.27-6.91,46.37-30.24,59.33-47.52s47.81-43.48,52.7-47.52,22.47-15.26,5.76-7.77-65.08,55-70.46,61.53-6.34-1.34-6.34-1.34-10.75-39.94-11.9-48.77c-2.11-20.93-6.72-21.69-5-7.1,2.49,28,13,56.45,14,64.13s-9.4,29.76-64.51,35.71c-56.83-.39-68.93-52-72-70.85s-9-23.81-7.29-10.56c17.85,95,77.47,84.38,77.47,84.38s.57,20.74-1.44,20.16-2.88,2-57.89-13-55.87-20.44-84.67-38.3-32.83-24.48-35.14-28.8c-6.91-9.79-21.31-63.65-19.29-49.25s16.27,52.42,16.27,52.42-.72,1.73-8.79-2.88-53-18.43-88.12-33.41c-26.32-14.52-46.11-33.16-56.15-43.18h-3.08c.66,1,1.39,2.16,2.2,3.44,19.59,30.52,74.31,52.41,74.31,52.41a120.31,120.31,0,0,0-15.56,0c-70.27,7.49-94.46,21.89-85.24,21.31,11.52-9.79,82.36-17.28,103.1-17.28s65.66,20.16,74.88,23,57,40.32,57,40.32-7.48-1.15-25.92,1.16c-59.9,8.64-88.12,31.1-77.18,27.07,53-25.92,101.38-24.77,111.17-20.74,10.83,6,41.48,16.5,65.72,23.68,10.57,3.13,19.91,5.63,25.86,6.85,53,18.76,64.86,36.62,79.2,59,5.47,8.55,11.29,17.76,19.87,27.94,5.89,7,10.35,19.5,13.72,35.22,1.26,5.87,2.36,12.19,3.33,18.83,8.42,57.73,6.6,139.92,5.73,166.2,4.72-.31,10.25-.47,16.82-.37,36.87.58,27.08,3.46,49,13.83,22.47,7.49,27.08-6.91,32.26-.58-.13,3.26,1.36,6,3.69,8.33a276.07,276.07,0,0,1-8.44-49.08c-3.33-33.82-17.32-78.05-21.71-138.33-.17-2.35-.33-4.71-.47-7.11q-.35-6-.35-11.72a203.51,203.51,0,0,1,10.07-63.16c7.78-24,18-41.45,22.83-51.26a30.32,30.32,0,0,1,6.88-8.58c15.8-14.52,49.21-27.66,59.36-43.84,6.07-9.68,9.23-21.54,10.88-30.95V185.23c-4.78,9.88-3.42,14-11.17,28.47C1606.28,230.41,1596.49,230.7,1557.32,254Z" transform="translate(-245.12 -115.88)"/><path class="cls-1" d="M1072.62,159.56c35.13,15,80.06,28.8,88.12,33.41s8.79,2.88,8.79,2.88-14.26-38-16.27-52.42,12.38,39.46,19.29,49.25c2.31,4.32,6.34,10.94,35.14,28.8s29.66,23.33,84.67,38.3,55.87,12.39,57.89,13,1.44-20.16,1.44-20.16-59.62,10.66-77.47-84.38c-1.73-13.25,4.22-8.26,7.29,10.56s15.17,70.46,72,70.85c55.11-6,65.47-28,64.51-35.71s-11.52-36.1-14-64.13c-1.73-14.59,2.88-13.83,5,7.1,1.15,8.83,11.9,48.77,11.9,48.77s1,7.87,6.34,1.34,53.76-54,70.46-61.53-.86,3.74-5.76,7.77-39.74,30.24-52.7,47.52-25.06,40.61-59.33,47.52c-19.29,4.32-24.77,4.9-24.77,4.9s1.16,6,1.16,20.45a172.69,172.69,0,0,1,23.07,7.44c46.42,2.48,113.19-1.18,142-13.2,4.84-1.27,10.24-.55,16.17,1.28A116.61,116.61,0,0,1,1557.32,254c39.17-23.32,49-23.61,57.89-40.32,7.75-14.5,6.39-18.59,11.17-28.47V116.38H1016.47C1026.51,126.4,1046.3,145,1072.62,159.56Z" transform="translate(-245.12 -115.88)"/><polygon class="cls-1" points="488.05 286.75 494.19 286.75 817.9 286.75 822.13 286.75 827.12 274.46 483.05 274.46 488.05 286.75"/><rect class="cls-1" x="1328.21" y="357.64" width="53.06" height="11.63"/><rect class="cls-1" x="1328.21" y="351.99" width="53.06" height="5.65"/><rect class="cls-1" x="1328.21" y="369.27" width="53.06" height="4.42"/><polygon class="cls-1" points="187.84 309.76 126.93 309.4 126.93 312.67 187.84 312.67 187.84 309.76"/><rect class="cls-1" x="1328.21" y="316.28" width="53.06" height="6.14"/><rect class="cls-1" x="1328.21" y="322.42" width="53.06" height="26.11"/><rect class="cls-1" x="1328.21" y="348.53" width="53.06" height="3.46"/><path class="cls-1" d="M1556.14,276.84a30.32,30.32,0,0,0-6.88,8.58c-4.83,9.81-15,27.23-22.83,51.26h100V292.05C1599.37,297.44,1575.75,285.94,1556.14,276.84Z" transform="translate(-245.12 -115.88)"/><polygon class="cls-1" points="1049.42 357.31 1053.49 357.31 1053.49 351.67 1118.31 351.67 1118.31 348.21 1053.49 348.21 1053.49 322.1 1118.31 322.1 1118.31 315.95 1053.49 315.95 1053.49 313.07 1049.42 313.05 1049.42 315.95 988.52 315.95 988.52 322.1 1049.42 322.1 1049.42 348.21 988.52 348.21 988.52 351.67 1049.42 351.67 1049.42 357.31"/><rect class="cls-1" x="988.52" y="368.95" width="129.79" height="4.42"/><path class="cls-1" d="M846.25,161.29c-8.93,10.08-37.15,24.48-27.94,40.61s63.94,19.87,65.67,21.31,8.35-2.31,21.31,14.69,31.1,29.08,82.94,17.85,67.39-17.28,98.5,23.91c35.42,30.52,150.91,1.15,150.91,1.15s32-7.85,60.25-10c-24.24-7.18-54.89-17.66-65.72-23.68-9.79-4-58.18-5.18-111.17,20.74-10.94,4,17.28-18.43,77.18-27.07,18.44-2.31,25.92-1.16,25.92-1.16s-47.8-37.44-57-40.32-54.14-23-74.88-23-91.58,7.49-103.1,17.28c-9.22.58,15-13.82,85.24-21.31a120.31,120.31,0,0,1,15.56,0s-54.72-21.89-74.31-52.41c-.81-1.28-1.54-2.41-2.2-3.44H884.24A56.35,56.35,0,0,1,873.32,121C854.89,126.73,855.18,151.21,846.25,161.29Z" transform="translate(-245.12 -115.88)"/><polygon class="cls-1" points="1118.31 357.31 1053.49 357.31 1049.42 357.31 988.52 357.31 988.52 368.94 1118.31 368.94 1118.31 357.31"/><path class="cls-1" d="M1141.74,609.82c63.8-12.77,130.32-1.41,134.64-5.73,2.12-2.12-.52-6.07-1.63-10.28h-41.52V533.13l60.91.36,4.07,0,64.81.38v48.49c25,2.51,47,5.66,50.44,6.72,6.16,1.9,10.38-2.82,32.14-4.24.87-26.28,2.69-108.47-5.73-166.2H1141.74Zm91.89-125V428.57l60.91.36,4.07,0,64.81.38v59.91H1233.63Z" transform="translate(-245.12 -115.88)"/><path class="cls-1" d="M1177.45,360l-24.19,13.82-11.52-3.05v29.06h294.8c-3.37-15.72-7.83-28.25-13.72-35.22-8.58-10.18-14.4-19.39-19.87-27.94H1087.39Z" transform="translate(-245.12 -115.88)"/><path class="cls-1" d="M1141.74,418.67h298.13c-1-6.64-2.07-13-3.33-18.83h-294.8Z" transform="translate(-245.12 -115.88)"/><rect class="cls-1" x="988.52" y="351.67" width="60.9" height="5.65"/><path class="cls-1" d="M1413.46,589.11c-3.45-1.06-25.41-4.21-50.44-6.72-23-2.31-48.59-4.09-64.81-3.24-1.43.08-2.8.17-4.07.29a51.82,51.82,0,0,0-6.82,1c-9.19,2.19-12.31,5.46-12.9,8.92a10.55,10.55,0,0,0,.33,4.42c1.11,4.21,3.75,8.16,1.63,10.28-4.32,4.32-70.84-7-134.64,5.73V625h-1.37a5.19,5.19,0,0,0,3,1.58c7.49,1.15,143.42-1.73,150.91,2.31s99.65-8.64,110-3.46,69.12,12.67,85.25,3.46,73.15,6.91,80.06-2.88c3.89-5.51-5-9-13.37-13.68a39.59,39.59,0,0,1-8.86-6.22c-2.33-2.35-3.82-5.07-3.69-8.33-5.18-6.33-9.79,8.07-32.26.58-21.88-10.37-12.09-13.25-49-13.83-6.57-.1-12.1.06-16.82.37C1423.84,586.29,1419.62,591,1413.46,589.11Z" transform="translate(-245.12 -115.88)"/><rect class="cls-1" x="1053.49" y="351.67" width="64.82" height="5.65"/><path class="cls-1" d="M1141.74,609.82v-239L892.33,304.71l-220,57.4V625h72V510.15h-8.84l-5.37-6.53H1075.3l-4.6,6.53h-9.58V625h80.62Zm-74.5-207.19H1063V476l-323.72-.39v-73h-6.14l-5-12.29h344.06Z" transform="translate(-245.12 -115.88)"/><rect class="cls-1" x="988.52" y="322.1" width="60.9" height="26.11"/><polygon class="cls-1" points="1049.42 313.05 988.52 312.69 988.52 315.95 1049.42 315.95 1049.42 313.05"/><rect class="cls-1" x="1053.49" y="322.1" width="64.82" height="26.11"/><polygon class="cls-1" points="1118.31 315.95 1118.31 313.46 1053.49 313.07 1053.49 315.95 1118.31 315.95"/><polygon class="cls-1" points="351.85 225.54 345.88 225.67 342.71 220.79 0.5 220.79 0.5 283.95 351.85 283.95 351.85 225.54"/><path class="cls-1" d="M318.06,158.79c9.43-9.07,17.83-16.09,27.15-42.41H245.62v88C257.22,199.6,297.49,182,318.06,158.79Z" transform="translate(-245.12 -115.88)"/><polygon class="cls-1" points="256.73 312.67 256.73 310.17 191.91 309.79 191.91 312.67 256.73 312.67"/><path class="cls-1" d="M557.85,290.66l-4.23-.39-4.87-5.49,19.54-.24c0-5,9.82-9.26,23-10.36l5.18-9.54c-2.17-.2-3.76-.86-3.76-1.64,0-.94,2.28-1.7,5.09-1.7s5.1.76,5.1,1.7-1.66,1.47-3.89,1.65l5.85,9.52c12.59,1,22.12,4.92,23,9.65l22.85-.28-6.07,6.07H641l-25.76,47.07h82.92l192.43-51,196.79,51H1403c-14.34-22.42-26.24-40.28-79.2-59-6-1.22-15.29-3.72-25.86-6.85-28.23,2.17-60.25,10-60.25,10s-115.49,29.37-150.91-1.15c-31.11-41.19-46.66-35.14-98.5-23.91s-70-.86-82.94-17.85S885.7,224.65,884,223.21,827.53,218,818.31,201.9s19-30.53,27.94-40.61,8.64-34.56,27.07-40.32a56.35,56.35,0,0,0,10.92-4.59H528.13c1.44,7.43-1.35,17.56-2.71,23-1.73,6.91-.58,45.5-1.73,53.57s-47.23,27.65-61.06,25.34c-23-7.49-66.24,58.75-134.78,25.35-49.05-23.91-72.73-23.93-82.23-22v115h342.2Z" transform="translate(-245.12 -115.88)"/><path class="cls-1" d="M343,148.42c9.15-6.77,33.54-22.81,46-32h-5.75a157.61,157.61,0,0,1-18,12.46c-9.6,5.76-28.42,17.66-33.79,22.66,11.87-18.07,15.58-29.53,16.75-35.12h-3c-9.32,26.32-17.72,33.34-27.15,42.41-20.57,23.18-60.84,40.81-72.44,45.57v4c9.27-3.08,43.39-15.59,73.59-41.85C334.18,153.42,332.65,156.1,343,148.42Z" transform="translate(-245.12 -115.88)"/><path class="cls-1" d="M365.29,128.84a157.61,157.61,0,0,0,18-12.46h-35c-1.17,5.59-4.88,17.05-16.75,35.12C336.87,146.5,355.69,134.6,365.29,128.84Z" transform="translate(-245.12 -115.88)"/><rect class="cls-1" x="191.91" y="348.38" width="64.82" height="5.65"/><rect class="cls-1" x="191.91" y="318.81" width="64.82" height="26.11"/><rect class="cls-1" x="0.5" y="283.96" width="351.34" height="18.83"/><path class="cls-1" d="M327.85,243.66c68.54,33.4,111.74-32.84,134.78-25.35,13.83,2.31,59.91-17.28,61.06-25.34s0-46.66,1.73-53.57c1.36-5.46,4.15-15.59,2.71-23H389c-12.47,9.23-36.86,25.27-46,32-10.37,7.68-8.84,5-23.81,18.05-30.2,26.26-64.32,38.77-73.59,41.85v13.34C255.12,219.73,278.8,219.75,327.85,243.66Z" transform="translate(-245.12 -115.88)"/><rect class="cls-1" x="539.21" y="410.16" width="47.52" height="50.98"/><rect class="cls-1" x="604.05" y="409.63" width="47.52" height="51.07"/><path class="cls-1" d="M832.27,581.07a2.69,2.69,0,1,0,2.69,2.69A2.7,2.7,0,0,0,832.27,581.07Z" transform="translate(-245.12 -115.88)"/><path class="cls-1" d="M849,581a2.69,2.69,0,1,0,2.68,2.69A2.68,2.68,0,0,0,849,581Z" transform="translate(-245.12 -115.88)"/><rect class="cls-1" x="677.43" y="410.45" width="47.52" height="50.98"/><rect class="cls-1" x="742.27" y="409.92" width="47.52" height="51.07"/><circle class="cls-1" cx="725.38" cy="468.16" r="2.69"/><circle class="cls-1" cx="742.08" cy="468.05" r="2.69"/></g><g id="lines_copy" data-name="lines copy"><line class="cls-2" x1="0.5" y1="92.44" x2="0.5" y2="105.77"/><line class="cls-2" x1="1381.27" y1="496.41" x2="1381.27" y2="478.33"/><line class="cls-2" x1="1381.27" y1="313.33" x2="1381.27" y2="302.79"/><line class="cls-2" x1="1381.27" y1="478.33" x2="1381.27" y2="473.91"/><line class="cls-2" x1="0.5" y1="520.25" x2="0.5" y2="558.95"/><line class="cls-2" x1="1381.27" y1="86.16" x2="1381.27" y2="69.35"/><line class="cls-2" x1="1381.27" y1="462.28" x2="1381.27" y2="456.63"/><line class="cls-2" x1="1381.27" y1="456.63" x2="1381.27" y2="453.18"/><line class="cls-2" x1="0.5" y1="302.79" x2="0.5" y2="491.23"/><line class="cls-2" x1="1381.27" y1="473.91" x2="1381.27" y2="462.28"/><line class="cls-2" x1="0.5" y1="105.77" x2="0.5" y2="220.8"/><line class="cls-2" x1="1381.27" y1="427.07" x2="1381.27" y2="420.92"/><line class="cls-2" x1="1381.27" y1="316.28" x2="1381.27" y2="313.33"/><line class="cls-2" x1="0.5" y1="283.96" x2="0.5" y2="302.79"/><line class="cls-2" x1="0.5" y1="220.8" x2="0.5" y2="283.96"/><line class="cls-2" x1="0.5" y1="491.23" x2="0.5" y2="520.25"/><line class="cls-2" x1="1381.27" y1="348.53" x2="1381.27" y2="322.42"/><line class="cls-2" x1="138.17" y1="0.5" x2="103.13" y2="0.5"/><line class="cls-2" x1="1381.27" y1="322.42" x2="1381.27" y2="316.28"/><line class="cls-2" x1="1381.27" y1="176.17" x2="1381.27" y2="86.16"/><line class="cls-2" x1="0.5" y1="558.95" x2="0.5" y2="667.48"/><line class="cls-2" x1="143.91" y1="0.5" x2="283.01" y2="0.5"/><line class="cls-2" x1="1381.27" y1="417.97" x2="1381.27" y2="373.68"/><line class="cls-2" x1="1381.27" y1="369.27" x2="1381.27" y2="357.64"/><line class="cls-2" x1="1381.27" y1="302.79" x2="1381.27" y2="283.96"/><line class="cls-2" x1="1381.27" y1="670.82" x2="1381.27" y2="496.41"/><line class="cls-2" x1="1381.27" y1="283.96" x2="1381.27" y2="220.8"/><line class="cls-2" x1="1381.27" y1="220.8" x2="1381.27" y2="176.17"/><line class="cls-2" x1="1381.27" y1="677.85" x2="1381.27" y2="670.82"/><line class="cls-2" x1="0.5" y1="667.48" x2="0.5" y2="677.85"/><line class="cls-2" x1="283.01" y1="0.5" x2="639.13" y2="0.5"/><polyline class="cls-2" points="1381.27 677.85 1381.27 819.73 0.5 819.73 0.5 677.85"/><line class="cls-2" x1="1381.27" y1="420.92" x2="1381.27" y2="417.97"/><line class="cls-2" x1="1381.27" y1="373.68" x2="1381.27" y2="369.27"/><line class="cls-2" x1="0.5" y1="88.47" x2="0.5" y2="92.44"/><line class="cls-2" x1="138.17" y1="0.5" x2="143.91" y2="0.5"/><polyline class="cls-2" points="771.35 0.5 1381.27 0.5 1381.27 69.35"/><line class="cls-2" x1="1381.27" y1="453.18" x2="1381.27" y2="427.07"/><line class="cls-2" x1="1381.27" y1="351.99" x2="1381.27" y2="348.53"/><line class="cls-2" x1="1381.27" y1="357.64" x2="1381.27" y2="351.99"/><line class="cls-2" x1="100.09" y1="0.5" x2="103.13" y2="0.5"/><line class="cls-2" x1="771.35" y1="0.5" x2="768.27" y2="0.5"/><line class="cls-2" x1="639.13" y1="0.5" x2="768.27" y2="0.5"/><polyline class="cls-2" points="100.09 0.5 0.5 0.5 0.5 88.47"/><line class="cls-2" x1="1271.25" y1="283.96" x2="1381.27" y2="283.96"/><line class="cls-2" x1="1191.42" y1="283.96" x2="896.62" y2="283.96"/><line class="cls-2" x1="427.18" y1="283.96" x2="361.35" y2="283.96"/><line class="cls-2" x1="351.84" y1="283.96" x2="0.5" y2="283.96"/><line class="cls-2" x1="1272.07" y1="302.79" x2="1381.27" y2="302.79"/><line class="cls-2" x1="896.62" y1="302.79" x2="1194.76" y2="302.79"/><line class="cls-2" x1="361.35" y1="302.79" x2="427.18" y2="302.79"/><line class="cls-2" x1="351.84" y1="302.79" x2="0.5" y2="302.79"/><line class="cls-2" x1="1281.32" y1="220.8" x2="1381.27" y2="220.8"/><line class="cls-2" x1="1157.83" y1="220.8" x2="842.28" y2="220.8"/><line class="cls-2" x1="370.13" y1="220.8" x2="453.05" y2="220.8"/><line class="cls-2" x1="342.71" y1="220.8" x2="0.5" y2="220.8"/><polyline class="cls-2" points="427.18 246.23 647.21 188.83 896.62 254.9"/><polyline class="cls-2" points="896.62 254.9 908.14 257.95 932.33 244.12 842.28 220.79"/><polyline class="cls-2" points="427.18 246.23 408.75 251.03 384.56 238.94 453.05 220.79"/><polyline class="cls-2" points="453.05 220.79 645.49 169.82 842.28 220.79"/><path class="cls-2" d="M528.13,116.38c1.44,7.43-1.35,17.56-2.71,23-1.73,6.91-.58,45.5-1.73,53.57s-47.23,27.65-61.06,25.34c-23-7.49-66.24,58.75-134.78,25.35-49.05-23.91-72.73-23.93-82.23-22" transform="translate(-245.12 -115.88)"/><line class="cls-2" x1="126.93" y1="312.67" x2="126.93" y2="318.81"/><line class="cls-2" x1="126.93" y1="344.92" x2="126.93" y2="318.81"/><line class="cls-2" x1="191.91" y1="309.79" x2="187.84" y2="309.76"/><polyline class="cls-2" points="256.73 312.67 256.73 310.17 191.91 309.79"/><polyline class="cls-2" points="126.93 312.67 126.93 309.4 187.84 309.76"/><line class="cls-2" x1="256.72" y1="312.67" x2="256.72" y2="318.81"/><polyline class="cls-2" points="256.73 365.66 256.73 370.07 126.93 370.07 126.93 365.66"/><line class="cls-2" x1="256.72" y1="365.66" x2="256.72" y2="354.03"/><line class="cls-2" x1="256.72" y1="348.38" x2="256.72" y2="344.92"/><line class="cls-2" x1="256.72" y1="318.81" x2="256.72" y2="344.92"/><line class="cls-2" x1="126.93" y1="365.66" x2="126.93" y2="354.03"/><line class="cls-2" x1="126.93" y1="348.38" x2="126.93" y2="354.03"/><line class="cls-2" x1="256.72" y1="354.03" x2="256.72" y2="348.38"/><line class="cls-2" x1="126.93" y1="344.92" x2="126.93" y2="348.38"/><line class="cls-2" x1="187.84" y1="348.38" x2="187.84" y2="347.23"/><line class="cls-2" x1="187.84" y1="348.38" x2="187.84" y2="354.03"/><line class="cls-2" x1="187.84" y1="317.28" x2="187.84" y2="318.81"/><line class="cls-2" x1="187.84" y1="344.92" x2="187.84" y2="346.08"/><line class="cls-2" x1="187.84" y1="318.81" x2="187.84" y2="344.92"/><line class="cls-2" x1="187.84" y1="312.67" x2="187.84" y2="309.76"/><line class="cls-2" x1="187.84" y1="312.67" x2="187.84" y2="313.82"/><line class="cls-2" x1="191.91" y1="348.38" x2="191.91" y2="347.04"/><line class="cls-2" x1="191.91" y1="354.03" x2="191.91" y2="348.38"/><line class="cls-2" x1="191.91" y1="346.08" x2="191.91" y2="344.92"/><line class="cls-2" x1="191.91" y1="318.81" x2="191.91" y2="344.92"/><line class="cls-2" x1="191.91" y1="318.81" x2="191.91" y2="317.28"/><line class="cls-2" x1="191.91" y1="312.67" x2="191.91" y2="313.72"/><line class="cls-2" x1="191.91" y1="309.79" x2="191.91" y2="312.67"/><line class="cls-2" x1="187.84" y1="354.03" x2="126.93" y2="354.03"/><line class="cls-2" x1="191.91" y1="354.03" x2="256.72" y2="354.03"/><line class="cls-2" x1="191.91" y1="344.92" x2="256.72" y2="344.92"/><line class="cls-2" x1="190.81" y1="344.92" x2="191.91" y2="344.92"/><line class="cls-2" x1="126.93" y1="344.92" x2="187.84" y2="344.92"/><line class="cls-2" x1="187.84" y1="344.92" x2="188.7" y2="344.92"/><line class="cls-2" x1="191.91" y1="348.38" x2="256.72" y2="348.38"/><line class="cls-2" x1="191.91" y1="348.38" x2="190.72" y2="348.38"/><line class="cls-2" x1="188.7" y1="348.38" x2="187.84" y2="348.38"/><line class="cls-2" x1="187.84" y1="348.38" x2="126.93" y2="348.38"/><line class="cls-2" x1="256.72" y1="365.66" x2="126.93" y2="365.66"/><line class="cls-2" x1="256.72" y1="318.81" x2="191.91" y2="318.81"/><line class="cls-2" x1="191.91" y1="318.81" x2="190.62" y2="318.81"/><line class="cls-2" x1="187.84" y1="318.81" x2="126.93" y2="318.81"/><line class="cls-2" x1="188.99" y1="318.81" x2="187.84" y2="318.81"/><line class="cls-2" x1="190.91" y1="312.67" x2="191.91" y2="312.67"/><line class="cls-2" x1="256.72" y1="312.67" x2="191.91" y2="312.67"/><line class="cls-2" x1="187.84" y1="312.67" x2="126.93" y2="312.67"/><line class="cls-2" x1="187.84" y1="312.67" x2="188.99" y2="312.67"/><polyline class="cls-2" points="817.9 286.75 822.13 286.75 827.12 274.46 483.05 274.46 488.05 286.75 494.19 286.75"/><line class="cls-2" x1="494.19" y1="286.75" x2="817.9" y2="286.75"/><polyline class="cls-2" points="494.19 286.75 494.19 359.71 817.9 360.09 817.9 286.75"/><line class="cls-2" x1="652.97" y1="349.34" x2="649.13" y2="349.34"/><polyline class="cls-2" points="742.45 349.34 808.15 349.34 808.15 292.36 742.45 292.36"/><line class="cls-2" x1="573.2" y1="349.34" x2="649.13" y2="349.34"/><line class="cls-2" x1="742.44" y1="349.34" x2="738.61" y2="349.34"/><line class="cls-2" x1="652.97" y1="349.34" x2="738.61" y2="349.34"/><polyline class="cls-2" points="569.64 292.36 506.71 292.36 506.71 349.34 569.64 349.34"/><line class="cls-2" x1="738.61" y1="292.36" x2="742.44" y2="292.36"/><line class="cls-2" x1="573.2" y1="349.34" x2="569.64" y2="349.34"/><line class="cls-2" x1="649.13" y1="292.36" x2="573.2" y2="292.36"/><line class="cls-2" x1="649.13" y1="292.36" x2="652.97" y2="292.36"/><line class="cls-2" x1="569.64" y1="292.36" x2="573.2" y2="292.36"/><line class="cls-2" x1="738.61" y1="292.36" x2="652.97" y2="292.36"/><line class="cls-2" x1="569.64" y1="292.36" x2="569.64" y2="349.34"/><line class="cls-2" x1="649.13" y1="292.36" x2="649.13" y2="349.34"/><line class="cls-2" x1="738.61" y1="292.36" x2="738.61" y2="349.34"/><line class="cls-2" x1="652.97" y1="349.34" x2="652.97" y2="292.36"/><line class="cls-2" x1="742.44" y1="349.34" x2="742.44" y2="292.36"/><line class="cls-2" x1="573.2" y1="291.67" x2="573.2" y2="292.36"/><line class="cls-2" x1="573.2" y1="349.34" x2="573.2" y2="292.36"/><line class="cls-2" x1="499.18" y1="509.08" x2="502.06" y2="509.08"/><line class="cls-2" x1="427.18" y1="283.96" x2="427.18" y2="302.79"/><line class="cls-2" x1="510.18" y1="509.08" x2="526.17" y2="509.08"/><line class="cls-2" x1="896.62" y1="283.96" x2="896.62" y2="302.79"/><line class="cls-2" x1="840.82" y1="509.08" x2="820.96" y2="509.08"/><polyline class="cls-2" points="499.18 509.08 427.18 509.08 427.18 505.84"/><line class="cls-2" x1="427.18" y1="283.96" x2="427.18" y2="246.23"/><line class="cls-2" x1="427.18" y1="302.79" x2="427.18" y2="474.01"/><line class="cls-2" x1="797.36" y1="509.08" x2="813.12" y2="509.08"/><line class="cls-2" x1="510.18" y1="509.08" x2="502.06" y2="509.08"/><line class="cls-2" x1="816" y1="509.08" x2="820.96" y2="509.08"/><line class="cls-2" x1="896.62" y1="302.79" x2="896.62" y2="493.93"/><polyline class="cls-2" points="896.62 493.93 896.62 509.08 895.25 509.08"/><line class="cls-2" x1="816" y1="509.08" x2="813.12" y2="509.08"/><line class="cls-2" x1="840.82" y1="509.08" x2="895.25" y2="509.08"/><line class="cls-2" x1="896.62" y1="254.9" x2="896.62" y2="283.96"/><line class="cls-2" x1="672.94" y1="509.08" x2="669.87" y2="509.08"/><line class="cls-2" x1="534.51" y1="509.08" x2="531.44" y2="509.08"/><line class="cls-2" x1="658.92" y1="509.08" x2="669.87" y2="509.08"/><line class="cls-2" x1="658.92" y1="509.08" x2="655.47" y2="509.08"/><line class="cls-2" x1="655.47" y1="509.08" x2="595.18" y2="509.08"/><line class="cls-2" x1="526.17" y1="509.08" x2="531.44" y2="509.08"/><line class="cls-2" x1="595.18" y1="509.08" x2="534.51" y2="509.08"/><line class="cls-2" x1="797.36" y1="509.08" x2="793.9" y2="509.08"/><line class="cls-2" x1="733.4" y1="509.08" x2="672.94" y2="509.08"/><line class="cls-2" x1="427.18" y1="505.84" x2="427.18" y2="474.01"/><line class="cls-2" x1="793.9" y1="509.08" x2="733.4" y2="509.08"/><line class="cls-2" x1="502.06" y1="394.27" x2="813.12" y2="394.27"/><line class="cls-2" x1="502.06" y1="394.27" x2="499.18" y2="394.27"/><line class="cls-2" x1="813.12" y1="394.27" x2="816" y2="394.27"/><polyline class="cls-2" points="816 394.27 825.58 394.27 830.19 387.74 484.97 387.74 490.35 394.27 499.18 394.27"/><line class="cls-2" x1="499.18" y1="509.08" x2="499.18" y2="394.27"/><line class="cls-2" x1="502.06" y1="394.27" x2="502.06" y2="509.08"/><line class="cls-2" x1="813.12" y1="394.27" x2="813.12" y2="509.08"/><line class="cls-2" x1="816" y1="509.08" x2="816" y2="394.27"/><polyline class="cls-2" points="658.92 509.08 658.92 402.33 531.44 402.33 531.44 509.08"/><polyline class="cls-2" points="595.18 406.36 655.47 406.36 655.47 509.08"/><polyline class="cls-2" points="595.18 406.36 534.51 406.36 534.51 509.08"/><polyline class="cls-2" points="797.36 509.08 797.36 402.25 669.87 402.25 669.87 509.08"/><polyline class="cls-2" points="733.4 406.29 793.9 406.29 793.9 509.08"/><polyline class="cls-2" points="733.4 406.29 672.94 406.29 672.94 509.08"/><line class="cls-2" x1="1311.07" y1="496.41" x2="1381.27" y2="496.41"/><line class="cls-2" x1="195.78" y1="496.41" x2="223.56" y2="496.41"/><line class="cls-2" x1="34.91" y1="496.41" x2="108.73" y2="496.41"/><path class="cls-2" d="M1556.19,612.3c8.4,4.67,17.26,8.17,13.37,13.68-6.91,9.79-63.94-6.34-80.06,2.88s-74.88,1.72-85.25-3.46-102.53,7.49-110,3.46-143.42-1.16-150.91-2.31a5.19,5.19,0,0,1-3-1.58" transform="translate(-245.12 -115.88)"/><path class="cls-2" d="M1547.33,606.08c-2.33-2.35-3.82-5.07-3.69-8.33-5.18-6.33-9.79,8.07-32.26.58-21.88-10.37-12.09-13.25-49-13.83-6.57-.1-12.1.06-16.82.37" transform="translate(-245.12 -115.88)"/><path class="cls-2" d="M1294.14,579.44c1.27-.12,2.64-.21,4.07-.29" transform="translate(-245.12 -115.88)"/><path class="cls-2" d="M1274.42,589.39a10.55,10.55,0,0,0,.33,4.42" transform="translate(-245.12 -115.88)"/><path class="cls-2" d="M1363,582.39c-23-2.31-48.59-4.09-64.81-3.24" transform="translate(-245.12 -115.88)"/><path class="cls-2" d="M1274.75,593.81c1.11,4.21,3.75,8.16,1.63,10.28-4.32,4.32-70.84-7-134.64,5.73" transform="translate(-245.12 -115.88)"/><path class="cls-2" d="M1363,582.39c25,2.51,47,5.66,50.44,6.72,6.16,1.9,10.38-2.82,32.14-4.24" transform="translate(-245.12 -115.88)"/><path class="cls-2" d="M1556.19,612.3a39.59,39.59,0,0,1-8.86-6.22" transform="translate(-245.12 -115.88)"/><path class="cls-2" d="M1274.42,589.39c.59-3.46,3.71-6.73,12.9-8.92a51.82,51.82,0,0,1,6.82-1" transform="translate(-245.12 -115.88)"/><line class="cls-2" x1="427.18" y1="505.84" x2="378.11" y2="507.5"/><line class="cls-2" x1="337.33" y1="508.88" x2="0.5" y2="520.25"/><path class="cls-2" d="M623.22,584.2c13.8-4.72,33.94-7.36,49.08,5.7" transform="translate(-245.12 -115.88)"/><path class="cls-2" d="M440.9,612.3c-5.48-1.06-12.14-2.4-20.32-4-24.95-5-46.86-.35-66.74,4" transform="translate(-245.12 -115.88)"/><path class="cls-2" d="M487.8,594.25a78.15,78.15,0,0,1,8-4.42" transform="translate(-245.12 -115.88)"/><path class="cls-2" d="M487.8,594.25a61.84,61.84,0,0,0-15.95,14,49.16,49.16,0,0,1-3.18,4" transform="translate(-245.12 -115.88)"/><path class="cls-2" d="M582.44,589.69c-35.83-12.4-62.28-9.51-80.43-2.55" transform="translate(-245.12 -115.88)"/><path class="cls-2" d="M502,587.14c-2.2.84-4.29,1.75-6.25,2.69" transform="translate(-245.12 -115.88)"/><path class="cls-2" d="M280,612.3C265,609.88,252,608,245.62,607.11" transform="translate(-245.12 -115.88)"/><path class="cls-2" d="M280,612.3c8.64,1.38,18,2.94,27.08,4.6,14.53,2.64,29.9-.89,46.73-4.6" transform="translate(-245.12 -115.88)"/><path class="cls-2" d="M440.9,612.3c19.94,3.83,24.14,3.83,27.77,0" transform="translate(-245.12 -115.88)"/><polyline class="cls-2" points="854.22 529.78 854.22 529.24 853.35 529.24"/><polyline class="cls-2" points="493.78 529.24 493.78 537.88 854.22 537.88 854.22 529.78"/><line class="cls-2" x1="493.78" y1="529.24" x2="853.35" y2="529.24"/><line class="cls-2" x1="493.78" y1="529.24" x2="526.17" y2="509.08"/><line class="cls-2" x1="853.35" y1="529.24" x2="820.96" y2="509.08"/><line class="cls-2" x1="853.35" y1="529.24" x2="854.22" y2="529.79"/><line class="cls-2" x1="855.14" y1="530.36" x2="854.22" y2="529.79"/><rect class="cls-2" x="539.21" y="410.16" width="47.52" height="50.98"/><rect class="cls-2" x="604.05" y="409.63" width="47.52" height="51.07"/><line class="cls-2" x1="595.18" y1="406.36" x2="595.18" y2="509.08"/><path class="cls-2" d="M829.58,583.76a2.69,2.69,0,1,0,2.69-2.69A2.7,2.7,0,0,0,829.58,583.76Z" transform="translate(-245.12 -115.88)"/><path class="cls-2" d="M846.29,583.65A2.69,2.69,0,1,0,849,581,2.69,2.69,0,0,0,846.29,583.65Z" transform="translate(-245.12 -115.88)"/><rect class="cls-2" x="677.43" y="410.45" width="47.52" height="50.98"/><rect class="cls-2" x="742.27" y="409.92" width="47.52" height="51.07"/><line class="cls-2" x1="733.4" y1="406.29" x2="733.4" y2="509.08"/><circle class="cls-2" cx="725.38" cy="468.16" r="2.69"/><circle class="cls-2" cx="742.08" cy="468.05" r="2.69"/><path class="cls-2" d="M516.31,754.06c-5.13-30.93-51.18-31.34-62.32-34.63-12.67-3.74-8.64-14.11-29.66-25-75.17-30.82-129.6-7.78-137.38-5.19s-12.09,2.88-14.69-5.18c-3.13-12.55-15.23-12.46-26.64-9.17" transform="translate(-245.12 -115.88)"/><polyline class="cls-2" points="271.2 638.17 216.94 667.48 0.5 667.48"/><line class="cls-2" x1="510.18" y1="509.08" x2="271.2" y2="638.17"/><polyline class="cls-2" points="840.82 509.08 1126.19 667.73 1381.27 670.82"/><line class="cls-2" x1="1381.27" y1="677.85" x2="0.5" y2="677.85"/><path class="cls-2" d="M1556.14,276.84c19.61,9.1,43.23,20.6,70.24,15.21" transform="translate(-245.12 -115.88)"/><path class="cls-2" d="M1379.37,281.05c46.42,2.48,113.19-1.18,142-13.2,4.84-1.27,10.24-.55,16.17,1.28" transform="translate(-245.12 -115.88)"/><path class="cls-2" d="M1297.89,270.79c-28.23,2.17-60.25,10-60.25,10s-115.49,29.37-150.91-1.15c-31.11-41.19-46.66-35.14-98.5-23.91s-70-.86-82.94-17.85S885.7,224.65,884,223.21,827.53,218,818.31,201.9s19-30.53,27.94-40.61,8.64-34.56,27.07-40.32a56.35,56.35,0,0,0,10.92-4.59" transform="translate(-245.12 -115.88)"/><path class="cls-2" d="M1537.49,269.13A116.61,116.61,0,0,1,1557.32,254c39.17-23.32,49-23.61,57.89-40.32,7.75-14.5,6.39-18.59,11.17-28.47" transform="translate(-245.12 -115.88)"/><path class="cls-2" d="M1403,336.68c-14.34-22.42-26.24-40.28-79.2-59-6-1.22-15.29-3.72-25.86-6.85" transform="translate(-245.12 -115.88)"/><path class="cls-2" d="M1379.37,281.05c12.22,4.75,27.42,11.86,41.15,21.65,27.07,19.29,43.78,17.85,70.27,38,2.83-9.89,19.34-46,46.7-71.58" transform="translate(-245.12 -115.88)"/><path class="cls-2" d="M1297.89,270.79c-24.24-7.18-54.89-17.66-65.72-23.68-9.79-4-58.18-5.18-111.17,20.74-10.94,4,17.28-18.43,77.18-27.07,18.44-2.31,25.92-1.16,25.92-1.16s-47.8-37.44-57-40.32-54.14-23-74.88-23-91.58,7.49-103.1,17.28c-9.22.58,15-13.82,85.24-21.31a120.31,120.31,0,0,1,15.56,0s-54.72-21.89-74.31-52.41c-.81-1.28-1.54-2.41-2.2-3.44" transform="translate(-245.12 -115.88)"/><path class="cls-2" d="M1436.54,399.84c1.26,5.87,2.36,12.19,3.33,18.83" transform="translate(-245.12 -115.88)"/><path class="cls-2" d="M1379.37,281.05a172.69,172.69,0,0,0-23.07-7.44c0-14.4-1.16-20.45-1.16-20.45s5.48-.58,24.77-4.9c34.27-6.91,46.37-30.24,59.33-47.52s47.81-43.48,52.7-47.52,22.47-15.26,5.76-7.77-65.08,55-70.46,61.53-6.34-1.34-6.34-1.34-10.75-39.94-11.9-48.77c-2.11-20.93-6.72-21.69-5-7.1,2.49,28,13,56.45,14,64.13s-9.4,29.76-64.51,35.71c-56.83-.39-68.93-52-72-70.85s-9-23.81-7.29-10.56c17.85,95,77.47,84.38,77.47,84.38s.57,20.74-1.44,20.16-2.88,2-57.89-13-55.87-20.44-84.67-38.3-32.83-24.48-35.14-28.8c-6.91-9.79-21.31-63.65-19.29-49.25s16.27,52.42,16.27,52.42-.72,1.73-8.79-2.88-53-18.43-88.12-33.41c-26.32-14.52-46.11-33.16-56.15-43.18" transform="translate(-245.12 -115.88)"/><path class="cls-2" d="M1445.6,584.87c.87-26.28,2.69-108.47-5.73-166.2" transform="translate(-245.12 -115.88)"/><path class="cls-2" d="M1403,336.68c5.47,8.55,11.29,17.76,19.87,27.94,5.89,7,10.35,19.5,13.72,35.22" transform="translate(-245.12 -115.88)"/><path class="cls-2" d="M1516.36,399.84q0,5.75.35,11.72c.14,2.4.3,4.76.47,7.11" transform="translate(-245.12 -115.88)"/><path class="cls-2" d="M1517.18,418.67c4.39,60.28,18.38,104.51,21.71,138.33a276.07,276.07,0,0,0,8.44,49.08" transform="translate(-245.12 -115.88)"/><path class="cls-2" d="M1516.36,399.84a203.51,203.51,0,0,1,10.07-63.16" transform="translate(-245.12 -115.88)"/><path class="cls-2" d="M1556.14,276.84a30.32,30.32,0,0,0-6.88,8.58c-4.83,9.81-15,27.23-22.83,51.26" transform="translate(-245.12 -115.88)"/><path class="cls-2" d="M1556.14,276.84c15.8-14.52,49.21-27.66,59.36-43.84,6.07-9.68,9.23-21.54,10.88-30.95" transform="translate(-245.12 -115.88)"/><path class="cls-2" d="M345.21,116.38c-9.32,26.32-17.72,33.34-27.15,42.41-20.57,23.18-60.84,40.81-72.44,45.57" transform="translate(-245.12 -115.88)"/><path class="cls-2" d="M348.25,116.38c-1.17,5.59-4.88,17.05-16.75,35.12,5.37-5,24.19-16.9,33.79-22.66a157.61,157.61,0,0,0,18-12.46" transform="translate(-245.12 -115.88)"/><path class="cls-2" d="M389,116.38c-12.47,9.23-36.86,25.27-46,32-10.37,7.68-8.84,5-23.81,18.05-30.2,26.26-64.32,38.77-73.59,41.85" transform="translate(-245.12 -115.88)"/><path class="cls-2" d="M576.38,649.13c-9.82,1.37-16.12,3.47-16.12,5.84,0,4.11,19,7.44,42.47,7.44s42.47-3.33,42.47-7.44c0-2.33-6.1-4.4-15.64-5.76" transform="translate(-245.12 -115.88)"/><line class="cls-2" x1="361.35" y1="225.33" x2="361.35" y2="283.96"/><line class="cls-2" x1="361.35" y1="407.66" x2="361.35" y2="404.73"/><line class="cls-2" x1="361.35" y1="283.96" x2="361.35" y2="302.79"/><line class="cls-2" x1="361.35" y1="400.89" x2="361.35" y2="302.79"/><line class="cls-2" x1="361.35" y1="415.34" x2="361.35" y2="454.08"/><line class="cls-2" x1="351.84" y1="407.66" x2="351.84" y2="404.73"/><line class="cls-2" x1="351.84" y1="302.79" x2="351.84" y2="400.89"/><line class="cls-2" x1="351.84" y1="283.96" x2="351.84" y2="302.79"/><line class="cls-2" x1="351.84" y1="283.96" x2="351.84" y2="225.54"/><line class="cls-2" x1="351.84" y1="454.08" x2="351.84" y2="415.34"/><polyline class="cls-2" points="351.85 454.07 331.02 454.07 331.02 460.69 383.65 460.69 383.65 454.07 361.35 454.07"/><line class="cls-2" x1="361.35" y1="454.08" x2="351.84" y2="454.08"/><polyline class="cls-2" points="378.11 520.76 384.45 520.76 384.45 533.32"/><line class="cls-2" x1="378.11" y1="520.76" x2="337.33" y2="520.76"/><polyline class="cls-2" points="331.26 533.25 331.26 537.02 384.45 537.02 384.45 533.32"/><polyline class="cls-2" points="331.26 533.25 331.26 520.76 337.33 520.76"/><line class="cls-2" x1="378.11" y1="468.32" x2="378.11" y2="507.5"/><line class="cls-2" x1="378.11" y1="507.5" x2="378.11" y2="520.76"/><line class="cls-2" x1="337.33" y1="508.88" x2="337.33" y2="520.76"/><polyline class="cls-2" points="378.11 468.32 378.11 460.86 337.33 460.86 337.33 473.81"/><line class="cls-2" x1="337.33" y1="508.88" x2="337.33" y2="473.81"/><polyline class="cls-2" points="361.35 407.66 367.69 407.66 367.69 415.34 361.35 415.34"/><polyline class="cls-2" points="351.85 407.66 345.8 407.66 345.8 415.34 351.85 415.34"/><polyline class="cls-2" points="361.35 404.73 364.71 404.73 364.71 400.89 361.35 400.89"/><polyline class="cls-2" points="351.85 404.73 348.58 404.73 348.58 400.89 351.85 400.89"/><polyline class="cls-2" points="361.35 225.33 367.73 225.19 370.13 220.79"/><line class="cls-2" x1="323.17" y1="168.65" x2="382.75" y2="167.93"/><polyline class="cls-2" points="323.17 168.65 303.64 168.89 308.51 174.39 312.73 174.77 342.71 220.79"/><polyline class="cls-2" points="370.13 220.79 395.89 173.72 399.53 173.72 405.6 167.65 382.75 167.93"/><line class="cls-2" x1="361.35" y1="225.33" x2="351.84" y2="225.54"/><polyline class="cls-2" points="351.85 225.54 345.88 225.67 342.71 220.79"/><path class="cls-2" d="M587,289.63l-13,.13A7.3,7.3,0,0,0,567.9,301l20.19,32a7.3,7.3,0,0,0,6.27,3.41l13.5-.15a7.31,7.31,0,0,0,6.32-3.77l17.87-32.41a7.31,7.31,0,0,0-6.48-10.83l-11.42.11" transform="translate(-245.12 -115.88)"/><polyline class="cls-2" points="361.02 208.8 366.22 208.8 366.22 176.93 345.1 176.93 345.1 208.8 349.85 208.8"/><polyline class="cls-2" points="369.03 173.47 369.03 171.51 341.84 171.51 341.84 173.75"/><polyline class="cls-2" points="369.03 173.47 369.03 210.59 361.02 210.59"/><polyline class="cls-2" points="341.84 173.75 341.84 210.59 349.85 210.59"/><path class="cls-2" d="M568.29,284.54c0-5,9.82-9.26,23-10.36" transform="translate(-245.12 -115.88)"/><path class="cls-2" d="M591.28,274.18q3.3-.29,6.83-.29c2.32,0,4.57.1,6.74.28" transform="translate(-245.12 -115.88)"/><path class="cls-2" d="M604.85,274.17c12.59,1,22.12,4.92,23,9.65" transform="translate(-245.12 -115.88)"/><path class="cls-2" d="M596.46,264.64c-2.17-.2-3.76-.86-3.76-1.64,0-.94,2.28-1.7,5.09-1.7s5.1.76,5.1,1.7-1.66,1.47-3.89,1.65" transform="translate(-245.12 -115.88)"/><line class="cls-2" x1="359.73" y1="158.29" x2="353.89" y2="148.76"/><line class="cls-2" x1="346.17" y1="158.29" x2="351.34" y2="148.75"/><polyline class="cls-2" points="361.02 210.59 361.02 214.66 349.85 214.66 349.85 210.59"/><line class="cls-2" x1="361.02" y1="208.8" x2="361.02" y2="210.59"/><polyline class="cls-2" points="349.85 208.8 349.85 204.22 361.02 204.22 361.02 208.8"/><line class="cls-2" x1="349.85" y1="208.8" x2="349.85" y2="210.59"/><line class="cls-2" x1="256.89" y1="456.67" x2="256.89" y2="453.21"/><line class="cls-2" x1="256.89" y1="471.25" x2="256.89" y2="462.31"/><line class="cls-2" x1="127.1" y1="427.1" x2="127.1" y2="453.21"/><polyline class="cls-2" points="127.1 473.94 127.1 478.36 242.68 478.36"/><polyline class="cls-2" points="256.89 420.95 256.89 418.46 192.08 418.07"/><line class="cls-2" x1="127.1" y1="473.95" x2="127.1" y2="462.31"/><polyline class="cls-2" points="127.1 420.95 127.1 417.69 188 418.05"/><line class="cls-2" x1="127.1" y1="453.21" x2="127.1" y2="456.67"/><line class="cls-2" x1="256.89" y1="420.95" x2="256.89" y2="427.1"/><line class="cls-2" x1="127.1" y1="420.95" x2="127.1" y2="427.1"/><line class="cls-2" x1="256.89" y1="462.31" x2="256.89" y2="456.67"/><line class="cls-2" x1="188" y1="418.05" x2="192.08" y2="418.07"/><line class="cls-2" x1="127.1" y1="456.67" x2="127.1" y2="462.31"/><line class="cls-2" x1="256.89" y1="453.21" x2="256.89" y2="427.1"/><line class="cls-2" x1="188" y1="456.67" x2="188" y2="462.31"/><line class="cls-2" x1="188" y1="427.1" x2="188" y2="453.21"/><line class="cls-2" x1="188" y1="420.95" x2="188" y2="418.05"/><line class="cls-2" x1="192.08" y1="462.31" x2="192.08" y2="456.67"/><line class="cls-2" x1="192.08" y1="453.21" x2="192.08" y2="427.1"/><line class="cls-2" x1="192.08" y1="418.07" x2="192.08" y2="420.95"/><line class="cls-2" x1="188" y1="462.31" x2="127.1" y2="462.31"/><line class="cls-2" x1="192.08" y1="462.31" x2="256.89" y2="462.31"/><line class="cls-2" x1="192.08" y1="453.21" x2="256.89" y2="453.21"/><line class="cls-2" x1="188" y1="453.21" x2="127.1" y2="453.21"/><line class="cls-2" x1="192.08" y1="456.67" x2="256.89" y2="456.67"/><line class="cls-2" x1="188" y1="456.67" x2="127.1" y2="456.67"/><line class="cls-2" x1="127.1" y1="473.95" x2="250.65" y2="473.95"/><line class="cls-2" x1="192.08" y1="427.1" x2="256.89" y2="427.1"/><line class="cls-2" x1="188" y1="427.1" x2="127.1" y2="427.1"/><line class="cls-2" x1="192.08" y1="420.95" x2="256.89" y2="420.95"/><line class="cls-2" x1="127.1" y1="420.95" x2="188" y2="420.95"/><line class="cls-2" x1="988.52" y1="357.31" x2="988.52" y2="351.67"/><line class="cls-2" x1="988.52" y1="322.1" x2="988.52" y2="348.21"/><line class="cls-2" x1="1118.31" y1="351.67" x2="1118.31" y2="357.31"/><line class="cls-2" x1="988.52" y1="368.95" x2="988.52" y2="357.31"/><line class="cls-2" x1="988.52" y1="315.95" x2="988.52" y2="322.1"/><line class="cls-2" x1="1053.49" y1="313.07" x2="1049.42" y2="313.05"/><line class="cls-2" x1="1118.31" y1="315.95" x2="1118.31" y2="322.1"/><line class="cls-2" x1="1118.31" y1="348.21" x2="1118.31" y2="351.67"/><polyline class="cls-2" points="1049.42 313.05 988.52 312.69 988.52 315.95"/><polyline class="cls-2" points="1118.31 315.95 1118.31 313.46 1053.49 313.07"/><line class="cls-2" x1="988.52" y1="351.67" x2="988.52" y2="348.21"/><polyline class="cls-2" points="988.52 368.94 988.52 373.36 1118.31 373.36 1118.31 368.94"/><line class="cls-2" x1="1118.31" y1="357.31" x2="1118.31" y2="368.95"/><line class="cls-2" x1="1118.31" y1="322.1" x2="1118.31" y2="348.21"/><line class="cls-2" x1="1049.42" y1="357.31" x2="1049.42" y2="351.67"/><line class="cls-2" x1="1049.42" y1="348.21" x2="1049.42" y2="322.1"/><line class="cls-2" x1="1049.42" y1="313.05" x2="1049.42" y2="315.95"/><line class="cls-2" x1="1053.49" y1="351.67" x2="1053.49" y2="357.31"/><line class="cls-2" x1="1053.49" y1="322.1" x2="1053.49" y2="348.21"/><line class="cls-2" x1="1053.49" y1="313.07" x2="1053.49" y2="315.95"/><line class="cls-2" x1="988.52" y1="357.31" x2="1049.42" y2="357.31"/><line class="cls-2" x1="1118.31" y1="357.31" x2="1053.49" y2="357.31"/><line class="cls-2" x1="1053.49" y1="357.31" x2="1049.42" y2="357.31"/><line class="cls-2" x1="1118.31" y1="348.21" x2="1053.49" y2="348.21"/><line class="cls-2" x1="988.52" y1="348.21" x2="1049.42" y2="348.21"/><line class="cls-2" x1="1118.31" y1="351.67" x2="1053.49" y2="351.67"/><line class="cls-2" x1="988.52" y1="351.67" x2="1049.42" y2="351.67"/><line class="cls-2" x1="1118.31" y1="368.95" x2="988.52" y2="368.95"/><line class="cls-2" x1="1118.31" y1="322.1" x2="1053.49" y2="322.1"/><line class="cls-2" x1="988.52" y1="322.1" x2="1049.42" y2="322.1"/><line class="cls-2" x1="1118.31" y1="315.95" x2="1053.49" y2="315.95"/><line class="cls-2" x1="988.52" y1="315.95" x2="1049.42" y2="315.95"/><line class="cls-2" x1="988.12" y1="456.23" x2="988.12" y2="452.77"/><line class="cls-2" x1="1117.91" y1="456.23" x2="1117.91" y2="452.77"/><line class="cls-2" x1="988.12" y1="461.87" x2="988.12" y2="473.51"/><line class="cls-2" x1="988.12" y1="426.66" x2="988.12" y2="420.51"/><line class="cls-2" x1="988.12" y1="452.77" x2="988.12" y2="426.66"/><line class="cls-2" x1="1049.02" y1="417.61" x2="1053.09" y2="417.63"/><line class="cls-2" x1="1117.91" y1="461.87" x2="1117.91" y2="456.23"/><line class="cls-2" x1="1117.91" y1="452.77" x2="1117.91" y2="426.66"/><line class="cls-2" x1="1117.91" y1="466.5" x2="1117.91" y2="461.87"/><polyline class="cls-2" points="1029.64 477.92 988.12 477.92 988.12 473.5"/><polyline class="cls-2" points="1117.91 420.51 1117.91 418.02 1053.09 417.63"/><polyline class="cls-2" points="988.12 420.51 988.12 417.25 1049.02 417.61"/><line class="cls-2" x1="988.12" y1="461.87" x2="988.12" y2="456.23"/><line class="cls-2" x1="1117.91" y1="426.66" x2="1117.91" y2="420.51"/><line class="cls-2" x1="1049.02" y1="461.87" x2="1049.02" y2="456.23"/><line class="cls-2" x1="1049.02" y1="463.56" x2="1049.02" y2="461.87"/><line class="cls-2" x1="1049.02" y1="452.77" x2="1049.02" y2="426.66"/><line class="cls-2" x1="1049.02" y1="420.51" x2="1049.02" y2="417.61"/><line class="cls-2" x1="1053.09" y1="461.87" x2="1053.09" y2="463.27"/><line class="cls-2" x1="1053.09" y1="461.87" x2="1053.09" y2="456.23"/><line class="cls-2" x1="1053.09" y1="426.66" x2="1053.09" y2="452.77"/><line class="cls-2" x1="1053.09" y1="417.63" x2="1053.09" y2="420.51"/><line class="cls-2" x1="1053.09" y1="461.87" x2="1117.91" y2="461.87"/><line class="cls-2" x1="988.12" y1="461.87" x2="1049.02" y2="461.87"/><line class="cls-2" x1="1117.91" y1="452.77" x2="1053.09" y2="452.77"/><line class="cls-2" x1="988.12" y1="452.77" x2="1049.02" y2="452.77"/><line class="cls-2" x1="1117.91" y1="456.23" x2="1053.09" y2="456.23"/><line class="cls-2" x1="988.12" y1="456.23" x2="1049.02" y2="456.23"/><line class="cls-2" x1="1029.31" y1="473.51" x2="988.12" y2="473.51"/><line class="cls-2" x1="1117.91" y1="426.66" x2="1053.09" y2="426.66"/><line class="cls-2" x1="988.12" y1="426.66" x2="1049.02" y2="426.66"/><line class="cls-2" x1="1117.91" y1="420.51" x2="1053.09" y2="420.51"/><line class="cls-2" x1="988.12" y1="420.51" x2="1049.02" y2="420.51"/><line class="cls-2" x1="1328.21" y1="351.99" x2="1328.21" y2="348.53"/><line class="cls-2" x1="1328.21" y1="357.64" x2="1328.21" y2="351.99"/><polyline class="cls-2" points="1328.21 316.27 1328.21 313.01 1381.27 313.32"/><line class="cls-2" x1="1328.21" y1="322.42" x2="1328.21" y2="316.28"/><polyline class="cls-2" points="1328.21 369.27 1328.21 373.68 1381.27 373.68"/><line class="cls-2" x1="1328.21" y1="369.27" x2="1328.21" y2="357.64"/><line class="cls-2" x1="1328.21" y1="348.53" x2="1328.21" y2="322.42"/><line class="cls-2" x1="1328.21" y1="357.64" x2="1381.27" y2="357.64"/><line class="cls-2" x1="1328.21" y1="348.53" x2="1381.27" y2="348.53"/><line class="cls-2" x1="1328.21" y1="351.99" x2="1381.27" y2="351.99"/><line class="cls-2" x1="1328.21" y1="369.27" x2="1381.27" y2="369.27"/><line class="cls-2" x1="1328.21" y1="322.42" x2="1381.27" y2="322.42"/><line class="cls-2" x1="1328.21" y1="316.28" x2="1381.27" y2="316.28"/><polyline class="cls-2" points="1328.06 473.91 1328.06 478.33 1381.27 478.33"/><line class="cls-2" x1="1328.06" y1="473.91" x2="1328.06" y2="462.28"/><polyline class="cls-2" points="1328.06 420.92 1328.06 417.66 1381.27 417.97"/><line class="cls-2" x1="1328.06" y1="456.63" x2="1328.06" y2="453.18"/><line class="cls-2" x1="1328.06" y1="462.28" x2="1328.06" y2="456.63"/><line class="cls-2" x1="1328.06" y1="453.18" x2="1328.06" y2="427.07"/><line class="cls-2" x1="1328.06" y1="427.07" x2="1328.06" y2="420.92"/><line class="cls-2" x1="1328.06" y1="462.28" x2="1381.27" y2="462.28"/><line class="cls-2" x1="1328.06" y1="453.18" x2="1381.27" y2="453.18"/><line class="cls-2" x1="1328.06" y1="456.63" x2="1381.27" y2="456.63"/><line class="cls-2" x1="1328.06" y1="473.91" x2="1381.27" y2="473.91"/><line class="cls-2" x1="1328.06" y1="427.07" x2="1381.27" y2="427.07"/><line class="cls-2" x1="1328.06" y1="420.92" x2="1381.27" y2="420.92"/><path class="cls-2" d="M1399.78,884.34c7.41.7,20.91.44,33.13-7.91" transform="translate(-245.12 -115.88)"/><path class="cls-2" d="M1399.78,884.34c1-8.68-1.83-20.6-3.74-27.4" transform="translate(-245.12 -115.88)"/><path class="cls-2" d="M1432.91,876.43c-4.32-6.6-6.49-15.09-8.81-25.24" transform="translate(-245.12 -115.88)"/><path class="cls-2" d="M1399.78,884.34a20.42,20.42,0,0,1-1,4.64,38.58,38.58,0,0,0-.58,23.17l24,.58s.29-2,4.64-1.74,56.49,7,59.39-.29-3.19-16.51-30.13-20c-11.85-2.54-18.71-7.39-23.22-14.28" transform="translate(-245.12 -115.88)"/><path class="cls-2" d="M1432.14,847.3a42.87,42.87,0,0,1-8,3.89" transform="translate(-245.12 -115.88)"/><path class="cls-2" d="M1396,856.94c-5.68.55-10.88.8-14.86.91" transform="translate(-245.12 -115.88)"/><path class="cls-2" d="M1396,856.94c9.17-.89,19.58-2.58,28.06-5.75" transform="translate(-245.12 -115.88)"/><path class="cls-2" d="M1280.76,865.57c-1-5.21-.23-12.41,4.29-22.71" transform="translate(-245.12 -115.88)"/><path class="cls-2" d="M1249.59,850.1c7.28-4.74,11.61-12.74,14-18.72" transform="translate(-245.12 -115.88)"/><path class="cls-2" d="M1249.59,850.1a25.15,25.15,0,0,1-4.53,2.34c-13.36,7.59-13,18.21-13,18.21l14.26,10.63s4-2.13,7.29.61,34.92,31,58.6,22.46c9.71-4.85-12.45-18.21-18.22-23.37-3.49-3.13-11.3-6.14-13.18-15.41" transform="translate(-245.12 -115.88)"/><path class="cls-2" d="M1280.76,865.57c-14-.74-25.25-9.66-31.17-15.47" transform="translate(-245.12 -115.88)"/><path class="cls-2" d="M1263.57,831.38a123.4,123.4,0,0,1-11.38-8.61" transform="translate(-245.12 -115.88)"/><path class="cls-2" d="M1285.05,842.86a116.86,116.86,0,0,1-21.48-11.48" transform="translate(-245.12 -115.88)"/><path class="cls-2" d="M1285.05,842.86a96.6,96.6,0,0,0,12.39,4" transform="translate(-245.12 -115.88)"/><path class="cls-2" d="M1297.44,846.9c7.53-11.7,36.53-58.75,55-115.86" transform="translate(-245.12 -115.88)"/><path class="cls-2" d="M1309.16,629.9c.64,2.73,1.5,5.87,2.67,9.43" transform="translate(-245.12 -115.88)"/><path class="cls-2" d="M1381.18,857.85c-4.56-31.43-14.53-82.57-28.75-126.81" transform="translate(-245.12 -115.88)"/><path class="cls-2" d="M1352.43,731c-5.56-17.29-11.77-33.52-18.56-47.11-11.87-18.75-18.42-33.63-22-44.6" transform="translate(-245.12 -115.88)"/><path class="cls-2" d="M1382.3,616.11c7.66,31.43,28,115.16,29.44,124.75,1.57,10.22,16.37,85.91,20.4,106.44" transform="translate(-245.12 -115.88)"/><path class="cls-2" d="M1311.83,639.33c-.77,22.27-5,82.66-27.6,124.3-16.06,29.59-26.88,49.59-32,59.14" transform="translate(-245.12 -115.88)"/><path class="cls-2" d="M1382.3,616.11a24.82,24.82,0,0,1-8.21,1.94c-9.41,0-6.68-3.94-28.23-.3-16,3.61-26.53,1.47-32.67-1.06" transform="translate(-245.12 -115.88)"/><path class="cls-2" d="M1382.3,616.11a93.16,93.16,0,0,0,10.83-5.16" transform="translate(-245.12 -115.88)"/><path class="cls-2" d="M1277.72,667.11c-6,2.72-15.44,8.26-18.09,16.82,14,17,28.54,3,31.27.31,1.33-1.32,9.83-27,18.26-54.34" transform="translate(-245.12 -115.88)"/><path class="cls-2" d="M1309.16,629.9c1.36-4.39,2.71-8.83,4-13.21" transform="translate(-245.12 -115.88)"/><path class="cls-2" d="M1340.49,526.8C1335.63,537.69,1327,558,1327,564.92c0,4.26-6.4,27.15-13.84,51.77" transform="translate(-245.12 -115.88)"/><path class="cls-2" d="M1275.12,684.85c1.41-.48,1.28-8.12,2.6-17.74" transform="translate(-245.12 -115.88)"/><path class="cls-2" d="M1299,550.52c-7.62,24-9.23,53.12-10.41,73.57" transform="translate(-245.12 -115.88)"/><path class="cls-2" d="M1301.82,542.67q-1.52,3.81-2.79,7.85" transform="translate(-245.12 -115.88)"/><path class="cls-2" d="M1277.72,667.11c1.22-9,3.7-19.61,9.85-27.81.4-4.13.71-9.31,1-15.21" transform="translate(-245.12 -115.88)"/><path class="cls-2" d="M1311.45,512.07c-.83,4.5-2.66,11.82-6.58,23.71-1.1,2.21-2.11,4.52-3,6.89" transform="translate(-245.12 -115.88)"/><path class="cls-2" d="M1311.45,512.07a71.26,71.26,0,0,1-9.06-7.57" transform="translate(-245.12 -115.88)"/><path class="cls-2" d="M1311.45,512.07a118.85,118.85,0,0,0,29,14.73" transform="translate(-245.12 -115.88)"/><path class="cls-2" d="M1340.49,526.8c2.35.85,4.81,1.67,7.4,2.46" transform="translate(-245.12 -115.88)"/><path class="cls-2" d="M1351.18,521.35c-1.22,3.14-2.37,5.84-3.29,7.91" transform="translate(-245.12 -115.88)"/><path class="cls-2" d="M1351.18,521.35c6.77-17.38,15.75-48.11-.46-58.14C1321.51,449.7,1309,478.6,1304.34,496" transform="translate(-245.12 -115.88)"/><path class="cls-2" d="M1304.34,496c-.93,3.43-1.56,6.41-1.95,8.53" transform="translate(-245.12 -115.88)"/><path class="cls-2" d="M1351.18,521.35A184.66,184.66,0,0,1,1304.34,496" transform="translate(-245.12 -115.88)"/><path class="cls-2" d="M1391.88,592.78c.62,6.91,1.06,13.34,1.25,18.17" transform="translate(-245.12 -115.88)"/><path class="cls-2" d="M1380,489.13c-3.48-23.95-13.35-57.2-46.9-53.54-12.54,1.36-21,6.56-26.5,13.83" transform="translate(-245.12 -115.88)"/><path class="cls-2" d="M1391.88,592.78c-1.45-16.1-3.85-34.81-6.25-41.82-.13-.38-.23-.76-.35-1.14" transform="translate(-245.12 -115.88)"/><path class="cls-2" d="M1301.82,542.67a147.24,147.24,0,0,0-2.11-26.63c-2.62-15.93-7.28-48,6.9-66.62" transform="translate(-245.12 -115.88)"/><path class="cls-2" d="M1385.28,549.82c-3.47-11.33-1.82-25.22-3.29-41.67-.38-4.22-.83-11.12-2-19" transform="translate(-245.12 -115.88)"/><path class="cls-2" d="M1407.47,619a38.43,38.43,0,0,1,3.66,17c-3.26,5-4.91,8.79-5.65,11.67" transform="translate(-245.12 -115.88)"/><path class="cls-2" d="M1405.48,647.64c-1.6,6.21,1.1,8.06,1.1,8.06s7-10.93,9.11-15.79,3.64-21.86,2.73-30.36c-.72-6.7-23.53-44.18-33.14-59.73" transform="translate(-245.12 -115.88)"/><path class="cls-2" d="M1403.85,613.19a22.44,22.44,0,0,1,3.62,5.76" transform="translate(-245.12 -115.88)"/><path class="cls-2" d="M1404.84,629.79c-1.62,3.1-3.84,5.15-5.24,3.75-2.43-2.43-1.52-20.95-2.43-22.47s-1.82-13.06-1.82-13.06l-3.47-5.23" transform="translate(-245.12 -115.88)"/><path class="cls-2" d="M1407.47,619a10.74,10.74,0,0,0-.59,3.35,17.16,17.16,0,0,1-2,7.49" transform="translate(-245.12 -115.88)"/><path class="cls-2" d="M1404.84,629.79a15.89,15.89,0,0,1-1.6,5.26c-2.08,3.7.76,9.85,2.24,12.59" transform="translate(-245.12 -115.88)"/><path class="cls-2" d="M1293.55,471.46c2.11-9.86,6.14-17.89,13.06-22" transform="translate(-245.12 -115.88)"/><path class="cls-2" d="M1299,550.52c-3.23-14-11.07-53-5.48-79.06" transform="translate(-245.12 -115.88)"/><path class="cls-2" d="M1293.94,471.71l-.39-.25" transform="translate(-245.12 -115.88)"/><path class="cls-2" d="M1283.14,468.38c-11.11-.25-28.17,8.73-38.38,59.81-.31,8.19-21.26,55.25-.61,75.29,4.39,4.39,7.95,19.81,44.47,20.61" transform="translate(-245.12 -115.88)"/><path class="cls-2" d="M1283.14,468.38a20.87,20.87,0,0,1,10.41,3.08" transform="translate(-245.12 -115.88)"/><path class="cls-2" d="M1374,443.36c-11.16-19.31-34-19-53-14.76q-.66.15-1.32.33" transform="translate(-245.12 -115.88)"/><path class="cls-2" d="M1374,443.36c5.59,9.69,8.26,24.28,6,45.77" transform="translate(-245.12 -115.88)"/><path class="cls-2" d="M1283.14,468.38c2.8-7.62,13.84-33.47,36.5-39.45" transform="translate(-245.12 -115.88)"/><path class="cls-2" d="M1377.28,421.76l.3-7s-1.69-.21-4.51-.52" transform="translate(-245.12 -115.88)"/><path class="cls-2" d="M1374,443.36l6.13-21.74a20.52,20.52,0,0,1-2.81.14" transform="translate(-245.12 -115.88)"/><path class="cls-2" d="M1318.84,413.42a.79.79,0,0,0,0,.62" transform="translate(-245.12 -115.88)"/><path class="cls-2" d="M1372.42,421.67c1.91.07,3.56.09,4.86.09" transform="translate(-245.12 -115.88)"/><path class="cls-2" d="M1336.11,418.68c-9.23-1.25-16.44-2.84-17.24-4.64" transform="translate(-245.12 -115.88)"/><path class="cls-2" d="M1338.43,411.46c-10.31-.41-18.82-.09-19.59,2" transform="translate(-245.12 -115.88)"/><path class="cls-2" d="M1336.11,418.68c11.9,1.62,27.14,2.69,36.31,3" transform="translate(-245.12 -115.88)"/><line class="cls-2" x1="1073.75" y1="298.16" x2="1073.72" y2="297.54"/><line class="cls-2" x1="1073.75" y1="298.16" x2="1074.53" y2="313.04"/><path class="cls-2" d="M1373.07,414.27c1.44-7.38,5-7.49,8.39-6.43,14,7.75,11-8,11-8l5.12-1.93-1.82-4,4.1-2.62-1.71-3.52s4-3.08,5.58-6-6.26-10.7-6.94-13.78c6.48-14.11-.57-16.5-.57-21.67l.17-.16" transform="translate(-245.12 -115.88)"/><path class="cls-2" d="M1396.43,346.16c12.45-11.7-33.1-45.85-61.5-16.84s-4.93,51.56,1.58,65.46" transform="translate(-245.12 -115.88)"/><path class="cls-2" d="M1338.43,411.46a32.11,32.11,0,0,1-2.32,7.22" transform="translate(-245.12 -115.88)"/><path class="cls-2" d="M1338.43,411.46A26.71,26.71,0,0,0,1336.6,395l-.09-.2" transform="translate(-245.12 -115.88)"/><path class="cls-2" d="M1373.07,414.27a41.88,41.88,0,0,0-.65,7.4" transform="translate(-245.12 -115.88)"/><path class="cls-2" d="M1336.51,394.78c4.47.14,12.26-1.6,15.57-14.38,2.28-4.09-2.28-5.92-2-11.15s14.8-14.35,15.71,4.32c.23,2.51.46,5.47.46,5.47l3.87-1.37s-5-16.62,5.69-15.71c.91-5,1.37-10.25,1.37-10.25a55.94,55.94,0,0,0,19.3-5.55" transform="translate(-245.12 -115.88)"/><path class="cls-2" d="M577.49,355.46c10.56-18.64-6.72-24.64-14.14-27.37s-10,1.51-17,1.35a6.3,6.3,0,0,0-1.56.14c-12.68,2.86-14.84,8.29-19.15,15.09s-12.83,6.67-23,9.18-31.59,13-28.6,43.93c2.42,25.14,19.53,24.83,25.83,23.84" transform="translate(-245.12 -115.88)"/><path class="cls-2" d="M559.13,398.23c-4,.24-6.74,5.34-8.5,10.65" transform="translate(-245.12 -115.88)"/><path class="cls-2" d="M550.63,408.88a64.54,64.54,0,0,0-1.72,6.45" transform="translate(-245.12 -115.88)"/><path class="cls-2" d="M559.13,398.23a5.81,5.81,0,0,1,2.65.5c9,3.88,10.16-3.85,10.3-6.19a.92.92,0,0,1,.66-.83c1.26-.37,3.93-1.22,4.1-1.75.21-.69-1-2.25-1-2.25l1.7-1.27a.92.92,0,0,0,.2-1.26c-.56-.76-1-2.08.7-3.45,2.69-2.12,1.52-3.23.36-4.34A12.23,12.23,0,0,1,576,371a2.63,2.63,0,0,1,.51-1.73,13.19,13.19,0,0,0,1-13.8" transform="translate(-245.12 -115.88)"/><path class="cls-2" d="M530.32,396.11c1.34-4.59,5.44-10.95,15.93-18.89-.53-3.4-5-10.81.61-13.22s6.94,4.4,6.94,4.4,2.52-19,13.69-18.77a11.11,11.11,0,0,1,10,5.83" transform="translate(-245.12 -115.88)"/><path class="cls-2" d="M499.9,421.62a39.27,39.27,0,0,1,1.41-17.86c3.6-12.23,17.47-13.86,29-7.65" transform="translate(-245.12 -115.88)"/><path class="cls-2" d="M566.86,421.85s-8.92,1.66-18-6.52" transform="translate(-245.12 -115.88)"/><path class="cls-2" d="M548.91,415.33a36.88,36.88,0,0,1-6.52-7.95,32.38,32.38,0,0,0-12.07-11.27" transform="translate(-245.12 -115.88)"/><path class="cls-2" d="M499.9,421.62c.13.76.28,1.48.44,2.15" transform="translate(-245.12 -115.88)"/><path class="cls-2" d="M560.35,442.25c1.79-1.3,3.84-2.91,6.18-4.9,15.42-13.11,0-21.87-6.23-23.55a32,32,0,0,1-9.67-4.92" transform="translate(-245.12 -115.88)"/><path class="cls-2" d="M547.3,612.71c-14.89,6.77-40.23-.66-54.87-6.08" transform="translate(-245.12 -115.88)"/><path class="cls-2" d="M547.3,612.71a20.39,20.39,0,0,0,2-1c-.08-3.49-.35-7.74-.64-11.4" transform="translate(-245.12 -115.88)"/><path class="cls-2" d="M496.1,596.5c11.89,3.11,38.32,9,52.59,3.77" transform="translate(-245.12 -115.88)"/><path class="cls-2" d="M560.35,442.25c-5.38-9-16.48-19.45-39.71-23.06a29.93,29.93,0,0,0-20.3,4.58" transform="translate(-245.12 -115.88)"/><path class="cls-2" d="M569.81,511c-3.56,15.55-12.7,25.11-16.77,36.86-4.16,12,3.2,20.2,5.76,29.76" transform="translate(-245.12 -115.88)"/><path class="cls-2" d="M558.8,577.58a21,21,0,0,1-2,16.31c-1.61,3-4.47,5.05-8.13,6.38" transform="translate(-245.12 -115.88)"/><path class="cls-2" d="M500.34,423.77c-10.11,6.53-15.37,17.87-17.66,22.1-3.5,6.45-15.56,16.75-17,35s-4,6.93-7.39,35.7a242.67,242.67,0,0,0-1.75,27.36" transform="translate(-245.12 -115.88)"/><path class="cls-2" d="M560.35,442.25a40.1,40.1,0,0,1,5.17,14.17c.69,3.33-1.77,15.53,3.57,23,2.95,13.1,2.64,23.18.72,31.54" transform="translate(-245.12 -115.88)"/><path class="cls-2" d="M613.4,574.22c2.32-3.36,3.73-5.93,3.73-5.93s-3.25-2.66-5.35-4.66c0-.17.06-.34.09-.51" transform="translate(-245.12 -115.88)"/><path class="cls-2" d="M613.4,574.22c-2.79,4-6.89,9.19-11.44,12.42" transform="translate(-245.12 -115.88)"/><path class="cls-2" d="M602,586.64a16.28,16.28,0,0,1-6.21,2.87,8,8,0,0,1-7.84-2.78" transform="translate(-245.12 -115.88)"/><path class="cls-2" d="M611.87,563.12c2.3-12.65-7.77-25.43-26.9-36.46-8.49-4.89-12.89-10.71-15.16-15.7" transform="translate(-245.12 -115.88)"/><path class="cls-2" d="M558.8,577.58c4.21,2.68,9.29,4.64,14.5,6.52,5.35,2.93,10.24,3.51,14.61,2.63" transform="translate(-245.12 -115.88)"/><path class="cls-2" d="M611.87,563.12c-3.15,6.53-11.48,21.07-24,23.61" transform="translate(-245.12 -115.88)"/><path class="cls-2" d="M613.58,618.92c-.46,5.75,1.66,8.19,3.06,6.64,19.37-27.79,3.83-45.37-3.24-51.34" transform="translate(-245.12 -115.88)"/><path class="cls-2" d="M613.58,618.92a37,37,0,0,1,3.73-12.52c1.38-4.19-1.13-7.24-3.31-9" transform="translate(-245.12 -115.88)"/><path class="cls-2" d="M615.48,594.39a21.51,21.51,0,0,0-1.48,3" transform="translate(-245.12 -115.88)"/><path class="cls-2" d="M610.66,608.42c-.29.28-.63.18-1.08-.42-2.29-3-1.24-15.34-4.63-17.86a11.82,11.82,0,0,1-3-3.5" transform="translate(-245.12 -115.88)"/><path class="cls-2" d="M614,597.4c-2,5-2.4,10.11-3.34,11" transform="translate(-245.12 -115.88)"/><path class="cls-2" d="M613.58,618.92a59.12,59.12,0,0,1-2.92-10.5" transform="translate(-245.12 -115.88)"/><path class="cls-2" d="M477.2,620.74l.06-.13s9.32-1.42,15.17-14" transform="translate(-245.12 -115.88)"/><path class="cls-2" d="M454.8,620.7a54.83,54.83,0,0,0,14.63,5.57" transform="translate(-245.12 -115.88)"/><path class="cls-2" d="M456.58,543.93c9.9-18.68,23.36-41.33,23.37-58.22,0-26.12,20.29-55.43,43.45-52s26,23.4,23.05,38.65-14.67,22.5-24.93,38.53-6.92,42.67-9.74,52.15c-2.55,8.56-10.25,18.74-15.68,33.47" transform="translate(-245.12 -115.88)"/><path class="cls-2" d="M469.43,626.27c.92.2,1.86.38,2.81.53a22.07,22.07,0,0,0,5-6.06" transform="translate(-245.12 -115.88)"/><path class="cls-2" d="M454.8,620.7a60,60,0,0,1-10.13-7" transform="translate(-245.12 -115.88)"/><path class="cls-2" d="M456.58,543.93c-5.4,10.2-9.75,19.22-10.25,25.46-1.33,16.49.56,34.49.82,36.78" transform="translate(-245.12 -115.88)"/><path class="cls-2" d="M444.67,613.74a52.53,52.53,0,0,0,2.5-7.32s0-.09,0-.25" transform="translate(-245.12 -115.88)"/><path class="cls-2" d="M496.1,596.5c-.58,1.58-1.14,3.2-1.67,4.89a40.45,40.45,0,0,1-2,5.24" transform="translate(-245.12 -115.88)"/><path class="cls-2" d="M465.1,654.36c-4.78,1.23-9.74,2.44-10.21,2.29a38.38,38.38,0,0,1-4.89-4.58" transform="translate(-245.12 -115.88)"/><path class="cls-2" d="M465.1,654.36l2.23-.58" transform="translate(-245.12 -115.88)"/><path class="cls-2" d="M450,652.07c-1.62-1.68-3.42-3.63-5-5.52" transform="translate(-245.12 -115.88)"/><path class="cls-2" d="M454.8,620.7a10.25,10.25,0,0,1-3.66,4.76c-5.38,3.77-11.62,10-10.92,13.91a9,9,0,0,0,1.44,2.88" transform="translate(-245.12 -115.88)"/><path class="cls-2" d="M441.66,642.25a48.64,48.64,0,0,0,3.32,4.3" transform="translate(-245.12 -115.88)"/><path class="cls-2" d="M473.7,655.69a16.09,16.09,0,0,1-.7,4.19l-4.55.41a21.74,21.74,0,0,0-.81-5.54" transform="translate(-245.12 -115.88)"/><path class="cls-2" d="M467.33,653.78c.11.31.21.64.31,1" transform="translate(-245.12 -115.88)"/><path class="cls-2" d="M460.26,645.69a14,14,0,0,1,7.07,8.09" transform="translate(-245.12 -115.88)"/><path class="cls-2" d="M462.24,640.74a24.56,24.56,0,0,1,7.82,5.49" transform="translate(-245.12 -115.88)"/><path class="cls-2" d="M470.06,646.23a13.24,13.24,0,0,1,3.64,9.46" transform="translate(-245.12 -115.88)"/><path class="cls-2" d="M462.24,640.74a15.88,15.88,0,0,1,1.76-2.21" transform="translate(-245.12 -115.88)"/><path class="cls-2" d="M462.24,640.74a11.5,11.5,0,0,0-2,5" transform="translate(-245.12 -115.88)"/><path class="cls-2" d="M435.89,650a22,22,0,0,0-.85,3.49,37,37,0,0,0,4.89,1,15.53,15.53,0,0,1,1.31-3.75" transform="translate(-245.12 -115.88)"/><path class="cls-2" d="M460.26,645.69a6.27,6.27,0,0,0,1.9,5.33" transform="translate(-245.12 -115.88)"/><path class="cls-2" d="M435.89,650a14.54,14.54,0,0,1,5.77-7.76" transform="translate(-245.12 -115.88)"/><path class="cls-2" d="M445,646.55a10.65,10.65,0,0,0-3.74,4.22" transform="translate(-245.12 -115.88)"/><path class="cls-2" d="M470.06,646.23c.43-3,.7-7.36-.65-10.26s-.7-7,0-9.7" transform="translate(-245.12 -115.88)"/><path class="cls-2" d="M554.47,711.38a14.35,14.35,0,0,1,11.87-6.56s-6.34-25.06-9.87-33.18c-2.94-6.78-7.69-46.14-9.17-58.93" transform="translate(-245.12 -115.88)"/><path class="cls-2" d="M554.47,711.38a16.75,16.75,0,0,0-1.85,4.08c-3.33,10.79-24.6,15.28-39.67,6" transform="translate(-245.12 -115.88)"/><path class="cls-2" d="M503,720.07a27.17,27.17,0,0,1,9.1.87c.29.2.6.38.9.56" transform="translate(-245.12 -115.88)"/><path class="cls-2" d="M481.25,731.66h.07c7.22-2.9,21.79-3.24,21.79-3.24l-.16-8.36" transform="translate(-245.12 -115.88)"/><path class="cls-2" d="M481.25,731.66a35,35,0,0,1-3.78-.66" transform="translate(-245.12 -115.88)"/><path class="cls-2" d="M411.69,677.63,408,712.08s53.09,15.46,69.49,18.92" transform="translate(-245.12 -115.88)"/><path class="cls-2" d="M465.1,654.36l2.54.39" transform="translate(-245.12 -115.88)"/><line class="cls-2" x1="257.84" y1="604.19" x2="257.06" y2="561.77"/><line class="cls-2" x1="257.06" y1="561.77" x2="256.78" y2="546.79"/><path class="cls-2" d="M473.7,655.69c15.47,2.41,28.15,4.44,28.15,4.44l0,2.55" transform="translate(-245.12 -115.88)"/><path class="cls-2" d="M406.36,676.31c3.89-8.73,10.92-24.14,13.83-28.28,2.76.21,8.5,1,15.7,2" transform="translate(-245.12 -115.88)"/><path class="cls-2" d="M450,652.07c-3-.46-6-.89-8.76-1.3" transform="translate(-245.12 -115.88)"/><path class="cls-2" d="M411.69,677.63l-5.33-1.32" transform="translate(-245.12 -115.88)"/><path class="cls-2" d="M487.74,683.6a36,36,0,0,0-3.05,9.72c-16-1.87-54.13-11-73-15.69" transform="translate(-245.12 -115.88)"/><path class="cls-2" d="M490.13,679c-.86,1.52-1.67,3.07-2.39,4.64" transform="translate(-245.12 -115.88)"/><path class="cls-2" d="M490.13,679a102.85,102.85,0,0,1,11.77-16.28" transform="translate(-245.12 -115.88)"/><path class="cls-2" d="M490.13,679c6.27,2,10.05.32,12-1.3" transform="translate(-245.12 -115.88)"/><line class="cls-2" x1="236.14" y1="615.77" x2="242.63" y2="567.72"/><path class="cls-2" d="M574.51,862.79c-9.07-12.11-14.23-33.9-15.92-71.85s-3.26-65.5-4.12-79.56" transform="translate(-245.12 -115.88)"/><path class="cls-2" d="M513,721.5c.67,1.72,1.48,3.82,2.36,6.15" transform="translate(-245.12 -115.88)"/><path class="cls-2" d="M545.72,867.3c0,1,.08,1.64.09,2,.06,2.73-4.15,18,.26,24.9,4.94,3.53,11.55.34,25.83.62s47.68.13,51.49-5.73c3.66-5.62-4.43-12.36-29.5-14.49a22,22,0,0,1-7.93-2.11,31.69,31.69,0,0,1-11.45-9.68" transform="translate(-245.12 -115.88)"/><path class="cls-2" d="M545.72,867.3c-.42-6.82-2.5-28.57-12.17-55.74-11-31-8.22-40.81-8.77-51.73-.34-6.79-5.57-21.79-9.47-32.18" transform="translate(-245.12 -115.88)"/><path class="cls-2" d="M574.51,862.79c-10,11.84-22.68,7.65-28.79,4.51" transform="translate(-245.12 -115.88)"/><path class="cls-2" d="M394.29,831.86a17.94,17.94,0,0,1-2.57,1.34c-6.69-.77-15.33,10.83-17.16,14S385.09,863,385.09,863s2.25,1.18,6.11,3.25,11.14,14.54,12.76,15.74,25.36,10.52,33.09,1.09-25.25-14.44-23.32-30.24" transform="translate(-245.12 -115.88)"/><path class="cls-2" d="M413.73,852.79c0-.12,0-.24,0-.36,2.49-16.09,62.14-63.08,81.13-80.47,12.8-11.72,18.25-31.71,20.4-44.31" transform="translate(-245.12 -115.88)"/><path class="cls-2" d="M477.47,731c-3,8.24-8.2,18.7-15.36,24.44-10.31,8.26-29.46,32.43-38.06,45.88-7.64,12-22,25.78-29.76,30.54" transform="translate(-245.12 -115.88)"/><path class="cls-2" d="M413.73,852.79a42.33,42.33,0,0,1-19.44-20.93" transform="translate(-245.12 -115.88)"/><path class="cls-2" d="M548.32,388.11a49.61,49.61,0,0,0,10.81,10.12" transform="translate(-245.12 -115.88)"/><path class="cls-2" d="M477.2,620.74c-12.28-3.94-25.35-11.66-30.05-14.57" transform="translate(-245.12 -115.88)"/><path class="cls-2" d="M1131.56,847c2.86,12.6,7.09,19,11.21,22.75" transform="translate(-245.12 -115.88)"/><path class="cls-2" d="M1105.85,848.65c2.69,6.65,4.92,15.85,2.55,25.29" transform="translate(-245.12 -115.88)"/><path class="cls-2" d="M1142.77,869.76c3.91,3.53,7.72,4.59,10.15,6.11,5.63,3.52,15.82,3.52,29.89,6.68s15.11,11.25,13,15.82-18.63,4.92-33.75,3.51-21.09-1-27.77,1.41c-17.57,2.46-28.47,2.11-32.69-8.09s6.33-16.17,6.68-20.74c0-.17.08-.34.12-.52" transform="translate(-245.12 -115.88)"/><path class="cls-2" d="M1131.56,847a110.89,110.89,0,0,1-25.71,1.64" transform="translate(-245.12 -115.88)"/><path class="cls-2" d="M1099.6,622.05c.53,2.68,1.12,5.64,1.76,8.85" transform="translate(-245.12 -115.88)"/><path class="cls-2" d="M1091.64,847.29a141.28,141.28,0,0,0,14.21,1.36" transform="translate(-245.12 -115.88)"/><path class="cls-2" d="M1131.56,847a71.13,71.13,0,0,0,11.07-3c-1.31-11.78-29.58-154.32-41.27-213.08" transform="translate(-245.12 -115.88)"/><path class="cls-2" d="M1064.3,715.48c5.48,16.65,12.71,40.09,16,57,4.29,22.37,9.3,59,11.39,74.77" transform="translate(-245.12 -115.88)"/><path class="cls-2" d="M1142.77,869.76c-11.29,8.92-26.49,6.4-34.37,4.18" transform="translate(-245.12 -115.88)"/><path class="cls-2" d="M943.08,838.39a112.49,112.49,0,0,0,22.49,14.75" transform="translate(-245.12 -115.88)"/><path class="cls-2" d="M1017.94,611.25c-4.47,20.79-.89,28.27-.89,42.92,0,16.11-1.86,26.64-14.25,52.67-22.31,48.33-66.92,105.34-75,114,3.09,5.91,8.73,12,15.26,17.54" transform="translate(-245.12 -115.88)"/><path class="cls-2" d="M965.57,853.14c2,1,3.88,1.77,5.63,2.41,36.8-35.59,69.42-91.92,93.1-140.07" transform="translate(-245.12 -115.88)"/><path class="cls-2" d="M1064.3,715.48c18.76-38.14,30.13-80,35.3-93.43" transform="translate(-245.12 -115.88)"/><path class="cls-2" d="M943.08,838.39c-2.38,4-5.93,8.68-10.56,11.53l-.42.25" transform="translate(-245.12 -115.88)"/><path class="cls-2" d="M965.57,853.14c-4.38,4.25-10.51,10.7-11.26,14.13a6.34,6.34,0,0,0,0,2.3" transform="translate(-245.12 -115.88)"/><path class="cls-2" d="M932.1,850.17c-10.77,6.36-29,7.47-19.5,26.47,3.51,7.73,18,10.08,31.4,26.25s43.36,9.14,43.12,4.92-1.87-10.08-15.93-13.83c-7.85-5.78-15.87-17.91-16.87-24.41" transform="translate(-245.12 -115.88)"/><path class="cls-2" d="M954.32,869.57c-14.65-6.06-20.15-14.55-22.22-19.4" transform="translate(-245.12 -115.88)"/><path class="cls-2" d="M1081.94,638.46l-.37-.69" transform="translate(-245.12 -115.88)"/><path class="cls-2" d="M1063.67,660.26c-1.57,1.42-3.21,2.77-4.9,4,1,5.16,1.86,7.85,1.86,7.85s18.8-16.11,24-28.71l-2.65-5" transform="translate(-245.12 -115.88)"/><path class="cls-2" d="M1081.18,639.62l.76-1.16" transform="translate(-245.12 -115.88)"/><path class="cls-2" d="M1081.18,639.62a115.48,115.48,0,0,1-17.51,20.64" transform="translate(-245.12 -115.88)"/><path class="cls-2" d="M1063.67,660.26c-1.69-3.17-2.42-8.63-2.42-11,0-1.78-.31-8.49-.55-13.39" transform="translate(-245.12 -115.88)"/><path class="cls-2" d="M1081.18,639.62c-.58-2.66-1.85-6.54-2.66-8.93" transform="translate(-245.12 -115.88)"/><path class="cls-2" d="M1099.6,622.05c-4.42.11-9.4.18-14.51.1" transform="translate(-245.12 -115.88)"/><path class="cls-2" d="M1112,448.64c10.43,19.11,5.89,41.5,4.78,48.14-1.86,11.15-1.24,124.55-1.24,124.55s-6.72.48-16,.72" transform="translate(-245.12 -115.88)"/><path class="cls-2" d="M1051.62,427.69a35.07,35.07,0,0,1,10.63-5.48" transform="translate(-245.12 -115.88)"/><path class="cls-2" d="M1112,448.64c-6.35-11.61-18.22-22-39.76-26.93a19.78,19.78,0,0,0-10,.5" transform="translate(-245.12 -115.88)"/><path class="cls-2" d="M1009.74,610.06c2.08.28,4.91.69,8.2,1.19" transform="translate(-245.12 -115.88)"/><path class="cls-2" d="M1043.3,616c-8.69-2-18.13-3.61-25.36-4.72" transform="translate(-245.12 -115.88)"/><line class="cls-2" x1="771.33" y1="470.8" x2="764.62" y2="494.17"/><line class="cls-2" x1="771.33" y1="470.8" x2="781.03" y2="437.01"/><path class="cls-2" d="M1078.52,630.69a27.32,27.32,0,0,0,7.31-5.64c-.22-.9-.47-1.87-.74-2.9" transform="translate(-245.12 -115.88)"/><path class="cls-2" d="M1073.12,512.63a215.64,215.64,0,0,0-8.36,20.71c-4.74,14.81,14.31,66.44,20.33,88.81" transform="translate(-245.12 -115.88)"/><path class="cls-2" d="M1073.12,512.63c1.68-3.71,3.39-7.36,5-10.65" transform="translate(-245.12 -115.88)"/><path class="cls-2" d="M1026.15,552.89c.27-40.6,19.68-108.79,34.27-118.69,59.6,1.54,29.64,50.94,17.66,67.78" transform="translate(-245.12 -115.88)"/><path class="cls-2" d="M1060.7,635.82a60.4,60.4,0,0,1-9,.38s-3.64-8.08-8.45-20.23" transform="translate(-245.12 -115.88)"/><path class="cls-2" d="M1026.15,552.89c-.05,7.67.58,14.36,2,19.49,4.6,15.93,10.41,31.7,15.1,43.59" transform="translate(-245.12 -115.88)"/><path class="cls-2" d="M1078.52,630.69a49.56,49.56,0,0,1-17.82,5.13" transform="translate(-245.12 -115.88)"/><path class="cls-2" d="M1051.62,427.69c34.37-6.38,68.26,18,46,59.18-4.81,9.62-14.91,18.71-24.48,25.76" transform="translate(-245.12 -115.88)"/><path class="cls-2" d="M1051.62,427.69c-16.29,3-32.68,13-43.25,31.29-45.46,92-4.83,121.13,8.08,127.7" transform="translate(-245.12 -115.88)"/><path class="cls-2" d="M1074.73,412.12c-1.3-.42-2-.64-2-.64l-10.43,10.73" transform="translate(-245.12 -115.88)"/><path class="cls-2" d="M1106.86,426.64c-8.66-6.6-26.16-12.59-32.13-14.52" transform="translate(-245.12 -115.88)"/><path class="cls-2" d="M1106.86,426.64c2.73,2.08,4.59,4.22,4.93,6.32a63.56,63.56,0,0,1,.24,15.68" transform="translate(-245.12 -115.88)"/><path class="cls-2" d="M1074.73,412.12c2.38-2.65,8.31-10.18,6.76-17.72a2.47,2.47,0,0,0-.21-.27" transform="translate(-245.12 -115.88)"/><path class="cls-2" d="M1068.85,363.87c-3.5,21.34,9.17,26.1,12.43,30.26" transform="translate(-245.12 -115.88)"/><line class="cls-2" x1="903.5" y1="230.37" x2="886.24" y2="231.62"/><line class="cls-2" x1="820.65" y1="236.38" x2="886.24" y2="231.62"/><line class="cls-2" x1="820.65" y1="236.38" x2="805.03" y2="237.52"/><path class="cls-2" d="M1133.25,359.56c8.88-2.32,15-6.3,15.37-13.3" transform="translate(-245.12 -115.88)"/><path class="cls-2" d="M1068.85,363.87c-14.1-1-17.77-7.09-18.71-10.47" transform="translate(-245.12 -115.88)"/><path class="cls-2" d="M1068.85,363.87a67.1,67.1,0,0,0,9.06,0c17.22-1.15,40.3-.34,55.34-4.27" transform="translate(-245.12 -115.88)"/><path class="cls-2" d="M1065.77,352.27c-1-6.16-1-18.19,15.17-19,21.08-1.06,49.69-13.73,50.42,14.25" transform="translate(-245.12 -115.88)"/><path class="cls-2" d="M1133.25,359.56a13.1,13.1,0,0,1-1.55,2.35" transform="translate(-245.12 -115.88)"/><path class="cls-2" d="M1081.28,394.13c4.76.1,13.06-.94,14.81-9.09-.55-3.58-5.51-6.34-2.76-11.57s12.4-3.85,12.12,5a26.42,26.42,0,0,1,.55,4.68l1.93-1.65s-3.86-14.87,8.54-14.87c8.47,0,12.7-1.68,15.23-4.68" transform="translate(-245.12 -115.88)"/><path class="cls-2" d="M1106.86,426.64c-.43-5.6-.21-13.72,4.62-14.31" transform="translate(-245.12 -115.88)"/><path class="cls-2" d="M1131.7,361.91c-.08-.45-.15-.88-.23-1.28" transform="translate(-245.12 -115.88)"/><path class="cls-2" d="M1111.48,412.33l.17,0c12.39,2.27,12.67-6.51,12.46-8.37-.15-1.32,3-2,4.52-2.31a.82.82,0,0,0,.6-1.14l-2.58-3.07,3.83-1.18a1,1,0,0,0,.57-1.49l-2-3.3s6.4-1.45,6-4.13c-.35-2.23-4.68-5.32-5.55-8.31a3.14,3.14,0,0,1,.38-2.46c2.75-4.68,2.54-10.54,1.88-14.63" transform="translate(-245.12 -115.88)"/><path class="cls-2" d="M1098.43,399.08s5.53,8.74,13,13.25" transform="translate(-245.12 -115.88)"/><path class="cls-2" d="M705.52,815.32,698.68,827l0,.06" transform="translate(-245.12 -115.88)"/><path class="cls-2" d="M683.72,802.58c-1.65,3.62-4.24,7.77-7.88,9.59" transform="translate(-245.12 -115.88)"/><path class="cls-2" d="M675.84,812.17a8.87,8.87,0,0,1-1.1.47C666.88,815.38,658,831.11,659,833.5s18.47,15,24.62,17.1,4.45,8.89,16.07,13,30.44,4.44,31.12,2.73,2.74-11.63-17.09-19.83a242,242,0,0,1-15-19.43" transform="translate(-245.12 -115.88)"/><path class="cls-2" d="M698.72,827.07c-10.05-2.84-19-10.93-22.88-14.9" transform="translate(-245.12 -115.88)"/><path class="cls-2" d="M683.72,802.58c7,5.23,15.19,10.61,21.8,12.74" transform="translate(-245.12 -115.88)"/><path class="cls-2" d="M683.72,802.58c-5.26-3.93-9.81-7.77-12.46-10.08" transform="translate(-245.12 -115.88)"/><path class="cls-2" d="M705.52,815.32a18.55,18.55,0,0,0,4.53.93c11.67-18.53,44-60.74,54.89-86.57" transform="translate(-245.12 -115.88)"/><path class="cls-2" d="M727.67,659.53c-.28,14.56-1.24,34.85-4.26,46.73-4.48,17.56-42.78,72.88-52.15,86.24" transform="translate(-245.12 -115.88)"/><path class="cls-2" d="M818.7,833.54c4.93-1.1,9.2-2.84,11.95-5.5-2.22-14.86-20.61-146.35-33.24-200.46" transform="translate(-245.12 -115.88)"/><path class="cls-2" d="M727.67,659.53c-5.64-8.59-10.35-20-13-27" transform="translate(-245.12 -115.88)"/><path class="cls-2" d="M818.7,833.54c-8.56,1.92-19.12,1.92-27.17,1.49" transform="translate(-245.12 -115.88)"/><path class="cls-2" d="M791.53,835c-7.16-.38-12.34-1.1-12.34-1.1s-2.75-27.89-8.64-75.43a212.45,212.45,0,0,0-5.61-28.82" transform="translate(-245.12 -115.88)"/><path class="cls-2" d="M727.67,659.53a44.76,44.76,0,0,0,5.56,7.05c8.92,8.92,23.13,31.08,31.71,63.1" transform="translate(-245.12 -115.88)"/><path class="cls-2" d="M777.92,445.71l.62,0c.46,1.41,1,2.87,1.62,4.35" transform="translate(-245.12 -115.88)"/><path class="cls-2" d="M797.41,627.58c-8.08,1.61-18.83,3.11-30.36,4.33" transform="translate(-245.12 -115.88)"/><path class="cls-2" d="M762.88,445.08c8.71,2,11.56.95,15,.63" transform="translate(-245.12 -115.88)"/><path class="cls-2" d="M767.05,631.91l-1.4.14" transform="translate(-245.12 -115.88)"/><path class="cls-2" d="M797.41,627.58c6.75-1.35,11.65-2.78,13.6-4.22C816.9,619,794.9,588,797.26,569.15s-.78-45.57,1.18-55.39,5.11-21.22-.39-31c-4.51-8.05-12.1-19.72-16.86-30.3" transform="translate(-245.12 -115.88)"/><path class="cls-2" d="M781.19,452.42c-.36-.81-.71-1.62-1-2.41" transform="translate(-245.12 -115.88)"/><path class="cls-2" d="M714.69,632.53a90.89,90.89,0,0,1-15.08-3.95" transform="translate(-245.12 -115.88)"/><path class="cls-2" d="M747.59,633.65l1.36-.1" transform="translate(-245.12 -115.88)"/><path class="cls-2" d="M747.59,633.65l-4.54.32a117.56,117.56,0,0,1-28.36-1.44" transform="translate(-245.12 -115.88)"/><path class="cls-2" d="M762,450.39c4.78,1.34,11.62,2.26,18.14-.38" transform="translate(-245.12 -115.88)"/><path class="cls-2" d="M749,525.28c-9.28,2.06-26.41-1.14-32.22-3.93-.74-.35-1.51-.68-2.27-1" transform="translate(-245.12 -115.88)"/><path class="cls-2" d="M714.46,520.36a69,69,0,0,0-8.22-2.73" transform="translate(-245.12 -115.88)"/><path class="cls-2" d="M749,525.28a13.05,13.05,0,0,0,3.13-1c1.58-13.61,12.84-67.57-24.88-64.68-18,1.83-20.65,40.95-21,58.08" transform="translate(-245.12 -115.88)"/><path class="cls-2" d="M792.58,852.88c-1.92,12.25-5.53,21.34-1.47,29.77,12.71,1.28,18.69-1,29-.46s39.57,3.84,47.48.51,6.95-15.11-8.63-18.19S827.31,854,823.23,848.65a9.41,9.41,0,0,1-.75-1.21" transform="translate(-245.12 -115.88)"/><path class="cls-2" d="M822.48,847.44c-1.6-3.07-2.86-8.65-3.78-13.9" transform="translate(-245.12 -115.88)"/><path class="cls-2" d="M792.58,852.88l0-.1A45.53,45.53,0,0,0,791.53,835" transform="translate(-245.12 -115.88)"/><path class="cls-2" d="M822.48,847.44c-10.4,7.51-23.38,6.57-29.9,5.44" transform="translate(-245.12 -115.88)"/><path class="cls-2" d="M757.58,674.43a10.51,10.51,0,0,1-2.2-5" transform="translate(-245.12 -115.88)"/><path class="cls-2" d="M714.46,520.36c.52,14.58,4.1,63.95,28.59,103,1.74,4.35,3.24,7.67,4.54,10.29" transform="translate(-245.12 -115.88)"/><path class="cls-2" d="M755.38,669.43c-1.47-7.51,1.4-18.45-.15-22.5-1.48-3.85-3.64-5.24-7.64-13.28" transform="translate(-245.12 -115.88)"/><path class="cls-2" d="M749,525.28c-1.09,13-7.66,21.9-2,35.62C753.66,577,758,586,762.3,612.36a130.75,130.75,0,0,0,4.75,19.55" transform="translate(-245.12 -115.88)"/><path class="cls-2" d="M755.38,669.43c-4.48,2.87-11.54,8-9.07,10.48,2.85,2.85,15.59,1.7,20.44,1.15a4,4,0,0,0,2.92-1.82c2.64-4.1,9.29-15.07,8.34-20.13-.84-4.5-6.33-13-11-27.2" transform="translate(-245.12 -115.88)"/><path class="cls-2" d="M727.06,451.65c-10.09,8.38-34,34.27-21.73,84.5,4.07,27.42-3.54,78.76-5.72,92.43" transform="translate(-245.12 -115.88)"/><path class="cls-2" d="M781.19,452.42c8.14.7,26,.8,26.42-11.73-.82-25.8-1.78-42.13-3.55-52" transform="translate(-245.12 -115.88)"/><path class="cls-2" d="M727.06,451.65a18.4,18.4,0,0,1-8.13-6.9" transform="translate(-245.12 -115.88)"/><path class="cls-2" d="M762.88,445.08c.37-10-3.39-26-.84-31.89,3.4-7.86,6.54-7.07,10-6s-12.31-5.23-1.57-13.09c6.28-3.14,5.24,5,5.24,5s1-8.65,9.16-5A27.23,27.23,0,0,0,789,395.9s.15-12,3.28-17.61" transform="translate(-245.12 -115.88)"/><path class="cls-2" d="M762,450.39a17.18,17.18,0,0,0,.86-5.31" transform="translate(-245.12 -115.88)"/><path class="cls-2" d="M762,450.39a5.51,5.51,0,0,1-1.29,2.08c-17,3.73-27.39,2.12-33.67-.82" transform="translate(-245.12 -115.88)"/><path class="cls-2" d="M792.29,378.29c1.06-1.9,2.46-3.08,4.32-2.81,3.51.5,5.82,4.13,7.45,13.2" transform="translate(-245.12 -115.88)"/><path class="cls-2" d="M804.06,388.68c1.38-20.26-15.95-35.64-44.64-29.18-31.43,7.07-30.91,50-31.17,65.21-.2,11.4-6.29,17.64-9.32,20" transform="translate(-245.12 -115.88)"/><path class="cls-2" d="M792.29,378.29c3.17,2.55,8.33,8.53,5.87,19.21a4.64,4.64,0,0,0,0,2.34c1.11,3.7,4.69,4.21,4.45,6.8-.18,2-2.32,3.28-3.57,3.84a.73.73,0,0,0-.27,1.12l1.87,2.39a.73.73,0,0,1-.06,1l-1.72,1.72a.73.73,0,0,0-.09.94l.81,1.16a.73.73,0,0,1-.42,1.13c-1.11.25-2.67.84-2.83,2.18-.27,2.09,4.68,10.43-11.38,5.81a.75.75,0,0,0-.3,0c-6.78.82-7.63,8.44-6.75,17.84" transform="translate(-245.12 -115.88)"/><path class="cls-2" d="M547.64,373s-3.3-3.08-.57-6.15c3.76-2.62,4.21,3.07,4.21,3.07" transform="translate(-245.12 -115.88)"/><path class="cls-2" d="M770.33,402.34a4,4,0,0,1,1.37-6.72c2-.45,1.59,2.74,1.59,2.74" transform="translate(-245.12 -115.88)"/><path class="cls-2" d="M1097.36,380.86c-1.9-1-4.25-6.07-.08-7.29s4.71,3.19,4.71,3.19" transform="translate(-245.12 -115.88)"/><path class="cls-2" d="M1360.43,367.88s-5-4.7-7.13,2c-1.22,3.95,3.49,5.77,3.49,5.77" transform="translate(-245.12 -115.88)"/></g></svg>