<svg xmlns="http://www.w3.org/2000/svg" viewBox="0 0 1405.14 755"><defs><style>.cls-1{fill:#1b1464;}.cls-2{fill:#009245;}.cls-3{fill:#8c6239;}.cls-4{fill:#f0f;}.cls-5{fill:#ed1e79;}.cls-6{fill:#a67c52;}.cls-7{fill:#42210b;}.cls-8{fill:#2e3192;}.cls-9{fill:#754c24;}.cls-10{fill:#006837;}.cls-11{fill:#1a1a1a;}.cls-12{fill:#0071bc;}.cls-13{fill:#f15a24;}.cls-14{fill:lime;}.cls-15{fill:#ccc;}.cls-16{fill:#c1272d;}.cls-17{fill:#b3b3b3;}.cls-18{fill:#29abe2;}.cls-19{fill:#d4145a;}.cls-20{fill:none;stroke:#000;stroke-miterlimit:10;}</style></defs><g id="lines"><path d="M564.63,791.4c-10,3.47-21.19,23.36-19.9,26.39s23.36,19,31.15,21.62,5.62,11.25,20.32,16.44,38.5,5.62,39.36,3.46,3.46-14.71-21.62-25.09a305.93,305.93,0,0,1-19-24.57c-12.71-3.58-24-13.82-28.94-18.84A11.36,11.36,0,0,1,564.63,791.4Z" transform="translate(-183.22 -167.19)"/><path class="cls-1" d="M566,790.81c5,5,16.23,15.26,28.94,18.84l-.05-.08,8.64-14.78c-8.35-2.69-18.73-9.49-27.56-16.11C573.89,783.25,570.62,788.5,566,790.81Z" transform="translate(-183.22 -167.19)"/><path class="cls-2" d="M659.49,428a17.18,17.18,0,0,0,4-1.32c2-17.23,16.23-85.47-31.47-81.82-22.73,2.32-26.12,51.8-26.51,73.46a87.25,87.25,0,0,1,10.39,3.45c1,.4,1.94.81,2.87,1.26C626.08,426.51,647.75,430.55,659.49,428Z" transform="translate(-183.22 -167.19)"/><path class="cls-3" d="M657,473c-7.19-17.35,1.11-28.58,2.5-45.05-11.74,2.6-33.41-1.44-40.76-5-.93-.45-1.9-.86-2.87-1.26.66,18.44,5.19,80.89,36.17,130.29,2.19,5.49,4.09,9.69,5.74,13l1.71-.12-1.71.12c5.06,10.17,7.78,11.94,9.66,16.81,2,5.12-1.67,19,.19,28.44a13.25,13.25,0,0,0,2.79,6.34,13.25,13.25,0,0,1-2.79-6.34C662,613.9,653,620.4,656.15,623.53c3.6,3.6,19.71,2.15,25.85,1.45a5.1,5.1,0,0,0,3.7-2.31c3.34-5.18,11.75-19,10.55-25.45-1.07-5.7-8-16.5-13.86-34.41l-1.78.19,1.78-.19a165.06,165.06,0,0,1-6-24.72C670.91,504.8,665.44,493.37,657,473Z" transform="translate(-183.22 -167.19)"/><path class="cls-3" d="M696.13,327.31c-1.12-11.89,0-21.53,8.53-22.56a1,1,0,0,1,.39,0c20.31,5.84,14.05-4.7,14.38-7.34.22-1.7,2.19-2.44,3.58-2.76a.93.93,0,0,0,.55-1.43l-1-1.47a.92.92,0,0,1,.1-1.18l2.19-2.19a.92.92,0,0,0,.07-1.22l-2.37-3a.92.92,0,0,1,.35-1.41c1.57-.71,4.28-2.29,4.51-4.86.3-3.28-4.22-3.93-5.62-8.61a5.78,5.78,0,0,1,0-3c3.11-13.51-3.41-21.07-7.42-24.3-4,7.11-4.15,22.27-4.15,22.27a34.76,34.76,0,0,1-5.3-2.31c-10.27-4.64-11.59,6.29-11.59,6.29s1.32-10.27-6.63-6.29c-13.58,9.93,6.29,17.88,2,16.56s-8.28-2.32-12.59,7.62c-3.22,7.44,1.54,27.7,1.07,40.33C688.13,329.09,691.73,327.71,696.13,327.31ZM688.26,264c-2.59.58-5.18,4.9-1.72,8.5-3.46-3.6-.87-7.92,1.72-8.5s2,3.46,2,3.46S690.86,263.38,688.26,264Z" transform="translate(-183.22 -167.19)"/><path class="cls-4" d="M486,489.84c2.94-4.24,4.72-7.49,4.72-7.49s-4.11-3.36-6.76-5.89c0-.22.07-.43.11-.65-4,8.25-14.52,26.65-30.3,29.86a10.13,10.13,0,0,0,9.91,3.51,20.52,20.52,0,0,0,7.85-3.62C477.34,501.48,482.52,494.94,486,489.84Z" transform="translate(-183.22 -167.19)"/><path class="cls-5" d="M484.11,475.81c2.91-16-9.82-32.17-34-46.11-10.74-6.19-16.3-13.55-19.17-19.86-4.51,19.67-16.06,31.75-21.22,46.61-5.25,15.14,4.05,25.56,7.28,37.65,5.33,3.39,11.75,5.87,18.35,8.24,6.77,3.71,12.95,4.45,18.48,3.33C469.59,502.46,480.12,484.06,484.11,475.81Z" transform="translate(-183.22 -167.19)"/><path class="cls-3" d="M486.8,519.17c-2.59,6.32-3,12.78-4.22,13.94a74.82,74.82,0,0,0,3.7,13.27A46.53,46.53,0,0,1,491,530.55C492.74,525.25,489.57,521.39,486.8,519.17Z" transform="translate(-183.22 -167.19)"/><path class="cls-6" d="M490.14,554.79c24.51-35.15,4.85-57.39-4.1-64.95-3.52,5.1-8.7,11.64-14.47,15.72a15,15,0,0,0,3.79,4.42c4.28,3.19,2.95,18.77,5.85,22.59.58.77,1,.89,1.37.54,1.19-1.16,1.63-7.62,4.22-13.94a28,28,0,0,1,1.88-3.81,28,28,0,0,0-1.88,3.81c2.77,2.22,5.94,6.08,4.19,11.38a46.53,46.53,0,0,0-4.71,15.83C485.7,553.66,488.38,556.75,490.14,554.79Z" transform="translate(-183.22 -167.19)"/><path class="cls-7" d="M674.38,335.86a6.83,6.83,0,0,0,1.64-2.63,21.79,21.79,0,0,0,1.09-6.72c.47-12.63-4.29-32.89-1.07-40.33,4.31-9.94,8.28-8.95,12.59-7.62s-15.57-6.63-2-16.56c8-4,6.63,6.29,6.63,6.29s1.32-10.93,11.59-6.29a34.76,34.76,0,0,0,5.3,2.31s.19-15.16,4.15-22.27c1.34-2.41,3.11-3.9,5.46-3.56,4.44.63,7.36,5.22,9.42,16.7,1.75-25.63-20.17-45.08-56.46-36.91-39.75,8.94-39.09,63.27-39.42,82.48-.25,14.42-7.95,22.3-11.79,25.35a23.25,23.25,0,0,0,10.28,8.72C639.74,338.54,652.86,340.58,674.38,335.86Z" transform="translate(-183.22 -167.19)"/><path class="cls-8" d="M632.57,597.74c-.35,18.42-1.56,44.09-5.39,59.11-5.66,22.22-54.11,92.18-66,109.08,3.36,2.92,9.12,7.77,15.77,12.75,8.83,6.62,19.21,13.42,27.56,16.11a23.48,23.48,0,0,0,5.74,1.18c14.76-23.44,55.67-76.83,69.43-109.5-10.85-40.49-28.83-68.53-40.12-79.81A56.46,56.46,0,0,1,632.57,597.74Z" transform="translate(-183.22 -167.19)"/><path class="cls-8" d="M747.71,817.84c6.24-1.4,11.64-3.6,15.12-7-2.82-18.8-26.08-185.1-42-253.54-10.23,2-23.82,3.93-38.4,5.47,5.85,17.91,12.79,28.71,13.86,34.41,1.2,6.4-7.21,20.27-10.55,25.45A5.1,5.1,0,0,1,682,625c-6.14.7-22.25,2.15-25.85-1.45-3.12-3.13,5.8-9.63,11.47-13.27-1.86-9.48,1.78-23.32-.19-28.44-1.88-4.87-4.6-6.64-9.66-16.81l-5.74.41a153.37,153.37,0,0,1-24.18-.26c-4.24-.39-8.15-.93-11.7-1.56,2,5.35,5,12.72,8.59,20.11a126,126,0,0,0,7.83,14,56.46,56.46,0,0,0,7,8.92c11.29,11.28,29.27,39.32,40.12,79.81a268.71,268.71,0,0,1,7.09,36.46c7.45,60.12,10.93,95.4,10.93,95.4s6.54.91,15.61,1.39C723.53,820.26,736.88,820.26,747.71,817.84Z" transform="translate(-183.22 -167.19)"/><path class="cls-2" d="M696.13,327.31c-4.4.4-8,1.78-19-.8a21.79,21.79,0,0,1-1.09,6.72c6,1.69,14.7,2.86,22.94-.48-.77-1.87-1.47-3.72-2.05-5.5Z" transform="translate(-183.22 -167.19)"/><path class="cls-1" d="M752.49,835.42c-2-3.89-3.62-10.95-4.78-17.58-10.83,2.42-24.18,2.42-34.36,1.88a57.75,57.75,0,0,1,1.35,22.45.69.69,0,0,0,0,.13C722.91,843.73,739.34,844.92,752.49,835.42Z" transform="translate(-183.22 -167.19)"/><path class="cls-9" d="M611.29,562.63l-.38,4.68s-6.15,6.51-6.35,8.09-11.88,9.85-11.48,13.27c.24,2,2,2.37,5,2.33a11.79,11.79,0,0,0,6.52-2.13c.39-.32,2.2-2,3.81-3.37a11.69,11.69,0,0,1,2.57-1.88,11.69,11.69,0,0,0-2.57,1.88c-1.37,4.5-4.45,12.2-8.05,14.93-5.44-.53-8.95-.17-11.21.56-4.9,1.6-4,5-4,5s11.79,1,16.28.57,15.73-7.41,20.07-12.43c1-1.11,2-5,3.14-10.4-3.61-7.39-6.58-14.76-8.59-20.11C614.44,563.29,612.83,563,611.29,562.63Z" transform="translate(-183.22 -167.19)"/><path class="cls-7" d="M719.77,238.48c-2.35-.34-4.12,1.15-5.46,3.56,4,3.23,10.53,10.79,7.42,24.3a5.78,5.78,0,0,0,0,3c1.4,4.68,5.92,5.33,5.62,8.61-.23,2.57-2.94,4.15-4.51,4.86a.92.92,0,0,0-.35,1.41l2.37,3a.92.92,0,0,1-.07,1.22l-2.19,2.19a.92.92,0,0,0-.1,1.18l1,1.47a.93.93,0,0,1-.55,1.43c-1.39.32-3.36,1.06-3.58,2.76-.33,2.64,5.93,13.18-14.38,7.34a1,1,0,0,0-.39,0c-8.57,1-9.65,10.67-8.53,22.56l.78-.06c.58,1.78,1.28,3.63,2.05,5.5.41,1,.85,2,1.31,3,10.29.89,32.9,1,33.41-14.83-1-32.63-2.25-53.28-4.49-65.78C727.13,243.7,724.21,239.11,719.77,238.48Z" transform="translate(-183.22 -167.19)"/><path class="cls-10" d="M627.85,565.16a153.37,153.37,0,0,0,24.18.26l5.74-.41c-1.65-3.31-3.55-7.51-5.74-13-31-49.4-35.51-111.85-36.17-130.29a87.25,87.25,0,0,0-10.39-3.45c.39-21.66,3.78-71.14,26.51-73.46,47.7-3.65,33.46,64.59,31.47,81.82a17.18,17.18,0,0,1-4,1.32c-1.39,16.47-9.69,27.7-2.5,45.05,8.45,20.37,13.92,31.8,19.38,65.09a165.06,165.06,0,0,0,6,24.72c14.58-1.54,28.17-3.43,38.4-5.47,8.53-1.71,14.72-3.52,17.19-5.33,7.46-5.47-20.37-44.72-17.39-68.57s-1-57.64,1.49-70.06,6.46-26.83-.49-39.26c-5.71-10.19-15.31-24.94-21.32-38.33-.46-1-.9-2-1.31-3-8.24,3.34-16.9,2.17-22.94.48a6.83,6.83,0,0,1-1.64,2.63c-21.52,4.72-34.64,2.68-42.58-1-11.34,9.43-36.49,36.38-31,86.93a153,153,0,0,0,3.55,19.95c3,20.1,1,50.36-1.73,75.62-2,18.32-4.36,34-5.52,41.29a112.24,112.24,0,0,0,14.21,4c1.54.34,3.15.66,4.86,1C619.7,564.23,623.61,564.77,627.85,565.16Z" transform="translate(-183.22 -167.19)"/><path class="cls-5" d="M409.7,456.45c5.16-14.86,16.71-26.94,21.22-46.61,2.42-10.57,2.81-23.33-.92-39.89-6.75-9.45-3.64-24.88-4.51-29.09A50.88,50.88,0,0,0,419,322.93c-6.8-11.35-20.84-24.6-50.23-29.17a37.89,37.89,0,0,0-25.67,5.8c-12.79,8.26-19.44,22.6-22.34,27.95-4.42,8.17-19.68,21.19-21.45,44.28s-5,8.75-9.34,45.15a301.66,301.66,0,0,0-2.21,34.6c12.51-23.62,29.54-52.28,29.55-73.64,0-33,25.66-70.1,55-65.78s32.94,29.59,29.15,48.88-18.55,28.47-31.53,48.74-8.76,54-12.32,66c-3.22,10.82-13,23.7-19.83,42.33,15,3.93,48.46,11.32,66.52,4.76,4.62-1.68,8.24-4.27,10.28-8.06A26.48,26.48,0,0,0,417,494.1C413.75,482,404.45,471.59,409.7,456.45Z" transform="translate(-183.22 -167.19)"/><path class="cls-11" d="M604.33,441.7a153,153,0,0,1-3.55-19.95c-7.76,9.75-32.06,40.32-35.35,45-4,5.76-3.55,14-.38,20,3,5.61,23.52,20.7,37.55,30.59C605.32,492.06,607.3,461.8,604.33,441.7Z" transform="translate(-183.22 -167.19)"/><path class="cls-1" d="M345.37,620.68,345,601.73a131.19,131.19,0,0,0-14.89,20.6C338.07,624.81,342.84,622.73,345.37,620.68Z" transform="translate(-183.22 -167.19)"/><path d="M798.63,857c-19.72-3.89-40-13.25-45.19-20.06a11.24,11.24,0,0,1-1-1.53c-13.15,9.5-29.58,8.31-37.81,6.88-2.43,15.49-7,27-1.86,37.65,16.07,1.62,23.63-1.23,36.67-.58s50,4.86,60,.65S818.34,860.9,798.63,857Z" transform="translate(-183.22 -167.19)"/><path class="cls-2" d="M298.48,591.21l3.2.49c-.12-.42-.24-.83-.38-1.22Z" transform="translate(-183.22 -167.19)"/><path class="cls-8" d="M330.13,622.33c-1.08,1.91-2.1,3.88-3,5.86L318.91,689H319c9.13-3.67,27.56-4.09,27.56-4.09l-.2-10.58-1-53.64C342.84,622.73,338.07,624.81,330.13,622.33Z" transform="translate(-183.22 -167.19)"/><path class="cls-1" d="M294.86,574a14.6,14.6,0,0,0-2.51,6.26,17.73,17.73,0,0,1,8.95,10.23c.14.39.26.8.38,1.22a27.06,27.06,0,0,1,1,7l5.75-.52a20.37,20.37,0,0,0,.9-5.3,16.75,16.75,0,0,0-4.61-12A30.78,30.78,0,0,0,294.86,574Z" transform="translate(-183.22 -167.19)"/><path class="cls-4" d="M368.72,293.76c29.39,4.57,43.43,17.82,50.23,29.17,2.26-1.64,4.85-3.68,7.82-6.2,19.49-16.58-.06-27.65-7.89-29.78a40.08,40.08,0,0,1-12.22-6.23,80.39,80.39,0,0,0-2.18,8.17c11.42,10.35,22.7,8.24,22.7,8.24s-11.28,2.11-22.7-8.24a47,47,0,0,1-8.25-10.06A40.79,40.79,0,0,0,381,264.58c-14.6-7.86-32.14-5.8-36.7,9.67-2.79,9.44-2.73,17-1.78,22.59.16,1,.35,1.88.56,2.72A37.89,37.89,0,0,1,368.72,293.76Z" transform="translate(-183.22 -167.19)"/><path d="M344.27,274.25c4.56-15.47,22.1-17.53,36.7-9.67,1.69-5.81,6.87-13.85,20.15-23.89-.68-4.31-6.36-13.68.77-16.73s8.77,5.56,8.77,5.56,3.19-24,17.32-23.73a14,14,0,0,1,12.64,7.37c13.36-23.58-8.5-31.16-17.88-34.61s-12.66,1.9-21.43,1.71a8.24,8.24,0,0,0-2,.16c-16,3.62-18.76,10.49-24.22,19.09-5.56,8.77-16.22,8.44-29.11,11.61s-40,16.47-36.18,55.57c3.07,31.8,24.71,31.4,32.67,30.15C341.54,291.27,341.48,283.69,344.27,274.25Z" transform="translate(-183.22 -167.19)"/><path class="cls-5" d="M307.51,556.35a27.58,27.58,0,0,0,6.26-7.66c-15.52-5-32-14.75-38-18.43l0,.31a67.4,67.4,0,0,1-3.17,9.27,77.32,77.32,0,0,0,12.83,8.8,69,69,0,0,0,18.5,7C305.12,555.94,306.3,556.16,307.51,556.35Z" transform="translate(-183.22 -167.19)"/><path class="cls-4" d="M313.86,548.52s11.79-1.8,19.18-17.68a52,52,0,0,0,2.54-6.63c.66-2.13,1.37-4.18,2.11-6.18,6.86-18.63,16.61-31.51,19.83-42.33,3.56-12-.66-45.7,12.32-66s27.75-29.45,31.53-48.74.14-44.56-29.15-48.88-55,32.75-55,65.78c0,21.36-17,50-29.55,73.64-6.85,12.9-12.34,24.31-13,32.2-1.67,20.85.72,43.62,1,46.52,6,3.68,22.48,13.45,38,18.43Z" transform="translate(-183.22 -167.19)"/><path class="cls-12" d="M327.12,628.19c.91-2,1.93-4,3-5.86A131.19,131.19,0,0,1,345,601.73l-.06-3.22s-16-2.57-35.6-5.62a20.37,20.37,0,0,1-.9,5.3l-5.75.52a27.06,27.06,0,0,0-1-7l-3.2-.49c-6.05,1.55-12.33,3.08-12.92,2.9a50.52,50.52,0,0,1-6.18-5.8l-11.09-1.64a19.29,19.29,0,0,0-1.64,4.75,44.45,44.45,0,0,1-6.19-1.3,26.72,26.72,0,0,1,1.08-4.42c-9.12-1.29-16.37-2.23-19.87-2.5C238,588.44,229.1,607.94,224.19,619l6.74,1.67c23.85,5.89,72.13,17.48,92.33,19.85A45,45,0,0,1,327.12,628.19Z" transform="translate(-183.22 -167.19)"/><path class="cls-1" d="M400.44,860.54c.07,1.22.1,2.07.11,2.5.08,3.45-5.24,22.78.34,31.49,6.25,4.46,14.6.43,32.67.79s60.3.16,65.13-7.25c4.62-7.11-5.62-15.63-37.33-18.33a27.71,27.71,0,0,1-10-2.67,40,40,0,0,1-14.48-12.24C424.17,869.8,408.18,864.51,400.44,860.54Z" transform="translate(-183.22 -167.19)"/><path class="cls-6" d="M359,676.13c.86,2.18,1.88,4.83,3,7.78,4.94,13.14,11.54,32.11,12,40.69.7,13.81-2.86,26.19,11.1,65.43,12.22,34.37,14.86,61.88,15.38,70.51,7.74,4,23.73,9.26,36.42-5.71-11.47-15.31-18-42.87-20.13-90.87s-4.13-82.85-5.22-100.64a21.51,21.51,0,0,0-2.34,5.17C405,682.14,378.06,687.81,359,676.13Z" transform="translate(-183.22 -167.19)"/><path class="cls-13" d="M333,530.84c-7.39,15.88-19.18,17.68-19.18,17.68l-.09.17a27.58,27.58,0,0,1-6.26,7.66c-1.21-.19-2.39-.41-3.55-.67-.92,3.38-1.78,8.52,0,12.27s1.36,9.17.82,13a16.75,16.75,0,0,1,4.61,12c19.57,3.05,35.6,5.62,35.6,5.62l.06,3.22.35,18.95,1,53.64a34.34,34.34,0,0,1,11.51,1.1c.37.25.75.48,1.13.71,19.07,11.68,46,6,50.18-7.64a21.51,21.51,0,0,1,2.34-5.17,18.15,18.15,0,0,1,15-8.29s-8-31.7-12.48-42c-3.73-8.58-9.73-58.36-11.61-74.54C383.61,547.09,351.56,537.7,333,530.84Z" transform="translate(-183.22 -167.19)"/><path class="cls-6" d="M357.86,675.42a34.34,34.34,0,0,0-11.51-1.1l.2,10.58s-18.43.42-27.56,4.09h-.08c-1-.1-2.66-.39-4.79-.83-3.78,10.42-10.36,23.65-19.43,30.91-13,10.44-37.26,41-48.13,58-9.66,15.13-27.85,32.6-37.65,38.62a53.66,53.66,0,0,0,24.6,26.48c0-.16,0-.31.05-.47,3.16-20.34,78.6-79.78,102.62-101.77,16.19-14.82,23.08-40.1,25.8-56-1.11-2.95-2.13-5.6-3-7.78C358.61,675.9,358.23,675.67,357.86,675.42Z" transform="translate(-183.22 -167.19)"/><path class="cls-8" d="M327.12,628.19a45,45,0,0,0-3.86,12.3c-20.2-2.37-68.48-14-92.33-19.85l-4.69,43.58s67.14,19.54,87.88,23.93c2.13.44,3.76.73,4.79.83Z" transform="translate(-183.22 -167.19)"/><path class="cls-1" d="M266.65,591.42a19.29,19.29,0,0,1,1.64-4.75,13.67,13.67,0,0,1,4.73-5.34,65.63,65.63,0,0,1-4.19-5.43,18.3,18.3,0,0,0-7.29,9.8,26.72,26.72,0,0,0-1.08,4.42A44.45,44.45,0,0,0,266.65,591.42Z" transform="translate(-183.22 -167.19)"/><path class="cls-4" d="M337.69,518c-.74,2-1.45,4.05-2.11,6.18a52,52,0,0,1-2.54,6.63c18.52,6.86,50.57,16.25,69.4,7.69a28.17,28.17,0,0,0,2.57-1.31c-.1-4.42-.45-9.79-.8-14.43C386.15,529.35,352.72,522,337.69,518Z" transform="translate(-183.22 -167.19)"/><path class="cls-6" d="M279.38,588.31a50.52,50.52,0,0,0,6.18,5.8c.59.18,6.87-1.35,12.92-2.9l2.82-.73a17.73,17.73,0,0,0-8.95-10.23,8,8,0,0,0,2.41,6.73,8,8,0,0,1-2.41-6.73,14.6,14.6,0,0,1,2.51-6.26,20.65,20.65,0,0,1,2.23-2.81,20.65,20.65,0,0,0-2.23,2.81,30.78,30.78,0,0,1,9.89,6.94c.54-3.81.88-9.32-.82-13s-.89-8.89,0-12.27a69,69,0,0,1-18.5-7,13.05,13.05,0,0,1-4.64,6c-6.8,4.77-14.69,12.63-13.81,17.6a11.25,11.25,0,0,0,1.82,3.65,65.63,65.63,0,0,0,4.19,5.43C275.06,583.73,277.33,586.19,279.38,588.31Z" transform="translate(-183.22 -167.19)"/><path class="cls-1" d="M208.91,815.71a22.49,22.49,0,0,1-3.24,1.7c-8.47-1-19.39,13.7-21.71,17.65s13.32,20,13.32,20,2.85,1.5,7.73,4.11,14.09,18.4,16.14,19.91,32.07,13.3,41.85,1.38-31.93-18.26-29.49-38.24A53.66,53.66,0,0,1,208.91,815.71Z" transform="translate(-183.22 -167.19)"/><path class="cls-6" d="M428,205.79c-14.13-.25-17.32,23.73-17.32,23.73s-1.64-8.6-8.77-5.56-1.45,12.42-.77,16.73c-13.28,10-18.46,18.08-20.15,23.89a40.79,40.79,0,0,1,15.26,14.25,47,47,0,0,0,8.25,10.06,80.39,80.39,0,0,1,2.18-8.17c2.22-6.71,5.66-13.15,10.74-13.46a63,63,0,0,1-13.66-12.8,63,63,0,0,0,13.66,12.8,7.33,7.33,0,0,1,3.35.63c11.43,4.91,12.86-4.87,13-7.83a1.17,1.17,0,0,1,.84-1.05c1.59-.47,5-1.54,5.18-2.21.27-.87-1.22-2.85-1.22-2.85l2.14-1.6a1.15,1.15,0,0,0,.26-1.6c-.71-1-1.32-2.63.89-4.37,3.39-2.67,1.92-4.07.45-5.48a15.55,15.55,0,0,1-3.63-8.1,3.31,3.31,0,0,1,.65-2.18,16.71,16.71,0,0,0,1.28-17.46A14,14,0,0,0,428,205.79Zm-25.83,21.74c-3.45,3.89.72,7.77.72,7.77s-4.17-3.88-.72-7.77c4.75-3.31,5.33,3.89,5.33,3.89S406.9,224.22,402.15,227.53Z" transform="translate(-183.22 -167.19)"/><path class="cls-1" d="M1351.09,418.26c-3.32-20.15-9.21-60.75,8.72-84.26-8.75,5.26-13.84,15.41-16.51,27.87l.49.33-.49-.33c-7.07,33,2.84,82.23,6.93,100q1.62-5.1,3.53-9.92A186.16,186.16,0,0,0,1351.09,418.26Z" transform="translate(-183.22 -167.19)"/><path class="cls-14" d="M1417.33,246.71c2.88-5.18-2.88-7.49-2.59-14.11s18.72-18.14,19.87,5.47c.29,3.17.57,6.91.57,6.91l4.9-1.72s-6.34-21,7.2-19.88c1.15-6.33,1.73-13,1.73-13a70.72,70.72,0,0,0,24.4-7c15.75-14.79-41.85-58-77.78-21.3s-6.23,65.21,2,82.8C1403.29,265.07,1413.14,262.87,1417.33,246.71Z" transform="translate(-183.22 -167.19)"/><path class="cls-1" d="M1449.2,299l.38-8.82s-2.14-.26-5.71-.65a52.84,52.84,0,0,0-.82,9.36C1445.47,299,1447.56,299,1449.2,299Z" transform="translate(-183.22 -167.19)"/><path class="cls-6" d="M1443.05,298.91a52.84,52.84,0,0,1,.82-9.36c1.83-9.34,6.38-9.48,10.61-8.13,17.71,9.79,14-10.08,14-10.08l6.48-2.45-2.31-5,5.19-3.31-2.16-4.47s5-3.89,7-7.63-7.92-13.54-8.78-17.42c8.21-17.86-.72-20.88-.72-27.41l.21-.21a70.72,70.72,0,0,1-24.4,7s-.58,6.63-1.73,13c-13.54-1.15-7.2,19.88-7.2,19.88l-4.9,1.72s-.28-3.74-.57-6.91c-1.15-23.61-19.59-12.09-19.87-5.47s5.47,8.93,2.59,14.11c-4.19,16.16-14,18.36-19.7,18.19a2.56,2.56,0,0,1,.11.24,33.76,33.76,0,0,1,2.33,20.85,40.79,40.79,0,0,1-3,9.13C1412.18,297.17,1431.46,298.53,1443.05,298.91Zm-24.19-65.54c2.69-8.45,9-2.5,9-2.5s-6.34-6-9,2.5c-1.53,5,4.42,7.29,4.42,7.29S1417.33,238.36,1418.86,233.37Z" transform="translate(-183.22 -167.19)"/><path class="cls-8" d="M1393.33,316.5c-15.86,1.73-26.51,8.31-33.52,17.5-17.93,23.51-12,64.11-8.72,84.26a186.16,186.16,0,0,1,2.67,33.69c1.19-3,2.47-5.93,3.86-8.73,5-15,7.27-24.29,8.32-30a90.08,90.08,0,0,1-11.47-9.57c.5-2.68,1.29-6.45,2.47-10.79,6-22,21.72-58.53,58.66-41.43,20.51,12.68,9.15,51.55.59,73.52-1.54,4-3,7.4-4.16,10-3.28-1-6.39-2-9.37-3.1-6.14,13.77-17,39.39-17,48.21,0,5.38-8.11,34.34-17.51,65.48,7.76,3.2,21.08,5.9,41.32,1.33,27.26-4.6,23.8.39,35.71.39,2.86,0,6.5-1,10.38-2.46a116.62,116.62,0,0,0,13.7-6.53c-.25-6.1-.81-14.23-1.59-23-1.83-20.37-4.86-44-7.9-52.91-.16-.47-.29-.95-.44-1.43-4.39-14.34-2.31-31.9-4.17-52.71-.47-5.34-1.05-14.06-2.5-24C1448.25,353.93,1435.77,311.88,1393.33,316.5Z" transform="translate(-183.22 -167.19)"/><path class="cls-15" d="M1416.19,425a233.42,233.42,0,0,1-59.25-32.09c-1.18,4.34-2,8.11-2.47,10.79a90.08,90.08,0,0,0,11.47,9.57c8.21,5.85,20.15,12.68,36.72,18.64,3,1.07,6.09,2.1,9.37,3.1C1413.19,432.37,1414.65,429,1416.19,425Z" transform="translate(-183.22 -167.19)"/><path class="cls-12" d="M1415.6,351.45c-36.94-17.1-52.71,19.45-58.66,41.43A233.42,233.42,0,0,0,1416.19,425C1424.75,403,1436.11,364.13,1415.6,351.45Z" transform="translate(-183.22 -167.19)"/><path class="cls-3" d="M1487.38,548.42a13.46,13.46,0,0,0-.74,4.24,21.75,21.75,0,0,1-2.58,9.48,19.85,19.85,0,0,1-2,6.65c-2.63,4.68,1,12.46,2.83,15.92.94-3.64,3-8.45,7.16-14.77A48.79,48.79,0,0,0,1487.38,548.42Z" transform="translate(-183.22 -167.19)"/><path class="cls-6" d="M1467.66,515.33l4.39,6.61s1.15,14.6,2.3,16.52,0,25.34,3.07,28.41c1.78,1.78,4.59-.82,6.64-4.73a21.75,21.75,0,0,0,2.58-9.48,13.46,13.46,0,0,1,.74-4.24,28.24,28.24,0,0,0-4.58-7.28,28.24,28.24,0,0,1,4.58,7.28,48.79,48.79,0,0,1,4.64,21.52c-4.13,6.32-6.22,11.13-7.16,14.77-2,7.86,1.4,10.19,1.4,10.19s8.83-13.82,11.52-20,4.6-27.65,3.45-38.4c-.91-8.48-29.76-55.89-41.91-75.55.15.48.28,1,.44,1.43C1462.8,471.3,1465.83,495,1467.66,515.33Z" transform="translate(-183.22 -167.19)"/><path class="cls-1" d="M1397.12,295.12a40.79,40.79,0,0,0,3-9.13c-13-.52-23.81-.12-24.79,2.48l0,.78C1376.34,291.53,1385.45,293.54,1397.12,295.12Z" transform="translate(-183.22 -167.19)"/><path d="M1548.93,892.15c-15-3.22-23.66-9.35-29.37-18.07-15.46,10.56-32.53,10.89-41.9,10a25.35,25.35,0,0,1-1.29,5.86c-5.49,15-.73,29.32-.73,29.32l30.41.73s.37-2.57,5.87-2.2,71.45,8.79,75.11-.37S1583,896.55,1548.93,892.15Z" transform="translate(-183.22 -167.19)"/><path class="cls-6" d="M1519.56,874.08c-5.46-8.35-8.21-19.08-11.15-31.92-10.72,4-23.88,6.14-35.48,7.27,2.42,8.61,6,23.68,4.73,34.66C1487,885,1504.1,884.64,1519.56,874.08Z" transform="translate(-183.22 -167.19)"/><path class="cls-1" d="M1518.58,837.24c-5.09-26-23.81-121.7-25.8-134.62-1.86-12.14-27.55-118-37.23-157.79-3.88,1.48-7.52,2.46-10.38,2.46-11.91,0-8.45-5-35.71-.39-20.24,4.57-33.56,1.87-41.32-1.33-1.67,5.54-3.38,11.15-5.1,16.71.8,3.45,1.9,7.42,3.38,11.92,4.57,13.87,12.86,32.7,27.87,56.42,8.59,17.18,16.44,37.71,23.48,59.58,18,55.95,30.6,120.64,36.36,160.38,5-.13,11.61-.45,18.8-1.15,11.6-1.13,24.76-3.26,35.48-7.27A54.89,54.89,0,0,0,1518.58,837.24Z" transform="translate(-183.22 -167.19)"/><path class="cls-8" d="M1445,326.34l7.76-27.5a25.88,25.88,0,0,1-3.55.18c-1.64,0-3.73,0-6.15-.11-11.59-.38-30.87-1.74-45.93-3.79-11.67-1.58-20.78-3.59-21.8-5.87l1,18.83,1.67-.41C1402,302.25,1430.88,301.92,1445,326.34Z" transform="translate(-183.22 -167.19)"/><path d="M891.14,827.87c-13.62,8-36.69,9.45-24.67,33.48,4.44,9.78,22.82,12.74,39.72,33.2s54.83,11.56,54.54,6.22-2.37-12.74-20.16-17.49c-9.92-7.31-20.06-22.66-21.33-30.88C900.71,844.74,893.75,834,891.14,827.87Z" transform="translate(-183.22 -167.19)"/><path class="cls-1" d="M1366.42,574.2c-1,28.17-6.27,104.55-34.92,157.22-20.3,37.41-34,62.72-40.52,74.79a157.79,157.79,0,0,0,14.39,10.9,148.56,148.56,0,0,0,27.18,14.52,122.82,122.82,0,0,0,15.67,5.1c9.52-14.8,46.2-74.3,69.55-146.53-7-21.87-14.89-42.4-23.48-59.58C1379.28,606.9,1371,588.07,1366.42,574.2Z" transform="translate(-183.22 -167.19)"/><path class="cls-11" d="M1359.81,334c7-9.19,17.66-15.77,33.52-17.5,42.44-4.62,54.92,37.43,59.32,67.73,2.79-27.18-.58-45.64-7.66-57.89-14.11-24.42-43-24.09-67-18.67l-1.67.41c-28.66,7.57-42.63,40.27-46.17,49.9a26.73,26.73,0,0,1,13.17,3.89C1346,349.41,1351.06,339.26,1359.81,334Z" transform="translate(-183.22 -167.19)"/><path class="cls-16" d="M1343.3,361.87a26.73,26.73,0,0,0-13.17-3.89c-14-.31-35.63,11-48.55,75.64-.38,10.37-26.88,69.89-.76,95.24,5.55,5.55,10,25,56.24,26.07,1.5-25.87,3.53-62.67,13.17-93.06C1346.14,444.1,1336.23,394.88,1343.3,361.87Z" transform="translate(-183.22 -167.19)"/><path class="cls-6" d="M1385.65,480.09c0-8.82,10.87-34.44,17-48.21-16.57-6-28.51-12.79-36.72-18.64-1,5.69-3.37,14.95-8.32,30-1.39,2.8-2.67,5.73-3.86,8.73q-1.92,4.82-3.53,9.92c-9.64,30.39-11.67,67.19-13.17,93.06-.43,7.46-.82,14-1.33,19.24-7.77,10.36-10.9,23.84-12.45,35.16-1.67,12.17-1.51,21.84-3.3,22.44,1.79-.6,1.63-10.27,3.3-22.44-7.53,3.45-19.53,10.46-22.88,21.29,17.66,21.5,36.1,3.84,39.55.38,1.67-1.67,12.43-34.21,23.09-68.72,1.72-5.56,3.43-11.17,5.1-16.71C1377.54,514.43,1385.65,485.47,1385.65,480.09Z" transform="translate(-183.22 -167.19)"/><path class="cls-17" d="M1057.55,587.67c-2,1.79-4.06,3.51-6.2,5.1,1.31,6.53,2.35,9.92,2.35,9.92s23.77-20.37,30.31-36.31c-1.75-3.27-2.76-5.17-3.36-6.28-.26.41-.58.9-1,1.46C1076.2,566.79,1068,578.24,1057.55,587.67Z" transform="translate(-183.22 -167.19)"/><path class="cls-3" d="M1054.49,573.7c0,3.06.92,10,3.06,14,10.47-9.43,18.65-20.88,22.14-26.11-.74-3.36-2.34-8.27-3.37-11.29-7.4,4-15.9,5.76-22.53,6.49C1054.09,563,1054.49,571.44,1054.49,573.7Z" transform="translate(-183.22 -167.19)"/><path class="cls-18" d="M1058.93,427.14A270.66,270.66,0,0,1,1069.5,401c2.13-4.71,4.28-9.32,6.27-13.48,15.15-21.3,53-83.78-22.33-85.73-18.46,12.52-43,98.77-43.35,150.12-.07,9.71.73,18.17,2.6,24.65,5.81,20.15,13.15,40.1,19.1,55.13,6.07,15.37,10.68,25.59,10.68,25.59a76.94,76.94,0,0,0,11.32-.48c6.63-.73,15.13-2.47,22.53-6.49a34.18,34.18,0,0,0,9.25-7.14c-.27-1.13-.59-2.36-.94-3.65C1077,511.18,1052.93,445.88,1058.93,427.14Z" transform="translate(-183.22 -167.19)"/><path class="cls-12" d="M1068.42,286c27.25,6.22,42.27,19.38,50.29,34.07a79.85,79.85,0,0,0-.31-19.84c-.43-2.65-2.77-5.36-6.22-8-11-8.35-33.1-15.93-40.65-18.36-1.64-.53-2.59-.82-2.59-.82l-13.19,13.58A25.06,25.06,0,0,1,1068.42,286Z" transform="translate(-183.22 -167.19)"/><path class="cls-3" d="M1118,274.09c-9.51-5.7-16.5-16.75-16.5-16.75s7,11.05,16.5,16.75a1.66,1.66,0,0,1,.22,0c15.67,2.87,16-8.24,15.76-10.59-.18-1.68,3.83-2.55,5.72-2.92a1,1,0,0,0,.76-1.45l-3.26-3.88,4.84-1.49a1.27,1.27,0,0,0,.71-1.89l-2.59-4.17s8.1-1.83,7.58-5.22c-.44-2.83-5.92-6.73-7-10.51a4,4,0,0,1,.47-3.12c3.49-5.92,3.21-13.33,2.37-18.49-3.19,3.79-8.54,5.9-19.26,5.9-15.67,0-10.79,18.81-10.79,18.81l-2.44,2.09a33.32,33.32,0,0,0-.7-5.92c.35-11.14-11.84-12.89-15.32-6.27s2.78,10.1,3.48,14.63c-2.21,10.31-12.71,11.62-18.72,11.5l.26.34c2,9.53-5.55,19.06-8.56,22.42,7.55,2.43,29.69,10,40.65,18.36C1111.63,285.1,1111.91,274.83,1118,274.09Zm-18-49c5.28-1.53,6,4,6,4s-.67-5.56-6-4-2.31,8,.09,9.22C1097.75,233,1094.78,226.61,1100.06,225.07Z" transform="translate(-183.22 -167.19)"/><path d="M1098.55,239.57c-.7-4.53-7-8-3.48-14.63s15.67-4.87,15.32,6.27a33.32,33.32,0,0,1,.7,5.92l2.44-2.09s-4.88-18.81,10.79-18.81c10.72,0,16.07-2.11,19.26-5.9-.09-.57-.19-1.12-.29-1.63.1.51.2,1.06.29,1.63a16.91,16.91,0,0,0,2-3c-19,5-48.21,4-70,5.4a84.63,84.63,0,0,1-11.46.05c-4.43,27,11.59,33,15.73,38.27C1085.84,251.19,1096.34,249.88,1098.55,239.57Z" transform="translate(-183.22 -167.19)"/><path class="cls-19" d="M891.66,827.56l-.52.31c2.61,6.13,9.57,16.87,28.1,24.53a8.11,8.11,0,0,1,0-2.91c.94-4.33,8.7-12.48,14.23-17.86A142.55,142.55,0,0,1,905,813C902,818,897.53,824,891.66,827.56Z" transform="translate(-183.22 -167.19)"/><path class="cls-12" d="M1079.39,174.09c-20.41,1-20.51,16.24-19.19,24l83-6C1142.24,156.72,1106.05,172.74,1079.39,174.09Z" transform="translate(-183.22 -167.19)"/><path class="cls-8" d="M1075.56,212.75c21.78-1.45,51-.44,70-5.4,11.23-2.94,18.92-8,19.44-16.83l-21.83,1.58-83,6-19.77,1.44c1.19,4.27,5.83,12,23.67,13.24A84.63,84.63,0,0,0,1075.56,212.75Z" transform="translate(-183.22 -167.19)"/><path class="cls-2" d="M1375.32,289.25l0-.78A1,1,0,0,0,1375.32,289.25Z" transform="translate(-183.22 -167.19)"/><path class="cls-19" d="M1157.59,852.65c-5.21-4.7-10.56-12.85-14.17-28.77a140.51,140.51,0,0,1-32.53,2.06c3.41,8.41,6.23,20,3.23,32C1124.09,860.74,1143.31,863.93,1157.59,852.65Z" transform="translate(-183.22 -167.19)"/><path d="M1208.23,868.82c-17.79-4-30.68-4-37.79-8.44-3.08-1.93-7.9-3.27-12.85-7.73-14.28,11.28-33.5,8.09-43.47,5.29,0,.22-.09.44-.15.66-.45,5.78-13.78,13.34-8.45,26.23s19.12,13.34,41.35,10.23c8.45-3.12,16-3.56,35.13-1.78s40,1.33,42.68-4.45S1226,872.82,1208.23,868.82Z" transform="translate(-183.22 -167.19)"/><path d="M1282,843.74c-16.9,9.6-16.51,23-16.51,23l18,13.44s5-2.69,9.22.76,44.16,39.17,74.11,28.42c12.29-6.14-15.74-23-23-29.57-4.41-3.94-14.29-7.75-16.67-19.48-17.65-.94-31.93-12.23-39.42-19.57A31.63,31.63,0,0,1,1282,843.74Z" transform="translate(-183.22 -167.19)"/><path class="cls-18" d="M1100.46,368.36c-6.08,12.17-18.86,23.68-31,32.6a270.66,270.66,0,0,0-10.57,26.18c-6,18.74,18.1,84,25.7,112.34,6.47.09,12.77,0,18.36-.14,11.69-.3,20.2-.91,20.2-.91s-.78-143.42,1.57-157.53c1.4-8.39,7.14-36.71-6-60.88-8-14.69-23-27.85-50.29-34.07a25.06,25.06,0,0,0-12.67.64,44.31,44.31,0,0,0-13.44,6.93C1085.77,285.45,1128.64,316.26,1100.46,368.36Z" transform="translate(-183.22 -167.19)"/><path class="cls-6" d="M1287.7,840.78c7.49,7.34,21.77,18.63,39.42,19.57-1.33-6.59-.29-15.69,5.43-28.72a148.56,148.56,0,0,1-27.18-14.52C1302.38,824.67,1296.91,834.78,1287.7,840.78Z" transform="translate(-183.22 -167.19)"/><path class="cls-16" d="M1143.42,823.88a92,92,0,0,0,14-3.83c-1.65-14.9-37.4-195.2-52.19-269.51-.81-4.06-1.56-7.81-2.23-11.2-6.53,17-20.92,69.94-44.65,118.18,6.93,21.05,16.08,50.7,20.18,72.14,5.42,28.29,11.76,74.6,14.41,94.56a176.53,176.53,0,0,0,18,1.72A140.51,140.51,0,0,0,1143.42,823.88Z" transform="translate(-183.22 -167.19)"/><path class="cls-18" d="M1012.69,476.52c-1.87-6.48-2.67-14.94-2.6-24.65l-12.27,42.74-8.49,29.57c2.64.36,6.22.87,10.37,1.51,9.15,1.4,21.1,3.44,32.09,6C1025.84,516.62,1018.5,496.67,1012.69,476.52Z" transform="translate(-183.22 -167.19)"/><path class="cls-7" d="M1053.44,301.75c75.37,1.95,37.48,64.43,22.33,85.73-2,4.16-4.14,8.77-6.27,13.48,12.1-8.92,24.88-20.43,31-32.6,28.18-52.1-14.69-82.91-58.15-74.84-20.6,3.83-41.34,16.39-54.7,39.58-57.51,116.34-6.12,153.19,10.21,161.51l12.27-42.74C1010.43,400.52,1035,314.27,1053.44,301.75Z" transform="translate(-183.22 -167.19)"/><path class="cls-16" d="M1084.63,539.48c.35,1.29.67,2.52.94,3.65a34.18,34.18,0,0,1-9.25,7.14c1,3,2.63,7.93,3.37,11.29.38-.56.7-1,1-1.46l-.46-.88.46.88c.6,1.11,1.61,3,3.36,6.28-6.54,15.94-30.31,36.31-30.31,36.31s-1-3.39-2.35-9.92c2.14-1.59,4.21-3.31,6.2-5.1-2.14-4-3.06-10.91-3.06-14,0-2.26-.4-10.74-.7-16.94a76.94,76.94,0,0,1-11.32.48s-4.61-10.22-10.68-25.59c-11-2.52-22.94-4.56-32.09-6-5.65,26.29-1.12,35.75-1.12,54.28,0,20.37-2.35,33.7-18,66.61-28.22,61.13-84.65,133.24-94.83,144.21,3.9,7.48,11,15.22,19.29,22.18a142.55,142.55,0,0,0,28.44,18.66c2.52,1.21,4.91,2.24,7.13,3,46.54-45,87.8-116.27,117.75-177.16,23.73-48.24,38.12-101.15,44.65-118.18C1097.4,539.49,1091.1,539.57,1084.63,539.48Z" transform="translate(-183.22 -167.19)"/></g><g id="lines_copy" data-name="lines copy"><path class="cls-20" d="M1477.66,884.09c9.37.88,26.44.55,41.9-10" transform="translate(-183.22 -167.19)"/><path class="cls-20" d="M1477.66,884.09c1.22-11-2.31-26.05-4.73-34.66" transform="translate(-183.22 -167.19)"/><path class="cls-20" d="M1519.56,874.08c-5.46-8.35-8.21-19.08-11.15-31.92" transform="translate(-183.22 -167.19)"/><path class="cls-20" d="M1477.66,884.09a25.35,25.35,0,0,1-1.29,5.86c-5.49,15-.73,29.32-.73,29.32l30.41.73s.37-2.57,5.87-2.2,71.45,8.79,75.11-.37-4-20.88-38.1-25.28c-15-3.22-23.66-9.35-29.37-18.07" transform="translate(-183.22 -167.19)"/><path class="cls-20" d="M1518.58,837.24a54.89,54.89,0,0,1-10.17,4.92" transform="translate(-183.22 -167.19)"/><path class="cls-20" d="M1472.93,849.43c-7.19.7-13.77,1-18.8,1.15" transform="translate(-183.22 -167.19)"/><path class="cls-20" d="M1472.93,849.43c11.6-1.13,24.76-3.26,35.48-7.27" transform="translate(-183.22 -167.19)"/><path class="cls-20" d="M1327.12,860.35c-1.33-6.59-.29-15.69,5.43-28.72" transform="translate(-183.22 -167.19)"/><path class="cls-20" d="M1287.7,840.78c9.21-6,14.68-16.11,17.67-23.67" transform="translate(-183.22 -167.19)"/><path class="cls-20" d="M1287.7,840.78a31.63,31.63,0,0,1-5.73,3c-16.9,9.6-16.51,23-16.51,23l18,13.44s5-2.69,9.22.76,44.16,39.17,74.11,28.42c12.29-6.14-15.74-23-23-29.57-4.41-3.94-14.29-7.75-16.67-19.48" transform="translate(-183.22 -167.19)"/><path class="cls-20" d="M1327.12,860.35c-17.65-.94-31.93-12.23-39.42-19.57" transform="translate(-183.22 -167.19)"/><path class="cls-20" d="M1305.37,817.11a157.79,157.79,0,0,1-14.39-10.9" transform="translate(-183.22 -167.19)"/><path class="cls-20" d="M1332.55,831.63a148.56,148.56,0,0,1-27.18-14.52" transform="translate(-183.22 -167.19)"/><path class="cls-20" d="M1332.55,831.63a122.82,122.82,0,0,0,15.67,5.1" transform="translate(-183.22 -167.19)"/><path class="cls-20" d="M1348.22,836.73c9.52-14.8,46.2-74.3,69.55-146.53" transform="translate(-183.22 -167.19)"/><path class="cls-20" d="M1363,562.28c.8,3.45,1.9,7.42,3.38,11.92" transform="translate(-183.22 -167.19)"/><path class="cls-20" d="M1454.13,850.58c-5.76-39.74-18.37-104.43-36.36-160.38" transform="translate(-183.22 -167.19)"/><path class="cls-20" d="M1417.77,690.2c-7-21.87-14.89-42.4-23.48-59.58-15-23.72-23.3-42.55-27.87-56.42" transform="translate(-183.22 -167.19)"/><path class="cls-20" d="M1455.55,544.83c9.68,39.76,35.37,145.65,37.23,157.79,2,12.92,20.71,108.65,25.8,134.62" transform="translate(-183.22 -167.19)"/><path class="cls-20" d="M1366.42,574.2c-1,28.17-6.27,104.55-34.92,157.22-20.3,37.41-34,62.72-40.52,74.79" transform="translate(-183.22 -167.19)"/><path class="cls-20" d="M1455.55,544.83c-3.88,1.48-7.52,2.46-10.38,2.46-11.91,0-8.45-5-35.71-.39-20.24,4.57-33.56,1.87-41.32-1.33" transform="translate(-183.22 -167.19)"/><path class="cls-20" d="M1455.55,544.83a116.62,116.62,0,0,0,13.7-6.53" transform="translate(-183.22 -167.19)"/><path class="cls-20" d="M1323.28,609.33c-7.53,3.45-19.53,10.46-22.88,21.29,17.66,21.5,36.1,3.84,39.55.38,1.67-1.67,12.43-34.21,23.09-68.72" transform="translate(-183.22 -167.19)"/><path class="cls-20" d="M1363,562.28c1.72-5.56,3.43-11.17,5.1-16.71" transform="translate(-183.22 -167.19)"/><path class="cls-20" d="M1402.66,431.88c-6.14,13.77-17,39.39-17,48.21,0,5.38-8.11,34.34-17.51,65.48" transform="translate(-183.22 -167.19)"/><path class="cls-20" d="M1320,631.77c1.79-.6,1.63-10.27,3.3-22.44" transform="translate(-183.22 -167.19)"/><path class="cls-20" d="M1350.23,461.87c-9.64,30.39-11.67,67.19-13.17,93.06" transform="translate(-183.22 -167.19)"/><path class="cls-20" d="M1353.76,452q-1.92,4.82-3.53,9.92" transform="translate(-183.22 -167.19)"/><path class="cls-20" d="M1323.28,609.33c1.55-11.32,4.68-24.8,12.45-35.16.51-5.23.9-11.78,1.33-19.24" transform="translate(-183.22 -167.19)"/><path class="cls-20" d="M1365.94,413.24c-1,5.69-3.37,14.95-8.32,30-1.39,2.8-2.67,5.73-3.86,8.73" transform="translate(-183.22 -167.19)"/><path class="cls-20" d="M1365.94,413.24a90.08,90.08,0,0,1-11.47-9.57" transform="translate(-183.22 -167.19)"/><path class="cls-20" d="M1365.94,413.24c8.21,5.85,20.15,12.68,36.72,18.64" transform="translate(-183.22 -167.19)"/><path class="cls-20" d="M1402.66,431.88c3,1.07,6.09,2.1,9.37,3.1" transform="translate(-183.22 -167.19)"/><path class="cls-20" d="M1416.19,425c-1.54,4-3,7.4-4.16,10" transform="translate(-183.22 -167.19)"/><path class="cls-20" d="M1416.19,425c8.56-22,19.92-60.84-.59-73.52-36.94-17.1-52.71,19.45-58.66,41.43" transform="translate(-183.22 -167.19)"/><path class="cls-20" d="M1356.94,392.88c-1.18,4.34-2,8.11-2.47,10.79" transform="translate(-183.22 -167.19)"/><path class="cls-20" d="M1416.19,425a233.42,233.42,0,0,1-59.25-32.09" transform="translate(-183.22 -167.19)"/><path class="cls-20" d="M1467.66,515.33c.78,8.74,1.34,16.87,1.59,23" transform="translate(-183.22 -167.19)"/><path class="cls-20" d="M1452.65,384.23c-4.4-30.3-16.88-72.35-59.32-67.73-15.86,1.73-26.51,8.31-33.52,17.5" transform="translate(-183.22 -167.19)"/><path class="cls-20" d="M1467.66,515.33c-1.83-20.37-4.86-44-7.9-52.91-.16-.47-.29-.95-.44-1.43" transform="translate(-183.22 -167.19)"/><path class="cls-20" d="M1353.76,452a186.16,186.16,0,0,0-2.67-33.69c-3.32-20.15-9.21-60.75,8.72-84.26" transform="translate(-183.22 -167.19)"/><path class="cls-20" d="M1459.32,461c-4.39-14.34-2.31-31.9-4.17-52.71-.47-5.34-1.05-14.06-2.5-24" transform="translate(-183.22 -167.19)"/><path class="cls-20" d="M1487.38,548.42a48.79,48.79,0,0,1,4.64,21.52c-4.13,6.32-6.22,11.13-7.16,14.77" transform="translate(-183.22 -167.19)"/><path class="cls-20" d="M1484.86,584.71c-2,7.86,1.4,10.19,1.4,10.19s8.83-13.82,11.52-20,4.6-27.65,3.45-38.4c-.91-8.48-29.76-55.89-41.91-75.55" transform="translate(-183.22 -167.19)"/><path class="cls-20" d="M1482.8,541.14a28.24,28.24,0,0,1,4.58,7.28" transform="translate(-183.22 -167.19)"/><path class="cls-20" d="M1484.06,562.14c-2,3.91-4.86,6.51-6.64,4.73-3.07-3.07-1.92-26.49-3.07-28.41s-2.3-16.52-2.3-16.52l-4.39-6.61" transform="translate(-183.22 -167.19)"/><path class="cls-20" d="M1487.38,548.42a13.46,13.46,0,0,0-.74,4.24,21.75,21.75,0,0,1-2.58,9.48" transform="translate(-183.22 -167.19)"/><path class="cls-20" d="M1484.06,562.14a19.85,19.85,0,0,1-2,6.65c-2.63,4.68,1,12.46,2.83,15.92" transform="translate(-183.22 -167.19)"/><path class="cls-20" d="M1343.3,361.87c2.67-12.46,7.76-22.61,16.51-27.87" transform="translate(-183.22 -167.19)"/><path class="cls-20" d="M1350.23,461.87c-4.09-17.77-14-67-6.93-100" transform="translate(-183.22 -167.19)"/><path class="cls-20" d="M1343.79,362.2l-.49-.33" transform="translate(-183.22 -167.19)"/><path class="cls-20" d="M1330.13,358c-14-.31-35.63,11-48.55,75.64-.38,10.37-26.88,69.89-.76,95.24,5.55,5.55,10,25,56.24,26.07" transform="translate(-183.22 -167.19)"/><path class="cls-20" d="M1330.13,358a26.73,26.73,0,0,1,13.17,3.89" transform="translate(-183.22 -167.19)"/><path class="cls-20" d="M1445,326.34c-14.11-24.42-43-24.09-67-18.67l-1.67.41" transform="translate(-183.22 -167.19)"/><path class="cls-20" d="M1445,326.34c7.08,12.25,10.45,30.71,7.66,57.89" transform="translate(-183.22 -167.19)"/><path class="cls-20" d="M1330.13,358c3.54-9.63,17.51-42.33,46.17-49.9" transform="translate(-183.22 -167.19)"/><path class="cls-20" d="M1449.2,299l.38-8.82s-2.14-.26-5.71-.65" transform="translate(-183.22 -167.19)"/><path class="cls-20" d="M1445,326.34l7.76-27.5a25.88,25.88,0,0,1-3.55.18" transform="translate(-183.22 -167.19)"/><path class="cls-20" d="M1375.28,288.47a1,1,0,0,0,0,.78" transform="translate(-183.22 -167.19)"/><path class="cls-20" d="M1443.05,298.91c2.42.08,4.51.11,6.15.11" transform="translate(-183.22 -167.19)"/><path class="cls-20" d="M1397.12,295.12c-11.67-1.58-20.78-3.59-21.8-5.87" transform="translate(-183.22 -167.19)"/><path class="cls-20" d="M1400.07,286c-13-.52-23.81-.12-24.79,2.48" transform="translate(-183.22 -167.19)"/><path class="cls-20" d="M1397.12,295.12c15.06,2.05,34.34,3.41,45.93,3.79" transform="translate(-183.22 -167.19)"/><line class="cls-20" x1="1192.1" y1="122.06" x2="1192.06" y2="121.28"/><line class="cls-20" x1="1192.1" y1="122.06" x2="1193.08" y2="140.89"/><path class="cls-20" d="M1443.87,289.55c1.83-9.34,6.38-9.48,10.61-8.13,17.71,9.79,14-10.08,14-10.08l6.48-2.45-2.31-5,5.19-3.31-2.16-4.47s5-3.89,7-7.63-7.92-13.54-8.78-17.42c8.21-17.86-.72-20.88-.72-27.41l.21-.21" transform="translate(-183.22 -167.19)"/><path class="cls-20" d="M1473.41,203.4c15.75-14.79-41.85-58-77.78-21.3s-6.23,65.21,2,82.8" transform="translate(-183.22 -167.19)"/><path class="cls-20" d="M1400.07,286a40.79,40.79,0,0,1-3,9.13" transform="translate(-183.22 -167.19)"/><path class="cls-20" d="M1400.07,286a33.76,33.76,0,0,0-2.33-20.85,2.56,2.56,0,0,0-.11-.24" transform="translate(-183.22 -167.19)"/><path class="cls-20" d="M1443.87,289.55a52.84,52.84,0,0,0-.82,9.36" transform="translate(-183.22 -167.19)"/><path class="cls-20" d="M1397.63,264.9c5.66.17,15.51-2,19.7-18.19,2.88-5.18-2.88-7.49-2.59-14.11s18.72-18.14,19.87,5.47c.29,3.17.57,6.91.57,6.91l4.9-1.72s-6.34-21,7.2-19.88c1.15-6.33,1.73-13,1.73-13a70.72,70.72,0,0,0,24.4-7" transform="translate(-183.22 -167.19)"/><path class="cls-20" d="M440.62,213.16c13.36-23.58-8.5-31.16-17.88-34.61s-12.66,1.9-21.43,1.71a8.24,8.24,0,0,0-2,.16c-16,3.62-18.76,10.49-24.22,19.09-5.56,8.77-16.22,8.44-29.11,11.61s-40,16.47-36.18,55.57c3.07,31.8,24.71,31.4,32.67,30.15" transform="translate(-183.22 -167.19)"/><path class="cls-20" d="M417.4,267.26c-5.08.31-8.52,6.75-10.74,13.46" transform="translate(-183.22 -167.19)"/><path class="cls-20" d="M406.66,280.72a80.39,80.39,0,0,0-2.18,8.17" transform="translate(-183.22 -167.19)"/><path class="cls-20" d="M417.4,267.26a7.33,7.33,0,0,1,3.35.63c11.43,4.91,12.86-4.87,13-7.83a1.17,1.17,0,0,1,.84-1.05c1.59-.47,5-1.54,5.18-2.21.27-.87-1.22-2.85-1.22-2.85l2.14-1.6a1.15,1.15,0,0,0,.26-1.6c-.71-1-1.32-2.63.89-4.37,3.39-2.67,1.92-4.07.45-5.48a15.55,15.55,0,0,1-3.63-8.1,3.31,3.31,0,0,1,.65-2.18,16.71,16.71,0,0,0,1.28-17.46" transform="translate(-183.22 -167.19)"/><path class="cls-20" d="M381,264.58c1.69-5.81,6.87-13.85,20.15-23.89-.68-4.31-6.36-13.68.77-16.73s8.77,5.56,8.77,5.56,3.19-24,17.32-23.73a14,14,0,0,1,12.64,7.37" transform="translate(-183.22 -167.19)"/><path class="cls-20" d="M342.49,296.84c-.95-5.57-1-13.15,1.78-22.59,4.56-15.47,22.1-17.53,36.7-9.67" transform="translate(-183.22 -167.19)"/><path class="cls-20" d="M427.18,297.13s-11.28,2.11-22.7-8.24" transform="translate(-183.22 -167.19)"/><path class="cls-20" d="M404.48,288.89a47,47,0,0,1-8.25-10.06A40.79,40.79,0,0,0,381,264.58" transform="translate(-183.22 -167.19)"/><path class="cls-20" d="M342.49,296.84c.16,1,.35,1.88.56,2.72" transform="translate(-183.22 -167.19)"/><path class="cls-20" d="M419,322.93c2.26-1.64,4.85-3.68,7.82-6.2,19.49-16.58-.06-27.65-7.89-29.78a40.08,40.08,0,0,1-12.22-6.23" transform="translate(-183.22 -167.19)"/><path class="cls-20" d="M402.44,538.53c-18.83,8.56-50.88-.83-69.4-7.69" transform="translate(-183.22 -167.19)"/><path class="cls-20" d="M402.44,538.53a28.17,28.17,0,0,0,2.57-1.31c-.1-4.42-.45-9.79-.8-14.43" transform="translate(-183.22 -167.19)"/><path class="cls-20" d="M337.69,518c15,3.93,48.46,11.32,66.52,4.76" transform="translate(-183.22 -167.19)"/><path class="cls-20" d="M419,322.93c-6.8-11.35-20.84-24.6-50.23-29.17a37.89,37.89,0,0,0-25.67,5.8" transform="translate(-183.22 -167.19)"/><path class="cls-20" d="M430.92,409.84c-4.51,19.67-16.06,31.75-21.22,46.61-5.25,15.14,4.05,25.56,7.28,37.65" transform="translate(-183.22 -167.19)"/><path class="cls-20" d="M417,494.1a26.48,26.48,0,0,1-2.49,20.63c-2,3.79-5.66,6.38-10.28,8.06" transform="translate(-183.22 -167.19)"/><path class="cls-20" d="M343.05,299.56c-12.79,8.26-19.44,22.6-22.34,27.95-4.42,8.17-19.68,21.19-21.45,44.28s-5,8.75-9.34,45.15a301.66,301.66,0,0,0-2.21,34.6" transform="translate(-183.22 -167.19)"/><path class="cls-20" d="M419,322.93a50.88,50.88,0,0,1,6.54,17.93c.87,4.21-2.24,19.64,4.51,29.09,3.73,16.56,3.34,29.32.92,39.89" transform="translate(-183.22 -167.19)"/><path class="cls-20" d="M486,489.84c2.94-4.24,4.72-7.49,4.72-7.49s-4.11-3.36-6.76-5.89c0-.22.07-.43.11-.65" transform="translate(-183.22 -167.19)"/><path class="cls-20" d="M486,489.84c-3.52,5.1-8.7,11.64-14.47,15.72" transform="translate(-183.22 -167.19)"/><path class="cls-20" d="M471.57,505.56a20.52,20.52,0,0,1-7.85,3.62,10.13,10.13,0,0,1-9.91-3.51" transform="translate(-183.22 -167.19)"/><path class="cls-20" d="M484.11,475.81c2.91-16-9.82-32.17-34-46.11-10.74-6.19-16.3-13.55-19.17-19.86" transform="translate(-183.22 -167.19)"/><path class="cls-20" d="M417,494.1c5.33,3.39,11.75,5.87,18.35,8.24,6.77,3.71,12.95,4.45,18.48,3.33" transform="translate(-183.22 -167.19)"/><path class="cls-20" d="M484.11,475.81c-4,8.25-14.52,26.65-30.3,29.86" transform="translate(-183.22 -167.19)"/><path class="cls-20" d="M486.28,546.38c-.58,7.28,2.1,10.37,3.86,8.41,24.51-35.15,4.85-57.39-4.1-64.95" transform="translate(-183.22 -167.19)"/><path class="cls-20" d="M486.28,546.38A46.53,46.53,0,0,1,491,530.55c1.75-5.3-1.42-9.16-4.19-11.38" transform="translate(-183.22 -167.19)"/><path class="cls-20" d="M488.68,515.36a28,28,0,0,0-1.88,3.81" transform="translate(-183.22 -167.19)"/><path class="cls-20" d="M482.58,533.11c-.36.35-.79.23-1.37-.54-2.9-3.82-1.57-19.4-5.85-22.59a15,15,0,0,1-3.79-4.42" transform="translate(-183.22 -167.19)"/><path class="cls-20" d="M486.8,519.17c-2.59,6.32-3,12.78-4.22,13.94" transform="translate(-183.22 -167.19)"/><path class="cls-20" d="M486.28,546.38a74.82,74.82,0,0,1-3.7-13.27" transform="translate(-183.22 -167.19)"/><path class="cls-20" d="M313.77,548.69l.09-.17s11.79-1.8,19.18-17.68" transform="translate(-183.22 -167.19)"/><path class="cls-20" d="M285.46,548.64a69,69,0,0,0,18.5,7" transform="translate(-183.22 -167.19)"/><path class="cls-20" d="M287.71,451.54c12.51-23.62,29.54-52.28,29.55-73.64,0-33,25.66-70.1,55-65.78s32.94,29.59,29.15,48.88-18.55,28.47-31.53,48.74-8.76,54-12.32,66c-3.22,10.82-13,23.7-19.83,42.33" transform="translate(-183.22 -167.19)"/><path class="cls-20" d="M304,555.68c1.16.26,2.34.48,3.55.67a27.58,27.58,0,0,0,6.26-7.66" transform="translate(-183.22 -167.19)"/><path class="cls-20" d="M285.46,548.64a77.32,77.32,0,0,1-12.83-8.8" transform="translate(-183.22 -167.19)"/><path class="cls-20" d="M287.71,451.54c-6.85,12.9-12.34,24.31-13,32.2-1.67,20.85.72,43.62,1,46.52" transform="translate(-183.22 -167.19)"/><path class="cls-20" d="M272.63,539.84a67.4,67.4,0,0,0,3.17-9.27l0-.31" transform="translate(-183.22 -167.19)"/><path class="cls-20" d="M337.69,518c-.74,2-1.45,4.05-2.11,6.18a52,52,0,0,1-2.54,6.63" transform="translate(-183.22 -167.19)"/><path class="cls-20" d="M298.48,591.21c-6.05,1.55-12.33,3.08-12.92,2.9a50.52,50.52,0,0,1-6.18-5.8" transform="translate(-183.22 -167.19)"/><path class="cls-20" d="M298.48,591.21l2.82-.73" transform="translate(-183.22 -167.19)"/><path class="cls-20" d="M273,581.33c2,2.4,4.31,4.86,6.36,7" transform="translate(-183.22 -167.19)"/><path class="cls-20" d="M285.46,548.64a13.05,13.05,0,0,1-4.64,6c-6.8,4.77-14.69,12.63-13.81,17.6a11.25,11.25,0,0,0,1.82,3.65" transform="translate(-183.22 -167.19)"/><path class="cls-20" d="M273,581.33a65.63,65.63,0,0,1-4.19-5.43" transform="translate(-183.22 -167.19)"/><path class="cls-20" d="M309.36,592.89a20.37,20.37,0,0,1-.9,5.3l-5.75.52a27.06,27.06,0,0,0-1-7" transform="translate(-183.22 -167.19)"/><path class="cls-20" d="M301.3,590.48c.14.39.26.8.38,1.22" transform="translate(-183.22 -167.19)"/><path class="cls-20" d="M292.35,580.25a17.73,17.73,0,0,1,8.95,10.23" transform="translate(-183.22 -167.19)"/><path class="cls-20" d="M294.86,574a30.78,30.78,0,0,1,9.89,6.94" transform="translate(-183.22 -167.19)"/><path class="cls-20" d="M304.75,580.93a16.75,16.75,0,0,1,4.61,12" transform="translate(-183.22 -167.19)"/><path class="cls-20" d="M294.86,574a20.65,20.65,0,0,1,2.23-2.81" transform="translate(-183.22 -167.19)"/><path class="cls-20" d="M292.35,580.25a14.6,14.6,0,0,1,2.51-6.26" transform="translate(-183.22 -167.19)"/><path class="cls-20" d="M261.54,585.7a26.72,26.72,0,0,0-1.08,4.42,44.45,44.45,0,0,0,6.19,1.3,19.29,19.29,0,0,1,1.64-4.75" transform="translate(-183.22 -167.19)"/><path class="cls-20" d="M292.35,580.25a8,8,0,0,0,2.41,6.73" transform="translate(-183.22 -167.19)"/><path class="cls-20" d="M261.54,585.7a18.3,18.3,0,0,1,7.29-9.8" transform="translate(-183.22 -167.19)"/><path class="cls-20" d="M273,581.33a13.67,13.67,0,0,0-4.73,5.34" transform="translate(-183.22 -167.19)"/><path class="cls-20" d="M304.75,580.93c.54-3.81.88-9.32-.82-13s-.89-8.89,0-12.27" transform="translate(-183.22 -167.19)"/><path class="cls-20" d="M411.51,663.32a18.15,18.15,0,0,1,15-8.29s-8-31.7-12.48-42c-3.73-8.58-9.73-58.36-11.61-74.54" transform="translate(-183.22 -167.19)"/><path class="cls-20" d="M411.51,663.32a21.51,21.51,0,0,0-2.34,5.17c-4.21,13.65-31.11,19.32-50.18,7.64" transform="translate(-183.22 -167.19)"/><path class="cls-20" d="M346.35,674.32a34.34,34.34,0,0,1,11.51,1.1c.37.25.75.48,1.13.71" transform="translate(-183.22 -167.19)"/><path class="cls-20" d="M318.91,689H319c9.13-3.67,27.56-4.09,27.56-4.09l-.2-10.58" transform="translate(-183.22 -167.19)"/><path class="cls-20" d="M318.91,689c-1-.1-2.66-.39-4.79-.83" transform="translate(-183.22 -167.19)"/><path class="cls-20" d="M230.93,620.64l-4.69,43.58s67.14,19.54,87.88,23.93" transform="translate(-183.22 -167.19)"/><path class="cls-20" d="M298.48,591.21l3.2.49" transform="translate(-183.22 -167.19)"/><line class="cls-20" x1="163.13" y1="507.13" x2="162.15" y2="453.49"/><line class="cls-20" x1="162.15" y1="453.49" x2="161.8" y2="434.54"/><path class="cls-20" d="M309.36,592.89c19.57,3.05,35.6,5.62,35.6,5.62l.06,3.22" transform="translate(-183.22 -167.19)"/><path class="cls-20" d="M224.19,619c4.91-11,13.81-30.53,17.48-35.77,3.5.27,10.75,1.21,19.87,2.5" transform="translate(-183.22 -167.19)"/><path class="cls-20" d="M279.38,588.31l-11.09-1.64" transform="translate(-183.22 -167.19)"/><path class="cls-20" d="M230.93,620.64,224.19,619" transform="translate(-183.22 -167.19)"/><path class="cls-20" d="M327.12,628.19a45,45,0,0,0-3.86,12.3c-20.2-2.37-68.48-14-92.33-19.85" transform="translate(-183.22 -167.19)"/><path class="cls-20" d="M330.13,622.33c-1.08,1.91-2.1,3.88-3,5.86" transform="translate(-183.22 -167.19)"/><path class="cls-20" d="M330.13,622.33A131.19,131.19,0,0,1,345,601.73" transform="translate(-183.22 -167.19)"/><path class="cls-20" d="M330.13,622.33c7.94,2.48,12.71.4,15.24-1.65" transform="translate(-183.22 -167.19)"/><line class="cls-20" x1="135.69" y1="521.79" x2="143.89" y2="461"/><path class="cls-20" d="M436.86,854.83c-11.47-15.31-18-42.87-20.13-90.87s-4.13-82.85-5.22-100.64" transform="translate(-183.22 -167.19)"/><path class="cls-20" d="M359,676.13c.86,2.18,1.88,4.83,3,7.78" transform="translate(-183.22 -167.19)"/><path class="cls-20" d="M400.44,860.54c.07,1.22.1,2.07.11,2.5.08,3.45-5.24,22.78.34,31.49,6.25,4.46,14.6.43,32.67.79s60.3.16,65.13-7.25c4.62-7.11-5.62-15.63-37.33-18.33a27.71,27.71,0,0,1-10-2.67,40,40,0,0,1-14.48-12.24" transform="translate(-183.22 -167.19)"/><path class="cls-20" d="M400.44,860.54c-.52-8.63-3.16-36.14-15.38-70.51-14-39.24-10.4-51.62-11.1-65.43-.44-8.58-7-27.55-12-40.69" transform="translate(-183.22 -167.19)"/><path class="cls-20" d="M436.86,854.83c-12.69,15-28.68,9.68-36.42,5.71" transform="translate(-183.22 -167.19)"/><path class="cls-20" d="M208.91,815.71a22.49,22.49,0,0,1-3.24,1.7c-8.47-1-19.39,13.7-21.71,17.65s13.32,20,13.32,20,2.85,1.5,7.73,4.11,14.09,18.4,16.14,19.91,32.07,13.3,41.85,1.38-31.93-18.26-29.49-38.24" transform="translate(-183.22 -167.19)"/><path class="cls-20" d="M233.51,842.19c0-.16,0-.31.05-.47,3.16-20.34,78.6-79.78,102.62-101.77,16.19-14.82,23.08-40.1,25.8-56" transform="translate(-183.22 -167.19)"/><path class="cls-20" d="M314.12,688.15c-3.78,10.42-10.36,23.65-19.43,30.91-13,10.44-37.26,41-48.13,58-9.66,15.13-27.85,32.6-37.65,38.62" transform="translate(-183.22 -167.19)"/><path class="cls-20" d="M233.51,842.19a53.66,53.66,0,0,1-24.6-26.48" transform="translate(-183.22 -167.19)"/><path class="cls-20" d="M403.74,254.46a63,63,0,0,0,13.66,12.8" transform="translate(-183.22 -167.19)"/><path class="cls-20" d="M313.77,548.69c-15.52-5-32-14.75-38-18.43" transform="translate(-183.22 -167.19)"/><path class="cls-20" d="M1143.42,823.88c3.61,15.92,9,24.07,14.17,28.77" transform="translate(-183.22 -167.19)"/><path class="cls-20" d="M1110.89,825.94c3.41,8.41,6.23,20,3.23,32" transform="translate(-183.22 -167.19)"/><path class="cls-20" d="M1157.59,852.65c5,4.46,9.77,5.8,12.85,7.73,7.11,4.44,20,4.44,37.79,8.44s19.12,14.23,16.45,20-23.57,6.23-42.68,4.45-26.68-1.34-35.13,1.78c-22.23,3.11-36,2.66-41.35-10.23s8-20.45,8.45-26.23c.06-.22.1-.44.15-.66" transform="translate(-183.22 -167.19)"/><path class="cls-20" d="M1143.42,823.88a140.51,140.51,0,0,1-32.53,2.06" transform="translate(-183.22 -167.19)"/><path class="cls-20" d="M1103,539.34c.67,3.39,1.42,7.14,2.23,11.2" transform="translate(-183.22 -167.19)"/><path class="cls-20" d="M1092.93,824.22a176.53,176.53,0,0,0,18,1.72" transform="translate(-183.22 -167.19)"/><path class="cls-20" d="M1143.42,823.88a92,92,0,0,0,14-3.83c-1.65-14.9-37.4-195.2-52.19-269.51" transform="translate(-183.22 -167.19)"/><path class="cls-20" d="M1058.34,657.52c6.93,21.05,16.08,50.7,20.18,72.14,5.42,28.29,11.76,74.6,14.41,94.56" transform="translate(-183.22 -167.19)"/><path class="cls-20" d="M1157.59,852.65c-14.28,11.28-33.5,8.09-43.47,5.29" transform="translate(-183.22 -167.19)"/><path class="cls-20" d="M905,813a142.55,142.55,0,0,0,28.44,18.66" transform="translate(-183.22 -167.19)"/><path class="cls-20" d="M999.7,525.69c-5.65,26.29-1.12,35.75-1.12,54.28,0,20.37-2.35,33.7-18,66.61-28.22,61.13-84.65,133.24-94.83,144.21,3.9,7.48,11,15.22,19.29,22.18" transform="translate(-183.22 -167.19)"/><path class="cls-20" d="M933.46,831.63c2.52,1.21,4.91,2.24,7.13,3,46.54-45,87.8-116.27,117.75-177.16" transform="translate(-183.22 -167.19)"/><path class="cls-20" d="M1058.34,657.52c23.73-48.24,38.12-101.15,44.65-118.18" transform="translate(-183.22 -167.19)"/><path class="cls-20" d="M905,813c-3,5-7.49,11-13.36,14.59l-.52.31" transform="translate(-183.22 -167.19)"/><path class="cls-20" d="M933.46,831.63c-5.53,5.38-13.29,13.53-14.23,17.86a8.11,8.11,0,0,0,0,2.91" transform="translate(-183.22 -167.19)"/><path class="cls-20" d="M891.14,827.87c-13.62,8-36.69,9.45-24.67,33.48,4.44,9.78,22.82,12.74,39.72,33.2s54.83,11.56,54.54,6.22-2.37-12.74-20.16-17.49c-9.92-7.31-20.06-22.66-21.33-30.88" transform="translate(-183.22 -167.19)"/><path class="cls-20" d="M919.24,852.4c-18.53-7.66-25.49-18.4-28.1-24.53" transform="translate(-183.22 -167.19)"/><path class="cls-20" d="M1080.65,560.1l-.46-.88" transform="translate(-183.22 -167.19)"/><path class="cls-20" d="M1057.55,587.67c-2,1.79-4.06,3.51-6.2,5.1,1.31,6.53,2.35,9.92,2.35,9.92s23.77-20.37,30.31-36.31c-1.75-3.27-2.76-5.17-3.36-6.28" transform="translate(-183.22 -167.19)"/><path class="cls-20" d="M1079.69,561.56c.38-.56.7-1,1-1.46" transform="translate(-183.22 -167.19)"/><path class="cls-20" d="M1079.69,561.56c-3.49,5.23-11.67,16.68-22.14,26.11" transform="translate(-183.22 -167.19)"/><path class="cls-20" d="M1057.55,587.67c-2.14-4-3.06-10.91-3.06-14,0-2.26-.4-10.74-.7-16.94" transform="translate(-183.22 -167.19)"/><path class="cls-20" d="M1079.69,561.56c-.74-3.36-2.34-8.27-3.37-11.29" transform="translate(-183.22 -167.19)"/><path class="cls-20" d="M1103,539.34c-5.59.15-11.89.23-18.36.14" transform="translate(-183.22 -167.19)"/><path class="cls-20" d="M1118.71,320c13.19,24.17,7.45,52.49,6,60.88-2.35,14.11-1.57,157.53-1.57,157.53s-8.51.61-20.2.91" transform="translate(-183.22 -167.19)"/><path class="cls-20" d="M1042.31,293.52a44.31,44.31,0,0,1,13.44-6.93" transform="translate(-183.22 -167.19)"/><path class="cls-20" d="M1118.71,320c-8-14.69-23-27.85-50.29-34.07a25.06,25.06,0,0,0-12.67.64" transform="translate(-183.22 -167.19)"/><path class="cls-20" d="M989.33,524.18c2.64.36,6.22.87,10.37,1.51" transform="translate(-183.22 -167.19)"/><path class="cls-20" d="M1031.79,531.65c-11-2.52-22.94-4.56-32.09-6" transform="translate(-183.22 -167.19)"/><line class="cls-20" x1="814.6" y1="327.42" x2="806.11" y2="356.99"/><line class="cls-20" x1="814.6" y1="327.42" x2="826.87" y2="284.68"/><path class="cls-20" d="M1076.32,550.27a34.18,34.18,0,0,0,9.25-7.14c-.27-1.13-.59-2.36-.94-3.65" transform="translate(-183.22 -167.19)"/><path class="cls-20" d="M1069.5,401a270.66,270.66,0,0,0-10.57,26.18c-6,18.74,18.1,84,25.7,112.34" transform="translate(-183.22 -167.19)"/><path class="cls-20" d="M1069.5,401c2.13-4.71,4.28-9.32,6.27-13.48" transform="translate(-183.22 -167.19)"/><path class="cls-20" d="M1010.09,451.87c.34-51.35,24.89-137.6,43.35-150.12,75.37,1.95,37.48,64.43,22.33,85.73" transform="translate(-183.22 -167.19)"/><path class="cls-20" d="M1053.79,556.76a76.94,76.94,0,0,1-11.32.48s-4.61-10.22-10.68-25.59" transform="translate(-183.22 -167.19)"/><path class="cls-20" d="M1010.09,451.87c-.07,9.71.73,18.17,2.6,24.65,5.81,20.15,13.15,40.1,19.1,55.13" transform="translate(-183.22 -167.19)"/><path class="cls-20" d="M1076.32,550.27c-7.4,4-15.9,5.76-22.53,6.49" transform="translate(-183.22 -167.19)"/><path class="cls-20" d="M1042.31,293.52c43.46-8.07,86.33,22.74,58.15,74.84-6.08,12.17-18.86,23.68-31,32.6" transform="translate(-183.22 -167.19)"/><path class="cls-20" d="M1042.31,293.52c-20.6,3.83-41.34,16.39-54.7,39.58-57.51,116.34-6.12,153.19,10.21,161.51" transform="translate(-183.22 -167.19)"/><path class="cls-20" d="M1071.53,273.83c-1.64-.53-2.59-.82-2.59-.82l-13.19,13.58" transform="translate(-183.22 -167.19)"/><path class="cls-20" d="M1112.18,292.19c-11-8.35-33.1-15.93-40.65-18.36" transform="translate(-183.22 -167.19)"/><path class="cls-20" d="M1112.18,292.19c3.45,2.63,5.79,5.34,6.22,8a79.85,79.85,0,0,1,.31,19.84" transform="translate(-183.22 -167.19)"/><path class="cls-20" d="M1071.53,273.83c3-3.36,10.52-12.89,8.56-22.42l-.26-.34" transform="translate(-183.22 -167.19)"/><path class="cls-20" d="M1064.1,212.8c-4.43,27,11.59,33,15.73,38.27" transform="translate(-183.22 -167.19)"/><line class="cls-20" x1="981.76" y1="23.33" x2="959.93" y2="24.91"/><line class="cls-20" x1="876.97" y1="30.93" x2="959.93" y2="24.91"/><line class="cls-20" x1="876.97" y1="30.93" x2="857.21" y2="32.36"/><path class="cls-20" d="M1145.55,207.35c11.23-2.94,18.92-8,19.44-16.83" transform="translate(-183.22 -167.19)"/><path class="cls-20" d="M1064.1,212.8c-17.84-1.24-22.48-9-23.67-13.24" transform="translate(-183.22 -167.19)"/><path class="cls-20" d="M1064.1,212.8a84.63,84.63,0,0,0,11.46-.05c21.78-1.45,51-.44,70-5.4" transform="translate(-183.22 -167.19)"/><path class="cls-20" d="M1060.2,198.12c-1.32-7.79-1.22-23,19.19-24,26.66-1.35,62.85-17.37,63.77,18" transform="translate(-183.22 -167.19)"/><path class="cls-20" d="M1145.55,207.35a16.91,16.91,0,0,1-2,3" transform="translate(-183.22 -167.19)"/><path class="cls-20" d="M1079.83,251.07c6,.12,16.51-1.19,18.72-11.5-.7-4.53-7-8-3.48-14.63s15.67-4.87,15.32,6.27a33.32,33.32,0,0,1,.7,5.92l2.44-2.09s-4.88-18.81,10.79-18.81c10.72,0,16.07-2.11,19.26-5.9" transform="translate(-183.22 -167.19)"/><path class="cls-20" d="M1112.18,292.19c-.55-7.09-.27-17.36,5.83-18.1" transform="translate(-183.22 -167.19)"/><path class="cls-20" d="M1143.58,210.33c-.09-.57-.19-1.12-.29-1.63" transform="translate(-183.22 -167.19)"/><path class="cls-20" d="M1118,274.09a1.66,1.66,0,0,1,.22,0c15.67,2.87,16-8.24,15.76-10.59-.18-1.68,3.83-2.55,5.72-2.92a1,1,0,0,0,.76-1.45l-3.26-3.88,4.84-1.49a1.27,1.27,0,0,0,.71-1.89l-2.59-4.17s8.1-1.83,7.58-5.22c-.44-2.83-5.92-6.73-7-10.51a4,4,0,0,1,.47-3.12c3.49-5.92,3.21-13.33,2.37-18.49" transform="translate(-183.22 -167.19)"/><path class="cls-20" d="M1101.51,257.34s7,11.05,16.5,16.75" transform="translate(-183.22 -167.19)"/><path class="cls-20" d="M603.55,794.79l-8.64,14.78.05.08" transform="translate(-183.22 -167.19)"/><path class="cls-20" d="M576,778.68c-2.1,4.57-5.37,9.82-10,12.13" transform="translate(-183.22 -167.19)"/><path class="cls-20" d="M567,790.81a11.36,11.36,0,0,1-1.39.59c-10,3.47-21.19,23.36-19.9,26.39s23.36,19,31.15,21.62,5.62,11.25,20.32,16.44,38.5,5.62,39.36,3.46,3.46-14.71-21.62-25.09a305.93,305.93,0,0,1-19-24.57" transform="translate(-183.22 -167.19)"/><path class="cls-20" d="M596,809.65c-12.71-3.58-24-13.82-28.94-18.84" transform="translate(-183.22 -167.19)"/><path class="cls-20" d="M577,778.68c8.83,6.62,19.21,13.42,27.56,16.11" transform="translate(-183.22 -167.19)"/><path class="cls-20" d="M577,778.68c-6.65-5-12.41-9.83-15.77-12.75" transform="translate(-183.22 -167.19)"/><path class="cls-20" d="M604.55,794.79a23.48,23.48,0,0,0,5.74,1.18c14.76-23.44,55.67-76.83,69.43-109.5" transform="translate(-183.22 -167.19)"/><path class="cls-20" d="M632.57,597.74c-.35,18.42-1.56,44.09-5.39,59.11-5.66,22.22-54.11,92.18-66,109.08" transform="translate(-183.22 -167.19)"/><path class="cls-20" d="M747.71,817.84c6.24-1.4,11.64-3.6,15.12-7-2.82-18.8-26.08-185.1-42-253.54" transform="translate(-183.22 -167.19)"/><path class="cls-20" d="M616.15,563.6c2,5.35,5,12.72,8.59,20.11" transform="translate(-183.22 -167.19)"/><path class="cls-20" d="M624.74,583.71a126,126,0,0,0,7.83,14" transform="translate(-183.22 -167.19)"/><path class="cls-20" d="M747.71,817.84c-10.83,2.42-24.18,2.42-34.36,1.88" transform="translate(-183.22 -167.19)"/><path class="cls-20" d="M713.35,819.72c-9.07-.48-15.61-1.39-15.61-1.39s-3.48-35.28-10.93-95.4a268.71,268.71,0,0,0-7.09-36.46" transform="translate(-183.22 -167.19)"/><path class="cls-20" d="M632.57,597.74a56.46,56.46,0,0,0,7,8.92c11.29,11.28,29.27,39.32,40.12,79.81" transform="translate(-183.22 -167.19)"/><path class="cls-20" d="M696.13,327.31l.78-.06c.58,1.78,1.28,3.63,2.05,5.5" transform="translate(-183.22 -167.19)"/><path class="cls-20" d="M720.79,557.34c-10.23,2-23.82,3.93-38.4,5.47" transform="translate(-183.22 -167.19)"/><path class="cls-20" d="M677.11,326.51c11,2.58,14.62,1.2,19,.8" transform="translate(-183.22 -167.19)"/><path class="cls-20" d="M682.39,562.81l-1.78.19" transform="translate(-183.22 -167.19)"/><path class="cls-20" d="M720.79,557.34c8.53-1.71,14.72-3.52,17.19-5.33,7.46-5.47-20.37-44.72-17.39-68.57s-1-57.64,1.49-70.06,6.46-26.83-.49-39.26c-5.71-10.19-15.31-24.94-21.32-38.33" transform="translate(-183.22 -167.19)"/><path class="cls-20" d="M700.27,335.79c-.46-1-.9-2-1.31-3" transform="translate(-183.22 -167.19)"/><path class="cls-20" d="M611.29,562.63a112.24,112.24,0,0,1-14.21-4" transform="translate(-183.22 -167.19)"/><path class="cls-20" d="M616.15,563.6c-1.71-.31-3.32-.63-4.86-1" transform="translate(-183.22 -167.19)"/><path class="cls-20" d="M657.77,565l1.71-.12" transform="translate(-183.22 -167.19)"/><path class="cls-20" d="M616.15,563.6c3.55.63,7.46,1.17,11.7,1.56" transform="translate(-183.22 -167.19)"/><path class="cls-20" d="M657.77,565l-5.74.41a153.37,153.37,0,0,1-24.18-.26" transform="translate(-183.22 -167.19)"/><path class="cls-20" d="M676,333.23c6,1.69,14.7,2.86,22.94-.48" transform="translate(-183.22 -167.19)"/><path class="cls-20" d="M659.49,428c-11.74,2.6-33.41-1.44-40.76-5-.93-.45-1.9-.86-2.87-1.26" transform="translate(-183.22 -167.19)"/><path class="cls-20" d="M615.86,421.72a87.25,87.25,0,0,0-10.39-3.45" transform="translate(-183.22 -167.19)"/><path class="cls-20" d="M659.49,428a17.18,17.18,0,0,0,4-1.32c2-17.23,16.23-85.47-31.47-81.82-22.73,2.32-26.12,51.8-26.51,73.46" transform="translate(-183.22 -167.19)"/><path class="cls-20" d="M714.68,842.3c-2.43,15.49-7,27-1.86,37.65,16.07,1.62,23.63-1.23,36.67-.58s50,4.86,60,.65,8.8-19.12-10.91-23-40-13.25-45.19-20.06a11.24,11.24,0,0,1-1-1.53" transform="translate(-183.22 -167.19)"/><path class="cls-20" d="M752.49,835.42c-2-3.89-3.62-10.95-4.78-17.58" transform="translate(-183.22 -167.19)"/><path class="cls-20" d="M714.68,842.3a.69.69,0,0,1,0-.13,57.75,57.75,0,0,0-1.35-22.45" transform="translate(-183.22 -167.19)"/><path class="cls-20" d="M752.49,835.42c-13.15,9.5-29.58,8.31-37.81,6.88" transform="translate(-183.22 -167.19)"/><path class="cls-20" d="M670.41,616.6a13.25,13.25,0,0,1-2.79-6.34" transform="translate(-183.22 -167.19)"/><path class="cls-20" d="M615.86,421.72c.66,18.44,5.19,80.89,36.17,130.29,2.19,5.49,4.09,9.69,5.74,13" transform="translate(-183.22 -167.19)"/><path class="cls-20" d="M667.62,610.26c-1.86-9.48,1.78-23.32-.19-28.44-1.88-4.87-4.6-6.64-9.66-16.81" transform="translate(-183.22 -167.19)"/><path class="cls-20" d="M659.49,428c-1.39,16.47-9.69,27.7-2.5,45.05,8.45,20.37,13.92,31.8,19.38,65.09a165.06,165.06,0,0,0,6,24.72" transform="translate(-183.22 -167.19)"/><path class="cls-20" d="M667.62,610.26C662,613.9,653,620.4,656.15,623.53c3.6,3.6,19.71,2.15,25.85,1.45a5.1,5.1,0,0,0,3.7-2.31c3.34-5.18,11.75-19,10.55-25.45-1.07-5.7-8-16.5-13.86-34.41" transform="translate(-183.22 -167.19)"/><path class="cls-20" d="M631.8,334.82c-11.34,9.43-36.49,36.38-31,86.93" transform="translate(-183.22 -167.19)"/><path class="cls-20" d="M602.6,517.32c-2,18.32-4.36,34-5.52,41.29" transform="translate(-183.22 -167.19)"/><path class="cls-20" d="M602.6,517.32c2.72-25.26,4.7-55.52,1.73-75.62a153,153,0,0,1-3.55-19.95" transform="translate(-183.22 -167.19)"/><path class="cls-20" d="M700.27,335.79c10.29.89,32.9,1,33.41-14.83-1-32.63-2.25-53.28-4.49-65.78" transform="translate(-183.22 -167.19)"/><path class="cls-20" d="M631.8,334.82a23.25,23.25,0,0,1-10.28-8.72" transform="translate(-183.22 -167.19)"/><path class="cls-20" d="M677.11,326.51c.47-12.63-4.29-32.89-1.07-40.33,4.31-9.94,8.28-8.95,12.59-7.62s-15.57-6.63-2-16.56c8-4,6.63,6.29,6.63,6.29s1.32-10.93,11.59-6.29a34.76,34.76,0,0,0,5.3,2.31s.19-15.16,4.15-22.27" transform="translate(-183.22 -167.19)"/><path class="cls-20" d="M676,333.23a21.79,21.79,0,0,0,1.09-6.72" transform="translate(-183.22 -167.19)"/><path class="cls-20" d="M676,333.23a6.83,6.83,0,0,1-1.64,2.63c-21.52,4.72-34.64,2.68-42.58-1" transform="translate(-183.22 -167.19)"/><path class="cls-20" d="M714.31,242c1.34-2.41,3.11-3.9,5.46-3.56,4.44.63,7.36,5.22,9.42,16.7" transform="translate(-183.22 -167.19)"/><path class="cls-20" d="M729.19,255.18c1.75-25.63-20.17-45.08-56.46-36.91-39.75,8.94-39.09,63.27-39.42,82.48-.25,14.42-7.95,22.3-11.79,25.35" transform="translate(-183.22 -167.19)"/><path class="cls-20" d="M714.31,242c4,3.23,10.53,10.79,7.42,24.3a5.78,5.78,0,0,0,0,3c1.4,4.68,5.92,5.33,5.62,8.61-.23,2.57-2.94,4.15-4.51,4.86a.92.92,0,0,0-.35,1.41l2.37,3a.92.92,0,0,1-.07,1.22l-2.19,2.19a.92.92,0,0,0-.1,1.18l1,1.47a.93.93,0,0,1-.55,1.43c-1.39.32-3.36,1.06-3.58,2.76-.33,2.64,5.93,13.18-14.38,7.34a1,1,0,0,0-.39,0c-8.57,1-9.65,10.67-8.53,22.56" transform="translate(-183.22 -167.19)"/><path class="cls-20" d="M402.87,235.3s-4.17-3.88-.72-7.77c4.75-3.31,5.33,3.89,5.33,3.89" transform="translate(-183.22 -167.19)"/><path class="cls-20" d="M686.54,272.46c-3.46-3.6-.87-7.92,1.72-8.5s2,3.46,2,3.46" transform="translate(-183.22 -167.19)"/><path class="cls-20" d="M1100.15,234.29c-2.4-1.25-5.37-7.68-.09-9.22s6,4,6,4" transform="translate(-183.22 -167.19)"/><path class="cls-20" d="M1427.89,230.87s-6.34-6-9,2.5c-1.53,5,4.42,7.29,4.42,7.29" transform="translate(-183.22 -167.19)"/><path class="cls-20" d="M589.2,601c2.26-.73,5.77-1.09,11.21-.56,3.6-2.73,6.68-10.43,8.05-14.93" transform="translate(-183.22 -167.19)"/><path class="cls-20" d="M589.2,601c-4.9,1.6-4,5-4,5s11.79,1,16.28.57,15.73-7.41,20.07-12.43c1-1.11,2-5,3.14-10.4" transform="translate(-183.22 -167.19)"/><path class="cls-20" d="M598.13,591h0" transform="translate(-183.22 -167.19)"/><path class="cls-20" d="M598.13,591c-3,0-4.81-.36-5-2.33-.4-3.42,11.27-11.69,11.48-13.27s6.35-8.09,6.35-8.09l.38-4.68" transform="translate(-183.22 -167.19)"/><path class="cls-20" d="M598.13,591a11.79,11.79,0,0,0,6.52-2.13c.39-.32,2.2-2,3.81-3.37" transform="translate(-183.22 -167.19)"/><path class="cls-20" d="M608.46,585.5a11.69,11.69,0,0,1,2.57-1.88" transform="translate(-183.22 -167.19)"/><path class="cls-20" d="M598.13,591h0" transform="translate(-183.22 -167.19)"/><path class="cls-20" d="M600.78,421.75c-7.76,9.75-32.06,40.32-35.35,45-4,5.76-3.55,14-.38,20,3,5.61,23.52,20.7,37.55,30.59" transform="translate(-183.22 -167.19)"/></g></svg>