<svg xmlns="http://www.w3.org/2000/svg" viewBox="0 0 1176.15 746.78"><defs><style>.cls-1{fill:#1b1464;}.cls-2{fill:#666;}.cls-3{fill:#2e3192;}.cls-4{fill:#39b54a;}.cls-5{fill:#42210b;}.cls-21,.cls-6{fill:#e6e6e6;}.cls-20,.cls-7{fill:#754c24;}.cls-8{fill:#c1272d;}.cls-9{fill:#006837;}.cls-10{fill:#f2f2f2;}.cls-11{fill:#8c6239;}.cls-12{fill:#fcee21;}.cls-13{fill:#ccc;}.cls-14{fill:#c69c6d;}.cls-15{fill:#ed1c24;}.cls-16{fill:aqua;}.cls-17{fill:#f7931e;}.cls-18{fill:#fbb03b;}.cls-19{fill:none;}.cls-19,.cls-20,.cls-21{stroke:#000;stroke-miterlimit:10;}</style></defs><g id="lines"><path d="M1004.75,348.19a84.67,84.67,0,0,0,23.25-9.31c15.41-9.38,19.5-21.46,20.07-30.39-8.89-10.14-14.46-24.81-17-32.74-24.82-20.87-9.16-25.92-4-27,2-8.34,8.11-19.35,27.31-9.17,27.47,14.57,36.51-20.81,55.43,4.57.32.43.64.87,1,1.34-.33-.47-.65-.91-1-1.34-3.22,22.77-8.17,41.93-15.18,55.22-.44,8.51.6,27,16.3,37.08a44.36,44.36,0,0,0,18.73,6.29,71.36,71.36,0,0,0,9.77.52c17.72-.19,35.51,15.73,51.33,37,10.94-31-8.73-39.53-14.46-48.8-6-9.8,6.33-17.86-6.34-34.28s-37.06-12.09-35.9-36.67c24.19-60.29,9.6-67.2-3.84-83.71s-36.87-2.3-46.47-2.69-19.2-30.33-48.38-17.66C973.93,180.3,1000,211.4,997.74,237.7c-5.57,25-15.75,9-26.12,22.47-44.13,40.66-18.91,88.82-8.46,104.77,9.78-7.27,20.55-12.58,32.27-14.72C998.74,349.61,1001.83,348.93,1004.75,348.19Z" transform="translate(-393.3 -152.86)"/><path class="cls-1" d="M1139.43,343.3a71.36,71.36,0,0,1-9.77-.52c-20.2,35.8-41.37,47.53-60.62,47.28L1080.92,559,1091.39,501l77-.68.42-19.39,9.65,19.3,23.9-.21c24.19-12.35,33.64-24.09,37.12-30-9.13-21.63-27.09-60.67-48.72-89.73C1174.94,359,1157.15,343.11,1139.43,343.3Zm-58.17,85.83a6.91,6.91,0,1,1,6.91,6.91A6.91,6.91,0,0,1,1081.26,429.13Zm9.94,51.41a6.91,6.91,0,1,1,6.91-6.91A6.91,6.91,0,0,1,1091.2,480.54Z" transform="translate(-393.3 -152.86)"/><path class="cls-2" d="M1202.36,500.06l-23.9.21-10.07.09-77,.68L1080.92,559l-6.09,33.75-2,11.33-4,22-5.27,29.16-3.59,19.87,250.56-9.79,13.56-72.58,17.55-93.89-99.07.88-12.54.11Zm-39.83,88.12c8.38-1.09,43.6-7.08,46.81-30.54l4,.61a31.93,31.93,0,0,0,.4-7.31c-.4-7.54,10-7.41,7,8.43l3.33.51S1221.27,609.55,1162.53,588.18Z" transform="translate(-393.3 -152.86)"/><path class="cls-3" d="M1202.36,500.06l27.64-.25,8.66-7.39,7.33-6.27s-2.34-6.25-6.51-16.12C1236,476,1226.55,487.71,1202.36,500.06Z" transform="translate(-393.3 -152.86)"/><polygon class="cls-4" points="849.24 346.84 845.36 339.55 836.7 346.95 849.24 346.84"/><path class="cls-1" d="M982.18,478.09s1.47,33.28,4,70.07c10,6.62,20.11,13.16,28.88,18.63,23,5.19,33.4,4,36.86,6.91,2.06,1.72,6.8,10.23,12.62,19h10.33l6.09-33.75L1069,390.06c-29.4-.38-54.29-28.7-64.29-41.87-2.92.74-6,1.42-9.32,2-11.72,2.14-22.49,7.45-32.27,14.72-34,25.28-56.11,74.37-65.1,97.56,11,9.33,36.86,29.18,71.47,41.14C977.7,486.61,982.18,478.09,982.18,478.09Z" transform="translate(-393.3 -152.86)"/><path class="cls-4" d="M729.71,607.92l-3.61,1.21,3.09.2C729.36,608.84,729.54,608.37,729.71,607.92Z" transform="translate(-393.3 -152.86)"/><path class="cls-5" d="M729.19,609.33l-3.09-.2L524.51,596.31l-1,.63s-8.45,20.35,9.6,41.08c61.28,3.63,190.36,11,204.53,11.83C723.09,636,725.67,619.24,729.19,609.33Z" transform="translate(-393.3 -152.86)"/><path class="cls-6" d="M729.19,609.33c-3.52,9.91-6.1,26.64,8.44,40.52l1.29.08,96.38-33.79s-9.82-5.62-9.75-23.43a66.94,66.94,0,0,1,2.78-17.83l-98.62,33C729.54,608.37,729.36,608.84,729.19,609.33Z" transform="translate(-393.3 -152.86)"/><path class="cls-3" d="M966.06,510.92q1.83-3.87,3.47-7.28c-34.61-12-60.52-31.81-71.47-41.14-3,7.83-4.58,12.71-4.58,12.71s5,3.92,12.68,9.16c12.54,8.62,32.06,20.8,47.67,25.09A34.71,34.71,0,0,0,966.06,510.92Z" transform="translate(-393.3 -152.86)"/><path class="cls-1" d="M996.58,587.53c-2.92-.8-6-1.72-9.15-2.73l.28,7.91h11.37A26.09,26.09,0,0,1,996.58,587.53Z" transform="translate(-393.3 -152.86)"/><path class="cls-7" d="M999.08,592.71c3.56,5.73,9.22,10,16.47,13.88,3.35,1.77,7,3.45,11,5.13,15,6.34,10.94,9.79,17.28,12.1,6,2.19,11,9.1,25,2.23l4-22a127,127,0,0,1-8.28-11.33c-5.82-8.78-10.56-17.29-12.62-19-3.46-2.88-13.82-1.72-36.86-6.91-8.77-5.47-18.85-12-28.88-18.63-14.3-9.44-28.51-19-38.68-26-9-6.1-14.81-10.13-14.81-10.13s5.84,4,14.81,10.13l6.37-12.74c-15.61-4.29-35.13-16.47-47.67-25.09-7,14.51-23.35,52.32-8.07,61.11,17.25,9.93,58.23,29.36,89.34,39.32,3.16,1,6.23,1.93,9.15,2.73A26.09,26.09,0,0,0,999.08,592.71Z" transform="translate(-393.3 -152.86)"/><rect class="cls-7" x="79.12" y="585.58" width="912.38" height="160.7"/><path class="cls-7" d="M1068.3,319.4c10.87.23,19.56-7.13,26.33-20,7-13.29,12-32.45,15.18-55.22-18.92-25.38-28,10-55.43-4.57-19.2-10.18-25.34.83-27.31,9.17a35,35,0,0,0-.92,7.54,35,35,0,0,1,.92-7.54c-5.17,1-20.83,6.09,4,27-1.1-3.43-1.64-5.6-1.64-5.6s.54,2.17,1.64,5.6c2.55,7.93,8.12,22.6,17,32.74C1053.54,314.71,1060.25,319.23,1068.3,319.4ZM1024.14,255s-5.86,2.5,1.24,8.93C1018.28,257.48,1024.14,255,1024.14,255Z" transform="translate(-393.3 -152.86)"/><path class="cls-4" d="M1064.5,592.71a127,127,0,0,0,8.28,11.33l2-11.33Z" transform="translate(-393.3 -152.86)"/><path class="cls-6" d="M756.18,546.67A37.11,37.11,0,0,0,758.74,585c4.5-1.81,21.68-8.69,38.65-15.56,11.11-4.49,22.14-9,29.47-12-17.28-12.67-6.53-34.17-6.53-34.17s-45.7,18-64.13,23.42Z" transform="translate(-393.3 -152.86)"/><path class="cls-4" d="M793.45,490.57l-2.09.7,1.63,0C793.27,490.8,793.45,490.57,793.45,490.57Z" transform="translate(-393.3 -152.86)"/><path class="cls-7" d="M1110.93,336.49c-15.7-10.05-16.74-28.57-16.3-37.08-6.77,12.86-15.46,20.22-26.33,20-8-.17-14.76-4.69-20.23-10.91-.57,8.93-4.66,21-20.07,30.39C1042.81,353.49,1081.72,384,1110.93,336.49Z" transform="translate(-393.3 -152.86)"/><path class="cls-8" d="M1213.35,558.25l-4-.61c-3.21,23.46-38.43,29.45-46.81,30.54,58.74,21.37,61.57-28.3,61.57-28.3l-3.33-.51Z" transform="translate(-393.3 -152.86)"/><path class="cls-9" d="M1213.75,550.94a31.93,31.93,0,0,1-.4,7.31l7.42,1.12C1223.78,543.53,1213.35,543.4,1213.75,550.94Z" transform="translate(-393.3 -152.86)"/><polygon class="cls-2" points="609.59 455.03 607.32 472.68 666.64 522.22 670.23 502.34 609.59 455.03"/><path class="cls-2" d="M1068.8,626.05c-13.94,6.87-18.94,0-25-2.23-6.34-2.31-2.31-5.76-17.28-12.1-4-1.68-7.64-3.36-11-5.13l-12.63,1.1,0,.2,60.64,47.32Z" transform="translate(-393.3 -152.86)"/><path class="cls-3" d="M1129.66,342.78a44.36,44.36,0,0,1-18.73-6.29c-29.21,47.51-68.12,17-82.93,2.39a84.67,84.67,0,0,1-23.25,9.31c10,13.17,34.89,41.49,64.29,41.87C1088.29,390.31,1109.46,378.58,1129.66,342.78Z" transform="translate(-393.3 -152.86)"/><polygon class="cls-4" points="0.98 553.86 0.5 554.47 1.18 553.86 0.98 553.86"/><path d="M1004.17,663.3c-.94-4.7-3.1-4.51-3.1-4.51l-14.51,2.49a12.87,12.87,0,0,1,2.39,4.78Z" transform="translate(-393.3 -152.86)"/><path class="cls-10" d="M907.94,648.08a11.86,11.86,0,0,1,.18-1.76l-15.33-34.58-.24.24s-13.67-5.3-37.89,8.28c-10.46,5.1-16.92,6.56-20.89,6.57l-9.85,32.51c6.36-.76,17.7-4,37.29-14.24C898.53,625.56,907.94,648.08,907.94,648.08Z" transform="translate(-393.3 -152.86)"/><polygon class="cls-11" points="0.5 554.47 1.36 585.58 79.12 585.58 991.51 585.58 1082.52 585.58 1082.52 550.49 1.18 553.86 0.5 554.47"/><path class="cls-10" d="M939.27,633.18c22.63,4.54,37.53,1.14,44.07-1.1l-27-23.08a77.56,77.56,0,0,1-34.48-3c-16.7-5.46-27.41,4.08-29.1,5.72l15.33,34.58C908.94,641.37,913.55,628,939.27,633.18Z" transform="translate(-393.3 -152.86)"/><path class="cls-12" d="M911.23,679.51c.08,0,.14.12.22.17l77.5-14a12.87,12.87,0,0,0-2.39-4.78l-77.17,13.22-.67.51C910,675.16,912.46,676.72,911.23,679.51Z" transform="translate(-393.3 -152.86)"/><path class="cls-13" d="M983.34,632.08c-6.54,2.24-21.44,5.64-44.07,1.1-25.72-5.17-30.33,8.19-31.15,13.14a11.86,11.86,0,0,0-.18,1.76s-9.41-22.52-46.73-3c-19.59,10.26-30.93,13.48-37.29,14.24l-2.3,7.62L992,639.47Z" transform="translate(-393.3 -152.86)"/><path class="cls-11" d="M1324.06,592.71l-13.56,72.58-250.56,9.79-59.32-49.54,2.27-17.65,0-.2,12.63-1.1c-7.25-3.84-12.91-8.15-16.47-13.88H825.55c-.07,17.81,9.75,23.43,9.75,23.43l-96.38,33.79-1.29-.08C723.46,649,594.38,641.65,533.1,638c-18.05-20.73-9.6-41.08-9.6-41.08l1-.63,5.82-3.6H513.92c-1.77,15.26-4.66,40.46-8.09,71.81-25,15.36-45.31,1.15-45.31,1.15l-7.2-34-59,75.08h.2l1081.34-3.37V701L1367.53,592.71ZM823.92,659.34l9.85-32.51c4,0,10.43-1.47,20.89-6.57,24.22-13.58,37.89-8.28,37.89-8.28l.24-.24c1.69-1.64,12.4-11.18,29.1-5.72a77.56,77.56,0,0,0,34.48,3l27,23.08,8.64,7.39L821.62,667Zm165.51,11.88c-26.93,5-77.16,14.18-77.16,14.18l-.38,0-14.68-1.56L908.72,675a6.46,6.46,0,0,0-.65-.27,6.46,6.46,0,0,1,.65.27l.67-.51,77.17-13.22,14.51-2.49s2.16-.19,3.1,4.51a26.25,26.25,0,0,1,.42,5.11C1002.11,668.88,996.59,669.9,989.43,671.22Z" transform="translate(-393.3 -152.86)"/><path d="M989,666.06a15.47,15.47,0,0,1,.48,5.16c7.16-1.32,12.68-2.34,15.16-2.81a26.25,26.25,0,0,0-.42-5.11Z" transform="translate(-393.3 -152.86)"/><path class="cls-12" d="M989,665.63l-77.5,14c1.68,1.33,1.15,3.62.44,5.25l.38,0s50.23-9.21,77.16-14.18A15.47,15.47,0,0,0,989,665.63Z" transform="translate(-393.3 -152.86)"/><path class="cls-14" d="M911.45,680.12c-.08-.06-.14-.13-.22-.18,1.23-2.79-1.26-4.35-2.51-4.93l-11.51,8.79,14.68,1.56C912.6,683.73,913.13,681.44,911.45,680.12Z" transform="translate(-393.3 -152.86)"/><path class="cls-5" d="M726.1,609.13l3.61-1.21,98.62-33a1.41,1.41,0,0,0,.06-.22l-31-5.26c-17,6.87-34.15,13.75-38.65,15.56.56.8.92,1.22.92,1.22s-176.26,1.54-193.16,1.16a34.08,34.08,0,0,1-6-13.27l-30.16,18.64-5.82,3.6Z" transform="translate(-393.3 -152.86)"/><path class="cls-8" d="M515,583.49c.1-.87.19-1.65.28-2.36-.09.71-.18,1.49-.28,2.36.78-.5,1.2-1,1.18-1.53,0-.67-.8-1.3-2.2-1.85L511.45,585A15.48,15.48,0,0,0,515,583.49Z" transform="translate(-393.3 -152.86)"/><path class="cls-15" d="M505.83,664.52c3.43-31.35,6.32-56.55,8.09-71.81.43-3.66.79-6.76,1.08-9.22a15.48,15.48,0,0,1-3.55,1.5,83.63,83.63,0,0,1-13.52,2.62c-5.32.67-11.48,1.17-18.06,1.4-18.51.66-33.88-1-36.35-3.69l9.8,46.33,7.2,34S480.87,679.88,505.83,664.52Z" transform="translate(-393.3 -152.86)"/><path class="cls-5" d="M756.2,546.63c18.43-5.37,64.13-23.42,64.13-23.42L780.74,522c-16.13,4.77-38,11.15-38,11.15s-91.39,1.15-119,1.15a20,20,0,0,1-3.49-6.33l-56.74,19.37,192.69-.71Z" transform="translate(-393.3 -152.86)"/><path class="cls-5" d="M759.66,586.18s-.36-.42-.92-1.22l-1.15.46,1.15-.46a37.11,37.11,0,0,1-2.56-38.29l-192.69.71-.06,0s-6,12.66-2.94,26.67a34.08,34.08,0,0,0,6,13.27C583.4,587.72,759.66,586.18,759.66,586.18Z" transform="translate(-393.3 -152.86)"/><path class="cls-5" d="M742.76,533.19s-11.14-10-5.38-25l.11,0L622.7,504.74l-.13,0S616.5,517,620.23,528a20,20,0,0,0,3.49,6.33C651.37,534.34,742.76,533.19,742.76,533.19Z" transform="translate(-393.3 -152.86)"/><path class="cls-5" d="M791.36,491.27l-135.77,3.91-32.89,9.56,114.79,3.46C752.42,504.21,783.11,494,791.36,491.27Z" transform="translate(-393.3 -152.86)"/><path class="cls-6" d="M737.38,508.23c-5.76,15,5.38,25,5.38,25s21.85-6.38,38-11.15c8.2-2.43,14.93-4.44,16.55-5-13.83-9.78-6.33-22.81-4.3-25.84l-1.63,0c-8.25,2.75-38.94,12.94-53.87,16.93Z" transform="translate(-393.3 -152.86)"/><path class="cls-8" d="M479.87,589c6.58-.23,12.74-.73,18.06-1.4l5.36-9.55a184.54,184.54,0,0,0-23.83-.54c-19.21.69-34.86,3.58-36.2,6.6l.12.58.14.62C446,588.05,461.36,589.67,479.87,589Z" transform="translate(-393.3 -152.86)"/><path class="cls-4" d="M511.45,585l2.53-4.88c8.1-15.61,19.36-37.2,24.26-46.06-1.92-3.07-8.06-3.84-8.06-3.84l-26.89,47.85-5.36,9.55A83.63,83.63,0,0,0,511.45,585Z" transform="translate(-393.3 -152.86)"/><path class="cls-4" d="M443.26,584.12a1,1,0,0,0-.1.45,1.2,1.2,0,0,0,.36.75l-.14-.62Z" transform="translate(-393.3 -152.86)"/><path class="cls-2" d="M1490.28,152.87A79.17,79.17,0,1,0,1569.45,232,79.16,79.16,0,0,0,1490.28,152.87Zm.1,146.25a67,67,0,1,1,67-67A67,67,0,0,1,1490.38,299.12Z" transform="translate(-393.3 -152.86)"/><circle class="cls-6" cx="1097.08" cy="79.26" r="66.99"/><path class="cls-16" d="M1095.08,429.13a6.91,6.91,0,1,0-6.91,6.91A6.91,6.91,0,0,0,1095.08,429.13Z" transform="translate(-393.3 -152.86)"/><path class="cls-16" d="M1091.2,466.72a6.91,6.91,0,1,0,6.91,6.91A6.91,6.91,0,0,0,1091.2,466.72Z" transform="translate(-393.3 -152.86)"/><path class="cls-17" d="M587.26,254.92c-11.52-10.75-5.76-23.81-36.1-23.42-21.33.27-44.53-16-56.45-25.64V308.68H606.84V262.45C602.4,262.73,594.75,261.91,587.26,254.92Z" transform="translate(-393.3 -152.86)"/><path class="cls-5" d="M622.78,153.74H479.35V321.35H622.78ZM606.84,262.45v46.23H494.71V167.37H606.84Z" transform="translate(-393.3 -152.86)"/><path class="cls-16" d="M494.71,205.86c11.92,9.67,35.12,25.91,56.45,25.64,30.34-.39,24.58,12.67,36.1,23.42,7.49,7,15.14,7.81,19.58,7.53V167.37H494.71Zm72.58-10.08c5.72,0,10.37,4.3,10.37,9.6S573,215,567.29,215s-10.37-4.29-10.37-9.6S561.56,195.78,567.29,195.78Z" transform="translate(-393.3 -152.86)"/><ellipse class="cls-18" cx="173.99" cy="52.52" rx="10.37" ry="9.6"/></g><g id="lines_copy" data-name="lines copy"><circle class="cls-19" cx="1097.08" cy="79.26" r="66.99"/><path class="cls-19" d="M963.16,364.94c-34,25.28-56.11,74.37-65.1,97.56" transform="translate(-393.3 -152.86)"/><path class="cls-19" d="M1028,338.88a84.67,84.67,0,0,1-23.25,9.31" transform="translate(-393.3 -152.86)"/><path class="cls-19" d="M963.16,364.94c9.78-7.27,20.55-12.58,32.27-14.72,3.31-.61,6.4-1.29,9.32-2" transform="translate(-393.3 -152.86)"/><path class="cls-19" d="M1048.07,308.49c-.57,8.93-4.66,21-20.07,30.39" transform="translate(-393.3 -152.86)"/><path class="cls-19" d="M953.83,509.46c-15.61-4.29-35.13-16.47-47.67-25.09" transform="translate(-393.3 -152.86)"/><path class="cls-19" d="M969.53,503.64c8.17-17,12.65-25.55,12.65-25.55s1.47,33.28,4,70.07" transform="translate(-393.3 -152.86)"/><path class="cls-19" d="M953.83,509.46a34.71,34.71,0,0,0,12.23,1.46q1.83-3.87,3.47-7.28" transform="translate(-393.3 -152.86)"/><path class="cls-19" d="M898.06,462.5c-3,7.83-4.58,12.71-4.58,12.71s5,3.92,12.68,9.16" transform="translate(-393.3 -152.86)"/><path class="cls-19" d="M969.53,503.64c-34.61-12-60.52-31.81-71.47-41.14" transform="translate(-393.3 -152.86)"/><line class="cls-19" x1="845.36" y1="339.55" x2="836.7" y2="346.95"/><path class="cls-19" d="M1238.66,492.42l7.33-6.27s-2.34-6.25-6.51-16.12" transform="translate(-393.3 -152.86)"/><path class="cls-19" d="M1129.66,342.78a44.36,44.36,0,0,1-18.73-6.29" transform="translate(-393.3 -152.86)"/><path class="cls-19" d="M1129.66,342.78a71.36,71.36,0,0,0,9.77.52c17.72-.19,35.51,15.73,51.33,37" transform="translate(-393.3 -152.86)"/><path class="cls-19" d="M1239.48,470c-9.13-21.63-27.09-60.67-48.72-89.73" transform="translate(-393.3 -152.86)"/><path class="cls-19" d="M1094.63,299.41c-.44,8.51.6,27,16.3,37.08" transform="translate(-393.3 -152.86)"/><path class="cls-19" d="M1202.36,500.06c24.19-12.35,33.64-24.09,37.12-30" transform="translate(-393.3 -152.86)"/><polyline class="cls-19" points="775.09 347.5 775.51 328.1 785.16 347.41"/><path class="cls-19" d="M999.08,592.71c3.56,5.73,9.22,10,16.47,13.88" transform="translate(-393.3 -152.86)"/><path class="cls-19" d="M987.43,584.8c-31.11-10-72.09-29.39-89.34-39.32-15.28-8.79,1.06-46.6,8.07-61.11" transform="translate(-393.3 -152.86)"/><path class="cls-19" d="M987.43,584.8c3.16,1,6.23,1.93,9.15,2.73a26.09,26.09,0,0,0,2.5,5.18" transform="translate(-393.3 -152.86)"/><path class="cls-19" d="M1015.55,606.59c3.35,1.77,7,3.45,11,5.13,15,6.34,10.94,9.79,17.28,12.1,6,2.19,11,9.1,25,2.23" transform="translate(-393.3 -152.86)"/><line class="cls-19" x1="560.53" y1="356.59" x2="554.16" y2="369.34"/><path class="cls-19" d="M1064.5,592.71c-5.82-8.78-10.56-17.29-12.62-19-3.46-2.88-13.82-1.72-36.86-6.91-8.77-5.47-18.85-12-28.88-18.63" transform="translate(-393.3 -152.86)"/><path class="cls-19" d="M1064.5,592.71a127,127,0,0,0,8.28,11.33" transform="translate(-393.3 -152.86)"/><line class="cls-19" x1="594.13" y1="431.94" x2="594.41" y2="439.85"/><path class="cls-19" d="M986.14,548.16c-14.3-9.44-28.51-19-38.68-26" transform="translate(-393.3 -152.86)"/><path class="cls-19" d="M947.46,522.2c-9-6.1-14.81-10.13-14.81-10.13" transform="translate(-393.3 -152.86)"/><path class="cls-19" d="M1028,338.88c14.81,14.61,53.72,45.12,82.93-2.39" transform="translate(-393.3 -152.86)"/><path class="cls-19" d="M1069,390.06c-29.4-.38-54.29-28.7-64.29-41.87" transform="translate(-393.3 -152.86)"/><path class="cls-19" d="M1069,390.06c19.25.25,40.42-11.48,60.62-47.28" transform="translate(-393.3 -152.86)"/><line class="cls-19" x1="675.74" y1="237.2" x2="687.62" y2="406.1"/><path class="cls-19" d="M1081.26,429.13a6.91,6.91,0,1,0,6.91-6.91A6.91,6.91,0,0,0,1081.26,429.13Z" transform="translate(-393.3 -152.86)"/><path class="cls-19" d="M1091.2,480.54a6.91,6.91,0,1,0-6.91-6.91A6.91,6.91,0,0,0,1091.2,480.54Z" transform="translate(-393.3 -152.86)"/><line class="cls-19" x1="681.53" y1="439.85" x2="687.62" y2="406.1"/><line class="cls-19" x1="675.5" y1="473.19" x2="679.48" y2="451.18"/><line class="cls-19" x1="679.48" y1="451.18" x2="681.53" y2="439.85"/><line class="cls-19" x1="687.62" y1="406.1" x2="698.09" y2="348.18"/><line class="cls-19" x1="670.23" y1="502.34" x2="675.5" y2="473.19"/><line class="cls-19" x1="849.24" y1="346.84" x2="836.7" y2="346.95"/><line class="cls-19" x1="670.23" y1="502.34" x2="666.64" y2="522.22"/><polyline class="cls-19" points="930.76 439.85 917.2 512.42 666.64 522.22"/><line class="cls-19" x1="775.09" y1="347.5" x2="785.16" y2="347.41"/><line class="cls-19" x1="775.09" y1="347.5" x2="698.09" y2="348.18"/><line class="cls-19" x1="836.7" y1="346.95" x2="809.06" y2="347.19"/><line class="cls-19" x1="809.06" y1="347.19" x2="785.16" y2="347.41"/><polyline class="cls-19" points="930.76 439.85 948.31 345.96 849.24 346.84"/><polyline class="cls-19" points="622.25 453.73 609.62 454.82 609.59 455.03"/><polyline class="cls-19" points="609.59 455.03 607.32 472.68 666.64 522.22"/><line class="cls-19" x1="670.23" y1="502.34" x2="609.59" y2="455.03"/><line class="cls-20" x1="849.24" y1="346.84" x2="845.36" y2="339.55"/><line class="cls-19" x1="820.05" y1="405.39" x2="827.47" y2="406.51"/><line class="cls-19" x1="820.05" y1="405.39" x2="816.04" y2="404.78"/><path class="cls-19" d="M1162.53,588.18c58.74,21.37,61.57-28.3,61.57-28.3l-3.33-.51" transform="translate(-393.3 -152.86)"/><path class="cls-19" d="M524.51,596.31l-1,.63s-8.45,20.35,9.6,41.08c61.28,3.63,190.36,11,204.53,11.83" transform="translate(-393.3 -152.86)"/><path class="cls-19" d="M828.33,574.88a1.41,1.41,0,0,0,.06-.22l-31-5.26" transform="translate(-393.3 -152.86)"/><path class="cls-19" d="M825.55,592.71c-.07,17.81,9.75,23.43,9.75,23.43l-96.38,33.79-1.29-.08" transform="translate(-393.3 -152.86)"/><line class="cls-19" x1="167.19" y1="421.2" x2="137.03" y2="439.85"/><line class="cls-19" x1="137.03" y1="439.85" x2="131.2" y2="443.45"/><path class="cls-19" d="M825.55,592.71a66.94,66.94,0,0,1,2.78-17.83" transform="translate(-393.3 -152.86)"/><line class="cls-19" x1="131.2" y1="443.45" x2="332.8" y2="456.27"/><line class="cls-19" x1="335.89" y1="456.46" x2="332.8" y2="456.27"/><line class="cls-19" x1="435.03" y1="422.01" x2="436.82" y2="421.42"/><line class="cls-19" x1="435.03" y1="422.01" x2="336.41" y2="455.06"/><line class="cls-19" x1="332.8" y1="456.27" x2="336.41" y2="455.06"/><path class="cls-19" d="M729.19,609.33c-3.52,9.91-6.1,26.64,8.44,40.52" transform="translate(-393.3 -152.86)"/><path class="cls-19" d="M729.19,609.33c.17-.49.35-1,.52-1.41" transform="translate(-393.3 -152.86)"/><path class="cls-19" d="M797.39,569.4c-17,6.87-34.15,13.75-38.65,15.56" transform="translate(-393.3 -152.86)"/><path class="cls-19" d="M560.49,574.07c-3-14,2.94-26.67,2.94-26.67l.06,0" transform="translate(-393.3 -152.86)"/><path class="cls-19" d="M757.59,585.42l1.15-.46" transform="translate(-393.3 -152.86)"/><path class="cls-19" d="M756.18,546.67A37.11,37.11,0,0,0,758.74,585" transform="translate(-393.3 -152.86)"/><line class="cls-19" x1="226.93" y1="375.15" x2="170.19" y2="394.52"/><path class="cls-19" d="M560.49,574.07a34.08,34.08,0,0,0,6,13.27c16.9.38,193.16-1.16,193.16-1.16s-.36-.42-.92-1.22" transform="translate(-393.3 -152.86)"/><path class="cls-19" d="M797.39,569.4c11.11-4.49,22.14-9,29.47-12-17.28-12.67-6.53-34.17-6.53-34.17" transform="translate(-393.3 -152.86)"/><path class="cls-19" d="M756.18,546.67l0,0c18.43-5.37,64.13-23.42,64.13-23.42" transform="translate(-393.3 -152.86)"/><line class="cls-19" x1="362.88" y1="393.8" x2="170.19" y2="394.52"/><path class="cls-19" d="M793,491.22c.28-.42.46-.65.46-.65l-2.09.7" transform="translate(-393.3 -152.86)"/><polyline class="cls-19" points="229.4 351.87 262.29 342.31 398.06 338.4"/><path class="cls-19" d="M622.7,504.74l-.13,0S616.5,517,620.23,528" transform="translate(-393.3 -152.86)"/><path class="cls-21" d="M737.49,508.2c14.93-4,45.62-14.18,53.87-16.93" transform="translate(-393.3 -152.86)"/><line class="cls-19" x1="398.06" y1="338.4" x2="399.69" y2="338.36"/><path class="cls-19" d="M620.23,528a20,20,0,0,0,3.49,6.33c27.65,0,119-1.15,119-1.15" transform="translate(-393.3 -152.86)"/><path class="cls-19" d="M737.49,508.2l-.11,0c-5.76,15,5.38,25,5.38,25" transform="translate(-393.3 -152.86)"/><path class="cls-19" d="M989.43,671.22c-26.93,5-77.16,14.18-77.16,14.18l-.38,0" transform="translate(-393.3 -152.86)"/><polyline class="cls-19" points="515.42 522.15 516.09 521.64 593.26 508.42"/><polyline class="cls-19" points="515.42 522.15 503.91 530.93 518.59 532.5"/><path class="cls-19" d="M986.56,661.28l14.51-2.49s2.16-.19,3.1,4.51" transform="translate(-393.3 -152.86)"/><path class="cls-19" d="M989.43,671.22c7.16-1.32,12.68-2.34,15.16-2.81a26.25,26.25,0,0,0-.42-5.11" transform="translate(-393.3 -152.86)"/><path class="cls-19" d="M989,666.06a15.47,15.47,0,0,1,.48,5.16" transform="translate(-393.3 -152.86)"/><path class="cls-19" d="M989,666.06a12.87,12.87,0,0,0-2.39-4.78" transform="translate(-393.3 -152.86)"/><path class="cls-19" d="M911.45,680.12c1.68,1.32,1.15,3.61.44,5.24" transform="translate(-393.3 -152.86)"/><path class="cls-19" d="M911.45,680.12c-.08-.06-.14-.13-.22-.18,1.23-2.79-1.26-4.35-2.51-4.93" transform="translate(-393.3 -152.86)"/><path class="cls-19" d="M908.07,674.74a6.46,6.46,0,0,1,.65.27" transform="translate(-393.3 -152.86)"/><line class="cls-19" x1="595.65" y1="513.19" x2="610.87" y2="510.43"/><line class="cls-19" x1="595.65" y1="513.19" x2="518.15" y2="527.25"/><line class="cls-19" x1="60.02" y1="478.79" x2="0.98" y2="553.86"/><line class="cls-19" x1="0.98" y1="553.86" x2="0.5" y2="554.47"/><line class="cls-19" x1="137.03" y1="439.85" x2="120.62" y2="439.85"/><line class="cls-19" x1="594.41" y1="439.85" x2="432.25" y2="439.85"/><line class="cls-19" x1="594.41" y1="439.85" x2="605.78" y2="439.85"/><line class="cls-19" x1="671.2" y1="439.85" x2="681.53" y2="439.85"/><polyline class="cls-19" points="1082.52 550.49 1082.52 585.58 991.51 585.58"/><line class="cls-19" x1="0.5" y1="554.47" x2="1.18" y2="553.86"/><polyline class="cls-19" points="930.76 439.85 974.23 439.85 1082.52 548.14 1082.52 550.49"/><line class="cls-19" x1="79.12" y1="585.58" x2="991.51" y2="585.58"/><polyline class="cls-19" points="79.12 585.58 1.36 585.58 0.5 554.47"/><path class="cls-19" d="M1162.53,588.18c8.38-1.09,43.6-7.08,46.81-30.54" transform="translate(-393.3 -152.86)"/><path class="cls-19" d="M1220.77,559.37c3-15.84-7.42-16-7-8.43a31.93,31.93,0,0,1-.4,7.31" transform="translate(-393.3 -152.86)"/><line class="cls-19" x1="0.98" y1="553.86" x2="1.18" y2="553.86"/><line class="cls-19" x1="1082.52" y1="550.49" x2="1.18" y2="553.86"/><line class="cls-19" x1="79.12" y1="585.58" x2="79.12" y2="746.28"/><line class="cls-19" x1="991.51" y1="746.28" x2="991.51" y2="585.58"/><path class="cls-19" d="M963.16,364.94c-10.45-15.95-35.67-64.11,8.46-104.77,10.37-13.44,20.55,2.49,26.12-22.47,2.3-26.3-23.81-57.4,37.63-81.21,29.18-12.67,38.78,17.28,48.38,17.66s33-13.82,46.47,2.69,28,23.42,3.84,83.71c-1.16,24.58,23.23,20.26,35.9,36.67s.29,24.48,6.34,34.28c5.73,9.27,25.4,17.79,14.46,48.8" transform="translate(-393.3 -152.86)"/><path class="cls-19" d="M1031.06,275.75c-24.82-20.87-9.16-25.92-4-27" transform="translate(-393.3 -152.86)"/><path class="cls-19" d="M1048.07,308.49c-8.89-10.14-14.46-24.81-17-32.74" transform="translate(-393.3 -152.86)"/><path class="cls-19" d="M1094.63,299.41c-6.77,12.86-15.46,20.22-26.33,20-8-.17-14.76-4.69-20.23-10.91" transform="translate(-393.3 -152.86)"/><path class="cls-19" d="M1094.63,299.41c7-13.29,12-32.45,15.18-55.22" transform="translate(-393.3 -152.86)"/><path class="cls-19" d="M1029.42,270.15s.54,2.17,1.64,5.6" transform="translate(-393.3 -152.86)"/><path class="cls-19" d="M1027.07,248.79a35,35,0,0,0-.92,7.54" transform="translate(-393.3 -152.86)"/><path class="cls-19" d="M1027.07,248.79c2-8.34,8.11-19.35,27.31-9.17,27.47,14.57,36.51-20.81,55.43,4.57" transform="translate(-393.3 -152.86)"/><path class="cls-19" d="M1109.81,244.19c.32.43.64.87,1,1.34" transform="translate(-393.3 -152.86)"/><line class="cls-19" x1="229.4" y1="351.87" x2="344.19" y2="355.34"/><rect class="cls-19" x="86.05" y="0.87" width="143.42" height="167.62"/><polyline class="cls-19" points="213.54 109.59 213.54 155.82 101.41 155.82 101.41 53"/><polyline class="cls-19" points="213.54 109.59 213.54 14.5 101.41 14.5 101.41 53"/><path class="cls-19" d="M606.84,262.45c-4.44.28-12.09-.54-19.58-7.53-11.52-10.75-5.76-23.81-36.1-23.42-21.33.27-44.53-16-56.45-25.64" transform="translate(-393.3 -152.86)"/><ellipse class="cls-19" cx="173.99" cy="52.52" rx="10.37" ry="9.6"/><path class="cls-19" d="M833.77,626.83c4,0,10.43-1.47,20.89-6.57,24.22-13.58,37.89-8.28,37.89-8.28l.24-.24" transform="translate(-393.3 -152.86)"/><line class="cls-19" x1="430.62" y1="506.47" x2="440.47" y2="473.96"/><path class="cls-19" d="M892.79,611.74c1.69-1.64,12.4-11.18,29.1-5.72a77.56,77.56,0,0,0,34.48,3l27,23.08" transform="translate(-393.3 -152.86)"/><polyline class="cls-19" points="430.62 506.48 428.32 514.1 598.68 486.61 590.04 479.22"/><line class="cls-19" x1="514.82" y1="493.45" x2="499.49" y2="458.88"/><path class="cls-19" d="M908.12,646.32c.82-5,5.43-18.31,31.15-13.14,22.63,4.54,37.53,1.14,44.07-1.1" transform="translate(-393.3 -152.86)"/><path class="cls-19" d="M908.12,646.32a11.86,11.86,0,0,0-.18,1.76s-9.41-22.52-46.73-3c-19.59,10.26-30.93,13.48-37.29,14.24" transform="translate(-393.3 -152.86)"/><path class="cls-19" d="M515,583.49c.1-.87.19-1.65.28-2.36" transform="translate(-393.3 -152.86)"/><line class="cls-19" x1="50.22" y1="432.46" x2="50.08" y2="431.83"/><path class="cls-19" d="M513.92,592.71c-1.77,15.26-4.66,40.46-8.09,71.81-25,15.36-45.31,1.15-45.31,1.15l-7.2-34" transform="translate(-393.3 -152.86)"/><path class="cls-19" d="M513.92,592.71c.43-3.66.79-6.76,1.08-9.22" transform="translate(-393.3 -152.86)"/><line class="cls-19" x1="60.02" y1="478.79" x2="50.22" y2="432.46"/><line class="cls-19" x1="50.08" y1="431.83" x2="49.96" y2="431.26"/><line class="cls-19" x1="49.83" y1="430.65" x2="49.96" y2="431.26"/><path class="cls-19" d="M443.26,584.12a1,1,0,0,0-.1.45,1.2,1.2,0,0,0,.36.75" transform="translate(-393.3 -152.86)"/><path class="cls-19" d="M514,580.11c1.4.55,2.17,1.18,2.2,1.85,0,.52-.4,1-1.18,1.53" transform="translate(-393.3 -152.86)"/><path class="cls-19" d="M497.93,587.61c-5.32.67-11.48,1.17-18.06,1.4-18.51.66-33.88-1-36.35-3.69" transform="translate(-393.3 -152.86)"/><path class="cls-19" d="M497.93,587.61A83.63,83.63,0,0,0,511.45,585" transform="translate(-393.3 -152.86)"/><path class="cls-19" d="M511.45,585a15.48,15.48,0,0,0,3.55-1.5" transform="translate(-393.3 -152.86)"/><path class="cls-19" d="M503.29,578.06a184.54,184.54,0,0,0-23.83-.54c-19.21.69-34.86,3.58-36.2,6.6" transform="translate(-393.3 -152.86)"/><path class="cls-19" d="M511.45,585l2.53-4.88" transform="translate(-393.3 -152.86)"/><path class="cls-19" d="M514,580.11c8.1-15.61,19.36-37.2,24.26-46.06-1.92-3.07-8.06-3.84-8.06-3.84l-26.89,47.85" transform="translate(-393.3 -152.86)"/><line class="cls-19" x1="109.99" y1="425.2" x2="104.63" y2="434.75"/><line class="cls-19" x1="991.51" y1="746.28" x2="79.12" y2="746.28"/><path class="cls-19" d="M1024.14,255s-5.86,2.5,1.24,8.93" transform="translate(-393.3 -152.86)"/><path class="cls-19" d="M780.74,522c8.2-2.43,14.93-4.44,16.55-5-13.83-9.78-6.33-22.81-4.3-25.84" transform="translate(-393.3 -152.86)"/><path class="cls-19" d="M742.76,533.19s21.85-6.38,38-11.15" transform="translate(-393.3 -152.86)"/><line class="cls-19" x1="427.03" y1="370.34" x2="387.44" y2="369.17"/></g></svg>