<?xml version="1.0" encoding="UTF-8"?>
<svg id="Illustration" xmlns="http://www.w3.org/2000/svg" viewBox="0 0 2207.56 1611.44">
  <defs>
    <style>
      .cls-1 {
        stroke-width: 1.5px;
      }

      .cls-1, .cls-2 {
        stroke: #031a6b;
      }

      .cls-1, .cls-2, .cls-3 {
        fill: none;
        stroke-miterlimit: 10;
      }

      .cls-2 {
        stroke-width: 3px;
      }

      .cls-3 {
        stroke: #ff00c6;
        stroke-width: 2px;
      }

      .cls-4 {
        fill: #fff;
      }

      .cls-4, .cls-5, .cls-6, .cls-7, .cls-8, .cls-9 {
        stroke-width: 0px;
      }

      .cls-5 {
        fill: #e2eaff;
      }

      .cls-6 {
        fill: #ff00c6;
      }

      .cls-7 {
        fill: #e6eafc;
      }

      .cls-8 {
        fill: #00c0ff;
      }

      .cls-9 {
        fill: #031a6b;
      }
    </style>
  </defs>
  <path class="cls-7" d="M1704.91,521.7h325.58c-8.91-9.6-21.03-16.17-34.66-18,.06-.89.1-1.79.1-2.7,0-22.56-18.29-40.85-40.85-40.85-1.02,0-2.04.05-3.04.12-10.78-30.85-40.12-52.99-74.65-52.99-29.58,0-55.34,16.25-68.91,40.3-5.3-1.63-10.92-2.51-16.75-2.51-31.47,0-56.98,25.51-56.98,56.98,0,.86.03,1.71.06,2.56-11.56,2.82-21.86,8.85-29.91,17.08Z"/>
  <path class="cls-7" d="M1045.14,669.76h381.47c.02-.62.05-1.23.05-1.85,0-34.65-22.92-63.93-54.42-73.55-9.22-46.11-49.92-80.86-98.75-80.86-37.67,0-70.49,20.7-87.77,51.33-6.75-2.07-13.91-3.19-21.34-3.19-40.08,0-72.57,32.49-72.57,72.57,0,1.1.03,2.18.08,3.27-19.29,4.7-35.82,16.41-46.76,32.28Z"/>
  <circle class="cls-4" cx="1617.54" cy="588.44" r="292.38" transform="translate(57.68 1316.13) rotate(-45)"/>
  <path class="cls-6" d="M1860.24,690.71c-13.41,0-26.91-4.71-36.52-13.54-15.1-13.88-19.72-37.1-10.99-55.22,1.88-3.89,4.33-7.65,6.71-11.29,4.92-7.54,9.58-14.65,9.6-22.95.04-14.51-14.9-25.51-29.68-28.87-9.65-2.2-19.82-2.19-29.67-2.17-5.7,0-11.61.01-17.39-.41-54.96-3.98-103.93-50.54-111.46-106.01-6.89-50.72,18.98-106.18,65.91-141.3.44-.33,1.07-.24,1.4.2.33.44.24,1.07-.2,1.4-46.36,34.69-71.92,89.42-65.13,139.43,7.42,54.57,55.57,100.37,109.63,104.29,5.71.41,11.57.41,17.24.4,9.95-.01,20.25-.02,30.12,2.22,15.56,3.54,31.28,15.27,31.24,30.83-.03,8.89-5.06,16.59-9.93,24.04-2.34,3.58-4.76,7.29-6.58,11.06-8.36,17.34-3.93,39.58,10.54,52.88,14.5,13.33,38.22,16.91,56.4,8.52.5-.23,1.1-.01,1.33.49.23.5.01,1.1-.49,1.33-6.84,3.16-14.45,4.68-22.07,4.68Z"/>
  <path class="cls-3" d="M1325.15,593.2s97.47-49.94,137.35,0c0,0,13.21,12.75,4.92,44.74,0,0-13.82,47.97,22.14,52.77,0,0,19.64,1.97,48.2-23.1,0,0,85.8-65.89,140-16.25s-43.53,176-139.91,218.48"/>
  <path class="cls-3" d="M1366.02,437.19s5.98,56.67,64.91,46.27c0,0,45.58-6.84,41.35-58.85,0,0-9.7-49.49,32.89-58.06,43.49-8.75,49.95-42.42,28.9-58.35"/>
  <path class="cls-9" d="M1617.54,881.83s0,0,0,0c-78.37,0-152.04-30.52-207.45-85.93-55.41-55.41-85.93-129.09-85.93-207.45,0-78.37,30.52-152.04,85.93-207.45,55.41-55.41,129.09-85.93,207.45-85.93s152.04,30.52,207.45,85.93c55.41,55.41,85.93,129.09,85.93,207.45s-30.52,152.04-85.93,207.45c-55.41,55.41-129.09,85.93-207.45,85.93ZM1617.54,297.06c-160.67,0-291.38,130.71-291.38,291.38,0,77.83,30.31,151,85.34,206.04,55.04,55.03,128.21,85.34,206.04,85.34,77.83,0,151-30.31,206.04-85.34s85.34-128.21,85.34-206.04c0-160.67-130.71-291.38-291.38-291.38Z"/>
  <path class="cls-4" d="M1541.88,849.56l34.67-68.94s3.39-8.11,9.76-5.01c0,0,3.11,3.22-.61,10.84l-5.23,12.43s9.84-4.42,11.02,7.41c0,0,7.08-3.81,8.01,5.95,0,0,7.45-2.78,6.98,8.14s-5.89,17.44-12.41,19.92l-15.54,34.95s-27.11-7.1-36.65-25.68Z"/>
  <path class="cls-4" d="M1375.93,703.37l-3.7,21.03-2.07,14.44s-10.7-.03-7.11,10.72c0,0,4.87,15.44,15.08,7.74l2.88,27.01-19.47,5.46s18.78,16.73,50.6,12.72c0,0,28.44-5.91,33.71-15.82l-21.94-1.98-5.67-15.31,9.97-16.38-6.01-48.25s-23-16.54-46.27-1.37Z"/>
  <g>
    <g>
      <g>
        <path class="cls-4" d="M1467.26,100.13l-90.36,178.87,113.88-40.25,9.48-122.87c1.02-13.26-11.93-23.2-24.48-18.76l-8.53,3.02Z"/>
        <path class="cls-9" d="M1376.9,280.01c-.28,0-.56-.12-.75-.34-.27-.31-.33-.75-.14-1.11l90.36-178.87c.12-.23.32-.41.56-.49l8.53-3.02c6.21-2.2,13.04-1.12,18.27,2.89,5.23,4.01,8.05,10.32,7.54,16.89l-9.48,122.87c-.03.39-.29.73-.66.87l-113.88,40.25c-.11.04-.22.06-.33.06ZM1467.97,100.94l-89.05,176.29,110.92-39.21,9.43-122.22c.45-5.89-2.07-11.55-6.76-15.15-4.69-3.59-10.81-4.56-16.38-2.6l-8.16,2.88Z"/>
      </g>
      <g>
        <path class="cls-4" d="M1171.88,253.3l58.08,57.39c28.7,28.36,71.09,37.83,109.13,24.39l335.97-118.75c9.77-3.45,11.15-16.7,2.3-22.09l-17.56-10.7c-30.08-18.32-66.8-22.15-100-10.41l-301.85,106.69-43.18-28.3c-8.35-5.47-18.78-6.73-28.2-3.41l-14.68,5.19Z"/>
        <path class="cls-9" d="M1304,342.1c-7.76,0-15.54-.85-23.2-2.56-19.51-4.36-37.33-14.09-51.55-28.14l-58.08-57.39c-.25-.24-.35-.59-.27-.93.08-.34.32-.61.64-.72l14.68-5.19c9.65-3.41,20.52-2.1,29.08,3.51l42.77,28.03,301.38-106.53c33.63-11.89,70.39-8.06,100.86,10.5l17.56,10.7c4.43,2.7,6.84,7.57,6.31,12.73-.54,5.16-3.91,9.43-8.79,11.16l-335.97,118.75c-11.44,4.05-23.42,6.08-35.42,6.08ZM1173.71,253.71l56.94,56.27c28.24,27.9,70.67,37.38,108.1,24.15l335.97-118.75c4.15-1.47,7.01-5.1,7.47-9.48.46-4.38-1.6-8.52-5.36-10.81l-17.56-10.7c-29.95-18.24-66.09-22.01-99.15-10.32l-301.85,106.69c-.29.11-.62.07-.88-.11l-43.18-28.3c-8.04-5.27-18.25-6.5-27.32-3.3l-13.18,4.66Z"/>
      </g>
      <path class="cls-4" d="M1307.6,416.2l19.22-6.79c19.83-7.01,37.42-19.23,50.91-35.37l113.06-135.29-113.88,40.25-69.3,137.2Z"/>
      <path class="cls-4" d="M1490.79,238.75l-113.06,135.29c-13.49,16.14-31.07,28.36-50.91,35.37l-19.22,6.79,69.3-137.2,113.88-40.25Z"/>
      <path class="cls-9" d="M1585.89,201.79c-11.15,0-22.24-3.23-31.69-9.51l-7.21-4.79c-.46-.31-.59-.93-.28-1.39.3-.46.93-.59,1.39-.28l7.21,4.79c14.36,9.53,32.64,11.79,48.9,6.05l39.53-13.97c.52-.18,1.09.09,1.28.61.18.52-.09,1.09-.61,1.28l-39.53,13.97c-6.15,2.17-12.57,3.24-18.98,3.24Z"/>
      <path class="cls-9" d="M1307.6,417.2c-.28,0-.56-.12-.75-.34-.27-.31-.33-.75-.14-1.11l69.3-137.2c.25-.49.85-.69,1.34-.44.49.25.69.85.44,1.34l-68.18,134.97,16.87-5.96c19.65-6.95,37.11-19.07,50.47-35.07l113.06-135.29c.35-.42.98-.48,1.41-.13.42.35.48.99.13,1.41l-113.06,135.29c-13.6,16.27-31.35,28.6-51.34,35.67l-19.22,6.79c-.11.04-.22.06-.33.06Z"/>
    </g>
    <path class="cls-6" d="M1992.99,582.73c-.53,0-.98-.42-1-.96-.15-3.99-.35-8.01-.58-11.96-.03-.55.39-1.02.94-1.06.54-.03,1.02.39,1.06.94.23,3.96.43,8,.58,12.01.02.55-.41,1.02-.96,1.04-.01,0-.03,0-.04,0ZM1991.58,558.78c-.52,0-.95-.4-1-.92-.32-3.98-.68-7.99-1.09-11.92-.06-.55.34-1.04.89-1.1.56-.04,1.04.34,1.1.89.4,3.95.77,7.97,1.09,11.97.04.55-.37,1.03-.92,1.08-.03,0-.05,0-.08,0ZM1989.13,534.92c-.5,0-.93-.37-.99-.88-.5-3.96-1.04-7.95-1.63-11.85-.08-.55.29-1.06.84-1.14.54-.08,1.05.29,1.14.84.59,3.92,1.14,7.93,1.64,11.9.07.55-.32,1.05-.87,1.12-.04,0-.08,0-.13,0ZM1985.58,511.21c-.48,0-.9-.34-.98-.83-.69-3.94-1.43-7.9-2.21-11.76-.11-.54.24-1.07.78-1.18.54-.11,1.07.24,1.18.78.78,3.88,1.53,7.85,2.22,11.81.1.54-.27,1.06-.81,1.16-.06,0-.12.01-.17.01ZM1980.84,487.7c-.46,0-.87-.31-.97-.78-.89-3.89-1.84-7.8-2.83-11.62-.14-.54.18-1.08.72-1.22.54-.14,1.08.18,1.22.72.99,3.84,1.95,7.77,2.84,11.68.12.54-.21,1.08-.75,1.2-.07.02-.15.03-.22.03ZM1974.85,464.49c-.43,0-.83-.29-.96-.72-1.11-3.83-2.28-7.68-3.48-11.44-.17-.53.12-1.09.65-1.26.53-.17,1.09.12,1.26.65,1.21,3.78,2.39,7.64,3.5,11.5.15.53-.15,1.08-.68,1.24-.09.03-.19.04-.28.04ZM1967.53,441.66c-.41,0-.8-.26-.94-.67-1.33-3.76-2.73-7.53-4.16-11.21-.2-.51.05-1.09.57-1.29.51-.2,1.09.05,1.29.57,1.44,3.7,2.85,7.49,4.18,11.27.18.52-.09,1.09-.61,1.28-.11.04-.22.06-.33.06ZM1958.84,419.31c-.39,0-.76-.23-.92-.61-1.56-3.66-3.19-7.33-4.86-10.92-.23-.5-.02-1.1.49-1.33.5-.23,1.1-.02,1.33.49,1.68,3.61,3.32,7.3,4.89,10.98.22.51-.02,1.1-.53,1.31-.13.05-.26.08-.39.08ZM1948.73,397.58c-.37,0-.72-.2-.89-.55-1.79-3.54-3.67-7.1-5.57-10.57-.27-.48-.09-1.09.4-1.36.49-.26,1.09-.09,1.36.4,1.92,3.49,3.81,7.07,5.61,10.63.25.49.05,1.09-.44,1.34-.14.07-.3.11-.45.11ZM1937.19,376.56c-.34,0-.67-.17-.86-.49-2.03-3.41-4.15-6.83-6.29-10.17-.3-.46-.16-1.08.3-1.38.46-.3,1.08-.16,1.38.3,2.16,3.35,4.29,6.79,6.33,10.23.28.47.13,1.09-.35,1.37-.16.1-.34.14-.51.14ZM1924.22,356.4c-.32,0-.63-.15-.82-.43-2.26-3.26-4.61-6.52-6.99-9.7-.33-.44-.24-1.07.2-1.4.44-.33,1.07-.24,1.4.2,2.39,3.2,4.76,6.48,7.03,9.76.31.45.2,1.08-.25,1.39-.17.12-.37.18-.57.18ZM1909.85,337.2c-.29,0-.58-.13-.78-.37-2.5-3.1-5.08-6.19-7.67-9.17-.36-.42-.32-1.05.1-1.41.42-.36,1.05-.32,1.41.1,2.61,3,5.2,6.11,7.72,9.23.35.43.28,1.06-.15,1.41-.19.15-.41.22-.63.22ZM1894.13,319.08c-.27,0-.53-.11-.73-.32-2.71-2.9-5.5-5.79-8.31-8.6-.39-.39-.39-1.02,0-1.41.39-.39,1.02-.39,1.41,0,2.83,2.82,5.64,5.73,8.36,8.65.38.4.35,1.04-.05,1.41-.19.18-.44.27-.68.27ZM1877.16,302.14c-.24,0-.49-.09-.68-.27-2.91-2.7-5.91-5.39-8.91-7.99-.42-.36-.46-.99-.1-1.41.36-.42.99-.46,1.41-.1,3.02,2.61,6.03,5.31,8.96,8.03.4.38.43,1.01.05,1.41-.2.21-.46.32-.73.32ZM1859.01,286.44c-.22,0-.44-.07-.63-.22-3.08-2.48-6.26-4.95-9.45-7.34-.44-.33-.53-.96-.2-1.4.33-.44.96-.53,1.4-.2,3.21,2.4,6.4,4.89,9.5,7.38.43.35.5.98.15,1.41-.2.25-.49.37-.78.37ZM1839.81,272.05c-.2,0-.4-.06-.57-.18-3.25-2.26-6.59-4.51-9.93-6.68-.46-.3-.6-.92-.3-1.38.3-.46.92-.59,1.38-.3,3.36,2.18,6.72,4.44,9.99,6.71.45.32.56.94.25,1.39-.19.28-.51.43-.82.43ZM1819.67,259c-.18,0-.35-.05-.51-.14-3.42-2.05-6.9-4.07-10.36-6-.48-.27-.66-.88-.39-1.36.27-.48.88-.65,1.36-.39,3.48,1.94,6.98,3.97,10.42,6.03.47.29.63.9.34,1.37-.19.31-.52.49-.86.49ZM1798.69,247.31c-.15,0-.31-.04-.46-.11-3.54-1.82-7.15-3.61-10.74-5.31-.5-.24-.71-.83-.47-1.33.24-.5.83-.71,1.33-.47,3.61,1.71,7.24,3.51,10.8,5.34.49.25.68.86.43,1.35-.18.34-.53.54-.89.54ZM1776.99,237.01c-.13,0-.27-.03-.4-.08-3.65-1.59-7.37-3.14-11.06-4.61-.51-.2-.76-.79-.56-1.3.2-.51.79-.76,1.3-.56,3.71,1.48,7.45,3.04,11.12,4.63.51.22.74.81.52,1.32-.16.38-.53.6-.92.6ZM1754.66,228.12c-.11,0-.23-.02-.34-.06-3.75-1.36-7.57-2.66-11.34-3.89-.52-.17-.81-.73-.64-1.26.17-.53.73-.81,1.26-.64,3.79,1.23,7.63,2.55,11.4,3.91.52.19.79.76.6,1.28-.15.41-.53.66-.94.66ZM1731.78,220.7c-.09,0-.18-.01-.28-.04-3.88-1.12-7.79-2.16-11.59-3.11-.54-.13-.86-.68-.73-1.21.13-.54.68-.86,1.21-.73,3.83.95,7.75,2.01,11.66,3.13.53.15.84.71.68,1.24-.13.44-.53.72-.96.72ZM1708.4,214.9c-.07,0-.13,0-.2-.02-7.47-1.54-11.82-2.08-11.86-2.08-.55-.07-.94-.57-.87-1.11.07-.55.57-.95,1.11-.87.04,0,4.45.55,12.02,2.11.54.11.89.64.78,1.18-.1.47-.51.8-.98.8Z"/>
    <g>
      <circle class="cls-5" cx="1850.25" cy="662.67" r="11.32"/>
      <g>
        <circle class="cls-4" cx="1990.67" cy="661.28" r="45.41"/>
        <path class="cls-6" d="M2071.24,662.67c0-40.99-33.23-74.23-74.23-74.23-71.49,0-146.77,74.23-146.77,74.23,0,0,75.96,74.23,146.77,74.23,40.99,0,74.23-33.23,74.23-74.23ZM1960.74,662.67c0-19.1,15.48-34.59,34.59-34.59s34.59,15.48,34.59,34.59-15.48,34.59-34.59,34.59-34.59-15.49-34.59-34.59Z"/>
      </g>
    </g>
  </g>
  <g>
    <path class="cls-9" d="M1268.04,243.35c-.41,0-.8-.26-.94-.67-.18-.52.09-1.09.61-1.28l94.4-33.37c.52-.19,1.09.09,1.28.61.18.52-.09,1.09-.61,1.28l-94.4,33.37c-.11.04-.22.06-.33.06Z"/>
    <path class="cls-9" d="M1103.8,243.35c-.41,0-.8-.26-.94-.67-.18-.52.09-1.09.61-1.28l75.31-26.62c.52-.18,1.09.09,1.28.61.18.52-.09,1.09-.61,1.28l-75.31,26.62c-.11.04-.22.06-.33.06Z"/>
    <path class="cls-9" d="M1205.77,400.26c-.41,0-.8-.26-.94-.67-.18-.52.09-1.09.61-1.28l94.4-33.37c.52-.18,1.09.09,1.28.61.18.52-.09,1.09-.61,1.28l-94.4,33.37c-.11.04-.22.06-.33.06Z"/>
    <path class="cls-9" d="M1146.67,447.37c-.41,0-.8-.26-.94-.67-.18-.52.09-1.09.61-1.28l133.26-47.1c.52-.18,1.09.09,1.28.61.18.52-.09,1.09-.61,1.28l-133.26,47.1c-.11.04-.22.06-.33.06Z"/>
    <path class="cls-9" d="M1198.98,486.3c-.41,0-.8-.26-.94-.67-.18-.52.09-1.09.61-1.28l133.26-47.1c.52-.19,1.09.09,1.28.61.18.52-.09,1.09-.61,1.28l-133.26,47.1c-.11.04-.22.06-.33.06Z"/>
  </g>
  <path class="cls-8" d="M1361.53,789.77s-20.71,3.81-32.5,13.89c0,0-13.73,10.56-20.71,25.92l-25.18,50.24-19.23,54.94-11.16,37.34-8.81,36.22,48.28,10.96,7.66-27.95s21.72-69.58,28.4-82.49l12.16-27.02-.87,28.63-2.73,63.88-1.36,30.02,152.94-5.58-15.75-121.84,28.16,36s13.13,20.71,28.58,21.95c0,0,25,6.7,36.78-21.95l20.99-40.13-5.12-6.39-3.54,8.81s-32.31-11.91-36.65-25.68l-11.04,21.71-46.14-62.02s-14.14-22.95-39.2-21.46c0,0-18.72,17.12-48.06,15.38,0,0-22.89-1.86-35.92-13.4Z"/>
  <path class="cls-8" d="M1797.54,1069.31h-107.76c-28.31,0-49.72-25.67-44.71-53.6l19.84-110.41c8.04-44.73,39.07-81.88,81.59-97.67l51.04-18.95v280.62Z"/>
  <path class="cls-9" d="M1797.54,1070.31h-107.76c-13.77,0-26.73-6.06-35.58-16.64-8.87-10.61-12.56-24.51-10.11-38.13l19.84-110.41c8.06-44.87,39.57-82.59,82.23-98.43l51.04-18.95c.31-.11.65-.07.92.12.27.19.43.49.43.82v280.62c0,.55-.45,1-1,1ZM1796.54,790.13l-49.69,18.45c-42,15.59-73.02,52.73-80.96,96.91l-19.84,110.41c-2.34,13.04,1.18,26.34,9.68,36.5,8.46,10.12,20.87,15.92,34.04,15.92h106.76v-278.18Z"/>
  <path class="cls-9" d="M1849.6,761.25s33.29-32.57,2.08-38.15c0,0-36.25-42.54-68.02,9.34-4.45,7.27-8.89,25.25-7.72,38.55,0,0-28.21-1.03-28.42,25.25,0,0-15.94-5.35-22.2,12.77,0,0-15.99-3.46-19.74,14.18,0,0-27.43-3.15-41.45,34.57,0,0,46.79-1.09,49.36-21.21,0,0,19.22,3.78,23.59-11.03,0,0,29.76.71,35.56-20.76,0,0,27.41.18,34.2-21.24,0,0,33.66-31.99,42.77-22.28Z"/>
  <g>
    <g>
      <g>
        <path class="cls-4" d="M1896.24,987.93s16.72,114.88,9.43,234.67c-2.92,47.91-30,91.02-71.89,114.24-42.55,27.51-85.1,55.02-127.65,82.53-.39,5.38-.29,13.78,3.39,22.79,4.52,11.07,11.45,16.23,9.39,20.57-2.62,5.52-14.72,4.72-16.18,4.63-12.47-.83-21.87-8.06-30.39-15.9-9.19-8.45-24.71-24.38-43.44-57.71-14.44-25.69-14.99-33.61-13.55-40.04,2.96-13.2,14.48-20.96,18.52-23.73,21.84-14.99,114.19-74.51,139.82-120.49,25.88-46.44,32.56-205.88,32.56-205.88l90.01-15.67Z"/>
        <path class="cls-9" d="M1705.68,1468.44c-1.16,0-2.2-.05-3.02-.1-12.73-.85-22.43-8.27-31.01-16.16-9.83-9.05-25.05-24.9-43.64-57.96-15.04-26.77-15.04-34.55-13.65-40.75,3.01-13.42,14.46-21.27,18.77-24.23l.16-.11c1.91-1.31,4.36-2.96,7.26-4.92,29.81-20.1,108.98-73.49,132.25-115.23,25.47-45.7,32.37-203.84,32.44-205.43.02-.47.36-.86.83-.94l90.01-15.67c.26-.04.54.02.76.18.22.16.36.4.4.67.17,1.15,16.65,116.35,9.43,234.88-2.96,48.55-30.03,91.57-72.41,115.06l-127.17,82.22c-.5,7.81.62,15.16,3.35,21.84,1.89,4.62,4.22,8.23,6.1,11.13,2.72,4.2,4.69,7.24,3.27,10.24-2.12,4.48-9.22,5.29-14.13,5.3ZM1807.2,1004.45c-.57,12.35-7.9,161.11-32.65,205.52-23.5,42.16-102.97,95.75-132.88,115.92-2.89,1.95-5.34,3.6-7.24,4.91l-.16.11c-4.13,2.83-15.11,10.37-17.95,23.01-1.3,5.81-1.25,13.19,13.45,39.33,18.44,32.81,33.52,48.51,43.25,57.46,9.6,8.84,18.34,14.88,29.78,15.64,6.23.41,13.5-.44,15.21-4.06.94-1.99-.68-4.5-3.14-8.29-1.93-2.97-4.32-6.67-6.28-11.47-2.9-7.11-4.07-14.93-3.46-23.24.02-.31.19-.6.45-.77l127.65-82.53c41.84-23.19,68.52-65.6,71.44-113.46,6.85-112.39-7.66-221.77-9.27-233.45l-88.2,15.36Z"/>
      </g>
      <path class="cls-9" d="M1700.3,1418.5c-.29,0-.57-.12-.77-.36l-2.55-3.09c-21.09-25.53-44.99-54.46-52.32-86.25-.12-.54.21-1.08.75-1.2.54-.12,1.07.21,1.2.75,7.22,31.33,30.96,60.07,51.91,85.43l2.56,3.09c.35.43.29,1.06-.14,1.41-.19.15-.41.23-.64.23Z"/>
    </g>
    <g>
      <path class="cls-4" d="M1774.54,997.65c-23.9,34.13-42.93,362.32-47.56,448.86-.61,11.33,8.39,20.84,19.7,20.84h144.03c5.56,0,7.86-7.14,3.35-10.4l-37.38-27.05,9.83-361.03,27.24-36.88-3.16-34.74-116.05.4Z"/>
      <path class="cls-9" d="M1890.71,1468.34h-144.03c-5.74,0-11.08-2.3-15.03-6.47-3.97-4.18-5.98-9.66-5.67-15.42,5.18-96.83,23.94-415.39,47.74-449.38.32-.45.94-.56,1.39-.25.45.32.56.94.25,1.39-24.11,34.42-43.7,379.51-47.38,448.34-.28,5.21,1.54,10.16,5.12,13.94,3.57,3.77,8.39,5.84,13.58,5.84h144.03c2.53,0,3.98-1.69,4.5-3.28.52-1.59.33-3.82-1.73-5.31l-37.38-27.05c-.27-.19-.42-.51-.41-.84l9.83-361.03c0-.2.07-.4.2-.57l17.83-24.14c.33-.44.95-.54,1.4-.21.44.33.54.95.21,1.4l-17.64,23.89-9.8,360.19,36.95,26.74c2.41,1.75,3.38,4.71,2.46,7.55-.92,2.83-3.43,4.66-6.4,4.66Z"/>
      <g>
        <g>
          <path class="cls-4" d="M1756.49,1255.94l-19.47-1.64c-3.23-.27-5.61-4-5.3-8.34l7.49-105.16c.31-4.33,3.18-7.62,6.42-7.35l19.47,1.64c3.23.27,5.61,4,5.3,8.34l-7.49,105.16c-.31,4.33-3.18,7.62-6.42,7.35Z"/>
          <path class="cls-9" d="M1756.87,1256.96c-.15,0-.31,0-.46-.02l-19.47-1.64c-3.77-.32-6.56-4.54-6.21-9.4l7.49-105.16c.2-2.76,1.34-5.23,3.15-6.78,1.3-1.11,2.8-1.63,4.35-1.5l19.47,1.64c3.77.32,6.56,4.54,6.21,9.4l-7.49,105.16c-.2,2.76-1.34,5.23-3.15,6.78-1.17,1-2.5,1.52-3.88,1.52ZM1756.57,1254.94c1,.08,2-.27,2.88-1.03,1.38-1.18,2.3-3.2,2.45-5.4l7.49-105.16c.27-3.78-1.7-7.04-4.38-7.27l-19.47-1.64c-1-.08-2,.27-2.88,1.03-1.38,1.18-2.3,3.2-2.45,5.4l-7.49,105.16c-.27,3.78,1.7,7.04,4.38,7.27l19.47,1.64Z"/>
        </g>
        <path class="cls-9" d="M1758.9,1182.68s-.04,0-.06,0l-22.51-1.36c-.55-.03-.97-.51-.94-1.06.03-.55.51-.97,1.06-.94l22.51,1.36c.55.03.97.51.94,1.06-.03.53-.47.94-1,.94Z"/>
      </g>
      <path class="cls-9" d="M1807.19,1435.81c-22.23,0-44.41-2.36-66.31-7.07-.54-.12-.88-.65-.77-1.19.12-.54.65-.89,1.19-.77,35.85,7.71,72.45,9.08,108.78,4.08.55-.08,1.05.31,1.13.85.08.55-.31,1.05-.85,1.13-14.36,1.98-28.77,2.97-43.16,2.97Z"/>
    </g>
  </g>
  <g>
    <g>
      <path class="cls-6" d="M1847.41,815.18c0-1.28-.16-4.74-2.52-8.2-2.35-3.46-5.51-4.89-6.69-5.36l-50.79-20.03c-9.08-3.58-18.91,3.13-18.91,12.91v15.94l-31.68,35.09-5.14,195.43c-.19,7.21,6.9,12.35,13.67,9.93l166.4-59.6c5.23-1.87,8.01-7.58,6.28-12.87l-27.57-78.98c-1.9-5.05-3.81-10.09-5.71-15.14,9.87,6.55,14.4,10.75,13.59,12.6-.3.68-.23,4.03-3.16,5.22,3.94,14.14,8.58,24.18,12.52,38.33,6.53-1.35,14.23-1.72,24.06-3.68,18.03-3.59,27.4-6.53,32.23-13.09,12.52-17-11.86-55.55-29.41-74.77-5.42-5.94-23.44-25.67-45.08-29.87-3.93-.76-14.64-2.31-26.89-3.18-6.27-.45-11.51-.62-15.19-.69Z"/>
      <path class="cls-9" d="M1884.74,885.31c-.4,0-.78-.24-.93-.64l-15.16-39.68c-.2-.52.06-1.09.58-1.29.51-.19,1.09.06,1.29.58l15.16,39.68c.2.52-.06,1.09-.58,1.29-.12.04-.24.07-.36.07Z"/>
      <path class="cls-9" d="M1898.33,897.91c-.42,0-.81-.26-.95-.68-.17-.52.11-1.09.63-1.26,4.52-1.5,9.17-2.83,13.82-3.96,5.73-1.38,11.6-2.48,17.45-3.27.55-.07,1.05.31,1.12.86.07.55-.31,1.05-.86,1.12-5.79.78-11.59,1.86-17.25,3.23-4.59,1.11-9.18,2.42-13.65,3.91-.1.03-.21.05-.32.05Z"/>
    </g>
    <g>
      <path class="cls-4" d="M1747.91,814.99s50.66-18.35,102.23,74.19l-16.43,9.81s-29.83-79.56-85.81-84Z"/>
      <g>
        <path class="cls-4" d="M1875.61,890.55c-.61-5.93-10.21-6.87-10.21-6.87-6.5-12.48-23.74.95-23.74.95-13.62-2.25-28.17,19.58-29.09,20.98l23.41,40.05c21.43-10.19,30.45-17.29,36.87-22.63,16.84-13.99,10.5-24.31,10.5-24.31-.44-9.05-7.75-8.17-7.75-8.17Z"/>
        <path class="cls-9" d="M1855.54,899.36c-.33,0-.66-.17-.85-.47-.29-.47-.15-1.09.32-1.38,4.77-2.95,8.14-8.02,9.03-13.56.09-.54.6-.92,1.15-.83.55.09.92.6.83,1.15-.98,6.1-4.69,11.69-9.95,14.94-.16.1-.35.15-.53.15Z"/>
        <path class="cls-9" d="M1863.66,908.28c-.37,0-.73-.21-.9-.57-.24-.5-.03-1.09.47-1.33,6.15-2.93,10.56-9.2,11.26-15.98.06-.55.54-.94,1.1-.89.55.06.95.55.89,1.1-.76,7.46-5.62,14.36-12.39,17.58-.14.07-.29.1-.43.1Z"/>
        <path class="cls-9" d="M1870.87,915.75c-.33,0-.65-.16-.84-.45-.3-.46-.17-1.08.29-1.38,4.98-3.26,9.27-8.67,11.77-14.84.21-.51.79-.76,1.3-.55.51.21.76.79.55,1.3-2.65,6.54-7.21,12.29-12.53,15.77-.17.11-.36.16-.55.16Z"/>
        <path class="cls-9" d="M1831.44,895.46c-.09,0-.19-.01-.28-.04-.28-.08-.51-.28-.63-.55l-2.71-6.03c-.23-.5,0-1.1.5-1.32.5-.22,1.1,0,1.32.5l2.24,4.97c4.7-3,9.58-5.8,14.54-8.32l-1.36-2.31c-.28-.48-.12-1.09.36-1.37.47-.28,1.09-.12,1.37.36l1.89,3.23c.14.24.17.53.1.79-.08.26-.26.49-.51.61-5.57,2.79-11.05,5.92-16.28,9.32-.16.11-.35.16-.54.16Z"/>
      </g>
      <g>
        <path class="cls-6" d="M1809.85,900.94l-32.99,12.93,12.95-52.7c4.87-19.81-5.95-35.87-25.77-40.48l-2.58-3.08c-17.48-4.07-34.15,4.37-40.91,21.03l-37.38,97.75c-15.18,39.68,27,76.92,64.36,56.83l88.46-47.57-26.13-44.71Z"/>
        <g>
          <path class="cls-9" d="M1776.86,914.87c-.24,0-.47-.09-.66-.25-.28-.25-.4-.63-.31-.99l12.95-52.7c.98-4,1.33-7.93,1.02-11.66-.04-.55.36-1.03.92-1.08.56-.04,1.03.36,1.08.92.32,3.95-.04,8.09-1.07,12.3l-12.49,50.82,31.19-12.23c.46-.18.98,0,1.23.43l2.72,4.66c.28.48.12,1.09-.36,1.37-.48.28-1.09.12-1.37-.36l-2.29-3.92-32.19,12.62c-.12.05-.24.07-.37.07Z"/>
          <path class="cls-9" d="M1733.41,999.17c-.48,0-.9-.34-.98-.83-.1-.54.27-1.06.81-1.16,4.73-.83,9.38-2.46,13.81-4.85l88.46-47.56c.49-.26,1.09-.08,1.35.41.26.49.08,1.09-.41,1.35l-88.46,47.56c-4.62,2.49-9.47,4.19-14.42,5.06-.06.01-.12.02-.17.02Z"/>
          <path class="cls-9" d="M1735.08,930c-.41,0-.79-.25-.94-.66-.19-.52.08-1.09.6-1.28l41.78-15.13c.52-.18,1.09.08,1.28.6.19.52-.08,1.09-.6,1.28l-41.78,15.13c-.11.04-.23.06-.34.06Z"/>
        </g>
      </g>
    </g>
    <polygon class="cls-9" points="1890.95 924.73 1813.46 924.73 1842.44 816.6 1919.93 816.6 1890.95 924.73"/>
    <g>
      <path class="cls-4" d="M1901.9,895.34c3.07,2.65,11.85,36.86,10.91,44.51-3.46,1.41-37.82,1.49-51.19,1.07-2.24-.07-4.58-.18-6.55-1.25-1.97-1.07-3.45-3.41-2.78-5.56-3.31-.3-6.01-1.33-6.36-4.2-.35-2.87,2.28-5.72,5.17-5.6-2.05.02-4.17.03-6.06-.76-1.89-.79-3.52-2.6-3.43-4.65.07-1.8,1.45-3.34,3.06-4.14.8-.39,1.65-.64,2.52-.81-1.31-.41-2.49-1.54-2.78-2.93-.48-2.36,1.05-4.76,3.08-6.05,2.03-1.29,4.48-1.71,6.86-2.1,15.89-2.65,47.55-7.54,47.55-7.54Z"/>
      <g>
        <path class="cls-9" d="M1892.47,897.8c-.48,0-.91-.35-.99-.85-.09-.55.29-1.06.83-1.14,5.63-.88,9.44-1.46,9.44-1.46.54-.08,1.06.29,1.14.84.08.55-.29,1.06-.84,1.14,0,0-3.8.59-9.43,1.46-.05,0-.1.01-.16.01Z"/>
        <path class="cls-9" d="M1852.29,935.11s-.06,0-.09,0c-4.46-.4-6.9-2.1-7.27-5.07-.2-1.66.39-3.38,1.63-4.72.07-.08.15-.15.22-.23-.72-.13-1.44-.32-2.14-.61-2.09-.87-4.16-2.95-4.05-5.61.1-2.41,1.94-4.16,3.62-5,.18-.09.36-.17.55-.25-.68-.67-1.16-1.51-1.34-2.4-.61-2.97,1.33-5.71,3.52-7.1,2.24-1.42,4.89-1.86,7.23-2.24,8.56-1.43,21.52-3.47,30.89-4.94.54-.08,1.06.29,1.14.83.09.54-.29,1.06-.83,1.14-9.36,1.47-22.32,3.51-30.87,4.94-2.15.36-4.59.76-6.49,1.96-1.56.99-3.05,2.98-2.64,5.01.19.95,1.06,1.85,2.1,2.17.44.14.72.55.7,1.01-.03.46-.36.84-.81.93-.89.18-1.64.41-2.27.73-1.47.73-2.46,2.02-2.51,3.29-.07,1.69,1.41,3.09,2.82,3.68,1.6.67,3.42.69,5.21.68.17,0,.34-.01.51,0,.54.02.97.47.96,1.01,0,.54-.45.98-.99.99-.14,0-.27,0-.41,0-.96.07-1.92.55-2.66,1.36-.84.91-1.24,2.05-1.11,3.12.15,1.23.88,2.91,5.46,3.32.55.05.96.54.91,1.08-.05.52-.48.91-1,.91Z"/>
        <path class="cls-9" d="M1848.63,914.87c-.51,0-.95-.39-1-.91-.05-.55.36-1.04.91-1.08,5.99-.52,12.05-1.17,18.02-1.93.55-.06,1.05.32,1.12.87.07.55-.32,1.05-.87,1.12-6,.76-12.08,1.41-18.1,1.94-.03,0-.06,0-.09,0Z"/>
        <path class="cls-9" d="M1851.41,925.44c-.53,0-.97-.41-1-.94-.03-.55.39-1.02.94-1.05l16.26-.93c.55-.02,1.02.39,1.06.94.03.55-.39,1.02-.94,1.05l-16.26.93s-.04,0-.06,0Z"/>
        <path class="cls-9" d="M1854.7,935.1c-.52,0-1.05,0-1.57,0-.55,0-1-.46-.99-1.01,0-.55.45-.99,1-.99h0c4.85.05,9.74-.13,14.55-.53.55-.06,1.03.36,1.08.91s-.36,1.03-.91,1.08c-4.35.36-8.78.55-13.16.55Z"/>
      </g>
    </g>
  </g>
  <g>
    <polygon class="cls-4" points="1832 774.18 1831.43 809.03 1800.83 797.05 1808.64 767.06 1832 774.18"/>
    <path class="cls-9" d="M1831.43,799.51s-.03,0-.04,0c-.55-.02-.98-.49-.96-1.04l1.14-27.82c.02-.55.47-.99,1.04-.96.55.02.98.49.96,1.04l-1.14,27.82c-.02.54-.46.96-1,.96Z"/>
    <g>
      <g>
        <path class="cls-4" d="M1855.02,759.68c-.6,6.27-2.35,12.55-5.98,17.69-3.63,5.14-9.31,9.03-15.58,9.59-5.43.48-10.92-1.56-15.18-4.96-4.27-3.4-7.4-8.07-9.62-13.06-5.69.37-11.38-3.56-13.05-9.02-.96-3.15-.56-6.86,1.65-9.3,2.21-2.44,6.38-3.09,8.86-.92,1.41,1.24,2.13,3.14,3.59,4.31,1.63,1.31,3.97,1.47,5.96.83,1.99-.65,3.67-2.01,5.13-3.51,4.59-4.72,7.39-11.15,7.71-17.74-.03.62,2.82,2.38,3.32,2.73,1.26.86,2.59,1.62,3.97,2.26,2.73,1.26,5.67,2.06,8.66,2.37,1.52.16,3.05.19,4.57.1,1.21-.08,2.93-.71,4.1-.39,2.45.67,1.91,5.34,2.02,7.23.21,3.93.26,7.88-.11,11.81Z"/>
        <path class="cls-9" d="M1831.89,788.03c-4.89,0-9.99-1.87-14.24-5.25-3.89-3.1-7.13-7.41-9.63-12.81-5.97.06-11.62-4.03-13.38-9.76-1.16-3.78-.44-7.72,1.86-10.27,2.69-2.97,7.48-3.44,10.26-1,.77.68,1.33,1.49,1.88,2.27.53.77,1.03,1.49,1.68,2.01,1.25,1.01,3.18,1.26,5.02.66,1.56-.51,3.06-1.54,4.72-3.25,4.41-4.54,7.12-10.76,7.42-17.08h0c.03-.56.5-.99,1.05-.95.45.02.82.34.92.76.19.24.81.76,2.56,1.91.16.1.28.18.35.23,1.19.82,2.48,1.55,3.82,2.17,2.64,1.21,5.44,1.98,8.35,2.29,1.47.15,2.95.18,4.4.09.36-.02.81-.11,1.28-.2,1.01-.2,2.16-.42,3.15-.15,2.77.75,2.75,4.51,2.74,6.99,0,.44,0,.83.01,1.15.25,4.71.22,8.51-.11,11.95-.69,7.25-2.77,13.37-6.16,18.17-4.04,5.72-10.13,9.46-16.31,10.01-.55.05-1.1.07-1.66.07ZM1808.65,767.94c.39,0,.75.23.91.59,2.4,5.4,5.54,9.67,9.33,12.68,4.33,3.45,9.6,5.19,14.47,4.75,5.6-.5,11.15-3.92,14.85-9.17,3.19-4.52,5.14-10.31,5.8-17.21.32-3.35.35-7.05.11-11.66-.02-.35-.02-.78-.02-1.26,0-1.64.02-4.7-1.27-5.05-.54-.14-1.44.03-2.23.19-.52.1-1.05.21-1.54.24-1.56.1-3.16.07-4.74-.1-3.12-.33-6.14-1.16-8.97-2.46-1.45-.67-2.83-1.45-4.12-2.34l-.31-.21c-.65-.43-1.19-.79-1.63-1.11-.78,6.04-3.55,11.85-7.8,16.21-1.9,1.95-3.66,3.15-5.54,3.76-2.48.81-5.12.43-6.9-1-.87-.7-1.48-1.58-2.07-2.43-.5-.72-.96-1.39-1.55-1.91-1.96-1.71-5.51-1.31-7.46.84-1.81,2-2.37,5.27-1.43,8.34,1.53,5,6.82,8.67,12.03,8.32.02,0,.04,0,.07,0ZM1855.02,759.68h0,0Z"/>
      </g>
      <g>
        <path class="cls-4" d="M1802.66,756.81c2.92.68,5.32,3.23,5.81,6.2l-5.81-6.2Z"/>
        <path class="cls-9" d="M1808.46,764c-.48,0-.91-.35-.99-.84-.42-2.58-2.5-4.8-5.04-5.39-.54-.12-.87-.66-.75-1.2.12-.54.66-.88,1.2-.75,3.32.77,6.02,3.65,6.57,7.01.09.54-.28,1.06-.83,1.15-.05,0-.11.01-.16.01Z"/>
      </g>
    </g>
  </g>
  <path class="cls-9" d="M1591.96,841.18c-1.55,0-2.81-.43-3.78-1.29-1.97-1.76-1.81-4.61-1.8-4.73.04-.55.52-.96,1.06-.93.55.04.97.51.93,1.06,0,.05-.09,2.03,1.15,3.12.83.74,2.14.95,3.9.63,6.27-1.13,12.21-11.04,11.99-20-.07-2.9-.81-4.9-2.12-5.78-1.58-1.06-3.65-.32-3.67-.31-.52.2-1.09-.06-1.29-.58-.2-.52.06-1.09.58-1.29.12-.05,3.04-1.13,5.5.52,1.9,1.28,2.92,3.77,3.01,7.39.25,10.01-6.38,20.71-13.64,22.02-.64.12-1.25.17-1.81.17Z"/>
  <g>
    <path class="cls-4" d="M1080.62,1440.83c2.21-6.99-1.67-14.45-8.66-16.66-6.99-2.21-14.44,1.67-16.65,8.66-2.21,6.99,1.67,14.45,8.66,16.66,6.99,2.21,14.44-1.67,16.65-8.66Z"/>
    <path class="cls-9" d="M1067.98,1451.08c-1.44,0-2.89-.22-4.3-.67-7.49-2.36-11.65-10.38-9.29-17.86,1.14-3.63,3.63-6.59,7-8.35,3.37-1.75,7.23-2.09,10.85-.94,7.49,2.36,11.65,10.38,9.29,17.86-1.14,3.63-3.63,6.59-7,8.34-2.06,1.07-4.29,1.61-6.55,1.61ZM1067.95,1424.52c-1.95,0-3.88.47-5.66,1.39-2.92,1.52-5.07,4.08-6.06,7.21-2.04,6.47,1.56,13.4,8.03,15.45,3.14.99,6.47.7,9.38-.82,2.92-1.52,5.07-4.08,6.05-7.21,2.04-6.47-1.56-13.4-8.03-15.45-1.22-.39-2.47-.58-3.72-.58Z"/>
  </g>
  <g>
    <path class="cls-4" d="M1129.17,1456.17c2.21-6.99-1.67-14.45-8.66-16.66-6.99-2.21-14.44,1.67-16.65,8.66-2.2,6.99,1.67,14.45,8.66,16.66,6.99,2.21,14.44-1.67,16.65-8.66Z"/>
    <path class="cls-9" d="M1116.54,1466.42c-1.44,0-2.89-.22-4.3-.67-7.49-2.36-11.65-10.38-9.29-17.86,1.14-3.63,3.63-6.59,7-8.35,3.37-1.76,7.23-2.09,10.85-.94,7.49,2.36,11.65,10.38,9.29,17.86-1.14,3.63-3.63,6.59-7,8.34-2.06,1.07-4.29,1.61-6.55,1.61ZM1116.5,1439.85c-1.95,0-3.88.47-5.66,1.39-2.92,1.52-5.07,4.08-6.05,7.21-2.04,6.47,1.56,13.4,8.03,15.45,3.14.99,6.47.7,9.38-.82,2.92-1.52,5.07-4.08,6.05-7.21,2.04-6.47-1.56-13.4-8.03-15.45-1.22-.39-2.47-.58-3.72-.58Z"/>
  </g>
  <g>
    <g>
      <path class="cls-4" d="M1574.63,1454.95l-29.71-25.37-1.98-15.09-36.63-11.54-60.57,35.28,1.77,15.63c.87,7.7,7.38,13.52,15.13,13.52h107.42c6.56,0,9.57-8.17,4.58-12.43Z"/>
      <path class="cls-9" d="M1570.04,1468.34h-107.42c-8.25,0-15.16-6.18-16.09-14.37l-1.77-15.63c-.04-.38.14-.75.47-.94l60.57-35.28c.23-.14.51-.17.77-.09l36.63,11.54c.36.11.62.42.67.79l1.94,14.72,29.43,25.13c2.58,2.21,3.49,5.69,2.32,8.88-1.18,3.19-4.13,5.25-7.53,5.25ZM1446.76,1438.76l1.69,15c.82,7.22,6.91,12.66,14.17,12.66h107.42c3.13,0,5.01-2.06,5.72-3.99.71-1.93.62-4.71-1.76-6.74l-29.71-25.37c-.18-.16-.3-.37-.33-.61l-1.9-14.48-35.64-11.23-59.66,34.75Z"/>
    </g>
    <g>
      <path class="cls-4" d="M1198.93,1447.89c-3.01,9.68,4.23,19.49,14.36,19.49h101.79c7.13,0,13.28-5.01,14.72-12l7.03-34.09-37.45-13.18-95.4,23.49-5.06,16.28Z"/>
      <path class="cls-9" d="M1315.08,1468.34h-101.79c-5.14,0-9.83-2.37-12.88-6.51-3.05-4.14-3.92-9.33-2.4-14.23l5.06-16.28c.1-.32.36-.57.69-.65l95.4-23.49c.18-.05.37-.04.55.03l37.45,13.18c.45.16.72.63.62,1.1l-7.03,34.09c-1.53,7.4-8.12,12.77-15.67,12.77ZM1204.75,1432.41l-4.89,15.76c-1.34,4.32-.57,8.88,2.11,12.52s6.81,5.73,11.33,5.73h101.79c6.64,0,12.44-4.72,13.78-11.23l6.86-33.26-36.38-12.8-94.59,23.29ZM1198.93,1447.89h0,0Z"/>
    </g>
    <polygon class="cls-6" points="1486.65 998.78 1439.96 1000.54 1369.48 1003.21 1338.37 1004.49 1203.99 1431.61 1336.84 1421.29 1407.59 1100.76 1445.73 1438.24 1542.93 1414.5 1486.65 998.78"/>
    <path class="cls-9" d="M1407.03,1093.37c-.06,0-.12,0-.18-.02-.52-.1-.87-.6-.77-1.13l11.37-60.4c1.49-7.92,5.79-15.04,12.1-20.05l5.33-4.23c.42-.33,1.02-.26,1.35.16.33.42.26,1.02-.16,1.35l-5.33,4.23c-5.95,4.72-10,11.43-11.41,18.9l-11.37,60.4c-.09.46-.49.79-.95.79Z"/>
    <path class="cls-9" d="M1408.94,779.74c-8.88,0-21.9-3.82-31.11-23.1-.24-.5-.03-1.1.47-1.33.5-.24,1.1-.03,1.33.47,14.34,30.03,37.44,20.87,38.42,20.47,11.29-4.83,8.76-25.05,8.74-25.25l-4.2-35.02c-2.45-8.78-6.86-14.87-13.09-18.12-10.09-5.25-21.72-1.22-21.84-1.18l-.1.03c-1.03.25-25.22,6.43-18.63,37.58l1.23,4.55c.14.53-.17,1.08-.7,1.23-.53.15-1.08-.17-1.23-.7l-1.24-4.6c-6.85-32.39,18.62-39.61,20.05-39.98.95-.33,12.71-4.23,23.37,1.3,6.77,3.52,11.53,10.06,14.13,19.44l.03.15,4.2,35.08c.12.88,2.76,21.91-9.94,27.35-.1.04-4.13,1.65-9.89,1.65Z"/>
    <path class="cls-9" d="M1373.54,760.51c-3.69,0-7.65-2.72-10.11-6.96-1.63-2.79-3.18-6.93-1.37-10.76,2.49-5.26,7.96-4.77,10.51-3.78.51.2.77.78.57,1.3-.2.51-.78.77-1.29.57-.23-.09-5.67-2.11-7.98,2.77-1.44,3.04-.09,6.52,1.29,8.9,2.08,3.58,5.44,5.96,8.39,5.96.02,0,.05,0,.07,0,1.8-.02,3.26-.98,4.24-2.77.26-.48.87-.66,1.36-.4.48.26.66.87.4,1.36-1.32,2.43-3.44,3.78-5.97,3.82-.03,0-.07,0-.1,0Z"/>
    <path class="cls-9" d="M1374.93,753c-.34,0-.67-.17-.86-.49-2.26-3.79-4.74-4.41-4.77-4.41-.53-.12-.87-.66-.75-1.19.12-.53.64-.87,1.17-.76.13.03,3.31.74,6.06,5.34.28.47.13,1.09-.35,1.37-.16.1-.34.14-.51.14Z"/>
    <path class="cls-9" d="M1421.11,709.09s-20.51-3.52-34.28,8.98c0,0,1.91,9.75,0,13.14s-4.87,10.38,2.33,19.5c0,0,4.12,4.91,11.38,1.29,7.26-3.62,17.91-9.52,26.78-4.88,0,0,6.42,26.72-12.38,31.05-18.8,4.33-31.39-8.82-36.22-21.96,0,0,2.35-16.82-13.77-15.55,0,0-16.32-31.99,1.84-49.15,18.16-17.16,43-10.24,51.44-1.6,11.49,11.76,10.67,26.58,6.48,35.43,0,0-1.02-11.76-3.61-16.24Z"/>
    <path class="cls-9" d="M1401.78,804.26c-13.26,0-28.73-4.98-41.4-13.33-.46-.3-.59-.92-.28-1.39s.92-.59,1.39-.28c12.35,8.14,27.41,13,40.29,13,16,0,31.65-5.54,44.06-15.6.43-.35,1.06-.28,1.41.15.35.43.28,1.06-.15,1.41-12.76,10.34-28.86,16.04-45.32,16.04Z"/>
    <path class="cls-9" d="M1530.61,872.37c-.3,0-.6-.14-.8-.4-.41-.54-40.94-54.6-48.79-65.73-10.6-15.02-26.56-16.86-26.72-16.87l-32.08-3.76-2.76-11.72c-.13-.54.21-1.08.74-1.2.54-.12,1.08.21,1.2.74l2.44,10.35,30.68,3.6c.68.07,17.01,1.96,28.13,17.71,7.84,11.1,48.35,65.14,48.76,65.68.33.44.24,1.07-.2,1.4-.18.13-.39.2-.6.2Z"/>
    <path class="cls-9" d="M1334.68,1005.53l4.94-124.39c.02-.55.5-.98,1.04-.96.55.02.98.49.96,1.04l-4.85,122.23,150.53-5.69-22.81-174.41c-.07-.55.31-1.05.86-1.12.54-.07,1.05.31,1.12.86l23.1,176.59-1.1.04-153.79,5.82Z"/>
    <path class="cls-9" d="M1536.9,936.65c-22.01,0-33.39-18.35-34.16-19.64l-31.04-39.57c-.34-.43-.27-1.06.17-1.4.43-.34,1.06-.27,1.4.17l31.16,39.74c.11.2,11.5,19.59,34.02,18.67h.05s.05,0,.05,0c.14,0,14.88.53,27.77-23.4l19.11-36.53c.26-.49.86-.68,1.35-.42.49.26.68.86.42,1.35l-19.12,36.54c-13.28,24.66-28.39,24.51-29.6,24.46-.53.02-1.07.03-1.59.03Z"/>
    <path class="cls-9" d="M1520.31,892.6c-.15,0-.31-.03-.45-.11-.49-.25-.69-.85-.44-1.34l57.42-112.79c1.15-1.96,4.31-5.19,8.23-3.82,1.27.44,2.19,1.25,2.74,2.4,1.23,2.57.07,5.95.02,6.09l-11.23,26.12c-.22.51-.81.74-1.31.52-.51-.22-.74-.81-.52-1.31l11.2-26.06c.04-.13,1.62-4.76-1.56-5.88-3.34-1.18-5.72,2.73-5.81,2.9l-57.39,112.74c-.18.35-.53.55-.89.55Z"/>
    <path class="cls-9" d="M1567.48,833.43c-.13,0-.26-.03-.39-.08-.51-.22-.74-.8-.53-1.31,2.4-5.63,7.54-9.17,10.94-11.51.45-.31.86-.6,1.24-.86,3.28-2.35,4.5-4.18,4.32-6.56-.18-2.38-2.86-3.54-2.88-3.55-6.1-1.99-14.57,7.54-14.65,7.63-.36.42-1,.46-1.41.09-.42-.36-.46-1-.09-1.41.38-.44,9.43-10.62,16.85-8.19.23.09,3.91,1.66,4.18,5.27.29,3.89-2.44,6.4-5.15,8.33-.38.27-.81.57-1.27.88-3.21,2.21-8.07,5.56-10.24,10.65-.16.38-.53.61-.92.61Z"/>
    <path class="cls-9" d="M1575.43,833.53c-.46,0-.88-.05-1.26-.14-2.97-.65-4.77-3.41-5.05-5.07-.09-.54.28-1.06.82-1.15.55-.09,1.06.28,1.15.82.17,1,1.48,3,3.51,3.44,2.38.52,5-1.21,7.59-5.01,3.2-4.68,5.73-10.3,6.95-15.43.63-2.64,1.39-7.47-.58-10.15-.85-1.16-2.13-1.78-3.9-1.9-2.46-.18-4.26.96-4.28.97-.46.29-1.08.16-1.38-.3-.3-.46-.17-1.08.3-1.38.1-.06,2.36-1.5,5.5-1.28,2.37.16,4.17,1.08,5.38,2.71,2.32,3.16,1.78,8.16.91,11.8-1.27,5.35-3.91,11.22-7.25,16.09-3.24,4.74-6.21,5.97-8.41,5.97Z"/>
    <path class="cls-9" d="M1584.44,836.99c-.15,0-.3,0-.44-.02-1.95-.16-3.42-.86-4.37-2.08-1.42-1.81-1.06-4.08-1.05-4.18.09-.54.6-.92,1.15-.83.54.09.91.6.83,1.14,0,.03-.21,1.54.66,2.65.59.75,1.58,1.19,2.95,1.3,4.03.35,12.33-6.79,13.93-19.43.52-4.14-.06-7.06-1.7-8.46-1.94-1.65-4.87-.81-4.9-.81-.53.15-1.08-.15-1.24-.68s.14-1.08.67-1.24c.16-.05,3.98-1.16,6.76,1.19,2.22,1.88,3.02,5.32,2.4,10.24-1.67,13.24-10.2,21.19-15.64,21.19Z"/>
    <path class="cls-9" d="M1583.05,876.94c-1.52,0-3.38-.28-5.53-.84-4.94-1.28-10.96-3.9-16.96-7.36-11.32-6.53-21.92-15.95-19.28-20.52.28-.48.89-.64,1.37-.37.48.28.64.89.37,1.37-1.25,2.17,5.35,10.17,18.55,17.79,5.85,3.38,11.69,5.92,16.46,7.15,5.01,1.3,7.38.75,7.88-.12.5-.87-.21-3.21-3.88-6.93-.39-.39-.38-1.03,0-1.41.39-.39,1.03-.38,1.41,0,3.96,4,5.4,7.23,4.19,9.33-.73,1.26-2.28,1.89-4.58,1.89Z"/>
    <path class="cls-9" d="M1578.26,876.25c-.14,0-.28-.03-.42-.09-.5-.23-.72-.82-.49-1.33l16.09-35.07c.23-.5.82-.72,1.33-.49.5.23.72.82.49,1.33l-16.09,35.07c-.17.37-.53.58-.91.58Z"/>
    <g>
      <path class="cls-9" d="M1241.74,1058.11s-.07,0-.1,0c-.16-.02-15.81-1.87-17.05-20.23-.75-11.12,11.04-22.37,21.06-29.85.44-.33,1.07-.24,1.4.2.33.44.24,1.07-.2,1.4-9.63,7.18-20.96,17.89-20.26,28.11,1.13,16.65,14.69,18.32,15.27,18.38.55.06.95.55.89,1.1-.05.51-.49.89-.99.89Z"/>
      <path class="cls-9" d="M1251.89,1060.96c-5.07,0-9.21-1.46-12.31-4.36-6.83-6.37-6.19-17.28-6.16-17.74.04-.55.51-.99,1.06-.93.55.04.97.51.93,1.06,0,.1-.6,10.44,5.53,16.15,3.46,3.22,8.44,4.41,14.82,3.54.54-.07,1.05.31,1.13.86.07.55-.31,1.05-.86,1.13-1.44.2-2.83.3-4.15.3Z"/>
      <path class="cls-9" d="M1258.19,1060.45c-2.72,0-5.27-1.24-7.59-3.69-8.71-9.19-6.91-19.81-6.83-20.26.1-.54.61-.9,1.16-.81.54.1.9.62.81,1.16-.02.1-1.68,10.1,6.31,18.53,2.04,2.15,4.22,3.17,6.51,3.05,4.59-.24,8.25-4.97,8.29-5.02.33-.44.96-.52,1.4-.19.44.33.52.96.19,1.4-.17.22-4.24,5.5-9.76,5.8-.16,0-.33.01-.49.01Z"/>
      <path class="cls-9" d="M1266.89,1054.42c-.23,0-.45-.01-.68-.04-2.15-.23-3.95-1.59-5.2-3.93-3.25-6.09,5.57-17.86,5.95-18.35.33-.44.96-.53,1.4-.19.44.33.53.96.19,1.4-2.35,3.11-7.98,12.08-5.78,16.21.94,1.76,2.17,2.73,3.65,2.89,2.95.32,7.09-2.51,11.67-7.94,8.25-9.78,10.83-18.8,12.16-25.56.11-.54.63-.89,1.17-.79.54.11.89.63.79,1.17-1.38,7-4.06,16.33-12.6,26.46-4.86,5.76-9.14,8.68-12.73,8.68Z"/>
    </g>
    <path class="cls-9" d="M1293.44,1020.62l-51.06-11.65,8.5-33.77c9.74-39.81,30.95-94.74,31.16-95.29.18-.39,15.45-33.22,28.1-55.77,14.81-26.4,39.57-32.11,39.82-32.16l29.9-7.92-1.73-26.75c-.04-.55.38-1.03.93-1.06.57-.03,1.03.38,1.06.93l1.84,28.4-31.53,8.35c-.28.06-24.19,5.61-38.55,31.2-12.61,22.48-27.85,55.24-28.01,55.57-.19.49-21.35,55.3-31.06,94.99l-8,31.8,47.13,10.75c2.43-10.18,23.92-97.57,61.22-163.38.27-.48.88-.65,1.36-.38.48.27.65.88.38,1.36-39.32,69.37-61.02,162.88-61.24,163.82l-.22.97Z"/>
    <path class="cls-9" d="M1259.98,1059.22l-31.76,100.68c-1.35,4.3-4.3,7.81-8.3,9.89-3.99,2.08-8.55,2.48-12.84,1.13,0,0-.02,0-.02,0-8.87-2.8-13.8-12.29-11.01-21.16l32.3-102.41c-.49-.56-.98-1.14-1.47-1.76l-32.67,103.59c-3.11,9.87,2.38,20.44,12.24,23.57,0,0,.02,0,.03,0,1.87.59,3.78.88,5.68.88,2.98,0,5.93-.72,8.65-2.13,4.46-2.32,7.74-6.23,9.25-11.02l32.12-101.84c-.83.38-1.56.55-2.21.58Z"/>
    <g>
      <path class="cls-4" d="M1123.35,1435.66l-50.26-15.88c-19.75-6.24-30.71-27.3-24.48-47.06l68.26-216.43c6.23-19.76,27.31-30.73,47.08-24.49l50.26,15.88c19.75,6.24,30.71,27.3,24.48,47.06l-68.26,216.43c-6.23,19.76-27.31,30.73-47.08,24.49Z"/>
      <path class="cls-9" d="M1134.69,1438.38c-3.9,0-7.81-.6-11.63-1.81l-50.26-15.88c-20.22-6.39-31.49-28.04-25.11-48.27l68.26-216.43c3.09-9.8,9.82-17.82,18.94-22.56,9.12-4.75,19.54-5.65,29.35-2.55l50.26,15.88c20.22,6.39,31.49,28.04,25.11,48.27l-68.26,216.43c-3.09,9.81-9.82,17.82-18.94,22.56-5.57,2.89-11.62,4.36-17.71,4.36ZM1152.61,1131.01c-5.79,0-11.54,1.39-16.83,4.14-8.66,4.51-15.05,12.12-17.99,21.43l-68.26,216.43c-6.06,19.21,4.64,39.78,23.85,45.85l50.26,15.88c9.31,2.94,19.21,2.08,27.88-2.43,8.66-4.51,15.05-12.12,17.99-21.43l68.26-216.43c6.06-19.21-4.64-39.78-23.85-45.85l-50.26-15.88c-3.63-1.15-7.35-1.71-11.05-1.71Z"/>
    </g>
    <path class="cls-9" d="M1114.67,1433.01c-.1,0-.19-.01-.29-.04-.51-.16-.79-.7-.63-1.21l90.33-286.4c.16-.51.71-.79,1.21-.63.51.16.79.7.63,1.21l-90.33,286.4c-.13.41-.51.67-.92.67Z"/>
  </g>
  <line class="cls-2" x1="108.27" y1="1467.92" x2="2052.69" y2="1467.92"/>
  <g>
    <rect class="cls-4" x="128.28" y="875.97" width="681.33" height="277.03"/>
    <path class="cls-9" d="M809.61,1153.74H128.28c-.41,0-.74-.33-.74-.74v-277.03c0-.41.33-.74.74-.74h681.33c.41,0,.74.33.74.74v277.03c0,.41-.33.74-.74.74ZM129.02,1152.26h679.85v-275.55H129.02v275.55Z"/>
  </g>
  <path class="cls-5" d="M128.98,1014.91h679.92l-45.68-37.95c-3.63-3.02-8.83-3.56-13.05-1.36-3.58,1.86-7.92,1.78-11.42-.23l-15.01-8.6c-3.48-1.99-7.79-2.09-11.36-.25l-11.88,6.11c-3.44,1.77-7.57,1.75-10.99-.05l-12.59-6.61c-3.54-1.86-7.83-1.81-11.32.14l-11.94,6.65c-4.26,2.37-9.61,1.89-13.34-1.2l-3.68-3.05c-3.65-3.03-8.87-3.56-13.1-1.33l-34.43,18.16c-3.38,1.78-7.47,1.83-10.89.11l-21.74-10.88c-3.29-1.65-7.21-1.67-10.52-.07l-39.99,19.34c-5.3,2.56-11.77.85-14.95-3.98l-.35-.53c-3.27-4.96-10-6.62-15.35-3.77l-25.38,13.51c-3.88,2.07-8.64,1.81-12.26-.65l-32.42-22.04c-3.93-2.67-9.17-2.72-13.15-.12l-35.08,22.88c-3.18,2.07-7.21,2.49-10.78,1.12l-31.87-12.27c-2.42-.93-5.09-1.05-7.59-.33l-46.84,13.41c-3.09.88-6.42.49-9.2-1.1l-29.1-16.62c-3.15-1.8-6.99-2.05-10.37-.69l-36.84,14.85c-3.63,1.46-7.78,1.05-11.02-1.1l-5.18-3.43c-5.32-3.52-12.6-2.17-16.18,3l-13.09,18.94Z"/>
  <g>
    <path class="cls-9" d="M734.53,1032.4c0,1.55-1.26,2.8-2.82,2.8s-2.82-1.25-2.82-2.8,1.26-2.8,2.82-2.8,2.82,1.25,2.82,2.8Z"/>
    <path class="cls-9" d="M731.71,1033.14c-.41,0-.74-.33-.74-.74v-7.27c0-.41.33-.74.74-.74s.74.33.74.74v7.27c0,.41-.33.74-.74.74Z"/>
  </g>
  <g>
    <path class="cls-4" d="M616.17,986.97l10.54,21.57c5.21,10.66,16.09,17.43,28.03,17.43h114.47c3.06,0,4.75-3.53,2.82-5.89l-3.84-4.68c-6.58-8.01-16.44-12.66-26.86-12.66h-103.77l-9.25-12.06c-1.79-2.33-4.57-3.7-7.53-3.7h-4.61Z"/>
    <path class="cls-9" d="M769.21,1026.7h-114.47c-12.13,0-23.4-7-28.69-17.84l-10.54-21.57c-.11-.23-.1-.5.04-.72.14-.22.37-.35.63-.35h4.61c3.16,0,6.2,1.49,8.11,3.99l9.03,11.77h103.4c10.68,0,20.68,4.71,27.43,12.93l3.84,4.68c1.08,1.31,1.29,3.07.57,4.6-.73,1.54-2.25,2.5-3.96,2.5ZM617.36,987.71l10.02,20.5c5.05,10.33,15.79,17.01,27.36,17.01h114.47c1.15,0,2.13-.62,2.62-1.65.48-1.02.34-2.15-.38-3.03l-3.84-4.68c-6.47-7.88-16.05-12.39-26.29-12.39h-103.77c-.23,0-.45-.11-.59-.29l-9.25-12.06c-1.64-2.14-4.23-3.41-6.94-3.41h-3.42Z"/>
  </g>
  <polygon class="cls-8" points="734.53 1016.87 719.25 1016.87 713.98 1011.01 729.26 1011.01 734.53 1016.87"/>
  <path class="cls-4" d="M630.43,1041.6h6.03c6.22,0,12.33-1.66,17.68-4.81l52.39-22.65h-35.72l-40.38,27.45Z"/>
  <g>
    <path class="cls-4" d="M670.81,1014.14l-40.38,27.45h6.03c6.22,0,12.33-1.66,17.68-4.81l52.39-22.65h-35.72Z"/>
    <path class="cls-9" d="M636.46,1042.34h-6.03c-.33,0-.61-.21-.71-.52-.1-.31.02-.65.29-.83l40.38-27.45c.34-.23.8-.14,1.03.2.23.34.14.8-.2,1.03l-38.39,26.1h3.62c6.09,0,12.07-1.63,17.31-4.71.03-.02.05-.03.08-.04l52.39-22.65c.37-.16.81.01.97.39.16.38-.01.81-.39.97l-52.35,22.63c-5.45,3.2-11.68,4.89-18.02,4.89Z"/>
  </g>
  <path class="cls-9" d="M763.79,1014.62h-12.4c-5.42,0-10.61-2.57-13.87-6.87l-1.54-2.03c-.25-.33-.18-.79.14-1.04.33-.25.79-.18,1.04.14l1.54,2.03c2.98,3.93,7.72,6.28,12.69,6.28h12.4c.41,0,.74.33.74.74s-.33.74-.74.74Z"/>
  <g>
    <path class="cls-9" d="M284.9,1066.87c0,1.92-1.57,3.47-3.5,3.47s-3.5-1.55-3.5-3.47,1.57-3.47,3.5-3.47,3.5,1.55,3.5,3.47Z"/>
    <path class="cls-9" d="M281.4,1067.61c-.41,0-.74-.33-.74-.74v-9.02c0-.41.33-.74.74-.74s.74.33.74.74v9.02c0,.41-.33.74-.74.74Z"/>
  </g>
  <g>
    <path class="cls-4" d="M138.15,1010.55l13.07,26.74c6.46,13.21,19.95,21.61,34.75,21.61h141.93c3.8,0,5.9-4.38,3.49-7.3l-4.76-5.8c-8.16-9.94-20.39-15.7-33.3-15.7h-128.66l-11.47-14.95c-2.22-2.89-5.67-4.59-9.33-4.59h-5.71Z"/>
    <path class="cls-9" d="M327.9,1059.63h-141.92c-14.98,0-28.88-8.64-35.42-22.02l-13.07-26.74c-.11-.23-.1-.5.04-.72.14-.22.37-.35.63-.35h5.71c3.87,0,7.58,1.82,9.92,4.88l11.25,14.66h128.29c13.19,0,25.54,5.82,33.88,15.97l4.76,5.8c1.29,1.57,1.55,3.68.68,5.51-.87,1.85-2.7,3-4.75,3ZM139.34,1011.29l12.55,25.67c6.29,12.87,19.67,21.19,34.09,21.19h141.92c1.48,0,2.79-.82,3.41-2.15.63-1.33.45-2.8-.49-3.94l-4.76-5.8c-8.05-9.81-19.98-15.43-32.73-15.43h-128.66c-.23,0-.45-.11-.59-.29l-11.47-14.95c-2.07-2.69-5.34-4.3-8.75-4.3h-4.53Z"/>
  </g>
  <polygon class="cls-8" points="284.9 1047.63 265.95 1047.63 259.41 1040.36 278.36 1040.36 284.9 1047.63"/>
  <path class="cls-4" d="M155.83,1078.28h7.48c7.71,0,15.29-2.06,21.92-5.96l64.96-28.08h-44.29l-50.07,34.04Z"/>
  <g>
    <path class="cls-4" d="M205.9,1044.24l-50.07,34.04h7.48c7.71,0,15.29-2.06,21.92-5.96l64.96-28.08h-44.29Z"/>
    <path class="cls-9" d="M163.31,1079.02h-7.48c-.33,0-.61-.21-.71-.52-.1-.31.02-.65.29-.83l50.07-34.04c.34-.23.8-.14,1.03.2.23.34.14.8-.2,1.03l-48.08,32.69h5.07c7.58,0,15.03-2.03,21.55-5.86.03-.02.05-.03.08-.04l64.96-28.08c.37-.16.81.01.97.39.16.38-.01.81-.39.97l-64.92,28.06c-6.74,3.95-14.43,6.04-22.26,6.04Z"/>
  </g>
  <path class="cls-9" d="M321.18,1044.66h-15.37c-6.67,0-13.04-3.16-17.05-8.45l-1.91-2.52c-.25-.33-.18-.79.14-1.04.33-.25.79-.18,1.04.14l1.91,2.52c3.73,4.92,9.66,7.86,15.87,7.86h15.37c.41,0,.74.33.74.74s-.33.74-.74.74Z"/>
  <g>
    <path class="cls-9" d="M640.39,1152.48c-.41,0-.74-.33-.74-.74v-272.51c0-.41.33-.74.74-.74s.74.33.74.74v272.51c0,.41-.33.74-.74.74Z"/>
    <path class="cls-9" d="M465.21,1152.48c-.41,0-.74-.33-.74-.74v-272.51c0-.41.33-.74.74-.74s.74.33.74.74v272.51c0,.41-.33.74-.74.74Z"/>
    <path class="cls-9" d="M290.03,1152.48c-.41,0-.74-.33-.74-.74v-272.51c0-.41.33-.74.74-.74s.74.33.74.74v272.51c0,.41-.33.74-.74.74Z"/>
  </g>
  <g>
    <g>
      <path class="cls-9" d="M905.34,1132.87c-.61,0-1.1.61-1.1,1.36v11.73c0,.75.49,1.36,1.1,1.36h1.36c.61,0,1.1-.61,1.1-1.36v-5.41c0-.75.49-1.36,1.1-1.36h61.03c.61,0,1.1.61,1.1,1.36v5.41c0,.75.49,1.36,1.1,1.36h1.36c.61,0,1.1-.61,1.1-1.36v-11.73c0-.75-.49-1.36-1.1-1.36h-68.16Z"/>
      <path class="cls-9" d="M973.01,1224.95c-.41,0-.74-.33-.74-.74v-79.52c0-.41.33-.74.74-.74s.74.33.74.74v79.52c0,.41-.33.74-.74.74Z"/>
      <path class="cls-9" d="M906.07,1224.95c-.41,0-.74-.33-.74-.74v-79.52c0-.41.33-.74.74-.74s.74.33.74.74v79.52c0,.41-.33.74-.74.74Z"/>
    </g>
    <rect class="cls-6" x="852.35" y="1194.03" width="174.14" height="251.27" rx="33.59" ry="33.59"/>
    <path class="cls-9" d="M882.3,1429.58h-1.11c-3.32,0-6.03-2.7-6.03-6.03v-201.24c0-3.32,2.7-6.03,6.03-6.03h1.11c3.32,0,6.03,2.7,6.03,6.03v201.24c0,3.32-2.7,6.03-6.03,6.03ZM881.18,1217.77c-2.51,0-4.55,2.04-4.55,4.54v201.24c0,2.51,2.04,4.55,4.55,4.55h1.11c2.51,0,4.55-2.04,4.55-4.55v-201.24c0-2.51-2.04-4.54-4.55-4.54h-1.11Z"/>
    <path class="cls-9" d="M921.16,1429.58h-1.12c-3.32,0-6.02-2.7-6.02-6.03v-201.24c0-3.32,2.7-6.03,6.02-6.03h1.12c3.32,0,6.02,2.7,6.02,6.03v201.24c0,3.32-2.7,6.03-6.02,6.03ZM920.05,1217.77c-2.51,0-4.54,2.04-4.54,4.54v201.24c0,2.51,2.04,4.55,4.54,4.55h1.12c2.51,0,4.54-2.04,4.54-4.55v-201.24c0-2.51-2.04-4.54-4.54-4.54h-1.12Z"/>
    <path class="cls-9" d="M960.02,1429.58h-1.11c-3.32,0-6.03-2.7-6.03-6.03v-201.24c0-3.32,2.7-6.03,6.03-6.03h1.11c3.32,0,6.03,2.7,6.03,6.03v201.24c0,3.32-2.7,6.03-6.03,6.03ZM958.91,1217.77c-2.51,0-4.55,2.04-4.55,4.54v201.24c0,2.51,2.04,4.55,4.55,4.55h1.11c2.51,0,4.55-2.04,4.55-4.55v-201.24c0-2.51-2.04-4.54-4.55-4.54h-1.11Z"/>
    <path class="cls-9" d="M998.89,1429.58h-1.11c-3.32,0-6.03-2.7-6.03-6.03v-201.24c0-3.32,2.7-6.03,6.03-6.03h1.11c3.32,0,6.03,2.7,6.03,6.03v201.24c0,3.32-2.7,6.03-6.03,6.03ZM997.77,1217.77c-2.51,0-4.55,2.04-4.55,4.54v201.24c0,2.51,2.04,4.55,4.55,4.55h1.11c2.51,0,4.55-2.04,4.55-4.55v-201.24c0-2.51-2.04-4.54-4.55-4.54h-1.11Z"/>
  </g>
  <g>
    <g>
      <ellipse class="cls-4" cx="897.33" cy="1456.83" rx="9.51" ry="9.48"/>
      <path class="cls-9" d="M897.33,1467.05c-5.65,0-10.25-4.58-10.25-10.22s4.6-10.22,10.25-10.22,10.25,4.58,10.25,10.22-4.6,10.22-10.25,10.22ZM897.33,1448.09c-4.83,0-8.77,3.92-8.77,8.74s3.93,8.74,8.77,8.74,8.76-3.92,8.76-8.74-3.93-8.74-8.76-8.74Z"/>
    </g>
    <g>
      <ellipse class="cls-4" cx="975.31" cy="1456.83" rx="9.51" ry="9.48"/>
      <path class="cls-9" d="M975.31,1467.05c-5.65,0-10.25-4.58-10.25-10.22s4.6-10.22,10.25-10.22,10.25,4.58,10.25,10.22-4.6,10.22-10.25,10.22ZM975.31,1448.09c-4.83,0-8.76,3.92-8.76,8.74s3.93,8.74,8.76,8.74,8.76-3.92,8.76-8.74-3.93-8.74-8.76-8.74Z"/>
    </g>
  </g>
  <g>
    <g>
      <path class="cls-9" d="M770.44,1465.3c-.41,0-.74-.33-.74-.74v-115.2c0-.41.33-.74.74-.74s.74.33.74.74v115.2c0,.41-.33.74-.74.74Z"/>
      <path class="cls-9" d="M597.26,1462.34c-.41,0-.74-.33-.74-.74v-112.24c0-.41.33-.74.74-.74s.74.33.74.74v112.24c0,.41-.33.74-.74.74Z"/>
      <ellipse class="cls-9" cx="596.59" cy="1461.61" rx="5.51" ry="4.99"/>
      <g>
        <path class="cls-4" d="M778.89,1346.58h-184.54c-12.92,0-24.27-7.78-27.8-19.05l-38.41-177.87c-3.71-11.87,6.12-23.66,19.73-23.66h119.04c9.32,0,17.46,5.69,19.83,13.86l34.11,176.92h58.38c7.28,0,13.09,5.51,12.74,12.11l-.35,6.66c-.32,6.17-5.93,11.02-12.74,11.02Z"/>
        <path class="cls-9" d="M778.89,1347.32h-184.54c-13.18,0-24.9-8.05-28.5-19.57l-38.42-177.93c-1.69-5.4-.68-11.24,2.78-15.96,3.96-5.38,10.56-8.59,17.67-8.59h119.04c9.64,0,18.09,5.92,20.54,14.39l34.01,176.39h57.77c3.92,0,7.64,1.55,10.21,4.25,2.28,2.4,3.44,5.46,3.27,8.63l-.35,6.66c-.34,6.57-6.26,11.72-13.48,11.72ZM547.87,1126.75c-6.64,0-12.8,2.99-16.48,7.99-3.18,4.33-4.11,9.69-2.54,14.7l38.42,177.93c3.39,10.84,14.53,18.46,27.07,18.46h184.54c6.43,0,11.7-4.53,12-10.32l.35-6.66c.14-2.76-.87-5.44-2.87-7.53-2.29-2.41-5.62-3.79-9.14-3.79h-58.38c-.35,0-.66-.25-.73-.6l-34.11-176.92c-2.26-7.78-10.12-13.26-19.11-13.26h-119.04Z"/>
      </g>
      <path class="cls-9" d="M715.82,1317.47h-116.41c-.41,0-.74-.33-.74-.74s.33-.74.74-.74h116.41c.41,0,.74.33.74.74s-.33.74-.74.74Z"/>
    </g>
    <g>
      <path class="cls-9" d="M569.39,1462.34c-.41,0-.74-.33-.74-.74v-112.24c0-.41.33-.74.74-.74s.74.33.74.74v112.24c0,.41-.33.74-.74.74Z"/>
      <path class="cls-9" d="M396.21,1465.3c-.41,0-.74-.33-.74-.74v-115.2c0-.41.33-.74.74-.74s.74.33.74.74v115.2c0,.41-.33.74-.74.74Z"/>
      <g>
        <path class="cls-4" d="M577.84,1346.58h-184.54c-12.92,0-24.27-7.78-27.8-19.05l-38.41-177.87c-3.71-11.87,6.12-23.66,19.73-23.66h119.04c9.32,0,17.46,5.69,19.83,13.86l34.11,176.92h58.38c7.28,0,13.09,5.51,12.74,12.11l-.35,6.66c-.32,6.17-5.93,11.02-12.74,11.02Z"/>
        <path class="cls-9" d="M577.84,1347.32h-184.54c-13.18,0-24.9-8.05-28.5-19.57l-38.42-177.93c-1.69-5.4-.68-11.24,2.78-15.96,3.96-5.38,10.56-8.59,17.67-8.59h119.04c9.64,0,18.09,5.92,20.54,14.39l34.01,176.39h57.77c3.92,0,7.64,1.55,10.21,4.25,2.28,2.4,3.44,5.46,3.27,8.63l-.35,6.66c-.34,6.57-6.26,11.72-13.48,11.72ZM346.82,1126.75c-6.64,0-12.8,2.99-16.48,7.99-3.18,4.33-4.11,9.69-2.54,14.7l38.42,177.93c3.39,10.84,14.53,18.46,27.07,18.46h184.54c6.43,0,11.7-4.53,12-10.32l.35-6.66c.14-2.76-.87-5.44-2.87-7.53-2.29-2.41-5.62-3.79-9.14-3.79h-58.38c-.35,0-.66-.25-.73-.6l-34.11-176.92c-2.26-7.78-10.12-13.26-19.11-13.26h-119.04Z"/>
      </g>
      <path class="cls-9" d="M514.77,1317.47h-116.41c-.41,0-.74-.33-.74-.74s.33-.74.74-.74h116.41c.41,0,.74.33.74.74s-.33.74-.74.74Z"/>
    </g>
    <g>
      <path class="cls-9" d="M368.34,1465.3c-.41,0-.74-.33-.74-.74v-115.2c0-.41.33-.74.74-.74s.74.33.74.74v115.2c0,.41-.33.74-.74.74Z"/>
      <path class="cls-9" d="M195.16,1465.3c-.41,0-.74-.33-.74-.74v-115.2c0-.41.33-.74.74-.74s.74.33.74.74v115.2c0,.41-.33.74-.74.74Z"/>
      <g>
        <path class="cls-4" d="M377.86,1346.58h-184.54c-12.92,0-24.27-7.78-27.8-19.05l-38.41-177.87c-3.71-11.87,6.12-23.66,19.73-23.66h119.04c9.32,0,17.46,5.69,19.83,13.86l34.11,176.92h58.38c7.28,0,13.09,5.51,12.74,12.11l-.35,6.66c-.32,6.17-5.93,11.02-12.74,11.02Z"/>
        <path class="cls-9" d="M377.86,1347.32h-184.54c-13.18,0-24.9-8.05-28.5-19.57l-38.42-177.93c-1.69-5.4-.68-11.24,2.78-15.96,3.96-5.38,10.56-8.59,17.67-8.59h119.04c9.64,0,18.09,5.92,20.54,14.39l34.01,176.39h57.77c3.92,0,7.64,1.55,10.21,4.25,2.28,2.4,3.44,5.46,3.27,8.63l-.35,6.66c-.34,6.57-6.26,11.72-13.48,11.72ZM146.84,1126.75c-6.64,0-12.8,2.99-16.48,7.99-3.18,4.33-4.11,9.69-2.54,14.7l38.42,177.93c3.39,10.84,14.53,18.46,27.07,18.46h184.54c6.43,0,11.7-4.53,12-10.32l.35-6.66c.14-2.76-.87-5.44-2.87-7.53-2.29-2.41-5.62-3.79-9.14-3.79h-58.38c-.35,0-.66-.25-.73-.6l-34.11-176.92c-2.26-7.78-10.12-13.26-19.11-13.26h-119.04Z"/>
      </g>
      <path class="cls-9" d="M313.72,1317.47h-130.14c-.41,0-.74-.33-.74-.74s.33-.74.74-.74h130.14c.41,0,.74.33.74.74s-.33.74-.74.74Z"/>
    </g>
  </g>
  <path class="cls-8" d="M462.02,1193.87l-14.87,38.44c-10.36,26.77,9.56,55.54,38.33,55.37,68.16-.41,170.13-.82,170.13.41,0,1.57-44.82,128.49-58.53,167.28-1.92,5.44,2.13,11.14,7.91,11.14h135.26c4.52,0,6.39-5.77,2.72-8.41l-33.45-24.04s37.08-75.96,63.13-149.68c15.62-44.2-17.36-90.52-64.36-90.52h-246.27Z"/>
  <path class="cls-9" d="M670.43,1446.85c-3.24,0-6.61-.17-10.1-.51-8.36-.81-16.72-2.46-24.81-4.06-6.62-1.31-13.47-2.66-20.26-3.54-.41-.05-.69-.42-.64-.83.05-.41.43-.69.83-.64,6.84.89,13.71,2.24,20.36,3.55,8.05,1.59,16.38,3.23,24.67,4.04,17.92,1.74,32.56-1.06,43.52-8.33.93-.62,1.9-1.31,2.7-2.17.28-.3.75-.32,1.05-.04.3.28.32.74.04,1.05-.9.98-1.96,1.74-2.97,2.41-9.1,6.04-20.63,9.08-34.38,9.08Z"/>
  <path class="cls-8" d="M417.88,1193.87l-14.87,38.44c-10.36,26.77,9.56,55.54,38.33,55.37,68.16-.41,170.13-.82,170.13.41,0,1.57-44.82,128.49-58.53,167.28-1.92,5.44,2.13,11.14,7.91,11.14h135.26c4.52,0,6.39-5.77,2.72-8.41l-33.45-24.04s37.08-75.96,63.13-149.68c15.62-44.2-17.36-90.52-64.36-90.52h-246.27Z"/>
  <path class="cls-9" d="M687.95,1467.25c-.41,0-.74-.33-.74-.74s.33-.74.74-.74c2.1,0,3.3-1.4,3.73-2.71.42-1.3.26-3.13-1.44-4.36-.03-.02-.05-.04-.08-.06l-25.3-24.04c-.23-.22-.3-.57-.16-.86.37-.76,37.36-76.77,63.1-149.6,7.34-20.76,4.24-43-8.5-61.01-12.82-18.13-32.93-28.52-55.16-28.52-.41,0-.74-.33-.74-.74s.33-.74.74-.74c22.72,0,43.27,10.62,56.37,29.15,13.02,18.4,16.18,41.13,8.68,62.35-24.68,69.85-59.7,142.61-62.93,149.27l24.87,23.63c1.9,1.39,2.66,3.74,1.94,5.98-.73,2.27-2.75,3.74-5.14,3.74Z"/>
  <path class="cls-9" d="M626.29,1446.85c-3.24,0-6.61-.17-10.1-.51-8.36-.81-16.72-2.46-24.81-4.06-6.62-1.31-13.47-2.66-20.26-3.54-.41-.05-.69-.42-.64-.83.05-.41.43-.69.83-.64,6.84.89,13.71,2.24,20.36,3.55,8.05,1.59,16.38,3.23,24.67,4.04,17.92,1.74,32.56-1.06,43.52-8.33.93-.62,1.9-1.31,2.7-2.17.28-.3.75-.32,1.05-.04.3.28.32.74.04,1.05-.9.98-1.96,1.74-2.97,2.41-9.1,6.04-20.63,9.08-34.38,9.08Z"/>
  <path class="cls-9" d="M651.55,1289.08h-34.22c-.41,0-.74-.33-.74-.74s.33-.74.74-.74h34.22c.41,0,.74.33.74.74s-.33.74-.74.74Z"/>
  <g>
    <g>
      <path class="cls-4" d="M407.59,1142.62c.43-1.17,11.25-26.52,19.88-46.71,6.41-15.01,21.29-24.66,37.65-24.43l112.85,1.62c17.83.26,33.43,12.02,38.54,29.06l12.12,40.45,52.2,19.52-28.68,33.34c-12.56,14.59-30.96,22.88-50.24,22.63l-175.04-2.31-19.28-73.17Z"/>
      <path class="cls-9" d="M602.79,1218.84c-.29,0-.59,0-.88,0l-175.04-2.31c-.33,0-.62-.23-.71-.55l-19.28-73.17c-.04-.15-.03-.3.02-.45.35-.94,7.04-16.66,19.89-46.74,6.48-15.17,21.25-24.88,37.74-24.88.2,0,.4,0,.61,0l112.85,1.62c18.24.26,34.01,12.15,39.24,29.59l12.02,40.09,51.86,19.39c.23.08.4.28.46.51.06.23,0,.48-.16.67l-28.68,33.34c-12.54,14.58-30.7,22.89-49.93,22.89ZM427.45,1215.05l174.48,2.31c19.15.25,37.22-7.9,49.67-22.37l27.99-32.53-51.21-19.15c-.22-.08-.38-.26-.45-.48l-12.12-40.45c-5.04-16.81-20.25-28.28-37.84-28.53l-112.85-1.62c-16.12-.24-30.64,9.18-36.96,23.98-12.1,28.31-18.9,44.31-19.78,46.46l19.08,72.39Z"/>
    </g>
    <path class="cls-9" d="M600.98,1176.77c-.17,0-.33-.06-.47-.17-.32-.26-.36-.73-.1-1.04l27.65-33.41c.26-.31.73-.36,1.04-.1.32.26.36.73.1,1.04l-27.65,33.41c-.15.18-.36.27-.57.27Z"/>
    <path class="cls-9" d="M651.23,1165.35h-80.42c-1.21,0-1.96-1.31-1.35-2.35l53.95-92.15c.64-1.09,1.81-1.76,3.07-1.76h80.41c1.06,0,1.71,1.14,1.18,2.05l-54.3,92.75c-.53.9-1.5,1.46-2.55,1.46Z"/>
    <g>
      <g>
        <path class="cls-4" d="M656.25,1159.65l24.58,2.48,20.01-32.94c3.99-6.58,3.05-15.01-2.3-20.54l-11.65-12.06c-3.06-3.17-8.55-1.68-9.39,2.64-.43,2.22.04,4.69,2.48,7.04l-1.39-1.21c-3.61-3.15-9.22.34-7.82,4.91.45,1.46,1.16,3.11,2.23,4.98l-2.08-1.14c-4.84-2.64-10.22,2.5-7.78,7.43.75,1.52,1.86,3.16,3.45,4.9l-1.35-.5c-5.18-1.92-8.72,5.35-3.96,8.15.06.04.13.08.2.11,7.31,4.12,0,16.81,0,16.81l-5.23,8.93Z"/>
        <path class="cls-9" d="M680.84,1162.88s-.05,0-.07,0l-24.58-2.48c-.25-.03-.47-.18-.59-.4-.11-.22-.11-.49.02-.71l5.23-8.93c.04-.07,4.24-7.46,2.87-12.45-.41-1.49-1.26-2.58-2.6-3.34l-.21-.12c-2.83-1.67-3.05-4.68-2.05-6.76.89-1.87,2.93-3.45,5.55-3.02-.77-1.03-1.41-2.06-1.92-3.08-1.26-2.53-.75-5.44,1.29-7.4,2.04-1.96,4.96-2.37,7.45-1.04-.48-1.02-.86-2-1.15-2.95-.72-2.37.17-4.79,2.28-6.15,1.49-.97,3.21-1.18,4.77-.67-.51-1.34-.62-2.77-.33-4.28.44-2.26,2.03-4.01,4.28-4.67,2.29-.68,4.73-.04,6.37,1.66l11.65,12.06c5.58,5.77,6.56,14.59,2.4,21.44l-20.01,32.94c-.14.22-.38.36-.63.36ZM657.47,1159.03l22.97,2.32,19.76-32.54c3.81-6.28,2.91-14.36-2.2-19.65l-11.65-12.06c-1.26-1.3-3.13-1.79-4.88-1.27-1.7.51-2.91,1.83-3.24,3.54-.45,2.34.31,4.48,2.26,6.37.29.28.3.74.03,1.03-.27.3-.73.32-1.03.06l-1.39-1.21c-1.72-1.5-3.75-1.12-4.96-.34-1.22.79-2.3,2.38-1.66,4.48.46,1.5,1.18,3.12,2.16,4.82.16.29.12.65-.11.89-.23.24-.59.29-.88.13l-2.08-1.14c-1.92-1.05-4.19-.75-5.77.77-1.25,1.2-2.16,3.32-.99,5.68.78,1.56,1.9,3.15,3.33,4.73.23.25.26.63.07.91-.19.28-.55.4-.87.28l-1.35-.5c-2.27-.84-4.05.38-4.8,1.97-.74,1.55-.57,3.65,1.47,4.85l.19.11c1.68.94,2.79,2.37,3.3,4.24,1.53,5.58-2.84,13.26-3.02,13.58l-4.65,7.94Z"/>
      </g>
      <path class="cls-9" d="M692.11,1119.36c-.19,0-.38-.07-.53-.22l-12.12-12.33c-.29-.29-.28-.76,0-1.05.29-.29.76-.28,1.05,0l12.12,12.33c.29.29.28.76,0,1.05-.14.14-.33.21-.52.21Z"/>
      <path class="cls-9" d="M685.07,1128.58c-.2,0-.39-.08-.54-.23l-12.06-12.88c-.28-.3-.26-.77.03-1.05.3-.28.77-.26,1.05.03l12.07,12.88c.28.3.26.77-.03,1.05-.14.13-.32.2-.51.2Z"/>
      <path class="cls-9" d="M677.45,1136.89c-.18,0-.36-.06-.5-.2l-10.86-9.99c-.3-.28-.32-.75-.04-1.05.28-.3.75-.32,1.05-.04l10.86,9.99c.3.28.32.75.04,1.05-.15.16-.34.24-.54.24Z"/>
    </g>
  </g>
  <g>
    <g>
      <path class="cls-4" d="M528.04,1024.22l-14.75,45.23c-1.32,4.05.71,8.46,4.53,9.84,13.97,5.04,43.56,13.98,34.23-4.48l7.77-43.36-31.78-7.23Z"/>
      <path class="cls-9" d="M529.03,1025.96l29.09,6.62-7.52,41.97c-.06.32,0,.64.14.93,1.63,3.22,2.04,5.64,1.2,7.01-1,1.63-3.92,1.97-6.19,1.97-8.02,0-20.63-4.11-27.42-6.56-3.07-1.11-4.7-4.69-3.63-7.99l14.33-43.94ZM528.05,1024.22l-14.75,45.23c-1.32,4.05.71,8.46,4.53,9.84,7.61,2.74,19.86,6.65,27.93,6.65,6.74,0,10.55-2.72,6.3-11.13l7.77-43.36-31.78-7.23Z"/>
    </g>
    <g>
      <g>
        <path class="cls-9" d="M534.8,1002.67c-12.91-2.91-16.99-6.55-16.99-6.55,0,0-4.2-2.89-2.67-11.46,1.53-8.57,17.18-20.81,35.24-3.86,18.07,16.95,39.66,32.92,22.98,35.42,0,0,9.12,16.42-14.44,13.37l-8.45,9.87s-11.95,24.14-32.56,17.47c-20.62-6.67-14.17-15.07-11.67-23.19.73-2.38,2.03-6.59,3.5-11.36,4.38,1.72,9.86,4.44,16.91,8.27,15.27,8.31,21.06-25.06,8.15-27.97Z"/>
        <g>
          <path class="cls-4" d="M534.8,1002.67c12.91,2.91,21.64,5.4,17.02,16.82-4.63,11.43-9.89,19.45-25.17,11.15-7.05-3.84-12.53-6.55-16.91-8.27,3.54-11.51,8.08-26.25,8.08-26.25,0,0,4.08,3.64,16.99,6.55Z"/>
          <path class="cls-9" d="M518.64,998.47c2.34,1.39,7.18,3.7,15.84,5.65,8.18,1.84,14.59,3.54,16.49,7.16.98,1.87.81,4.38-.52,7.66-3.41,8.42-6.76,13.64-12.9,13.64-2.8,0-6.23-1.09-10.19-3.24-6.7-3.64-11.77-6.16-15.81-7.84l7.09-23.03ZM518.26,994.83s-5.56,17.88-9.1,29.39c4.38,1.72,9.41,4.52,16.47,8.36,4.38,2.38,9.37,3.18,12.32,3.18,7.35,0,11.96-8.14,15.26-16.29,4.63-11.43-5.18-14.87-18.09-17.78-12.91-2.91-16.86-6.87-16.86-6.87Z"/>
        </g>
      </g>
      <g>
        <g>
          <path class="cls-4" d="M550.47,1030.47s10.44-10.56,14.3-3.27c3.87,7.29-8.3,16.99-15.4,8.42l1.1-5.15Z"/>
          <path class="cls-9" d="M555.98,1039.73c-2.42,0-4.98-.99-7.18-3.63-.14-.17-.2-.41-.15-.63l1.1-5.15c.03-.14.1-.27.2-.37.27-.27,6.71-6.72,11.66-6,1.65.24,2.94,1.22,3.83,2.9,2.2,4.14-.22,8.71-3.75,11.07-1.57,1.05-3.58,1.8-5.7,1.8ZM550.17,1035.42c3.45,3.9,7.89,3.15,10.68,1.28,2.98-1.99,5.05-5.77,3.27-9.14-.67-1.26-1.56-1.96-2.73-2.13-3.41-.5-8.39,3.61-10.24,5.42l-.98,4.58Z"/>
        </g>
        <path class="cls-9" d="M553.95,1034.11c-.22,0-.44-.1-.59-.29-.25-.32-.19-.79.13-1.04,1.81-1.39,4.07-2.12,6.35-2.07.41.01.73.35.72.76-.01.41-.38.73-.76.72-1.93-.05-3.89.59-5.41,1.76-.13.1-.29.15-.45.15Z"/>
      </g>
    </g>
  </g>
  <g>
    <path class="cls-4" d="M580.93,1184.28l-108.67,15.02-80.47-.37c-13.67,48.64,144.46,67.05,144.46,67.05l-63.87,79.91c-6.13,7.67-7,18.28-2.14,26.8,13.42,23.48,41.85,61.05,56.42,79.88,3.61,4.66,11.03,3.06,12.38-2.68l7.66-32.59,89.35-150.42c23.57-39.68-9.3-88.94-55.12-82.6Z"/>
    <path class="cls-9" d="M532.18,1456.04c-2.37,0-4.61-1.08-6.1-3.01-15.39-19.88-43.18-56.7-56.48-79.96-5.04-8.81-4.17-19.66,2.2-27.63l63.05-78.88c-6.1-.77-32.38-4.29-60.6-11.09-43.16-10.41-70.03-23.13-79.87-37.81-4.03-6.01-5.14-12.38-3.3-18.93.09-.32.38-.54.71-.54h0l80.41.37,108.62-15.02c21.48-2.97,42.29,6.37,54.3,24.37.23.34.14.8-.21,1.03-.34.23-.8.13-1.03-.2-11.69-17.52-31.95-26.61-52.86-23.72l-108.67,15.02s-.06,0-.1,0l-79.9-.37c-1.51,5.92-.42,11.69,3.25,17.16,23.02,34.34,139.55,48.28,140.73,48.42.27.03.5.2.6.45.1.25.06.53-.11.74l-63.87,79.91c-5.99,7.5-6.81,17.69-2.07,25.97,13.25,23.19,41,59.94,56.37,79.79,1.49,1.93,3.91,2.81,6.3,2.29,2.39-.52,4.22-2.31,4.77-4.68l7.66-32.59c.02-.07.05-.14.08-.21l32.61-54.9c.21-.35.66-.47,1.01-.26.35.21.47.66.26,1.01l-32.55,54.81-7.64,32.48c-.69,2.93-2.95,5.15-5.9,5.79-.56.12-1.12.18-1.68.18Z"/>
    <path class="cls-9" d="M539.73,1415.99c-.2,0-.4-.08-.55-.25-21.84-24.35-39.08-52.08-51.24-82.41-.15-.38.03-.81.41-.96.38-.15.81.03.96.41,12.1,30.17,29.25,57.75,50.97,81.97.27.3.25.77-.06,1.05-.14.13-.32.19-.49.19Z"/>
  </g>
  <path class="cls-9" d="M536.26,1327.83h0l-29.65-.11c-.41,0-.74-.33-.74-.74,0-.41.33-.74.74-.74h0l29.65.11c.41,0,.74.33.74.74,0,.41-.33.74-.74.74Z"/>
  <path class="cls-4" d="M572.41,1454.29c2.63,4.65,6,8.75,9.91,12.21l115.36-.17c-27.16-42.63-58.6-108.57-85.3-168.69-18.04-40.61-58.85-66.39-103.39-65.27l-84.94,2.13,20.2-40.31-26.02-4.73-111.71,20.51c-25.71,101.99,61.07,106.74,61.07,106.74,2.46.16,128.79.42,128.79.42l76.03,137.14Z"/>
  <path class="cls-9" d="M560.74,1433.99c-.26,0-.51-.14-.65-.38l-64.15-115.72c-9.43-.02-125.99-.27-128.4-.42-.33-.02-34.25-2.16-53.42-28.2-14.02-19.04-16.82-45.78-8.33-79.46.07-.28.3-.49.58-.55l111.71-20.51c.09-.02.18-.02.27,0l26.02,4.73c.4.07.67.46.6.86-.07.4-.46.67-.86.6l-25.89-4.71-111.11,20.4c-8.24,33.02-5.48,59.18,8.2,77.76,18.76,25.48,51.98,27.58,52.31,27.6,2.42.15,127.49.42,128.75.42.27,0,.52.15.65.38l64.36,116.1c.2.36.07.81-.29,1.01-.11.06-.24.09-.36.09Z"/>
  <path class="cls-9" d="M614.29,1302.69c-.29,0-.56-.17-.68-.46-18-43.13-59.08-70.25-104.6-69.11l-84.94,2.13c-.43,0-.75-.31-.76-.72-.01-.41.31-.75.72-.76l84.94-2.13c22.38-.56,44.06,5.51,62.72,17.56,19.17,12.38,34.14,30.52,43.29,52.46.16.38-.02.81-.4.97-.09.04-.19.06-.28.06Z"/>
  <path class="cls-6" d="M318.31,1237.05l17.03-75.18-51.61-11.52s12.64-51.33,34.81-66.58c26.65-18.33,108.75-7.95,128.94,4.63,24.76,15.42,30.95,64.27,30.95,64.27l-32.49.64s.77,39.87,1.24,48.99l-128.86,34.76Z"/>
  <path class="cls-4" d="M476.79,1152.66c5.9,24.28,9.46,45.58,9.46,45.58h-40.09l-.48-45.58h31.11Z"/>
  <path class="cls-9" d="M486.26,1198.98h-39.08c-.41,0-.74-.33-.74-.74s.33-.74.74-.74h38.2c-.73-4.23-4.14-23.41-9.3-44.66-.1-.4.15-.8.54-.89.39-.1.8.15.89.54,5.84,24.03,9.44,45.42,9.47,45.63.04.21-.02.43-.17.6-.14.17-.35.26-.56.26Z"/>
  <g>
    <path class="cls-4" d="M303.57,1246.97s108.08,2.78,143.6-43.99l-1.15-61.64c-.04-2.68-.35-5.36-.95-7.98l-10.41-50.06-16.71-4.24-12.31,50.82-34.45-55.41-20.34.62s10.52,40.1-1.95,65.48c-2.68,5.45-6.03,11.06-6.03,11.06l-40.33,72.74,1.05,22.6Z"/>
    <path class="cls-9" d="M300.82,1248.68c-.35,0-.66-.25-.73-.6-.08-.4.19-.79.59-.87l6.49-1.23s.08-.02.14-.01c.29,0,.58,0,.86,0,56.25,0,90.87-11.46,110.04-21.1,20.85-10.49,28.4-21.14,28.47-21.25.23-.34.69-.42,1.03-.19.34.23.42.69.19,1.03-.31.44-7.76,11-28.89,21.66-19.32,9.75-54.21,21.33-110.84,21.33-.26,0-.53,0-.8,0l-6.43,1.22s-.09.01-.14.01Z"/>
    <path class="cls-9" d="M377.94,1156.96c-1.76,0-3.53-.2-5.27-.59-6.92-1.59-12.92-6.35-16.03-12.72-.18-.37-.03-.81.34-.99.37-.18.81-.03.99.34,2.92,5.97,8.54,10.43,15.04,11.93,6.49,1.49,13.51-.06,18.76-4.15.32-.25.79-.19,1.04.13.25.32.19.79-.13,1.04-4.2,3.27-9.45,5.02-14.73,5.02Z"/>
    <path class="cls-9" d="M423.88,1154.94c-2.21,0-4.41-.39-6.46-1.18-.38-.15-.57-.58-.42-.96.15-.38.58-.57.96-.42,4.58,1.78,10.06,1.35,14.31-1.13,4.24-2.48,7.31-7.03,7.99-11.88.06-.4.44-.69.84-.63.4.06.69.43.63.84-.75,5.29-4.09,10.26-8.71,12.96-2.73,1.6-5.94,2.41-9.14,2.41Z"/>
    <path class="cls-9" d="M351.48,1075.99c-.37,0-.7-.28-.74-.66-.04-.41.25-.77.66-.81.51-.05,12.64-1.29,19.55-.75.41.03.71.39.68.8-.03.41-.39.71-.8.68-6.77-.53-19.16.74-19.28.75-.03,0-.05,0-.08,0Z"/>
    <path class="cls-9" d="M434.36,1084.44c-.09,0-.19-.02-.28-.05-6.79-2.75-15.7-4.03-15.79-4.04-.4-.06-.69-.43-.63-.84.06-.4.43-.69.84-.63.37.05,9.18,1.32,16.14,4.14.38.15.56.59.41.96-.12.29-.39.46-.69.46Z"/>
  </g>
  <g>
    <path class="cls-4" d="M342.86,1151.63c-4.43,24.93-7.87,43.23-7.87,43.23,0,0,30.82-20.27,57.76-30.24,17.54-6.49,32.02,5.52,39.99,14.7,3.49,4.02,1.46,10.3-3.72,11.56l-20.85,5.09c-8.99-.03-65.98,59.78-88.72,59.37-22.73-.41-56.44-35.53-34.96-104.74,21.32-3.77,58.36,1.03,58.36,1.03Z"/>
    <path class="cls-9" d="M415.2,1191.88c-.31,0-.59-.19-.7-.5-1.73-4.97-5.65-9.2-10.49-11.32-.37-.16-.55-.6-.38-.98.16-.37.6-.55.98-.38,5.2,2.28,9.43,6.84,11.29,12.19.13.39-.07.81-.46.94-.08.03-.16.04-.24.04Z"/>
    <path class="cls-9" d="M425.02,1189.92c-.32,0-.61-.21-.71-.53-1.82-6.08-6.35-11.32-12.11-14.02-.37-.17-.53-.61-.36-.98.17-.37.61-.53.98-.36,6.13,2.88,10.96,8.46,12.9,14.93.12.39-.1.8-.5.92-.07.02-.14.03-.21.03Z"/>
    <path class="cls-9" d="M319.69,1256.09c-.08,0-.16,0-.25,0-10.35-.19-21.33-6.94-29.38-18.07-8.74-12.1-21.19-39.57-6.27-87.63.12-.39.53-.61.93-.49.39.12.61.54.49.93-14.73,47.45-2.53,74.45,6.06,86.32,7.66,10.6,18.47,17.29,28.21,17.46.07,0,.15,0,.22,0,13.8,0,41.11-22.85,61.08-39.57,14.99-12.54,23.7-19.69,27.3-19.8l20.77-5.07c2.19-.54,3.91-2.14,4.59-4.28.68-2.12.21-4.39-1.25-6.07-8.69-10-22.55-20.64-39.17-14.49-26.56,9.82-57.3,29.96-57.61,30.16-.25.16-.57.16-.82,0-.25-.16-.37-.46-.32-.75.03-.18,3.49-18.59,7.87-43.23.07-.4.45-.67.86-.6.4.07.67.46.6.86-3.61,20.35-6.6,36.45-7.55,41.55,6.43-4.11,33.05-20.72,56.46-29.38,18.34-6.78,33.44,6.43,40.8,14.9,1.8,2.07,2.38,4.87,1.54,7.49-.84,2.64-2.95,4.61-5.65,5.27l-20.85,5.09c-.06.01-.13.02-.18.02h0c-3.19,0-14.48,9.45-26.44,19.46-21.26,17.79-47.7,39.91-62.04,39.91Z"/>
  </g>
  <g>
    <path class="cls-4" d="M528.81,1103.25c8.78-1.82,17.94-5.38,19.5-.51,1.56,4.87-11.47,9.25-11.47,9.25,10.58,3.5,22.81-5.68,25.91-2.25,3.1,3.43-2.83,8.14-2.83,8.14,0,0,7.74-5.76,10.85-.61,3.11,5.15-7.64,9.93-7.64,9.93,0,0,9.35-3.86,10.44,3.4,1.09,7.26-22.28,8.5-22.28,8.5,4.54.02,10.88,2.17,10.4,5.37-.48,3.2-8.59,2.77-17.36,3.46-8.77.69-20.67-1.96-20.67-1.96-5.65,14.13-17.97,42.76-22.72,52.85-7.16,15.21-34.21,33.65-53.76,3.46l-.66-18.86s42.51-50.69,50.52-62.08c10.62-15.1,22.99-16.28,31.78-18.1Z"/>
    <path class="cls-9" d="M472.36,1219.22c-7.02,0-16.64-3.11-25.35-16.56-.22-.34-.12-.8.22-1.02.34-.22.8-.12,1.02.22,7.12,11.01,15.99,16.48,25.61,15.83,11.65-.78,22.29-10.46,26.39-19.17,4.84-10.27,17.15-38.9,22.71-52.81.13-.34.49-.53.85-.45.12.03,11.9,2.62,20.45,1.94,1.88-.15,3.71-.24,5.48-.34,5.62-.3,10.92-.57,11.21-2.5.08-.51-.09-1-.52-1.49-1.59-1.85-5.99-3.01-9.15-3.03-.4,0-.73-.32-.74-.72,0-.4.3-.74.7-.76.17,0,17.18-.96,20.96-5.59.53-.65.74-1.33.63-2.06-.23-1.54-.86-2.58-1.93-3.19-2.76-1.56-7.45.34-7.49.36-.37.15-.8-.02-.96-.39-.16-.37,0-.8.38-.97.07-.03,6.53-2.94,7.62-6.42.27-.86.17-1.66-.31-2.46-.57-.95-1.34-1.51-2.34-1.7-3.15-.62-7.39,2.49-7.43,2.52-.33.24-.78.18-1.03-.14-.25-.32-.19-.78.13-1.03.03-.03,3.24-2.61,3.44-5.09.06-.75-.17-1.39-.7-1.98-1.07-1.18-4.23-.21-7.88.91-5.18,1.59-11.64,3.57-17.72,1.55-.3-.1-.51-.38-.51-.7,0-.32.2-.6.5-.7,3.2-1.08,12.09-4.91,11-8.32-1.04-3.24-7.01-1.77-13.34-.22-1.73.42-3.52.86-5.3,1.23-.76.16-1.54.31-2.35.47-8.66,1.68-19.44,3.77-28.97,17.33-4.78,6.8-21.48,27.4-34.65,43.48-.26.32-.72.36-1.04.1-.32-.26-.36-.73-.1-1.04,13.15-16.06,29.83-36.63,34.59-43.39,9.88-14.05,21.45-16.29,29.9-17.93.8-.16,1.58-.31,2.33-.46,1.75-.36,3.53-.8,5.25-1.22,7.02-1.72,13.65-3.34,15.1,1.21,1.35,4.21-5.77,7.74-9.67,9.32,4.99.81,10.22-.79,14.54-2.12,4.31-1.32,7.71-2.37,9.41-.49.81.89,1.17,1.93,1.08,3.1-.08,1-.5,1.97-1.04,2.84,1.48-.58,3.18-.98,4.75-.67,1.42.28,2.54,1.08,3.33,2.39.7,1.16.85,2.4.45,3.67-.6,1.92-2.42,3.62-4.22,4.89,1.36-.06,2.79.11,3.99.79,1.47.83,2.37,2.26,2.67,4.26.17,1.15-.15,2.23-.95,3.21-2.69,3.3-10.71,4.88-16.3,5.59,1.86.6,3.53,1.48,4.5,2.61.7.82,1,1.75.86,2.68-.47,3.12-5.55,3.38-12.6,3.75-1.76.09-3.58.19-5.44.34-7.74.61-17.7-1.31-20.28-1.84-5.67,14.13-17.73,42.16-22.51,52.31-4.39,9.32-15.29,19.18-27.63,20.01-.52.03-1.05.05-1.6.05Z"/>
    <path class="cls-9" d="M543.68,1139.55c-.41,0-.74-.33-.74-.73,0-.41.32-.74.73-.75l6.96-.07h0c.41,0,.74.33.74.73,0,.41-.32.74-.73.75l-6.96.07h0Z"/>
    <path class="cls-9" d="M549.27,1129.18c-1.81,0-3.61-.07-5.41-.22-.41-.03-.71-.39-.68-.8.03-.41.38-.71.8-.68,5.96.48,11.96.15,17.84-.98.4-.08.79.19.87.59.08.4-.19.79-.59.87-4.23.81-8.52,1.22-12.82,1.22Z"/>
    <path class="cls-9" d="M548.57,1120.55c-2.13,0-4.25-.16-6.34-.49-.4-.06-.68-.44-.62-.85.06-.4.44-.68.85-.62,5.35.85,10.95.56,16.19-.82.39-.1.8.13.9.53.1.4-.13.8-.53.9-3.39.9-6.93,1.35-10.46,1.35Z"/>
    <path class="cls-9" d="M526.88,1126.89c-.14,0-.28-.04-.41-.12-.34-.23-.43-.68-.21-1.03.96-1.45,1.46-3.12,1.99-4.89.24-.8.49-1.63.78-2.44.72-1.97,2.43-5.38,5.78-6.11.4-.09.79.17.88.56.09.4-.17.79-.56.88-2.66.58-4.09,3.49-4.71,5.18-.28.76-.52,1.57-.76,2.36-.54,1.8-1.1,3.66-2.17,5.29-.14.22-.38.33-.62.33Z"/>
    <path class="cls-9" d="M516.53,1146.78c-.33,0-.64-.23-.72-.57-.1-.4.15-.8.54-.89,1.95-.47,3.95-.62,5.95-.44.41.04.71.4.67.8-.04.41-.39.71-.8.67-1.84-.17-3.67-.03-5.47.41-.06.01-.12.02-.18.02Z"/>
    <path class="cls-9" d="M447.63,1204.19c-.4,0-.73-.32-.74-.72l-1.12-50.16c0-.41.32-.75.72-.76,0,0,.01,0,.02,0,.4,0,.73.32.74.72l1.12,50.16c0,.41-.32.75-.72.76,0,0-.01,0-.02,0Z"/>
  </g>
  <g>
    <g>
      <path class="cls-9" d="M369.25,1006.09c-11.81-11.55-11.99-30.18,1.78-36.22,16.11-7.07,29.15,2.79,32.03,16.8,3.03,14.73,5.16,26.96-4.97,30.61-8.16,2.94-18.6-1.18-28.84-11.19Z"/>
      <path class="cls-9" d="M397.65,1027.56c4.11,9.52.25,20.28-8.63,24.04-8.88,3.75-19.41-.92-23.53-10.45-4.11-9.52,3.28-26.42,12.16-30.18,8.88-3.75,15.88,7.06,20,16.59Z"/>
    </g>
    <path class="cls-9" d="M383.53,1044.95c-6.09-15.69-10.97-28.27-5.74-37.62,4.07-7.28,9.31-2.95,26.89-13.29,14.26-8.39,20.81-17.05,30.67-15.07,3.4.68,5.65,2.32,6.24,2.77,10.02,7.6,6.52,26.02,6.31,27.32-.93,5.78.13,4.77-53.11,43.83-3.13-1.65-7.99.49-11.26-7.94Z"/>
    <g>
      <path class="cls-4" d="M395.47,1040.08l-15.53,39.25s.07,7.59,19.07,12.79c2.7.74,10.08,1.13,12.55-.48,3.23-2.1,3.3-4.68,1.77-7.56-1.87-3.52-2.24-4.37-2.24-4.37l9.43-26.91-25.05-12.72Z"/>
      <path class="cls-9" d="M411.09,1080.45c-.08,0-.16-.01-.25-.04-.39-.14-.59-.56-.45-.94l9.22-26.3-23.75-12.06-13.33,33.68c-.15.38-.58.56-.96.42-.38-.15-.57-.58-.42-.96l13.63-34.44c.08-.19.23-.35.43-.42s.41-.06.6.03l25.05,12.72c.33.17.49.55.36.9l-9.43,26.91c-.11.3-.39.5-.7.5Z"/>
      <g>
        <g>
          <path class="cls-4" d="M439.94,1036.92c-.57,5.96-2.24,11.94-5.71,16.83-3.47,4.89-8.9,8.59-14.88,9.12-5.19.46-10.43-1.49-14.5-4.72-4.08-3.24-7.07-7.68-9.19-12.42-5.44.35-10.87-3.39-12.47-8.59-.92-3-.54-6.53,1.57-8.85,2.11-2.32,6.1-2.94,8.47-.88,1.35,1.18,2.03,2.99,3.43,4.1,1.56,1.25,3.79,1.4,5.69.79,1.9-.62,3.51-1.91,4.9-3.34,4.39-4.49,7.06-10.61,7.36-16.88-.03.59,2.69,2.27,3.17,2.59,1.2.82,2.47,1.54,3.79,2.15,2.61,1.2,5.42,1.96,8.27,2.26,1.45.15,2.91.18,4.36.09,1.15-.07,2.8-.68,3.92-.37,2.34.64,1.83,5.08,1.93,6.88.2,3.74.25,7.5-.11,11.23Z"/>
          <path class="cls-9" d="M417.85,1063.68c-4.62,0-9.45-1.76-13.47-4.95-3.72-2.95-6.81-7.07-9.2-12.24-5.56.11-11.08-3.82-12.71-9.13-1.08-3.53-.42-7.2,1.73-9.57,2.49-2.74,6.93-3.18,9.5-.94.72.63,1.25,1.39,1.76,2.12.52.74,1,1.45,1.65,1.96,1.25,1,3.17,1.26,5,.66,1.52-.49,2.98-1.49,4.6-3.15,4.25-4.35,6.86-10.33,7.15-16.39h0c.02-.41.38-.72.78-.7.35.02.63.27.69.6.16.22.74.73,2.53,1.9.15.1.26.17.33.22,1.15.79,2.39,1.49,3.68,2.08,2.54,1.16,5.25,1.9,8.04,2.2,1.41.15,2.84.18,4.24.09.36-.02.79-.11,1.25-.2.94-.18,2.01-.39,2.9-.15,2.48.67,2.47,4.15,2.46,6.45,0,.42,0,.8.01,1.1.24,4.47.2,8.08-.11,11.34-.66,6.86-2.62,12.65-5.85,17.19-3.82,5.39-9.59,8.91-15.42,9.43-.52.05-1.04.07-1.56.07ZM395.65,1044.99c.29,0,.56.17.68.44,2.31,5.17,5.33,9.25,8.97,12.15,4.18,3.32,9.27,4.98,13.98,4.56,5.41-.48,10.77-3.77,14.34-8.81,3.07-4.33,4.95-9.87,5.58-16.48.31-3.19.34-6.72.1-11.12-.02-.32-.02-.73-.01-1.19,0-1.74.02-4.64-1.37-5.02-.56-.15-1.45.02-2.23.17-.51.1-.99.19-1.44.22-1.48.09-2.99.06-4.49-.09-2.96-.31-5.82-1.09-8.5-2.32-1.37-.63-2.68-1.37-3.9-2.21-.06-.04-.17-.11-.31-.2-.78-.51-1.38-.92-1.84-1.27-.67,5.83-3.33,11.46-7.43,15.66-1.79,1.83-3.44,2.95-5.2,3.52-2.3.75-4.75.4-6.38-.91-.81-.65-1.38-1.47-1.94-2.27-.48-.69-.94-1.35-1.52-1.85-1.95-1.7-5.5-1.31-7.43.82-1.78,1.95-2.33,5.15-1.41,8.14,1.49,4.85,6.63,8.39,11.71,8.06.02,0,.03,0,.05,0ZM439.94,1036.92h0,0ZM415.34,1012.12h0s0,0,0,0Z"/>
        </g>
        <path class="cls-9" d="M395.47,1040.82c-.36,0-.67-.26-.73-.62-.42-2.54-2.47-4.72-4.98-5.3-.4-.09-.65-.49-.56-.89.09-.4.49-.65.89-.56,3.09.71,5.6,3.38,6.11,6.5.07.4-.21.78-.61.85-.04,0-.08,0-.12,0Z"/>
      </g>
    </g>
  </g>
  <g>
    <g>
      <path class="cls-4" d="M220.45,1255.11c-10.18,0-18.46-8.24-18.46-18.37v-24.44c0-10.13,8.28-18.37,18.46-18.37s18.46,8.24,18.46,18.37v24.44c0,10.13-8.28,18.37-18.46,18.37ZM220.45,1197.67c-8.1,0-14.69,6.56-14.69,14.62v24.44c0,8.06,6.59,14.62,14.69,14.62s14.69-6.56,14.69-14.62v-24.44c0-8.06-6.59-14.62-14.69-14.62Z"/>
      <path class="cls-9" d="M220.45,1255.85c-10.59,0-19.2-8.57-19.2-19.11v-24.44c0-10.54,8.61-19.11,19.2-19.11s19.2,8.57,19.2,19.11v24.44c0,10.54-8.61,19.11-19.2,19.11ZM220.45,1194.66c-9.77,0-17.72,7.91-17.72,17.63v24.44c0,9.72,7.95,17.63,17.72,17.63s17.72-7.91,17.72-17.63v-24.44c0-9.72-7.95-17.63-17.72-17.63ZM220.45,1252.1c-8.51,0-15.43-6.89-15.43-15.36v-24.44c0-8.47,6.92-15.36,15.43-15.36s15.43,6.89,15.43,15.36v24.44c0,8.47-6.92,15.36-15.43,15.36ZM220.45,1198.41c-7.69,0-13.95,6.23-13.95,13.88v24.44c0,7.65,6.26,13.88,13.95,13.88s13.95-6.23,13.95-13.88v-24.44c0-7.65-6.26-13.88-13.95-13.88Z"/>
    </g>
    <g>
      <path class="cls-4" d="M239.29,1255.11c-10.18,0-18.46-8.24-18.46-18.37v-24.44c0-10.13,8.28-18.37,18.46-18.37s18.46,8.24,18.46,18.37v24.44c0,10.13-8.28,18.37-18.46,18.37ZM239.29,1197.67c-8.1,0-14.69,6.56-14.69,14.62v24.44c0,8.06,6.59,14.62,14.69,14.62s14.69-6.56,14.69-14.62v-24.44c0-8.06-6.59-14.62-14.69-14.62Z"/>
      <path class="cls-9" d="M239.29,1255.85c-10.59,0-19.2-8.57-19.2-19.11v-24.44c0-10.54,8.61-19.11,19.2-19.11s19.2,8.57,19.2,19.11v24.44c0,10.54-8.61,19.11-19.2,19.11ZM239.29,1194.66c-9.77,0-17.72,7.91-17.72,17.63v24.44c0,9.72,7.95,17.63,17.72,17.63s17.72-7.91,17.72-17.63v-24.44c0-9.72-7.95-17.63-17.72-17.63ZM239.29,1252.1c-8.51,0-15.43-6.89-15.43-15.36v-24.44c0-8.47,6.92-15.36,15.43-15.36s15.43,6.89,15.43,15.36v24.44c0,8.47-6.92,15.36-15.43,15.36ZM239.29,1198.41c-7.69,0-13.95,6.23-13.95,13.88v24.44c0,7.65,6.26,13.88,13.95,13.88s13.95-6.23,13.95-13.88v-24.44c0-7.65-6.26-13.88-13.95-13.88Z"/>
    </g>
    <g>
      <path class="cls-4" d="M282.04,1316.78h-103l6.83-86.16h95.77l6.33,79.77c.27,3.44-2.46,6.38-5.93,6.38Z"/>
      <path class="cls-9" d="M282.04,1317.52h-103c-.21,0-.4-.09-.54-.24-.14-.15-.21-.35-.19-.56l6.83-86.16c.03-.39.35-.68.74-.68h95.77c.39,0,.71.3.74.68l6.33,79.77c.15,1.84-.49,3.67-1.74,5.03-1.26,1.37-3.06,2.15-4.92,2.15ZM179.84,1316.04h102.2c1.47,0,2.84-.59,3.83-1.67.99-1.07,1.47-2.46,1.36-3.91l-6.27-79.09h-94.4l-6.72,84.68Z"/>
    </g>
    <g>
      <path class="cls-4" d="M197.25,1316.78h-21.2c-3.47,0-6.2-2.94-5.93-6.38l6.33-79.77h20.4l6.33,79.77c.27,3.44-2.46,6.38-5.93,6.38Z"/>
      <path class="cls-9" d="M197.25,1317.52h-21.2c-1.86,0-3.66-.78-4.92-2.15-1.25-1.36-1.89-3.19-1.75-5.03l6.33-79.77c.03-.39.35-.68.74-.68h20.4c.39,0,.71.3.74.68l6.33,79.77c.15,1.84-.49,3.67-1.74,5.03-1.26,1.37-3.06,2.15-4.92,2.15ZM177.13,1231.36l-6.27,79.09c-.11,1.45.37,2.84,1.36,3.91,1,1.08,2.36,1.67,3.83,1.67h21.2c1.47,0,2.84-.59,3.83-1.67.99-1.07,1.47-2.46,1.36-3.91l-6.27-79.09h-19.03Z"/>
    </g>
    <g>
      <path class="cls-9" d="M278.37,1259.67h-69.98c-.41,0-.74-.33-.74-.74s.33-.74.74-.74h69.98c.41,0,.74.33.74.74s-.33.74-.74.74Z"/>
      <g>
        <rect class="cls-4" x="233.35" y="1255.39" width="27.42" height="6.93"/>
        <path class="cls-9" d="M260.77,1263.05h-27.42c-.41,0-.74-.33-.74-.74v-6.93c0-.41.33-.74.74-.74h27.42c.41,0,.74.33.74.74v6.93c0,.41-.33.74-.74.74ZM234.09,1261.57h25.94v-5.44h-25.94v5.44Z"/>
      </g>
    </g>
  </g>
  <path class="cls-4" d="M682.36,1443.68l31.8,16.95c1.14.61,1.85,1.8,1.85,3.09h0c0,1.95-1.59,3.52-3.54,3.5l-58.27-.66,3.3-18.47,24.86-4.41Z"/>
  <path class="cls-9" d="M583.48,1468.28c-.31-.24-7.68-6.1-15.79-21.07l-10.76-19.3,1.31-.73,10.77,19.3c7.96,14.71,15.33,20.55,15.4,20.61l-.92,1.18Z"/>
  <polygon class="cls-9" points="678.46 1434.6 560.79 1434.6 560.79 1433.1 678.11 1433.1 678.46 1434.6"/>
  <path class="cls-1" d="M613.71,1300.65l43.91,93.42s21.53,43.06,27.18,50.91l27.68,14.75s3.52,1.18,3.53,3.98c0,0,.09,2.87-3.14,3.54"/>
</svg>