<?xml version="1.0" encoding="utf-8"?>
<!-- Generator: Adobe Illustrator 28.1.0, SVG Export Plug-In . SVG Version: 6.00 Build 0)  -->
<svg version="1.1" xmlns="http://www.w3.org/2000/svg" xmlns:xlink="http://www.w3.org/1999/xlink" x="0px" y="0px"
	 viewBox="0 0 2207.56 1611.44" style="enable-background:new 0 0 2207.56 1611.44;" xml:space="preserve">
<style type="text/css">
	.st0{display:none;}
	.st1{display:inline;opacity:0.53;}
	.st2{opacity:0.53;}
	.st3{fill:#E6EAFC;}
	.st4{fill:#FFFFFF;}
	.st5{fill:#FF00C6;}
	.st6{fill:none;stroke:#FF00C6;stroke-width:2;stroke-miterlimit:10;}
	.st7{fill:#031A6B;}
	.st8{fill:#E2EAFF;}
	.st9{fill:#00C0FF;}
	.st10{fill:none;stroke:#000000;stroke-width:2;stroke-linecap:round;stroke-miterlimit:10;}
	.st11{fill:none;stroke:#031A6B;stroke-width:3;stroke-miterlimit:10;}
	.st12{fill:none;stroke:#031A6B;stroke-width:1.5;stroke-miterlimit:10;}
	.st13{fill:none;stroke:#031A6B;stroke-miterlimit:10;}
</style>
<g id="Background">
</g>
<g id="Layer_3" class="st0">
</g>
<g id="Illustration">
	<path class="st3" d="M1704.91,521.7h325.58c-8.91-9.6-21.03-16.17-34.66-18c0.06-0.89,0.1-1.79,0.1-2.7
		c0-22.56-18.29-40.85-40.85-40.85c-1.02,0-2.04,0.05-3.04,0.12c-10.78-30.85-40.12-52.99-74.65-52.99
		c-29.58,0-55.34,16.25-68.91,40.3c-5.3-1.63-10.92-2.51-16.75-2.51c-31.47,0-56.98,25.51-56.98,56.98c0,0.86,0.03,1.71,0.06,2.56
		C1723.25,507.43,1712.95,513.46,1704.91,521.7z"/>
	<path class="st3" d="M1045.14,669.76h381.47c0.02-0.62,0.05-1.23,0.05-1.85c0-34.65-22.92-63.93-54.42-73.55
		c-9.22-46.11-49.92-80.86-98.75-80.86c-37.67,0-70.49,20.7-87.77,51.33c-6.75-2.07-13.91-3.19-21.34-3.19
		c-40.08,0-72.57,32.49-72.57,72.57c0,1.1,0.03,2.18,0.08,3.27C1072.61,642.18,1056.08,653.89,1045.14,669.76z"/>
	
		<ellipse transform="matrix(0.7071 -0.7071 0.7071 0.7071 57.6751 1316.1259)" class="st4" cx="1617.54" cy="588.44" rx="292.38" ry="292.38"/>
	<path class="st5" d="M1860.24,690.71c-13.41,0-26.91-4.71-36.52-13.54c-15.1-13.88-19.72-37.1-10.99-55.22
		c1.88-3.89,4.33-7.65,6.71-11.29c4.92-7.54,9.58-14.65,9.6-22.95c0.04-14.51-14.9-25.51-29.68-28.87
		c-9.65-2.2-19.82-2.19-29.67-2.17c-5.7,0.01-11.61,0.01-17.39-0.41c-54.96-3.98-103.93-50.54-111.46-106.01
		c-6.89-50.72,18.98-106.18,65.91-141.3c0.44-0.33,1.07-0.24,1.4,0.2c0.33,0.44,0.24,1.07-0.2,1.4
		c-46.36,34.69-71.92,89.42-65.13,139.43c7.42,54.57,55.57,100.37,109.63,104.29c5.71,0.41,11.57,0.41,17.24,0.4
		c9.95-0.01,20.25-0.02,30.12,2.22c15.56,3.54,31.28,15.27,31.24,30.83c-0.03,8.89-5.06,16.59-9.93,24.04
		c-2.34,3.58-4.76,7.29-6.58,11.06c-8.36,17.34-3.93,39.58,10.54,52.88c14.5,13.33,38.22,16.91,56.4,8.52
		c0.5-0.23,1.1-0.01,1.33,0.49c0.23,0.5,0.01,1.1-0.49,1.33C1875.47,689.18,1867.87,690.71,1860.24,690.71z"/>
	<path class="st6" d="M1325.15,593.2c0,0,97.47-49.94,137.35,0c0,0,13.21,12.75,4.92,44.74c0,0-13.82,47.97,22.14,52.77
		c0,0,19.64,1.97,48.2-23.1c0,0,85.8-65.89,140-16.25c54.21,49.64-43.53,176-139.91,218.48"/>
	<path class="st6" d="M1366.02,437.19c0,0,5.98,56.67,64.91,46.27c0,0,45.58-6.84,41.35-58.85c0,0-9.7-49.49,32.89-58.06
		c43.49-8.75,49.95-42.42,28.9-58.35"/>
	<path class="st7" d="M1617.54,881.83C1617.54,881.83,1617.55,881.83,1617.54,881.83c-78.37,0-152.04-30.52-207.46-85.93
		c-55.41-55.41-85.93-129.09-85.93-207.45c0-78.37,30.52-152.04,85.93-207.45c55.41-55.41,129.09-85.93,207.45-85.93
		s152.04,30.52,207.45,85.93c55.41,55.41,85.93,129.09,85.93,207.45S1880.41,740.48,1825,795.9
		C1769.59,851.31,1695.9,881.83,1617.54,881.83z M1617.54,297.06c-160.67,0-291.38,130.71-291.38,291.38
		c0,77.83,30.31,151,85.34,206.04c55.04,55.03,128.21,85.34,206.04,85.34c77.83,0,151-30.31,206.04-85.34
		c55.04-55.04,85.34-128.21,85.34-206.04C1908.93,427.77,1778.21,297.06,1617.54,297.06z"/>
	<path class="st4" d="M1541.88,849.56l34.67-68.94c0,0,3.39-8.11,9.76-5.01c0,0,3.11,3.22-0.61,10.84l-5.23,12.43
		c0,0,9.84-4.42,11.02,7.41c0,0,7.08-3.81,8.01,5.95c0,0,7.45-2.78,6.98,8.14s-5.89,17.44-12.41,19.92l-15.54,34.95
		C1578.53,875.23,1551.42,868.13,1541.88,849.56z"/>
	<path class="st4" d="M1375.93,703.37l-3.7,21.03l-2.07,14.44c0,0-10.7-0.03-7.11,10.72c0,0,4.87,15.44,15.08,7.74l2.88,27.01
		l-19.47,5.46c0,0,18.78,16.73,50.6,12.72c0,0,28.44-5.91,33.71-15.82l-21.94-1.98l-5.67-15.31l9.97-16.38l-6.01-48.25
		C1422.2,704.75,1399.2,688.2,1375.93,703.37z"/>
	<g>
		<g>
			<g>
				<path class="st4" d="M1467.26,100.13l-90.36,178.87l113.88-40.25l9.48-122.87c1.02-13.26-11.93-23.2-24.48-18.76L1467.26,100.13
					z"/>
				<path class="st7" d="M1376.9,280.01c-0.28,0-0.56-0.12-0.75-0.34c-0.27-0.31-0.33-0.75-0.14-1.11l90.36-178.87
					c0.12-0.23,0.32-0.41,0.56-0.49l8.53-3.02c6.21-2.2,13.04-1.12,18.27,2.89c5.23,4.01,8.05,10.32,7.54,16.89l-9.48,122.87
					c-0.03,0.39-0.29,0.73-0.66,0.87l-113.88,40.25C1377.13,279.99,1377.02,280.01,1376.9,280.01z M1467.97,100.94l-89.05,176.29
					l110.92-39.21l9.43-122.22c0.45-5.89-2.07-11.55-6.76-15.15c-4.69-3.59-10.81-4.56-16.38-2.6L1467.97,100.94z"/>
			</g>
			<g>
				<path class="st4" d="M1171.88,253.3l58.08,57.39c28.7,28.36,71.09,37.83,109.13,24.39l335.97-118.75
					c9.77-3.45,11.15-16.7,2.3-22.09l-17.56-10.7c-30.08-18.32-66.8-22.15-100-10.41l-301.85,106.69l-43.18-28.3
					c-8.35-5.47-18.78-6.73-28.2-3.41L1171.88,253.3z"/>
				<path class="st7" d="M1304,342.1c-7.76,0-15.54-0.85-23.2-2.56c-19.51-4.36-37.33-14.09-51.55-28.14l-58.08-57.39
					c-0.25-0.24-0.35-0.59-0.27-0.93c0.08-0.34,0.32-0.61,0.64-0.72l14.68-5.19c9.65-3.41,20.52-2.1,29.08,3.51l42.77,28.03
					l301.38-106.53c33.63-11.89,70.39-8.06,100.86,10.5l17.56,10.7c4.43,2.7,6.84,7.57,6.31,12.73c-0.54,5.16-3.91,9.43-8.79,11.16
					l-335.97,118.75C1327.98,340.06,1316,342.1,1304,342.1z M1173.71,253.71l56.94,56.27c28.24,27.9,70.67,37.38,108.1,24.15
					l335.97-118.75c4.15-1.47,7.01-5.1,7.47-9.48c0.46-4.38-1.6-8.52-5.36-10.81l-17.56-10.7c-29.95-18.24-66.09-22.01-99.15-10.32
					l-301.85,106.69c-0.29,0.11-0.62,0.07-0.88-0.11l-43.18-28.3c-8.04-5.27-18.25-6.5-27.32-3.3L1173.71,253.71z"/>
			</g>
			<path class="st4" d="M1307.6,416.2l19.22-6.79c19.83-7.01,37.42-19.23,50.91-35.37l113.06-135.29l-113.88,40.25L1307.6,416.2z"/>
			<path class="st4" d="M1490.79,238.75l-113.06,135.29c-13.49,16.14-31.07,28.36-50.91,35.37l-19.22,6.79l69.3-137.2
				L1490.79,238.75z"/>
			<path class="st7" d="M1585.89,201.79c-11.15,0-22.24-3.23-31.69-9.51l-7.21-4.79c-0.46-0.31-0.59-0.93-0.28-1.39
				c0.3-0.46,0.93-0.59,1.39-0.28l7.21,4.79c14.36,9.53,32.64,11.79,48.9,6.05l39.53-13.97c0.52-0.18,1.09,0.09,1.28,0.61
				c0.18,0.52-0.09,1.09-0.61,1.28l-39.53,13.97C1598.72,200.72,1592.3,201.79,1585.89,201.79z"/>
			<path class="st7" d="M1307.6,417.2c-0.28,0-0.56-0.12-0.75-0.34c-0.27-0.31-0.33-0.75-0.14-1.11l69.3-137.2
				c0.25-0.49,0.85-0.69,1.34-0.44c0.49,0.25,0.69,0.85,0.44,1.34l-68.18,134.97l16.87-5.96c19.65-6.95,37.11-19.07,50.47-35.07
				l113.06-135.29c0.35-0.42,0.98-0.48,1.41-0.13c0.42,0.35,0.48,0.99,0.13,1.41L1378.5,374.68c-13.6,16.27-31.35,28.6-51.34,35.67
				l-19.22,6.79C1307.82,417.18,1307.71,417.2,1307.6,417.2z"/>
		</g>
		<path class="st5" d="M1992.99,582.73c-0.53,0-0.98-0.42-1-0.96c-0.15-3.99-0.35-8.01-0.58-11.96c-0.03-0.55,0.39-1.02,0.94-1.06
			c0.54-0.03,1.02,0.39,1.06,0.94c0.23,3.96,0.43,8,0.58,12.01c0.02,0.55-0.41,1.02-0.96,1.04
			C1993.01,582.73,1993,582.73,1992.99,582.73z M1991.58,558.78c-0.52,0-0.95-0.4-1-0.92c-0.32-3.98-0.68-7.99-1.09-11.92
			c-0.06-0.55,0.34-1.04,0.89-1.1c0.56-0.04,1.04,0.34,1.1,0.89c0.4,3.95,0.77,7.97,1.09,11.97c0.04,0.55-0.37,1.03-0.92,1.08
			C1991.63,558.78,1991.6,558.78,1991.58,558.78z M1989.13,534.92c-0.5,0-0.93-0.37-0.99-0.88c-0.5-3.96-1.04-7.95-1.63-11.85
			c-0.08-0.55,0.29-1.06,0.84-1.14c0.54-0.08,1.05,0.29,1.14,0.84c0.59,3.92,1.14,7.93,1.64,11.9c0.07,0.55-0.32,1.05-0.87,1.12
			C1989.21,534.92,1989.17,534.92,1989.13,534.92z M1985.58,511.21c-0.48,0-0.9-0.34-0.98-0.83c-0.69-3.94-1.43-7.9-2.21-11.76
			c-0.11-0.54,0.24-1.07,0.78-1.18c0.54-0.11,1.07,0.24,1.18,0.78c0.78,3.88,1.53,7.85,2.22,11.81c0.1,0.54-0.27,1.06-0.81,1.16
			C1985.69,511.2,1985.63,511.21,1985.58,511.21z M1980.84,487.7c-0.46,0-0.87-0.31-0.97-0.78c-0.89-3.89-1.84-7.8-2.83-11.62
			c-0.14-0.54,0.18-1.08,0.72-1.22c0.54-0.14,1.08,0.18,1.22,0.72c0.99,3.84,1.95,7.77,2.84,11.68c0.12,0.54-0.21,1.08-0.75,1.2
			C1980.99,487.7,1980.91,487.7,1980.84,487.7z M1974.85,464.49c-0.43,0-0.83-0.29-0.96-0.72c-1.11-3.83-2.28-7.68-3.48-11.44
			c-0.17-0.53,0.12-1.09,0.65-1.26c0.53-0.17,1.09,0.12,1.26,0.65c1.21,3.78,2.39,7.64,3.5,11.5c0.15,0.53-0.15,1.08-0.68,1.24
			C1975.03,464.48,1974.94,464.49,1974.85,464.49z M1967.53,441.66c-0.41,0-0.8-0.26-0.94-0.67c-1.33-3.76-2.73-7.53-4.16-11.21
			c-0.2-0.51,0.05-1.09,0.57-1.29c0.51-0.2,1.09,0.05,1.29,0.57c1.44,3.7,2.85,7.49,4.18,11.27c0.18,0.52-0.09,1.09-0.61,1.28
			C1967.75,441.64,1967.64,441.66,1967.53,441.66z M1958.84,419.31c-0.39,0-0.76-0.23-0.92-0.61c-1.56-3.66-3.19-7.33-4.86-10.92
			c-0.23-0.5-0.02-1.1,0.49-1.33c0.5-0.23,1.1-0.02,1.33,0.49c1.68,3.61,3.32,7.3,4.89,10.98c0.22,0.51-0.02,1.1-0.53,1.31
			C1959.1,419.29,1958.97,419.31,1958.84,419.31z M1948.73,397.58c-0.37,0-0.72-0.2-0.89-0.55c-1.79-3.54-3.67-7.1-5.57-10.57
			c-0.27-0.48-0.09-1.09,0.39-1.36c0.49-0.26,1.09-0.09,1.36,0.4c1.92,3.49,3.81,7.07,5.61,10.63c0.25,0.49,0.05,1.09-0.44,1.34
			C1949.04,397.54,1948.88,397.58,1948.73,397.58z M1937.19,376.56c-0.34,0-0.67-0.17-0.86-0.49c-2.03-3.41-4.15-6.83-6.29-10.17
			c-0.3-0.46-0.16-1.08,0.3-1.38c0.46-0.3,1.08-0.16,1.38,0.3c2.16,3.35,4.29,6.79,6.33,10.23c0.28,0.47,0.13,1.09-0.35,1.37
			C1937.54,376.52,1937.36,376.56,1937.19,376.56z M1924.22,356.4c-0.32,0-0.63-0.15-0.82-0.43c-2.26-3.26-4.61-6.52-6.99-9.7
			c-0.33-0.44-0.24-1.07,0.2-1.4c0.44-0.33,1.07-0.24,1.4,0.2c2.39,3.2,4.76,6.48,7.03,9.76c0.31,0.45,0.2,1.08-0.25,1.39
			C1924.61,356.34,1924.41,356.4,1924.22,356.4z M1909.85,337.2c-0.29,0-0.58-0.13-0.78-0.37c-2.5-3.1-5.08-6.19-7.67-9.17
			c-0.36-0.42-0.32-1.05,0.1-1.41c0.42-0.36,1.05-0.32,1.41,0.1c2.6,3,5.2,6.11,7.72,9.23c0.35,0.43,0.28,1.06-0.15,1.41
			C1910.29,337.13,1910.07,337.2,1909.85,337.2z M1894.13,319.08c-0.27,0-0.53-0.11-0.73-0.32c-2.71-2.9-5.5-5.79-8.31-8.6
			c-0.39-0.39-0.39-1.02,0-1.41c0.39-0.39,1.02-0.39,1.41,0c2.83,2.82,5.64,5.73,8.36,8.65c0.38,0.4,0.35,1.04-0.05,1.41
			C1894.62,318.99,1894.38,319.08,1894.13,319.08z M1877.16,302.14c-0.24,0-0.49-0.09-0.68-0.27c-2.91-2.7-5.91-5.39-8.91-7.99
			c-0.42-0.36-0.46-0.99-0.1-1.41c0.36-0.42,0.99-0.46,1.41-0.1c3.02,2.61,6.03,5.31,8.96,8.03c0.4,0.38,0.43,1.01,0.05,1.41
			C1877.69,302.03,1877.43,302.14,1877.16,302.14z M1859.01,286.44c-0.22,0-0.44-0.07-0.63-0.22c-3.08-2.48-6.26-4.95-9.45-7.34
			c-0.44-0.33-0.53-0.96-0.2-1.4c0.33-0.44,0.96-0.53,1.4-0.2c3.21,2.4,6.4,4.89,9.5,7.38c0.43,0.35,0.5,0.98,0.15,1.41
			C1859.59,286.31,1859.31,286.44,1859.01,286.44z M1839.81,272.05c-0.2,0-0.4-0.06-0.57-0.18c-3.25-2.26-6.59-4.51-9.93-6.68
			c-0.46-0.3-0.6-0.92-0.3-1.38c0.3-0.46,0.92-0.59,1.38-0.3c3.36,2.18,6.72,4.44,9.99,6.71c0.45,0.32,0.56,0.94,0.25,1.39
			C1840.44,271.9,1840.13,272.05,1839.81,272.05z M1819.67,259c-0.18,0-0.35-0.05-0.51-0.14c-3.42-2.05-6.9-4.07-10.36-6
			c-0.48-0.27-0.66-0.88-0.39-1.36c0.27-0.48,0.88-0.65,1.36-0.39c3.48,1.94,6.98,3.97,10.42,6.03c0.47,0.29,0.63,0.9,0.34,1.37
			C1820.34,258.82,1820,259,1819.67,259z M1798.69,247.31c-0.15,0-0.31-0.04-0.46-0.11c-3.54-1.82-7.15-3.61-10.74-5.31
			c-0.5-0.24-0.71-0.83-0.47-1.33c0.24-0.5,0.83-0.71,1.33-0.47c3.61,1.71,7.24,3.51,10.8,5.34c0.49,0.25,0.68,0.86,0.43,1.35
			C1799.4,247.12,1799.05,247.31,1798.69,247.31z M1776.99,237.01c-0.13,0-0.27-0.03-0.4-0.08c-3.65-1.59-7.37-3.14-11.06-4.61
			c-0.51-0.2-0.76-0.79-0.56-1.3c0.2-0.51,0.79-0.76,1.3-0.56c3.71,1.48,7.45,3.04,11.12,4.63c0.51,0.22,0.74,0.81,0.52,1.32
			C1777.74,236.79,1777.37,237.01,1776.99,237.01z M1754.66,228.12c-0.11,0-0.23-0.02-0.34-0.06c-3.75-1.36-7.57-2.66-11.34-3.89
			c-0.52-0.17-0.81-0.73-0.64-1.26c0.17-0.53,0.73-0.81,1.26-0.64c3.79,1.23,7.63,2.55,11.4,3.91c0.52,0.19,0.79,0.76,0.6,1.28
			C1755.45,227.87,1755.07,228.12,1754.66,228.12z M1731.78,220.7c-0.09,0-0.18-0.01-0.28-0.04c-3.88-1.12-7.79-2.17-11.59-3.11
			c-0.54-0.13-0.86-0.68-0.73-1.21c0.13-0.54,0.68-0.86,1.21-0.73c3.83,0.95,7.75,2.01,11.66,3.13c0.53,0.15,0.84,0.71,0.68,1.24
			C1732.61,220.42,1732.21,220.7,1731.78,220.7z M1708.4,214.9c-0.07,0-0.13-0.01-0.2-0.02c-7.47-1.54-11.82-2.08-11.86-2.08
			c-0.55-0.07-0.94-0.57-0.87-1.11c0.07-0.55,0.57-0.95,1.11-0.87c0.04,0,4.45,0.55,12.02,2.11c0.54,0.11,0.89,0.64,0.78,1.18
			C1709.28,214.57,1708.87,214.9,1708.4,214.9z"/>
		<g>
			<circle class="st8" cx="1850.25" cy="662.67" r="11.32"/>
			<g>
				<circle class="st4" cx="1990.67" cy="661.28" r="45.41"/>
				<path class="st5" d="M2071.24,662.67c0-40.99-33.23-74.23-74.23-74.23c-71.49,0-146.77,74.23-146.77,74.23
					s75.96,74.23,146.77,74.23C2038.01,736.89,2071.24,703.66,2071.24,662.67z M1960.74,662.67c0-19.1,15.48-34.59,34.59-34.59
					c19.1,0,34.59,15.48,34.59,34.59c0,19.1-15.48,34.59-34.59,34.59C1976.23,697.25,1960.74,681.77,1960.74,662.67z"/>
			</g>
		</g>
	</g>
	<g>
		<path class="st7" d="M1268.04,243.35c-0.41,0-0.8-0.26-0.94-0.67c-0.18-0.52,0.09-1.09,0.61-1.28l94.4-33.37
			c0.52-0.19,1.09,0.09,1.28,0.61c0.18,0.52-0.09,1.09-0.61,1.28l-94.4,33.37C1268.26,243.33,1268.15,243.35,1268.04,243.35z"/>
		<path class="st7" d="M1103.8,243.35c-0.41,0-0.8-0.26-0.94-0.67c-0.18-0.52,0.09-1.09,0.61-1.28l75.31-26.62
			c0.52-0.18,1.09,0.09,1.28,0.61c0.18,0.52-0.09,1.09-0.61,1.28l-75.31,26.62C1104.03,243.33,1103.91,243.35,1103.8,243.35z"/>
		<path class="st7" d="M1205.77,400.26c-0.41,0-0.8-0.26-0.94-0.67c-0.18-0.52,0.09-1.09,0.61-1.28l94.4-33.37
			c0.52-0.18,1.09,0.09,1.28,0.61c0.18,0.52-0.09,1.09-0.61,1.28l-94.4,33.37C1205.99,400.25,1205.88,400.26,1205.77,400.26z"/>
		<path class="st7" d="M1146.67,447.37c-0.41,0-0.8-0.26-0.94-0.67c-0.18-0.52,0.09-1.09,0.61-1.28l133.26-47.1
			c0.52-0.18,1.09,0.09,1.28,0.61c0.18,0.52-0.09,1.09-0.61,1.28l-133.26,47.1C1146.9,447.35,1146.78,447.37,1146.67,447.37z"/>
		<path class="st7" d="M1198.98,486.3c-0.41,0-0.8-0.26-0.94-0.67c-0.18-0.52,0.09-1.09,0.61-1.28l133.26-47.1
			c0.52-0.19,1.09,0.09,1.28,0.61c0.18,0.52-0.09,1.09-0.61,1.28l-133.26,47.1C1199.2,486.28,1199.09,486.3,1198.98,486.3z"/>
	</g>
	<path class="st9" d="M1361.53,789.77c0,0-20.71,3.81-32.5,13.89c0,0-13.73,10.56-20.71,25.92l-25.18,50.24l-19.23,54.94
		l-11.16,37.34l-8.81,36.22l48.28,10.96l7.66-27.95c0,0,21.72-69.58,28.4-82.49l12.16-27.02l-0.87,28.63l-2.73,63.88l-1.36,30.02
		l152.94-5.58l-15.75-121.84l28.16,36c0,0,13.13,20.71,28.58,21.95c0,0,25,6.7,36.78-21.95l20.99-40.13l-5.12-6.39l-3.54,8.81
		c0,0-32.31-11.91-36.65-25.68l-11.04,21.71l-46.14-62.02c0,0-14.14-22.95-39.2-21.46c0,0-18.72,17.12-48.06,15.38
		C1397.44,803.17,1374.55,801.31,1361.53,789.77z"/>
	<path class="st9" d="M1797.54,1069.31h-107.76c-28.31,0-49.72-25.67-44.71-53.6l19.84-110.41c8.04-44.73,39.07-81.88,81.59-97.67
		l51.04-18.95V1069.31z"/>
	<path class="st7" d="M1797.54,1070.31h-107.76c-13.77,0-26.73-6.06-35.58-16.64c-8.87-10.61-12.56-24.51-10.11-38.13l19.84-110.41
		c8.06-44.87,39.57-82.59,82.23-98.43l51.04-18.95c0.31-0.11,0.65-0.07,0.92,0.12c0.27,0.19,0.43,0.49,0.43,0.82v280.62
		C1798.54,1069.87,1798.09,1070.31,1797.54,1070.31z M1796.54,790.13l-49.69,18.45c-42,15.59-73.02,52.73-80.96,96.91l-19.84,110.41
		c-2.34,13.04,1.18,26.34,9.68,36.5c8.46,10.12,20.87,15.92,34.04,15.92h106.76V790.13z"/>
	<path class="st7" d="M1849.6,761.25c0,0,33.29-32.57,2.08-38.15c0,0-36.25-42.54-68.02,9.34c-4.45,7.27-8.89,25.25-7.72,38.55
		c0,0-28.21-1.03-28.43,25.25c0,0-15.94-5.35-22.2,12.77c0,0-15.99-3.46-19.74,14.18c0,0-27.43-3.15-41.45,34.57
		c0,0,46.79-1.09,49.36-21.21c0,0,19.22,3.78,23.59-11.03c0,0,29.76,0.71,35.56-20.76c0,0,27.41,0.18,34.2-21.24
		C1806.83,783.54,1840.49,751.55,1849.6,761.25z"/>
	<g>
		<g>
			<g>
				<path class="st4" d="M1896.24,987.93c0,0,16.72,114.88,9.43,234.67c-2.92,47.91-30,91.02-71.89,114.24
					c-42.55,27.51-85.1,55.02-127.65,82.53c-0.39,5.38-0.29,13.78,3.39,22.79c4.52,11.07,11.45,16.23,9.39,20.57
					c-2.62,5.52-14.72,4.72-16.18,4.63c-12.47-0.83-21.87-8.06-30.39-15.9c-9.19-8.45-24.71-24.38-43.44-57.71
					c-14.44-25.69-14.99-33.61-13.55-40.04c2.96-13.2,14.48-20.96,18.52-23.73c21.84-14.99,114.19-74.51,139.82-120.49
					c25.88-46.44,32.56-205.88,32.56-205.88L1896.24,987.93z"/>
				<path class="st7" d="M1705.68,1468.44c-1.16,0-2.2-0.05-3.02-0.1c-12.73-0.85-22.43-8.27-31.01-16.16
					c-9.83-9.05-25.05-24.9-43.64-57.96c-15.04-26.77-15.04-34.55-13.65-40.75c3.01-13.42,14.46-21.27,18.77-24.23l0.16-0.11
					c1.91-1.31,4.36-2.96,7.26-4.92c29.81-20.1,108.98-73.49,132.25-115.23c25.47-45.7,32.37-203.84,32.44-205.43
					c0.02-0.47,0.36-0.86,0.83-0.94l90.01-15.67c0.26-0.04,0.54,0.02,0.76,0.18c0.22,0.16,0.36,0.4,0.4,0.67
					c0.17,1.15,16.65,116.35,9.43,234.88c-2.96,48.55-30.03,91.57-72.41,115.06l-127.17,82.22c-0.5,7.81,0.62,15.16,3.35,21.84
					c1.89,4.62,4.22,8.23,6.1,11.13c2.72,4.2,4.69,7.24,3.27,10.24C1717.69,1467.62,1710.59,1468.44,1705.68,1468.44z
					 M1807.2,1004.45c-0.57,12.35-7.9,161.11-32.65,205.52c-23.5,42.16-102.97,95.75-132.88,115.92c-2.89,1.95-5.34,3.6-7.24,4.91
					l-0.16,0.11c-4.13,2.83-15.11,10.37-17.95,23.01c-1.3,5.81-1.25,13.19,13.45,39.33c18.44,32.81,33.52,48.51,43.25,57.46
					c9.6,8.84,18.34,14.88,29.78,15.64c6.23,0.41,13.5-0.44,15.21-4.06c0.94-1.99-0.68-4.5-3.14-8.29
					c-1.93-2.97-4.32-6.67-6.28-11.47c-2.9-7.11-4.07-14.93-3.46-23.24c0.02-0.31,0.19-0.6,0.45-0.77l127.65-82.53
					c41.84-23.19,68.52-65.6,71.44-113.46c6.85-112.39-7.66-221.77-9.27-233.45L1807.2,1004.45z"/>
			</g>
			<path class="st7" d="M1700.3,1418.5c-0.29,0-0.57-0.12-0.77-0.36l-2.55-3.09c-21.09-25.53-44.99-54.46-52.32-86.25
				c-0.12-0.54,0.21-1.08,0.75-1.2c0.54-0.12,1.07,0.21,1.2,0.75c7.22,31.33,30.96,60.07,51.91,85.43l2.56,3.09
				c0.35,0.43,0.29,1.06-0.14,1.41C1700.75,1418.42,1700.53,1418.5,1700.3,1418.5z"/>
		</g>
		<g>
			<path class="st4" d="M1774.54,997.65c-23.9,34.13-42.93,362.32-47.56,448.86c-0.61,11.33,8.39,20.84,19.7,20.84h144.03
				c5.56,0,7.86-7.14,3.35-10.4l-37.38-27.05l9.83-361.03l27.24-36.88l-3.16-34.74L1774.54,997.65z"/>
			<path class="st7" d="M1890.71,1468.34h-144.03c-5.74,0-11.08-2.3-15.03-6.47c-3.97-4.18-5.98-9.66-5.67-15.42
				c5.18-96.83,23.94-415.39,47.74-449.38c0.32-0.45,0.94-0.56,1.39-0.25c0.45,0.32,0.56,0.94,0.25,1.39
				c-24.11,34.42-43.7,379.51-47.38,448.34c-0.28,5.21,1.54,10.16,5.12,13.94c3.57,3.77,8.39,5.84,13.58,5.84h144.03
				c2.53,0,3.98-1.69,4.5-3.28c0.52-1.59,0.33-3.82-1.73-5.31l-37.38-27.05c-0.27-0.19-0.42-0.51-0.41-0.84l9.83-361.03
				c0.01-0.2,0.07-0.4,0.2-0.57l17.83-24.14c0.33-0.44,0.95-0.54,1.4-0.21c0.44,0.33,0.54,0.95,0.21,1.4l-17.64,23.89l-9.8,360.19
				l36.95,26.74c2.41,1.75,3.38,4.71,2.46,7.55C1896.19,1466.51,1893.68,1468.34,1890.71,1468.34z"/>
			<g>
				<g>
					<path class="st4" d="M1756.49,1255.94l-19.47-1.64c-3.23-0.27-5.61-4-5.3-8.34l7.49-105.16c0.31-4.33,3.18-7.62,6.42-7.35
						l19.47,1.64c3.23,0.27,5.61,4,5.3,8.34l-7.49,105.16C1762.59,1252.92,1759.72,1256.21,1756.49,1255.94z"/>
					<path class="st7" d="M1756.87,1256.96c-0.15,0-0.31-0.01-0.46-0.02l-19.47-1.64c-3.77-0.32-6.56-4.54-6.21-9.4l7.49-105.16
						c0.2-2.76,1.34-5.23,3.15-6.78c1.3-1.11,2.8-1.63,4.35-1.5l19.47,1.64c3.77,0.32,6.56,4.54,6.21,9.4l-7.49,105.16
						c-0.2,2.76-1.34,5.23-3.15,6.78C1759.58,1256.44,1758.25,1256.96,1756.87,1256.96z M1756.57,1254.94c1,0.08,2-0.27,2.88-1.03
						c1.38-1.18,2.3-3.2,2.45-5.4l7.49-105.16c0.27-3.78-1.7-7.04-4.38-7.27l-19.47-1.64c-1-0.08-2,0.27-2.88,1.03
						c-1.38,1.18-2.3,3.2-2.45,5.4l-7.49,105.16c-0.27,3.78,1.7,7.04,4.38,7.27L1756.57,1254.94z"/>
				</g>
				<path class="st7" d="M1758.9,1182.68c-0.02,0-0.04,0-0.06,0l-22.51-1.36c-0.55-0.03-0.97-0.51-0.94-1.06
					c0.03-0.55,0.51-0.97,1.06-0.94l22.51,1.36c0.55,0.03,0.97,0.51,0.94,1.06C1759.87,1182.27,1759.43,1182.68,1758.9,1182.68z"/>
			</g>
			<path class="st7" d="M1807.19,1435.81c-22.23,0-44.41-2.36-66.31-7.07c-0.54-0.12-0.88-0.65-0.77-1.19
				c0.12-0.54,0.65-0.89,1.19-0.77c35.85,7.71,72.45,9.08,108.78,4.08c0.55-0.08,1.05,0.31,1.13,0.85c0.08,0.55-0.31,1.05-0.85,1.13
				C1835.99,1434.83,1821.58,1435.81,1807.19,1435.81z"/>
		</g>
	</g>
	<g>
		<g>
			<path class="st5" d="M1847.41,815.18c0-1.28-0.16-4.74-2.52-8.2c-2.36-3.46-5.51-4.89-6.69-5.36l-50.79-20.03
				c-9.08-3.58-18.91,3.13-18.91,12.91v15.95l-31.68,35.09l-5.14,195.43c-0.19,7.21,6.9,12.35,13.67,9.93l166.4-59.6
				c5.23-1.87,8.01-7.58,6.28-12.87l-27.57-78.98c-1.9-5.05-3.81-10.09-5.71-15.14c9.87,6.55,14.4,10.75,13.59,12.6
				c-0.3,0.68-0.23,4.03-3.16,5.22c3.94,14.14,8.58,24.18,12.52,38.33c6.53-1.35,14.23-1.72,24.06-3.68
				c18.03-3.59,27.4-6.53,32.23-13.09c12.52-17-11.86-55.55-29.41-74.77c-5.42-5.94-23.44-25.67-45.08-29.87
				c-3.93-0.76-14.64-2.31-26.89-3.18C1856.32,815.42,1851.08,815.25,1847.41,815.18z"/>
			<path class="st7" d="M1884.74,885.31c-0.4,0-0.78-0.24-0.93-0.64l-15.16-39.68c-0.2-0.52,0.06-1.09,0.58-1.29
				c0.51-0.19,1.09,0.06,1.29,0.58l15.16,39.68c0.2,0.52-0.06,1.09-0.58,1.29C1884.98,885.29,1884.86,885.31,1884.74,885.31z"/>
			<path class="st7" d="M1898.33,897.91c-0.42,0-0.81-0.26-0.95-0.68c-0.17-0.52,0.11-1.09,0.63-1.26c4.52-1.5,9.17-2.83,13.82-3.96
				c5.73-1.38,11.6-2.48,17.45-3.27c0.55-0.07,1.05,0.31,1.12,0.86c0.07,0.55-0.31,1.05-0.86,1.12c-5.79,0.78-11.59,1.86-17.25,3.23
				c-4.59,1.11-9.18,2.42-13.65,3.91C1898.54,897.89,1898.43,897.91,1898.33,897.91z"/>
		</g>
		<g>
			<path class="st4" d="M1747.91,814.99c0,0,50.66-18.35,102.23,74.19l-16.43,9.81C1833.72,898.99,1803.89,819.44,1747.91,814.99z"
				/>
			<g>
				<path class="st4" d="M1875.61,890.55c-0.61-5.93-10.21-6.87-10.21-6.87c-6.5-12.48-23.74,0.95-23.74,0.95
					c-13.62-2.25-28.17,19.58-29.09,20.98l23.41,40.05c21.43-10.19,30.45-17.29,36.87-22.63c16.84-13.99,10.5-24.31,10.5-24.31
					C1882.92,889.68,1875.61,890.55,1875.61,890.55z"/>
				<path class="st7" d="M1855.54,899.36c-0.33,0-0.66-0.17-0.85-0.47c-0.29-0.47-0.15-1.09,0.32-1.38
					c4.77-2.95,8.14-8.02,9.03-13.56c0.09-0.54,0.6-0.92,1.15-0.83c0.55,0.09,0.92,0.6,0.83,1.15c-0.98,6.1-4.69,11.69-9.95,14.94
					C1855.91,899.31,1855.72,899.36,1855.54,899.36z"/>
				<path class="st7" d="M1863.66,908.28c-0.37,0-0.73-0.21-0.9-0.57c-0.24-0.5-0.03-1.09,0.47-1.33
					c6.15-2.93,10.56-9.2,11.26-15.98c0.06-0.55,0.54-0.94,1.1-0.89c0.55,0.06,0.95,0.55,0.89,1.1
					c-0.76,7.46-5.62,14.36-12.39,17.58C1863.95,908.25,1863.81,908.28,1863.66,908.28z"/>
				<path class="st7" d="M1870.87,915.75c-0.33,0-0.65-0.16-0.84-0.45c-0.3-0.46-0.17-1.08,0.29-1.38
					c4.98-3.26,9.27-8.67,11.77-14.84c0.21-0.51,0.79-0.76,1.3-0.55c0.51,0.21,0.76,0.79,0.55,1.3
					c-2.65,6.54-7.21,12.29-12.53,15.77C1871.25,915.7,1871.06,915.75,1870.87,915.75z"/>
				<path class="st7" d="M1831.44,895.46c-0.09,0-0.19-0.01-0.28-0.04c-0.28-0.08-0.51-0.28-0.63-0.55l-2.71-6.03
					c-0.23-0.5,0-1.1,0.5-1.32c0.5-0.22,1.1,0,1.32,0.5l2.24,4.97c4.7-3,9.58-5.8,14.54-8.32l-1.36-2.31
					c-0.28-0.48-0.12-1.09,0.36-1.37c0.47-0.28,1.09-0.12,1.37,0.36l1.89,3.23c0.14,0.24,0.17,0.53,0.1,0.79
					c-0.08,0.26-0.26,0.49-0.51,0.61c-5.57,2.79-11.05,5.92-16.28,9.32C1831.82,895.4,1831.63,895.46,1831.44,895.46z"/>
			</g>
			<g>
				<path class="st5" d="M1809.85,900.94l-32.99,12.93l12.95-52.7c4.87-19.81-5.95-35.87-25.77-40.48l-2.58-3.08
					c-17.48-4.07-34.15,4.37-40.91,21.03l-37.38,97.75c-15.18,39.68,27,76.92,64.36,56.83l88.46-47.57L1809.85,900.94z"/>
				<g>
					<path class="st7" d="M1776.86,914.87c-0.24,0-0.47-0.08-0.66-0.25c-0.28-0.25-0.4-0.63-0.31-0.99l12.95-52.7
						c0.98-4,1.33-7.93,1.02-11.66c-0.04-0.55,0.36-1.03,0.92-1.08c0.56-0.04,1.03,0.36,1.08,0.92c0.32,3.95-0.04,8.09-1.07,12.3
						l-12.49,50.82l31.19-12.23c0.46-0.18,0.98,0,1.23,0.43l2.72,4.66c0.28,0.48,0.12,1.09-0.36,1.37
						c-0.48,0.28-1.09,0.12-1.37-0.36l-2.29-3.92l-32.19,12.62C1777.1,914.85,1776.98,914.87,1776.86,914.87z"/>
					<path class="st7" d="M1733.41,999.17c-0.48,0-0.9-0.34-0.98-0.83c-0.1-0.54,0.27-1.06,0.81-1.16
						c4.73-0.83,9.38-2.46,13.81-4.85l88.46-47.56c0.49-0.26,1.09-0.08,1.35,0.41c0.26,0.49,0.08,1.09-0.41,1.35L1748,994.1
						c-4.62,2.49-9.47,4.19-14.42,5.06C1733.52,999.17,1733.46,999.17,1733.41,999.17z"/>
					<path class="st7" d="M1735.08,930c-0.41,0-0.79-0.25-0.94-0.66c-0.19-0.52,0.08-1.09,0.6-1.28l41.78-15.13
						c0.52-0.18,1.09,0.08,1.28,0.6c0.19,0.52-0.08,1.09-0.6,1.28l-41.78,15.13C1735.31,929.99,1735.19,930,1735.08,930z"/>
				</g>
			</g>
		</g>
		<polygon class="st7" points="1890.95,924.73 1813.46,924.73 1842.44,816.6 1919.93,816.6 		"/>
		<g>
			<g>
				<path class="st4" d="M1901.9,895.34c3.07,2.65,11.85,36.86,10.91,44.51c-3.46,1.41-37.82,1.49-51.19,1.07
					c-2.24-0.07-4.58-0.18-6.55-1.25c-1.97-1.07-3.45-3.41-2.78-5.56c-3.31-0.3-6.01-1.33-6.36-4.2c-0.35-2.87,2.28-5.72,5.17-5.6
					c-2.05,0.02-4.17,0.03-6.06-0.76c-1.89-0.79-3.52-2.6-3.43-4.65c0.07-1.8,1.45-3.34,3.06-4.14c0.8-0.39,1.65-0.64,2.52-0.81
					c-1.31-0.41-2.49-1.54-2.78-2.93c-0.48-2.36,1.05-4.76,3.08-6.05c2.03-1.29,4.48-1.71,6.86-2.1
					C1870.23,900.22,1901.9,895.34,1901.9,895.34z"/>
			</g>
			<g>
				<path class="st7" d="M1892.47,897.8c-0.48,0-0.91-0.35-0.99-0.85c-0.08-0.55,0.29-1.06,0.83-1.14c5.63-0.88,9.44-1.46,9.44-1.46
					c0.54-0.08,1.06,0.29,1.14,0.84c0.08,0.55-0.29,1.06-0.84,1.14c0,0-3.8,0.59-9.43,1.46
					C1892.57,897.8,1892.52,897.8,1892.47,897.8z"/>
				<path class="st7" d="M1852.29,935.11c-0.03,0-0.06,0-0.09,0c-4.46-0.4-6.9-2.1-7.27-5.07c-0.2-1.66,0.39-3.38,1.63-4.72
					c0.07-0.08,0.15-0.15,0.22-0.23c-0.72-0.13-1.44-0.32-2.14-0.61c-2.09-0.87-4.16-2.95-4.05-5.61c0.1-2.41,1.94-4.16,3.62-5
					c0.18-0.09,0.36-0.17,0.55-0.25c-0.68-0.67-1.16-1.51-1.34-2.4c-0.61-2.97,1.33-5.71,3.52-7.1c2.24-1.42,4.89-1.86,7.23-2.24
					c8.56-1.43,21.52-3.47,30.89-4.94c0.54-0.08,1.06,0.29,1.14,0.83c0.09,0.54-0.29,1.06-0.83,1.14
					c-9.36,1.47-22.32,3.51-30.87,4.94c-2.15,0.36-4.59,0.76-6.49,1.96c-1.56,0.99-3.05,2.98-2.64,5.01
					c0.19,0.95,1.06,1.85,2.1,2.17c0.44,0.14,0.72,0.55,0.7,1.01c-0.03,0.46-0.36,0.84-0.81,0.93c-0.89,0.18-1.64,0.41-2.27,0.73
					c-1.47,0.73-2.46,2.02-2.51,3.29c-0.07,1.69,1.41,3.09,2.82,3.68c1.6,0.66,3.42,0.69,5.21,0.68c0.17-0.01,0.34-0.01,0.51,0
					c0.54,0.02,0.97,0.47,0.96,1.01c-0.01,0.54-0.45,0.98-0.99,0.99c-0.14,0-0.27,0-0.41,0c-0.96,0.07-1.92,0.55-2.66,1.36
					c-0.84,0.91-1.24,2.05-1.11,3.12c0.15,1.23,0.88,2.91,5.46,3.32c0.55,0.05,0.96,0.54,0.91,1.09
					C1853.24,934.72,1852.8,935.11,1852.29,935.11z"/>
				<path class="st7" d="M1848.63,914.87c-0.51,0-0.95-0.39-0.99-0.91c-0.05-0.55,0.36-1.04,0.91-1.08
					c5.99-0.52,12.05-1.17,18.02-1.93c0.55-0.06,1.05,0.32,1.12,0.87c0.07,0.55-0.32,1.05-0.87,1.12c-6,0.76-12.08,1.41-18.1,1.94
					C1848.69,914.87,1848.66,914.87,1848.63,914.87z"/>
				<path class="st7" d="M1851.41,925.44c-0.53,0-0.97-0.41-1-0.94c-0.03-0.55,0.39-1.02,0.94-1.05l16.26-0.93
					c0.55-0.02,1.02,0.39,1.06,0.94c0.03,0.55-0.39,1.02-0.94,1.05l-16.26,0.93C1851.45,925.44,1851.43,925.44,1851.41,925.44z"/>
				<path class="st7" d="M1854.7,935.1c-0.52,0-1.05,0-1.57-0.01c-0.55-0.01-1-0.46-0.99-1.01c0.01-0.55,0.45-0.99,1-0.99
					c0,0,0.01,0,0.01,0c4.85,0.05,9.74-0.13,14.55-0.53c0.55-0.06,1.03,0.36,1.08,0.91c0.05,0.55-0.36,1.03-0.91,1.08
					C1863.51,934.91,1859.09,935.1,1854.7,935.1z"/>
			</g>
		</g>
	</g>
	<g>
		<polygon class="st4" points="1832,774.18 1831.43,809.03 1800.83,797.05 1808.64,767.06 		"/>
		<path class="st7" d="M1831.43,799.51c-0.01,0-0.03,0-0.04,0c-0.55-0.02-0.98-0.49-0.96-1.04l1.14-27.82
			c0.02-0.55,0.47-0.99,1.04-0.96c0.55,0.02,0.98,0.49,0.96,1.04l-1.14,27.82C1832.41,799.09,1831.97,799.51,1831.43,799.51z"/>
		<g>
			<g>
				<g>
					<path class="st4" d="M1855.02,759.68c-0.6,6.27-2.35,12.55-5.98,17.69c-3.63,5.14-9.31,9.03-15.58,9.59
						c-5.43,0.48-10.92-1.56-15.18-4.96s-7.4-8.07-9.62-13.06c-5.69,0.37-11.38-3.57-13.05-9.02c-0.96-3.15-0.56-6.86,1.65-9.3
						c2.21-2.44,6.38-3.09,8.86-0.92c1.41,1.24,2.13,3.14,3.59,4.31c1.63,1.31,3.97,1.48,5.96,0.83c1.99-0.65,3.67-2.01,5.13-3.51
						c4.59-4.72,7.39-11.15,7.71-17.74c-0.03,0.62,2.82,2.38,3.32,2.73c1.26,0.86,2.59,1.62,3.97,2.26
						c2.73,1.26,5.67,2.06,8.66,2.37c1.52,0.16,3.05,0.19,4.57,0.1c1.21-0.08,2.93-0.71,4.1-0.39c2.45,0.67,1.92,5.34,2.02,7.23
						C1855.34,751.8,1855.39,755.75,1855.02,759.68z"/>
					<path class="st7" d="M1831.89,788.03c-4.89,0-9.99-1.87-14.24-5.25c-3.89-3.1-7.13-7.41-9.63-12.81
						c-5.97,0.06-11.62-4.03-13.38-9.76c-1.16-3.78-0.44-7.72,1.86-10.27c2.69-2.97,7.48-3.44,10.26-1
						c0.77,0.68,1.33,1.49,1.88,2.27c0.53,0.77,1.03,1.49,1.68,2.01c1.25,1.01,3.18,1.26,5.02,0.66c1.56-0.51,3.06-1.54,4.72-3.25
						c4.41-4.54,7.12-10.76,7.42-17.08c0,0,0,0,0,0c0.03-0.55,0.5-0.99,1.05-0.95c0.45,0.02,0.82,0.34,0.92,0.76
						c0.19,0.24,0.81,0.76,2.56,1.91c0.16,0.1,0.28,0.18,0.35,0.23c1.19,0.82,2.48,1.55,3.82,2.17c2.64,1.21,5.44,1.98,8.35,2.29
						c1.47,0.15,2.95,0.18,4.4,0.09c0.36-0.02,0.81-0.11,1.28-0.2c1.01-0.2,2.16-0.42,3.15-0.15c2.77,0.75,2.75,4.51,2.74,6.99
						c0,0.44,0,0.83,0.01,1.15c0.25,4.71,0.22,8.51-0.11,11.95c-0.69,7.25-2.77,13.37-6.16,18.17c-4.04,5.72-10.13,9.46-16.31,10.01
						C1832.99,788,1832.44,788.03,1831.89,788.03z M1808.65,767.94c0.39,0,0.75,0.23,0.91,0.59c2.4,5.4,5.54,9.67,9.33,12.68
						c4.33,3.45,9.6,5.19,14.47,4.75c5.6-0.5,11.15-3.92,14.85-9.17c3.19-4.52,5.14-10.31,5.8-17.21c0.32-3.35,0.35-7.05,0.11-11.66
						c-0.02-0.35-0.02-0.78-0.02-1.26c0.01-1.64,0.02-4.7-1.27-5.05c-0.54-0.14-1.44,0.03-2.23,0.19c-0.52,0.1-1.05,0.21-1.54,0.24
						c-1.56,0.1-3.16,0.07-4.74-0.1c-3.12-0.33-6.14-1.16-8.97-2.46c-1.45-0.67-2.83-1.45-4.12-2.34l-0.31-0.21
						c-0.65-0.43-1.19-0.79-1.63-1.11c-0.78,6.04-3.55,11.85-7.8,16.21c-1.9,1.95-3.66,3.15-5.54,3.76c-2.48,0.81-5.12,0.43-6.9-1
						c-0.87-0.7-1.48-1.58-2.07-2.43c-0.5-0.72-0.96-1.39-1.55-1.91c-1.96-1.71-5.51-1.31-7.46,0.84c-1.81,2-2.37,5.27-1.43,8.34
						c1.53,5,6.82,8.67,12.03,8.32C1808.61,767.94,1808.63,767.94,1808.65,767.94z M1855.02,759.68L1855.02,759.68L1855.02,759.68z"
						/>
				</g>
				<g>
					<path class="st4" d="M1802.66,756.81c2.92,0.68,5.32,3.23,5.81,6.2L1802.66,756.81z"/>
					<path class="st7" d="M1808.46,764c-0.48,0-0.91-0.35-0.99-0.84c-0.42-2.58-2.5-4.8-5.04-5.39c-0.54-0.12-0.87-0.66-0.75-1.2
						c0.12-0.54,0.66-0.88,1.2-0.75c3.32,0.77,6.02,3.65,6.57,7.01c0.09,0.54-0.28,1.06-0.83,1.15
						C1808.57,764,1808.52,764,1808.46,764z"/>
				</g>
			</g>
		</g>
	</g>
	<g>
		<path class="st7" d="M1591.96,841.18c-1.55,0-2.81-0.43-3.78-1.29c-1.97-1.76-1.81-4.61-1.8-4.73c0.04-0.55,0.52-0.96,1.06-0.93
			c0.55,0.04,0.97,0.51,0.93,1.06c0,0.05-0.09,2.03,1.15,3.12c0.83,0.74,2.14,0.95,3.9,0.63c6.27-1.13,12.21-11.04,11.99-20
			c-0.07-2.9-0.81-4.9-2.12-5.78c-1.58-1.06-3.65-0.32-3.67-0.31c-0.52,0.2-1.09-0.06-1.29-0.58c-0.2-0.52,0.06-1.09,0.58-1.29
			c0.12-0.05,3.04-1.13,5.5,0.52c1.9,1.28,2.92,3.77,3.01,7.39c0.25,10.01-6.38,20.71-13.64,22.02
			C1593.13,841.12,1592.52,841.18,1591.96,841.18z"/>
	</g>
	<g>
		<path class="st4" d="M1080.62,1440.83c2.2-6.99-1.67-14.45-8.66-16.66c-6.99-2.21-14.44,1.67-16.65,8.66s1.67,14.45,8.66,16.66
			C1070.96,1451.7,1078.41,1447.82,1080.62,1440.83z"/>
		<path class="st7" d="M1067.98,1451.08c-1.44,0-2.89-0.22-4.3-0.67c-7.49-2.36-11.65-10.38-9.29-17.86c1.14-3.63,3.63-6.59,7-8.35
			c3.37-1.75,7.23-2.09,10.85-0.94c7.49,2.36,11.65,10.38,9.29,17.86c-1.14,3.63-3.63,6.59-7,8.34
			C1072.48,1450.54,1070.24,1451.08,1067.98,1451.08z M1067.95,1424.52c-1.95,0-3.88,0.47-5.66,1.39c-2.92,1.52-5.07,4.08-6.06,7.21
			c-2.04,6.47,1.56,13.4,8.03,15.45c3.14,0.99,6.47,0.7,9.38-0.82c2.92-1.52,5.07-4.08,6.05-7.21c2.04-6.47-1.56-13.4-8.03-15.45
			C1070.44,1424.71,1069.19,1424.52,1067.95,1424.52z"/>
	</g>
	<g>
		<path class="st4" d="M1129.17,1456.17c2.21-6.99-1.67-14.45-8.66-16.66s-14.44,1.67-16.65,8.66c-2.2,6.99,1.67,14.45,8.66,16.66
			C1119.52,1467.04,1126.97,1463.16,1129.17,1456.17z"/>
		<path class="st7" d="M1116.54,1466.42c-1.44,0-2.89-0.22-4.3-0.67c-7.49-2.36-11.65-10.38-9.29-17.86c1.14-3.63,3.63-6.59,7-8.35
			c3.37-1.76,7.23-2.09,10.85-0.94c7.49,2.36,11.65,10.38,9.29,17.86c-1.14,3.63-3.63,6.59-7,8.34
			C1121.03,1465.87,1118.79,1466.42,1116.54,1466.42z M1116.5,1439.85c-1.95,0-3.88,0.47-5.66,1.39c-2.92,1.52-5.07,4.08-6.05,7.21
			c-2.04,6.47,1.56,13.4,8.03,15.45c3.14,0.99,6.47,0.7,9.38-0.82c2.92-1.52,5.07-4.08,6.05-7.21c2.04-6.47-1.56-13.4-8.03-15.45
			C1119,1440.04,1117.75,1439.85,1116.5,1439.85z"/>
	</g>
	<g>
		<g>
			<path class="st4" d="M1574.63,1454.95l-29.71-25.37l-1.98-15.09l-36.63-11.54l-60.57,35.28l1.77,15.63
				c0.87,7.7,7.38,13.52,15.13,13.52h107.42C1576.6,1467.38,1579.62,1459.21,1574.63,1454.95z"/>
			<path class="st7" d="M1570.04,1468.34h-107.42c-8.25,0-15.16-6.18-16.09-14.37l-1.77-15.63c-0.04-0.38,0.14-0.75,0.47-0.94
				l60.57-35.28c0.23-0.14,0.51-0.17,0.77-0.09l36.63,11.54c0.36,0.11,0.62,0.42,0.67,0.79l1.94,14.72l29.43,25.13
				c2.58,2.21,3.49,5.69,2.32,8.88C1576.4,1466.29,1573.44,1468.34,1570.04,1468.34z M1446.76,1438.76l1.69,15
				c0.82,7.22,6.91,12.66,14.17,12.66h107.42c3.13,0,5.01-2.06,5.72-3.99c0.71-1.93,0.62-4.71-1.76-6.74l-29.71-25.37
				c-0.18-0.16-0.3-0.37-0.33-0.61l-1.9-14.48l-35.64-11.23L1446.76,1438.76z"/>
		</g>
		<g>
			<path class="st4" d="M1198.93,1447.89c-3.01,9.68,4.23,19.49,14.36,19.49h101.79c7.13,0,13.28-5.01,14.72-12l7.03-34.09
				l-37.45-13.18l-95.4,23.49L1198.93,1447.89z"/>
			<path class="st7" d="M1315.08,1468.34h-101.79c-5.14,0-9.83-2.37-12.88-6.51c-3.05-4.14-3.92-9.33-2.4-14.23l5.06-16.28
				c0.1-0.32,0.36-0.57,0.69-0.65l95.4-23.49c0.18-0.05,0.37-0.04,0.55,0.03l37.45,13.18c0.45,0.16,0.72,0.63,0.62,1.1l-7.03,34.09
				C1329.23,1462.98,1322.64,1468.34,1315.08,1468.34z M1204.75,1432.41l-4.89,15.76c-1.34,4.32-0.57,8.88,2.11,12.52
				c2.68,3.64,6.81,5.73,11.33,5.73h101.79c6.64,0,12.44-4.72,13.78-11.23l6.86-33.26l-36.38-12.8L1204.75,1432.41z
				 M1198.93,1447.89L1198.93,1447.89L1198.93,1447.89z"/>
		</g>
		<polygon class="st5" points="1486.65,998.78 1439.96,1000.54 1369.48,1003.21 1338.37,1004.49 1203.99,1431.61 1336.84,1421.29 
			1407.59,1100.76 1445.73,1438.24 1542.93,1414.5 		"/>
		<path class="st7" d="M1407.03,1093.37c-0.06,0-0.12-0.01-0.18-0.02c-0.52-0.1-0.87-0.6-0.77-1.13l11.37-60.4
			c1.49-7.92,5.79-15.04,12.1-20.05l5.33-4.23c0.42-0.33,1.02-0.26,1.35,0.16c0.33,0.42,0.26,1.02-0.16,1.35l-5.32,4.23
			c-5.95,4.72-10,11.43-11.41,18.9l-11.37,60.4C1407.89,1093.05,1407.48,1093.37,1407.03,1093.37z"/>
		<g>
			<path class="st7" d="M1408.94,779.74c-8.88,0-21.9-3.82-31.11-23.1c-0.24-0.5-0.03-1.1,0.47-1.33c0.5-0.24,1.1-0.03,1.33,0.47
				c14.34,30.03,37.44,20.87,38.42,20.47c11.29-4.83,8.76-25.05,8.74-25.25l-4.2-35.02c-2.45-8.78-6.86-14.87-13.09-18.12
				c-10.09-5.25-21.72-1.22-21.84-1.18l-0.1,0.03c-1.03,0.25-25.22,6.43-18.63,37.58l1.23,4.55c0.14,0.53-0.17,1.08-0.7,1.23
				c-0.53,0.15-1.08-0.17-1.23-0.7l-1.24-4.6c-6.85-32.39,18.62-39.61,20.05-39.98c0.95-0.33,12.71-4.23,23.37,1.3
				c6.77,3.52,11.53,10.06,14.13,19.44l0.03,0.15l4.2,35.08c0.12,0.88,2.76,21.91-9.94,27.35
				C1418.72,778.13,1414.7,779.74,1408.94,779.74z"/>
		</g>
		<g>
			<path class="st7" d="M1373.54,760.51c-3.69,0-7.65-2.72-10.11-6.96c-1.63-2.79-3.18-6.93-1.37-10.76
				c2.49-5.26,7.96-4.77,10.51-3.78c0.51,0.2,0.77,0.78,0.57,1.3c-0.2,0.51-0.78,0.77-1.29,0.57c-0.23-0.09-5.67-2.11-7.98,2.77
				c-1.44,3.04-0.09,6.52,1.29,8.9c2.08,3.58,5.44,5.96,8.39,5.96c0.02,0,0.05,0,0.07,0c1.8-0.02,3.26-0.98,4.24-2.77
				c0.26-0.48,0.87-0.66,1.36-0.4c0.48,0.26,0.66,0.87,0.4,1.36c-1.32,2.43-3.44,3.78-5.97,3.82
				C1373.61,760.51,1373.57,760.51,1373.54,760.51z"/>
		</g>
		<g>
			<path class="st7" d="M1374.93,753c-0.34,0-0.67-0.17-0.86-0.49c-2.26-3.79-4.74-4.41-4.77-4.41c-0.53-0.12-0.87-0.66-0.75-1.19
				c0.12-0.53,0.64-0.87,1.17-0.76c0.13,0.03,3.31,0.74,6.06,5.34c0.28,0.47,0.13,1.09-0.35,1.37
				C1375.28,752.95,1375.1,753,1374.93,753z"/>
		</g>
		<path class="st7" d="M1421.11,709.09c0,0-20.51-3.52-34.28,8.98c0,0,1.91,9.75,0,13.14s-4.87,10.38,2.33,19.5
			c0,0,4.12,4.91,11.38,1.29c7.26-3.62,17.91-9.52,26.78-4.88c0,0,6.42,26.72-12.38,31.05c-18.8,4.33-31.39-8.82-36.22-21.96
			c0,0,2.35-16.82-13.77-15.55c0,0-16.32-31.99,1.84-49.15c18.16-17.16,43-10.24,51.44-1.6c11.49,11.76,10.67,26.58,6.48,35.43
			C1424.72,725.34,1423.69,713.58,1421.11,709.09z"/>
		<g>
			<path class="st7" d="M1401.78,804.26c-13.26,0-28.73-4.98-41.4-13.33c-0.46-0.3-0.59-0.92-0.28-1.39s0.92-0.59,1.39-0.28
				c12.35,8.14,27.41,13,40.29,13c16,0,31.65-5.54,44.06-15.6c0.43-0.35,1.06-0.28,1.41,0.15c0.35,0.43,0.28,1.06-0.15,1.41
				C1434.33,798.57,1418.24,804.26,1401.78,804.26z"/>
		</g>
		<g>
			<path class="st7" d="M1530.61,872.37c-0.3,0-0.6-0.14-0.8-0.4c-0.41-0.54-40.94-54.6-48.79-65.73
				c-10.6-15.02-26.56-16.86-26.72-16.87l-32.08-3.76l-2.76-11.72c-0.13-0.54,0.21-1.08,0.74-1.2c0.54-0.12,1.08,0.21,1.2,0.74
				l2.44,10.35l30.68,3.6c0.68,0.07,17.01,1.96,28.13,17.71c7.84,11.1,48.35,65.14,48.76,65.68c0.33,0.44,0.24,1.07-0.2,1.4
				C1531.03,872.3,1530.82,872.37,1530.61,872.37z"/>
		</g>
		<g>
			<path class="st7" d="M1334.68,1005.53l4.94-124.39c0.02-0.55,0.5-0.98,1.04-0.96c0.55,0.02,0.98,0.49,0.96,1.04l-4.85,122.23
				l150.53-5.69l-22.81-174.41c-0.07-0.55,0.31-1.05,0.86-1.12c0.54-0.07,1.05,0.31,1.12,0.86l23.1,176.59l-1.1,0.04
				L1334.68,1005.53z"/>
		</g>
		<g>
			<path class="st7" d="M1536.9,936.65c-22.01,0-33.39-18.35-34.16-19.64l-31.04-39.57c-0.34-0.43-0.27-1.06,0.17-1.4
				c0.43-0.34,1.06-0.27,1.4,0.17l31.16,39.74c0.11,0.2,11.5,19.59,34.02,18.67l0.05,0l0.05,0c0.14,0.01,14.88,0.53,27.77-23.4
				l19.11-36.53c0.26-0.49,0.86-0.68,1.35-0.42c0.49,0.26,0.68,0.86,0.42,1.35l-19.12,36.54c-13.28,24.66-28.39,24.51-29.6,24.46
				C1537.96,936.64,1537.42,936.65,1536.9,936.65z"/>
		</g>
		<g>
			<path class="st7" d="M1520.31,892.6c-0.15,0-0.31-0.03-0.45-0.11c-0.49-0.25-0.69-0.85-0.44-1.34l57.42-112.79
				c1.15-1.96,4.31-5.19,8.23-3.82c1.27,0.44,2.19,1.25,2.74,2.4c1.23,2.57,0.07,5.95,0.02,6.09l-11.23,26.12
				c-0.22,0.51-0.81,0.74-1.31,0.52c-0.51-0.22-0.74-0.81-0.52-1.31l11.2-26.06c0.04-0.13,1.62-4.76-1.56-5.88
				c-3.34-1.18-5.72,2.73-5.81,2.9l-57.39,112.74C1521.03,892.4,1520.68,892.6,1520.31,892.6z"/>
		</g>
		<g>
			<path class="st7" d="M1567.48,833.43c-0.13,0-0.26-0.03-0.39-0.08c-0.51-0.22-0.74-0.8-0.53-1.31c2.4-5.63,7.54-9.17,10.94-11.51
				c0.45-0.31,0.86-0.6,1.24-0.86c3.28-2.35,4.5-4.18,4.32-6.56c-0.18-2.38-2.86-3.54-2.88-3.55c-6.1-1.99-14.57,7.54-14.65,7.63
				c-0.36,0.42-1,0.46-1.41,0.09c-0.42-0.36-0.46-1-0.09-1.41c0.38-0.44,9.43-10.62,16.85-8.19c0.23,0.09,3.91,1.66,4.18,5.27
				c0.29,3.89-2.44,6.4-5.15,8.33c-0.38,0.27-0.81,0.57-1.27,0.88c-3.21,2.21-8.07,5.56-10.24,10.65
				C1568.24,833.2,1567.87,833.43,1567.48,833.43z"/>
		</g>
		<g>
			<path class="st7" d="M1575.43,833.53c-0.46,0-0.88-0.05-1.26-0.14c-2.97-0.65-4.77-3.41-5.05-5.07
				c-0.09-0.54,0.28-1.06,0.82-1.15c0.55-0.09,1.06,0.28,1.15,0.82c0.17,1,1.48,3,3.51,3.44c2.38,0.52,5-1.21,7.59-5.01
				c3.2-4.68,5.73-10.3,6.95-15.43c0.63-2.64,1.39-7.47-0.58-10.15c-0.85-1.16-2.13-1.78-3.9-1.9c-2.46-0.18-4.26,0.96-4.28,0.97
				c-0.46,0.29-1.08,0.16-1.38-0.3c-0.3-0.46-0.17-1.08,0.3-1.38c0.1-0.06,2.36-1.5,5.5-1.28c2.37,0.16,4.17,1.08,5.38,2.71
				c2.32,3.16,1.78,8.16,0.91,11.8c-1.27,5.35-3.91,11.22-7.25,16.09C1580.6,832.3,1577.63,833.53,1575.43,833.53z"/>
		</g>
		<g>
			<path class="st7" d="M1584.44,836.99c-0.15,0-0.3-0.01-0.44-0.02c-1.95-0.16-3.42-0.86-4.37-2.08c-1.42-1.81-1.06-4.08-1.05-4.18
				c0.09-0.54,0.6-0.92,1.15-0.83c0.54,0.09,0.91,0.6,0.83,1.14c0,0.03-0.21,1.54,0.66,2.65c0.59,0.75,1.58,1.19,2.95,1.3
				c4.03,0.35,12.33-6.79,13.93-19.43c0.52-4.14-0.06-7.06-1.7-8.46c-1.94-1.65-4.87-0.81-4.9-0.81c-0.53,0.15-1.08-0.15-1.24-0.68
				s0.14-1.08,0.67-1.24c0.16-0.05,3.98-1.16,6.76,1.19c2.22,1.88,3.02,5.32,2.4,10.24C1598.4,829.03,1589.88,836.99,1584.44,836.99
				z"/>
		</g>
		<g>
			<path class="st7" d="M1583.05,876.94c-1.52,0-3.38-0.28-5.53-0.84c-4.94-1.28-10.96-3.9-16.96-7.36
				c-11.32-6.53-21.92-15.95-19.28-20.52c0.28-0.48,0.89-0.64,1.37-0.37c0.48,0.28,0.64,0.89,0.37,1.37
				c-1.25,2.17,5.35,10.17,18.55,17.79c5.85,3.38,11.69,5.92,16.46,7.15c5.01,1.3,7.38,0.75,7.88-0.12c0.5-0.87-0.21-3.21-3.88-6.93
				c-0.39-0.39-0.38-1.03,0.01-1.41c0.39-0.39,1.03-0.38,1.41,0.01c3.96,4,5.4,7.23,4.19,9.33
				C1586.9,876.31,1585.35,876.94,1583.05,876.94z"/>
		</g>
		<g>
			<path class="st7" d="M1578.26,876.25c-0.14,0-0.28-0.03-0.42-0.09c-0.5-0.23-0.72-0.82-0.49-1.33l16.09-35.07
				c0.23-0.5,0.82-0.72,1.33-0.49c0.5,0.23,0.72,0.82,0.49,1.33l-16.09,35.07C1579,876.04,1578.64,876.25,1578.26,876.25z"/>
		</g>
		<g>
			<g>
				<path class="st7" d="M1241.74,1058.11c-0.03,0-0.07,0-0.1-0.01c-0.16-0.02-15.81-1.87-17.05-20.23
					c-0.75-11.12,11.04-22.37,21.06-29.85c0.44-0.33,1.07-0.24,1.4,0.2c0.33,0.44,0.24,1.07-0.2,1.4
					c-9.63,7.18-20.96,17.89-20.26,28.11c1.13,16.65,14.69,18.32,15.27,18.38c0.55,0.06,0.95,0.55,0.89,1.1
					C1242.68,1057.73,1242.25,1058.11,1241.74,1058.11z"/>
			</g>
			<g>
				<path class="st7" d="M1251.89,1060.96c-5.07,0-9.21-1.46-12.31-4.36c-6.83-6.37-6.19-17.28-6.16-17.74
					c0.04-0.55,0.51-0.99,1.06-0.93c0.55,0.04,0.97,0.51,0.93,1.06c-0.01,0.1-0.6,10.44,5.53,16.15c3.46,3.22,8.44,4.41,14.82,3.54
					c0.54-0.07,1.05,0.31,1.13,0.86c0.07,0.55-0.31,1.05-0.86,1.13C1254.59,1060.86,1253.21,1060.96,1251.89,1060.96z"/>
			</g>
			<g>
				<path class="st7" d="M1258.19,1060.45c-2.72,0-5.27-1.24-7.59-3.69c-8.71-9.19-6.91-19.81-6.83-20.26
					c0.1-0.54,0.61-0.9,1.16-0.81c0.54,0.1,0.9,0.62,0.81,1.16c-0.02,0.1-1.68,10.1,6.31,18.53c2.04,2.15,4.22,3.17,6.51,3.05
					c4.59-0.24,8.25-4.97,8.29-5.02c0.33-0.44,0.96-0.52,1.4-0.19c0.44,0.33,0.52,0.96,0.19,1.4c-0.17,0.22-4.24,5.5-9.76,5.8
					C1258.52,1060.44,1258.36,1060.45,1258.19,1060.45z"/>
			</g>
			<g>
				<path class="st7" d="M1266.89,1054.42c-0.23,0-0.45-0.01-0.68-0.04c-2.15-0.23-3.95-1.59-5.2-3.93
					c-3.25-6.09,5.57-17.86,5.95-18.35c0.33-0.44,0.96-0.53,1.4-0.19c0.44,0.33,0.53,0.96,0.19,1.4
					c-2.35,3.11-7.98,12.08-5.78,16.21c0.94,1.76,2.17,2.73,3.65,2.89c2.95,0.32,7.09-2.51,11.67-7.94
					c8.25-9.78,10.83-18.8,12.16-25.56c0.11-0.54,0.63-0.89,1.17-0.79c0.54,0.11,0.89,0.63,0.79,1.17c-1.38,7-4.06,16.33-12.6,26.46
					C1274.76,1051.5,1270.48,1054.42,1266.89,1054.42z"/>
			</g>
		</g>
		<g>
			<path class="st7" d="M1293.44,1020.62l-51.06-11.65l8.5-33.77c9.74-39.81,30.95-94.74,31.16-95.29
				c0.18-0.39,15.45-33.22,28.1-55.77c14.81-26.4,39.57-32.11,39.82-32.16l29.9-7.92l-1.73-26.75c-0.04-0.55,0.38-1.03,0.93-1.06
				c0.57-0.03,1.03,0.38,1.06,0.93l1.84,28.4l-31.53,8.35c-0.28,0.06-24.19,5.61-38.55,31.2c-12.61,22.48-27.85,55.24-28.01,55.57
				c-0.19,0.49-21.35,55.3-31.06,94.99l-8,31.8l47.13,10.75c2.43-10.18,23.92-97.57,61.22-163.38c0.27-0.48,0.88-0.65,1.36-0.38
				c0.48,0.27,0.65,0.88,0.38,1.36c-39.32,69.38-61.02,162.88-61.24,163.82L1293.44,1020.62z"/>
		</g>
		<path class="st7" d="M1259.98,1059.22l-31.76,100.68c-1.35,4.3-4.3,7.81-8.3,9.89c-3.99,2.08-8.55,2.48-12.84,1.13
			c-0.01,0-0.02-0.01-0.02-0.01c-8.87-2.8-13.8-12.29-11.01-21.16l32.3-102.41c-0.49-0.56-0.98-1.14-1.47-1.76l-32.67,103.59
			c-3.11,9.87,2.38,20.44,12.24,23.57c0.01,0,0.02,0.01,0.03,0.01c1.87,0.59,3.78,0.88,5.68,0.88c2.98,0,5.93-0.72,8.65-2.13
			c4.46-2.32,7.74-6.23,9.25-11.02l32.12-101.84C1261.36,1059.03,1260.63,1059.2,1259.98,1059.22z"/>
		<g>
			<path class="st4" d="M1123.35,1435.66l-50.26-15.88c-19.75-6.24-30.71-27.3-24.48-47.06l68.26-216.43
				c6.23-19.76,27.31-30.73,47.08-24.49l50.26,15.88c19.75,6.24,30.71,27.3,24.48,47.06l-68.26,216.43
				C1164.19,1430.93,1143.11,1441.9,1123.35,1435.66z"/>
			<path class="st7" d="M1134.69,1438.38c-3.9,0-7.81-0.6-11.63-1.81l-50.26-15.88c-20.22-6.39-31.49-28.04-25.11-48.27
				l68.26-216.43c3.09-9.8,9.82-17.82,18.94-22.56c9.12-4.75,19.54-5.65,29.35-2.55l50.26,15.88c20.22,6.39,31.49,28.04,25.11,48.27
				l-68.26,216.43c-3.09,9.81-9.82,17.82-18.94,22.56C1146.84,1436.91,1140.79,1438.38,1134.69,1438.38z M1152.61,1131.01
				c-5.79,0-11.54,1.39-16.83,4.14c-8.66,4.51-15.05,12.12-17.99,21.43l-68.26,216.43c-6.06,19.21,4.64,39.78,23.85,45.85
				l50.26,15.88c9.31,2.94,19.21,2.08,27.88-2.43s15.05-12.12,17.99-21.43l68.26-216.43c6.06-19.21-4.64-39.78-23.85-45.85
				l-50.26-15.88C1160.03,1131.58,1156.31,1131.01,1152.61,1131.01z"/>
		</g>
		<path class="st7" d="M1114.67,1433.01c-0.1,0-0.19-0.01-0.29-0.04c-0.51-0.16-0.79-0.7-0.63-1.21l90.33-286.4
			c0.16-0.51,0.71-0.79,1.21-0.63c0.51,0.16,0.79,0.7,0.63,1.21l-90.33,286.4C1115.46,1432.74,1115.08,1433.01,1114.67,1433.01z"/>
	</g>
	<line class="st11" x1="108.27" y1="1467.92" x2="2052.69" y2="1467.92"/>
	<g>
		<rect x="128.28" y="875.97" class="st4" width="681.33" height="277.03"/>
		<path class="st7" d="M809.61,1153.74H128.28c-0.41,0-0.74-0.33-0.74-0.74V875.97c0-0.41,0.33-0.74,0.74-0.74h681.33
			c0.41,0,0.74,0.33,0.74,0.74V1153C810.35,1153.41,810.01,1153.74,809.61,1153.74z M129.02,1152.26h679.85V876.71H129.02V1152.26z"
			/>
	</g>
	<path class="st8" d="M128.98,1014.91h679.92l-45.68-37.95c-3.63-3.02-8.83-3.56-13.05-1.36c-3.58,1.86-7.92,1.78-11.42-0.23
		l-15.01-8.6c-3.48-1.99-7.79-2.09-11.36-0.25l-11.88,6.11c-3.44,1.77-7.57,1.75-10.99-0.05l-12.59-6.61
		c-3.54-1.86-7.83-1.81-11.32,0.14l-11.94,6.65c-4.26,2.37-9.61,1.89-13.34-1.2l-3.68-3.05c-3.65-3.03-8.87-3.56-13.1-1.33
		l-34.43,18.16c-3.38,1.78-7.47,1.83-10.89,0.11l-21.74-10.88c-3.29-1.65-7.21-1.67-10.52-0.07l-39.99,19.34
		c-5.3,2.57-11.77,0.85-14.95-3.98l-0.35-0.53c-3.27-4.97-10-6.62-15.35-3.77l-25.38,13.51c-3.88,2.07-8.64,1.81-12.26-0.65
		l-32.42-22.04c-3.93-2.67-9.17-2.72-13.15-0.12l-35.08,22.88c-3.18,2.07-7.21,2.49-10.78,1.12l-31.87-12.27
		c-2.42-0.93-5.09-1.05-7.59-0.33l-46.84,13.41c-3.09,0.88-6.42,0.49-9.2-1.1l-29.1-16.62c-3.15-1.8-6.99-2.05-10.37-0.69
		l-36.84,14.85c-3.63,1.46-7.78,1.05-11.02-1.1l-5.18-3.43c-5.32-3.52-12.6-2.17-16.18,3L128.98,1014.91z"/>
	<g>
		<path class="st7" d="M734.53,1032.4c0,1.55-1.26,2.8-2.82,2.8s-2.82-1.25-2.82-2.8c0-1.55,1.26-2.8,2.82-2.8
			S734.53,1030.85,734.53,1032.4z"/>
		<path class="st7" d="M731.71,1033.14c-0.41,0-0.74-0.33-0.74-0.74v-7.27c0-0.41,0.33-0.74,0.74-0.74s0.74,0.33,0.74,0.74v7.27
			C732.45,1032.8,732.12,1033.14,731.71,1033.14z"/>
	</g>
	<g>
		<path class="st4" d="M616.17,986.97l10.54,21.57c5.21,10.66,16.09,17.43,28.03,17.43h114.47c3.06,0,4.75-3.53,2.82-5.89
			l-3.84-4.68c-6.58-8.01-16.44-12.66-26.86-12.66H637.56l-9.25-12.06c-1.79-2.33-4.57-3.7-7.53-3.7H616.17z"/>
		<path class="st7" d="M769.21,1026.7H654.74c-12.13,0-23.4-7-28.69-17.84l-10.54-21.57c-0.11-0.23-0.1-0.5,0.04-0.72
			c0.14-0.22,0.37-0.35,0.63-0.35h4.61c3.16,0,6.2,1.49,8.11,3.99l9.03,11.77h103.4c10.68,0,20.68,4.71,27.43,12.93l3.84,4.68
			c1.08,1.31,1.29,3.07,0.57,4.6C772.44,1025.74,770.92,1026.7,769.21,1026.7z M617.36,987.71l10.02,20.5
			c5.05,10.33,15.79,17.01,27.36,17.01h114.47c1.15,0,2.13-0.62,2.62-1.65c0.48-1.02,0.34-2.15-0.38-3.03l-3.84-4.68
			c-6.47-7.88-16.05-12.39-26.29-12.39H637.56c-0.23,0-0.45-0.11-0.59-0.29l-9.25-12.06c-1.64-2.14-4.23-3.41-6.94-3.41H617.36z"/>
	</g>
	<polygon class="st9" points="734.53,1016.87 719.25,1016.87 713.98,1011.01 729.26,1011.01 	"/>
	<path class="st4" d="M630.43,1041.6h6.03c6.22,0,12.33-1.66,17.68-4.81l52.39-22.65h-35.72L630.43,1041.6z"/>
	<g>
		<path class="st4" d="M670.81,1014.14l-40.38,27.45h6.03c6.22,0,12.33-1.66,17.68-4.81l52.39-22.65H670.81z"/>
		<path class="st7" d="M636.46,1042.34h-6.03c-0.33,0-0.61-0.21-0.71-0.52c-0.1-0.31,0.02-0.65,0.29-0.83l40.38-27.45
			c0.34-0.23,0.8-0.14,1.03,0.2c0.23,0.34,0.14,0.8-0.2,1.03l-38.39,26.1h3.62c6.09,0,12.07-1.63,17.31-4.71
			c0.03-0.02,0.05-0.03,0.08-0.04l52.39-22.65c0.37-0.16,0.81,0.01,0.97,0.39c0.16,0.38-0.01,0.81-0.39,0.97l-52.35,22.63
			C649.03,1040.65,642.8,1042.34,636.46,1042.34z"/>
	</g>
	<path class="st7" d="M763.79,1014.62h-12.4c-5.42,0-10.61-2.57-13.87-6.87l-1.54-2.03c-0.25-0.33-0.18-0.79,0.14-1.04
		c0.33-0.25,0.79-0.18,1.04,0.14l1.54,2.03c2.98,3.93,7.72,6.28,12.69,6.28h12.4c0.41,0,0.74,0.33,0.74,0.74
		C764.53,1014.29,764.2,1014.62,763.79,1014.62z"/>
	<g>
		<path class="st7" d="M284.9,1066.87c0,1.92-1.57,3.47-3.5,3.47s-3.5-1.55-3.5-3.47c0-1.92,1.57-3.47,3.5-3.47
			S284.9,1064.95,284.9,1066.87z"/>
		<path class="st7" d="M281.4,1067.61c-0.41,0-0.74-0.33-0.74-0.74v-9.02c0-0.41,0.33-0.74,0.74-0.74s0.74,0.33,0.74,0.74v9.02
			C282.14,1067.28,281.81,1067.61,281.4,1067.61z"/>
	</g>
	<g>
		<path class="st4" d="M138.15,1010.55l13.07,26.74c6.46,13.21,19.95,21.61,34.75,21.61H327.9c3.8,0,5.9-4.38,3.49-7.3l-4.76-5.8
			c-8.16-9.94-20.39-15.7-33.3-15.7H164.67l-11.47-14.95c-2.22-2.89-5.67-4.59-9.33-4.59H138.15z"/>
		<path class="st7" d="M327.9,1059.63H185.97c-14.98,0-28.88-8.64-35.42-22.02l-13.07-26.74c-0.11-0.23-0.1-0.5,0.04-0.72
			c0.14-0.22,0.37-0.35,0.63-0.35h5.71c3.87,0,7.58,1.82,9.92,4.88l11.25,14.66h128.29c13.19,0,25.54,5.82,33.88,15.97l4.76,5.8
			c1.29,1.57,1.55,3.68,0.68,5.51C331.77,1058.49,329.95,1059.63,327.9,1059.63z M139.34,1011.29l12.55,25.67
			c6.29,12.87,19.67,21.19,34.09,21.19H327.9c1.48,0,2.79-0.82,3.41-2.15c0.63-1.33,0.45-2.8-0.49-3.94l-4.76-5.8
			c-8.05-9.81-19.98-15.43-32.73-15.43H164.67c-0.23,0-0.45-0.11-0.59-0.29l-11.47-14.95c-2.07-2.69-5.34-4.3-8.75-4.3H139.34z"/>
	</g>
	<polygon class="st9" points="284.9,1047.63 265.95,1047.63 259.41,1040.36 278.36,1040.36 	"/>
	<path class="st4" d="M155.83,1078.28h7.48c7.71,0,15.29-2.06,21.92-5.96l64.96-28.08H205.9L155.83,1078.28z"/>
	<g>
		<path class="st4" d="M205.9,1044.24l-50.07,34.04h7.48c7.71,0,15.29-2.06,21.92-5.96l64.96-28.08H205.9z"/>
		<path class="st7" d="M163.31,1079.02h-7.48c-0.33,0-0.61-0.21-0.71-0.52c-0.1-0.31,0.02-0.65,0.29-0.83l50.07-34.04
			c0.34-0.23,0.8-0.14,1.03,0.2c0.23,0.34,0.14,0.8-0.2,1.03l-48.08,32.69h5.07c7.58,0,15.03-2.03,21.55-5.86
			c0.03-0.02,0.05-0.03,0.08-0.04l64.96-28.08c0.37-0.16,0.81,0.01,0.97,0.39c0.16,0.38-0.01,0.81-0.39,0.97l-64.92,28.06
			C178.83,1076.93,171.13,1079.02,163.31,1079.02z"/>
	</g>
	<path class="st7" d="M321.18,1044.66H305.8c-6.67,0-13.04-3.16-17.05-8.45l-1.91-2.52c-0.25-0.33-0.18-0.79,0.14-1.04
		c0.33-0.25,0.79-0.18,1.04,0.14l1.91,2.52c3.73,4.92,9.66,7.86,15.87,7.86h15.37c0.41,0,0.74,0.33,0.74,0.74
		S321.59,1044.66,321.18,1044.66z"/>
	<g>
		<path class="st7" d="M640.39,1152.48c-0.41,0-0.74-0.33-0.74-0.74V879.23c0-0.41,0.33-0.74,0.74-0.74c0.41,0,0.74,0.33,0.74,0.74
			v272.51C641.13,1152.15,640.8,1152.48,640.39,1152.48z"/>
		<path class="st7" d="M465.21,1152.48c-0.41,0-0.74-0.33-0.74-0.74V879.23c0-0.41,0.33-0.74,0.74-0.74c0.41,0,0.74,0.33,0.74,0.74
			v272.51C465.95,1152.15,465.62,1152.48,465.21,1152.48z"/>
		<path class="st7" d="M290.03,1152.48c-0.41,0-0.74-0.33-0.74-0.74V879.23c0-0.41,0.33-0.74,0.74-0.74s0.74,0.33,0.74,0.74v272.51
			C290.77,1152.15,290.44,1152.48,290.03,1152.48z"/>
	</g>
	<g>
		<g>
			<path class="st7" d="M905.34,1132.87c-0.61,0-1.1,0.61-1.1,1.36v0.27v4.69v6.77c0,0.75,0.49,1.36,1.1,1.36h1.36
				c0.61,0,1.1-0.61,1.1-1.36v-5.41c0-0.75,0.49-1.36,1.1-1.36h61.03c0.61,0,1.1,0.61,1.1,1.36v5.41c0,0.75,0.49,1.36,1.1,1.36h1.36
				c0.61,0,1.1-0.61,1.1-1.36v-6.77v-4.69v-0.27c0-0.75-0.49-1.36-1.1-1.36H905.34z"/>
			<path class="st7" d="M973.01,1224.95c-0.41,0-0.74-0.33-0.74-0.74v-79.52c0-0.41,0.33-0.74,0.74-0.74c0.41,0,0.74,0.33,0.74,0.74
				v79.52C973.75,1224.62,973.41,1224.95,973.01,1224.95z"/>
			<path class="st7" d="M906.07,1224.95c-0.41,0-0.74-0.33-0.74-0.74v-79.52c0-0.41,0.33-0.74,0.74-0.74c0.41,0,0.74,0.33,0.74,0.74
				v79.52C906.81,1224.62,906.48,1224.95,906.07,1224.95z"/>
		</g>
		<path class="st5" d="M992.91,1445.3H885.94c-18.55,0-33.59-15.04-33.59-33.59v-184.09c0-18.55,15.04-33.59,33.59-33.59h106.96
			c18.55,0,33.59,15.04,33.59,33.59v184.09C1026.5,1430.26,1011.46,1445.3,992.91,1445.3z"/>
		<path class="st7" d="M882.3,1429.58h-1.11c-3.32,0-6.03-2.7-6.03-6.03v-201.24c0-3.32,2.7-6.03,6.03-6.03h1.11
			c3.32,0,6.03,2.7,6.03,6.03v201.24C888.32,1426.88,885.62,1429.58,882.3,1429.58z M881.18,1217.77c-2.51,0-4.55,2.04-4.55,4.54
			v201.24c0,2.51,2.04,4.54,4.55,4.54h1.11c2.51,0,4.55-2.04,4.55-4.54v-201.24c0-2.51-2.04-4.54-4.55-4.54H881.18z"/>
		<path class="st7" d="M921.16,1429.58h-1.12c-3.32,0-6.02-2.7-6.02-6.03v-201.24c0-3.32,2.7-6.03,6.02-6.03h1.12
			c3.32,0,6.02,2.7,6.02,6.03v201.24C927.19,1426.88,924.48,1429.58,921.16,1429.58z M920.05,1217.77c-2.51,0-4.54,2.04-4.54,4.54
			v201.24c0,2.51,2.04,4.54,4.54,4.54h1.12c2.51,0,4.54-2.04,4.54-4.54v-201.24c0-2.51-2.04-4.54-4.54-4.54H920.05z"/>
		<path class="st7" d="M960.02,1429.58h-1.11c-3.32,0-6.03-2.7-6.03-6.03v-201.24c0-3.32,2.7-6.03,6.03-6.03h1.11
			c3.32,0,6.03,2.7,6.03,6.03v201.24C966.05,1426.88,963.35,1429.58,960.02,1429.58z M958.91,1217.77c-2.51,0-4.55,2.04-4.55,4.54
			v201.24c0,2.51,2.04,4.54,4.55,4.54h1.11c2.51,0,4.55-2.04,4.55-4.54v-201.24c0-2.51-2.04-4.54-4.55-4.54H958.91z"/>
		<path class="st7" d="M998.89,1429.58h-1.11c-3.32,0-6.03-2.7-6.03-6.03v-201.24c0-3.32,2.7-6.03,6.03-6.03h1.11
			c3.32,0,6.03,2.7,6.03,6.03v201.24C1004.91,1426.88,1002.21,1429.58,998.89,1429.58z M997.77,1217.77c-2.51,0-4.54,2.04-4.54,4.54
			v201.24c0,2.51,2.04,4.54,4.54,4.54h1.11c2.51,0,4.54-2.04,4.54-4.54v-201.24c0-2.51-2.04-4.54-4.54-4.54H997.77z"/>
	</g>
	<g>
		<g>
			<ellipse class="st4" cx="897.33" cy="1456.83" rx="9.51" ry="9.48"/>
			<path class="st7" d="M897.34,1467.05c-5.65,0-10.25-4.58-10.25-10.22c0-5.64,4.6-10.22,10.25-10.22
				c5.65,0,10.25,4.58,10.25,10.22C907.58,1462.46,902.98,1467.05,897.34,1467.05z M897.34,1448.09c-4.83,0-8.77,3.92-8.77,8.74
				c0,4.82,3.93,8.74,8.77,8.74c4.83,0,8.76-3.92,8.76-8.74C906.1,1452.01,902.17,1448.09,897.34,1448.09z"/>
		</g>
		<g>
			<ellipse class="st4" cx="975.31" cy="1456.83" rx="9.51" ry="9.48"/>
			<path class="st7" d="M975.31,1467.05c-5.65,0-10.25-4.58-10.25-10.22c0-5.64,4.6-10.22,10.25-10.22
				c5.65,0,10.25,4.58,10.25,10.22C985.55,1462.46,980.96,1467.05,975.31,1467.05z M975.31,1448.09c-4.83,0-8.76,3.92-8.76,8.74
				c0,4.82,3.93,8.74,8.76,8.74s8.76-3.92,8.76-8.74C984.07,1452.01,980.14,1448.09,975.31,1448.09z"/>
		</g>
	</g>
	<g>
		<g>
			<path class="st7" d="M770.44,1465.3c-0.41,0-0.74-0.33-0.74-0.74v-115.2c0-0.41,0.33-0.74,0.74-0.74c0.41,0,0.74,0.33,0.74,0.74
				v115.2C771.18,1464.97,770.85,1465.3,770.44,1465.3z"/>
			<path class="st7" d="M597.26,1462.34c-0.41,0-0.74-0.33-0.74-0.74v-112.24c0-0.41,0.33-0.74,0.74-0.74
				c0.41,0,0.74,0.33,0.74,0.74v112.24C598,1462.01,597.67,1462.34,597.26,1462.34z"/>
			<ellipse class="st7" cx="596.59" cy="1461.61" rx="5.51" ry="4.99"/>
			<g>
				<path class="st4" d="M778.89,1346.58H594.34c-12.92,0-24.27-7.78-27.8-19.05l-38.41-177.87c-3.71-11.87,6.12-23.66,19.73-23.66
					h119.04c9.32,0,17.46,5.69,19.83,13.86l34.11,176.92h58.38c7.28,0,13.09,5.51,12.74,12.11l-0.35,6.66
					C791.31,1341.73,785.7,1346.58,778.89,1346.58z"/>
				<path class="st7" d="M778.89,1347.32H594.34c-13.18,0-24.9-8.05-28.5-19.57l-38.42-177.93c-1.69-5.4-0.68-11.24,2.78-15.96
					c3.96-5.38,10.56-8.59,17.67-8.59h119.04c9.64,0,18.09,5.92,20.54,14.39l34.01,176.39h57.77c3.92,0,7.64,1.55,10.21,4.25
					c2.28,2.4,3.44,5.46,3.27,8.63l-0.35,6.66C792.03,1342.18,786.1,1347.32,778.89,1347.32z M547.87,1126.75
					c-6.64,0-12.8,2.99-16.48,7.99c-3.18,4.33-4.11,9.69-2.54,14.7l38.42,177.93c3.39,10.84,14.53,18.46,27.07,18.46h184.54
					c6.43,0,11.7-4.53,12-10.32l0.35-6.66c0.14-2.76-0.87-5.44-2.87-7.53c-2.29-2.41-5.62-3.79-9.14-3.79h-58.38
					c-0.35,0-0.66-0.25-0.73-0.6l-34.11-176.92c-2.26-7.78-10.12-13.26-19.11-13.26H547.87z"/>
			</g>
			<path class="st7" d="M715.82,1317.47H599.41c-0.41,0-0.74-0.33-0.74-0.74c0-0.41,0.33-0.74,0.74-0.74h116.41
				c0.41,0,0.74,0.33,0.74,0.74C716.56,1317.14,716.23,1317.47,715.82,1317.47z"/>
		</g>
		<g>
			<path class="st7" d="M569.39,1462.34c-0.41,0-0.74-0.33-0.74-0.74v-112.24c0-0.41,0.33-0.74,0.74-0.74s0.74,0.33,0.74,0.74
				v112.24C570.13,1462.01,569.8,1462.34,569.39,1462.34z"/>
			<path class="st7" d="M396.21,1465.3c-0.41,0-0.74-0.33-0.74-0.74v-115.2c0-0.41,0.33-0.74,0.74-0.74c0.41,0,0.74,0.33,0.74,0.74
				v115.2C396.95,1464.97,396.62,1465.3,396.21,1465.3z"/>
			<g>
				<path class="st4" d="M577.84,1346.58H393.29c-12.92,0-24.27-7.78-27.8-19.05l-38.41-177.87c-3.71-11.87,6.12-23.66,19.73-23.66
					h119.04c9.32,0,17.46,5.69,19.83,13.86l34.11,176.92h58.38c7.28,0,13.09,5.51,12.74,12.11l-0.35,6.66
					C590.26,1341.73,584.65,1346.58,577.84,1346.58z"/>
				<path class="st7" d="M577.84,1347.32H393.29c-13.18,0-24.9-8.05-28.5-19.57l-38.42-177.93c-1.69-5.4-0.68-11.24,2.78-15.96
					c3.96-5.38,10.56-8.59,17.67-8.59h119.04c9.64,0,18.09,5.92,20.54,14.39l34.01,176.39h57.77c3.92,0,7.64,1.55,10.21,4.26
					c2.28,2.4,3.44,5.46,3.27,8.63l-0.35,6.66C590.98,1342.18,585.05,1347.32,577.84,1347.32z M346.82,1126.75
					c-6.64,0-12.8,2.99-16.48,7.99c-3.18,4.33-4.11,9.69-2.54,14.7l38.42,177.93c3.39,10.84,14.53,18.46,27.07,18.46h184.54
					c6.43,0,11.7-4.53,12-10.32l0.35-6.66c0.14-2.76-0.87-5.44-2.87-7.53c-2.29-2.41-5.62-3.79-9.14-3.79H519.8
					c-0.35,0-0.66-0.25-0.73-0.6l-34.11-176.92c-2.26-7.78-10.12-13.26-19.11-13.26H346.82z"/>
			</g>
			<path class="st7" d="M514.77,1317.47H398.37c-0.41,0-0.74-0.33-0.74-0.74c0-0.41,0.33-0.74,0.74-0.74h116.41
				c0.41,0,0.74,0.33,0.74,0.74C515.51,1317.14,515.18,1317.47,514.77,1317.47z"/>
		</g>
		<g>
			<path class="st7" d="M368.34,1465.3c-0.41,0-0.74-0.33-0.74-0.74v-115.2c0-0.41,0.33-0.74,0.74-0.74s0.74,0.33,0.74,0.74v115.2
				C369.08,1464.97,368.75,1465.3,368.34,1465.3z"/>
			<path class="st7" d="M195.16,1465.3c-0.41,0-0.74-0.33-0.74-0.74v-115.2c0-0.41,0.33-0.74,0.74-0.74c0.41,0,0.74,0.33,0.74,0.74
				v115.2C195.9,1464.97,195.57,1465.3,195.16,1465.3z"/>
			<g>
				<path class="st4" d="M377.86,1346.58H193.31c-12.92,0-24.27-7.78-27.8-19.05l-38.41-177.87c-3.71-11.87,6.12-23.66,19.73-23.66
					h119.04c9.32,0,17.46,5.69,19.83,13.86l34.11,176.92h58.38c7.28,0,13.09,5.51,12.74,12.11l-0.35,6.66
					C390.28,1341.73,384.67,1346.58,377.86,1346.58z"/>
				<path class="st7" d="M377.86,1347.32H193.31c-13.18,0-24.9-8.05-28.5-19.57l-38.42-177.93c-1.69-5.4-0.68-11.24,2.78-15.96
					c3.96-5.38,10.56-8.59,17.67-8.59h119.04c9.64,0,18.09,5.92,20.54,14.39l34.01,176.39h57.77c3.92,0,7.64,1.55,10.21,4.25
					c2.28,2.4,3.44,5.46,3.27,8.63l-0.35,6.66C390.99,1342.18,385.07,1347.32,377.86,1347.32z M146.84,1126.75
					c-6.64,0-12.8,2.99-16.48,7.99c-3.18,4.33-4.11,9.69-2.54,14.7l38.42,177.93c3.39,10.84,14.53,18.46,27.07,18.46h184.54
					c6.43,0,11.7-4.53,12-10.32l0.35-6.66c0.14-2.76-0.87-5.44-2.87-7.53c-2.29-2.41-5.62-3.79-9.14-3.79h-58.38
					c-0.35,0-0.66-0.25-0.73-0.6l-34.11-176.92c-2.26-7.78-10.12-13.26-19.11-13.26H146.84z"/>
			</g>
			<path class="st7" d="M313.72,1317.47H183.58c-0.41,0-0.74-0.33-0.74-0.74c0-0.41,0.33-0.74,0.74-0.74h130.14
				c0.41,0,0.74,0.33,0.74,0.74C314.46,1317.14,314.13,1317.47,313.72,1317.47z"/>
		</g>
	</g>
	<path class="st9" d="M462.02,1193.87l-14.87,38.44c-10.36,26.77,9.56,55.54,38.33,55.37c68.16-0.41,170.13-0.82,170.13,0.41
		c0,1.57-44.82,128.49-58.53,167.28c-1.92,5.44,2.13,11.14,7.91,11.14h135.26c4.52,0,6.39-5.77,2.72-8.41l-33.45-24.04
		c0,0,37.08-75.96,63.13-149.68c15.62-44.2-17.36-90.52-64.36-90.52H462.02z"/>
	<path class="st7" d="M670.43,1446.85c-3.24,0-6.61-0.17-10.1-0.51c-8.36-0.81-16.72-2.46-24.81-4.06
		c-6.62-1.31-13.47-2.66-20.26-3.54c-0.41-0.05-0.69-0.42-0.64-0.83c0.05-0.41,0.43-0.69,0.83-0.64c6.84,0.89,13.71,2.24,20.36,3.55
		c8.05,1.59,16.38,3.23,24.67,4.04c17.92,1.74,32.56-1.06,43.52-8.33c0.93-0.62,1.9-1.31,2.7-2.17c0.28-0.3,0.75-0.32,1.05-0.04
		c0.3,0.28,0.32,0.74,0.04,1.05c-0.9,0.98-1.96,1.74-2.97,2.41C695.71,1443.81,684.18,1446.85,670.43,1446.85z"/>
	<path class="st9" d="M417.88,1193.87l-14.87,38.44c-10.36,26.77,9.56,55.54,38.33,55.37c68.16-0.41,170.13-0.82,170.13,0.41
		c0,1.57-44.82,128.49-58.53,167.28c-1.92,5.44,2.13,11.14,7.91,11.14H696.1c4.52,0,6.39-5.77,2.72-8.41l-33.45-24.04
		c0,0,37.08-75.96,63.13-149.68c15.62-44.2-17.36-90.52-64.36-90.52H417.88z"/>
	<path class="st7" d="M687.95,1467.25c-0.41,0-0.74-0.33-0.74-0.74s0.33-0.74,0.74-0.74c2.1,0,3.3-1.4,3.73-2.71
		c0.42-1.3,0.26-3.13-1.44-4.36c-0.03-0.02-0.05-0.04-0.08-0.06l-25.3-24.04c-0.23-0.22-0.3-0.57-0.16-0.86
		c0.37-0.76,37.36-76.77,63.1-149.6c7.34-20.76,4.24-43-8.5-61.01c-12.82-18.13-32.93-28.52-55.16-28.52
		c-0.41,0-0.74-0.33-0.74-0.74s0.33-0.74,0.74-0.74c22.72,0,43.27,10.62,56.37,29.15c13.02,18.4,16.18,41.13,8.68,62.35
		c-24.68,69.85-59.7,142.61-62.93,149.27l24.87,23.63c1.9,1.39,2.66,3.74,1.94,5.98C692.35,1465.78,690.34,1467.25,687.95,1467.25z"
		/>
	<path class="st7" d="M626.29,1446.85c-3.24,0-6.61-0.17-10.1-0.51c-8.36-0.81-16.72-2.46-24.81-4.06
		c-6.62-1.31-13.47-2.66-20.26-3.54c-0.41-0.05-0.69-0.42-0.64-0.83c0.05-0.41,0.43-0.69,0.83-0.64c6.84,0.89,13.71,2.24,20.36,3.55
		c8.05,1.59,16.38,3.23,24.67,4.04c17.92,1.74,32.56-1.06,43.52-8.33c0.93-0.62,1.9-1.31,2.7-2.17c0.28-0.3,0.75-0.32,1.05-0.04
		c0.3,0.28,0.32,0.74,0.04,1.05c-0.9,0.98-1.96,1.74-2.97,2.41C651.57,1443.81,640.03,1446.85,626.29,1446.85z"/>
	<path class="st7" d="M651.55,1289.08h-34.22c-0.41,0-0.74-0.33-0.74-0.74c0-0.41,0.33-0.74,0.74-0.74h34.22
		c0.41,0,0.74,0.33,0.74,0.74C652.29,1288.75,651.96,1289.08,651.55,1289.08z"/>
	<g>
		<g>
			<path class="st4" d="M407.59,1142.62c0.43-1.17,11.25-26.52,19.88-46.71c6.41-15.01,21.29-24.66,37.65-24.43l112.85,1.62
				c17.83,0.26,33.43,12.02,38.54,29.06l12.12,40.45l52.2,19.52l-28.68,33.34c-12.56,14.59-30.96,22.88-50.24,22.63l-175.04-2.31
				L407.59,1142.62z"/>
			<path class="st7" d="M602.79,1218.84c-0.29,0-0.59,0-0.88-0.01l-175.04-2.31c-0.33,0-0.62-0.23-0.71-0.55l-19.28-73.17
				c-0.04-0.15-0.03-0.3,0.02-0.45c0.35-0.94,7.04-16.66,19.89-46.74c6.48-15.17,21.25-24.88,37.74-24.88c0.2,0,0.4,0,0.61,0
				l112.85,1.62c18.24,0.26,34.01,12.15,39.24,29.59l12.02,40.09l51.86,19.39c0.23,0.08,0.4,0.28,0.46,0.51s0,0.48-0.16,0.67
				l-28.68,33.34C640.17,1210.53,622.02,1218.84,602.79,1218.84z M427.45,1215.05l174.48,2.31c19.15,0.25,37.22-7.9,49.67-22.37
				l27.99-32.53l-51.21-19.15c-0.22-0.08-0.38-0.26-0.45-0.48l-12.12-40.45c-5.04-16.81-20.25-28.28-37.84-28.53l-112.85-1.62
				c-16.12-0.24-30.64,9.18-36.96,23.98c-12.1,28.31-18.9,44.31-19.78,46.46L427.45,1215.05z"/>
		</g>
		<path class="st7" d="M600.98,1176.77c-0.17,0-0.33-0.06-0.47-0.17c-0.32-0.26-0.36-0.73-0.1-1.04l27.65-33.41
			c0.26-0.31,0.73-0.36,1.04-0.1c0.32,0.26,0.36,0.73,0.1,1.04l-27.65,33.41C601.4,1176.68,601.19,1176.77,600.98,1176.77z"/>
		<path class="st7" d="M651.23,1165.35h-80.42c-1.21,0-1.96-1.31-1.35-2.35l53.95-92.15c0.64-1.09,1.81-1.76,3.07-1.76h80.41
			c1.06,0,1.71,1.14,1.18,2.05l-54.3,92.75C653.24,1164.79,652.27,1165.35,651.23,1165.35z"/>
		<g>
			<g>
				<path class="st4" d="M656.25,1159.65l24.58,2.48l20.01-32.94c3.99-6.58,3.05-15.01-2.3-20.54l-11.65-12.06
					c-3.06-3.17-8.55-1.68-9.39,2.64c-0.43,2.22,0.04,4.69,2.48,7.04l-1.39-1.21c-3.61-3.15-9.22,0.34-7.82,4.91
					c0.45,1.46,1.16,3.11,2.23,4.98l-2.08-1.14c-4.84-2.64-10.22,2.5-7.78,7.43c0.75,1.52,1.86,3.16,3.45,4.9l-1.35-0.5
					c-5.18-1.92-8.72,5.35-3.96,8.15c0.06,0.04,0.13,0.08,0.2,0.11c7.31,4.12,0,16.81,0,16.81L656.25,1159.65z"/>
				<path class="st7" d="M680.84,1162.88c-0.02,0-0.05,0-0.07,0l-24.58-2.48c-0.25-0.03-0.47-0.18-0.59-0.4
					c-0.11-0.22-0.11-0.49,0.02-0.71l5.23-8.93c0.04-0.07,4.24-7.46,2.87-12.45c-0.41-1.49-1.26-2.58-2.6-3.34l-0.21-0.12
					c-2.83-1.67-3.05-4.68-2.05-6.76c0.89-1.87,2.93-3.45,5.55-3.02c-0.77-1.03-1.41-2.06-1.92-3.08c-1.26-2.53-0.75-5.44,1.29-7.4
					c2.04-1.96,4.96-2.37,7.45-1.04c-0.48-1.02-0.86-2-1.15-2.95c-0.72-2.37,0.17-4.79,2.28-6.15c1.49-0.97,3.21-1.18,4.77-0.67
					c-0.51-1.34-0.62-2.77-0.33-4.28c0.44-2.26,2.03-4.01,4.28-4.67c2.29-0.68,4.73-0.04,6.37,1.66l11.65,12.06
					c5.58,5.77,6.56,14.59,2.4,21.44l-20.01,32.94C681.33,1162.74,681.09,1162.88,680.84,1162.88z M657.47,1159.03l22.97,2.32
					l19.76-32.54c3.81-6.28,2.91-14.36-2.2-19.65l-11.65-12.06c-1.26-1.3-3.13-1.79-4.88-1.27c-1.7,0.51-2.91,1.83-3.24,3.54
					c-0.45,2.34,0.31,4.48,2.26,6.37c0.29,0.28,0.3,0.74,0.03,1.03c-0.27,0.3-0.73,0.32-1.03,0.06l-1.39-1.21
					c-1.72-1.5-3.75-1.12-4.96-0.34c-1.22,0.79-2.3,2.38-1.66,4.48c0.46,1.5,1.18,3.12,2.16,4.82c0.16,0.29,0.12,0.65-0.11,0.89
					c-0.23,0.24-0.59,0.29-0.88,0.13l-2.08-1.14c-1.92-1.05-4.19-0.75-5.77,0.77c-1.25,1.2-2.16,3.32-0.99,5.68
					c0.78,1.56,1.9,3.15,3.33,4.73c0.23,0.25,0.26,0.63,0.07,0.91c-0.19,0.28-0.55,0.4-0.87,0.28l-1.35-0.5
					c-2.27-0.84-4.05,0.38-4.8,1.97c-0.74,1.55-0.57,3.65,1.47,4.85l0.19,0.11c1.68,0.94,2.79,2.37,3.3,4.24
					c1.53,5.58-2.84,13.26-3.02,13.58L657.47,1159.03z"/>
			</g>
			<path class="st7" d="M692.11,1119.36c-0.19,0-0.38-0.07-0.53-0.22l-12.12-12.33c-0.29-0.29-0.28-0.76,0.01-1.05
				c0.29-0.29,0.76-0.28,1.05,0.01l12.12,12.33c0.29,0.29,0.28,0.76-0.01,1.05C692.48,1119.29,692.29,1119.36,692.11,1119.36z"/>
			<path class="st7" d="M685.07,1128.58c-0.2,0-0.39-0.08-0.54-0.23l-12.06-12.88c-0.28-0.3-0.26-0.77,0.03-1.05
				c0.3-0.28,0.77-0.26,1.05,0.03l12.07,12.88c0.28,0.3,0.26,0.77-0.03,1.05C685.43,1128.51,685.25,1128.58,685.07,1128.58z"/>
			<path class="st7" d="M677.45,1136.89c-0.18,0-0.36-0.06-0.5-0.2l-10.86-9.99c-0.3-0.28-0.32-0.75-0.04-1.05
				c0.28-0.3,0.75-0.32,1.05-0.04l10.86,9.99c0.3,0.28,0.32,0.75,0.04,1.05C677.85,1136.81,677.65,1136.89,677.45,1136.89z"/>
		</g>
	</g>
	<g>
		<g>
			<g>
				<path class="st4" d="M528.04,1024.22l-14.75,45.23c-1.32,4.05,0.71,8.46,4.53,9.84c13.97,5.04,43.56,13.98,34.23-4.48
					l7.77-43.36L528.04,1024.22z"/>
				<path class="st7" d="M529.03,1025.96l29.09,6.62l-7.52,41.97c-0.06,0.32-0.01,0.64,0.14,0.93c1.63,3.22,2.04,5.64,1.2,7.01
					c-1,1.63-3.92,1.97-6.19,1.97c-8.02,0-20.63-4.11-27.42-6.56c-3.07-1.11-4.7-4.69-3.63-7.99L529.03,1025.96z M528.05,1024.22
					l-14.75,45.23c-1.32,4.05,0.71,8.46,4.53,9.84c7.61,2.74,19.86,6.65,27.93,6.65c6.74,0,10.55-2.72,6.3-11.13l7.77-43.36
					L528.05,1024.22z"/>
			</g>
		</g>
		<g>
			<g>
				<path class="st7" d="M534.8,1002.67c-12.91-2.91-16.99-6.55-16.99-6.55s-4.2-2.89-2.67-11.46c1.53-8.57,17.18-20.81,35.24-3.86
					c18.07,16.95,39.66,32.92,22.98,35.42c0,0,9.12,16.42-14.44,13.37l-8.45,9.87c0,0-11.95,24.14-32.56,17.47
					c-20.62-6.67-14.17-15.07-11.67-23.19c0.73-2.38,2.03-6.59,3.5-11.36c4.38,1.72,9.86,4.44,16.91,8.27
					C541.92,1038.94,547.71,1005.57,534.8,1002.67z"/>
				<g>
					<path class="st4" d="M534.8,1002.67c12.91,2.91,21.64,5.4,17.02,16.82c-4.63,11.43-9.89,19.45-25.17,11.15
						c-7.05-3.84-12.53-6.55-16.91-8.27c3.54-11.51,8.08-26.25,8.08-26.25S521.89,999.76,534.8,1002.67z"/>
					<path class="st7" d="M518.64,998.47c2.34,1.39,7.18,3.7,15.84,5.65c8.18,1.84,14.59,3.54,16.49,7.16
						c0.98,1.87,0.81,4.38-0.52,7.66c-3.41,8.42-6.76,13.64-12.9,13.64c-2.8,0-6.23-1.09-10.19-3.24
						c-6.7-3.64-11.77-6.16-15.81-7.84L518.64,998.47z M518.26,994.83c0,0-5.56,17.88-9.1,29.39c4.38,1.72,9.41,4.52,16.47,8.36
						c4.38,2.38,9.37,3.18,12.32,3.18c7.35,0,11.96-8.14,15.26-16.29c4.63-11.43-5.18-14.87-18.09-17.78
						C522.21,998.79,518.26,994.83,518.26,994.83z"/>
				</g>
			</g>
			<g>
				<g>
					<path class="st4" d="M550.47,1030.47c0,0,10.44-10.56,14.3-3.27c3.87,7.29-8.3,16.99-15.4,8.42L550.47,1030.47z"/>
					<path class="st7" d="M555.98,1039.73c-2.42,0-4.98-0.99-7.18-3.63c-0.14-0.17-0.2-0.41-0.15-0.63l1.1-5.15
						c0.03-0.14,0.1-0.27,0.2-0.37c0.27-0.27,6.71-6.72,11.66-6c1.65,0.24,2.94,1.22,3.83,2.9c2.2,4.14-0.22,8.71-3.75,11.07
						C560.11,1038.97,558.1,1039.73,555.98,1039.73z M550.17,1035.42c3.45,3.9,7.89,3.15,10.68,1.28c2.98-1.99,5.05-5.77,3.27-9.14
						c-0.67-1.26-1.56-1.96-2.73-2.13c-3.41-0.5-8.39,3.61-10.24,5.42L550.17,1035.42z"/>
				</g>
				<path class="st7" d="M553.95,1034.11c-0.22,0-0.44-0.1-0.59-0.29c-0.25-0.32-0.19-0.79,0.13-1.04c1.81-1.39,4.07-2.12,6.35-2.07
					c0.41,0.01,0.73,0.35,0.72,0.76c-0.01,0.41-0.38,0.73-0.76,0.72c-1.93-0.05-3.89,0.59-5.41,1.76
					C554.27,1034.06,554.11,1034.11,553.95,1034.11z"/>
			</g>
		</g>
	</g>
	<g>
		<path class="st4" d="M580.93,1184.28l-108.67,15.02l-80.47-0.37c-13.67,48.64,144.46,67.05,144.46,67.05l-63.87,79.91
			c-6.13,7.67-7,18.28-2.14,26.8c13.42,23.48,41.85,61.05,56.42,79.88c3.61,4.66,11.03,3.06,12.38-2.68l7.66-32.59l89.35-150.42
			C659.62,1227.2,626.75,1177.94,580.93,1184.28z"/>
		<path class="st7" d="M532.18,1456.04c-2.37,0-4.61-1.08-6.1-3.01c-15.39-19.88-43.18-56.7-56.48-79.96
			c-5.04-8.81-4.17-19.66,2.2-27.63l63.05-78.88c-6.09-0.77-32.38-4.29-60.6-11.09c-43.16-10.41-70.03-23.13-79.87-37.81
			c-4.03-6.01-5.14-12.38-3.3-18.93c0.09-0.32,0.38-0.54,0.71-0.54c0,0,0,0,0,0l80.41,0.37l108.62-15.02
			c21.48-2.97,42.29,6.37,54.3,24.37c0.23,0.34,0.14,0.8-0.21,1.03c-0.34,0.23-0.8,0.14-1.03-0.2
			c-11.69-17.52-31.95-26.61-52.86-23.72l-108.67,15.02c-0.03,0-0.06,0.01-0.1,0.01l-79.9-0.37c-1.51,5.92-0.42,11.69,3.25,17.16
			c23.02,34.34,139.55,48.28,140.73,48.42c0.27,0.03,0.5,0.2,0.6,0.45c0.1,0.25,0.06,0.53-0.11,0.74l-63.87,79.91
			c-5.99,7.5-6.81,17.69-2.07,25.97c13.25,23.19,41,59.94,56.37,79.79c1.49,1.93,3.91,2.81,6.3,2.29c2.39-0.52,4.22-2.31,4.77-4.68
			l7.66-32.59c0.02-0.07,0.05-0.14,0.08-0.21l32.61-54.9c0.21-0.35,0.66-0.47,1.01-0.26c0.35,0.21,0.47,0.66,0.26,1.01l-32.55,54.81
			l-7.64,32.48c-0.69,2.93-2.95,5.15-5.9,5.79C533.3,1455.98,532.74,1456.04,532.18,1456.04z"/>
		<path class="st7" d="M539.73,1415.99c-0.2,0-0.4-0.08-0.55-0.25c-21.84-24.35-39.08-52.08-51.24-82.41
			c-0.15-0.38,0.03-0.81,0.41-0.96c0.38-0.15,0.81,0.03,0.96,0.41c12.1,30.17,29.25,57.75,50.97,81.97c0.27,0.3,0.25,0.77-0.06,1.05
			C540.08,1415.93,539.9,1415.99,539.73,1415.99z"/>
	</g>
	<path class="st7" d="M536.26,1327.83C536.26,1327.83,536.25,1327.83,536.26,1327.83l-29.66-0.11c-0.41,0-0.74-0.33-0.74-0.74
		c0-0.41,0.33-0.74,0.74-0.74c0,0,0,0,0,0l29.65,0.11c0.41,0,0.74,0.33,0.74,0.74C536.99,1327.5,536.66,1327.83,536.26,1327.83z"/>
	<path class="st4" d="M572.41,1454.29c2.63,4.65,6,8.75,9.91,12.21l115.36-0.17c-27.16-42.63-58.6-108.57-85.3-168.69
		c-18.04-40.61-58.85-66.39-103.39-65.27l-84.94,2.13l20.2-40.31l-26.02-4.73l-111.71,20.51
		c-25.71,101.99,61.07,106.74,61.07,106.74c2.46,0.16,128.79,0.42,128.79,0.42L572.41,1454.29z"/>
	<path class="st7" d="M560.74,1433.99c-0.26,0-0.51-0.14-0.65-0.38l-64.15-115.72c-9.43-0.02-125.99-0.27-128.4-0.42
		c-0.33-0.02-34.25-2.16-53.42-28.2c-14.02-19.04-16.82-45.78-8.33-79.46c0.07-0.28,0.3-0.49,0.58-0.55l111.71-20.51
		c0.09-0.02,0.18-0.02,0.27,0l26.02,4.73c0.4,0.07,0.67,0.46,0.6,0.86c-0.07,0.4-0.46,0.67-0.86,0.6l-25.89-4.71l-111.11,20.4
		c-8.24,33.02-5.48,59.18,8.2,77.76c18.76,25.48,51.98,27.58,52.31,27.6c2.42,0.15,127.49,0.42,128.75,0.42
		c0.27,0,0.52,0.15,0.65,0.38l64.36,116.1c0.2,0.36,0.07,0.81-0.29,1.01C560.99,1433.96,560.86,1433.99,560.74,1433.99z"/>
	<path class="st7" d="M614.29,1302.69c-0.29,0-0.56-0.17-0.68-0.46c-18-43.13-59.08-70.26-104.6-69.11l-84.94,2.13
		c-0.43,0.01-0.75-0.31-0.76-0.72c-0.01-0.41,0.31-0.75,0.72-0.76l84.94-2.13c22.38-0.56,44.06,5.51,62.72,17.56
		c19.17,12.38,34.14,30.52,43.29,52.46c0.16,0.38-0.02,0.81-0.4,0.97C614.48,1302.67,614.39,1302.69,614.29,1302.69z"/>
	<path class="st5" d="M318.31,1237.05l17.03-75.18l-51.61-11.52c0,0,12.64-51.33,34.81-66.58c26.65-18.33,108.75-7.95,128.94,4.63
		c24.76,15.42,30.95,64.27,30.95,64.27l-32.49,0.64c0,0,0.77,39.87,1.24,48.99L318.31,1237.05z"/>
	<path class="st4" d="M476.79,1152.66c5.9,24.28,9.46,45.58,9.46,45.58h-40.09l-0.48-45.58H476.79z"/>
	<path class="st7" d="M486.26,1198.98h-39.08c-0.41,0-0.74-0.33-0.74-0.74c0-0.41,0.33-0.74,0.74-0.74h38.2
		c-0.73-4.23-4.14-23.41-9.3-44.66c-0.1-0.4,0.15-0.8,0.54-0.89c0.39-0.1,0.8,0.15,0.89,0.54c5.84,24.03,9.44,45.42,9.47,45.63
		c0.04,0.21-0.02,0.43-0.17,0.6C486.68,1198.88,486.47,1198.98,486.26,1198.98z"/>
	<g>
		<path class="st4" d="M303.57,1246.97c0,0,108.08,2.78,143.6-43.99l-1.15-61.64c-0.04-2.68-0.35-5.36-0.95-7.98l-10.41-50.06
			l-16.71-4.24l-12.31,50.82l-34.45-55.41l-20.34,0.62c0,0,10.52,40.1-1.95,65.48c-2.68,5.45-6.03,11.06-6.03,11.06l-40.33,72.74
			L303.57,1246.97z"/>
		<path class="st7" d="M300.82,1248.68c-0.35,0-0.66-0.25-0.73-0.6c-0.08-0.4,0.19-0.79,0.59-0.87l6.49-1.23
			c0.05-0.01,0.08-0.02,0.14-0.01c0.29,0,0.58,0,0.86,0c56.25,0,90.87-11.46,110.04-21.1c20.85-10.49,28.4-21.14,28.47-21.25
			c0.23-0.34,0.69-0.42,1.03-0.19c0.34,0.23,0.42,0.69,0.19,1.03c-0.31,0.44-7.76,11-28.89,21.66
			c-19.32,9.75-54.21,21.33-110.84,21.33c-0.26,0-0.53,0-0.8,0l-6.43,1.22C300.92,1248.68,300.87,1248.68,300.82,1248.68z"/>
		<path class="st7" d="M377.94,1156.96c-1.76,0-3.53-0.2-5.27-0.59c-6.92-1.59-12.92-6.35-16.03-12.72
			c-0.18-0.37-0.03-0.81,0.34-0.99c0.37-0.18,0.81-0.03,0.99,0.34c2.92,5.97,8.54,10.43,15.04,11.93
			c6.49,1.49,13.51-0.06,18.76-4.15c0.32-0.25,0.79-0.19,1.04,0.13c0.25,0.32,0.19,0.79-0.13,1.04
			C388.48,1155.21,383.23,1156.96,377.94,1156.96z"/>
		<path class="st7" d="M423.88,1154.94c-2.21,0-4.41-0.39-6.46-1.18c-0.38-0.15-0.57-0.58-0.42-0.96c0.15-0.38,0.58-0.57,0.96-0.42
			c4.58,1.78,10.06,1.35,14.31-1.13c4.24-2.48,7.31-7.03,7.99-11.88c0.06-0.4,0.44-0.69,0.84-0.63c0.4,0.06,0.69,0.43,0.63,0.84
			c-0.75,5.29-4.09,10.26-8.71,12.96C430.29,1154.12,427.08,1154.94,423.88,1154.94z"/>
		<path class="st7" d="M351.48,1075.99c-0.37,0-0.7-0.28-0.74-0.66c-0.04-0.41,0.25-0.77,0.66-0.81c0.51-0.05,12.64-1.29,19.55-0.75
			c0.41,0.03,0.71,0.39,0.68,0.8c-0.03,0.41-0.39,0.71-0.8,0.68c-6.77-0.53-19.16,0.74-19.28,0.75
			C351.53,1075.99,351.5,1075.99,351.48,1075.99z"/>
		<path class="st7" d="M434.36,1084.44c-0.09,0-0.19-0.02-0.28-0.05c-6.79-2.75-15.7-4.03-15.79-4.04c-0.4-0.06-0.69-0.43-0.63-0.84
			c0.06-0.4,0.43-0.69,0.84-0.63c0.37,0.05,9.18,1.32,16.14,4.14c0.38,0.15,0.56,0.59,0.41,0.96
			C434.93,1084.26,434.66,1084.44,434.36,1084.44z"/>
	</g>
	<g>
		<path class="st4" d="M342.86,1151.63c-4.43,24.93-7.87,43.23-7.87,43.23s30.82-20.27,57.76-30.24
			c17.54-6.49,32.02,5.52,39.99,14.7c3.49,4.02,1.46,10.3-3.72,11.56l-20.85,5.09c-8.99-0.03-65.98,59.78-88.72,59.37
			c-22.73-0.41-56.44-35.53-34.96-104.74C305.82,1146.83,342.86,1151.63,342.86,1151.63z"/>
		<path class="st7" d="M415.2,1191.88c-0.31,0-0.59-0.19-0.7-0.5c-1.73-4.97-5.65-9.2-10.49-11.32c-0.37-0.16-0.55-0.6-0.38-0.98
			c0.16-0.37,0.6-0.55,0.98-0.38c5.2,2.28,9.43,6.84,11.29,12.19c0.13,0.39-0.07,0.81-0.46,0.94
			C415.36,1191.87,415.28,1191.88,415.2,1191.88z"/>
		<path class="st7" d="M425.02,1189.92c-0.32,0-0.61-0.21-0.71-0.53c-1.82-6.08-6.35-11.32-12.11-14.02
			c-0.37-0.17-0.53-0.61-0.36-0.98c0.17-0.37,0.61-0.53,0.98-0.36c6.13,2.88,10.96,8.46,12.9,14.93c0.12,0.39-0.1,0.8-0.5,0.92
			C425.16,1189.91,425.09,1189.92,425.02,1189.92z"/>
		<path class="st7" d="M319.69,1256.09c-0.08,0-0.16,0-0.25,0c-10.35-0.19-21.33-6.94-29.38-18.07
			c-8.74-12.1-21.19-39.57-6.27-87.63c0.12-0.39,0.53-0.61,0.93-0.49c0.39,0.12,0.61,0.54,0.49,0.93
			c-14.73,47.45-2.53,74.45,6.06,86.32c7.66,10.6,18.47,17.29,28.21,17.46c0.07,0,0.15,0,0.22,0c13.8,0,41.11-22.85,61.08-39.57
			c14.99-12.54,23.7-19.69,27.3-19.8l20.77-5.07c2.19-0.54,3.91-2.14,4.59-4.28c0.68-2.12,0.21-4.39-1.25-6.07
			c-8.69-10-22.55-20.64-39.17-14.49c-26.56,9.82-57.3,29.96-57.61,30.16c-0.25,0.16-0.57,0.16-0.82,0
			c-0.25-0.16-0.37-0.46-0.32-0.75c0.03-0.18,3.49-18.59,7.87-43.23c0.07-0.4,0.45-0.67,0.86-0.6c0.4,0.07,0.67,0.46,0.6,0.86
			c-3.61,20.35-6.6,36.45-7.55,41.55c6.43-4.11,33.05-20.72,56.46-29.38c18.34-6.78,33.44,6.43,40.8,14.9
			c1.8,2.07,2.38,4.87,1.54,7.49c-0.84,2.64-2.95,4.61-5.65,5.27l-20.85,5.09c-0.06,0.01-0.13,0.02-0.18,0.02c0,0,0,0,0,0
			c-3.19,0-14.48,9.45-26.44,19.46C360.46,1233.97,334.03,1256.09,319.69,1256.09z"/>
	</g>
	<g>
		<path class="st4" d="M528.81,1103.25c8.78-1.82,17.94-5.38,19.5-0.51c1.56,4.87-11.47,9.25-11.47,9.25
			c10.58,3.5,22.81-5.68,25.91-2.25c3.1,3.43-2.83,8.15-2.83,8.15s7.74-5.76,10.85-0.61c3.11,5.15-7.64,9.93-7.64,9.93
			s9.35-3.86,10.44,3.4c1.09,7.26-22.28,8.5-22.28,8.5c4.54,0.02,10.88,2.17,10.4,5.37c-0.48,3.2-8.59,2.77-17.36,3.46
			c-8.77,0.69-20.67-1.96-20.67-1.96c-5.65,14.13-17.97,42.76-22.72,52.85c-7.16,15.21-34.21,33.65-53.76,3.46l-0.66-18.86
			c0,0,42.51-50.69,50.52-62.08C507.65,1106.25,520.02,1105.07,528.81,1103.25z"/>
		<path class="st7" d="M472.36,1219.21c-7.02,0-16.64-3.11-25.35-16.56c-0.22-0.34-0.12-0.8,0.22-1.02c0.34-0.22,0.8-0.12,1.02,0.22
			c7.12,11.01,15.99,16.48,25.61,15.83c11.65-0.78,22.29-10.46,26.39-19.17c4.84-10.27,17.15-38.9,22.71-52.81
			c0.13-0.34,0.49-0.53,0.85-0.45c0.12,0.03,11.9,2.62,20.45,1.94c1.88-0.15,3.71-0.24,5.48-0.34c5.62-0.29,10.92-0.57,11.21-2.5
			c0.08-0.51-0.09-1-0.52-1.49c-1.59-1.85-5.99-3.01-9.15-3.03c-0.4,0-0.73-0.32-0.74-0.72c-0.01-0.4,0.3-0.74,0.7-0.76
			c0.17-0.01,17.18-0.96,20.96-5.59c0.53-0.65,0.74-1.33,0.63-2.06c-0.23-1.54-0.86-2.58-1.93-3.19c-2.76-1.56-7.45,0.34-7.49,0.36
			c-0.37,0.15-0.8-0.02-0.96-0.39c-0.16-0.37,0.01-0.8,0.38-0.97c0.07-0.03,6.53-2.94,7.62-6.42c0.27-0.86,0.17-1.66-0.31-2.46
			c-0.57-0.95-1.34-1.51-2.34-1.7c-3.15-0.62-7.39,2.49-7.43,2.52c-0.33,0.24-0.78,0.18-1.03-0.14c-0.25-0.32-0.19-0.78,0.13-1.03
			c0.03-0.03,3.24-2.61,3.44-5.09c0.06-0.75-0.17-1.39-0.7-1.98c-1.07-1.18-4.23-0.21-7.88,0.91c-5.18,1.59-11.64,3.57-17.72,1.55
			c-0.3-0.1-0.51-0.38-0.51-0.7c0-0.32,0.2-0.6,0.5-0.7c3.2-1.08,12.09-4.91,11-8.32c-1.04-3.24-7.01-1.77-13.34-0.22
			c-1.73,0.42-3.52,0.86-5.3,1.23c-0.76,0.16-1.54,0.31-2.35,0.47c-8.66,1.68-19.44,3.77-28.97,17.33
			c-4.78,6.8-21.48,27.4-34.65,43.48c-0.26,0.32-0.72,0.36-1.04,0.1c-0.32-0.26-0.36-0.73-0.1-1.04
			c13.15-16.06,29.83-36.63,34.59-43.39c9.88-14.05,21.45-16.29,29.9-17.93c0.8-0.16,1.58-0.31,2.33-0.46
			c1.75-0.36,3.53-0.8,5.25-1.22c7.02-1.72,13.65-3.34,15.1,1.21c1.35,4.21-5.77,7.74-9.67,9.32c4.99,0.81,10.22-0.79,14.54-2.12
			c4.31-1.32,7.71-2.37,9.41-0.49c0.81,0.89,1.17,1.93,1.08,3.1c-0.08,1-0.5,1.97-1.04,2.84c1.48-0.58,3.18-0.98,4.75-0.67
			c1.42,0.28,2.54,1.08,3.33,2.39c0.7,1.16,0.85,2.4,0.45,3.67c-0.6,1.92-2.42,3.62-4.22,4.89c1.36-0.06,2.79,0.11,3.99,0.79
			c1.47,0.83,2.37,2.26,2.67,4.26c0.17,1.15-0.15,2.23-0.95,3.21c-2.69,3.3-10.71,4.88-16.3,5.59c1.86,0.6,3.53,1.48,4.5,2.61
			c0.7,0.82,1,1.75,0.86,2.68c-0.47,3.12-5.55,3.38-12.6,3.75c-1.76,0.09-3.58,0.19-5.44,0.34c-7.74,0.61-17.7-1.31-20.28-1.84
			c-5.67,14.13-17.73,42.16-22.51,52.31c-4.39,9.32-15.29,19.18-27.63,20.01C473.45,1219.2,472.91,1219.21,472.36,1219.21z"/>
		<path class="st7" d="M543.68,1139.55c-0.41,0-0.74-0.33-0.74-0.73c0-0.41,0.32-0.74,0.73-0.75l6.96-0.07c0,0,0.01,0,0.01,0
			c0.41,0,0.74,0.33,0.74,0.73c0,0.41-0.32,0.74-0.73,0.75L543.68,1139.55C543.69,1139.55,543.68,1139.55,543.68,1139.55z"/>
		<path class="st7" d="M549.27,1129.18c-1.81,0-3.61-0.07-5.41-0.22c-0.41-0.03-0.71-0.39-0.68-0.8c0.03-0.41,0.38-0.71,0.8-0.68
			c5.96,0.48,11.96,0.15,17.84-0.98c0.4-0.08,0.79,0.19,0.87,0.59c0.08,0.4-0.19,0.79-0.59,0.87
			C557.86,1128.77,553.57,1129.18,549.27,1129.18z"/>
		<path class="st7" d="M548.57,1120.55c-2.13,0-4.25-0.16-6.34-0.49c-0.4-0.06-0.68-0.44-0.62-0.85c0.06-0.4,0.44-0.68,0.85-0.62
			c5.35,0.85,10.95,0.56,16.19-0.82c0.39-0.1,0.8,0.13,0.9,0.53c0.1,0.4-0.13,0.8-0.53,0.9
			C555.64,1120.1,552.1,1120.55,548.57,1120.55z"/>
		<path class="st7" d="M526.88,1126.89c-0.14,0-0.28-0.04-0.41-0.12c-0.34-0.23-0.43-0.68-0.21-1.03c0.96-1.45,1.46-3.12,1.99-4.89
			c0.24-0.8,0.49-1.63,0.78-2.44c0.72-1.97,2.43-5.38,5.78-6.11c0.4-0.09,0.79,0.17,0.88,0.56c0.09,0.4-0.17,0.79-0.56,0.88
			c-2.66,0.58-4.09,3.49-4.71,5.18c-0.28,0.76-0.52,1.57-0.76,2.36c-0.54,1.8-1.1,3.66-2.17,5.29
			C527.36,1126.78,527.12,1126.89,526.88,1126.89z"/>
		<path class="st7" d="M516.53,1146.78c-0.33,0-0.64-0.23-0.72-0.57c-0.1-0.4,0.15-0.8,0.54-0.89c1.95-0.47,3.95-0.62,5.95-0.44
			c0.41,0.04,0.71,0.4,0.67,0.8c-0.04,0.41-0.39,0.71-0.8,0.67c-1.84-0.17-3.67-0.03-5.47,0.41
			C516.65,1146.78,516.59,1146.78,516.53,1146.78z"/>
		<path class="st7" d="M447.63,1204.19c-0.4,0-0.73-0.32-0.74-0.72l-1.12-50.16c-0.01-0.41,0.32-0.75,0.72-0.76
			c0.01,0,0.01,0,0.02,0c0.4,0,0.73,0.32,0.74,0.72l1.12,50.16c0.01,0.41-0.32,0.75-0.72,0.76
			C447.65,1204.19,447.64,1204.19,447.63,1204.19z"/>
	</g>
	<g>
		<g>
			<path class="st7" d="M369.25,1006.09c-11.81-11.55-11.99-30.18,1.78-36.22c16.11-7.07,29.15,2.79,32.03,16.8
				c3.03,14.73,5.16,26.96-4.97,30.61C389.92,1020.22,379.49,1016.1,369.25,1006.09z"/>
			<path class="st7" d="M397.65,1027.56c4.11,9.52,0.25,20.28-8.63,24.04c-8.88,3.75-19.41-0.92-23.53-10.45
				c-4.11-9.52,3.28-26.42,12.16-30.18C386.54,1007.22,393.54,1018.04,397.65,1027.56z"/>
		</g>
		<path class="st7" d="M383.53,1044.95c-6.09-15.69-10.97-28.27-5.74-37.62c4.07-7.28,9.31-2.95,26.89-13.29
			c14.26-8.39,20.81-17.05,30.67-15.07c3.4,0.68,5.65,2.32,6.24,2.77c10.02,7.6,6.52,26.02,6.31,27.32
			c-0.93,5.78,0.13,4.77-53.11,43.83C391.66,1051.24,386.8,1053.38,383.53,1044.95z"/>
		<g>
			<g>
				<path class="st4" d="M395.47,1040.08l-15.53,39.25c0,0,0.07,7.59,19.07,12.79c2.7,0.74,10.08,1.13,12.55-0.48
					c3.23-2.1,3.3-4.68,1.77-7.56c-1.87-3.52-2.24-4.37-2.24-4.37l9.43-26.91L395.47,1040.08z"/>
			</g>
			<g>
				<path class="st7" d="M411.09,1080.45c-0.08,0-0.16-0.01-0.25-0.04c-0.39-0.14-0.59-0.56-0.45-0.94l9.22-26.3l-23.75-12.06
					l-13.33,33.68c-0.15,0.38-0.58,0.56-0.96,0.42c-0.38-0.15-0.57-0.58-0.42-0.96l13.63-34.44c0.08-0.19,0.23-0.35,0.43-0.42
					c0.19-0.07,0.41-0.06,0.6,0.03l25.05,12.72c0.33,0.17,0.49,0.55,0.36,0.9l-9.43,26.91
					C411.68,1080.26,411.39,1080.45,411.09,1080.45z"/>
			</g>
			<g>
				<g>
					<g>
						<path class="st4" d="M439.94,1036.92c-0.57,5.96-2.24,11.94-5.71,16.83c-3.47,4.89-8.9,8.59-14.88,9.12
							c-5.19,0.46-10.43-1.49-14.5-4.72c-4.08-3.24-7.07-7.68-9.19-12.42c-5.44,0.35-10.87-3.39-12.47-8.59
							c-0.92-3-0.54-6.53,1.57-8.85c2.11-2.32,6.1-2.94,8.47-0.88c1.35,1.18,2.03,2.99,3.43,4.1c1.56,1.25,3.79,1.4,5.69,0.79
							c1.9-0.62,3.51-1.91,4.9-3.34c4.39-4.49,7.06-10.61,7.36-16.88c-0.03,0.59,2.69,2.27,3.17,2.59c1.2,0.82,2.47,1.54,3.79,2.15
							c2.61,1.2,5.42,1.96,8.27,2.26c1.45,0.15,2.91,0.18,4.36,0.09c1.15-0.07,2.8-0.68,3.92-0.37c2.34,0.64,1.83,5.08,1.93,6.88
							C440.25,1029.42,440.3,1033.18,439.94,1036.92z"/>
						<path class="st7" d="M417.85,1063.68c-4.62,0-9.45-1.76-13.47-4.95c-3.72-2.95-6.81-7.07-9.2-12.24
							c-5.56,0.11-11.08-3.82-12.71-9.13c-1.08-3.53-0.42-7.2,1.73-9.57c2.49-2.74,6.93-3.18,9.5-0.94
							c0.72,0.63,1.25,1.39,1.76,2.12c0.52,0.74,1,1.45,1.65,1.96c1.25,1,3.17,1.26,5,0.66c1.52-0.49,2.98-1.49,4.6-3.15
							c4.25-4.35,6.86-10.33,7.15-16.39c0,0,0,0,0,0c0.02-0.41,0.38-0.72,0.78-0.7c0.35,0.02,0.63,0.27,0.69,0.6
							c0.16,0.22,0.74,0.73,2.53,1.9c0.15,0.1,0.26,0.17,0.33,0.22c1.15,0.79,2.39,1.49,3.68,2.08c2.54,1.16,5.25,1.9,8.04,2.2
							c1.41,0.15,2.84,0.18,4.24,0.09c0.36-0.02,0.79-0.11,1.25-0.2c0.94-0.18,2.01-0.39,2.9-0.15c2.48,0.67,2.47,4.15,2.46,6.45
							c0,0.42,0,0.8,0.01,1.1c0.24,4.47,0.2,8.08-0.11,11.34c-0.66,6.86-2.62,12.65-5.85,17.19c-3.82,5.39-9.59,8.91-15.42,9.43
							C418.89,1063.65,418.37,1063.68,417.85,1063.68z M395.65,1044.99c0.29,0,0.56,0.17,0.68,0.44c2.31,5.17,5.33,9.25,8.97,12.15
							c4.18,3.32,9.27,4.98,13.98,4.56c5.41-0.48,10.77-3.77,14.34-8.81c3.07-4.33,4.95-9.87,5.58-16.48
							c0.31-3.19,0.34-6.72,0.1-11.12c-0.02-0.32-0.02-0.73-0.01-1.19c0.01-1.74,0.02-4.64-1.37-5.02
							c-0.56-0.15-1.45,0.02-2.23,0.17c-0.51,0.1-0.99,0.19-1.44,0.22c-1.48,0.09-2.99,0.06-4.49-0.09
							c-2.96-0.31-5.82-1.09-8.5-2.32c-1.37-0.63-2.68-1.37-3.9-2.21c-0.06-0.04-0.17-0.11-0.31-0.2c-0.78-0.51-1.38-0.92-1.84-1.27
							c-0.67,5.83-3.33,11.46-7.43,15.66c-1.79,1.83-3.44,2.95-5.2,3.52c-2.3,0.75-4.75,0.4-6.38-0.91
							c-0.81-0.65-1.38-1.47-1.94-2.27c-0.48-0.69-0.94-1.35-1.52-1.85c-1.95-1.7-5.5-1.31-7.43,0.82
							c-1.78,1.95-2.33,5.15-1.41,8.14c1.49,4.85,6.63,8.39,11.71,8.07C395.62,1044.99,395.64,1044.99,395.65,1044.99z
							 M439.94,1036.92L439.94,1036.92L439.94,1036.92z M415.34,1012.12C415.34,1012.12,415.34,1012.12,415.34,1012.12
							C415.34,1012.12,415.34,1012.12,415.34,1012.12z"/>
					</g>
					<path class="st7" d="M395.47,1040.82c-0.36,0-0.67-0.26-0.73-0.62c-0.42-2.54-2.47-4.72-4.98-5.3
						c-0.4-0.09-0.65-0.49-0.56-0.89c0.09-0.4,0.49-0.65,0.89-0.56c3.09,0.71,5.6,3.38,6.11,6.5c0.07,0.4-0.21,0.78-0.61,0.85
						C395.55,1040.82,395.51,1040.82,395.47,1040.82z"/>
				</g>
			</g>
		</g>
	</g>
	<g>
		<g>
			<path class="st4" d="M220.45,1255.11c-10.18,0-18.46-8.24-18.46-18.37v-24.44c0-10.13,8.28-18.37,18.46-18.37
				c10.18,0,18.46,8.24,18.46,18.37v24.44C238.9,1246.87,230.62,1255.11,220.45,1255.11z M220.45,1197.67
				c-8.1,0-14.69,6.56-14.69,14.62v24.44c0,8.06,6.59,14.62,14.69,14.62c8.1,0,14.69-6.56,14.69-14.62v-24.44
				C235.14,1204.23,228.55,1197.67,220.45,1197.67z"/>
			<path class="st7" d="M220.45,1255.85c-10.59,0-19.2-8.57-19.2-19.11v-24.44c0-10.54,8.61-19.11,19.2-19.11
				c10.59,0,19.2,8.57,19.2,19.11v24.44C239.64,1247.28,231.03,1255.85,220.45,1255.85z M220.45,1194.66
				c-9.77,0-17.72,7.91-17.72,17.63v24.44c0,9.72,7.95,17.63,17.72,17.63c9.77,0,17.72-7.91,17.72-17.63v-24.44
				C238.16,1202.57,230.22,1194.66,220.45,1194.66z M220.45,1252.1c-8.51,0-15.43-6.89-15.43-15.36v-24.44
				c0-8.47,6.92-15.36,15.43-15.36c8.51,0,15.43,6.89,15.43,15.36v24.44C235.88,1245.21,228.95,1252.1,220.45,1252.1z
				 M220.45,1198.41c-7.69,0-13.95,6.23-13.95,13.88v24.44c0,7.65,6.26,13.88,13.95,13.88c7.69,0,13.95-6.23,13.95-13.88v-24.44
				C234.4,1204.64,228.14,1198.41,220.45,1198.41z"/>
		</g>
		<g>
			<path class="st4" d="M239.29,1255.11c-10.18,0-18.46-8.24-18.46-18.37v-24.44c0-10.13,8.28-18.37,18.46-18.37
				c10.18,0,18.46,8.24,18.46,18.37v24.44C257.75,1246.87,249.47,1255.11,239.29,1255.11z M239.29,1197.67
				c-8.1,0-14.69,6.56-14.69,14.62v24.44c0,8.06,6.59,14.62,14.69,14.62c8.1,0,14.69-6.56,14.69-14.62v-24.44
				C253.98,1204.23,247.39,1197.67,239.29,1197.67z"/>
			<path class="st7" d="M239.29,1255.85c-10.59,0-19.2-8.57-19.2-19.11v-24.44c0-10.54,8.61-19.11,19.2-19.11
				c10.59,0,19.2,8.57,19.2,19.11v24.44C258.49,1247.28,249.87,1255.85,239.29,1255.85z M239.29,1194.66
				c-9.77,0-17.72,7.91-17.72,17.63v24.44c0,9.72,7.95,17.63,17.72,17.63c9.77,0,17.72-7.91,17.72-17.63v-24.44
				C257.01,1202.57,249.06,1194.66,239.29,1194.66z M239.29,1252.1c-8.51,0-15.43-6.89-15.43-15.36v-24.44
				c0-8.47,6.92-15.36,15.43-15.36c8.51,0,15.43,6.89,15.43,15.36v24.44C254.72,1245.21,247.8,1252.1,239.29,1252.1z
				 M239.29,1198.41c-7.69,0-13.95,6.23-13.95,13.88v24.44c0,7.65,6.26,13.88,13.95,13.88c7.69,0,13.95-6.23,13.95-13.88v-24.44
				C253.24,1204.64,246.98,1198.41,239.29,1198.41z"/>
		</g>
		<g>
			<path class="st4" d="M282.04,1316.78h-103l6.83-86.16h95.77l6.33,79.77C288.24,1313.83,285.51,1316.78,282.04,1316.78z"/>
			<path class="st7" d="M282.04,1317.52h-103c-0.21,0-0.4-0.09-0.54-0.24c-0.14-0.15-0.21-0.35-0.19-0.56l6.83-86.16
				c0.03-0.39,0.35-0.68,0.74-0.68h95.77c0.39,0,0.71,0.3,0.74,0.68l6.33,79.77c0.15,1.84-0.49,3.67-1.74,5.03
				C285.7,1316.73,283.9,1317.52,282.04,1317.52z M179.84,1316.04h102.2c1.47,0,2.84-0.59,3.83-1.67c0.99-1.07,1.47-2.46,1.36-3.91
				l-6.27-79.09h-94.4L179.84,1316.04z"/>
		</g>
		<g>
			<path class="st4" d="M197.25,1316.78h-21.2c-3.47,0-6.2-2.94-5.93-6.38l6.33-79.77h20.4l6.33,79.77
				C203.45,1313.83,200.72,1316.78,197.25,1316.78z"/>
			<path class="st7" d="M197.25,1317.52h-21.2c-1.86,0-3.66-0.78-4.92-2.15c-1.26-1.36-1.89-3.19-1.75-5.03l6.33-79.77
				c0.03-0.39,0.35-0.68,0.74-0.68h20.4c0.39,0,0.71,0.3,0.74,0.68l6.33,79.77c0.15,1.84-0.49,3.67-1.74,5.03
				C200.91,1316.73,199.12,1317.52,197.25,1317.52z M177.13,1231.36l-6.27,79.09c-0.11,1.45,0.37,2.84,1.36,3.91
				c1,1.08,2.36,1.67,3.83,1.67h21.2c1.47,0,2.84-0.59,3.83-1.67c0.99-1.07,1.47-2.46,1.36-3.91l-6.27-79.09H177.13z"/>
		</g>
		<g>
			<path class="st7" d="M278.37,1259.67h-69.98c-0.41,0-0.74-0.33-0.74-0.74c0-0.41,0.33-0.74,0.74-0.74h69.98
				c0.41,0,0.74,0.33,0.74,0.74C279.11,1259.34,278.78,1259.67,278.37,1259.67z"/>
			<g>
				<rect x="233.35" y="1255.39" class="st4" width="27.42" height="6.93"/>
				<path class="st7" d="M260.77,1263.05h-27.42c-0.41,0-0.74-0.33-0.74-0.74v-6.93c0-0.41,0.33-0.74,0.74-0.74h27.42
					c0.41,0,0.74,0.33,0.74,0.74v6.93C261.51,1262.72,261.18,1263.05,260.77,1263.05z M234.09,1261.57h25.94v-5.44h-25.94V1261.57z"
					/>
			</g>
		</g>
	</g>
	<path class="st4" d="M682.36,1443.68l31.8,16.95c1.14,0.61,1.85,1.8,1.85,3.09v0c0,1.95-1.59,3.52-3.54,3.5l-58.27-0.66l3.3-18.47
		L682.36,1443.68z"/>
	<g>
		<path class="st7" d="M583.48,1468.28c-0.31-0.24-7.68-6.1-15.79-21.07l-10.76-19.3l1.31-0.73l10.77,19.3
			c7.96,14.71,15.33,20.55,15.4,20.61L583.48,1468.28z"/>
	</g>
	<g>
		<polygon class="st7" points="678.46,1434.6 560.79,1434.6 560.79,1433.1 678.11,1433.1 		"/>
	</g>
	<path class="st12" d="M613.71,1300.65l43.91,93.42c0,0,21.53,43.06,27.18,50.91l27.68,14.75c0,0,3.52,1.18,3.53,3.98
		c0,0,0.09,2.87-3.14,3.54"/>
</g>
</svg>
